<svg width="40" height="40" viewBox="0 0 40 40" fill="none" xmlns="http://www.w3.org/2000/svg">
<path d="M19.8723 39.1097C9.18188 39.1097 0.515625 30.4795 0.515625 19.8336C0.515625 9.18776 9.18188 0.557617 19.8723 0.557617C30.5627 0.557617 39.2289 9.18776 39.2289 19.8336C39.2289 30.4795 30.5627 39.1097 19.8723 39.1097Z" fill="#404765"/>
<path d="M15.1017 15.5391H11.0941V28.4286H15.1017V15.5391Z" fill="white"/>
<path d="M13.0776 13.8475C14.3847 13.8475 15.4476 12.7839 15.4476 11.4671C15.4476 10.1503 14.3898 9.0918 13.0776 9.0918C11.7655 9.0918 10.7076 10.1554 10.7076 11.4671C10.7076 12.7788 11.7655 13.8475 13.0776 13.8475Z" fill="white"/>
<path d="M21.5048 21.6572C21.5048 19.844 22.344 18.7653 23.946 18.7653C25.4209 18.7653 26.1278 19.8035 26.1278 21.6572V28.4235H30.1151V20.2644C30.1151 16.8103 28.152 15.144 25.4056 15.144C22.6593 15.144 21.5048 17.2712 21.5048 17.2712V15.534H17.6599V28.4235H21.5048V21.6572Z" fill="white"/>
</svg>
