<svg width="1167" height="475" viewBox="0 0 1167 475" fill="none" xmlns="http://www.w3.org/2000/svg">
<path d="M17.775 230.36C9.495 230.36 4.455 225.545 4.455 216.41V198.5H8.955V216.23C8.955 223.205 12.15 226.355 17.82 226.355C23.49 226.355 26.73 223.205 26.73 216.23V198.5H31.095V216.41C31.095 225.545 26.1 230.36 17.775 230.36ZM52.4257 205.925C58.2307 205.925 62.3257 209.255 62.3257 216.275V230H58.0057V216.77C58.0057 212.09 55.6657 209.795 51.5707 209.795C46.9807 209.795 44.0107 212.54 44.0107 217.715V230H39.6907V206.15H43.8307V209.75C45.5857 207.32 48.6457 205.925 52.4257 205.925ZM70.3206 230V196.61H74.6406V230H70.3206ZM104.444 218.21C104.444 218.57 104.399 219.11 104.354 219.515H85.0039C85.5439 223.7 88.9189 226.49 93.6439 226.49C96.4339 226.49 98.7739 225.545 100.529 223.61L102.914 226.4C100.754 228.92 97.4689 230.27 93.5089 230.27C85.8139 230.27 80.6839 225.185 80.6839 218.075C80.6839 211.01 85.7689 205.925 92.6539 205.925C99.5389 205.925 104.444 210.875 104.444 218.21ZM92.6539 209.57C88.5139 209.57 85.4539 212.36 85.0039 216.41H100.304C99.8539 212.405 96.8389 209.57 92.6539 209.57ZM118.468 205.925C124.993 205.925 128.683 209.075 128.683 215.6V230H124.588V226.85C123.148 229.01 120.493 230.27 116.758 230.27C111.358 230.27 107.938 227.39 107.938 223.25C107.938 219.425 110.413 216.275 117.523 216.275H124.363V215.42C124.363 211.775 122.248 209.66 117.973 209.66C115.138 209.66 112.258 210.65 110.413 212.225L108.613 208.985C111.088 207.005 114.643 205.925 118.468 205.925ZM117.478 226.94C120.718 226.94 123.283 225.455 124.363 222.71V219.38H117.703C113.428 219.38 112.213 221.045 112.213 223.07C112.213 225.455 114.193 226.94 117.478 226.94ZM143.518 230.27C139.558 230.27 135.643 229.055 133.663 227.48L135.463 224.06C137.488 225.5 140.728 226.535 143.833 226.535C147.838 226.535 149.503 225.32 149.503 223.295C149.503 217.94 134.428 222.575 134.428 213.08C134.428 208.805 138.253 205.925 144.373 205.925C147.478 205.925 150.988 206.735 153.058 208.085L151.213 211.505C149.053 210.11 146.668 209.615 144.328 209.615C140.548 209.615 138.703 211.01 138.703 212.9C138.703 218.525 153.823 213.935 153.823 223.205C153.823 227.525 149.863 230.27 143.518 230.27ZM171.957 205.925C177.762 205.925 181.857 209.255 181.857 216.275V230H177.537V216.77C177.537 212.09 175.197 209.795 171.102 209.795C166.512 209.795 163.542 212.54 163.542 217.715V230H159.222V196.61H163.542V209.525C165.342 207.23 168.312 205.925 171.957 205.925ZM213.997 225.5L215.347 228.605C214.042 229.73 212.062 230.27 210.127 230.27C205.312 230.27 202.567 227.615 202.567 222.8V209.705H198.517V206.15H202.567V200.93H206.887V206.15H213.727V209.705H206.887V222.62C206.887 225.185 208.237 226.625 210.622 226.625C211.882 226.625 213.097 226.22 213.997 225.5ZM233.305 205.925C239.11 205.925 243.205 209.255 243.205 216.275V230H238.885V216.77C238.885 212.09 236.545 209.795 232.45 209.795C227.86 209.795 224.89 212.54 224.89 217.715V230H220.57V196.61H224.89V209.525C226.69 207.23 229.66 205.925 233.305 205.925ZM272.886 218.21C272.886 218.57 272.841 219.11 272.796 219.515H253.446C253.986 223.7 257.361 226.49 262.086 226.49C264.876 226.49 267.216 225.545 268.971 223.61L271.356 226.4C269.196 228.92 265.911 230.27 261.951 230.27C254.256 230.27 249.126 225.185 249.126 218.075C249.126 211.01 254.211 205.925 261.096 205.925C267.981 205.925 272.886 210.875 272.886 218.21ZM261.096 209.57C256.956 209.57 253.896 212.36 253.446 216.41H268.746C268.296 212.405 265.281 209.57 261.096 209.57ZM303.615 205.925C310.59 205.925 315.675 210.785 315.675 218.075C315.675 225.41 310.59 230.27 303.615 230.27C300.24 230.27 297.27 228.965 295.29 226.4V238.73H290.97V206.15H295.11V209.93C297.045 207.275 300.105 205.925 303.615 205.925ZM303.255 226.49C307.845 226.49 311.31 223.16 311.31 218.075C311.31 213.035 307.845 209.705 303.255 209.705C298.71 209.705 295.245 213.035 295.245 218.075C295.245 223.16 298.71 226.49 303.255 226.49ZM331.859 230.27C324.704 230.27 319.439 225.185 319.439 218.075C319.439 210.965 324.704 205.925 331.859 205.925C339.014 205.925 344.234 210.965 344.234 218.075C344.234 225.185 339.014 230.27 331.859 230.27ZM331.859 226.49C336.449 226.49 339.869 223.16 339.869 218.075C339.869 212.99 336.449 209.705 331.859 209.705C327.269 209.705 323.804 212.99 323.804 218.075C323.804 223.16 327.269 226.49 331.859 226.49ZM381.769 206.15H385.639L376.729 230H372.589L365.704 211.91L358.729 230H354.589L345.724 206.15H349.819L356.749 225.14L363.949 206.15H367.594L374.659 225.23L381.769 206.15ZM410.919 218.21C410.919 218.57 410.874 219.11 410.829 219.515H391.479C392.019 223.7 395.394 226.49 400.119 226.49C402.909 226.49 405.249 225.545 407.004 223.61L409.389 226.4C407.229 228.92 403.944 230.27 399.984 230.27C392.289 230.27 387.159 225.185 387.159 218.075C387.159 211.01 392.244 205.925 399.129 205.925C406.014 205.925 410.919 210.875 410.919 218.21ZM399.129 209.57C394.989 209.57 391.929 212.36 391.479 216.41H406.779C406.329 212.405 403.314 209.57 399.129 209.57ZM421.057 210.155C422.587 207.365 425.557 205.925 429.742 205.925V210.11C429.382 210.065 429.067 210.065 428.752 210.065C424.117 210.065 421.237 212.9 421.237 218.12V230H416.917V206.15H421.057V210.155ZM457.674 230.27C450.519 230.27 445.254 225.185 445.254 218.075C445.254 210.965 450.519 205.925 457.674 205.925C464.829 205.925 470.049 210.965 470.049 218.075C470.049 225.185 464.829 230.27 457.674 230.27ZM457.674 226.49C462.264 226.49 465.684 223.16 465.684 218.075C465.684 212.99 462.264 209.705 457.674 209.705C453.084 209.705 449.619 212.99 449.619 218.075C449.619 223.16 453.084 226.49 457.674 226.49ZM484.754 199.895C482.189 199.895 480.884 201.335 480.884 204.08V206.15H487.814V209.705H480.974V230H476.654V209.705H472.604V206.15H476.654V204.035C476.654 199.4 479.444 196.34 484.529 196.34C486.374 196.34 488.174 196.79 489.389 197.735L488.084 201.02C487.184 200.345 486.014 199.895 484.754 199.895Z" fill="black"/>
<path d="M16.83 255.925C22.635 255.925 26.73 259.255 26.73 266.275V280H22.41V266.77C22.41 262.09 20.07 259.795 15.975 259.795C11.385 259.795 8.415 262.54 8.415 267.715V280H4.095V256.15H8.235V259.75C9.99 257.32 13.05 255.925 16.83 255.925ZM45.0717 280.27C37.9167 280.27 32.6517 275.185 32.6517 268.075C32.6517 260.965 37.9167 255.925 45.0717 255.925C52.2267 255.925 57.4467 260.965 57.4467 268.075C57.4467 275.185 52.2267 280.27 45.0717 280.27ZM45.0717 276.49C49.6617 276.49 53.0817 273.16 53.0817 268.075C53.0817 262.99 49.6617 259.705 45.0717 259.705C40.4817 259.705 37.0167 262.99 37.0167 268.075C37.0167 273.16 40.4817 276.49 45.0717 276.49ZM75.4812 275.5L76.8312 278.605C75.5262 279.73 73.5462 280.27 71.6112 280.27C66.7962 280.27 64.0512 277.615 64.0512 272.8V259.705H60.0012V256.15H64.0512V250.93H68.3712V256.15H75.2112V259.705H68.3712V272.62C68.3712 275.185 69.7212 276.625 72.1062 276.625C73.3662 276.625 74.5812 276.22 75.4812 275.5ZM102.818 268.21C102.818 268.57 102.773 269.11 102.728 269.515H83.378C83.918 273.7 87.293 276.49 92.018 276.49C94.808 276.49 97.148 275.545 98.903 273.61L101.288 276.4C99.128 278.92 95.843 280.27 91.883 280.27C84.188 280.27 79.058 275.185 79.058 268.075C79.058 261.01 84.143 255.925 91.028 255.925C97.913 255.925 102.818 260.875 102.818 268.21ZM91.028 259.57C86.888 259.57 83.828 262.36 83.378 266.41H98.678C98.228 262.405 95.213 259.57 91.028 259.57ZM132.962 275.5L134.312 278.605C133.007 279.73 131.027 280.27 129.092 280.27C124.277 280.27 121.532 277.615 121.532 272.8V259.705H117.482V256.15H121.532V250.93H125.852V256.15H132.692V259.705H125.852V272.62C125.852 275.185 127.202 276.625 129.587 276.625C130.847 276.625 132.062 276.22 132.962 275.5ZM148.219 255.925C154.744 255.925 158.434 259.075 158.434 265.6V280H154.339V276.85C152.899 279.01 150.244 280.27 146.509 280.27C141.109 280.27 137.689 277.39 137.689 273.25C137.689 269.425 140.164 266.275 147.274 266.275H154.114V265.42C154.114 261.775 151.999 259.66 147.724 259.66C144.889 259.66 142.009 260.65 140.164 262.225L138.364 258.985C140.839 257.005 144.394 255.925 148.219 255.925ZM147.229 276.94C150.469 276.94 153.034 275.455 154.114 272.71V269.38H147.454C143.179 269.38 141.964 271.045 141.964 273.07C141.964 275.455 143.944 276.94 147.229 276.94ZM184.654 280L175.699 268.885L170.749 273.475V280H166.429V246.61H170.749V268.03L183.754 256.15H188.974L178.939 266.005L189.964 280H184.654ZM196.011 251.56C194.346 251.56 193.086 250.345 193.086 248.77C193.086 247.195 194.346 245.935 196.011 245.935C197.676 245.935 198.936 247.15 198.936 248.68C198.936 250.3 197.721 251.56 196.011 251.56ZM193.851 280V256.15H198.171V280H193.851ZM219.154 255.925C224.959 255.925 229.054 259.255 229.054 266.275V280H224.734V266.77C224.734 262.09 222.394 259.795 218.299 259.795C213.709 259.795 210.739 262.54 210.739 267.715V280H206.419V256.15H210.559V259.75C212.314 257.32 215.374 255.925 219.154 255.925ZM255.901 256.15H259.996V276.76C259.996 285.175 255.721 289 247.621 289C243.256 289 238.846 287.785 236.236 285.445L238.306 282.115C240.511 284.005 243.976 285.22 247.486 285.22C253.111 285.22 255.676 282.61 255.676 277.21V275.32C253.606 277.795 250.501 279.01 247.081 279.01C240.196 279.01 234.976 274.33 234.976 267.445C234.976 260.56 240.196 255.925 247.081 255.925C250.636 255.925 253.876 257.23 255.901 259.84V256.15ZM247.576 275.23C252.346 275.23 255.766 272.035 255.766 267.445C255.766 262.81 252.346 259.705 247.576 259.705C242.761 259.705 239.341 262.81 239.341 267.445C239.341 272.035 242.761 275.23 247.576 275.23Z" fill="#00A9FF"/>
<path d="M9.105 328.5H10.605V339H9.375L3.075 331.17V339H1.575V328.5H2.805L9.105 336.33V328.5ZM16.9429 339.09C14.5579 339.09 12.8029 337.395 12.8029 335.025C12.8029 332.655 14.5579 330.975 16.9429 330.975C19.3279 330.975 21.0679 332.655 21.0679 335.025C21.0679 337.395 19.3279 339.09 16.9429 339.09ZM16.9429 337.83C18.4729 337.83 19.6129 336.72 19.6129 335.025C19.6129 333.33 18.4729 332.235 16.9429 332.235C15.4129 332.235 14.2579 333.33 14.2579 335.025C14.2579 336.72 15.4129 337.83 16.9429 337.83ZM27.0793 337.5L27.5293 338.535C27.0943 338.91 26.4343 339.09 25.7893 339.09C24.1843 339.09 23.2693 338.205 23.2693 336.6V332.235H21.9193V331.05H23.2693V329.31H24.7093V331.05H26.9893V332.235H24.7093V336.54C24.7093 337.395 25.1593 337.875 25.9543 337.875C26.3743 337.875 26.7793 337.74 27.0793 337.5ZM36.1916 335.07C36.1916 335.19 36.1766 335.37 36.1616 335.505H29.7116C29.8916 336.9 31.0166 337.83 32.5916 337.83C33.5216 337.83 34.3016 337.515 34.8866 336.87L35.6816 337.8C34.9616 338.64 33.8666 339.09 32.5466 339.09C29.9816 339.09 28.2716 337.395 28.2716 335.025C28.2716 332.67 29.9666 330.975 32.2616 330.975C34.5566 330.975 36.1916 332.625 36.1916 335.07ZM32.2616 332.19C30.8816 332.19 29.8616 333.12 29.7116 334.47H34.8116C34.6616 333.135 33.6566 332.19 32.2616 332.19ZM37.8277 335.505V334.26H41.8627V335.505H37.8277ZM48.2463 337.5L48.6963 338.535C48.2613 338.91 47.6013 339.09 46.9563 339.09C45.3513 339.09 44.4363 338.205 44.4363 336.6V332.235H43.0863V331.05H44.4363V329.31H45.8763V331.05H48.1563V332.235H45.8763V336.54C45.8763 337.395 46.3263 337.875 47.1213 337.875C47.5413 337.875 47.9463 337.74 48.2463 337.5ZM53.3323 330.975C55.5073 330.975 56.7373 332.025 56.7373 334.2V339H55.3723V337.95C54.8923 338.67 54.0073 339.09 52.7623 339.09C50.9623 339.09 49.8223 338.13 49.8223 336.75C49.8223 335.475 50.6473 334.425 53.0173 334.425H55.2973V334.14C55.2973 332.925 54.5923 332.22 53.1673 332.22C52.2223 332.22 51.2623 332.55 50.6473 333.075L50.0473 331.995C50.8723 331.335 52.0573 330.975 53.3323 330.975ZM53.0023 337.98C54.0823 337.98 54.9373 337.485 55.2973 336.57V335.46H53.0773C51.6523 335.46 51.2473 336.015 51.2473 336.69C51.2473 337.485 51.9073 337.98 53.0023 337.98ZM65.4771 339L62.4921 335.295L60.8421 336.825V339H59.4021V327.87H60.8421V335.01L65.1771 331.05H66.9171L63.5721 334.335L67.2471 339H65.4771ZM69.2627 329.52C68.7077 329.52 68.2877 329.115 68.2877 328.59C68.2877 328.065 68.7077 327.645 69.2627 327.645C69.8177 327.645 70.2377 328.05 70.2377 328.56C70.2377 329.1 69.8327 329.52 69.2627 329.52ZM68.5427 339V331.05H69.9827V339H68.5427ZM76.9772 330.975C78.9122 330.975 80.2772 332.085 80.2772 334.425V339H78.8372V334.59C78.8372 333.03 78.0572 332.265 76.6922 332.265C75.1622 332.265 74.1722 333.18 74.1722 334.905V339H72.7322V331.05H74.1122V332.25C74.6972 331.44 75.7172 330.975 76.9772 330.975ZM89.2261 331.05H90.5911V337.92C90.5911 340.725 89.1661 342 86.4661 342C85.0111 342 83.5411 341.595 82.6711 340.815L83.3611 339.705C84.0961 340.335 85.2511 340.74 86.4211 340.74C88.2961 340.74 89.1511 339.87 89.1511 338.07V337.44C88.4611 338.265 87.4261 338.67 86.2861 338.67C83.9911 338.67 82.2511 337.11 82.2511 334.815C82.2511 332.52 83.9911 330.975 86.2861 330.975C87.4711 330.975 88.5511 331.41 89.2261 332.28V331.05ZM86.4511 337.41C88.0411 337.41 89.1811 336.345 89.1811 334.815C89.1811 333.27 88.0411 332.235 86.4511 332.235C84.8461 332.235 83.7061 333.27 83.7061 334.815C83.7061 336.345 84.8461 337.41 86.4511 337.41ZM98.0909 329.52C97.5359 329.52 97.1159 329.115 97.1159 328.59C97.1159 328.065 97.5359 327.645 98.0909 327.645C98.6459 327.645 99.0659 328.05 99.0659 328.56C99.0659 329.1 98.6609 329.52 98.0909 329.52ZM97.3709 339V331.05H98.8109V339H97.3709ZM103.84 339.09C102.52 339.09 101.215 338.685 100.555 338.16L101.155 337.02C101.83 337.5 102.91 337.845 103.945 337.845C105.28 337.845 105.835 337.44 105.835 336.765C105.835 334.98 100.81 336.525 100.81 333.36C100.81 331.935 102.085 330.975 104.125 330.975C105.16 330.975 106.33 331.245 107.02 331.695L106.405 332.835C105.685 332.37 104.89 332.205 104.11 332.205C102.85 332.205 102.235 332.67 102.235 333.3C102.235 335.175 107.275 333.645 107.275 336.735C107.275 338.175 105.955 339.09 103.84 339.09ZM117.123 337.5L117.573 338.535C117.138 338.91 116.478 339.09 115.833 339.09C114.228 339.09 113.313 338.205 113.313 336.6V332.235H111.963V331.05H113.313V329.31H114.753V331.05H117.033V332.235H114.753V336.54C114.753 337.395 115.203 337.875 115.998 337.875C116.418 337.875 116.823 337.74 117.123 337.5ZM123.559 330.975C125.494 330.975 126.859 332.085 126.859 334.425V339H125.419V334.59C125.419 333.03 124.639 332.265 123.274 332.265C121.744 332.265 120.754 333.18 120.754 334.905V339H119.314V327.87H120.754V332.175C121.354 331.41 122.344 330.975 123.559 330.975ZM136.753 335.07C136.753 335.19 136.738 335.37 136.723 335.505H130.273C130.453 336.9 131.578 337.83 133.153 337.83C134.083 337.83 134.863 337.515 135.448 336.87L136.243 337.8C135.523 338.64 134.428 339.09 133.108 339.09C130.543 339.09 128.833 337.395 128.833 335.025C128.833 332.67 130.528 330.975 132.823 330.975C135.118 330.975 136.753 332.625 136.753 335.07ZM132.823 332.19C131.443 332.19 130.423 333.12 130.273 334.47H135.373C135.223 333.135 134.218 332.19 132.823 332.19ZM146.996 330.975C149.321 330.975 151.016 332.595 151.016 335.025C151.016 337.455 149.321 339.09 146.996 339.09C145.826 339.09 144.806 338.64 144.161 337.74V339H142.781V327.87H144.221V332.25C144.881 331.395 145.871 330.975 146.996 330.975ZM146.876 337.83C148.406 337.83 149.561 336.72 149.561 335.025C149.561 333.33 148.406 332.235 146.876 332.235C145.361 332.235 144.206 333.33 144.206 335.025C144.206 336.72 145.361 337.83 146.876 337.83ZM154.386 332.385C154.896 331.455 155.886 330.975 157.281 330.975V332.37C157.161 332.355 157.056 332.355 156.951 332.355C155.406 332.355 154.446 333.3 154.446 335.04V339H153.006V331.05H154.386V332.385ZM159.775 329.52C159.22 329.52 158.8 329.115 158.8 328.59C158.8 328.065 159.22 327.645 159.775 327.645C160.33 327.645 160.75 328.05 160.75 328.56C160.75 329.1 160.345 329.52 159.775 329.52ZM159.055 339V331.05H160.495V339H159.055ZM169.305 327.87H170.745V339H169.365V337.74C168.72 338.64 167.7 339.09 166.53 339.09C164.205 339.09 162.51 337.455 162.51 335.025C162.51 332.595 164.205 330.975 166.53 330.975C167.655 330.975 168.645 331.395 169.305 332.25V327.87ZM166.65 337.83C168.165 337.83 169.32 336.72 169.32 335.025C169.32 333.33 168.165 332.235 166.65 332.235C165.12 332.235 163.965 333.33 163.965 335.025C163.965 336.72 165.12 337.83 166.65 337.83ZM179.709 331.05H181.074V337.92C181.074 340.725 179.649 342 176.949 342C175.494 342 174.024 341.595 173.154 340.815L173.844 339.705C174.579 340.335 175.734 340.74 176.904 340.74C178.779 340.74 179.634 339.87 179.634 338.07V337.44C178.944 338.265 177.909 338.67 176.769 338.67C174.474 338.67 172.734 337.11 172.734 334.815C172.734 332.52 174.474 330.975 176.769 330.975C177.954 330.975 179.034 331.41 179.709 332.28V331.05ZM176.934 337.41C178.524 337.41 179.664 336.345 179.664 334.815C179.664 333.27 178.524 332.235 176.934 332.235C175.329 332.235 174.189 333.27 174.189 334.815C174.189 336.345 175.329 337.41 176.934 337.41ZM191.011 335.07C191.011 335.19 190.996 335.37 190.981 335.505H184.531C184.711 336.9 185.836 337.83 187.411 337.83C188.341 337.83 189.121 337.515 189.706 336.87L190.501 337.8C189.781 338.64 188.686 339.09 187.366 339.09C184.801 339.09 183.091 337.395 183.091 335.025C183.091 332.67 184.786 330.975 187.081 330.975C189.376 330.975 191.011 332.625 191.011 335.07ZM187.081 332.19C185.701 332.19 184.681 333.12 184.531 334.47H189.631C189.481 333.135 188.476 332.19 187.081 332.19ZM201.254 330.975C203.579 330.975 205.274 332.595 205.274 335.025C205.274 337.455 203.579 339.09 201.254 339.09C200.084 339.09 199.064 338.64 198.419 337.74V339H197.039V327.87H198.479V332.25C199.139 331.395 200.129 330.975 201.254 330.975ZM201.134 337.83C202.664 337.83 203.819 336.72 203.819 335.025C203.819 333.33 202.664 332.235 201.134 332.235C199.619 332.235 198.464 333.33 198.464 335.025C198.464 336.72 199.619 337.83 201.134 337.83ZM214.448 335.07C214.448 335.19 214.433 335.37 214.418 335.505H207.968C208.148 336.9 209.273 337.83 210.848 337.83C211.778 337.83 212.558 337.515 213.143 336.87L213.938 337.8C213.218 338.64 212.123 339.09 210.803 339.09C208.238 339.09 206.528 337.395 206.528 335.025C206.528 332.67 208.223 330.975 210.518 330.975C212.813 330.975 214.448 332.625 214.448 335.07ZM210.518 332.19C209.138 332.19 208.118 333.12 207.968 334.47H213.068C212.918 333.135 211.913 332.19 210.518 332.19ZM220.468 337.5L220.918 338.535C220.483 338.91 219.823 339.09 219.178 339.09C217.573 339.09 216.658 338.205 216.658 336.6V332.235H215.308V331.05H216.658V329.31H218.098V331.05H220.378V332.235H218.098V336.54C218.098 337.395 218.548 337.875 219.343 337.875C219.763 337.875 220.168 337.74 220.468 337.5ZM233.252 331.05H234.542L231.572 339H230.192L227.897 332.97L225.572 339H224.192L221.237 331.05H222.602L224.912 337.38L227.312 331.05H228.527L230.882 337.41L233.252 331.05ZM242.969 335.07C242.969 335.19 242.954 335.37 242.939 335.505H236.489C236.669 336.9 237.794 337.83 239.369 337.83C240.299 337.83 241.079 337.515 241.664 336.87L242.459 337.8C241.739 338.64 240.644 339.09 239.324 339.09C236.759 339.09 235.049 337.395 235.049 335.025C235.049 332.67 236.744 330.975 239.039 330.975C241.334 330.975 242.969 332.625 242.969 335.07ZM239.039 332.19C237.659 332.19 236.639 333.12 236.489 334.47H241.589C241.439 333.135 240.434 332.19 239.039 332.19ZM252.154 335.07C252.154 335.19 252.139 335.37 252.124 335.505H245.674C245.854 336.9 246.979 337.83 248.554 337.83C249.484 337.83 250.264 337.515 250.849 336.87L251.644 337.8C250.924 338.64 249.829 339.09 248.509 339.09C245.944 339.09 244.234 337.395 244.234 335.025C244.234 332.67 245.929 330.975 248.224 330.975C250.519 330.975 252.154 332.625 252.154 335.07ZM248.224 332.19C246.844 332.19 245.824 333.12 245.674 334.47H250.774C250.624 333.135 249.619 332.19 248.224 332.19ZM258.398 330.975C260.333 330.975 261.698 332.085 261.698 334.425V339H260.258V334.59C260.258 333.03 259.478 332.265 258.113 332.265C256.583 332.265 255.593 333.18 255.593 334.905V339H254.153V331.05H255.533V332.25C256.118 331.44 257.138 330.975 258.398 330.975ZM272.636 330.975C274.571 330.975 275.936 332.085 275.936 334.425V339H274.496V334.59C274.496 333.03 273.716 332.265 272.351 332.265C270.821 332.265 269.831 333.18 269.831 334.905V339H268.391V327.87H269.831V332.175C270.431 331.41 271.421 330.975 272.636 330.975ZM285.83 335.07C285.83 335.19 285.815 335.37 285.8 335.505H279.35C279.53 336.9 280.655 337.83 282.23 337.83C283.16 337.83 283.94 337.515 284.525 336.87L285.32 337.8C284.6 338.64 283.505 339.09 282.185 339.09C279.62 339.09 277.91 337.395 277.91 335.025C277.91 332.67 279.605 330.975 281.9 330.975C284.195 330.975 285.83 332.625 285.83 335.07ZM281.9 332.19C280.52 332.19 279.5 333.12 279.35 334.47H284.45C284.3 333.135 283.295 332.19 281.9 332.19ZM290.505 330.975C292.68 330.975 293.91 332.025 293.91 334.2V339H292.545V337.95C292.065 338.67 291.18 339.09 289.935 339.09C288.135 339.09 286.995 338.13 286.995 336.75C286.995 335.475 287.82 334.425 290.19 334.425H292.47V334.14C292.47 332.925 291.765 332.22 290.34 332.22C289.395 332.22 288.435 332.55 287.82 333.075L287.22 331.995C288.045 331.335 289.23 330.975 290.505 330.975ZM290.175 337.98C291.255 337.98 292.11 337.485 292.47 336.57V335.46H290.25C288.825 335.46 288.42 336.015 288.42 336.69C288.42 337.485 289.08 337.98 290.175 337.98ZM297.955 332.385C298.465 331.455 299.455 330.975 300.85 330.975V332.37C300.73 332.355 300.625 332.355 300.52 332.355C298.975 332.355 298.015 333.3 298.015 335.04V339H296.575V331.05H297.955V332.385ZM303.345 329.52C302.79 329.52 302.37 329.115 302.37 328.59C302.37 328.065 302.79 327.645 303.345 327.645C303.9 327.645 304.32 328.05 304.32 328.56C304.32 329.1 303.915 329.52 303.345 329.52ZM302.625 339V331.05H304.065V339H302.625ZM311.059 330.975C312.994 330.975 314.359 332.085 314.359 334.425V339H312.919V334.59C312.919 333.03 312.139 332.265 310.774 332.265C309.244 332.265 308.254 333.18 308.254 334.905V339H306.814V331.05H308.194V332.25C308.779 331.44 309.799 330.975 311.059 330.975ZM323.308 331.05H324.673V337.92C324.673 340.725 323.248 342 320.548 342C319.093 342 317.623 341.595 316.753 340.815L317.443 339.705C318.178 340.335 319.333 340.74 320.503 340.74C322.378 340.74 323.233 339.87 323.233 338.07V337.44C322.543 338.265 321.508 338.67 320.368 338.67C318.073 338.67 316.333 337.11 316.333 334.815C316.333 332.52 318.073 330.975 320.368 330.975C321.553 330.975 322.633 331.41 323.308 332.28V331.05ZM320.533 337.41C322.123 337.41 323.263 336.345 323.263 334.815C323.263 333.27 322.123 332.235 320.533 332.235C318.928 332.235 317.788 333.27 317.788 334.815C317.788 336.345 318.928 337.41 320.533 337.41ZM334.348 330.975C336.523 330.975 337.753 332.025 337.753 334.2V339H336.388V337.95C335.908 338.67 335.023 339.09 333.778 339.09C331.978 339.09 330.838 338.13 330.838 336.75C330.838 335.475 331.663 334.425 334.033 334.425H336.313V334.14C336.313 332.925 335.608 332.22 334.183 332.22C333.238 332.22 332.278 332.55 331.663 333.075L331.063 331.995C331.888 331.335 333.073 330.975 334.348 330.975ZM334.018 337.98C335.098 337.98 335.953 337.485 336.313 336.57V335.46H334.093C332.668 335.46 332.263 336.015 332.263 336.69C332.263 337.485 332.923 337.98 334.018 337.98ZM344.663 330.975C346.598 330.975 347.963 332.085 347.963 334.425V339H346.523V334.59C346.523 333.03 345.743 332.265 344.378 332.265C342.848 332.265 341.858 333.18 341.858 334.905V339H340.418V331.05H341.798V332.25C342.383 331.44 343.403 330.975 344.663 330.975ZM356.732 327.87H358.172V339H356.792V337.74C356.147 338.64 355.127 339.09 353.957 339.09C351.632 339.09 349.937 337.455 349.937 335.025C349.937 332.595 351.632 330.975 353.957 330.975C355.082 330.975 356.072 331.395 356.732 332.25V327.87ZM354.077 337.83C355.592 337.83 356.747 336.72 356.747 335.025C356.747 333.33 355.592 332.235 354.077 332.235C352.547 332.235 351.392 333.33 351.392 335.025C351.392 336.72 352.547 337.83 354.077 337.83ZM370.895 331.05H372.335V339H370.97V337.8C370.385 338.625 369.395 339.09 368.27 339.09C366.215 339.09 364.85 337.965 364.85 335.625V331.05H366.29V335.46C366.29 337.02 367.07 337.8 368.435 337.8C369.935 337.8 370.895 336.87 370.895 335.16V331.05ZM379.321 330.975C381.256 330.975 382.621 332.085 382.621 334.425V339H381.181V334.59C381.181 333.03 380.401 332.265 379.036 332.265C377.506 332.265 376.516 333.18 376.516 334.905V339H375.076V331.05H376.456V332.25C377.041 331.44 378.061 330.975 379.321 330.975ZM391.39 327.87H392.83V339H391.45V337.74C390.805 338.64 389.785 339.09 388.615 339.09C386.29 339.09 384.595 337.455 384.595 335.025C384.595 332.595 386.29 330.975 388.615 330.975C389.74 330.975 390.73 331.395 391.39 332.25V327.87ZM388.735 337.83C390.25 337.83 391.405 336.72 391.405 335.025C391.405 333.33 390.25 332.235 388.735 332.235C387.205 332.235 386.05 333.33 386.05 335.025C386.05 336.72 387.205 337.83 388.735 337.83ZM402.739 335.07C402.739 335.19 402.724 335.37 402.709 335.505H396.259C396.439 336.9 397.564 337.83 399.139 337.83C400.069 337.83 400.849 337.515 401.434 336.87L402.229 337.8C401.509 338.64 400.414 339.09 399.094 339.09C396.529 339.09 394.819 337.395 394.819 335.025C394.819 332.67 396.514 330.975 398.809 330.975C401.104 330.975 402.739 332.625 402.739 335.07ZM398.809 332.19C397.429 332.19 396.409 333.12 396.259 334.47H401.359C401.209 333.135 400.204 332.19 398.809 332.19ZM406.119 332.385C406.629 331.455 407.619 330.975 409.014 330.975V332.37C408.894 332.355 408.789 332.355 408.684 332.355C407.139 332.355 406.179 333.3 406.179 335.04V339H404.739V331.05H406.119V332.385ZM413.127 339.09C411.807 339.09 410.502 338.685 409.842 338.16L410.442 337.02C411.117 337.5 412.197 337.845 413.232 337.845C414.567 337.845 415.122 337.44 415.122 336.765C415.122 334.98 410.097 336.525 410.097 333.36C410.097 331.935 411.372 330.975 413.412 330.975C414.447 330.975 415.617 331.245 416.307 331.695L415.692 332.835C414.972 332.37 414.177 332.205 413.397 332.205C412.137 332.205 411.522 332.67 411.522 333.3C411.522 335.175 416.562 333.645 416.562 336.735C416.562 338.175 415.242 339.09 413.127 339.09ZM422.382 337.5L422.832 338.535C422.397 338.91 421.737 339.09 421.092 339.09C419.487 339.09 418.572 338.205 418.572 336.6V332.235H417.222V331.05H418.572V329.31H420.012V331.05H422.292V332.235H420.012V336.54C420.012 337.395 420.462 337.875 421.257 337.875C421.677 337.875 422.082 337.74 422.382 337.5ZM427.468 330.975C429.643 330.975 430.873 332.025 430.873 334.2V339H429.508V337.95C429.028 338.67 428.143 339.09 426.898 339.09C425.098 339.09 423.958 338.13 423.958 336.75C423.958 335.475 424.783 334.425 427.153 334.425H429.433V334.14C429.433 332.925 428.728 332.22 427.303 332.22C426.358 332.22 425.398 332.55 424.783 333.075L424.183 331.995C425.008 331.335 426.193 330.975 427.468 330.975ZM427.138 337.98C428.218 337.98 429.073 337.485 429.433 336.57V335.46H427.213C425.788 335.46 425.383 336.015 425.383 336.69C425.383 337.485 426.043 337.98 427.138 337.98ZM437.783 330.975C439.718 330.975 441.083 332.085 441.083 334.425V339H439.643V334.59C439.643 333.03 438.863 332.265 437.498 332.265C435.968 332.265 434.978 333.18 434.978 334.905V339H433.538V331.05H434.918V332.25C435.503 331.44 436.523 330.975 437.783 330.975ZM449.852 327.87H451.292V339H449.912V337.74C449.267 338.64 448.247 339.09 447.077 339.09C444.752 339.09 443.057 337.455 443.057 335.025C443.057 332.595 444.752 330.975 447.077 330.975C448.202 330.975 449.192 331.395 449.852 332.25V327.87ZM447.197 337.83C448.712 337.83 449.867 336.72 449.867 335.025C449.867 333.33 448.712 332.235 447.197 332.235C445.667 332.235 444.512 333.33 444.512 335.025C444.512 336.72 445.667 337.83 447.197 337.83ZM454.736 329.52C454.181 329.52 453.761 329.115 453.761 328.59C453.761 328.065 454.181 327.645 454.736 327.645C455.291 327.645 455.711 328.05 455.711 328.56C455.711 329.1 455.306 329.52 454.736 329.52ZM454.016 339V331.05H455.456V339H454.016ZM462.451 330.975C464.386 330.975 465.751 332.085 465.751 334.425V339H464.311V334.59C464.311 333.03 463.531 332.265 462.166 332.265C460.636 332.265 459.646 333.18 459.646 334.905V339H458.206V331.05H459.586V332.25C460.171 331.44 461.191 330.975 462.451 330.975ZM474.7 331.05H476.065V337.92C476.065 340.725 474.64 342 471.94 342C470.485 342 469.015 341.595 468.145 340.815L468.835 339.705C469.57 340.335 470.725 340.74 471.895 340.74C473.77 340.74 474.625 339.87 474.625 338.07V337.44C473.935 338.265 472.9 338.67 471.76 338.67C469.465 338.67 467.725 337.11 467.725 334.815C467.725 332.52 469.465 330.975 471.76 330.975C472.945 330.975 474.025 331.41 474.7 332.28V331.05ZM471.925 337.41C473.515 337.41 474.655 336.345 474.655 334.815C474.655 333.27 473.515 332.235 471.925 332.235C470.32 332.235 469.18 333.27 469.18 334.815C469.18 336.345 470.32 337.41 471.925 337.41ZM479.176 337.035C479.746 337.035 480.151 337.47 480.151 338.055C480.151 338.355 480.091 338.58 479.896 339.135L479.191 341.22H478.246L478.801 338.985C478.426 338.85 478.171 338.505 478.171 338.055C478.171 337.455 478.606 337.035 479.176 337.035ZM5.58 357.975C7.905 357.975 9.6 359.595 9.6 362.025C9.6 364.455 7.905 366.09 5.58 366.09C4.41 366.09 3.39 365.64 2.745 364.74V366H1.365V354.87H2.805V359.25C3.465 358.395 4.455 357.975 5.58 357.975ZM5.46 364.83C6.99 364.83 8.145 363.72 8.145 362.025C8.145 360.33 6.99 359.235 5.46 359.235C3.945 359.235 2.79 360.33 2.79 362.025C2.79 363.72 3.945 364.83 5.46 364.83ZM18.7746 362.07C18.7746 362.19 18.7596 362.37 18.7446 362.505H12.2946C12.4746 363.9 13.5996 364.83 15.1746 364.83C16.1046 364.83 16.8846 364.515 17.4696 363.87L18.2646 364.8C17.5446 365.64 16.4496 366.09 15.1296 366.09C12.5646 366.09 10.8546 364.395 10.8546 362.025C10.8546 359.67 12.5496 357.975 14.8446 357.975C17.1396 357.975 18.7746 359.625 18.7746 362.07ZM14.8446 359.19C13.4646 359.19 12.4446 360.12 12.2946 361.47H17.3946C17.2446 360.135 16.2396 359.19 14.8446 359.19ZM24.7942 364.5L25.2442 365.535C24.8092 365.91 24.1492 366.09 23.5042 366.09C21.8992 366.09 20.9842 365.205 20.9842 363.6V359.235H19.6342V358.05H20.9842V356.31H22.4242V358.05H24.7042V359.235H22.4242V363.54C22.4242 364.395 22.8742 364.875 23.6692 364.875C24.0892 364.875 24.4942 364.74 24.7942 364.5ZM37.5786 358.05H38.8686L35.8986 366H34.5186L32.2236 359.97L29.8986 366H28.5186L25.5636 358.05H26.9286L29.2386 364.38L31.6386 358.05H32.8536L35.2086 364.41L37.5786 358.05ZM47.2951 362.07C47.2951 362.19 47.2801 362.37 47.2651 362.505H40.8151C40.9951 363.9 42.1201 364.83 43.6951 364.83C44.6251 364.83 45.4051 364.515 45.9901 363.87L46.7851 364.8C46.0651 365.64 44.9701 366.09 43.6501 366.09C41.0851 366.09 39.3751 364.395 39.3751 362.025C39.3751 359.67 41.0701 357.975 43.3651 357.975C45.6601 357.975 47.2951 359.625 47.2951 362.07ZM43.3651 359.19C41.9851 359.19 40.9651 360.12 40.8151 361.47H45.9151C45.7651 360.135 44.7601 359.19 43.3651 359.19ZM56.4797 362.07C56.4797 362.19 56.4647 362.37 56.4497 362.505H49.9997C50.1797 363.9 51.3047 364.83 52.8797 364.83C53.8097 364.83 54.5897 364.515 55.1747 363.87L55.9697 364.8C55.2497 365.64 54.1547 366.09 52.8347 366.09C50.2697 366.09 48.5597 364.395 48.5597 362.025C48.5597 359.67 50.2547 357.975 52.5497 357.975C54.8447 357.975 56.4797 359.625 56.4797 362.07ZM52.5497 359.19C51.1697 359.19 50.1497 360.12 49.9997 361.47H55.0997C54.9497 360.135 53.9447 359.19 52.5497 359.19ZM62.7243 357.975C64.6593 357.975 66.0243 359.085 66.0243 361.425V366H64.5843V361.59C64.5843 360.03 63.8043 359.265 62.4393 359.265C60.9093 359.265 59.9193 360.18 59.9193 361.905V366H58.4793V358.05H59.8593V359.25C60.4443 358.44 61.4643 357.975 62.7243 357.975ZM74.9975 366.09C73.6775 366.09 72.3725 365.685 71.7125 365.16L72.3125 364.02C72.9875 364.5 74.0675 364.845 75.1025 364.845C76.4375 364.845 76.9925 364.44 76.9925 363.765C76.9925 361.98 71.9675 363.525 71.9675 360.36C71.9675 358.935 73.2425 357.975 75.2825 357.975C76.3175 357.975 77.4875 358.245 78.1775 358.695L77.5625 359.835C76.8425 359.37 76.0475 359.205 75.2675 359.205C74.0075 359.205 73.3925 359.67 73.3925 360.3C73.3925 362.175 78.4325 360.645 78.4325 363.735C78.4325 365.175 77.1125 366.09 74.9975 366.09ZM87.4172 362.07C87.4172 362.19 87.4022 362.37 87.3872 362.505H80.9372C81.1172 363.9 82.2422 364.83 83.8172 364.83C84.7472 364.83 85.5272 364.515 86.1122 363.87L86.9072 364.8C86.1872 365.64 85.0922 366.09 83.7722 366.09C81.2072 366.09 79.4972 364.395 79.4972 362.025C79.4972 359.67 81.1922 357.975 83.4872 357.975C85.7822 357.975 87.4172 359.625 87.4172 362.07ZM83.4872 359.19C82.1072 359.19 81.0872 360.12 80.9372 361.47H86.0372C85.8872 360.135 84.8822 359.19 83.4872 359.19ZM96.6018 362.07C96.6018 362.19 96.5868 362.37 96.5718 362.505H90.1218C90.3018 363.9 91.4268 364.83 93.0018 364.83C93.9318 364.83 94.7118 364.515 95.2968 363.87L96.0918 364.8C95.3718 365.64 94.2768 366.09 92.9568 366.09C90.3918 366.09 88.6818 364.395 88.6818 362.025C88.6818 359.67 90.3768 357.975 92.6718 357.975C94.9668 357.975 96.6018 359.625 96.6018 362.07ZM92.6718 359.19C91.2918 359.19 90.2718 360.12 90.1218 361.47H95.2218C95.0718 360.135 94.0668 359.19 92.6718 359.19ZM99.3213 356.52C98.7663 356.52 98.3463 356.115 98.3463 355.59C98.3463 355.065 98.7663 354.645 99.3213 354.645C99.8763 354.645 100.296 355.05 100.296 355.56C100.296 356.1 99.8913 356.52 99.3213 356.52ZM98.6013 366V358.05H100.041V366H98.6013ZM107.036 357.975C108.971 357.975 110.336 359.085 110.336 361.425V366H108.896V361.59C108.896 360.03 108.116 359.265 106.751 359.265C105.221 359.265 104.231 360.18 104.231 361.905V366H102.791V358.05H104.171V359.25C104.756 358.44 105.776 357.975 107.036 357.975ZM119.285 358.05H120.65V364.92C120.65 367.725 119.225 369 116.525 369C115.07 369 113.6 368.595 112.73 367.815L113.42 366.705C114.155 367.335 115.31 367.74 116.48 367.74C118.355 367.74 119.21 366.87 119.21 365.07V364.44C118.52 365.265 117.485 365.67 116.345 365.67C114.05 365.67 112.31 364.11 112.31 361.815C112.31 359.52 114.05 357.975 116.345 357.975C117.53 357.975 118.61 358.41 119.285 359.28V358.05ZM116.51 364.41C118.1 364.41 119.24 363.345 119.24 361.815C119.24 360.27 118.1 359.235 116.51 359.235C114.905 359.235 113.765 360.27 113.765 361.815C113.765 363.345 114.905 364.41 116.51 364.41ZM130.324 357.975C132.499 357.975 133.729 359.025 133.729 361.2V366H132.364V364.95C131.884 365.67 130.999 366.09 129.754 366.09C127.954 366.09 126.814 365.13 126.814 363.75C126.814 362.475 127.639 361.425 130.009 361.425H132.289V361.14C132.289 359.925 131.584 359.22 130.159 359.22C129.214 359.22 128.254 359.55 127.639 360.075L127.039 358.995C127.864 358.335 129.049 357.975 130.324 357.975ZM129.994 364.98C131.074 364.98 131.929 364.485 132.289 363.57V362.46H130.069C128.644 362.46 128.239 363.015 128.239 363.69C128.239 364.485 128.899 364.98 129.994 364.98ZM140.639 357.975C142.574 357.975 143.939 359.085 143.939 361.425V366H142.499V361.59C142.499 360.03 141.719 359.265 140.354 359.265C138.824 359.265 137.834 360.18 137.834 361.905V366H136.394V358.05H137.774V359.25C138.359 358.44 139.379 357.975 140.639 357.975ZM152.708 354.87H154.148V366H152.768V364.74C152.123 365.64 151.103 366.09 149.933 366.09C147.608 366.09 145.913 364.455 145.913 362.025C145.913 359.595 147.608 357.975 149.933 357.975C151.058 357.975 152.048 358.395 152.708 359.25V354.87ZM150.053 364.83C151.568 364.83 152.723 363.72 152.723 362.025C152.723 360.33 151.568 359.235 150.053 359.235C148.523 359.235 147.368 360.33 147.368 362.025C147.368 363.72 148.523 364.83 150.053 364.83ZM162.281 359.385C162.791 358.455 163.781 357.975 165.176 357.975V359.37C165.056 359.355 164.951 359.355 164.846 359.355C163.301 359.355 162.341 360.3 162.341 362.04V366H160.901V358.05H162.281V359.385ZM174.063 362.07C174.063 362.19 174.048 362.37 174.033 362.505H167.583C167.763 363.9 168.888 364.83 170.463 364.83C171.393 364.83 172.173 364.515 172.758 363.87L173.553 364.8C172.833 365.64 171.738 366.09 170.418 366.09C167.853 366.09 166.143 364.395 166.143 362.025C166.143 359.67 167.838 357.975 170.133 357.975C172.428 357.975 174.063 359.625 174.063 362.07ZM170.133 359.19C168.753 359.19 167.733 360.12 167.583 361.47H172.683C172.533 360.135 171.528 359.19 170.133 359.19ZM186.007 357.975C187.942 357.975 189.262 359.085 189.262 361.425V366H187.822V361.59C187.822 360.03 187.072 359.265 185.767 359.265C184.327 359.265 183.382 360.18 183.382 361.905V366H181.942V361.59C181.942 360.03 181.192 359.265 179.887 359.265C178.447 359.265 177.502 360.18 177.502 361.905V366H176.062V358.05H177.442V359.235C178.012 358.425 178.987 357.975 180.187 357.975C181.402 357.975 182.422 358.455 182.947 359.445C183.547 358.545 184.657 357.975 186.007 357.975ZM199.141 362.07C199.141 362.19 199.126 362.37 199.111 362.505H192.661C192.841 363.9 193.966 364.83 195.541 364.83C196.471 364.83 197.251 364.515 197.836 363.87L198.631 364.8C197.911 365.64 196.816 366.09 195.496 366.09C192.931 366.09 191.221 364.395 191.221 362.025C191.221 359.67 192.916 357.975 195.211 357.975C197.506 357.975 199.141 359.625 199.141 362.07ZM195.211 359.19C193.831 359.19 192.811 360.12 192.661 361.47H197.761C197.611 360.135 196.606 359.19 195.211 359.19ZM211.085 357.975C213.02 357.975 214.34 359.085 214.34 361.425V366H212.9V361.59C212.9 360.03 212.15 359.265 210.845 359.265C209.405 359.265 208.46 360.18 208.46 361.905V366H207.02V361.59C207.02 360.03 206.27 359.265 204.965 359.265C203.525 359.265 202.58 360.18 202.58 361.905V366H201.14V358.05H202.52V359.235C203.09 358.425 204.065 357.975 205.265 357.975C206.48 357.975 207.5 358.455 208.025 359.445C208.625 358.545 209.735 357.975 211.085 357.975ZM221.205 357.975C223.53 357.975 225.225 359.595 225.225 362.025C225.225 364.455 223.53 366.09 221.205 366.09C220.035 366.09 219.015 365.64 218.37 364.74V366H216.99V354.87H218.43V359.25C219.09 358.395 220.08 357.975 221.205 357.975ZM221.085 364.83C222.615 364.83 223.77 363.72 223.77 362.025C223.77 360.33 222.615 359.235 221.085 359.235C219.57 359.235 218.415 360.33 218.415 362.025C218.415 363.72 219.57 364.83 221.085 364.83ZM234.4 362.07C234.4 362.19 234.385 362.37 234.37 362.505H227.92C228.1 363.9 229.225 364.83 230.8 364.83C231.73 364.83 232.51 364.515 233.095 363.87L233.89 364.8C233.17 365.64 232.075 366.09 230.755 366.09C228.19 366.09 226.48 364.395 226.48 362.025C226.48 359.67 228.175 357.975 230.47 357.975C232.765 357.975 234.4 359.625 234.4 362.07ZM230.47 359.19C229.09 359.19 228.07 360.12 227.92 361.47H233.02C232.87 360.135 231.865 359.19 230.47 359.19ZM237.779 359.385C238.289 358.455 239.279 357.975 240.674 357.975V359.37C240.554 359.355 240.449 359.355 240.344 359.355C238.799 359.355 237.839 360.3 237.839 362.04V366H236.399V358.05H237.779V359.385ZM243.169 356.52C242.614 356.52 242.194 356.115 242.194 355.59C242.194 355.065 242.614 354.645 243.169 354.645C243.724 354.645 244.144 355.05 244.144 355.56C244.144 356.1 243.739 356.52 243.169 356.52ZM242.449 366V358.05H243.889V366H242.449ZM250.883 357.975C252.818 357.975 254.183 359.085 254.183 361.425V366H252.743V361.59C252.743 360.03 251.963 359.265 250.598 359.265C249.068 359.265 248.078 360.18 248.078 361.905V366H246.638V358.05H248.018V359.25C248.603 358.44 249.623 357.975 250.883 357.975ZM263.132 358.05H264.497V364.92C264.497 367.725 263.072 369 260.372 369C258.917 369 257.447 368.595 256.577 367.815L257.267 366.705C258.002 367.335 259.157 367.74 260.327 367.74C262.202 367.74 263.057 366.87 263.057 365.07V364.44C262.367 365.265 261.332 365.67 260.192 365.67C257.897 365.67 256.157 364.11 256.157 361.815C256.157 359.52 257.897 357.975 260.192 357.975C261.377 357.975 262.457 358.41 263.132 359.28V358.05ZM260.357 364.41C261.947 364.41 263.087 363.345 263.087 361.815C263.087 360.27 261.947 359.235 260.357 359.235C258.752 359.235 257.612 360.27 257.612 361.815C257.612 363.345 258.752 364.41 260.357 364.41ZM267.594 366.09C267.039 366.09 266.574 365.655 266.574 365.055C266.574 364.455 267.039 364.035 267.594 364.035C268.134 364.035 268.584 364.455 268.584 365.055C268.584 365.655 268.134 366.09 267.594 366.09ZM282.416 355.5H283.916V366H282.686L276.386 358.17V366H274.886V355.5H276.116L282.416 363.33V355.5ZM290.253 366.09C287.868 366.09 286.113 364.395 286.113 362.025C286.113 359.655 287.868 357.975 290.253 357.975C292.638 357.975 294.378 359.655 294.378 362.025C294.378 364.395 292.638 366.09 290.253 366.09ZM290.253 364.83C291.783 364.83 292.923 363.72 292.923 362.025C292.923 360.33 291.783 359.235 290.253 359.235C288.723 359.235 287.568 360.33 287.568 362.025C287.568 363.72 288.723 364.83 290.253 364.83ZM300.39 364.5L300.84 365.535C300.405 365.91 299.745 366.09 299.1 366.09C297.495 366.09 296.58 365.205 296.58 363.6V359.235H295.23V358.05H296.58V356.31H298.02V358.05H300.3V359.235H298.02V363.54C298.02 364.395 298.47 364.875 299.265 364.875C299.685 364.875 300.09 364.74 300.39 364.5ZM309.502 362.07C309.502 362.19 309.487 362.37 309.472 362.505H303.022C303.202 363.9 304.327 364.83 305.902 364.83C306.832 364.83 307.612 364.515 308.197 363.87L308.992 364.8C308.272 365.64 307.177 366.09 305.857 366.09C303.292 366.09 301.582 364.395 301.582 362.025C301.582 359.67 303.277 357.975 305.572 357.975C307.867 357.975 309.502 359.625 309.502 362.07ZM305.572 359.19C304.192 359.19 303.172 360.12 303.022 361.47H308.122C307.972 360.135 306.967 359.19 305.572 359.19ZM313.782 366.09C312.462 366.09 311.157 365.685 310.497 365.16L311.097 364.02C311.772 364.5 312.852 364.845 313.887 364.845C315.222 364.845 315.777 364.44 315.777 363.765C315.777 361.98 310.752 363.525 310.752 360.36C310.752 358.935 312.027 357.975 314.067 357.975C315.102 357.975 316.272 358.245 316.962 358.695L316.347 359.835C315.627 359.37 314.832 359.205 314.052 359.205C312.792 359.205 312.177 359.67 312.177 360.3C312.177 362.175 317.217 360.645 317.217 363.735C317.217 365.175 315.897 366.09 313.782 366.09ZM325.94 357.975C328.115 357.975 329.345 359.025 329.345 361.2V366H327.98V364.95C327.5 365.67 326.615 366.09 325.37 366.09C323.57 366.09 322.43 365.13 322.43 363.75C322.43 362.475 323.255 361.425 325.625 361.425H327.905V361.14C327.905 359.925 327.2 359.22 325.775 359.22C324.83 359.22 323.87 359.55 323.255 360.075L322.655 358.995C323.48 358.335 324.665 357.975 325.94 357.975ZM325.61 364.98C326.69 364.98 327.545 364.485 327.905 363.57V362.46H325.685C324.26 362.46 323.855 363.015 323.855 363.69C323.855 364.485 324.515 364.98 325.61 364.98ZM333.39 359.385C333.9 358.455 334.89 357.975 336.285 357.975V359.37C336.165 359.355 336.06 359.355 335.955 359.355C334.41 359.355 333.45 360.3 333.45 362.04V366H332.01V358.05H333.39V359.385ZM345.171 362.07C345.171 362.19 345.156 362.37 345.141 362.505H338.691C338.871 363.9 339.996 364.83 341.571 364.83C342.501 364.83 343.281 364.515 343.866 363.87L344.661 364.8C343.941 365.64 342.846 366.09 341.526 366.09C338.961 366.09 337.251 364.395 337.251 362.025C337.251 359.67 338.946 357.975 341.241 357.975C343.536 357.975 345.171 359.625 345.171 362.07ZM341.241 359.19C339.861 359.19 338.841 360.12 338.691 361.47H343.791C343.641 360.135 342.636 359.19 341.241 359.19ZM355.219 364.5L355.669 365.535C355.234 365.91 354.574 366.09 353.929 366.09C352.324 366.09 351.409 365.205 351.409 363.6V359.235H350.059V358.05H351.409V356.31H352.849V358.05H355.129V359.235H352.849V363.54C352.849 364.395 353.299 364.875 354.094 364.875C354.514 364.875 354.919 364.74 355.219 364.5ZM361.655 357.975C363.59 357.975 364.955 359.085 364.955 361.425V366H363.515V361.59C363.515 360.03 362.735 359.265 361.37 359.265C359.84 359.265 358.85 360.18 358.85 361.905V366H357.41V354.87H358.85V359.175C359.45 358.41 360.44 357.975 361.655 357.975ZM374.849 362.07C374.849 362.19 374.834 362.37 374.819 362.505H368.369C368.549 363.9 369.674 364.83 371.249 364.83C372.179 364.83 372.959 364.515 373.544 363.87L374.339 364.8C373.619 365.64 372.524 366.09 371.204 366.09C368.639 366.09 366.929 364.395 366.929 362.025C366.929 359.67 368.624 357.975 370.919 357.975C373.214 357.975 374.849 359.625 374.849 362.07ZM370.919 359.19C369.539 359.19 368.519 360.12 368.369 361.47H373.469C373.319 360.135 372.314 359.19 370.919 359.19ZM385.092 357.975C387.417 357.975 389.112 359.595 389.112 362.025C389.112 364.455 387.417 366.09 385.092 366.09C383.922 366.09 382.902 365.64 382.257 364.74V366H380.877V354.87H382.317V359.25C382.977 358.395 383.967 357.975 385.092 357.975ZM384.972 364.83C386.502 364.83 387.657 363.72 387.657 362.025C387.657 360.33 386.502 359.235 384.972 359.235C383.457 359.235 382.302 360.33 382.302 362.025C382.302 363.72 383.457 364.83 384.972 364.83ZM392.481 359.385C392.991 358.455 393.981 357.975 395.376 357.975V359.37C395.256 359.355 395.151 359.355 395.046 359.355C393.501 359.355 392.541 360.3 392.541 362.04V366H391.101V358.05H392.481V359.385ZM404.263 362.07C404.263 362.19 404.248 362.37 404.233 362.505H397.783C397.963 363.9 399.088 364.83 400.663 364.83C401.593 364.83 402.373 364.515 402.958 363.87L403.753 364.8C403.033 365.64 401.938 366.09 400.618 366.09C398.053 366.09 396.343 364.395 396.343 362.025C396.343 359.67 398.038 357.975 400.333 357.975C402.628 357.975 404.263 359.625 404.263 362.07ZM400.333 359.19C398.953 359.19 397.933 360.12 397.783 361.47H402.883C402.733 360.135 401.728 359.19 400.333 359.19ZM408.938 357.975C411.113 357.975 412.343 359.025 412.343 361.2V366H410.978V364.95C410.498 365.67 409.613 366.09 408.368 366.09C406.568 366.09 405.428 365.13 405.428 363.75C405.428 362.475 406.253 361.425 408.623 361.425H410.903V361.14C410.903 359.925 410.198 359.22 408.773 359.22C407.828 359.22 406.868 359.55 406.253 360.075L405.653 358.995C406.478 358.335 407.663 357.975 408.938 357.975ZM408.608 364.98C409.688 364.98 410.543 364.485 410.903 363.57V362.46H408.683C407.258 362.46 406.853 363.015 406.853 363.69C406.853 364.485 407.513 364.98 408.608 364.98ZM421.112 354.87H422.552V366H421.172V364.74C420.527 365.64 419.507 366.09 418.337 366.09C416.012 366.09 414.317 364.455 414.317 362.025C414.317 359.595 416.012 357.975 418.337 357.975C419.462 357.975 420.452 358.395 421.112 359.25V354.87ZM418.457 364.83C419.972 364.83 421.127 363.72 421.127 362.025C421.127 360.33 419.972 359.235 418.457 359.235C416.927 359.235 415.772 360.33 415.772 362.025C415.772 363.72 416.927 364.83 418.457 364.83ZM428.741 366.09C426.296 366.09 424.541 364.395 424.541 362.025C424.541 359.655 426.296 357.975 428.741 357.975C430.166 357.975 431.351 358.56 431.981 359.67L430.886 360.375C430.376 359.595 429.596 359.235 428.726 359.235C427.166 359.235 425.996 360.33 425.996 362.025C425.996 363.75 427.166 364.83 428.726 364.83C429.596 364.83 430.376 364.47 430.886 363.69L431.981 364.38C431.351 365.49 430.166 366.09 428.741 366.09ZM435.225 359.385C435.735 358.455 436.725 357.975 438.12 357.975V359.37C438 359.355 437.895 359.355 437.79 359.355C436.245 359.355 435.285 360.3 435.285 362.04V366H433.845V358.05H435.225V359.385ZM445.968 358.05H447.408V366H446.043V364.8C445.458 365.625 444.468 366.09 443.343 366.09C441.288 366.09 439.923 364.965 439.923 362.625V358.05H441.363V362.46C441.363 364.02 442.143 364.8 443.508 364.8C445.008 364.8 445.968 363.87 445.968 362.16V358.05ZM460.094 357.975C462.029 357.975 463.349 359.085 463.349 361.425V366H461.909V361.59C461.909 360.03 461.159 359.265 459.854 359.265C458.414 359.265 457.469 360.18 457.469 361.905V366H456.029V361.59C456.029 360.03 455.279 359.265 453.974 359.265C452.534 359.265 451.589 360.18 451.589 361.905V366H450.149V358.05H451.529V359.235C452.099 358.425 453.074 357.975 454.274 357.975C455.489 357.975 456.509 358.455 457.034 359.445C457.634 358.545 458.744 357.975 460.094 357.975ZM470.214 357.975C472.539 357.975 474.234 359.595 474.234 362.025C474.234 364.455 472.539 366.09 470.214 366.09C469.044 366.09 468.024 365.64 467.379 364.74V366H465.999V354.87H467.439V359.25C468.099 358.395 469.089 357.975 470.214 357.975ZM470.094 364.83C471.624 364.83 472.779 363.72 472.779 362.025C472.779 360.33 471.624 359.235 470.094 359.235C468.579 359.235 467.424 360.33 467.424 362.025C467.424 363.72 468.579 364.83 470.094 364.83ZM478.503 366.09C477.183 366.09 475.878 365.685 475.218 365.16L475.818 364.02C476.493 364.5 477.573 364.845 478.608 364.845C479.943 364.845 480.498 364.44 480.498 363.765C480.498 361.98 475.473 363.525 475.473 360.36C475.473 358.935 476.748 357.975 478.788 357.975C479.823 357.975 480.993 358.245 481.683 358.695L481.068 359.835C480.348 359.37 479.553 359.205 478.773 359.205C477.513 359.205 476.898 359.67 476.898 360.3C476.898 362.175 481.938 360.645 481.938 363.735C481.938 365.175 480.618 366.09 478.503 366.09ZM1.365 393V381.87H2.805V393H1.365ZM12.7395 389.07C12.7395 389.19 12.7245 389.37 12.7095 389.505H6.25945C6.43945 390.9 7.56445 391.83 9.13945 391.83C10.0695 391.83 10.8495 391.515 11.4345 390.87L12.2295 391.8C11.5095 392.64 10.4145 393.09 9.09445 393.09C6.52945 393.09 4.81945 391.395 4.81945 389.025C4.81945 386.67 6.51445 384.975 8.80945 384.975C11.1045 384.975 12.7395 386.625 12.7395 389.07ZM8.80945 386.19C7.42945 386.19 6.40945 387.12 6.25945 388.47H11.3595C11.2095 387.135 10.2045 386.19 8.80945 386.19ZM17.4143 384.975C19.5893 384.975 20.8193 386.025 20.8193 388.2V393H19.4543V391.95C18.9743 392.67 18.0893 393.09 16.8443 393.09C15.0443 393.09 13.9043 392.13 13.9043 390.75C13.9043 389.475 14.7293 388.425 17.0993 388.425H19.3793V388.14C19.3793 386.925 18.6743 386.22 17.2493 386.22C16.3043 386.22 15.3443 386.55 14.7293 387.075L14.1293 385.995C14.9543 385.335 16.1393 384.975 17.4143 384.975ZM17.0843 391.98C18.1643 391.98 19.0193 391.485 19.3793 390.57V389.46H17.1593C15.7343 389.46 15.3293 390.015 15.3293 390.69C15.3293 391.485 15.9893 391.98 17.0843 391.98ZM29.5881 381.87H31.0281V393H29.6481V391.74C29.0031 392.64 27.9831 393.09 26.8131 393.09C24.4881 393.09 22.7931 391.455 22.7931 389.025C22.7931 386.595 24.4881 384.975 26.8131 384.975C27.9381 384.975 28.9281 385.395 29.5881 386.25V381.87ZM26.9331 391.83C28.4481 391.83 29.6031 390.72 29.6031 389.025C29.6031 387.33 28.4481 386.235 26.9331 386.235C25.4031 386.235 24.2481 387.33 24.2481 389.025C24.2481 390.72 25.4031 391.83 26.9331 391.83ZM34.4727 383.52C33.9177 383.52 33.4977 383.115 33.4977 382.59C33.4977 382.065 33.9177 381.645 34.4727 381.645C35.0277 381.645 35.4477 382.05 35.4477 382.56C35.4477 383.1 35.0427 383.52 34.4727 383.52ZM33.7527 393V385.05H35.1927V393H33.7527ZM42.1871 384.975C44.1221 384.975 45.4871 386.085 45.4871 388.425V393H44.0471V388.59C44.0471 387.03 43.2671 386.265 41.9021 386.265C40.3721 386.265 39.3821 387.18 39.3821 388.905V393H37.9421V385.05H39.3221V386.25C39.9071 385.44 40.9271 384.975 42.1871 384.975ZM54.4361 385.05H55.8011V391.92C55.8011 394.725 54.3761 396 51.6761 396C50.2211 396 48.7511 395.595 47.8811 394.815L48.5711 393.705C49.3061 394.335 50.4611 394.74 51.6311 394.74C53.5061 394.74 54.3611 393.87 54.3611 392.07V391.44C53.6711 392.265 52.6361 392.67 51.4961 392.67C49.2011 392.67 47.4611 391.11 47.4611 388.815C47.4611 386.52 49.2011 384.975 51.4961 384.975C52.6811 384.975 53.7611 385.41 54.4361 386.28V385.05ZM51.6611 391.41C53.2511 391.41 54.3911 390.345 54.3911 388.815C54.3911 387.27 53.2511 386.235 51.6611 386.235C50.0561 386.235 48.9161 387.27 48.9161 388.815C48.9161 390.345 50.0561 391.41 51.6611 391.41ZM66.6008 391.5L67.0508 392.535C66.6158 392.91 65.9558 393.09 65.3108 393.09C63.7058 393.09 62.7908 392.205 62.7908 390.6V386.235H61.4408V385.05H62.7908V383.31H64.2308V385.05H66.5108V386.235H64.2308V390.54C64.2308 391.395 64.6808 391.875 65.4758 391.875C65.8958 391.875 66.3008 391.74 66.6008 391.5ZM71.9331 393.09C69.5481 393.09 67.7931 391.395 67.7931 389.025C67.7931 386.655 69.5481 384.975 71.9331 384.975C74.3181 384.975 76.0581 386.655 76.0581 389.025C76.0581 391.395 74.3181 393.09 71.9331 393.09ZM71.9331 391.83C73.4631 391.83 74.6031 390.72 74.6031 389.025C74.6031 387.33 73.4631 386.235 71.9331 386.235C70.4031 386.235 69.2481 387.33 69.2481 389.025C69.2481 390.72 70.4031 391.83 71.9331 391.83ZM86.0979 391.5L86.5479 392.535C86.1129 392.91 85.4529 393.09 84.8079 393.09C83.2029 393.09 82.2879 392.205 82.2879 390.6V386.235H80.9379V385.05H82.2879V383.31H83.7279V385.05H86.0079V386.235H83.7279V390.54C83.7279 391.395 84.1779 391.875 84.9729 391.875C85.3929 391.875 85.7979 391.74 86.0979 391.5ZM92.5338 384.975C94.4688 384.975 95.8338 386.085 95.8338 388.425V393H94.3938V388.59C94.3938 387.03 93.6138 386.265 92.2488 386.265C90.7188 386.265 89.7288 387.18 89.7288 388.905V393H88.2888V381.87H89.7288V386.175C90.3288 385.41 91.3188 384.975 92.5338 384.975ZM105.728 389.07C105.728 389.19 105.713 389.37 105.698 389.505H99.2477C99.4277 390.9 100.553 391.83 102.128 391.83C103.058 391.83 103.838 391.515 104.423 390.87L105.218 391.8C104.498 392.64 103.403 393.09 102.083 393.09C99.5177 393.09 97.8077 391.395 97.8077 389.025C97.8077 386.67 99.5027 384.975 101.798 384.975C104.093 384.975 105.728 386.625 105.728 389.07ZM101.798 386.19C100.418 386.19 99.3977 387.12 99.2477 388.47H104.348C104.198 387.135 103.193 386.19 101.798 386.19ZM114.666 382.965C113.811 382.965 113.376 383.445 113.376 384.36V385.05H115.686V386.235H113.406V393H111.966V386.235H110.616V385.05H111.966V384.345C111.966 382.8 112.896 381.78 114.591 381.78C115.206 381.78 115.806 381.93 116.211 382.245L115.776 383.34C115.476 383.115 115.086 382.965 114.666 382.965ZM124.112 389.07C124.112 389.19 124.097 389.37 124.082 389.505H117.632C117.812 390.9 118.937 391.83 120.512 391.83C121.442 391.83 122.222 391.515 122.807 390.87L123.602 391.8C122.882 392.64 121.787 393.09 120.467 393.09C117.902 393.09 116.192 391.395 116.192 389.025C116.192 386.67 117.887 384.975 120.182 384.975C122.477 384.975 124.112 386.625 124.112 389.07ZM120.182 386.19C118.802 386.19 117.782 387.12 117.632 388.47H122.732C122.582 387.135 121.577 386.19 120.182 386.19ZM128.786 384.975C130.961 384.975 132.191 386.025 132.191 388.2V393H130.826V391.95C130.346 392.67 129.461 393.09 128.216 393.09C126.416 393.09 125.276 392.13 125.276 390.75C125.276 389.475 126.101 388.425 128.471 388.425H130.751V388.14C130.751 386.925 130.046 386.22 128.621 386.22C127.676 386.22 126.716 386.55 126.101 387.075L125.501 385.995C126.326 385.335 127.511 384.975 128.786 384.975ZM128.456 391.98C129.536 391.98 130.391 391.485 130.751 390.57V389.46H128.531C127.106 389.46 126.701 390.015 126.701 390.69C126.701 391.485 127.361 391.98 128.456 391.98ZM137.136 393.09C135.816 393.09 134.511 392.685 133.851 392.16L134.451 391.02C135.126 391.5 136.206 391.845 137.241 391.845C138.576 391.845 139.131 391.44 139.131 390.765C139.131 388.98 134.106 390.525 134.106 387.36C134.106 385.935 135.381 384.975 137.421 384.975C138.456 384.975 139.626 385.245 140.316 385.695L139.701 386.835C138.981 386.37 138.186 386.205 137.406 386.205C136.146 386.205 135.531 386.67 135.531 387.3C135.531 389.175 140.571 387.645 140.571 390.735C140.571 392.175 139.251 393.09 137.136 393.09ZM146.391 391.5L146.841 392.535C146.406 392.91 145.746 393.09 145.101 393.09C143.496 393.09 142.581 392.205 142.581 390.6V386.235H141.231V385.05H142.581V383.31H144.021V385.05H146.301V386.235H144.021V390.54C144.021 391.395 144.471 391.875 145.266 391.875C145.686 391.875 146.091 391.74 146.391 391.5ZM156.015 393.09C153.63 393.09 151.875 391.395 151.875 389.025C151.875 386.655 153.63 384.975 156.015 384.975C158.4 384.975 160.14 386.655 160.14 389.025C160.14 391.395 158.4 393.09 156.015 393.09ZM156.015 391.83C157.545 391.83 158.685 390.72 158.685 389.025C158.685 387.33 157.545 386.235 156.015 386.235C154.485 386.235 153.33 387.33 153.33 389.025C153.33 390.72 154.485 391.83 156.015 391.83ZM165.042 382.965C164.187 382.965 163.752 383.445 163.752 384.36V385.05H166.062V386.235H163.782V393H162.342V386.235H160.992V385.05H162.342V384.345C162.342 382.8 163.272 381.78 164.967 381.78C165.582 381.78 166.182 381.93 166.587 382.245L166.152 383.34C165.852 383.115 165.462 382.965 165.042 382.965ZM177.523 393L174.538 389.295L172.888 390.825V393H171.448V381.87H172.888V389.01L177.223 385.05H178.963L175.618 388.335L179.293 393H177.523ZM184.834 384.975C186.769 384.975 188.134 386.085 188.134 388.425V393H186.694V388.59C186.694 387.03 185.914 386.265 184.549 386.265C183.019 386.265 182.029 387.18 182.029 388.905V393H180.589V385.05H181.969V386.25C182.554 385.44 183.574 384.975 184.834 384.975ZM194.248 393.09C191.863 393.09 190.108 391.395 190.108 389.025C190.108 386.655 191.863 384.975 194.248 384.975C196.633 384.975 198.373 386.655 198.373 389.025C198.373 391.395 196.633 393.09 194.248 393.09ZM194.248 391.83C195.778 391.83 196.918 390.72 196.918 389.025C196.918 387.33 195.778 386.235 194.248 386.235C192.718 386.235 191.563 387.33 191.563 389.025C191.563 390.72 192.718 391.83 194.248 391.83ZM210.884 385.05H212.174L209.204 393H207.824L205.529 386.97L203.204 393H201.824L198.869 385.05H200.234L202.544 391.38L204.944 385.05H206.159L208.514 391.41L210.884 385.05ZM213.636 393V381.87H215.076V393H213.636ZM225.01 389.07C225.01 389.19 224.995 389.37 224.98 389.505H218.53C218.71 390.9 219.835 391.83 221.41 391.83C222.34 391.83 223.12 391.515 223.705 390.87L224.5 391.8C223.78 392.64 222.685 393.09 221.365 393.09C218.8 393.09 217.09 391.395 217.09 389.025C217.09 386.67 218.785 384.975 221.08 384.975C223.375 384.975 225.01 386.625 225.01 389.07ZM221.08 386.19C219.7 386.19 218.68 387.12 218.53 388.47H223.63C223.48 387.135 222.475 386.19 221.08 386.19ZM233.07 381.87H234.51V393H233.13V391.74C232.485 392.64 231.465 393.09 230.295 393.09C227.97 393.09 226.275 391.455 226.275 389.025C226.275 386.595 227.97 384.975 230.295 384.975C231.42 384.975 232.41 385.395 233.07 386.25V381.87ZM230.415 391.83C231.93 391.83 233.085 390.72 233.085 389.025C233.085 387.33 231.93 386.235 230.415 386.235C228.885 386.235 227.73 387.33 227.73 389.025C227.73 390.72 228.885 391.83 230.415 391.83ZM243.474 385.05H244.839V391.92C244.839 394.725 243.414 396 240.714 396C239.259 396 237.789 395.595 236.919 394.815L237.609 393.705C238.344 394.335 239.499 394.74 240.669 394.74C242.544 394.74 243.399 393.87 243.399 392.07V391.44C242.709 392.265 241.674 392.67 240.534 392.67C238.239 392.67 236.499 391.11 236.499 388.815C236.499 386.52 238.239 384.975 240.534 384.975C241.719 384.975 242.799 385.41 243.474 386.28V385.05ZM240.699 391.41C242.289 391.41 243.429 390.345 243.429 388.815C243.429 387.27 242.289 386.235 240.699 386.235C239.094 386.235 237.954 387.27 237.954 388.815C237.954 390.345 239.094 391.41 240.699 391.41ZM254.776 389.07C254.776 389.19 254.761 389.37 254.746 389.505H248.296C248.476 390.9 249.601 391.83 251.176 391.83C252.106 391.83 252.886 391.515 253.471 390.87L254.266 391.8C253.546 392.64 252.451 393.09 251.131 393.09C248.566 393.09 246.856 391.395 246.856 389.025C246.856 386.67 248.551 384.975 250.846 384.975C253.141 384.975 254.776 386.625 254.776 389.07ZM250.846 386.19C249.466 386.19 248.446 387.12 248.296 388.47H253.396C253.246 387.135 252.241 386.19 250.846 386.19ZM261.148 393.09C260.593 393.09 260.128 392.655 260.128 392.055C260.128 391.455 260.593 391.035 261.148 391.035C261.688 391.035 262.138 391.455 262.138 392.055C262.138 392.655 261.688 393.09 261.148 393.09Z" fill="black" fill-opacity="0.7"/>
<path d="M1035.09 57.1453H729.915V456.555H1035.09V57.1453Z" fill="#E7F1FB"/>
<path d="M720.507 116.906H706.651V212.899H720.507V116.906Z" fill="#E7F1FB"/>
<path d="M885.848 88.2227H777.93V106.614H885.848V88.2227Z" fill="#E7F1FB"/>
<path d="M969.015 177.226H798.232V344.565H969.015V177.226Z" fill="#E7F1FB"/>
<path d="M774.958 203.708V156.633H833.375" fill="#E7F1FB"/>
<path d="M772.488 322.505V365.901H838.817" fill="#E7F1FB"/>
<path d="M905.156 106.431C909.521 106.431 913.059 102.891 913.059 98.5238C913.059 94.157 909.521 90.6169 905.156 90.6169C900.791 90.6169 897.253 94.157 897.253 98.5238C897.253 102.891 900.791 106.431 905.156 106.431Z" fill="#E7F1FB"/>
<path d="M1035.09 57.1453H729.915V456.555H1035.09V57.1453Z" fill="#E2F1FE"/>
<path d="M720.507 116.906H706.651V212.899H720.507V116.906Z" fill="#9497F2"/>
<path d="M885.848 88.2227H777.93V106.614H885.848V88.2227Z" fill="#9497F2"/>
<path d="M970.241 177.718H799.458V345.057H970.241V177.718Z" fill="#9497F2"/>
<path d="M774.958 203.708V156.633H833.375" stroke="#A197FC" stroke-miterlimit="10"/>
<path d="M772.488 322.505V365.901H838.817" stroke="#E7F1FB" stroke-miterlimit="10"/>
<path d="M905.156 106.431C909.521 106.431 913.059 102.891 913.059 98.5238C913.059 94.157 909.521 90.6169 905.156 90.6169C900.791 90.6169 897.253 94.157 897.253 98.5238C897.253 102.891 900.791 106.431 905.156 106.431Z" fill="#9497F2"/>
<path d="M1035.09 57.1453H729.915V456.555H1035.09V57.1453Z" stroke="#E7F1FB" stroke-width="2" stroke-miterlimit="10"/>
<path d="M720.507 116.906H706.651V212.899H720.507V116.906Z" fill="#E78895"/>
<path d="M885.848 88.2227H777.93V106.614H885.848V88.2227Z" fill="#63B4B8"/>
<path d="M969.015 177.226H798.232V344.565H969.015V177.226Z" fill="#A197FC"/>
<path d="M774.958 203.708V156.633H833.375" stroke="#8E8CBA" stroke-miterlimit="10"/>
<path d="M772.488 322.505V365.901H838.817" stroke="#8E8CBA" stroke-miterlimit="10"/>
<path d="M905.156 106.431C909.521 106.431 913.059 102.891 913.059 98.5238C913.059 94.157 909.521 90.6169 905.156 90.6169C900.791 90.6169 897.253 94.157 897.253 98.5238C897.253 102.891 900.791 106.431 905.156 106.431Z" fill="#63B4B8"/>
<path d="M924.754 140.076L933.573 129.785L945.712 118.383L955.94 110.717L962.125 106.547L969.295 102.202L975.663 99.132L986.818 94.2952L993.862 91.0996L1001.46 89.3232L974.139 163.247L971.196 164.357L968.012 169.319L967.944 156.141L963.901 156.45L955.998 169.01L924.754 140.076Z" fill="#00A9FF"/>
<path d="M1044.53 151.053L1080.92 129.167L1081.28 127.757L1076.82 120.526L1064.5 105.88L1055.74 98.2149L1023.46 183.781L1032.28 183.54L1035.15 182.99L1039.01 180.296L1042.63 176.801L1044.4 173.673L1045.32 168.402L1044.53 151.053Z" fill="#00A9FF"/>
<path d="M1086.68 196.718L1088.15 210.331L1076.69 209.964L1080.86 205.726L1083.99 201.748L1086.68 196.718Z" fill="#00A9FF"/>
<path d="M1077.06 209.771L1087.54 210.08L1095.5 258.94L1106.03 309.017L1110.94 326.733L1120.62 346.042L1134.22 369.27L1143.04 381.773L1148.25 387.72L1099.91 428.113L1095.62 424.435L1088.89 417.639L1079.69 405.744L1070.44 390.664L1055.68 361.489L1044.84 335.132L1038.4 317.349L1035.64 308.467L1030.68 360.321L1028.11 391.948L1023.64 436.02L957.166 427.196L965.011 364.433L968.677 329.61L1008.08 225.034L1009.96 225.961L1022.87 228.713L1033.16 228.944L1039.6 228.442L1044.06 227.795L1049.7 226.231L1057.75 223.567L1064.14 220.767L1069.55 217.041L1077.06 209.771Z" fill="#CAD9DB"/>
<path d="M1032.88 22.3317L1027.68 26.2514L1022.23 33.9169L1018.12 44.8843L1014.26 55.06L1007.83 72.7178L1000.48 92.8857L991.286 117.157L980.999 144.739L974.139 163.247L950.913 224.793L932.348 275.488L883.831 405.619L884.285 405.773L884.072 416.75L883.831 431.058L884.931 440.587L887.691 449.759L889.804 454.383L894.822 457.482L897.398 456.777L903.467 454.779L909.624 450.917L917.951 443.261L926.838 432.863L930.756 426.434L932.261 426.675L940.714 403.871L973.801 316.529L987.397 280.392L1008.08 225.034L1034.45 154.886L1068.63 64.135L1072.77 50.7058L1073.51 42.2486L1071.3 32.6909L1065.87 25.7011L1057.88 20.9222L1047.87 18.9913L1037.39 20.1788L1032.88 22.3317Z" fill="#EEF5FF"/>
<path d="M1044.53 151.053L1080.92 129.167L1085.36 137.132L1089.68 146.969L1092.44 160.582L1092.81 166.655L1091.71 175.295L1090.14 184.766L1087.57 194.324L1084.54 201.314L1075.62 211.518L1066.34 219.145L1056.69 224.021L1046.21 227.332L1038.12 228.616C1038.12 228.616 1022.32 230.73 1003.11 223.557C983.904 216.384 975.075 206.546 975.075 206.546L958.353 191.003L955.96 186.04L957.06 183.743L959.269 183.559L960.832 184.39L960.282 178.317L962.946 172.244L964.779 170.314L967.539 170.13L968.002 170.227L969.469 165.901L972.045 163.874L975.538 163.411L977.468 164.144L990.977 173.152L991.44 171.124L990.977 169.29L982.341 159.916L981.694 157.068L983.344 154.49L986.007 153.94L994.827 157.618L1001.63 162.677L1005.59 167.736L1007.8 172.148L1009.73 180.788L1010.56 182.536L1012.76 183.453L1018.19 184.003L1032.28 183.511L1034.26 182.903L1039.01 180.267L1043.73 175.083L1045.2 170.574L1045.01 156.044L1044.52 151.014L1044.53 151.053Z" fill="#FFAB97"/>
<path d="M955.419 168.952L950.73 184.863L949.446 192.306L948.983 203.244L950.045 220.439L953.171 233.308L970.356 237.952L975.828 240.25L979.822 242.914L981.289 243.744L984 248.253L984.734 251.883L983.721 254.644L981.289 255.841L978.626 255.793L969.941 250.28L967.51 251.381L967.693 252.53L976.561 264.617L978.307 269.444L978.028 272.572L975.818 275.333L973.936 276.299L968.793 277.313L968.658 279.292L967.143 281.541L963.602 283.289L958.681 282.323L958.082 283.656L956.249 284.669L949.398 282.507L938.649 275.15L932.956 271.974C932.956 271.974 921.84 264.752 916.002 257.029C910.164 249.305 904.239 233.26 904.288 228.616C904.288 228.616 901.808 210.775 902.821 200.339C903.834 189.902 906.584 175.469 911.554 163.971C916.513 152.482 924.831 140.25 924.831 140.25L955.429 168.933L955.419 168.952Z" fill="#FFAB97"/>
<path d="M946.87 67.9292L955.632 61.8083L964.026 57.1453L974.197 56.4116L977.806 57.2708L982.225 63.5172L983.45 59.7809L985.467 56.5274L988.902 53.3415L991.044 51.9319L997.905 52.6657L1001.03 53.6504L1003.3 56.7205L1004.03 62.2911L1003.36 66.6452L1000.6 70.198L994.103 74.9865L993.061 83.5596L990.06 88.9563L984.058 95.1448L977.198 98.3983L966.786 98.0894L961.025 95.1448L953.798 87.4889L948.221 77.6801L946.928 71.7909L946.87 67.9292Z" fill="#FFAB97"/>
<path d="M946.416 46.9889L942.923 48.273L938.784 53.8339L936.574 57.1936L935.426 63.1213L936.487 66.7031L940.164 70.1111L946.966 70.5262L946.87 67.9292L953.991 62.9379L963.554 57.4253L974.438 56.5467L977.806 57.2708L982.572 63.7682L984.049 58.1976L988.902 53.3415L990.938 52.2216L989.838 43.5327L987.764 40.9163L980.507 37.4697L976.464 37.0546L974.438 38.2035L973.984 39.4875L955.969 40.2309L951.376 42.0169L946.416 46.9889Z" fill="black"/>
<path d="M1017.88 45.7435L1068.18 64.7433L1063.34 77.8635L1013.16 58.4293L1017.88 45.7435Z" fill="#176B87"/>
<path d="M932.107 275.797L981.366 296.264L932.261 426.675L883.831 405.619L932.107 275.797Z" fill="#176B87"/>
<path d="M894.822 457.482L889.804 454.383L884.661 467.774L885.114 470.631L887.141 471.819L889.254 470.998L891.917 465.292L894.822 457.482Z" fill="black"/>
<path d="M1012.24 434.427L1011.63 469.984L925.979 469.492L924.387 468.025L925.12 464.839L927.822 459.809L929.163 459.191L931.489 457.598L936.825 456.497L938.909 456.072L942.644 454.045L950.788 446.505L957.166 438.231L963.843 428.113L1012.24 434.427Z" fill="#06262D"/>
<path d="M1105.85 422.997L1106.31 434.312L1106.13 442.218L1105.58 449.845L1103.1 456.005L1099.61 463.275L1099.06 466.953L1100.53 472.002L1102.09 473.846H1102.82L1118.72 460.233L1165.68 416.837L1144.91 390.539L1105.85 422.997Z" fill="#06262D"/>
<path d="M1050.44 19.0782L1056.6 3.99813L1059.54 1.51696L1062.76 0.870117L1066.25 2.1638L1068.27 4.09466L1069.28 7.58955L1068.91 9.97417L1066.07 17.3308L1063.12 23.9537L1055.77 20.6422L1050.44 19.0782Z" fill="#176B87"/>
<path d="M970.945 448.011L957.349 438.173" stroke="white" stroke-width="1.5" stroke-miterlimit="10"/>
<path d="M963.689 454.721L952.293 444.603" stroke="white" stroke-width="1.5" stroke-miterlimit="10"/>
<path d="M1122.3 427.959L1106.31 428.702" stroke="white" stroke-width="1.5" stroke-miterlimit="10"/>
<path d="M1121.47 437.343L1106.22 437.16" stroke="white" stroke-width="1.5" stroke-miterlimit="10"/>
<path d="M964.181 91.3796L967.674 89.5067L968.205 90.8003C968.494 91.5148 968.32 92.3354 967.77 92.876L965.561 93.0595L964.21 91.9299L964.181 91.3796Z" fill="#B2221B"/>
<path d="M962.589 83.9651L962.772 84.6698L962.675 85.4905L961.884 85.896L960.842 85.3457L960.813 84.9402L962.589 83.9651Z" fill="#FF8A69"/>
<path d="M990.986 52.183C990.986 52.183 999.314 51.6327 1001.65 54.4518C1003.98 57.2708 1004.15 60.4278 1003.61 65.6701C1003.3 68.6726 996.072 73.7025 995.087 74.2528C994.103 74.8031 993.92 75.17 993.92 75.17C993.92 75.17 993.457 82.488 993.003 83.8106C992.511 85.2202 989.327 91.1673 982.833 95.8882" stroke="#FFAB97" stroke-miterlimit="10"/>
<path d="M977.806 98.2728C977.806 98.2728 969.102 98.6397 966.902 97.9639C964.702 97.2881 960.167 96.062 953.113 86.1373C946.059 76.2127 946.86 70.3235 946.86 70.3235C946.86 70.3235 946.745 69.9663 946.918 68.2382C947.092 66.51 962.232 58.0046 963.525 57.4543C964.818 56.904 974.612 56.4695 974.612 56.4695L977.863 57.0777L982.582 64.193" stroke="#FFAB97" stroke-miterlimit="10"/>
<path d="M1055.86 98.5238C1055.86 98.5238 1071.66 110.785 1081.34 127.825L1080.98 128.925" stroke="#00A9FF" stroke-miterlimit="10"/>
<path d="M1076.94 210.08L1088.09 210.205L1086.8 196.477" stroke="#00A9FF" stroke-miterlimit="10"/>
<path d="M894.812 457.704L898.913 456.536C902.869 455.261 906.526 453.234 909.711 450.579C915.876 445.443 925.786 436.214 930.756 426.337" stroke="#EEF5FF" stroke-miterlimit="10"/>
<path d="M884.323 406.295L883.754 428.635C883.571 435.962 884.989 443.242 887.913 449.961L889.717 454.354" stroke="#EEF5FF" stroke-miterlimit="10"/>
<path d="M1001.64 89.304C1001.09 89.3619 1000.46 89.4681 999.816 89.5936C997.181 90.1149 994.605 90.9355 992.125 91.9589C985.699 94.6138 980.7 96.844 977.005 98.5625C971.456 101.14 968.87 102.569 968.87 102.569C942.373 116.732 924.763 140.086 924.763 140.086L955.882 169.145L963.968 156.392L967.77 156.151L967.741 170.391" stroke="#00A9FF" stroke-miterlimit="10"/>
<path d="M933.4 272.456L883.783 405.667L932.261 426.762L1008.01 225.199" stroke="#EEF5FF" stroke-miterlimit="10"/>
<path d="M925.14 140.124L924.271 141.186C924.271 141.186 905.648 166.935 903.197 196.602C900.746 226.27 907.366 247.848 918.877 260.109C930.399 272.37 937.751 274.571 938.485 275.063C939.218 275.556 946.079 280.952 950.488 282.912C952.428 283.781 954.329 284.264 955.844 284.534C957.677 284.862 959.192 283.096 958.613 281.329C958.314 280.412 957.841 279.369 957.108 278.259C954.657 274.58 947.063 265.998 945.345 264.53" stroke="#FFAB97" stroke-miterlimit="10"/>
<path d="M957.166 257.589L968.012 276.164C968.012 276.164 969.478 277.998 968.378 279.842C967.751 280.894 966.767 281.947 965.416 282.661C964.316 283.24 963.052 283.414 961.836 283.173L959.009 282.603" stroke="#F79C74" stroke-miterlimit="10"/>
<path d="M973.936 163.633L973.975 163.536L1001.62 89.304L1013.16 58.3232L1017.83 45.8015L1068.34 64.6564L1062.44 80.364L1023.49 184.013" stroke="#EEF5FF" stroke-miterlimit="10"/>
<path d="M951.145 224.822L962.251 194.99L962.318 194.816" stroke="#EEF5FF" stroke-miterlimit="10"/>
<path d="M968.562 277.264C969.623 277.38 971.977 276.897 973.521 276.531C974.534 276.289 975.451 275.739 976.136 274.957C977.005 273.953 978.085 272.485 978.298 271.201C978.394 270.641 978.356 269.946 978.249 269.232C977.892 266.828 976.87 264.569 975.393 262.638L967.462 252.26C967.462 250.976 969.295 250.049 970.405 250.425C971.514 250.802 975.364 253.737 977.941 255.388C978.886 255.996 979.977 256.102 980.98 256.005C983.19 255.783 984.734 253.804 984.512 251.593C984.386 250.416 984.309 248.823 983.277 247.297C980.15 242.702 981.405 243.706 977.207 240.858C972.064 237.363 953.132 233.318 953.132 233.318C953.132 233.318 951.299 227.429 950.556 221.366C949.813 215.303 948.53 206.286 949.089 195.618C949.649 184.95 954.975 170.613 954.975 170.613L955.525 169.097" stroke="#FFAB97" stroke-miterlimit="10"/>
<path d="M965.165 187.19V187.18" stroke="black" stroke-miterlimit="10"/>
<path d="M1044.41 151.053L1080.86 129.167C1080.86 129.167 1094.58 149.026 1092.38 169.618C1090.17 190.211 1086.75 197.819 1083.56 202.231C1080.38 206.643 1070.08 218.17 1061.26 222.09C1052.44 226.009 1041.16 229.688 1027.69 228.954C1014.22 228.22 996.081 222.09 986.519 215.718C978.413 210.312 963.804 196.284 959.54 192.123C958.401 191.012 957.455 189.709 956.886 188.222C956.317 186.736 956.008 184.94 957.175 183.839C958.922 182.188 966.362 188.068 966.362 188.068" stroke="#FFAB97" stroke-miterlimit="10"/>
<path d="M960.659 184.119L960.379 181.097C960.273 179.92 960.302 178.722 960.582 177.574C960.582 177.554 960.582 177.535 960.591 177.516C961.045 175.623 961.942 173.866 963.1 172.293L963.631 171.578C963.631 171.578 965.348 169.503 967.278 170.236C969.208 170.97 973.251 176.859 973.251 176.859" stroke="#F79C74" stroke-miterlimit="10"/>
<path d="M968.098 170.603L968.494 168.865C968.832 167.388 969.546 166.008 970.655 164.984C971.041 164.627 971.476 164.309 971.958 164.077C973.888 163.16 976.792 163.864 977.285 164.173C979.494 165.554 992.54 174.291 992.54 174.291" stroke="#F79C74" stroke-miterlimit="10"/>
<path d="M963.718 428.422C963.718 428.422 949.784 452.143 938.272 456.362C938.243 456.372 938.215 456.381 938.176 456.381C937.886 456.43 936.265 456.671 934.442 456.922C931.113 457.376 928.199 459.374 926.578 462.319C925.738 463.825 924.937 465.447 924.493 466.779C924.049 468.111 925.043 469.376 926.394 469.386L1011.62 469.984L1012.11 434.427" stroke="#06262D" stroke-miterlimit="10"/>
<path d="M1105.98 423.393C1105.98 423.393 1106.84 446.196 1105.24 450.975C1103.65 455.754 1100.05 461.238 1099.48 464.095C1098.68 468.14 1100.95 473.991 1102.54 474.116C1104.13 474.242 1165.76 416.77 1165.76 416.77L1144.93 390.78" stroke="#06262D" stroke-miterlimit="10"/>
<path d="M991.073 173.084C991.073 173.084 991.903 170.873 991.17 169.869C990.436 168.865 982.987 160.765 982.437 160.215C982.235 160.012 982.071 159.366 981.945 158.622C981.656 156.933 982.505 155.262 984.029 154.49C984.83 154.094 985.757 154.036 986.596 154.345L989.645 155.446C992.347 156.431 994.923 157.734 997.287 159.366C1000.43 161.547 1004.32 164.83 1006.14 168.663C1009.45 175.652 1009.35 180.895 1009.9 181.628C1010.45 182.362 1011.37 183.192 1012.84 183.656C1014.32 184.119 1027.36 184.206 1033.24 183.559C1034.72 183.395 1042.79 178.78 1044.36 173.442C1045.92 168.112 1045.09 157.444 1045.09 157.444L1044.44 150.735" stroke="#FFAB97" stroke-miterlimit="10"/>
<path d="M1087.66 210.331C1087.66 210.331 1094.1 252.501 1097.28 267.456C1100.47 282.41 1105.37 305.947 1106.35 310.359C1107.34 314.772 1110.27 325.565 1111.99 329.243C1113.71 332.922 1133.06 372.398 1148.26 387.845L1099.73 428.297C1099.73 428.297 1085.03 415.544 1075.22 398.388C1075.22 398.388 1052.38 362.281 1035.71 308.834" stroke="#CAD9DB" stroke-miterlimit="10"/>
<path d="M1035.83 305.581C1035.83 305.581 1024.61 432.284 1023.7 436.146L957.166 427.322C957.166 427.322 966.757 353.949 968.591 330.045" stroke="#CAD9DB" stroke-miterlimit="10"/>
<path d="M1010.77 238.647C1010.77 238.647 1024.86 240.607 1026.81 240.974C1026.81 240.974 1029.39 278.857 1035.63 295.772" stroke="#8DB2B5" stroke-miterlimit="10"/>
<path d="M983.171 63.3338C983.171 63.3338 982.592 56.4116 990.987 52.1734L990.118 45.425C989.8 42.9342 988.217 40.7909 985.93 39.7579L981.733 37.856C979.986 37.0643 978.018 36.8712 976.156 37.3153L975.683 37.4312C974.699 37.6629 974.023 38.5704 974.071 39.5841L958.546 39.9317C955.226 40.0089 952.061 41.3219 949.678 43.6196L946.542 46.6318C946.33 46.8345 946.079 46.9697 945.799 47.0469C944.178 47.4524 942.74 48.4082 941.737 49.7598L938.379 54.2683C936.372 56.9619 935.339 60.2637 935.436 63.6234C935.455 64.3185 935.657 65.004 936.024 65.5929L936.574 66.4907C938.07 68.9236 940.675 70.449 943.522 70.5552L946.513 70.6325" stroke="black" stroke-miterlimit="10"/>
<path d="M996.187 57.5122C996.187 57.5122 991.836 60.0899 989.636 65.6025" stroke="#E58867" stroke-miterlimit="10"/>
<path d="M968.031 75.73C968.654 75.73 969.16 75.2674 969.16 74.6969C969.16 74.1264 968.654 73.6639 968.031 73.6639C967.407 73.6639 966.902 74.1264 966.902 74.6969C966.902 75.2674 967.407 75.73 968.031 75.73Z" fill="black" stroke="black" stroke-miterlimit="10"/>
<path d="M968.349 88.8405C968.349 88.8405 964.953 90.6652 964.026 90.9645C963.158 91.2445 964.895 93.3491 966.265 93.3877C967.269 93.4167 968.05 93.2333 969.034 92.4802C970.019 91.7272 968.349 88.8405 968.349 88.8405Z" fill="#B2221B"/>
<path d="M960.794 84.8823C961.894 84.3609 963.148 83.5403 963.148 83.5403C963.148 83.5403 963.824 84.583 963.283 85.3264C962.743 86.0698 962.425 86.1373 962.174 86.147C961.923 86.1567 960.784 85.5677 960.582 85.1043L960.804 84.8823H960.794Z" fill="#FF8A69"/>
<path d="M964.248 72.2544C964.248 72.2544 966.757 70.3525 968.118 69.8698C968.118 69.8698 967.162 69.7443 966.439 70.0049C965.715 70.2656 964.586 70.9704 964.239 72.264L964.248 72.2544Z" fill="black" stroke="black" stroke-width="0.25" stroke-miterlimit="10"/>
<path d="M955.73 80.6408C955.967 80.2363 955.862 79.7332 955.494 79.517C955.127 79.3009 954.636 79.4537 954.399 79.8582C954.161 80.2628 954.266 80.7659 954.634 80.982C955.002 81.1981 955.492 81.0454 955.73 80.6408Z" fill="black" stroke="black" stroke-miterlimit="10"/>
<path d="M954.995 76.1258C954.995 76.1258 952.669 77.236 951.743 78.0566C951.743 78.0566 952.11 77.3036 952.602 76.8692C953.094 76.4347 954.049 75.8747 954.995 76.1354V76.1258Z" fill="black" stroke="black" stroke-width="0.25" stroke-miterlimit="10"/>
<path d="M965.754 135.577C965.754 135.577 965.937 141.968 967.819 147.114" stroke="#408DCC" stroke-miterlimit="10"/>
<path d="M1063.15 24.1661L1068.61 11.2293L1068.98 10.0997C1069.98 7.12616 1068.85 3.77611 1066.14 2.2121C1066.12 2.20245 1066.1 2.1928 1066.08 2.18314L1065.13 1.65215C1063.9 0.957038 1062.45 0.773616 1061.08 1.15014C1058.71 1.78732 1056.78 3.49614 1055.84 5.76491L1050.27 19.2713" stroke="#176B87" stroke-miterlimit="10"/>
<path d="M1068.34 64.6564C1074.24 49.6053 1073.78 43.6679 1072.83 37.9525C1071.61 30.538 1065.16 24.5523 1059.42 21.8973C1054.64 19.6865 1048.79 19.0879 1044.07 19.2617C1036.68 19.5224 1029.75 23.1138 1025.41 29.1091C1019.87 36.765 1018.06 45.6856 1018.06 45.6856" stroke="#EEF5FF" stroke-miterlimit="10"/>
<path d="M981.366 296.148L932.107 275.913L883.783 405.667L932.261 426.762L981.366 296.148Z" stroke="#176B87" stroke-miterlimit="10"/>
<path d="M889.833 453.862L884.96 467.667C884.564 468.797 884.796 470.052 885.568 470.979C885.983 471.471 886.6 471.761 887.247 471.741H887.623C888.704 471.713 889.679 471.046 890.084 470.042L895.053 457.791L889.727 454.354" stroke="black" stroke-miterlimit="10"/>
<path d="M1063.28 77.8635L1013.16 58.3232L1017.57 46.3614L1068.06 65.0522L1063.28 77.8635Z" stroke="#176B87" stroke-miterlimit="10"/>
<path d="M872.619 473.663L839.898 426.955" stroke="#A197FC" stroke-width="2" stroke-miterlimit="10"/>
<path d="M859.197 473.479L837.881 457.849" stroke="#A197FC" stroke-width="2" stroke-miterlimit="10"/>
<path d="M945.336 264.511C947.053 265.978 954.647 274.561 957.098 278.239C957.841 279.35 958.314 280.392 958.603 281.31C959.182 283.076 957.658 284.843 955.834 284.515C954.319 284.244 952.428 283.762 950.479 282.893C946.069 280.933 939.208 275.536 938.475 275.044C937.742 274.551 930.389 272.35 918.868 260.089C907.346 247.828 900.737 226.251 903.188 196.583C905.638 166.915 924.262 141.167 924.262 141.167L925.13 140.105" stroke="black" stroke-miterlimit="10"/>
<path d="M957.166 257.589L968.012 276.164C968.012 276.164 969.478 277.998 968.378 279.842C967.751 280.894 966.767 281.947 965.416 282.661C964.316 283.24 963.052 283.414 961.836 283.173L959.009 282.603" stroke="black" stroke-miterlimit="10"/>
<path d="M933.399 272.456L883.783 405.667L932.261 426.762L1008.01 225.198" stroke="black" stroke-miterlimit="10"/>
<path d="M973.936 163.633L973.975 163.536L1001.62 89.3039L1013.16 58.3231L1017.83 45.8015L1068.34 64.6564L1062.44 80.364L1023.49 184.013" stroke="black" stroke-miterlimit="10"/>
<path d="M951.145 224.822L962.251 194.99L962.318 194.816" stroke="black" stroke-miterlimit="10"/>
<path d="M965.165 187.19V187.18" stroke="black" stroke-miterlimit="10"/>
<path d="M1044.4 151.053L1080.86 129.167C1080.86 129.167 1094.58 149.026 1092.38 169.618C1090.17 190.211 1086.75 197.819 1083.56 202.231C1080.38 206.643 1070.08 218.17 1061.26 222.09C1052.44 226.009 1041.16 229.688 1027.69 228.954C1014.22 228.22 996.081 222.09 986.519 215.718C978.413 210.311 963.804 196.284 959.539 192.123C958.401 191.012 957.455 189.709 956.886 188.222C956.317 186.736 956.008 184.94 957.175 183.839C958.922 182.188 966.361 188.068 966.361 188.068" stroke="black" stroke-miterlimit="10"/>
<path d="M968.562 277.264C969.623 277.38 971.977 276.897 973.521 276.531C974.534 276.289 975.451 275.739 976.136 274.957C977.005 273.953 978.085 272.485 978.298 271.201C978.394 270.641 978.356 269.946 978.249 269.232C977.892 266.828 976.87 264.569 975.393 262.638L967.461 252.26C967.461 250.976 969.295 250.049 970.405 250.425C971.514 250.802 975.364 253.737 977.941 255.388C978.886 255.996 979.977 256.102 980.98 256.005C983.19 255.783 984.734 253.804 984.512 251.593C984.386 250.416 984.309 248.823 983.277 247.297C980.15 242.702 981.405 243.706 977.207 240.858C972.064 237.363 953.132 233.318 953.132 233.318C953.132 233.318 951.299 227.429 950.556 221.366C949.813 215.303 948.53 206.286 949.089 195.618C949.649 184.95 954.975 170.613 954.975 170.613L955.525 169.097" stroke="black" stroke-miterlimit="10"/>
<path d="M960.659 184.119L960.379 181.097C960.273 179.92 960.302 178.722 960.582 177.574C960.582 177.554 960.582 177.535 960.591 177.516C961.045 175.623 961.942 173.866 963.1 172.293L963.631 171.578C963.631 171.578 965.348 169.503 967.278 170.236C969.208 170.97 973.251 176.859 973.251 176.859" stroke="black" stroke-miterlimit="10"/>
<path d="M968.098 170.603L968.494 168.865C968.832 167.388 969.546 166.008 970.655 164.984C971.041 164.627 971.476 164.309 971.958 164.077C973.888 163.16 976.792 163.864 977.284 164.173C979.494 165.554 992.54 174.291 992.54 174.291" stroke="black" stroke-miterlimit="10"/>
<path d="M991.073 173.084C991.073 173.084 991.903 170.873 991.17 169.869C990.436 168.865 982.987 160.765 982.437 160.215C982.235 160.012 982.07 159.365 981.945 158.622C981.656 156.933 982.505 155.262 984.029 154.49C984.83 154.094 985.757 154.036 986.596 154.345L989.645 155.446C992.347 156.431 994.923 157.734 997.287 159.366C1000.43 161.547 1004.32 164.83 1006.14 168.663C1009.45 175.652 1009.35 180.895 1009.9 181.628C1010.45 182.362 1011.37 183.192 1012.84 183.656C1014.32 184.119 1027.36 184.206 1033.24 183.559C1034.72 183.395 1042.79 178.78 1044.36 173.442C1045.92 168.112 1045.09 157.444 1045.09 157.444L1044.44 150.735" stroke="black" stroke-miterlimit="10"/>
<path d="M1087.66 210.331C1087.66 210.331 1094.1 252.501 1097.28 267.456C1100.47 282.41 1105.37 305.947 1106.35 310.359C1107.34 314.771 1110.27 325.565 1111.99 329.243C1113.71 332.922 1133.06 372.398 1148.26 387.845L1099.73 428.297C1099.73 428.297 1085.03 415.544 1075.22 398.388C1075.22 398.388 1052.38 362.28 1035.71 308.834" stroke="black" stroke-miterlimit="10"/>
<path d="M1105.98 423.393C1105.98 423.393 1106.84 446.196 1105.24 450.975C1103.65 455.754 1100.05 461.238 1099.48 464.095C1098.68 468.14 1100.95 473.991 1102.54 474.116C1104.13 474.242 1165.76 416.77 1165.76 416.77L1144.93 390.78" stroke="black" stroke-miterlimit="10"/>
<path d="M1035.83 305.581C1035.83 305.581 1024.61 432.284 1023.7 436.146L957.166 427.322C957.166 427.322 966.757 353.949 968.59 330.045" stroke="black" stroke-miterlimit="10"/>
<path d="M1010.77 238.647C1010.77 238.647 1024.86 240.607 1026.81 240.974C1026.81 240.974 1029.39 278.857 1035.63 295.772" stroke="black" stroke-miterlimit="10"/>
<path d="M963.718 428.422C963.718 428.422 949.784 452.143 938.272 456.362C938.243 456.372 938.214 456.381 938.176 456.381C937.886 456.43 936.265 456.671 934.442 456.922C931.113 457.376 928.199 459.374 926.577 462.319C925.738 463.825 924.937 465.447 924.493 466.779C924.049 468.111 925.043 469.376 926.394 469.386L1011.62 469.984L1012.11 434.427" stroke="black" stroke-miterlimit="10"/>
<path d="M1001.64 89.3039C1001.09 89.3619 1000.46 89.468 999.816 89.5935C997.181 90.1149 994.605 90.9355 992.125 91.9589C976.049 98.6107 968.87 102.569 968.87 102.569C942.373 116.732 924.763 140.086 924.763 140.086L955.882 169.145L963.968 156.392L967.77 156.151L967.741 170.391" stroke="black" stroke-miterlimit="10"/>
<path d="M1055.86 98.5238C1055.86 98.5238 1071.66 110.785 1081.34 127.825L1080.98 128.925" stroke="black" stroke-miterlimit="10"/>
<path d="M982.592 63.884C982.592 63.884 982.592 56.4019 990.986 52.1733L990.118 45.4249C989.8 42.9341 988.217 40.7908 985.93 39.7578L981.733 37.8559C979.986 37.0643 978.018 36.8712 976.156 37.3153L975.683 37.4311C974.698 37.6628 974.023 38.5704 974.071 39.5841L958.546 39.9316C955.226 40.0089 952.061 41.3218 949.678 43.6196L946.542 46.6317C946.33 46.8345 946.079 46.9696 945.799 47.0469C944.178 47.4523 942.74 48.4081 941.737 49.7597L938.379 54.2683C936.371 56.9619 935.339 60.2637 935.436 63.6234C935.455 64.3185 935.657 65.004 936.024 65.5929L936.574 66.4907C938.07 68.9236 940.675 70.449 943.522 70.5552L946.513 70.6324" stroke="black" stroke-miterlimit="10"/>
<path d="M990.986 52.183C990.986 52.183 999.314 51.6327 1001.65 54.4517C1003.98 57.2708 1004.15 60.4278 1003.61 65.6701C1003.3 68.6726 996.072 73.7025 995.087 74.2528C994.103 74.8031 993.92 75.17 993.92 75.17C993.92 75.17 993.457 82.488 993.003 83.8106C992.511 85.2201 989.327 91.1672 982.833 95.8882" stroke="black" stroke-miterlimit="10"/>
<path d="M977.806 98.2728C977.806 98.2728 969.102 98.6397 966.902 97.9639C964.702 97.2881 960.167 96.062 953.113 86.1373C946.059 76.2127 946.86 70.3235 946.86 70.3235C946.86 70.3235 946.744 69.9663 946.918 68.2382C947.092 66.51 962.232 58.0046 963.525 57.4543C964.818 56.904 974.612 56.4695 974.612 56.4695L977.863 57.0777L982.582 64.193" stroke="black" stroke-miterlimit="10"/>
<path d="M996.187 57.5122C996.187 57.5122 991.836 60.0899 989.636 65.6025" stroke="black" stroke-miterlimit="10"/>
<path d="M965.754 135.577C965.754 135.577 965.937 141.968 967.819 147.114" stroke="black" stroke-miterlimit="10"/>
<path d="M1013.16 58.3232L1063.28 77.8635" stroke="black" stroke-miterlimit="10"/>
<path d="M1018.06 45.6856C1018.06 45.6856 1019.87 36.765 1025.41 29.1091C1029.74 23.1138 1036.68 19.5223 1044.07 19.2617C1048.79 19.0975 1054.64 19.6961 1059.42 21.8973C1065.17 24.5522 1071.61 30.5379 1072.83 37.9525C1073.78 43.6679 1074.24 49.5956 1068.34 64.6564" stroke="black" stroke-miterlimit="10"/>
<path d="M981.366 296.148L932.107 275.913" stroke="black" stroke-miterlimit="10"/>
<path d="M1050.29 19.2617L1055.86 5.75524C1056.79 3.48646 1058.72 1.77765 1061.1 1.14046C1062.46 0.773595 1063.92 0.957031 1065.15 1.64249L1066.1 2.17348C1066.1 2.17348 1066.14 2.19279 1066.15 2.20244C1068.88 3.75679 1069.99 7.1165 1069 10.09L1068.62 11.2196L1063.17 24.1564" stroke="black" stroke-miterlimit="10"/>
<path d="M894.812 457.704L898.913 456.536C902.869 455.261 906.526 453.234 909.711 450.579C915.876 445.443 925.786 436.213 930.756 426.337" stroke="black" stroke-miterlimit="10"/>
<path d="M884.323 406.295L883.754 428.635C883.571 435.962 884.989 443.242 887.913 449.961L889.717 454.354" stroke="black" stroke-miterlimit="10"/>
<path d="M889.833 453.862L884.96 467.667C884.564 468.797 884.796 470.052 885.568 470.979C885.983 471.471 886.6 471.761 887.247 471.741H887.623C888.704 471.712 889.679 471.046 890.084 470.042L895.053 457.791L889.727 454.354" stroke="black" stroke-miterlimit="10"/>
<path d="M1076.94 210.08L1088.09 210.205L1086.8 196.477" stroke="black" stroke-miterlimit="10"/>
<path d="M968.031 75.7299C968.654 75.7299 969.16 75.2674 969.16 74.6969C969.16 74.1264 968.654 73.6639 968.031 73.6639C967.407 73.6639 966.902 74.1264 966.902 74.6969C966.902 75.2674 967.407 75.7299 968.031 75.7299Z" fill="black" stroke="black" stroke-miterlimit="10"/>
<path d="M969.025 92.4802C970.009 91.7175 968.34 88.8405 968.34 88.8405C968.34 88.8405 964.943 90.6652 964.017 90.9645" fill="#B2221B"/>
<path d="M960.794 84.8822C961.894 84.3609 963.148 83.5403 963.148 83.5403C963.148 83.5403 963.824 84.583 963.283 85.3263C962.743 86.0697 962.425 86.1373 962.174 86.147C961.923 86.1566 960.784 85.5677 960.582 85.1043" fill="#FF8A69"/>
<path d="M964.248 72.2544C964.248 72.2544 966.757 70.3525 968.118 69.8697C968.118 69.8697 967.162 69.7442 966.439 70.0049C965.715 70.2656 964.586 70.9703 964.239 72.264L964.248 72.2544Z" fill="black" stroke="black" stroke-width="0.25" stroke-miterlimit="10"/>
<path d="M954.628 80.9819C954.995 81.2039 955.487 81.0495 955.728 80.644C955.969 80.2385 955.853 79.7365 955.487 79.5241C955.12 79.3117 954.628 79.4565 954.387 79.862C954.145 80.2675 954.261 80.7695 954.628 80.9819Z" fill="black" stroke="black" stroke-miterlimit="10"/>
<path d="M952.602 76.8595C953.094 76.425 954.049 75.8651 954.995 76.1258C954.995 76.1258 952.669 77.236 951.743 78.0566" fill="black"/>
<path d="M952.602 76.8595C953.094 76.425 954.049 75.8651 954.995 76.1258C954.995 76.1258 952.669 77.236 951.743 78.0566" stroke="black" stroke-width="0.25" stroke-miterlimit="10"/>
</svg>
