<svg width="96" height="48" viewBox="0 0 96 48" fill="none" xmlns="http://www.w3.org/2000/svg">
<path d="M27.938 25.8529L22.9189 18.6696V25.8529H17.7251V9.32153H22.9189V16.3119L28.0755 9.36741H34.2266L27.9044 17.1662L34.3247 25.8529H27.938Z" fill="black" fill-opacity="0.75"/>
<path d="M92.0038 47.5958C93.6846 47.5958 95.0471 46.2471 95.0471 44.5825C95.0471 42.9191 93.6846 41.5696 92.0038 41.5696C90.3229 41.5696 88.9604 42.9188 88.9604 44.5825C88.9604 46.2471 90.3229 47.5958 92.0038 47.5958Z" fill="#01FE83" fill-opacity="0.75"/>
<path d="M39.0165 6.82343C40.697 6.82343 42.0598 5.47418 42.0598 3.81018C42.0598 2.14618 40.6973 0.797241 39.0165 0.797241C37.3356 0.797241 35.9731 2.14618 35.9731 3.81018C35.9731 5.47418 37.3359 6.82343 39.0165 6.82343Z" fill="#01FE83" fill-opacity="0.75"/>
<path d="M41.6156 9.32129H36.4221V25.8524H41.6156V9.32129Z" fill="black" fill-opacity="0.75"/>
<path d="M36.3213 39.0103C36.3213 34.0841 39.3616 30.3239 44.1451 30.3239C46.5372 30.3239 48.4152 31.4535 49.3053 33.1285V30.7674H54.4991V47.2532H49.3053V44.9264C48.4152 46.5671 46.3661 47.6974 44.0781 47.6974C39.1596 47.7001 36.3213 43.9699 36.3213 39.0103ZM49.5103 39.0103C49.5103 36.6495 48.1765 34.6989 45.5799 34.6989C43.1544 34.6989 41.6499 36.5119 41.6499 39.0103C41.6499 41.5054 43.1517 43.3551 45.5799 43.3551C48.1793 43.3551 49.5103 41.4044 49.5103 39.0103Z" fill="black" fill-opacity="0.75"/>
<path d="M57.5597 30.767H62.7862V34.221C63.3674 31.7593 65.3159 30.4941 67.3314 30.4941C67.9464 30.4941 68.2893 30.5278 68.699 30.6318L68.6715 35.4852C68.0564 35.4149 67.775 35.3843 67.1266 35.3843C64.2914 35.3843 62.7862 37.2303 62.7862 40.8892V47.2522H57.5591L57.5597 30.767Z" fill="black" fill-opacity="0.75"/>
<path d="M69.7568 39.0103C69.7568 33.606 73.2771 30.3239 78.639 30.3239C83.7653 30.3239 87.2493 33.505 87.2493 38.156C87.2493 39.0103 87.2157 39.5248 87.1115 40.4461H74.9473C75.0484 42.602 76.4861 43.7655 78.808 43.7655C80.4134 43.7655 81.4379 43.3214 81.8819 42.2955H87.0082C86.4973 45.5443 83.182 47.6998 78.808 47.6998C73.2078 47.6998 69.7577 44.5186 69.7577 39.0103H69.7568ZM82.0927 37.1973C82.0591 35.0081 80.8293 33.8446 78.6091 33.8446C76.3547 33.8446 74.9876 35.1797 74.954 37.1973H82.0927Z" fill="black" fill-opacity="0.75"/>
<path d="M49.8595 20.9449V9.32166H44.6321V25.8531H57.3163V20.9449H49.8595Z" fill="black" fill-opacity="0.75"/>
<path d="M65.3778 20.9449V9.32166H60.1506V25.8531H72.8352V20.9449H65.3778Z" fill="black" fill-opacity="0.75"/>
<path d="M29.114 30.7612V36.6981H22.8498V30.7612H17.7266V47.2954H22.8498V41.4384H29.114V47.2954H34.2403V30.7612H29.114Z" fill="black" fill-opacity="0.75"/>
<path d="M11.2791 37.464L8.08576 36.5784C7.00593 36.2572 6.63285 35.7822 6.63285 35.112C6.63285 34.3801 7.2079 33.9485 7.95132 33.8625C9.03085 33.7371 9.86593 34.2057 9.86593 35.3723V35.4488H15.3592V35.3723H15.3562C15.3562 32.0807 12.5759 30.265 7.93299 30.265C3.70012 30.265 0.901235 32.323 0.901235 35.443C0.901235 37.9445 2.40304 39.6253 5.03021 40.2747L8.3244 41.1015C9.3031 41.4108 9.69757 41.8913 9.69452 42.6447C9.69146 43.4681 8.86554 43.9334 8.02129 43.9734C6.79785 44.0288 5.90776 43.3644 5.84024 42.3082H0.463379C0.542823 45.4619 3.62588 47.6789 8.2416 47.6789C12.6092 47.6789 15.4445 45.6579 15.4445 42.2284C15.4414 39.7266 13.8724 38.1501 11.2791 37.464Z" fill="black" fill-opacity="0.75"/>
<path d="M11.2791 16.0639L8.08576 15.179C7.00593 14.8575 6.63285 14.3827 6.63285 13.7122C6.63285 12.9803 7.2079 12.5487 7.95132 12.463C9.03085 12.3373 9.86593 12.8059 9.86593 13.9726V14.049H15.3592V13.9726H15.3562C15.3562 10.681 12.5759 8.86523 7.93299 8.86523C3.70012 8.86523 0.901235 10.9229 0.901235 14.0429C0.901235 16.5447 2.40304 18.2255 5.03021 18.8746L8.3244 19.7014C9.3031 20.0107 9.69757 20.4915 9.69452 21.2446C9.69146 22.068 8.86554 22.5336 8.02129 22.5734C6.79785 22.6284 5.90776 21.964 5.84024 20.9078H0.463379C0.542823 24.0618 3.62588 26.2782 8.2416 26.2782C12.6092 26.2782 15.4445 24.2575 15.4445 20.828C15.442 18.3265 13.8727 16.75 11.2791 16.0639Z" fill="black" fill-opacity="0.75"/>
</svg>
