<svg width="202" height="30" viewBox="0 0 202 30" fill="none" xmlns="http://www.w3.org/2000/svg">
<g clip-path="url(#clip0_947_1857)">
<path d="M43.4131 15.619C43.4131 19.4268 44.8618 22.121 49.1712 22.121C52.2547 22.121 54.0007 20.2171 54.0007 20.2171L54.2608 21.1511C54.3722 21.5104 54.5208 21.7618 54.9295 21.7618H55.6353C56.0068 21.7618 56.3412 21.4385 56.3412 21.0793V8.07512C56.3412 7.71589 56.0068 7.39258 55.6353 7.39258H54.4837C54.1122 7.39258 53.7778 7.71589 53.7778 8.07512V17.6665C53.7778 17.6665 52.1805 19.7141 49.357 19.7141C47.2766 19.7141 46.0136 18.385 46.0136 15.6549V8.07512C46.0136 7.71589 45.6792 7.39258 45.3077 7.39258H44.1188C43.7473 7.39258 43.4131 7.71589 43.4131 8.07512V15.619Z" fill="#08BD80"/>
<path fill-rule="evenodd" clip-rule="evenodd" d="M82.5016 12.6376C78.6751 12.6376 76.5576 14.6853 76.5576 17.4155C76.5576 20.2893 78.5265 22.1214 81.127 22.1214C83.4304 22.1214 84.9535 21.0078 85.7336 20.2534L86.0309 21.2233C86.1422 21.5466 86.2537 21.7621 86.6624 21.7621H87.3682C87.7397 21.7621 88.074 21.4389 88.074 21.0796V13.1046C88.074 8.90169 87.1454 7.03369 83.356 7.03369C80.5697 7.03369 78.4151 7.85993 78.1922 7.96769C77.8579 8.11139 77.635 8.32693 77.7835 8.758L78.0807 9.65608C78.1922 9.97938 78.4151 10.159 78.7866 10.0153C79.4552 9.76384 81.2014 9.225 83.2446 9.225C85.3621 9.225 85.6965 10.4464 85.6594 13.1046C85.6594 13.1046 84.099 12.6376 82.5016 12.6376ZM81.5351 19.966C79.9377 19.966 78.9346 18.8524 78.9346 17.4154C78.9346 15.5474 80.4206 14.5416 82.501 14.5416C84.1356 14.5416 85.1759 14.8649 85.6216 15.1164V17.9543C84.9901 18.8524 83.3926 19.966 81.5351 19.966Z" fill="#2D81F7"/>
<path d="M91.5332 14.6135C91.5332 18.9243 95.0252 22.1214 99.1488 22.1214C101.675 22.1214 103.718 20.8281 104.833 19.1039C105.056 18.7446 104.944 18.3495 104.573 18.098L104.164 17.8106C103.755 17.5233 103.495 17.4514 103.05 17.8825C102.195 18.6728 101.341 19.7504 99.1117 19.7504C96.3254 19.7504 94.208 17.4514 94.208 14.5775C94.208 11.7037 96.3626 9.47645 99.1488 9.47645C100.598 9.47645 101.824 10.159 102.567 10.9852C102.901 11.2726 103.087 11.6318 103.644 11.1289L104.35 10.5542C104.684 10.3027 104.758 9.87162 104.498 9.5483C103.161 7.89584 101.415 7.03369 99.1861 7.03369C95.1367 7.03369 91.5332 10.3745 91.5332 14.6135Z" fill="#2D81F7"/>
<path fill-rule="evenodd" clip-rule="evenodd" d="M114.35 12.6376C110.523 12.6376 108.406 14.6853 108.406 17.4155C108.406 20.2893 110.375 22.1214 112.975 22.1214C115.279 22.1214 116.802 21.0078 117.582 20.2534L117.879 21.2233C117.99 21.5466 118.102 21.7621 118.511 21.7621H119.216C119.588 21.7621 119.922 21.4389 119.922 21.0796V13.1046C119.922 8.90169 118.993 7.03369 115.204 7.03369C112.418 7.03369 110.263 7.85993 110.04 7.96769C109.706 8.11139 109.483 8.32693 109.632 8.758L109.929 9.65608C110.04 9.97938 110.263 10.159 110.635 10.0153C111.304 9.76384 113.05 9.225 115.093 9.225C117.21 9.225 117.545 10.4464 117.508 13.1046C117.508 13.1046 115.947 12.6376 114.35 12.6376ZM113.382 19.966C111.785 19.966 110.782 18.8524 110.782 17.4154C110.782 15.5474 112.268 14.5416 114.348 14.5416C115.983 14.5416 117.023 14.8649 117.469 15.1164V17.9543C116.837 18.8524 115.24 19.966 113.382 19.966Z" fill="#2D81F7"/>
<path fill-rule="evenodd" clip-rule="evenodd" d="M130.514 7.03308C126.056 7.03308 123.381 10.338 123.381 14.541C123.381 18.6721 126.354 22.1208 130.142 22.1208C132.929 22.1208 134.712 20.2169 134.712 20.2169L134.935 21.1868C135.009 21.51 135.232 21.7615 135.566 21.7615H136.346C136.719 21.7615 137.052 21.4382 137.052 21.079V0.682537C137.052 0.323307 136.719 0 136.346 0H135.195C134.824 0 134.489 0.323307 134.489 0.682537V7.96708C134.489 7.96708 132.966 7.03308 130.514 7.03308ZM130.401 19.8574C127.69 19.8574 125.981 17.3787 125.981 14.5767C125.981 11.7029 127.615 9.43971 130.847 9.43971C132.891 9.43971 134.451 10.3019 134.451 10.3019V17.4865C134.451 17.4865 133.076 19.8574 130.401 19.8574Z" fill="#2D81F7"/>
<path fill-rule="evenodd" clip-rule="evenodd" d="M147.791 7.03369C143.296 7.03369 140.51 10.5182 140.51 14.5775C140.51 18.7086 143.296 22.1214 147.791 22.1214C150.355 22.1214 152.361 21.1514 153.253 20.4689C153.81 20.0738 153.661 19.8583 153.401 19.5349C153.29 19.3913 153.188 19.2565 153.085 19.1218C152.984 18.9871 152.881 18.8524 152.77 18.7086C152.499 18.3483 152.289 18.466 151.86 18.7075C151.819 18.7308 151.775 18.7553 151.73 18.7805C150.875 19.2834 149.613 19.8583 148.051 19.8583C145.414 19.8583 143.223 17.595 143.074 15.1883H153.773C154.108 15.1883 154.404 14.9368 154.441 14.5775C154.479 14.326 154.516 13.859 154.516 13.6076C154.516 9.83569 151.693 7.03369 147.791 7.03369ZM151.95 13.1765H143.109C143.369 10.9493 145.301 9.22502 147.79 9.22502C150.056 9.22502 151.839 11.093 151.95 13.1765Z" fill="#2D81F7"/>
<path d="M157.976 21.0796C157.976 21.4389 158.31 21.7621 158.683 21.7621H159.834C160.205 21.7621 160.54 21.4389 160.54 21.0796V11.4882C160.54 11.4882 162.136 9.44054 164.775 9.44054C167.04 9.44054 168.304 10.7697 168.304 13.4999V21.0796C168.304 21.4389 168.638 21.7621 169.01 21.7621H170.199C170.57 21.7621 170.904 21.4389 170.904 21.0796V13.4999C170.904 12.7455 170.83 12.0629 170.719 11.4522C171.239 10.9852 172.836 9.44054 175.251 9.44054C177.405 9.44054 178.594 10.8056 178.594 13.4999V21.0796C178.594 21.4389 178.929 21.7621 179.3 21.7621H180.489C180.86 21.7621 181.195 21.4389 181.195 21.0796V13.4999C181.195 9.76384 179.746 7.03369 175.436 7.03369C172.465 7.03369 170.088 9.225 169.901 9.36869C168.935 7.85993 167.338 7.03369 165.146 7.03369C162.063 7.03369 160.316 8.93762 160.316 8.93762L159.983 7.824C159.908 7.53662 159.723 7.39293 159.388 7.39293H158.683C158.31 7.39293 157.976 7.71623 157.976 8.07547V21.0796Z" fill="#2D81F7"/>
<path d="M191.649 21.7259L188.64 29.1021C188.38 29.6051 188.678 30.0003 189.234 30.0003H190.609C190.869 30.0003 191.129 29.7848 191.24 29.5691L200.899 8.21882C201.159 7.75182 200.899 7.39258 200.341 7.39258H198.93C198.67 7.39258 198.41 7.57219 198.299 7.78774L193.098 18.7801L187.563 7.78774C187.451 7.57219 187.228 7.39258 186.93 7.39258H185.296C184.739 7.39258 184.516 7.71589 184.739 8.18289L191.649 21.7259Z" fill="#2D81F7"/>
<path d="M59.7974 21.0796C59.7974 21.4389 60.1317 21.7621 60.5032 21.7621H61.6549C62.0264 21.7621 62.3607 21.4389 62.3607 21.0796V11.4882C62.3607 11.4882 64.3667 9.44054 67.153 9.44054C69.2334 9.44054 70.4965 10.7697 70.4965 13.4999V21.0796C70.4965 21.4389 70.8309 21.7621 71.2024 21.7621H72.3911C72.7626 21.7621 73.097 21.4389 73.097 21.0796V13.4999C73.097 9.76384 71.6481 7.03369 67.3387 7.03369C64.2554 7.03369 62.1377 8.93762 62.1377 8.93762L61.8035 7.824C61.7291 7.53662 61.5434 7.39293 61.209 7.39293H60.5032C60.1317 7.39293 59.7974 7.71623 59.7974 8.07547V21.0796Z" fill="#08BD80"/>
<path d="M0.19014 2.78892C1.57057 11.2579 9.15875 17.7348 18.3127 17.7348C27.3741 17.7348 34.9011 11.3883 36.3915 3.0454C36.5824 2.26211 36.6613 1.63651 36.6371 1.10053C36.6371 0.486474 36.1817 0.00976562 35.5505 0.00976562H34.5262H2.27136H1.09091C0.460047 0.00976562 0.00490468 0.485758 0.00422064 1.09915L6.08518e-09 1.09899C0.000860912 1.11271 0.00173797 1.12642 0.00263117 1.14013C-0.0138341 1.60697 0.0467763 2.14195 0.19014 2.78892Z" fill="#2D81F7"/>
<path d="M27.3194 28.5835C26.6291 24.3491 22.835 21.1106 18.2581 21.1106C13.7274 21.1106 9.96386 24.2838 9.21869 28.4553C9.12327 28.847 9.0838 29.1597 9.09586 29.4277C9.09586 29.7347 9.32354 29.9731 9.63921 29.9731H10.1513H26.2788H26.869C27.1844 29.9731 27.412 29.7351 27.4124 29.4285H27.4144C27.414 29.4216 27.4135 29.4148 27.4131 29.408C27.4214 29.1745 27.391 28.907 27.3194 28.5835Z" fill="#08BD80"/>
</g>
<defs>
<clipPath id="clip0_947_1857">
<rect width="201.25" height="30" fill="white"/>
</clipPath>
</defs>
</svg>
