<svg width="300" height="300" viewBox="0 0 300 300" fill="none" xmlns="http://www.w3.org/2000/svg">
<rect width="300" height="300" fill="#F9FBFE"/>
<path d="M147.73 211.2L140.5 233.96" stroke="black" stroke-miterlimit="10"/>
<path d="M147.8 211.2L155.04 233.96" stroke="black" stroke-miterlimit="10"/>
<path d="M119.64 234.12L183.13 234.09" stroke="black" stroke-miterlimit="10"/>
<path d="M118.27 222.38C124.494 222.38 129.54 217.334 129.54 211.11C129.54 204.886 124.494 199.84 118.27 199.84C112.046 199.84 107 204.886 107 211.11C107 217.334 112.046 222.38 118.27 222.38Z" fill="#A197FC"/>
<path d="M179.51 210.91L129.54 210.94" stroke="black" stroke-miterlimit="10"/>
<path d="M187.23 218.63C191.488 218.63 194.94 215.178 194.94 210.92C194.94 206.662 191.488 203.21 187.23 203.21C182.972 203.21 179.52 206.662 179.52 210.92C179.52 215.178 182.972 218.63 187.23 218.63Z" fill="#A197FC"/>
<path d="M147.7 202.31L147.64 174" stroke="black" stroke-miterlimit="10"/>
<path d="M153.13 192.6L147.77 202.06" stroke="black" stroke-miterlimit="10"/>
<path d="M142.28 192.6L147.65 202.06" stroke="black" stroke-miterlimit="10"/>
<path d="M109.626 192.05V183.121H110.951V184.516H111.067C111.253 184.039 111.554 183.669 111.968 183.406C112.383 183.138 112.881 183.005 113.462 183.005C114.051 183.005 114.542 183.138 114.933 183.406C115.328 183.669 115.637 184.039 115.857 184.516H115.95C116.179 184.055 116.522 183.689 116.979 183.417C117.437 183.142 117.985 183.005 118.624 183.005C119.423 183.005 120.076 183.255 120.584 183.755C121.091 184.251 121.345 185.024 121.345 186.074V192.05H119.973V186.074C119.973 185.415 119.793 184.944 119.433 184.661C119.072 184.379 118.648 184.237 118.159 184.237C117.532 184.237 117.045 184.427 116.7 184.807C116.355 185.183 116.183 185.659 116.183 186.237V192.05H114.788V185.935C114.788 185.427 114.623 185.018 114.294 184.708C113.964 184.394 113.54 184.237 113.021 184.237C112.664 184.237 112.331 184.332 112.021 184.522C111.715 184.712 111.466 184.975 111.277 185.313C111.091 185.646 110.998 186.031 110.998 186.469V192.05H109.626Z" fill="black"/>
<path d="M125.698 189.496V196.26H124.879V190.355H124.839L123.188 191.451V190.619L124.879 189.496H125.698Z" fill="black"/>
<path d="M176.736 194.21V185.281H178.061V186.676H178.177C178.363 186.199 178.664 185.829 179.078 185.566C179.493 185.298 179.991 185.165 180.572 185.165C181.161 185.165 181.652 185.298 182.043 185.566C182.438 185.829 182.746 186.199 182.967 186.676H183.06C183.289 186.215 183.632 185.849 184.089 185.577C184.547 185.302 185.095 185.165 185.734 185.165C186.533 185.165 187.186 185.415 187.694 185.915C188.201 186.411 188.455 187.184 188.455 188.234V194.21H187.083V188.234C187.083 187.575 186.903 187.104 186.543 186.821C186.182 186.538 185.758 186.397 185.269 186.397C184.642 186.397 184.155 186.587 183.81 186.967C183.465 187.343 183.293 187.819 183.293 188.397V194.21H181.898V188.094C181.898 187.587 181.733 187.178 181.404 186.868C181.074 186.554 180.65 186.397 180.131 186.397C179.774 186.397 179.441 186.492 179.131 186.682C178.825 186.872 178.576 187.135 178.387 187.472C178.201 187.806 178.108 188.191 178.108 188.629V194.21H176.736Z" fill="black"/>
<path d="M190.43 198.42V197.826L192.663 195.382C192.925 195.095 193.14 194.847 193.31 194.635C193.479 194.422 193.605 194.221 193.686 194.034C193.77 193.845 193.812 193.647 193.812 193.44C193.812 193.202 193.755 192.996 193.64 192.822C193.528 192.648 193.374 192.514 193.178 192.419C192.982 192.325 192.762 192.277 192.517 192.277C192.258 192.277 192.031 192.331 191.837 192.439C191.645 192.545 191.497 192.693 191.391 192.885C191.288 193.077 191.236 193.301 191.236 193.559H190.457C190.457 193.162 190.548 192.815 190.731 192.515C190.913 192.216 191.162 191.982 191.477 191.815C191.794 191.648 192.15 191.564 192.544 191.564C192.94 191.564 193.291 191.648 193.597 191.815C193.903 191.982 194.143 192.208 194.317 192.492C194.491 192.776 194.578 193.092 194.578 193.44C194.578 193.689 194.533 193.932 194.443 194.17C194.355 194.405 194.201 194.668 193.98 194.959C193.762 195.247 193.46 195.6 193.072 196.016L191.553 197.641V197.693H194.697V198.42H190.43Z" fill="black"/>
<path d="M118.27 222.38C124.494 222.38 129.54 217.334 129.54 211.11C129.54 204.886 124.494 199.84 118.27 199.84C112.046 199.84 107 204.886 107 211.11C107 217.334 112.046 222.38 118.27 222.38Z" stroke="black" stroke-miterlimit="10"/>
<path d="M187.23 218.63C191.488 218.63 194.94 215.178 194.94 210.92C194.94 206.662 191.488 203.21 187.23 203.21C182.972 203.21 179.52 206.662 179.52 210.92C179.52 215.178 182.972 218.63 187.23 218.63Z" stroke="black" stroke-miterlimit="10"/>
<path d="M222.76 67H164.95C162.768 67 161 68.7685 161 70.95V73.24C161 75.4215 162.768 77.19 164.95 77.19H222.76C224.942 77.19 226.71 75.4215 226.71 73.24V70.95C226.71 68.7685 224.942 67 222.76 67Z" stroke="black" stroke-miterlimit="10"/>
<path d="M173.1 77L173.19 128.81" stroke="black" stroke-miterlimit="10"/>
<path d="M193.67 77.2V128.72" stroke="black" stroke-miterlimit="10"/>
<path d="M213.86 77.1001L226.52 126.43" stroke="black" stroke-miterlimit="10"/>
<path d="M173.19 145.58C177.873 145.58 181.67 141.783 181.67 137.1C181.67 132.417 177.873 128.62 173.19 128.62C168.507 128.62 164.71 132.417 164.71 137.1C164.71 141.783 168.507 145.58 173.19 145.58Z" fill="#A197FC"/>
<path d="M193.67 145.58C198.353 145.58 202.15 141.783 202.15 137.1C202.15 132.417 198.353 128.62 193.67 128.62C188.987 128.62 185.19 132.417 185.19 137.1C185.19 141.783 188.987 145.58 193.67 145.58Z" fill="#A197FC"/>
<path d="M226.81 143.29C231.493 143.29 235.29 139.493 235.29 134.81C235.29 130.127 231.493 126.33 226.81 126.33C222.127 126.33 218.33 130.127 218.33 134.81C218.33 139.493 222.127 143.29 226.81 143.29Z" fill="#A197FC"/>
<path d="M227.81 129.24C227.81 129.24 221.24 128.57 221 135.76" stroke="black" stroke-width="0.7" stroke-miterlimit="10"/>
<path d="M173.19 145.58C177.873 145.58 181.67 141.783 181.67 137.1C181.67 132.417 177.873 128.62 173.19 128.62C168.507 128.62 164.71 132.417 164.71 137.1C164.71 141.783 168.507 145.58 173.19 145.58Z" stroke="black" stroke-miterlimit="10"/>
<path d="M193.67 145.58C198.353 145.58 202.15 141.783 202.15 137.1C202.15 132.417 198.353 128.62 193.67 128.62C188.987 128.62 185.19 132.417 185.19 137.1C185.19 141.783 188.987 145.58 193.67 145.58Z" stroke="black" stroke-miterlimit="10"/>
<path d="M226.81 143.29C231.493 143.29 235.29 139.493 235.29 134.81C235.29 130.127 231.493 126.33 226.81 126.33C222.127 126.33 218.33 130.127 218.33 134.81C218.33 139.493 222.127 143.29 226.81 143.29Z" stroke="black" stroke-miterlimit="10"/>
<path d="M96.1369 154.26C104.797 154.26 111.817 133.383 111.817 107.63C111.817 81.877 104.797 61 96.1369 61C87.4771 61 80.4569 81.877 80.4569 107.63C80.4569 133.383 87.4771 154.26 96.1369 154.26Z" stroke="black" stroke-width="0.7" stroke-miterlimit="10"/>
<path d="M104.094 121.133C126.284 108.062 140.709 91.4178 136.314 83.9562C131.919 76.4947 110.367 81.0418 88.1778 94.1124C65.9882 107.183 51.563 123.828 55.9582 131.289C60.3534 138.751 81.9046 134.204 104.094 121.133Z" stroke="black" stroke-width="0.7" stroke-miterlimit="10"/>
<path d="M134.38 134.303C139.335 127.2 126.229 109.498 105.108 94.7634C83.9864 80.0289 62.8476 73.8419 57.8929 80.9442C52.9382 88.0466 66.0439 105.749 87.1653 120.483C108.287 135.218 129.426 141.405 134.38 134.303Z" stroke="black" stroke-width="0.7" stroke-miterlimit="10"/>
<path d="M96.5469 117.4C101.639 117.4 105.767 113.272 105.767 108.18C105.767 103.088 101.639 98.96 96.5469 98.96C91.4548 98.96 87.3269 103.088 87.3269 108.18C87.3269 113.272 91.4548 117.4 96.5469 117.4Z" fill="#A197FC"/>
<path d="M117.457 139.4C119.506 139.4 121.167 137.739 121.167 135.69C121.167 133.641 119.506 131.98 117.457 131.98C115.408 131.98 113.747 133.641 113.747 135.69C113.747 137.739 115.408 139.4 117.457 139.4Z" fill="#A197FC"/>
<path d="M63.5269 117.12C65.5759 117.12 67.2369 115.459 67.2369 113.41C67.2369 111.361 65.5759 109.7 63.5269 109.7C61.4779 109.7 59.8169 111.361 59.8169 113.41C59.8169 115.459 61.4779 117.12 63.5269 117.12Z" fill="#A197FC"/>
<path d="M106.797 76.19C108.846 76.19 110.507 74.529 110.507 72.48C110.507 70.4311 108.846 68.77 106.797 68.77C104.748 68.77 103.087 70.4311 103.087 72.48C103.087 74.529 104.748 76.19 106.797 76.19Z" fill="#A197FC"/>
<path d="M117.457 139.4C119.506 139.4 121.167 137.739 121.167 135.69C121.167 133.641 119.506 131.98 117.457 131.98C115.408 131.98 113.747 133.641 113.747 135.69C113.747 137.739 115.408 139.4 117.457 139.4Z" fill="#A197FC"/>
<path d="M96.5469 117.4C101.639 117.4 105.767 113.272 105.767 108.18C105.767 103.088 101.639 98.96 96.5469 98.96C91.4548 98.96 87.3269 103.088 87.3269 108.18C87.3269 113.272 91.4548 117.4 96.5469 117.4Z" stroke="black" stroke-miterlimit="10"/>
<path d="M63.5269 117.12C65.5759 117.12 67.2369 115.459 67.2369 113.41C67.2369 111.361 65.5759 109.7 63.5269 109.7C61.4779 109.7 59.8169 111.361 59.8169 113.41C59.8169 115.459 61.4779 117.12 63.5269 117.12Z" stroke="black" stroke-miterlimit="10"/>
<path d="M106.797 76.19C108.846 76.19 110.507 74.529 110.507 72.48C110.507 70.4311 108.846 68.77 106.797 68.77C104.748 68.77 103.087 70.4311 103.087 72.48C103.087 74.529 104.748 76.19 106.797 76.19Z" stroke="black" stroke-miterlimit="10"/>
<path d="M117.457 139.4C119.506 139.4 121.167 137.739 121.167 135.69C121.167 133.641 119.506 131.98 117.457 131.98C115.408 131.98 113.747 133.641 113.747 135.69C113.747 137.739 115.408 139.4 117.457 139.4Z" stroke="black" stroke-miterlimit="10"/>
<path d="M63.5269 117.12C65.5759 117.12 67.2369 115.459 67.2369 113.41C67.2369 111.361 65.5759 109.7 63.5269 109.7C61.4779 109.7 59.8169 111.361 59.8169 113.41C59.8169 115.459 61.4779 117.12 63.5269 117.12Z" stroke="black" stroke-miterlimit="10"/>
<path d="M106.797 76.19C108.846 76.19 110.507 74.529 110.507 72.48C110.507 70.4311 108.846 68.77 106.797 68.77C104.748 68.77 103.087 70.4311 103.087 72.48C103.087 74.529 104.748 76.19 106.797 76.19Z" stroke="black" stroke-miterlimit="10"/>
</svg>
