<svg width="1195" height="380" viewBox="0 0 1195 380" fill="none" xmlns="http://www.w3.org/2000/svg">
<path d="M44.955 92.5H49.23L38.7 124H33.975L25.38 98.845L16.785 124H11.97L1.44 92.5H6.075L14.58 118.105L23.445 92.5H27.585L36.27 118.24L44.955 92.5ZM62.518 124.27C55.363 124.27 50.098 119.185 50.098 112.075C50.098 104.965 55.363 99.925 62.518 99.925C69.673 99.925 74.893 104.965 74.893 112.075C74.893 119.185 69.673 124.27 62.518 124.27ZM62.518 120.49C67.108 120.49 70.528 117.16 70.528 112.075C70.528 106.99 67.108 103.705 62.518 103.705C57.928 103.705 54.463 106.99 54.463 112.075C54.463 117.16 57.928 120.49 62.518 120.49ZM85.0075 104.155C86.5375 101.365 89.5075 99.925 93.6925 99.925V104.11C93.3325 104.065 93.0175 104.065 92.7025 104.065C88.0675 104.065 85.1875 106.9 85.1875 112.12V124H80.8675V100.15H85.0075V104.155ZM99.0169 124V90.61H103.337V124H99.0169ZM129.765 90.61H134.085V124H129.945V120.22C128.01 122.92 124.95 124.27 121.44 124.27C114.465 124.27 109.38 119.365 109.38 112.075C109.38 104.785 114.465 99.925 121.44 99.925C124.815 99.925 127.785 101.185 129.765 103.75V90.61ZM121.8 120.49C126.345 120.49 129.81 117.16 129.81 112.075C129.81 106.99 126.345 103.705 121.8 103.705C117.21 103.705 113.745 106.99 113.745 112.075C113.745 117.16 117.21 120.49 121.8 120.49ZM166.989 99.925C173.964 99.925 179.049 104.785 179.049 112.075C179.049 119.365 173.964 124.27 166.989 124.27C163.479 124.27 160.419 122.92 158.484 120.22V124H154.344V90.61H158.664V103.75C160.644 101.185 163.614 99.925 166.989 99.925ZM166.629 120.49C171.219 120.49 174.684 117.16 174.684 112.075C174.684 106.99 171.219 103.705 166.629 103.705C162.084 103.705 158.619 106.99 158.619 112.075C158.619 117.16 162.084 120.49 166.629 120.49ZM206.573 112.21C206.573 112.57 206.528 113.11 206.483 113.515H187.133C187.673 117.7 191.048 120.49 195.773 120.49C198.563 120.49 200.903 119.545 202.658 117.61L205.043 120.4C202.883 122.92 199.598 124.27 195.638 124.27C187.943 124.27 182.813 119.185 182.813 112.075C182.813 105.01 187.898 99.925 194.783 99.925C201.668 99.925 206.573 104.875 206.573 112.21ZM194.783 103.57C190.643 103.57 187.583 106.36 187.133 110.41H202.433C201.983 106.405 198.968 103.57 194.783 103.57ZM219.412 124.27C215.452 124.27 211.537 123.055 209.557 121.48L211.357 118.06C213.382 119.5 216.622 120.535 219.727 120.535C223.732 120.535 225.397 119.32 225.397 117.295C225.397 111.94 210.322 116.575 210.322 107.08C210.322 102.805 214.147 99.925 220.267 99.925C223.372 99.925 226.882 100.735 228.952 102.085L227.107 105.505C224.947 104.11 222.562 103.615 220.222 103.615C216.442 103.615 214.597 105.01 214.597 106.9C214.597 112.525 229.717 107.935 229.717 117.205C229.717 121.525 225.757 124.27 219.412 124.27ZM247.176 119.5L248.526 122.605C247.221 123.73 245.241 124.27 243.306 124.27C238.491 124.27 235.746 121.615 235.746 116.8V103.705H231.696V100.15H235.746V94.93H240.066V100.15H246.906V103.705H240.066V116.62C240.066 119.185 241.416 120.625 243.801 120.625C245.061 120.625 246.276 120.22 247.176 119.5ZM6.255 145.56C4.59 145.56 3.33 144.345 3.33 142.77C3.33 141.195 4.59 139.935 6.255 139.935C7.92 139.935 9.18 141.15 9.18 142.68C9.18 144.3 7.965 145.56 6.255 145.56ZM4.095 174V150.15H8.415V174H4.095ZM29.3984 149.925C35.2034 149.925 39.2984 153.255 39.2984 160.275V174H34.9784V160.77C34.9784 156.09 32.6384 153.795 28.5434 153.795C23.9534 153.795 20.9834 156.54 20.9834 161.715V174H16.6634V150.15H20.8034V153.75C22.5584 151.32 25.6184 149.925 29.3984 149.925ZM69.5932 174.27C62.4382 174.27 57.1732 169.185 57.1732 162.075C57.1732 154.965 62.4382 149.925 69.5932 149.925C76.7482 149.925 81.9682 154.965 81.9682 162.075C81.9682 169.185 76.7482 174.27 69.5932 174.27ZM69.5932 170.49C74.1832 170.49 77.6032 167.16 77.6032 162.075C77.6032 156.99 74.1832 153.705 69.5932 153.705C65.0032 153.705 61.5382 156.99 61.5382 162.075C61.5382 167.16 65.0032 170.49 69.5932 170.49ZM100.678 149.925C106.483 149.925 110.578 153.255 110.578 160.275V174H106.258V160.77C106.258 156.09 103.918 153.795 99.8227 153.795C95.2327 153.795 92.2627 156.54 92.2627 161.715V174H87.9427V150.15H92.0827V153.75C93.8377 151.32 96.8977 149.925 100.678 149.925ZM140.259 162.21C140.259 162.57 140.214 163.11 140.169 163.515H120.819C121.359 167.7 124.734 170.49 129.459 170.49C132.249 170.49 134.589 169.545 136.344 167.61L138.729 170.4C136.569 172.92 133.284 174.27 129.324 174.27C121.629 174.27 116.499 169.185 116.499 162.075C116.499 155.01 121.584 149.925 128.469 149.925C135.354 149.925 140.259 154.875 140.259 162.21ZM128.469 153.57C124.329 153.57 121.269 156.36 120.819 160.41H136.119C135.669 156.405 132.654 153.57 128.469 153.57ZM170.988 149.925C177.963 149.925 183.048 154.785 183.048 162.075C183.048 169.41 177.963 174.27 170.988 174.27C167.613 174.27 164.643 172.965 162.663 170.4V182.73H158.343V150.15H162.483V153.93C164.418 151.275 167.478 149.925 170.988 149.925ZM170.628 170.49C175.218 170.49 178.683 167.16 178.683 162.075C178.683 157.035 175.218 153.705 170.628 153.705C166.083 153.705 162.618 157.035 162.618 162.075C162.618 167.16 166.083 170.49 170.628 170.49ZM189.017 174V140.61H193.337V174H189.017ZM210.27 149.925C216.795 149.925 220.485 153.075 220.485 159.6V174H216.39V170.85C214.95 173.01 212.295 174.27 208.56 174.27C203.16 174.27 199.74 171.39 199.74 167.25C199.74 163.425 202.215 160.275 209.325 160.275H216.165V159.42C216.165 155.775 214.05 153.66 209.775 153.66C206.94 153.66 204.06 154.65 202.215 156.225L200.415 152.985C202.89 151.005 206.445 149.925 210.27 149.925ZM209.28 170.94C212.52 170.94 215.085 169.455 216.165 166.71V163.38H209.505C205.23 163.38 204.015 165.045 204.015 167.07C204.015 169.455 205.995 170.94 209.28 170.94ZM239.007 174.27C231.672 174.27 226.407 169.185 226.407 162.075C226.407 154.965 231.672 149.925 239.007 149.925C243.282 149.925 246.837 151.68 248.727 155.01L245.442 157.125C243.912 154.785 241.572 153.705 238.962 153.705C234.282 153.705 230.772 156.99 230.772 162.075C230.772 167.25 234.282 170.49 238.962 170.49C241.572 170.49 243.912 169.41 245.442 167.07L248.727 169.14C246.837 172.47 243.282 174.27 239.007 174.27ZM275.523 162.21C275.523 162.57 275.478 163.11 275.433 163.515H256.083C256.623 167.7 259.998 170.49 264.723 170.49C267.513 170.49 269.853 169.545 271.608 167.61L273.993 170.4C271.833 172.92 268.548 174.27 264.588 174.27C256.893 174.27 251.763 169.185 251.763 162.075C251.763 155.01 256.848 149.925 263.733 149.925C270.618 149.925 275.523 154.875 275.523 162.21ZM263.733 153.57C259.593 153.57 256.533 156.36 256.083 160.41H271.383C270.933 156.405 267.918 153.57 263.733 153.57Z" fill="black"/>
<path d="M276.228 124.27C268.893 124.27 263.628 119.185 263.628 112.075C263.628 104.965 268.893 99.925 276.228 99.925C280.503 99.925 284.058 101.68 285.948 105.01L282.663 107.125C281.133 104.785 278.793 103.705 276.183 103.705C271.503 103.705 267.993 106.99 267.993 112.075C267.993 117.25 271.503 120.49 276.183 120.49C278.793 120.49 281.133 119.41 282.663 117.07L285.948 119.14C284.058 122.47 280.503 124.27 276.228 124.27ZM301.405 124.27C294.25 124.27 288.985 119.185 288.985 112.075C288.985 104.965 294.25 99.925 301.405 99.925C308.56 99.925 313.78 104.965 313.78 112.075C313.78 119.185 308.56 124.27 301.405 124.27ZM301.405 120.49C305.995 120.49 309.415 117.16 309.415 112.075C309.415 106.99 305.995 103.705 301.405 103.705C296.815 103.705 293.35 106.99 293.35 112.075C293.35 117.16 296.815 120.49 301.405 120.49ZM337.664 100.15H341.984V124H337.889V120.4C336.134 122.875 333.164 124.27 329.789 124.27C323.624 124.27 319.529 120.895 319.529 113.875V100.15H323.849V113.38C323.849 118.06 326.189 120.4 330.284 120.4C334.784 120.4 337.664 117.61 337.664 112.48V100.15ZM354.348 104.155C355.878 101.365 358.848 99.925 363.033 99.925V104.11C362.673 104.065 362.358 104.065 362.043 104.065C357.408 104.065 354.528 106.9 354.528 112.12V124H350.208V100.15H354.348V104.155ZM375.373 124.27C371.413 124.27 367.498 123.055 365.518 121.48L367.318 118.06C369.343 119.5 372.583 120.535 375.688 120.535C379.693 120.535 381.358 119.32 381.358 117.295C381.358 111.94 366.283 116.575 366.283 107.08C366.283 102.805 370.108 99.925 376.228 99.925C379.333 99.925 382.843 100.735 384.913 102.085L383.068 105.505C380.908 104.11 378.523 103.615 376.183 103.615C372.403 103.615 370.558 105.01 370.558 106.9C370.558 112.525 385.678 107.935 385.678 117.205C385.678 121.525 381.718 124.27 375.373 124.27ZM412.632 112.21C412.632 112.57 412.587 113.11 412.542 113.515H393.192C393.732 117.7 397.107 120.49 401.832 120.49C404.622 120.49 406.962 119.545 408.717 117.61L411.102 120.4C408.942 122.92 405.657 124.27 401.697 124.27C394.002 124.27 388.872 119.185 388.872 112.075C388.872 105.01 393.957 99.925 400.842 99.925C407.727 99.925 412.632 104.875 412.632 112.21ZM400.842 103.57C396.702 103.57 393.642 106.36 393.192 110.41H408.492C408.042 106.405 405.027 103.57 400.842 103.57ZM425.471 124.27C421.511 124.27 417.596 123.055 415.616 121.48L417.416 118.06C419.441 119.5 422.681 120.535 425.786 120.535C429.791 120.535 431.456 119.32 431.456 117.295C431.456 111.94 416.381 116.575 416.381 107.08C416.381 102.805 420.206 99.925 426.326 99.925C429.431 99.925 432.941 100.735 435.011 102.085L433.166 105.505C431.006 104.11 428.621 103.615 426.281 103.615C422.501 103.615 420.656 105.01 420.656 106.9C420.656 112.525 435.776 107.935 435.776 117.205C435.776 121.525 431.816 124.27 425.471 124.27Z" fill="#00A9FF"/>
<path d="M9.105 222.5H10.605V233H9.375L3.075 225.17V233H1.575V222.5H2.805L9.105 230.33V222.5ZM16.9429 233.09C14.5579 233.09 12.8029 231.395 12.8029 229.025C12.8029 226.655 14.5579 224.975 16.9429 224.975C19.3279 224.975 21.0679 226.655 21.0679 229.025C21.0679 231.395 19.3279 233.09 16.9429 233.09ZM16.9429 231.83C18.4729 231.83 19.6129 230.72 19.6129 229.025C19.6129 227.33 18.4729 226.235 16.9429 226.235C15.4129 226.235 14.2579 227.33 14.2579 229.025C14.2579 230.72 15.4129 231.83 16.9429 231.83ZM27.0793 231.5L27.5293 232.535C27.0943 232.91 26.4343 233.09 25.7893 233.09C24.1843 233.09 23.2693 232.205 23.2693 230.6V226.235H21.9193V225.05H23.2693V223.31H24.7093V225.05H26.9893V226.235H24.7093V230.54C24.7093 231.395 25.1593 231.875 25.9543 231.875C26.3743 231.875 26.7793 231.74 27.0793 231.5ZM36.1916 229.07C36.1916 229.19 36.1766 229.37 36.1616 229.505H29.7116C29.8916 230.9 31.0166 231.83 32.5916 231.83C33.5216 231.83 34.3016 231.515 34.8866 230.87L35.6816 231.8C34.9616 232.64 33.8666 233.09 32.5466 233.09C29.9816 233.09 28.2716 231.395 28.2716 229.025C28.2716 226.67 29.9666 224.975 32.2616 224.975C34.5566 224.975 36.1916 226.625 36.1916 229.07ZM32.2616 226.19C30.8816 226.19 29.8616 227.12 29.7116 228.47H34.8116C34.6616 227.135 33.6566 226.19 32.2616 226.19ZM37.8277 229.505V228.26H41.8627V229.505H37.8277ZM48.2463 231.5L48.6963 232.535C48.2613 232.91 47.6013 233.09 46.9563 233.09C45.3513 233.09 44.4363 232.205 44.4363 230.6V226.235H43.0863V225.05H44.4363V223.31H45.8763V225.05H48.1563V226.235H45.8763V230.54C45.8763 231.395 46.3263 231.875 47.1213 231.875C47.5413 231.875 47.9463 231.74 48.2463 231.5ZM53.3323 224.975C55.5073 224.975 56.7373 226.025 56.7373 228.2V233H55.3723V231.95C54.8923 232.67 54.0073 233.09 52.7623 233.09C50.9623 233.09 49.8223 232.13 49.8223 230.75C49.8223 229.475 50.6473 228.425 53.0173 228.425H55.2973V228.14C55.2973 226.925 54.5923 226.22 53.1673 226.22C52.2223 226.22 51.2623 226.55 50.6473 227.075L50.0473 225.995C50.8723 225.335 52.0573 224.975 53.3323 224.975ZM53.0023 231.98C54.0823 231.98 54.9373 231.485 55.2973 230.57V229.46H53.0773C51.6523 229.46 51.2473 230.015 51.2473 230.69C51.2473 231.485 51.9073 231.98 53.0023 231.98ZM65.4771 233L62.4921 229.295L60.8421 230.825V233H59.4021V221.87H60.8421V229.01L65.1771 225.05H66.9171L63.5721 228.335L67.2471 233H65.4771ZM69.2627 223.52C68.7077 223.52 68.2877 223.115 68.2877 222.59C68.2877 222.065 68.7077 221.645 69.2627 221.645C69.8177 221.645 70.2377 222.05 70.2377 222.56C70.2377 223.1 69.8327 223.52 69.2627 223.52ZM68.5427 233V225.05H69.9827V233H68.5427ZM76.9772 224.975C78.9122 224.975 80.2772 226.085 80.2772 228.425V233H78.8372V228.59C78.8372 227.03 78.0572 226.265 76.6922 226.265C75.1622 226.265 74.1722 227.18 74.1722 228.905V233H72.7322V225.05H74.1122V226.25C74.6972 225.44 75.7172 224.975 76.9772 224.975ZM89.2261 225.05H90.5911V231.92C90.5911 234.725 89.1661 236 86.4661 236C85.0111 236 83.5411 235.595 82.6711 234.815L83.3611 233.705C84.0961 234.335 85.2511 234.74 86.4211 234.74C88.2961 234.74 89.1511 233.87 89.1511 232.07V231.44C88.4611 232.265 87.4261 232.67 86.2861 232.67C83.9911 232.67 82.2511 231.11 82.2511 228.815C82.2511 226.52 83.9911 224.975 86.2861 224.975C87.4711 224.975 88.5511 225.41 89.2261 226.28V225.05ZM86.4511 231.41C88.0411 231.41 89.1811 230.345 89.1811 228.815C89.1811 227.27 88.0411 226.235 86.4511 226.235C84.8461 226.235 83.7061 227.27 83.7061 228.815C83.7061 230.345 84.8461 231.41 86.4511 231.41ZM98.0909 223.52C97.5359 223.52 97.1159 223.115 97.1159 222.59C97.1159 222.065 97.5359 221.645 98.0909 221.645C98.6459 221.645 99.0659 222.05 99.0659 222.56C99.0659 223.1 98.6609 223.52 98.0909 223.52ZM97.3709 233V225.05H98.8109V233H97.3709ZM103.84 233.09C102.52 233.09 101.215 232.685 100.555 232.16L101.155 231.02C101.83 231.5 102.91 231.845 103.945 231.845C105.28 231.845 105.835 231.44 105.835 230.765C105.835 228.98 100.81 230.525 100.81 227.36C100.81 225.935 102.085 224.975 104.125 224.975C105.16 224.975 106.33 225.245 107.02 225.695L106.405 226.835C105.685 226.37 104.89 226.205 104.11 226.205C102.85 226.205 102.235 226.67 102.235 227.3C102.235 229.175 107.275 227.645 107.275 230.735C107.275 232.175 105.955 233.09 103.84 233.09ZM117.123 231.5L117.573 232.535C117.138 232.91 116.478 233.09 115.833 233.09C114.228 233.09 113.313 232.205 113.313 230.6V226.235H111.963V225.05H113.313V223.31H114.753V225.05H117.033V226.235H114.753V230.54C114.753 231.395 115.203 231.875 115.998 231.875C116.418 231.875 116.823 231.74 117.123 231.5ZM123.559 224.975C125.494 224.975 126.859 226.085 126.859 228.425V233H125.419V228.59C125.419 227.03 124.639 226.265 123.274 226.265C121.744 226.265 120.754 227.18 120.754 228.905V233H119.314V221.87H120.754V226.175C121.354 225.41 122.344 224.975 123.559 224.975ZM136.753 229.07C136.753 229.19 136.738 229.37 136.723 229.505H130.273C130.453 230.9 131.578 231.83 133.153 231.83C134.083 231.83 134.863 231.515 135.448 230.87L136.243 231.8C135.523 232.64 134.428 233.09 133.108 233.09C130.543 233.09 128.833 231.395 128.833 229.025C128.833 226.67 130.528 224.975 132.823 224.975C135.118 224.975 136.753 226.625 136.753 229.07ZM132.823 226.19C131.443 226.19 130.423 227.12 130.273 228.47H135.373C135.223 227.135 134.218 226.19 132.823 226.19ZM146.996 224.975C149.321 224.975 151.016 226.595 151.016 229.025C151.016 231.455 149.321 233.09 146.996 233.09C145.826 233.09 144.806 232.64 144.161 231.74V233H142.781V221.87H144.221V226.25C144.881 225.395 145.871 224.975 146.996 224.975ZM146.876 231.83C148.406 231.83 149.561 230.72 149.561 229.025C149.561 227.33 148.406 226.235 146.876 226.235C145.361 226.235 144.206 227.33 144.206 229.025C144.206 230.72 145.361 231.83 146.876 231.83ZM154.386 226.385C154.896 225.455 155.886 224.975 157.281 224.975V226.37C157.161 226.355 157.056 226.355 156.951 226.355C155.406 226.355 154.446 227.3 154.446 229.04V233H153.006V225.05H154.386V226.385ZM159.775 223.52C159.22 223.52 158.8 223.115 158.8 222.59C158.8 222.065 159.22 221.645 159.775 221.645C160.33 221.645 160.75 222.05 160.75 222.56C160.75 223.1 160.345 223.52 159.775 223.52ZM159.055 233V225.05H160.495V233H159.055ZM169.305 221.87H170.745V233H169.365V231.74C168.72 232.64 167.7 233.09 166.53 233.09C164.205 233.09 162.51 231.455 162.51 229.025C162.51 226.595 164.205 224.975 166.53 224.975C167.655 224.975 168.645 225.395 169.305 226.25V221.87ZM166.65 231.83C168.165 231.83 169.32 230.72 169.32 229.025C169.32 227.33 168.165 226.235 166.65 226.235C165.12 226.235 163.965 227.33 163.965 229.025C163.965 230.72 165.12 231.83 166.65 231.83ZM179.709 225.05H181.074V231.92C181.074 234.725 179.649 236 176.949 236C175.494 236 174.024 235.595 173.154 234.815L173.844 233.705C174.579 234.335 175.734 234.74 176.904 234.74C178.779 234.74 179.634 233.87 179.634 232.07V231.44C178.944 232.265 177.909 232.67 176.769 232.67C174.474 232.67 172.734 231.11 172.734 228.815C172.734 226.52 174.474 224.975 176.769 224.975C177.954 224.975 179.034 225.41 179.709 226.28V225.05ZM176.934 231.41C178.524 231.41 179.664 230.345 179.664 228.815C179.664 227.27 178.524 226.235 176.934 226.235C175.329 226.235 174.189 227.27 174.189 228.815C174.189 230.345 175.329 231.41 176.934 231.41ZM191.011 229.07C191.011 229.19 190.996 229.37 190.981 229.505H184.531C184.711 230.9 185.836 231.83 187.411 231.83C188.341 231.83 189.121 231.515 189.706 230.87L190.501 231.8C189.781 232.64 188.686 233.09 187.366 233.09C184.801 233.09 183.091 231.395 183.091 229.025C183.091 226.67 184.786 224.975 187.081 224.975C189.376 224.975 191.011 226.625 191.011 229.07ZM187.081 226.19C185.701 226.19 184.681 227.12 184.531 228.47H189.631C189.481 227.135 188.476 226.19 187.081 226.19ZM201.254 224.975C203.579 224.975 205.274 226.595 205.274 229.025C205.274 231.455 203.579 233.09 201.254 233.09C200.084 233.09 199.064 232.64 198.419 231.74V233H197.039V221.87H198.479V226.25C199.139 225.395 200.129 224.975 201.254 224.975ZM201.134 231.83C202.664 231.83 203.819 230.72 203.819 229.025C203.819 227.33 202.664 226.235 201.134 226.235C199.619 226.235 198.464 227.33 198.464 229.025C198.464 230.72 199.619 231.83 201.134 231.83ZM214.448 229.07C214.448 229.19 214.433 229.37 214.418 229.505H207.968C208.148 230.9 209.273 231.83 210.848 231.83C211.778 231.83 212.558 231.515 213.143 230.87L213.938 231.8C213.218 232.64 212.123 233.09 210.803 233.09C208.238 233.09 206.528 231.395 206.528 229.025C206.528 226.67 208.223 224.975 210.518 224.975C212.813 224.975 214.448 226.625 214.448 229.07ZM210.518 226.19C209.138 226.19 208.118 227.12 207.968 228.47H213.068C212.918 227.135 211.913 226.19 210.518 226.19ZM220.468 231.5L220.918 232.535C220.483 232.91 219.823 233.09 219.178 233.09C217.573 233.09 216.658 232.205 216.658 230.6V226.235H215.308V225.05H216.658V223.31H218.098V225.05H220.378V226.235H218.098V230.54C218.098 231.395 218.548 231.875 219.343 231.875C219.763 231.875 220.168 231.74 220.468 231.5ZM233.252 225.05H234.542L231.572 233H230.192L227.897 226.97L225.572 233H224.192L221.237 225.05H222.602L224.912 231.38L227.312 225.05H228.527L230.882 231.41L233.252 225.05ZM242.969 229.07C242.969 229.19 242.954 229.37 242.939 229.505H236.489C236.669 230.9 237.794 231.83 239.369 231.83C240.299 231.83 241.079 231.515 241.664 230.87L242.459 231.8C241.739 232.64 240.644 233.09 239.324 233.09C236.759 233.09 235.049 231.395 235.049 229.025C235.049 226.67 236.744 224.975 239.039 224.975C241.334 224.975 242.969 226.625 242.969 229.07ZM239.039 226.19C237.659 226.19 236.639 227.12 236.489 228.47H241.589C241.439 227.135 240.434 226.19 239.039 226.19ZM252.154 229.07C252.154 229.19 252.139 229.37 252.124 229.505H245.674C245.854 230.9 246.979 231.83 248.554 231.83C249.484 231.83 250.264 231.515 250.849 230.87L251.644 231.8C250.924 232.64 249.829 233.09 248.509 233.09C245.944 233.09 244.234 231.395 244.234 229.025C244.234 226.67 245.929 224.975 248.224 224.975C250.519 224.975 252.154 226.625 252.154 229.07ZM248.224 226.19C246.844 226.19 245.824 227.12 245.674 228.47H250.774C250.624 227.135 249.619 226.19 248.224 226.19ZM258.398 224.975C260.333 224.975 261.698 226.085 261.698 228.425V233H260.258V228.59C260.258 227.03 259.478 226.265 258.113 226.265C256.583 226.265 255.593 227.18 255.593 228.905V233H254.153V225.05H255.533V226.25C256.118 225.44 257.138 224.975 258.398 224.975ZM272.636 224.975C274.571 224.975 275.936 226.085 275.936 228.425V233H274.496V228.59C274.496 227.03 273.716 226.265 272.351 226.265C270.821 226.265 269.831 227.18 269.831 228.905V233H268.391V221.87H269.831V226.175C270.431 225.41 271.421 224.975 272.636 224.975ZM285.83 229.07C285.83 229.19 285.815 229.37 285.8 229.505H279.35C279.53 230.9 280.655 231.83 282.23 231.83C283.16 231.83 283.94 231.515 284.525 230.87L285.32 231.8C284.6 232.64 283.505 233.09 282.185 233.09C279.62 233.09 277.91 231.395 277.91 229.025C277.91 226.67 279.605 224.975 281.9 224.975C284.195 224.975 285.83 226.625 285.83 229.07ZM281.9 226.19C280.52 226.19 279.5 227.12 279.35 228.47H284.45C284.3 227.135 283.295 226.19 281.9 226.19ZM290.505 224.975C292.68 224.975 293.91 226.025 293.91 228.2V233H292.545V231.95C292.065 232.67 291.18 233.09 289.935 233.09C288.135 233.09 286.995 232.13 286.995 230.75C286.995 229.475 287.82 228.425 290.19 228.425H292.47V228.14C292.47 226.925 291.765 226.22 290.34 226.22C289.395 226.22 288.435 226.55 287.82 227.075L287.22 225.995C288.045 225.335 289.23 224.975 290.505 224.975ZM290.175 231.98C291.255 231.98 292.11 231.485 292.47 230.57V229.46H290.25C288.825 229.46 288.42 230.015 288.42 230.69C288.42 231.485 289.08 231.98 290.175 231.98ZM297.955 226.385C298.465 225.455 299.455 224.975 300.85 224.975V226.37C300.73 226.355 300.625 226.355 300.52 226.355C298.975 226.355 298.015 227.3 298.015 229.04V233H296.575V225.05H297.955V226.385ZM303.345 223.52C302.79 223.52 302.37 223.115 302.37 222.59C302.37 222.065 302.79 221.645 303.345 221.645C303.9 221.645 304.32 222.05 304.32 222.56C304.32 223.1 303.915 223.52 303.345 223.52ZM302.625 233V225.05H304.065V233H302.625ZM311.059 224.975C312.994 224.975 314.359 226.085 314.359 228.425V233H312.919V228.59C312.919 227.03 312.139 226.265 310.774 226.265C309.244 226.265 308.254 227.18 308.254 228.905V233H306.814V225.05H308.194V226.25C308.779 225.44 309.799 224.975 311.059 224.975ZM323.308 225.05H324.673V231.92C324.673 234.725 323.248 236 320.548 236C319.093 236 317.623 235.595 316.753 234.815L317.443 233.705C318.178 234.335 319.333 234.74 320.503 234.74C322.378 234.74 323.233 233.87 323.233 232.07V231.44C322.543 232.265 321.508 232.67 320.368 232.67C318.073 232.67 316.333 231.11 316.333 228.815C316.333 226.52 318.073 224.975 320.368 224.975C321.553 224.975 322.633 225.41 323.308 226.28V225.05ZM320.533 231.41C322.123 231.41 323.263 230.345 323.263 228.815C323.263 227.27 322.123 226.235 320.533 226.235C318.928 226.235 317.788 227.27 317.788 228.815C317.788 230.345 318.928 231.41 320.533 231.41ZM334.348 224.975C336.523 224.975 337.753 226.025 337.753 228.2V233H336.388V231.95C335.908 232.67 335.023 233.09 333.778 233.09C331.978 233.09 330.838 232.13 330.838 230.75C330.838 229.475 331.663 228.425 334.033 228.425H336.313V228.14C336.313 226.925 335.608 226.22 334.183 226.22C333.238 226.22 332.278 226.55 331.663 227.075L331.063 225.995C331.888 225.335 333.073 224.975 334.348 224.975ZM334.018 231.98C335.098 231.98 335.953 231.485 336.313 230.57V229.46H334.093C332.668 229.46 332.263 230.015 332.263 230.69C332.263 231.485 332.923 231.98 334.018 231.98ZM344.663 224.975C346.598 224.975 347.963 226.085 347.963 228.425V233H346.523V228.59C346.523 227.03 345.743 226.265 344.378 226.265C342.848 226.265 341.858 227.18 341.858 228.905V233H340.418V225.05H341.798V226.25C342.383 225.44 343.403 224.975 344.663 224.975ZM356.732 221.87H358.172V233H356.792V231.74C356.147 232.64 355.127 233.09 353.957 233.09C351.632 233.09 349.937 231.455 349.937 229.025C349.937 226.595 351.632 224.975 353.957 224.975C355.082 224.975 356.072 225.395 356.732 226.25V221.87ZM354.077 231.83C355.592 231.83 356.747 230.72 356.747 229.025C356.747 227.33 355.592 226.235 354.077 226.235C352.547 226.235 351.392 227.33 351.392 229.025C351.392 230.72 352.547 231.83 354.077 231.83ZM370.895 225.05H372.335V233H370.97V231.8C370.385 232.625 369.395 233.09 368.27 233.09C366.215 233.09 364.85 231.965 364.85 229.625V225.05H366.29V229.46C366.29 231.02 367.07 231.8 368.435 231.8C369.935 231.8 370.895 230.87 370.895 229.16V225.05ZM379.321 224.975C381.256 224.975 382.621 226.085 382.621 228.425V233H381.181V228.59C381.181 227.03 380.401 226.265 379.036 226.265C377.506 226.265 376.516 227.18 376.516 228.905V233H375.076V225.05H376.456V226.25C377.041 225.44 378.061 224.975 379.321 224.975ZM391.39 221.87H392.83V233H391.45V231.74C390.805 232.64 389.785 233.09 388.615 233.09C386.29 233.09 384.595 231.455 384.595 229.025C384.595 226.595 386.29 224.975 388.615 224.975C389.74 224.975 390.73 225.395 391.39 226.25V221.87ZM388.735 231.83C390.25 231.83 391.405 230.72 391.405 229.025C391.405 227.33 390.25 226.235 388.735 226.235C387.205 226.235 386.05 227.33 386.05 229.025C386.05 230.72 387.205 231.83 388.735 231.83ZM402.739 229.07C402.739 229.19 402.724 229.37 402.709 229.505H396.259C396.439 230.9 397.564 231.83 399.139 231.83C400.069 231.83 400.849 231.515 401.434 230.87L402.229 231.8C401.509 232.64 400.414 233.09 399.094 233.09C396.529 233.09 394.819 231.395 394.819 229.025C394.819 226.67 396.514 224.975 398.809 224.975C401.104 224.975 402.739 226.625 402.739 229.07ZM398.809 226.19C397.429 226.19 396.409 227.12 396.259 228.47H401.359C401.209 227.135 400.204 226.19 398.809 226.19ZM406.119 226.385C406.629 225.455 407.619 224.975 409.014 224.975V226.37C408.894 226.355 408.789 226.355 408.684 226.355C407.139 226.355 406.179 227.3 406.179 229.04V233H404.739V225.05H406.119V226.385ZM413.127 233.09C411.807 233.09 410.502 232.685 409.842 232.16L410.442 231.02C411.117 231.5 412.197 231.845 413.232 231.845C414.567 231.845 415.122 231.44 415.122 230.765C415.122 228.98 410.097 230.525 410.097 227.36C410.097 225.935 411.372 224.975 413.412 224.975C414.447 224.975 415.617 225.245 416.307 225.695L415.692 226.835C414.972 226.37 414.177 226.205 413.397 226.205C412.137 226.205 411.522 226.67 411.522 227.3C411.522 229.175 416.562 227.645 416.562 230.735C416.562 232.175 415.242 233.09 413.127 233.09ZM422.382 231.5L422.832 232.535C422.397 232.91 421.737 233.09 421.092 233.09C419.487 233.09 418.572 232.205 418.572 230.6V226.235H417.222V225.05H418.572V223.31H420.012V225.05H422.292V226.235H420.012V230.54C420.012 231.395 420.462 231.875 421.257 231.875C421.677 231.875 422.082 231.74 422.382 231.5ZM427.468 224.975C429.643 224.975 430.873 226.025 430.873 228.2V233H429.508V231.95C429.028 232.67 428.143 233.09 426.898 233.09C425.098 233.09 423.958 232.13 423.958 230.75C423.958 229.475 424.783 228.425 427.153 228.425H429.433V228.14C429.433 226.925 428.728 226.22 427.303 226.22C426.358 226.22 425.398 226.55 424.783 227.075L424.183 225.995C425.008 225.335 426.193 224.975 427.468 224.975ZM427.138 231.98C428.218 231.98 429.073 231.485 429.433 230.57V229.46H427.213C425.788 229.46 425.383 230.015 425.383 230.69C425.383 231.485 426.043 231.98 427.138 231.98ZM437.783 224.975C439.718 224.975 441.083 226.085 441.083 228.425V233H439.643V228.59C439.643 227.03 438.863 226.265 437.498 226.265C435.968 226.265 434.978 227.18 434.978 228.905V233H433.538V225.05H434.918V226.25C435.503 225.44 436.523 224.975 437.783 224.975ZM449.852 221.87H451.292V233H449.912V231.74C449.267 232.64 448.247 233.09 447.077 233.09C444.752 233.09 443.057 231.455 443.057 229.025C443.057 226.595 444.752 224.975 447.077 224.975C448.202 224.975 449.192 225.395 449.852 226.25V221.87ZM447.197 231.83C448.712 231.83 449.867 230.72 449.867 229.025C449.867 227.33 448.712 226.235 447.197 226.235C445.667 226.235 444.512 227.33 444.512 229.025C444.512 230.72 445.667 231.83 447.197 231.83ZM454.736 223.52C454.181 223.52 453.761 223.115 453.761 222.59C453.761 222.065 454.181 221.645 454.736 221.645C455.291 221.645 455.711 222.05 455.711 222.56C455.711 223.1 455.306 223.52 454.736 223.52ZM454.016 233V225.05H455.456V233H454.016ZM462.451 224.975C464.386 224.975 465.751 226.085 465.751 228.425V233H464.311V228.59C464.311 227.03 463.531 226.265 462.166 226.265C460.636 226.265 459.646 227.18 459.646 228.905V233H458.206V225.05H459.586V226.25C460.171 225.44 461.191 224.975 462.451 224.975ZM474.7 225.05H476.065V231.92C476.065 234.725 474.64 236 471.94 236C470.485 236 469.015 235.595 468.145 234.815L468.835 233.705C469.57 234.335 470.725 234.74 471.895 234.74C473.77 234.74 474.625 233.87 474.625 232.07V231.44C473.935 232.265 472.9 232.67 471.76 232.67C469.465 232.67 467.725 231.11 467.725 228.815C467.725 226.52 469.465 224.975 471.76 224.975C472.945 224.975 474.025 225.41 474.7 226.28V225.05ZM471.925 231.41C473.515 231.41 474.655 230.345 474.655 228.815C474.655 227.27 473.515 226.235 471.925 226.235C470.32 226.235 469.18 227.27 469.18 228.815C469.18 230.345 470.32 231.41 471.925 231.41ZM479.176 231.035C479.746 231.035 480.151 231.47 480.151 232.055C480.151 232.355 480.091 232.58 479.896 233.135L479.191 235.22H478.246L478.801 232.985C478.426 232.85 478.171 232.505 478.171 232.055C478.171 231.455 478.606 231.035 479.176 231.035ZM5.58 251.975C7.905 251.975 9.6 253.595 9.6 256.025C9.6 258.455 7.905 260.09 5.58 260.09C4.41 260.09 3.39 259.64 2.745 258.74V260H1.365V248.87H2.805V253.25C3.465 252.395 4.455 251.975 5.58 251.975ZM5.46 258.83C6.99 258.83 8.145 257.72 8.145 256.025C8.145 254.33 6.99 253.235 5.46 253.235C3.945 253.235 2.79 254.33 2.79 256.025C2.79 257.72 3.945 258.83 5.46 258.83ZM18.7746 256.07C18.7746 256.19 18.7596 256.37 18.7446 256.505H12.2946C12.4746 257.9 13.5996 258.83 15.1746 258.83C16.1046 258.83 16.8846 258.515 17.4696 257.87L18.2646 258.8C17.5446 259.64 16.4496 260.09 15.1296 260.09C12.5646 260.09 10.8546 258.395 10.8546 256.025C10.8546 253.67 12.5496 251.975 14.8446 251.975C17.1396 251.975 18.7746 253.625 18.7746 256.07ZM14.8446 253.19C13.4646 253.19 12.4446 254.12 12.2946 255.47H17.3946C17.2446 254.135 16.2396 253.19 14.8446 253.19ZM24.7942 258.5L25.2442 259.535C24.8092 259.91 24.1492 260.09 23.5042 260.09C21.8992 260.09 20.9842 259.205 20.9842 257.6V253.235H19.6342V252.05H20.9842V250.31H22.4242V252.05H24.7042V253.235H22.4242V257.54C22.4242 258.395 22.8742 258.875 23.6692 258.875C24.0892 258.875 24.4942 258.74 24.7942 258.5ZM37.5786 252.05H38.8686L35.8986 260H34.5186L32.2236 253.97L29.8986 260H28.5186L25.5636 252.05H26.9286L29.2386 258.38L31.6386 252.05H32.8536L35.2086 258.41L37.5786 252.05ZM47.2951 256.07C47.2951 256.19 47.2801 256.37 47.2651 256.505H40.8151C40.9951 257.9 42.1201 258.83 43.6951 258.83C44.6251 258.83 45.4051 258.515 45.9901 257.87L46.7851 258.8C46.0651 259.64 44.9701 260.09 43.6501 260.09C41.0851 260.09 39.3751 258.395 39.3751 256.025C39.3751 253.67 41.0701 251.975 43.3651 251.975C45.6601 251.975 47.2951 253.625 47.2951 256.07ZM43.3651 253.19C41.9851 253.19 40.9651 254.12 40.8151 255.47H45.9151C45.7651 254.135 44.7601 253.19 43.3651 253.19ZM56.4797 256.07C56.4797 256.19 56.4647 256.37 56.4497 256.505H49.9997C50.1797 257.9 51.3047 258.83 52.8797 258.83C53.8097 258.83 54.5897 258.515 55.1747 257.87L55.9697 258.8C55.2497 259.64 54.1547 260.09 52.8347 260.09C50.2697 260.09 48.5597 258.395 48.5597 256.025C48.5597 253.67 50.2547 251.975 52.5497 251.975C54.8447 251.975 56.4797 253.625 56.4797 256.07ZM52.5497 253.19C51.1697 253.19 50.1497 254.12 49.9997 255.47H55.0997C54.9497 254.135 53.9447 253.19 52.5497 253.19ZM62.7243 251.975C64.6593 251.975 66.0243 253.085 66.0243 255.425V260H64.5843V255.59C64.5843 254.03 63.8043 253.265 62.4393 253.265C60.9093 253.265 59.9193 254.18 59.9193 255.905V260H58.4793V252.05H59.8593V253.25C60.4443 252.44 61.4643 251.975 62.7243 251.975ZM74.9975 260.09C73.6775 260.09 72.3725 259.685 71.7125 259.16L72.3125 258.02C72.9875 258.5 74.0675 258.845 75.1025 258.845C76.4375 258.845 76.9925 258.44 76.9925 257.765C76.9925 255.98 71.9675 257.525 71.9675 254.36C71.9675 252.935 73.2425 251.975 75.2825 251.975C76.3175 251.975 77.4875 252.245 78.1775 252.695L77.5625 253.835C76.8425 253.37 76.0475 253.205 75.2675 253.205C74.0075 253.205 73.3925 253.67 73.3925 254.3C73.3925 256.175 78.4325 254.645 78.4325 257.735C78.4325 259.175 77.1125 260.09 74.9975 260.09ZM87.4172 256.07C87.4172 256.19 87.4022 256.37 87.3872 256.505H80.9372C81.1172 257.9 82.2422 258.83 83.8172 258.83C84.7472 258.83 85.5272 258.515 86.1122 257.87L86.9072 258.8C86.1872 259.64 85.0922 260.09 83.7722 260.09C81.2072 260.09 79.4972 258.395 79.4972 256.025C79.4972 253.67 81.1922 251.975 83.4872 251.975C85.7822 251.975 87.4172 253.625 87.4172 256.07ZM83.4872 253.19C82.1072 253.19 81.0872 254.12 80.9372 255.47H86.0372C85.8872 254.135 84.8822 253.19 83.4872 253.19ZM96.6018 256.07C96.6018 256.19 96.5868 256.37 96.5718 256.505H90.1218C90.3018 257.9 91.4268 258.83 93.0018 258.83C93.9318 258.83 94.7118 258.515 95.2968 257.87L96.0918 258.8C95.3718 259.64 94.2768 260.09 92.9568 260.09C90.3918 260.09 88.6818 258.395 88.6818 256.025C88.6818 253.67 90.3768 251.975 92.6718 251.975C94.9668 251.975 96.6018 253.625 96.6018 256.07ZM92.6718 253.19C91.2918 253.19 90.2718 254.12 90.1218 255.47H95.2218C95.0718 254.135 94.0668 253.19 92.6718 253.19ZM99.3213 250.52C98.7663 250.52 98.3463 250.115 98.3463 249.59C98.3463 249.065 98.7663 248.645 99.3213 248.645C99.8763 248.645 100.296 249.05 100.296 249.56C100.296 250.1 99.8913 250.52 99.3213 250.52ZM98.6013 260V252.05H100.041V260H98.6013ZM107.036 251.975C108.971 251.975 110.336 253.085 110.336 255.425V260H108.896V255.59C108.896 254.03 108.116 253.265 106.751 253.265C105.221 253.265 104.231 254.18 104.231 255.905V260H102.791V252.05H104.171V253.25C104.756 252.44 105.776 251.975 107.036 251.975ZM119.285 252.05H120.65V258.92C120.65 261.725 119.225 263 116.525 263C115.07 263 113.6 262.595 112.73 261.815L113.42 260.705C114.155 261.335 115.31 261.74 116.48 261.74C118.355 261.74 119.21 260.87 119.21 259.07V258.44C118.52 259.265 117.485 259.67 116.345 259.67C114.05 259.67 112.31 258.11 112.31 255.815C112.31 253.52 114.05 251.975 116.345 251.975C117.53 251.975 118.61 252.41 119.285 253.28V252.05ZM116.51 258.41C118.1 258.41 119.24 257.345 119.24 255.815C119.24 254.27 118.1 253.235 116.51 253.235C114.905 253.235 113.765 254.27 113.765 255.815C113.765 257.345 114.905 258.41 116.51 258.41ZM130.324 251.975C132.499 251.975 133.729 253.025 133.729 255.2V260H132.364V258.95C131.884 259.67 130.999 260.09 129.754 260.09C127.954 260.09 126.814 259.13 126.814 257.75C126.814 256.475 127.639 255.425 130.009 255.425H132.289V255.14C132.289 253.925 131.584 253.22 130.159 253.22C129.214 253.22 128.254 253.55 127.639 254.075L127.039 252.995C127.864 252.335 129.049 251.975 130.324 251.975ZM129.994 258.98C131.074 258.98 131.929 258.485 132.289 257.57V256.46H130.069C128.644 256.46 128.239 257.015 128.239 257.69C128.239 258.485 128.899 258.98 129.994 258.98ZM140.639 251.975C142.574 251.975 143.939 253.085 143.939 255.425V260H142.499V255.59C142.499 254.03 141.719 253.265 140.354 253.265C138.824 253.265 137.834 254.18 137.834 255.905V260H136.394V252.05H137.774V253.25C138.359 252.44 139.379 251.975 140.639 251.975ZM152.708 248.87H154.148V260H152.768V258.74C152.123 259.64 151.103 260.09 149.933 260.09C147.608 260.09 145.913 258.455 145.913 256.025C145.913 253.595 147.608 251.975 149.933 251.975C151.058 251.975 152.048 252.395 152.708 253.25V248.87ZM150.053 258.83C151.568 258.83 152.723 257.72 152.723 256.025C152.723 254.33 151.568 253.235 150.053 253.235C148.523 253.235 147.368 254.33 147.368 256.025C147.368 257.72 148.523 258.83 150.053 258.83ZM162.281 253.385C162.791 252.455 163.781 251.975 165.176 251.975V253.37C165.056 253.355 164.951 253.355 164.846 253.355C163.301 253.355 162.341 254.3 162.341 256.04V260H160.901V252.05H162.281V253.385ZM174.063 256.07C174.063 256.19 174.048 256.37 174.033 256.505H167.583C167.763 257.9 168.888 258.83 170.463 258.83C171.393 258.83 172.173 258.515 172.758 257.87L173.553 258.8C172.833 259.64 171.738 260.09 170.418 260.09C167.853 260.09 166.143 258.395 166.143 256.025C166.143 253.67 167.838 251.975 170.133 251.975C172.428 251.975 174.063 253.625 174.063 256.07ZM170.133 253.19C168.753 253.19 167.733 254.12 167.583 255.47H172.683C172.533 254.135 171.528 253.19 170.133 253.19ZM186.007 251.975C187.942 251.975 189.262 253.085 189.262 255.425V260H187.822V255.59C187.822 254.03 187.072 253.265 185.767 253.265C184.327 253.265 183.382 254.18 183.382 255.905V260H181.942V255.59C181.942 254.03 181.192 253.265 179.887 253.265C178.447 253.265 177.502 254.18 177.502 255.905V260H176.062V252.05H177.442V253.235C178.012 252.425 178.987 251.975 180.187 251.975C181.402 251.975 182.422 252.455 182.947 253.445C183.547 252.545 184.657 251.975 186.007 251.975ZM199.141 256.07C199.141 256.19 199.126 256.37 199.111 256.505H192.661C192.841 257.9 193.966 258.83 195.541 258.83C196.471 258.83 197.251 258.515 197.836 257.87L198.631 258.8C197.911 259.64 196.816 260.09 195.496 260.09C192.931 260.09 191.221 258.395 191.221 256.025C191.221 253.67 192.916 251.975 195.211 251.975C197.506 251.975 199.141 253.625 199.141 256.07ZM195.211 253.19C193.831 253.19 192.811 254.12 192.661 255.47H197.761C197.611 254.135 196.606 253.19 195.211 253.19ZM211.085 251.975C213.02 251.975 214.34 253.085 214.34 255.425V260H212.9V255.59C212.9 254.03 212.15 253.265 210.845 253.265C209.405 253.265 208.46 254.18 208.46 255.905V260H207.02V255.59C207.02 254.03 206.27 253.265 204.965 253.265C203.525 253.265 202.58 254.18 202.58 255.905V260H201.14V252.05H202.52V253.235C203.09 252.425 204.065 251.975 205.265 251.975C206.48 251.975 207.5 252.455 208.025 253.445C208.625 252.545 209.735 251.975 211.085 251.975ZM221.205 251.975C223.53 251.975 225.225 253.595 225.225 256.025C225.225 258.455 223.53 260.09 221.205 260.09C220.035 260.09 219.015 259.64 218.37 258.74V260H216.99V248.87H218.43V253.25C219.09 252.395 220.08 251.975 221.205 251.975ZM221.085 258.83C222.615 258.83 223.77 257.72 223.77 256.025C223.77 254.33 222.615 253.235 221.085 253.235C219.57 253.235 218.415 254.33 218.415 256.025C218.415 257.72 219.57 258.83 221.085 258.83ZM234.4 256.07C234.4 256.19 234.385 256.37 234.37 256.505H227.92C228.1 257.9 229.225 258.83 230.8 258.83C231.73 258.83 232.51 258.515 233.095 257.87L233.89 258.8C233.17 259.64 232.075 260.09 230.755 260.09C228.19 260.09 226.48 258.395 226.48 256.025C226.48 253.67 228.175 251.975 230.47 251.975C232.765 251.975 234.4 253.625 234.4 256.07ZM230.47 253.19C229.09 253.19 228.07 254.12 227.92 255.47H233.02C232.87 254.135 231.865 253.19 230.47 253.19ZM237.779 253.385C238.289 252.455 239.279 251.975 240.674 251.975V253.37C240.554 253.355 240.449 253.355 240.344 253.355C238.799 253.355 237.839 254.3 237.839 256.04V260H236.399V252.05H237.779V253.385ZM243.169 250.52C242.614 250.52 242.194 250.115 242.194 249.59C242.194 249.065 242.614 248.645 243.169 248.645C243.724 248.645 244.144 249.05 244.144 249.56C244.144 250.1 243.739 250.52 243.169 250.52ZM242.449 260V252.05H243.889V260H242.449ZM250.883 251.975C252.818 251.975 254.183 253.085 254.183 255.425V260H252.743V255.59C252.743 254.03 251.963 253.265 250.598 253.265C249.068 253.265 248.078 254.18 248.078 255.905V260H246.638V252.05H248.018V253.25C248.603 252.44 249.623 251.975 250.883 251.975ZM263.132 252.05H264.497V258.92C264.497 261.725 263.072 263 260.372 263C258.917 263 257.447 262.595 256.577 261.815L257.267 260.705C258.002 261.335 259.157 261.74 260.327 261.74C262.202 261.74 263.057 260.87 263.057 259.07V258.44C262.367 259.265 261.332 259.67 260.192 259.67C257.897 259.67 256.157 258.11 256.157 255.815C256.157 253.52 257.897 251.975 260.192 251.975C261.377 251.975 262.457 252.41 263.132 253.28V252.05ZM260.357 258.41C261.947 258.41 263.087 257.345 263.087 255.815C263.087 254.27 261.947 253.235 260.357 253.235C258.752 253.235 257.612 254.27 257.612 255.815C257.612 257.345 258.752 258.41 260.357 258.41ZM267.594 260.09C267.039 260.09 266.574 259.655 266.574 259.055C266.574 258.455 267.039 258.035 267.594 258.035C268.134 258.035 268.584 258.455 268.584 259.055C268.584 259.655 268.134 260.09 267.594 260.09ZM282.416 249.5H283.916V260H282.686L276.386 252.17V260H274.886V249.5H276.116L282.416 257.33V249.5ZM290.253 260.09C287.868 260.09 286.113 258.395 286.113 256.025C286.113 253.655 287.868 251.975 290.253 251.975C292.638 251.975 294.378 253.655 294.378 256.025C294.378 258.395 292.638 260.09 290.253 260.09ZM290.253 258.83C291.783 258.83 292.923 257.72 292.923 256.025C292.923 254.33 291.783 253.235 290.253 253.235C288.723 253.235 287.568 254.33 287.568 256.025C287.568 257.72 288.723 258.83 290.253 258.83ZM300.39 258.5L300.84 259.535C300.405 259.91 299.745 260.09 299.1 260.09C297.495 260.09 296.58 259.205 296.58 257.6V253.235H295.23V252.05H296.58V250.31H298.02V252.05H300.3V253.235H298.02V257.54C298.02 258.395 298.47 258.875 299.265 258.875C299.685 258.875 300.09 258.74 300.39 258.5ZM309.502 256.07C309.502 256.19 309.487 256.37 309.472 256.505H303.022C303.202 257.9 304.327 258.83 305.902 258.83C306.832 258.83 307.612 258.515 308.197 257.87L308.992 258.8C308.272 259.64 307.177 260.09 305.857 260.09C303.292 260.09 301.582 258.395 301.582 256.025C301.582 253.67 303.277 251.975 305.572 251.975C307.867 251.975 309.502 253.625 309.502 256.07ZM305.572 253.19C304.192 253.19 303.172 254.12 303.022 255.47H308.122C307.972 254.135 306.967 253.19 305.572 253.19ZM313.782 260.09C312.462 260.09 311.157 259.685 310.497 259.16L311.097 258.02C311.772 258.5 312.852 258.845 313.887 258.845C315.222 258.845 315.777 258.44 315.777 257.765C315.777 255.98 310.752 257.525 310.752 254.36C310.752 252.935 312.027 251.975 314.067 251.975C315.102 251.975 316.272 252.245 316.962 252.695L316.347 253.835C315.627 253.37 314.832 253.205 314.052 253.205C312.792 253.205 312.177 253.67 312.177 254.3C312.177 256.175 317.217 254.645 317.217 257.735C317.217 259.175 315.897 260.09 313.782 260.09ZM325.94 251.975C328.115 251.975 329.345 253.025 329.345 255.2V260H327.98V258.95C327.5 259.67 326.615 260.09 325.37 260.09C323.57 260.09 322.43 259.13 322.43 257.75C322.43 256.475 323.255 255.425 325.625 255.425H327.905V255.14C327.905 253.925 327.2 253.22 325.775 253.22C324.83 253.22 323.87 253.55 323.255 254.075L322.655 252.995C323.48 252.335 324.665 251.975 325.94 251.975ZM325.61 258.98C326.69 258.98 327.545 258.485 327.905 257.57V256.46H325.685C324.26 256.46 323.855 257.015 323.855 257.69C323.855 258.485 324.515 258.98 325.61 258.98ZM333.39 253.385C333.9 252.455 334.89 251.975 336.285 251.975V253.37C336.165 253.355 336.06 253.355 335.955 253.355C334.41 253.355 333.45 254.3 333.45 256.04V260H332.01V252.05H333.39V253.385ZM345.171 256.07C345.171 256.19 345.156 256.37 345.141 256.505H338.691C338.871 257.9 339.996 258.83 341.571 258.83C342.501 258.83 343.281 258.515 343.866 257.87L344.661 258.8C343.941 259.64 342.846 260.09 341.526 260.09C338.961 260.09 337.251 258.395 337.251 256.025C337.251 253.67 338.946 251.975 341.241 251.975C343.536 251.975 345.171 253.625 345.171 256.07ZM341.241 253.19C339.861 253.19 338.841 254.12 338.691 255.47H343.791C343.641 254.135 342.636 253.19 341.241 253.19ZM355.219 258.5L355.669 259.535C355.234 259.91 354.574 260.09 353.929 260.09C352.324 260.09 351.409 259.205 351.409 257.6V253.235H350.059V252.05H351.409V250.31H352.849V252.05H355.129V253.235H352.849V257.54C352.849 258.395 353.299 258.875 354.094 258.875C354.514 258.875 354.919 258.74 355.219 258.5ZM361.655 251.975C363.59 251.975 364.955 253.085 364.955 255.425V260H363.515V255.59C363.515 254.03 362.735 253.265 361.37 253.265C359.84 253.265 358.85 254.18 358.85 255.905V260H357.41V248.87H358.85V253.175C359.45 252.41 360.44 251.975 361.655 251.975ZM374.849 256.07C374.849 256.19 374.834 256.37 374.819 256.505H368.369C368.549 257.9 369.674 258.83 371.249 258.83C372.179 258.83 372.959 258.515 373.544 257.87L374.339 258.8C373.619 259.64 372.524 260.09 371.204 260.09C368.639 260.09 366.929 258.395 366.929 256.025C366.929 253.67 368.624 251.975 370.919 251.975C373.214 251.975 374.849 253.625 374.849 256.07ZM370.919 253.19C369.539 253.19 368.519 254.12 368.369 255.47H373.469C373.319 254.135 372.314 253.19 370.919 253.19ZM385.092 251.975C387.417 251.975 389.112 253.595 389.112 256.025C389.112 258.455 387.417 260.09 385.092 260.09C383.922 260.09 382.902 259.64 382.257 258.74V260H380.877V248.87H382.317V253.25C382.977 252.395 383.967 251.975 385.092 251.975ZM384.972 258.83C386.502 258.83 387.657 257.72 387.657 256.025C387.657 254.33 386.502 253.235 384.972 253.235C383.457 253.235 382.302 254.33 382.302 256.025C382.302 257.72 383.457 258.83 384.972 258.83ZM392.481 253.385C392.991 252.455 393.981 251.975 395.376 251.975V253.37C395.256 253.355 395.151 253.355 395.046 253.355C393.501 253.355 392.541 254.3 392.541 256.04V260H391.101V252.05H392.481V253.385ZM404.263 256.07C404.263 256.19 404.248 256.37 404.233 256.505H397.783C397.963 257.9 399.088 258.83 400.663 258.83C401.593 258.83 402.373 258.515 402.958 257.87L403.753 258.8C403.033 259.64 401.938 260.09 400.618 260.09C398.053 260.09 396.343 258.395 396.343 256.025C396.343 253.67 398.038 251.975 400.333 251.975C402.628 251.975 404.263 253.625 404.263 256.07ZM400.333 253.19C398.953 253.19 397.933 254.12 397.783 255.47H402.883C402.733 254.135 401.728 253.19 400.333 253.19ZM408.938 251.975C411.113 251.975 412.343 253.025 412.343 255.2V260H410.978V258.95C410.498 259.67 409.613 260.09 408.368 260.09C406.568 260.09 405.428 259.13 405.428 257.75C405.428 256.475 406.253 255.425 408.623 255.425H410.903V255.14C410.903 253.925 410.198 253.22 408.773 253.22C407.828 253.22 406.868 253.55 406.253 254.075L405.653 252.995C406.478 252.335 407.663 251.975 408.938 251.975ZM408.608 258.98C409.688 258.98 410.543 258.485 410.903 257.57V256.46H408.683C407.258 256.46 406.853 257.015 406.853 257.69C406.853 258.485 407.513 258.98 408.608 258.98ZM421.112 248.87H422.552V260H421.172V258.74C420.527 259.64 419.507 260.09 418.337 260.09C416.012 260.09 414.317 258.455 414.317 256.025C414.317 253.595 416.012 251.975 418.337 251.975C419.462 251.975 420.452 252.395 421.112 253.25V248.87ZM418.457 258.83C419.972 258.83 421.127 257.72 421.127 256.025C421.127 254.33 419.972 253.235 418.457 253.235C416.927 253.235 415.772 254.33 415.772 256.025C415.772 257.72 416.927 258.83 418.457 258.83ZM428.741 260.09C426.296 260.09 424.541 258.395 424.541 256.025C424.541 253.655 426.296 251.975 428.741 251.975C430.166 251.975 431.351 252.56 431.981 253.67L430.886 254.375C430.376 253.595 429.596 253.235 428.726 253.235C427.166 253.235 425.996 254.33 425.996 256.025C425.996 257.75 427.166 258.83 428.726 258.83C429.596 258.83 430.376 258.47 430.886 257.69L431.981 258.38C431.351 259.49 430.166 260.09 428.741 260.09ZM435.225 253.385C435.735 252.455 436.725 251.975 438.12 251.975V253.37C438 253.355 437.895 253.355 437.79 253.355C436.245 253.355 435.285 254.3 435.285 256.04V260H433.845V252.05H435.225V253.385ZM445.968 252.05H447.408V260H446.043V258.8C445.458 259.625 444.468 260.09 443.343 260.09C441.288 260.09 439.923 258.965 439.923 256.625V252.05H441.363V256.46C441.363 258.02 442.143 258.8 443.508 258.8C445.008 258.8 445.968 257.87 445.968 256.16V252.05ZM460.094 251.975C462.029 251.975 463.349 253.085 463.349 255.425V260H461.909V255.59C461.909 254.03 461.159 253.265 459.854 253.265C458.414 253.265 457.469 254.18 457.469 255.905V260H456.029V255.59C456.029 254.03 455.279 253.265 453.974 253.265C452.534 253.265 451.589 254.18 451.589 255.905V260H450.149V252.05H451.529V253.235C452.099 252.425 453.074 251.975 454.274 251.975C455.489 251.975 456.509 252.455 457.034 253.445C457.634 252.545 458.744 251.975 460.094 251.975ZM470.214 251.975C472.539 251.975 474.234 253.595 474.234 256.025C474.234 258.455 472.539 260.09 470.214 260.09C469.044 260.09 468.024 259.64 467.379 258.74V260H465.999V248.87H467.439V253.25C468.099 252.395 469.089 251.975 470.214 251.975ZM470.094 258.83C471.624 258.83 472.779 257.72 472.779 256.025C472.779 254.33 471.624 253.235 470.094 253.235C468.579 253.235 467.424 254.33 467.424 256.025C467.424 257.72 468.579 258.83 470.094 258.83ZM478.503 260.09C477.183 260.09 475.878 259.685 475.218 259.16L475.818 258.02C476.493 258.5 477.573 258.845 478.608 258.845C479.943 258.845 480.498 258.44 480.498 257.765C480.498 255.98 475.473 257.525 475.473 254.36C475.473 252.935 476.748 251.975 478.788 251.975C479.823 251.975 480.993 252.245 481.683 252.695L481.068 253.835C480.348 253.37 479.553 253.205 478.773 253.205C477.513 253.205 476.898 253.67 476.898 254.3C476.898 256.175 481.938 254.645 481.938 257.735C481.938 259.175 480.618 260.09 478.503 260.09ZM1.365 287V275.87H2.805V287H1.365ZM12.7395 283.07C12.7395 283.19 12.7245 283.37 12.7095 283.505H6.25945C6.43945 284.9 7.56445 285.83 9.13945 285.83C10.0695 285.83 10.8495 285.515 11.4345 284.87L12.2295 285.8C11.5095 286.64 10.4145 287.09 9.09445 287.09C6.52945 287.09 4.81945 285.395 4.81945 283.025C4.81945 280.67 6.51445 278.975 8.80945 278.975C11.1045 278.975 12.7395 280.625 12.7395 283.07ZM8.80945 280.19C7.42945 280.19 6.40945 281.12 6.25945 282.47H11.3595C11.2095 281.135 10.2045 280.19 8.80945 280.19ZM17.4143 278.975C19.5893 278.975 20.8193 280.025 20.8193 282.2V287H19.4543V285.95C18.9743 286.67 18.0893 287.09 16.8443 287.09C15.0443 287.09 13.9043 286.13 13.9043 284.75C13.9043 283.475 14.7293 282.425 17.0993 282.425H19.3793V282.14C19.3793 280.925 18.6743 280.22 17.2493 280.22C16.3043 280.22 15.3443 280.55 14.7293 281.075L14.1293 279.995C14.9543 279.335 16.1393 278.975 17.4143 278.975ZM17.0843 285.98C18.1643 285.98 19.0193 285.485 19.3793 284.57V283.46H17.1593C15.7343 283.46 15.3293 284.015 15.3293 284.69C15.3293 285.485 15.9893 285.98 17.0843 285.98ZM29.5881 275.87H31.0281V287H29.6481V285.74C29.0031 286.64 27.9831 287.09 26.8131 287.09C24.4881 287.09 22.7931 285.455 22.7931 283.025C22.7931 280.595 24.4881 278.975 26.8131 278.975C27.9381 278.975 28.9281 279.395 29.5881 280.25V275.87ZM26.9331 285.83C28.4481 285.83 29.6031 284.72 29.6031 283.025C29.6031 281.33 28.4481 280.235 26.9331 280.235C25.4031 280.235 24.2481 281.33 24.2481 283.025C24.2481 284.72 25.4031 285.83 26.9331 285.83ZM34.4727 277.52C33.9177 277.52 33.4977 277.115 33.4977 276.59C33.4977 276.065 33.9177 275.645 34.4727 275.645C35.0277 275.645 35.4477 276.05 35.4477 276.56C35.4477 277.1 35.0427 277.52 34.4727 277.52ZM33.7527 287V279.05H35.1927V287H33.7527ZM42.1871 278.975C44.1221 278.975 45.4871 280.085 45.4871 282.425V287H44.0471V282.59C44.0471 281.03 43.2671 280.265 41.9021 280.265C40.3721 280.265 39.3821 281.18 39.3821 282.905V287H37.9421V279.05H39.3221V280.25C39.9071 279.44 40.9271 278.975 42.1871 278.975ZM54.4361 279.05H55.8011V285.92C55.8011 288.725 54.3761 290 51.6761 290C50.2211 290 48.7511 289.595 47.8811 288.815L48.5711 287.705C49.3061 288.335 50.4611 288.74 51.6311 288.74C53.5061 288.74 54.3611 287.87 54.3611 286.07V285.44C53.6711 286.265 52.6361 286.67 51.4961 286.67C49.2011 286.67 47.4611 285.11 47.4611 282.815C47.4611 280.52 49.2011 278.975 51.4961 278.975C52.6811 278.975 53.7611 279.41 54.4361 280.28V279.05ZM51.6611 285.41C53.2511 285.41 54.3911 284.345 54.3911 282.815C54.3911 281.27 53.2511 280.235 51.6611 280.235C50.0561 280.235 48.9161 281.27 48.9161 282.815C48.9161 284.345 50.0561 285.41 51.6611 285.41ZM66.6008 285.5L67.0508 286.535C66.6158 286.91 65.9558 287.09 65.3108 287.09C63.7058 287.09 62.7908 286.205 62.7908 284.6V280.235H61.4408V279.05H62.7908V277.31H64.2308V279.05H66.5108V280.235H64.2308V284.54C64.2308 285.395 64.6808 285.875 65.4758 285.875C65.8958 285.875 66.3008 285.74 66.6008 285.5ZM71.9331 287.09C69.5481 287.09 67.7931 285.395 67.7931 283.025C67.7931 280.655 69.5481 278.975 71.9331 278.975C74.3181 278.975 76.0581 280.655 76.0581 283.025C76.0581 285.395 74.3181 287.09 71.9331 287.09ZM71.9331 285.83C73.4631 285.83 74.6031 284.72 74.6031 283.025C74.6031 281.33 73.4631 280.235 71.9331 280.235C70.4031 280.235 69.2481 281.33 69.2481 283.025C69.2481 284.72 70.4031 285.83 71.9331 285.83ZM86.0979 285.5L86.5479 286.535C86.1129 286.91 85.4529 287.09 84.8079 287.09C83.2029 287.09 82.2879 286.205 82.2879 284.6V280.235H80.9379V279.05H82.2879V277.31H83.7279V279.05H86.0079V280.235H83.7279V284.54C83.7279 285.395 84.1779 285.875 84.9729 285.875C85.3929 285.875 85.7979 285.74 86.0979 285.5ZM92.5338 278.975C94.4688 278.975 95.8338 280.085 95.8338 282.425V287H94.3938V282.59C94.3938 281.03 93.6138 280.265 92.2488 280.265C90.7188 280.265 89.7288 281.18 89.7288 282.905V287H88.2888V275.87H89.7288V280.175C90.3288 279.41 91.3188 278.975 92.5338 278.975ZM105.728 283.07C105.728 283.19 105.713 283.37 105.698 283.505H99.2477C99.4277 284.9 100.553 285.83 102.128 285.83C103.058 285.83 103.838 285.515 104.423 284.87L105.218 285.8C104.498 286.64 103.403 287.09 102.083 287.09C99.5177 287.09 97.8077 285.395 97.8077 283.025C97.8077 280.67 99.5027 278.975 101.798 278.975C104.093 278.975 105.728 280.625 105.728 283.07ZM101.798 280.19C100.418 280.19 99.3977 281.12 99.2477 282.47H104.348C104.198 281.135 103.193 280.19 101.798 280.19ZM114.666 276.965C113.811 276.965 113.376 277.445 113.376 278.36V279.05H115.686V280.235H113.406V287H111.966V280.235H110.616V279.05H111.966V278.345C111.966 276.8 112.896 275.78 114.591 275.78C115.206 275.78 115.806 275.93 116.211 276.245L115.776 277.34C115.476 277.115 115.086 276.965 114.666 276.965ZM124.112 283.07C124.112 283.19 124.097 283.37 124.082 283.505H117.632C117.812 284.9 118.937 285.83 120.512 285.83C121.442 285.83 122.222 285.515 122.807 284.87L123.602 285.8C122.882 286.64 121.787 287.09 120.467 287.09C117.902 287.09 116.192 285.395 116.192 283.025C116.192 280.67 117.887 278.975 120.182 278.975C122.477 278.975 124.112 280.625 124.112 283.07ZM120.182 280.19C118.802 280.19 117.782 281.12 117.632 282.47H122.732C122.582 281.135 121.577 280.19 120.182 280.19ZM128.786 278.975C130.961 278.975 132.191 280.025 132.191 282.2V287H130.826V285.95C130.346 286.67 129.461 287.09 128.216 287.09C126.416 287.09 125.276 286.13 125.276 284.75C125.276 283.475 126.101 282.425 128.471 282.425H130.751V282.14C130.751 280.925 130.046 280.22 128.621 280.22C127.676 280.22 126.716 280.55 126.101 281.075L125.501 279.995C126.326 279.335 127.511 278.975 128.786 278.975ZM128.456 285.98C129.536 285.98 130.391 285.485 130.751 284.57V283.46H128.531C127.106 283.46 126.701 284.015 126.701 284.69C126.701 285.485 127.361 285.98 128.456 285.98ZM137.136 287.09C135.816 287.09 134.511 286.685 133.851 286.16L134.451 285.02C135.126 285.5 136.206 285.845 137.241 285.845C138.576 285.845 139.131 285.44 139.131 284.765C139.131 282.98 134.106 284.525 134.106 281.36C134.106 279.935 135.381 278.975 137.421 278.975C138.456 278.975 139.626 279.245 140.316 279.695L139.701 280.835C138.981 280.37 138.186 280.205 137.406 280.205C136.146 280.205 135.531 280.67 135.531 281.3C135.531 283.175 140.571 281.645 140.571 284.735C140.571 286.175 139.251 287.09 137.136 287.09ZM146.391 285.5L146.841 286.535C146.406 286.91 145.746 287.09 145.101 287.09C143.496 287.09 142.581 286.205 142.581 284.6V280.235H141.231V279.05H142.581V277.31H144.021V279.05H146.301V280.235H144.021V284.54C144.021 285.395 144.471 285.875 145.266 285.875C145.686 285.875 146.091 285.74 146.391 285.5ZM156.015 287.09C153.63 287.09 151.875 285.395 151.875 283.025C151.875 280.655 153.63 278.975 156.015 278.975C158.4 278.975 160.14 280.655 160.14 283.025C160.14 285.395 158.4 287.09 156.015 287.09ZM156.015 285.83C157.545 285.83 158.685 284.72 158.685 283.025C158.685 281.33 157.545 280.235 156.015 280.235C154.485 280.235 153.33 281.33 153.33 283.025C153.33 284.72 154.485 285.83 156.015 285.83ZM165.042 276.965C164.187 276.965 163.752 277.445 163.752 278.36V279.05H166.062V280.235H163.782V287H162.342V280.235H160.992V279.05H162.342V278.345C162.342 276.8 163.272 275.78 164.967 275.78C165.582 275.78 166.182 275.93 166.587 276.245L166.152 277.34C165.852 277.115 165.462 276.965 165.042 276.965ZM177.523 287L174.538 283.295L172.888 284.825V287H171.448V275.87H172.888V283.01L177.223 279.05H178.963L175.618 282.335L179.293 287H177.523ZM184.834 278.975C186.769 278.975 188.134 280.085 188.134 282.425V287H186.694V282.59C186.694 281.03 185.914 280.265 184.549 280.265C183.019 280.265 182.029 281.18 182.029 282.905V287H180.589V279.05H181.969V280.25C182.554 279.44 183.574 278.975 184.834 278.975ZM194.248 287.09C191.863 287.09 190.108 285.395 190.108 283.025C190.108 280.655 191.863 278.975 194.248 278.975C196.633 278.975 198.373 280.655 198.373 283.025C198.373 285.395 196.633 287.09 194.248 287.09ZM194.248 285.83C195.778 285.83 196.918 284.72 196.918 283.025C196.918 281.33 195.778 280.235 194.248 280.235C192.718 280.235 191.563 281.33 191.563 283.025C191.563 284.72 192.718 285.83 194.248 285.83ZM210.884 279.05H212.174L209.204 287H207.824L205.529 280.97L203.204 287H201.824L198.869 279.05H200.234L202.544 285.38L204.944 279.05H206.159L208.514 285.41L210.884 279.05ZM213.636 287V275.87H215.076V287H213.636ZM225.01 283.07C225.01 283.19 224.995 283.37 224.98 283.505H218.53C218.71 284.9 219.835 285.83 221.41 285.83C222.34 285.83 223.12 285.515 223.705 284.87L224.5 285.8C223.78 286.64 222.685 287.09 221.365 287.09C218.8 287.09 217.09 285.395 217.09 283.025C217.09 280.67 218.785 278.975 221.08 278.975C223.375 278.975 225.01 280.625 225.01 283.07ZM221.08 280.19C219.7 280.19 218.68 281.12 218.53 282.47H223.63C223.48 281.135 222.475 280.19 221.08 280.19ZM233.07 275.87H234.51V287H233.13V285.74C232.485 286.64 231.465 287.09 230.295 287.09C227.97 287.09 226.275 285.455 226.275 283.025C226.275 280.595 227.97 278.975 230.295 278.975C231.42 278.975 232.41 279.395 233.07 280.25V275.87ZM230.415 285.83C231.93 285.83 233.085 284.72 233.085 283.025C233.085 281.33 231.93 280.235 230.415 280.235C228.885 280.235 227.73 281.33 227.73 283.025C227.73 284.72 228.885 285.83 230.415 285.83ZM243.474 279.05H244.839V285.92C244.839 288.725 243.414 290 240.714 290C239.259 290 237.789 289.595 236.919 288.815L237.609 287.705C238.344 288.335 239.499 288.74 240.669 288.74C242.544 288.74 243.399 287.87 243.399 286.07V285.44C242.709 286.265 241.674 286.67 240.534 286.67C238.239 286.67 236.499 285.11 236.499 282.815C236.499 280.52 238.239 278.975 240.534 278.975C241.719 278.975 242.799 279.41 243.474 280.28V279.05ZM240.699 285.41C242.289 285.41 243.429 284.345 243.429 282.815C243.429 281.27 242.289 280.235 240.699 280.235C239.094 280.235 237.954 281.27 237.954 282.815C237.954 284.345 239.094 285.41 240.699 285.41ZM254.776 283.07C254.776 283.19 254.761 283.37 254.746 283.505H248.296C248.476 284.9 249.601 285.83 251.176 285.83C252.106 285.83 252.886 285.515 253.471 284.87L254.266 285.8C253.546 286.64 252.451 287.09 251.131 287.09C248.566 287.09 246.856 285.395 246.856 283.025C246.856 280.67 248.551 278.975 250.846 278.975C253.141 278.975 254.776 280.625 254.776 283.07ZM250.846 280.19C249.466 280.19 248.446 281.12 248.296 282.47H253.396C253.246 281.135 252.241 280.19 250.846 280.19ZM261.148 287.09C260.593 287.09 260.128 286.655 260.128 286.055C260.128 285.455 260.593 285.035 261.148 285.035C261.688 285.035 262.138 285.455 262.138 286.055C262.138 286.655 261.688 287.09 261.148 287.09Z" fill="black" fill-opacity="0.7"/>
<path d="M898.139 61.8822C799.839 54.5688 713.958 69.535 713.958 69.535V172.78C713.958 172.78 823.142 160.189 897.791 164.958V61.7125" fill="#EE99C2"/>
<path d="M726.181 108.102C749.421 103.343 774.67 103.155 774.67 103.155L774.786 74.0177C747.912 74.6964 726.261 79.8042 726.261 79.8042L726.484 108.495" fill="#965F7C"/>
<path d="M988.047 28.6548L1006.89 29.8156L1028.15 33.1375L1043.72 37.6381L1057.14 42.1476L1066.75 46.4874L1066.5 106.022L1051.28 99.4674L1028.06 92.9219L1010.89 89.6894L992.101 87.9034H987.503L988.047 28.6548Z" fill="#E78895"/>
<path d="M987.627 87.8141L987.931 28.7083C987.931 28.7083 1030.11 28.369 1066.5 46.5678L1066.53 106.272" stroke="#E78895" stroke-miterlimit="10"/>
<path d="M1066.28 105.834C1029.88 87.6355 987.226 87.7338 987.226 87.7338" stroke="#E78895" stroke-miterlimit="10"/>
<path d="M1111.05 165.637L1114.11 245.12L1114.23 272.454L1113.1 283.562L1111.74 290.822L1109.13 298.761L1104.25 306.583L1098.93 312.816L1090.31 320.987L1079.31 329.711L1078.4 223.242L1088.15 211.562L1098.59 196.703L1106.41 182.076L1109.47 173.12L1111.05 165.637Z" fill="#BEBBFF"/>
<path d="M1017.52 80.0278L1028.4 83.6533L1042.23 89.7791L1055.28 96.6907L1071.6 107.121L1084.53 117.104L1097.11 129.007L1101.99 134.338L1107.43 144.884L1110.03 153.618L1110.83 162.458L1110.49 168.468L1109.24 175.156L1105.16 184.568L1098.59 196.703L1090.65 208.16L1081.69 219.269L1078.4 223.243L1078.52 230.386L1058 216.099L1034.98 203.847L1017.64 196.82L1017.52 80.0278Z" fill="#A197FC"/>
<path d="M1111 162.574C1111 162.574 1115.99 256.121 1113.78 278.749C1111.56 301.377 1103.91 310.896 1079.25 329.943L1078.57 223.296C1081.46 219.724 1103.74 194.551 1109.53 173.289C1115.31 152.028 1101.03 133.15 1101.03 133.15C1064.97 93.1809 1017.53 79.9114 1017.53 79.9114L1017.7 197.444" stroke="#A197FC" stroke-miterlimit="10"/>
<path d="M1017.69 197.033C1032.42 202.213 1056.09 212.491 1078.62 230.698" stroke="#A197FC" stroke-miterlimit="10"/>
<path d="M1038.78 113.416C1038.78 113.416 1086.45 135.017 1101.7 164.27" stroke="#5E5EAA" stroke-miterlimit="10"/>
<path d="M1038.61 135.186C1038.61 135.186 1074.88 151.456 1092.18 181.621" stroke="#5E5EAA" stroke-miterlimit="10"/>
<path d="M1035.88 157.814C1035.88 157.814 1056.75 165.521 1068.12 181.799" stroke="#5E5EAA" stroke-miterlimit="10"/>
<mask id="mask0_547_7611" style="mask-type:luminance" maskUnits="userSpaceOnUse" x="554" y="0" width="641" height="380">
<path d="M619.193 0.999427C624.604 0.418996 630.059 0.365412 635.496 0.686882C656.772 1.9549 726.913 6.17865 782.491 10.1702C845.096 14.6619 901.193 10.1702 941.674 24.4578C982.154 38.7453 1096.43 74.1248 1167.51 189.783C1238.6 305.44 1151.02 365.796 1100.7 368.636C1099.48 368.707 1098.26 368.779 1097.03 368.895C1074.94 371.136 852.275 392.791 737.6 365.653C622.925 338.516 574.338 185.702 560.052 118.005C545.767 50.3093 558.999 7.50026 619.193 0.999427Z" fill="white"/>
</mask>
<g mask="url(#mask0_547_7611)">
<path d="M727.85 190.015C727.85 190.015 731.904 176.013 737.261 166.056C742.618 156.1 754.519 141.142 761.751 136.035C768.983 130.927 773.313 126.846 784.706 121.488C796.098 116.13 806.812 114.434 806.812 114.434L811.66 121.149L824.588 135.008L840.998 148.867L846.016 130.07L858.007 136.365L853.498 120.202L848.141 109.147L855.453 109.487L865.399 110.674L877.39 113.139L888.015 116.97L894.729 120.801L900.934 125.819L912.496 138.58L928.567 159.243L924.058 167.155L918.96 176.513L911.648 193.015L908.076 202.114L907.085 226.635L905.728 250.674L904.711 274.258L903.121 299.77L902.559 305.44L769.117 311.673L767.644 283.553L767.42 263.14L727.85 190.006V190.015Z" fill="#697FE2"/>
<path d="M772.635 192.961L771.84 197.614L772.179 203.507L773.536 207.249L775.688 210.651L779.438 213.491L784.197 215.187L792.018 216.205L800.518 215.527L808.687 214.053L819.678 210.874L826.035 208.955L831.249 205.552L834.757 201.471L846.212 183.889L848.025 182.532L850.971 182.648L853.123 184.121L854.15 186.836L852.444 193.756L863.221 170.512L865.149 169.432L867.587 170.342L869.506 173.236L869.676 175.388L868.319 180.147L871.497 180.656L873.872 181.737L875.122 184.175L875.006 186.612L876.711 191.997L876.649 195.462L875.122 202.32L872.006 208.838L866.73 217.286L861.462 224.546L851.935 234.181L839.802 242.682L829.999 248.808L819.401 253.853L807.214 257.488L792.759 260.604L767.644 263.435L753.073 263.328L739.412 261.059L732.948 257.88L728.582 253.174L725.466 246.147L723.708 238.262L722.806 226.126L724.618 207.758L726.94 193.64L727.85 190.015H735.788L752.617 190.979L772.635 192.961Z" fill="#FFAB97"/>
<path d="M928.576 159.261L940.736 174.736L947.798 182.478L951.879 185.621L955.021 186.809L959.61 188.086L967.012 188.514L977.297 188.175L993.538 186.3L1011.31 183.326L1020.24 181.031L1029 177.879L1037.59 174.397L1045.32 171.932L1046.86 171.584L1049.32 173.888L1050.17 176.352L1049.92 179.754L1048.81 180.772L1051.11 180.942L1083.68 188.934L1085.71 190.381L1086.74 193.104L1086.14 195.739L1084.36 197.525L1081.8 198.203L1057.91 194.381L1055.28 204.418L1053.57 208.58L1051.45 210.115L1045.07 208.749L1043.8 210.624L1039.29 213.348L1030.36 215.813L1023.64 216.661L1018.8 218.536L1001.2 226.269L986.654 231.118L975.003 233.922L961.914 235.628L952.048 235.458L940.906 233.413L929.513 228.913L917.442 221.59L907.487 212.75L908.085 202.123L917.951 178.478L928.576 159.261Z" fill="#FFAB97"/>
<path d="M843.829 107.808L845.418 116.988L846.159 125.944L846.016 130.087L842.927 129.409L834.311 125.435L826.088 119.827L819.231 113.192L814.124 106.727L812.651 104.513L812.937 103.441L816.222 106.843L821.383 109.504L825.347 110.522L830.168 111.38L834.927 111.148L839.356 109.906L843.829 107.808Z" fill="#FFAB97"/>
<path d="M772.036 311.575L900.175 305.449L908.175 380.369L768.894 378.164L772.036 311.575Z" fill="#070361"/>
<path d="M812.651 104.513L816.169 109.594L822.544 116.818L828.07 121.238L834.311 125.435L841.936 128.9L846.016 130.087L843.721 138.678L840.998 148.884L827.82 138.249L812.598 122.176L806.812 114.434L812.651 104.513Z" fill="#CAD9DB"/>
<path d="M844.061 108.486L847.57 108.424L851.819 116.255L856.355 129.632L858.06 135.981L846.016 130.087L846.096 121.863L844.739 111.889L844.061 108.486Z" fill="#CAD9DB"/>
<path d="M819.115 82.233L819.401 77.9825L822.008 73.0533L825.802 70.9548L830.74 70.4458L837.365 71.1245L844.623 72.5354L854.203 73.1604L855.391 81.6079L855.284 88.4749L853.81 94.9936L851.543 99.637L848.534 103.271L843.829 107.808L838.052 110.522L833.008 111.38L827.615 111.147L821.383 109.504L816.794 107.12L813.106 103.718L809.419 97.8243L808.455 95.0472L802.339 93.3505L797.178 90.2251L794.402 86.2603L794.232 80.7596L796.384 76.0537L799.839 73.7319L805.392 73.5623L811.231 76.0001L814.187 78.0986L815.151 82.6884L819.115 82.233Z" fill="#FFAB97"/>
<path d="M819.115 82.233L820.249 76.1697L823.195 71.9728L827.615 70.3297L835.499 70.7226L850.748 73.1604H854.203L857.319 72.9908L862.48 71.0619L865.935 68.6866L867.64 66.6953L868.828 63.302L868.774 57.9085L866.676 50.8808L860.891 45.3265L854.944 44.0228L846.775 45.3801L841.677 47.5947L837.534 44.0763L833.284 43.2816L828.186 45.8355L823.026 50.5415L818.946 55.2474L814.124 56.7208L811.231 58.5336L808.571 62.1054L807.553 65.9631L806.133 73.9016L809.99 75.4911L814.187 78.0986L815.151 82.6884L819.115 82.233Z" fill="#2B2D3E"/>
<path d="M846.034 130.159L858.096 136.258C853.302 115.63 847.587 108.495 847.587 108.495L843.954 108.361C846.936 122.756 846.025 130.15 846.025 130.15C824.499 124.828 812.696 104.468 812.696 104.468L806.473 114.46C806.473 114.46 817.24 130.543 841.105 148.965C841.105 148.965 843.829 136.508 846.034 130.159Z" stroke="black" stroke-miterlimit="10"/>
<path d="M783.349 173.798C783.349 173.798 775.358 183.835 773.992 193.185C773.992 193.185 732.323 188.765 727.904 190.461" stroke="black" stroke-miterlimit="10"/>
<path d="M772.804 193.015C772.804 193.015 760.974 230.895 823.633 209.66C828.409 208.044 832.508 204.847 835.257 200.614L845.739 184.452C846.766 182.862 848.703 182.13 850.525 182.63L850.739 182.692C852.802 183.264 854.194 185.175 854.096 187.318C854.096 187.38 854.087 187.434 854.069 187.488L850.525 200.668" stroke="black" stroke-miterlimit="10"/>
<path d="M864.408 194.944L869.435 175.781C869.837 174.254 869.471 172.629 868.444 171.423L867.944 170.825C867.319 170.084 866.399 169.655 865.426 169.655C864.381 169.655 863.435 170.244 862.971 171.182L852.212 194.542" stroke="black" stroke-miterlimit="10"/>
<path d="M868.265 180.04L871.551 180.647C873.828 181.067 875.363 183.219 875.024 185.505C874.64 188.086 873.89 190.595 872.792 192.953L871.551 195.622" stroke="black" stroke-miterlimit="10"/>
<path d="M1034.98 187.523C1039.02 185.755 1045.58 182.38 1048.79 180.63C1049.51 180.237 1049.96 179.495 1049.99 178.683L1050.05 176.825C1050.13 174.7 1048.88 172.745 1046.91 171.932C1046.82 171.896 1046.72 171.878 1046.63 171.887C1036.3 172.959 1032.25 179.719 1005.39 184.344C978.413 188.997 960.494 190.577 951.2 185.139C941.906 179.701 916.433 140.633 899.952 125.042C885.55 111.415 860.292 109.656 853.418 109.424C851.918 109.37 850.427 109.299 848.936 109.183L847.971 109.12" stroke="black" stroke-miterlimit="10"/>
<path d="M1058 194.721L1055.45 203.909L1035.21 199.489L1035.79 195.203C1035.96 193.935 1036.71 192.827 1037.81 192.193C1038.97 191.524 1040.35 191.327 1041.66 191.64L1042.52 191.845L1081.65 197.944C1083.1 198.167 1084.54 197.551 1085.38 196.346L1085.65 195.962C1086.78 194.346 1086.89 192.158 1085.76 190.55C1085.42 190.068 1084.96 189.631 1084.36 189.291C1081.63 187.764 1048.79 180.638 1048.79 180.638" stroke="black" stroke-miterlimit="10"/>
<path d="M1055.45 203.909L1053.74 208.071C1053.16 209.49 1051.63 210.276 1050.13 209.919L1036.43 206.651C1035.16 206.347 1034.34 205.124 1034.54 203.838L1035.21 199.48" stroke="black" stroke-miterlimit="10"/>
<path d="M907.559 212.678C911.942 217.429 926.62 231.556 949.155 235.029C965.601 237.565 987.002 232.413 1007.14 223.805C1010.89 222.206 1010.97 222.019 1018.03 218.876C1022.65 216.813 1023.98 216.402 1029.94 215.643C1043.04 213.955 1045.07 209.008 1045.07 209.008" stroke="black" stroke-miterlimit="10"/>
<path d="M908.684 178.219C908.684 178.219 907.21 240.128 902.675 305.449L769.117 311.798C766.626 274.383 767.528 262.354 767.528 262.354" stroke="black" stroke-miterlimit="10"/>
<path d="M772.179 311.459L769.063 371.788" stroke="black" stroke-miterlimit="10"/>
<path d="M900.175 305.905L908.005 379.61" stroke="black" stroke-miterlimit="10"/>
<path d="M928.406 159.287C928.406 159.287 917.353 176.522 907.773 202.945" stroke="black" stroke-miterlimit="10"/>
<path d="M848.48 378.583C849.445 361.117 848.311 335.435 848.311 335.435L855.623 331.185" stroke="black" stroke-miterlimit="10"/>
<path d="M806.812 114.434L798.366 116.193C798.366 116.193 734.484 131.641 725.118 205.338C724.949 206.66 724.77 207.981 724.556 209.294C723.154 217.777 718.029 256.193 739.698 260.89C740.698 261.104 742.35 261.435 743.35 261.667C749.18 263.06 770.42 266.632 808.866 257.014C818.204 254.675 827.088 250.764 835.124 245.459C843.445 239.967 846.587 239.914 858.007 228.046C865.149 220.617 871.14 210.714 873.917 204.892C875.345 201.891 877.328 194.64 876.667 191.381L875.024 185.487" stroke="black" stroke-miterlimit="10"/>
<path d="M854.176 73.3569C858.507 93.3595 850.927 102.253 844.079 107.317C837.231 112.38 829.963 112.487 820.731 109.174C811.499 105.861 808.517 95.1454 808.517 95.1454C808.517 95.1454 794.527 93.0291 794.098 83.8582C793.67 74.6874 801.169 72.5086 805.982 73.9195C809.339 74.9018 811.151 76.0805 813.571 77.6878C814.178 78.0986 814.588 78.7504 814.687 79.4827L815.124 82.7063L818.954 82.4027C818.954 82.4027 819.079 73.0622 825.222 71.0262C831.365 68.9903 845.15 73.2944 854.703 73.2855C854.703 73.2855 869.578 72.0085 868.899 60.4803C868.212 48.952 862.507 44.5675 856.203 44.1121C849.9 43.6567 841.57 47.6393 841.57 47.6393C841.57 47.6393 838.132 42.2101 833.034 43.4424C827.936 44.6747 820.847 52.7293 818.981 55.435C818.981 55.435 812.446 56.0333 809.544 60.6678C806.642 65.3023 806.249 73.7677 806.249 73.7677" stroke="black" stroke-miterlimit="10"/>
<path d="M810.133 85.9211C810.133 85.9211 808.589 80.1167 801.428 80.0989" stroke="black" stroke-miterlimit="10"/>
<path d="M845.489 86.0371L846.382 94.3953C846.409 95.2169 845.677 95.8509 844.864 95.7169L842.882 95.2705" stroke="black" stroke-miterlimit="10"/>
<path d="M837.043 85.7424C837.62 85.7424 838.088 85.2746 838.088 84.6976C838.088 84.1206 837.62 83.6528 837.043 83.6528C836.466 83.6528 835.999 84.1206 835.999 84.6976C835.999 85.2746 836.466 85.7424 837.043 85.7424Z" stroke="black" stroke-miterlimit="10"/>
<path d="M833.57 81.0454C833.57 81.0454 836.4 79.7952 839.525 79.7416L838.989 79.563C837.052 78.9201 834.918 79.5005 833.579 81.0454H833.57Z" stroke="black" stroke-linecap="round" stroke-linejoin="round"/>
<path d="M850.096 85.2245C850.629 85.2245 851.061 84.7927 851.061 84.2601C851.061 83.7274 850.629 83.2957 850.096 83.2957C849.564 83.2957 849.132 83.7274 849.132 84.2601C849.132 84.7927 849.564 85.2245 850.096 85.2245Z" stroke="black" stroke-miterlimit="10"/>
<path d="M852.971 80.6346C852.971 80.6346 850.275 79.7327 847.418 79.9381L847.9 79.7327C849.623 78.9826 851.623 79.3398 852.98 80.6346H852.971Z" stroke="black" stroke-linecap="round" stroke-linejoin="round"/>
<path d="M839.963 101.825C840.427 102.762 841.284 103.468 842.32 103.655C842.847 103.754 843.48 103.763 844.132 103.557C845.686 103.075 846.355 100.771 846.489 100.262C846.507 100.209 846.462 100.164 846.409 100.164C842.329 100.235 839.829 99.9406 839.472 99.896C839.445 99.896 839.427 99.9049 839.427 99.9317C839.436 100.119 839.507 100.896 839.963 101.816V101.825Z" fill="#B2221B"/>
</g>
<path d="M846.221 100.985C846.221 100.985 840.632 101.048 839.588 100.753L846.221 100.985Z" fill="#F2F2F2"/>
<path d="M839.597 100.816C839.382 100.369 839.427 100.03 839.418 99.9318C839.418 99.9139 839.436 99.896 839.463 99.905C839.811 99.9407 842.311 100.155 846.391 100.101C846.454 100.101 846.489 100.137 846.48 100.173C846.427 100.316 846.436 100.664 846.204 101.057" fill="#F2F2F2"/>
<path d="M628.247 110.862L628.586 212.83C628.586 212.83 621.532 215.384 618.211 218.867C618.211 218.867 587.346 203.052 582.587 172.173C577.829 141.294 608.185 119.532 628.247 110.853V110.862Z" fill="#63B4B8"/>
<path d="M654.862 234.61L654.951 339.302C654.951 339.302 614.479 321.272 597.212 303.583V253.407C597.212 253.407 587.007 250.004 582.498 246.174L582.587 172.182C582.587 172.182 585.31 215.214 654.862 234.601V234.61Z" fill="#A8E2E2"/>
<path d="M582.391 235.824C582.391 235.824 592.364 247.727 604.497 250.335L604.953 309.976C604.953 309.976 598.551 305.101 597.212 303.574V253.398C597.212 253.398 587.266 250.621 582.498 246.165L582.382 235.815L582.391 235.824Z" fill="#4C8986"/>
<path d="M914.576 293.546C960.548 291.331 1000.4 278.008 1000.4 278.008L1000.18 218.027C960.727 229.761 914.808 231.859 914.808 231.859L914.585 293.546H914.576Z" fill="#FFD28F"/>
<path d="M987.252 233.842C987.252 233.842 956.807 242.682 922.29 244.218" stroke="#D8A96C" stroke-miterlimit="10"/>
<path d="M987.931 245.066C987.931 245.066 961.405 253.398 921.433 256.291" stroke="#D8A96C" stroke-miterlimit="10"/>
<path d="M963.95 261.908C963.95 261.908 952.388 264.801 921.264 267.864" stroke="black" stroke-miterlimit="10"/>
<path d="M963.101 359.706C963.101 359.706 875.176 374.333 780.116 359.706L780.456 256.291C780.456 256.291 861.069 270.748 963.191 256.55L962.851 359.965" fill="#00A9FF"/>
<path d="M833.936 348.142C853.142 348.142 868.712 332.57 868.712 313.361C868.712 294.152 853.142 278.58 833.936 278.58C814.73 278.58 799.16 294.152 799.16 313.361C799.16 332.57 814.73 348.142 833.936 348.142Z" fill="#E2F1FE"/>
<path d="M878.578 297.966C878.578 297.966 921.603 301.877 951.191 293.715" stroke="#E2F1FE" stroke-miterlimit="10"/>
<path d="M878.747 316.504C878.747 316.504 924.281 321.281 950.004 312.084" stroke="#E2F1FE" stroke-miterlimit="10"/>
<path d="M878.747 335.381C878.747 335.381 902.22 336.739 914.46 336.06" stroke="#E2F1FE" stroke-miterlimit="10"/>
<path d="M618.443 218.706C620.827 216.322 628.532 212.919 628.532 212.919L628.309 110.638C628.309 110.638 581.596 129.462 582.507 167.789C583.418 206.115 629.675 228.118 654.844 234.467L655.067 339.694C655.067 339.694 623.095 324.952 597.015 303.636" stroke="#A8E2E2" stroke-miterlimit="10"/>
<path d="M582.498 167.789L582.614 246.709" stroke="#A8E2E2" stroke-miterlimit="10"/>
<path d="M604.783 271.686C613.711 281.294 636.416 293.206 636.416 293.206L636.505 285.125C620.265 278.49 604.533 262.676 604.533 262.676L604.792 271.695L604.783 271.686Z" fill="#52C1BC"/>
<path d="M604.613 295.501C613.542 305.708 636.416 318.12 636.416 318.12V300.002C622.47 295.492 604.783 277.463 604.783 277.463L604.613 295.492V295.501Z" fill="#3E9B9B"/>
<path d="M582.614 236.056C582.614 236.056 590.667 247.058 604.604 250.567L604.828 309.869" fill="#4C8986"/>
<path d="M630.62 265.138C635.671 261.907 635.215 252.174 629.603 243.4C623.991 234.626 615.346 230.134 610.296 233.365C605.245 236.597 605.7 246.33 611.312 255.104C616.925 263.878 625.569 268.37 630.62 265.138Z" fill="#3E9B9B"/>
<path d="M572.748 301.368L572.302 237.101C572.302 236.869 572.579 236.789 572.731 236.958C584.203 250.906 597.132 253.398 597.132 253.398L596.908 316.674C596.908 316.674 584.319 314.406 572.757 301.368H572.748Z" fill="#FFD28F"/>
<path d="M611.863 163.994C611.863 163.994 596.73 168.074 585.953 183.835" stroke="#EEF5FF" stroke-miterlimit="10"/>
<path d="M611.694 177.709C611.694 177.709 599.167 181.397 590.266 192.506" stroke="#EEF5FF" stroke-miterlimit="10"/>
<path d="M611.694 193.015C611.694 193.015 602.569 195.113 596.899 201.516" stroke="#EEF5FF" stroke-miterlimit="10"/>
</svg>
