<svg width="1182" height="363" viewBox="0 0 1182 363" fill="none" xmlns="http://www.w3.org/2000/svg">
<path d="M661.225 117.085H679.585V121H656.725V89.5H678.955V93.415H661.225V103.09H677.02V106.915H661.225V117.085ZM716.076 96.925C721.881 96.925 725.841 100.255 725.841 107.275V121H721.521V107.77C721.521 103.09 719.271 100.795 715.356 100.795C711.036 100.795 708.201 103.54 708.201 108.715V121H703.881V107.77C703.881 103.09 701.631 100.795 697.716 100.795C693.396 100.795 690.561 103.54 690.561 108.715V121H686.241V97.15H690.381V100.705C692.091 98.275 695.016 96.925 698.616 96.925C702.261 96.925 705.321 98.365 706.896 101.335C708.696 98.635 712.026 96.925 716.076 96.925ZM746.435 96.925C753.41 96.925 758.495 101.785 758.495 109.075C758.495 116.41 753.41 121.27 746.435 121.27C743.06 121.27 740.09 119.965 738.11 117.4V129.73H733.79V97.15H737.93V100.93C739.865 98.275 742.925 96.925 746.435 96.925ZM746.075 117.49C750.665 117.49 754.13 114.16 754.13 109.075C754.13 104.035 750.665 100.705 746.075 100.705C741.53 100.705 738.065 104.035 738.065 109.075C738.065 114.16 741.53 117.49 746.075 117.49ZM774.679 121.27C767.524 121.27 762.259 116.185 762.259 109.075C762.259 101.965 767.524 96.925 774.679 96.925C781.834 96.925 787.054 101.965 787.054 109.075C787.054 116.185 781.834 121.27 774.679 121.27ZM774.679 117.49C779.269 117.49 782.689 114.16 782.689 109.075C782.689 103.99 779.269 100.705 774.679 100.705C770.089 100.705 766.624 103.99 766.624 109.075C766.624 114.16 770.089 117.49 774.679 117.49ZM824.589 97.15H828.459L819.549 121H815.409L808.524 102.91L801.549 121H797.409L788.544 97.15H792.639L799.569 116.14L806.769 97.15H810.414L817.479 116.23L824.589 97.15ZM853.739 109.21C853.739 109.57 853.694 110.11 853.649 110.515H834.299C834.839 114.7 838.214 117.49 842.939 117.49C845.729 117.49 848.069 116.545 849.824 114.61L852.209 117.4C850.049 119.92 846.764 121.27 842.804 121.27C835.109 121.27 829.979 116.185 829.979 109.075C829.979 102.01 835.064 96.925 841.949 96.925C848.834 96.925 853.739 101.875 853.739 109.21ZM841.949 100.57C837.809 100.57 834.749 103.36 834.299 107.41H849.599C849.149 103.405 846.134 100.57 841.949 100.57ZM863.878 101.155C865.408 98.365 868.378 96.925 872.563 96.925V101.11C872.203 101.065 871.888 101.065 871.573 101.065C866.938 101.065 864.058 103.9 864.058 109.12V121H859.738V97.15H863.878V101.155ZM907.155 97.15H911.385L899.82 123.385C897.705 128.425 894.96 130 891.315 130C889.02 130 886.68 129.235 885.195 127.795L887.04 124.555C888.21 125.68 889.695 126.31 891.315 126.31C893.385 126.31 894.69 125.365 895.86 122.62L896.625 120.955L886.095 97.15H890.595L898.92 116.23L907.155 97.15ZM924.972 121.27C917.817 121.27 912.552 116.185 912.552 109.075C912.552 101.965 917.817 96.925 924.972 96.925C932.127 96.925 937.347 101.965 937.347 109.075C937.347 116.185 932.127 121.27 924.972 121.27ZM924.972 117.49C929.562 117.49 932.982 114.16 932.982 109.075C932.982 103.99 929.562 100.705 924.972 100.705C920.382 100.705 916.917 103.99 916.917 109.075C916.917 114.16 920.382 117.49 924.972 117.49ZM961.232 97.15H965.552V121H961.457V117.4C959.702 119.875 956.732 121.27 953.357 121.27C947.192 121.27 943.097 117.895 943.097 110.875V97.15H947.417V110.38C947.417 115.06 949.757 117.4 953.852 117.4C958.352 117.4 961.232 114.61 961.232 109.48V97.15ZM977.916 101.155C979.446 98.365 982.416 96.925 986.601 96.925V101.11C986.241 101.065 985.926 101.065 985.611 101.065C980.976 101.065 978.096 103.9 978.096 109.12V121H973.776V97.15H977.916V101.155ZM668.155 166.5L669.505 169.605C668.2 170.73 666.22 171.27 664.285 171.27C659.47 171.27 656.725 168.615 656.725 163.8V150.705H652.675V147.15H656.725V141.93H661.045V147.15H667.885V150.705H661.045V163.62C661.045 166.185 662.395 167.625 664.78 167.625C666.04 167.625 667.255 167.22 668.155 166.5ZM695.492 159.21C695.492 159.57 695.447 160.11 695.402 160.515H676.052C676.592 164.7 679.967 167.49 684.692 167.49C687.482 167.49 689.822 166.545 691.577 164.61L693.962 167.4C691.802 169.92 688.517 171.27 684.557 171.27C676.862 171.27 671.732 166.185 671.732 159.075C671.732 152.01 676.817 146.925 683.702 146.925C690.587 146.925 695.492 151.875 695.492 159.21ZM683.702 150.57C679.562 150.57 676.502 153.36 676.052 157.41H691.352C690.902 153.405 687.887 150.57 683.702 150.57ZM709.516 146.925C716.041 146.925 719.731 150.075 719.731 156.6V171H715.636V167.85C714.196 170.01 711.541 171.27 707.806 171.27C702.406 171.27 698.986 168.39 698.986 164.25C698.986 160.425 701.461 157.275 708.571 157.275H715.411V156.42C715.411 152.775 713.296 150.66 709.021 150.66C706.186 150.66 703.306 151.65 701.461 153.225L699.661 149.985C702.136 148.005 705.691 146.925 709.516 146.925ZM708.526 167.94C711.766 167.94 714.331 166.455 715.411 163.71V160.38H708.751C704.476 160.38 703.261 162.045 703.261 164.07C703.261 166.455 705.241 167.94 708.526 167.94ZM757.561 146.925C763.366 146.925 767.326 150.255 767.326 157.275V171H763.006V157.77C763.006 153.09 760.756 150.795 756.841 150.795C752.521 150.795 749.686 153.54 749.686 158.715V171H745.366V157.77C745.366 153.09 743.116 150.795 739.201 150.795C734.881 150.795 732.046 153.54 732.046 158.715V171H727.726V147.15H731.866V150.705C733.576 148.275 736.501 146.925 740.101 146.925C743.746 146.925 746.806 148.365 748.381 151.335C750.181 148.635 753.511 146.925 757.561 146.925ZM807.055 147.15H810.925L802.015 171H797.875L790.99 152.91L784.015 171H779.875L771.01 147.15H775.105L782.035 166.14L789.235 147.15H792.88L799.945 166.23L807.055 147.15ZM824.865 171.27C817.71 171.27 812.445 166.185 812.445 159.075C812.445 151.965 817.71 146.925 824.865 146.925C832.02 146.925 837.24 151.965 837.24 159.075C837.24 166.185 832.02 171.27 824.865 171.27ZM824.865 167.49C829.455 167.49 832.875 164.16 832.875 159.075C832.875 153.99 829.455 150.705 824.865 150.705C820.275 150.705 816.81 153.99 816.81 159.075C816.81 164.16 820.275 167.49 824.865 167.49ZM847.354 151.155C848.884 148.365 851.854 146.925 856.039 146.925V151.11C855.679 151.065 855.364 151.065 855.049 151.065C850.414 151.065 847.534 153.9 847.534 159.12V171H843.214V147.15H847.354V151.155ZM879.589 171L870.634 159.885L865.684 164.475V171H861.364V137.61H865.684V159.03L878.689 147.15H883.909L873.874 157.005L884.899 171H879.589ZM933.398 147.15H937.268L928.358 171H924.218L917.333 152.91L910.358 171H906.218L897.353 147.15H901.448L908.378 166.14L915.578 147.15H919.223L926.288 166.23L933.398 147.15ZM943.812 142.56C942.147 142.56 940.887 141.345 940.887 139.77C940.887 138.195 942.147 136.935 943.812 136.935C945.477 136.935 946.737 138.15 946.737 139.68C946.737 141.3 945.522 142.56 943.812 142.56ZM941.652 171V147.15H945.972V171H941.652ZM966.28 166.5L967.63 169.605C966.325 170.73 964.345 171.27 962.41 171.27C957.595 171.27 954.85 168.615 954.85 163.8V150.705H950.8V147.15H954.85V141.93H959.17V147.15H966.01V150.705H959.17V163.62C959.17 166.185 960.52 167.625 962.905 167.625C964.165 167.625 965.38 167.22 966.28 166.5ZM985.588 146.925C991.393 146.925 995.488 150.255 995.488 157.275V171H991.168V157.77C991.168 153.09 988.828 150.795 984.733 150.795C980.143 150.795 977.173 153.54 977.173 158.715V171H972.853V137.61H977.173V150.525C978.973 148.23 981.943 146.925 985.588 146.925ZM1027.63 166.5L1028.98 169.605C1027.67 170.73 1025.69 171.27 1023.76 171.27C1018.94 171.27 1016.2 168.615 1016.2 163.8V150.705H1012.15V147.15H1016.2V141.93H1020.52V147.15H1027.36V150.705H1020.52V163.62C1020.52 166.185 1021.87 167.625 1024.25 167.625C1025.51 167.625 1026.73 167.22 1027.63 166.5ZM1046.94 146.925C1052.74 146.925 1056.84 150.255 1056.84 157.275V171H1052.52V157.77C1052.52 153.09 1050.18 150.795 1046.08 150.795C1041.49 150.795 1038.52 153.54 1038.52 158.715V171H1034.2V137.61H1038.52V150.525C1040.32 148.23 1043.29 146.925 1046.94 146.925ZM1086.52 159.21C1086.52 159.57 1086.47 160.11 1086.43 160.515H1067.08C1067.62 164.7 1070.99 167.49 1075.72 167.49C1078.51 167.49 1080.85 166.545 1082.6 164.61L1084.99 167.4C1082.83 169.92 1079.54 171.27 1075.58 171.27C1067.89 171.27 1062.76 166.185 1062.76 159.075C1062.76 152.01 1067.84 146.925 1074.73 146.925C1081.61 146.925 1086.52 151.875 1086.52 159.21ZM1074.73 150.57C1070.59 150.57 1067.53 153.36 1067.08 157.41H1082.38C1081.93 153.405 1078.91 150.57 1074.73 150.57ZM685.93 196.925C691.735 196.925 695.695 200.255 695.695 207.275V221H691.375V207.77C691.375 203.09 689.125 200.795 685.21 200.795C680.89 200.795 678.055 203.54 678.055 208.715V221H673.735V207.77C673.735 203.09 671.485 200.795 667.57 200.795C663.25 200.795 660.415 203.54 660.415 208.715V221H656.095V197.15H660.235V200.705C661.945 198.275 664.87 196.925 668.47 196.925C672.115 196.925 675.175 198.365 676.75 201.335C678.55 198.635 681.88 196.925 685.93 196.925ZM712.329 196.925C718.854 196.925 722.544 200.075 722.544 206.6V221H718.449V217.85C717.009 220.01 714.354 221.27 710.619 221.27C705.219 221.27 701.799 218.39 701.799 214.25C701.799 210.425 704.274 207.275 711.384 207.275H718.224V206.42C718.224 202.775 716.109 200.66 711.834 200.66C708.999 200.66 706.119 201.65 704.274 203.225L702.474 199.985C704.949 198.005 708.504 196.925 712.329 196.925ZM711.339 217.94C714.579 217.94 717.144 216.455 718.224 213.71V210.38H711.564C707.289 210.38 706.074 212.045 706.074 214.07C706.074 216.455 708.054 217.94 711.339 217.94ZM749.39 197.15H753.485V217.76C753.485 226.175 749.21 230 741.11 230C736.745 230 732.335 228.785 729.725 226.445L731.795 223.115C734 225.005 737.465 226.22 740.975 226.22C746.6 226.22 749.165 223.61 749.165 218.21V216.32C747.095 218.795 743.99 220.01 740.57 220.01C733.685 220.01 728.465 215.33 728.465 208.445C728.465 201.56 733.685 196.925 740.57 196.925C744.125 196.925 747.365 198.23 749.39 200.84V197.15ZM741.065 216.23C745.835 216.23 749.255 213.035 749.255 208.445C749.255 203.81 745.835 200.705 741.065 200.705C736.25 200.705 732.83 203.81 732.83 208.445C732.83 213.035 736.25 216.23 741.065 216.23ZM763.9 192.56C762.235 192.56 760.975 191.345 760.975 189.77C760.975 188.195 762.235 186.935 763.9 186.935C765.565 186.935 766.825 188.15 766.825 189.68C766.825 191.3 765.61 192.56 763.9 192.56ZM761.74 221V197.15H766.06V221H761.74ZM784.703 221.27C777.368 221.27 772.103 216.185 772.103 209.075C772.103 201.965 777.368 196.925 784.703 196.925C788.978 196.925 792.533 198.68 794.423 202.01L791.138 204.125C789.608 201.785 787.268 200.705 784.658 200.705C779.978 200.705 776.468 203.99 776.468 209.075C776.468 214.25 779.978 217.49 784.658 217.49C787.268 217.49 789.608 216.41 791.138 214.07L794.423 216.14C792.533 219.47 788.978 221.27 784.703 221.27ZM822.316 221.27C815.161 221.27 809.896 216.185 809.896 209.075C809.896 201.965 815.161 196.925 822.316 196.925C829.471 196.925 834.691 201.965 834.691 209.075C834.691 216.185 829.471 221.27 822.316 221.27ZM822.316 217.49C826.906 217.49 830.326 214.16 830.326 209.075C830.326 203.99 826.906 200.705 822.316 200.705C817.726 200.705 814.261 203.99 814.261 209.075C814.261 214.16 817.726 217.49 822.316 217.49ZM849.395 190.895C846.83 190.895 845.525 192.335 845.525 195.08V197.15H852.455V200.705H845.615V221H841.295V200.705H837.245V197.15H841.295V195.035C841.295 190.4 844.085 187.34 849.17 187.34C851.015 187.34 852.815 187.79 854.03 188.735L852.725 192.02C851.825 191.345 850.655 190.895 849.395 190.895Z" fill="black"/>
<path d="M890.26 192.56C888.595 192.56 887.335 191.345 887.335 189.77C887.335 188.195 888.595 186.935 890.26 186.935C891.925 186.935 893.185 188.15 893.185 189.68C893.185 191.3 891.97 192.56 890.26 192.56ZM869.245 195.035C869.245 190.4 872.035 187.34 877.12 187.34C878.965 187.34 880.765 187.79 881.98 188.735L880.675 192.02C879.775 191.345 878.605 190.895 877.345 190.895C874.78 190.895 873.475 192.335 873.475 195.08V197.15H880.405V200.705H873.565V221H869.245V200.705H865.195V197.15H869.245V195.035ZM888.1 221V197.15H892.42V221H888.1ZM900.651 221V187.61H904.971V221H900.651ZM934.774 209.21C934.774 209.57 934.729 210.11 934.684 210.515H915.334C915.874 214.7 919.249 217.49 923.974 217.49C926.764 217.49 929.104 216.545 930.859 214.61L933.244 217.4C931.084 219.92 927.799 221.27 923.839 221.27C916.144 221.27 911.014 216.185 911.014 209.075C911.014 202.01 916.099 196.925 922.984 196.925C929.869 196.925 934.774 201.875 934.774 209.21ZM922.984 200.57C918.844 200.57 915.784 203.36 915.334 207.41H930.634C930.184 203.405 927.169 200.57 922.984 200.57ZM959.698 221.27C955.738 221.27 951.823 220.055 949.843 218.48L951.643 215.06C953.668 216.5 956.908 217.535 960.013 217.535C964.018 217.535 965.683 216.32 965.683 214.295C965.683 208.94 950.608 213.575 950.608 204.08C950.608 199.805 954.433 196.925 960.553 196.925C963.658 196.925 967.168 197.735 969.238 199.085L967.393 202.505C965.233 201.11 962.848 200.615 960.508 200.615C956.728 200.615 954.883 202.01 954.883 203.9C954.883 209.525 970.003 204.935 970.003 214.205C970.003 218.525 966.043 221.27 959.698 221.27ZM988.137 196.925C993.942 196.925 998.037 200.255 998.037 207.275V221H993.717V207.77C993.717 203.09 991.377 200.795 987.282 200.795C982.692 200.795 979.722 203.54 979.722 208.715V221H975.402V187.61H979.722V200.525C981.522 198.23 984.492 196.925 988.137 196.925ZM1014.72 196.925C1021.24 196.925 1024.93 200.075 1024.93 206.6V221H1020.84V217.85C1019.4 220.01 1016.74 221.27 1013.01 221.27C1007.61 221.27 1004.19 218.39 1004.19 214.25C1004.19 210.425 1006.66 207.275 1013.77 207.275H1020.61V206.42C1020.61 202.775 1018.5 200.66 1014.22 200.66C1011.39 200.66 1008.51 201.65 1006.66 203.225L1004.86 199.985C1007.34 198.005 1010.89 196.925 1014.72 196.925ZM1013.73 217.94C1016.97 217.94 1019.53 216.455 1020.61 213.71V210.38H1013.95C1009.68 210.38 1008.46 212.045 1008.46 214.07C1008.46 216.455 1010.44 217.94 1013.73 217.94ZM1037.07 201.155C1038.6 198.365 1041.57 196.925 1045.75 196.925V201.11C1045.39 201.065 1045.08 201.065 1044.76 201.065C1040.13 201.065 1037.25 203.9 1037.25 209.12V221H1032.93V197.15H1037.07V201.155ZM1053.24 192.56C1051.57 192.56 1050.31 191.345 1050.31 189.77C1050.31 188.195 1051.57 186.935 1053.24 186.935C1054.9 186.935 1056.16 188.15 1056.16 189.68C1056.16 191.3 1054.95 192.56 1053.24 192.56ZM1051.08 221V197.15H1055.4V221H1051.08ZM1076.38 196.925C1082.18 196.925 1086.28 200.255 1086.28 207.275V221H1081.96V207.77C1081.96 203.09 1079.62 200.795 1075.52 200.795C1070.93 200.795 1067.96 203.54 1067.96 208.715V221H1063.64V197.15H1067.78V200.75C1069.54 198.32 1072.6 196.925 1076.38 196.925ZM1113.13 197.15H1117.22V217.76C1117.22 226.175 1112.95 230 1104.85 230C1100.48 230 1096.07 228.785 1093.46 226.445L1095.53 223.115C1097.74 225.005 1101.2 226.22 1104.71 226.22C1110.34 226.22 1112.9 223.61 1112.9 218.21V216.32C1110.83 218.795 1107.73 220.01 1104.31 220.01C1097.42 220.01 1092.2 215.33 1092.2 208.445C1092.2 201.56 1097.42 196.925 1104.31 196.925C1107.86 196.925 1111.1 198.23 1113.13 200.84V197.15ZM1104.8 216.23C1109.57 216.23 1112.99 213.035 1112.99 208.445C1112.99 203.81 1109.57 200.705 1104.8 200.705C1099.99 200.705 1096.57 203.81 1096.57 208.445C1096.57 213.035 1099.99 216.23 1104.8 216.23Z" fill="#00A9FF"/>
<path d="M661.105 273.5H662.605V284H661.375L655.075 276.17V284H653.575V273.5H654.805L661.105 281.33V273.5ZM668.943 284.09C666.558 284.09 664.803 282.395 664.803 280.025C664.803 277.655 666.558 275.975 668.943 275.975C671.328 275.975 673.068 277.655 673.068 280.025C673.068 282.395 671.328 284.09 668.943 284.09ZM668.943 282.83C670.473 282.83 671.613 281.72 671.613 280.025C671.613 278.33 670.473 277.235 668.943 277.235C667.413 277.235 666.258 278.33 666.258 280.025C666.258 281.72 667.413 282.83 668.943 282.83ZM679.079 282.5L679.529 283.535C679.094 283.91 678.434 284.09 677.789 284.09C676.184 284.09 675.269 283.205 675.269 281.6V277.235H673.919V276.05H675.269V274.31H676.709V276.05H678.989V277.235H676.709V281.54C676.709 282.395 677.159 282.875 677.954 282.875C678.374 282.875 678.779 282.74 679.079 282.5ZM688.192 280.07C688.192 280.19 688.177 280.37 688.162 280.505H681.712C681.892 281.9 683.017 282.83 684.592 282.83C685.522 282.83 686.302 282.515 686.887 281.87L687.682 282.8C686.962 283.64 685.867 284.09 684.547 284.09C681.982 284.09 680.272 282.395 680.272 280.025C680.272 277.67 681.967 275.975 684.262 275.975C686.557 275.975 688.192 277.625 688.192 280.07ZM684.262 277.19C682.882 277.19 681.862 278.12 681.712 279.47H686.812C686.662 278.135 685.657 277.19 684.262 277.19ZM689.828 280.505V279.26H693.863V280.505H689.828ZM700.246 282.5L700.696 283.535C700.261 283.91 699.601 284.09 698.956 284.09C697.351 284.09 696.436 283.205 696.436 281.6V277.235H695.086V276.05H696.436V274.31H697.876V276.05H700.156V277.235H697.876V281.54C697.876 282.395 698.326 282.875 699.121 282.875C699.541 282.875 699.946 282.74 700.246 282.5ZM705.332 275.975C707.507 275.975 708.737 277.025 708.737 279.2V284H707.372V282.95C706.892 283.67 706.007 284.09 704.762 284.09C702.962 284.09 701.822 283.13 701.822 281.75C701.822 280.475 702.647 279.425 705.017 279.425H707.297V279.14C707.297 277.925 706.592 277.22 705.167 277.22C704.222 277.22 703.262 277.55 702.647 278.075L702.047 276.995C702.872 276.335 704.057 275.975 705.332 275.975ZM705.002 282.98C706.082 282.98 706.937 282.485 707.297 281.57V280.46H705.077C703.652 280.46 703.247 281.015 703.247 281.69C703.247 282.485 703.907 282.98 705.002 282.98ZM717.477 284L714.492 280.295L712.842 281.825V284H711.402V272.87H712.842V280.01L717.177 276.05H718.917L715.572 279.335L719.247 284H717.477ZM721.263 274.52C720.708 274.52 720.288 274.115 720.288 273.59C720.288 273.065 720.708 272.645 721.263 272.645C721.818 272.645 722.238 273.05 722.238 273.56C722.238 274.1 721.833 274.52 721.263 274.52ZM720.543 284V276.05H721.983V284H720.543ZM728.977 275.975C730.912 275.975 732.277 277.085 732.277 279.425V284H730.837V279.59C730.837 278.03 730.057 277.265 728.692 277.265C727.162 277.265 726.172 278.18 726.172 279.905V284H724.732V276.05H726.112V277.25C726.697 276.44 727.717 275.975 728.977 275.975ZM741.226 276.05H742.591V282.92C742.591 285.725 741.166 287 738.466 287C737.011 287 735.541 286.595 734.671 285.815L735.361 284.705C736.096 285.335 737.251 285.74 738.421 285.74C740.296 285.74 741.151 284.87 741.151 283.07V282.44C740.461 283.265 739.426 283.67 738.286 283.67C735.991 283.67 734.251 282.11 734.251 279.815C734.251 277.52 735.991 275.975 738.286 275.975C739.471 275.975 740.551 276.41 741.226 277.28V276.05ZM738.451 282.41C740.041 282.41 741.181 281.345 741.181 279.815C741.181 278.27 740.041 277.235 738.451 277.235C736.846 277.235 735.706 278.27 735.706 279.815C735.706 281.345 736.846 282.41 738.451 282.41ZM750.091 274.52C749.536 274.52 749.116 274.115 749.116 273.59C749.116 273.065 749.536 272.645 750.091 272.645C750.646 272.645 751.066 273.05 751.066 273.56C751.066 274.1 750.661 274.52 750.091 274.52ZM749.371 284V276.05H750.811V284H749.371ZM755.84 284.09C754.52 284.09 753.215 283.685 752.555 283.16L753.155 282.02C753.83 282.5 754.91 282.845 755.945 282.845C757.28 282.845 757.835 282.44 757.835 281.765C757.835 279.98 752.81 281.525 752.81 278.36C752.81 276.935 754.085 275.975 756.125 275.975C757.16 275.975 758.33 276.245 759.02 276.695L758.405 277.835C757.685 277.37 756.89 277.205 756.11 277.205C754.85 277.205 754.235 277.67 754.235 278.3C754.235 280.175 759.275 278.645 759.275 281.735C759.275 283.175 757.955 284.09 755.84 284.09ZM769.123 282.5L769.573 283.535C769.138 283.91 768.478 284.09 767.833 284.09C766.228 284.09 765.313 283.205 765.313 281.6V277.235H763.963V276.05H765.313V274.31H766.753V276.05H769.033V277.235H766.753V281.54C766.753 282.395 767.203 282.875 767.998 282.875C768.418 282.875 768.823 282.74 769.123 282.5ZM775.559 275.975C777.494 275.975 778.859 277.085 778.859 279.425V284H777.419V279.59C777.419 278.03 776.639 277.265 775.274 277.265C773.744 277.265 772.754 278.18 772.754 279.905V284H771.314V272.87H772.754V277.175C773.354 276.41 774.344 275.975 775.559 275.975ZM788.753 280.07C788.753 280.19 788.738 280.37 788.723 280.505H782.273C782.453 281.9 783.578 282.83 785.153 282.83C786.083 282.83 786.863 282.515 787.448 281.87L788.243 282.8C787.523 283.64 786.428 284.09 785.108 284.09C782.543 284.09 780.833 282.395 780.833 280.025C780.833 277.67 782.528 275.975 784.823 275.975C787.118 275.975 788.753 277.625 788.753 280.07ZM784.823 277.19C783.443 277.19 782.423 278.12 782.273 279.47H787.373C787.223 278.135 786.218 277.19 784.823 277.19ZM798.996 275.975C801.321 275.975 803.016 277.595 803.016 280.025C803.016 282.455 801.321 284.09 798.996 284.09C797.826 284.09 796.806 283.64 796.161 282.74V284H794.781V272.87H796.221V277.25C796.881 276.395 797.871 275.975 798.996 275.975ZM798.876 282.83C800.406 282.83 801.561 281.72 801.561 280.025C801.561 278.33 800.406 277.235 798.876 277.235C797.361 277.235 796.206 278.33 796.206 280.025C796.206 281.72 797.361 282.83 798.876 282.83ZM806.386 277.385C806.896 276.455 807.886 275.975 809.281 275.975V277.37C809.161 277.355 809.056 277.355 808.951 277.355C807.406 277.355 806.446 278.3 806.446 280.04V284H805.006V276.05H806.386V277.385ZM811.775 274.52C811.22 274.52 810.8 274.115 810.8 273.59C810.8 273.065 811.22 272.645 811.775 272.645C812.33 272.645 812.75 273.05 812.75 273.56C812.75 274.1 812.345 274.52 811.775 274.52ZM811.055 284V276.05H812.495V284H811.055ZM821.305 272.87H822.745V284H821.365V282.74C820.72 283.64 819.7 284.09 818.53 284.09C816.205 284.09 814.51 282.455 814.51 280.025C814.51 277.595 816.205 275.975 818.53 275.975C819.655 275.975 820.645 276.395 821.305 277.25V272.87ZM818.65 282.83C820.165 282.83 821.32 281.72 821.32 280.025C821.32 278.33 820.165 277.235 818.65 277.235C817.12 277.235 815.965 278.33 815.965 280.025C815.965 281.72 817.12 282.83 818.65 282.83ZM831.709 276.05H833.074V282.92C833.074 285.725 831.649 287 828.949 287C827.494 287 826.024 286.595 825.154 285.815L825.844 284.705C826.579 285.335 827.734 285.74 828.904 285.74C830.779 285.74 831.634 284.87 831.634 283.07V282.44C830.944 283.265 829.909 283.67 828.769 283.67C826.474 283.67 824.734 282.11 824.734 279.815C824.734 277.52 826.474 275.975 828.769 275.975C829.954 275.975 831.034 276.41 831.709 277.28V276.05ZM828.934 282.41C830.524 282.41 831.664 281.345 831.664 279.815C831.664 278.27 830.524 277.235 828.934 277.235C827.329 277.235 826.189 278.27 826.189 279.815C826.189 281.345 827.329 282.41 828.934 282.41ZM843.011 280.07C843.011 280.19 842.996 280.37 842.981 280.505H836.531C836.711 281.9 837.836 282.83 839.411 282.83C840.341 282.83 841.121 282.515 841.706 281.87L842.501 282.8C841.781 283.64 840.686 284.09 839.366 284.09C836.801 284.09 835.091 282.395 835.091 280.025C835.091 277.67 836.786 275.975 839.081 275.975C841.376 275.975 843.011 277.625 843.011 280.07ZM839.081 277.19C837.701 277.19 836.681 278.12 836.531 279.47H841.631C841.481 278.135 840.476 277.19 839.081 277.19ZM853.254 275.975C855.579 275.975 857.274 277.595 857.274 280.025C857.274 282.455 855.579 284.09 853.254 284.09C852.084 284.09 851.064 283.64 850.419 282.74V284H849.039V272.87H850.479V277.25C851.139 276.395 852.129 275.975 853.254 275.975ZM853.134 282.83C854.664 282.83 855.819 281.72 855.819 280.025C855.819 278.33 854.664 277.235 853.134 277.235C851.619 277.235 850.464 278.33 850.464 280.025C850.464 281.72 851.619 282.83 853.134 282.83ZM866.448 280.07C866.448 280.19 866.433 280.37 866.418 280.505H859.968C860.148 281.9 861.273 282.83 862.848 282.83C863.778 282.83 864.558 282.515 865.143 281.87L865.938 282.8C865.218 283.64 864.123 284.09 862.803 284.09C860.238 284.09 858.528 282.395 858.528 280.025C858.528 277.67 860.223 275.975 862.518 275.975C864.813 275.975 866.448 277.625 866.448 280.07ZM862.518 277.19C861.138 277.19 860.118 278.12 859.968 279.47H865.068C864.918 278.135 863.913 277.19 862.518 277.19ZM872.468 282.5L872.918 283.535C872.483 283.91 871.823 284.09 871.178 284.09C869.573 284.09 868.658 283.205 868.658 281.6V277.235H867.308V276.05H868.658V274.31H870.098V276.05H872.378V277.235H870.098V281.54C870.098 282.395 870.548 282.875 871.343 282.875C871.763 282.875 872.168 282.74 872.468 282.5ZM885.252 276.05H886.542L883.572 284H882.192L879.897 277.97L877.572 284H876.192L873.237 276.05H874.602L876.912 282.38L879.312 276.05H880.527L882.882 282.41L885.252 276.05ZM894.969 280.07C894.969 280.19 894.954 280.37 894.939 280.505H888.489C888.669 281.9 889.794 282.83 891.369 282.83C892.299 282.83 893.079 282.515 893.664 281.87L894.459 282.8C893.739 283.64 892.644 284.09 891.324 284.09C888.759 284.09 887.049 282.395 887.049 280.025C887.049 277.67 888.744 275.975 891.039 275.975C893.334 275.975 894.969 277.625 894.969 280.07ZM891.039 277.19C889.659 277.19 888.639 278.12 888.489 279.47H893.589C893.439 278.135 892.434 277.19 891.039 277.19ZM904.154 280.07C904.154 280.19 904.139 280.37 904.124 280.505H897.674C897.854 281.9 898.979 282.83 900.554 282.83C901.484 282.83 902.264 282.515 902.849 281.87L903.644 282.8C902.924 283.64 901.829 284.09 900.509 284.09C897.944 284.09 896.234 282.395 896.234 280.025C896.234 277.67 897.929 275.975 900.224 275.975C902.519 275.975 904.154 277.625 904.154 280.07ZM900.224 277.19C898.844 277.19 897.824 278.12 897.674 279.47H902.774C902.624 278.135 901.619 277.19 900.224 277.19ZM910.398 275.975C912.333 275.975 913.698 277.085 913.698 279.425V284H912.258V279.59C912.258 278.03 911.478 277.265 910.113 277.265C908.583 277.265 907.593 278.18 907.593 279.905V284H906.153V276.05H907.533V277.25C908.118 276.44 909.138 275.975 910.398 275.975ZM924.636 275.975C926.571 275.975 927.936 277.085 927.936 279.425V284H926.496V279.59C926.496 278.03 925.716 277.265 924.351 277.265C922.821 277.265 921.831 278.18 921.831 279.905V284H920.391V272.87H921.831V277.175C922.431 276.41 923.421 275.975 924.636 275.975ZM937.83 280.07C937.83 280.19 937.815 280.37 937.8 280.505H931.35C931.53 281.9 932.655 282.83 934.23 282.83C935.16 282.83 935.94 282.515 936.525 281.87L937.32 282.8C936.6 283.64 935.505 284.09 934.185 284.09C931.62 284.09 929.91 282.395 929.91 280.025C929.91 277.67 931.605 275.975 933.9 275.975C936.195 275.975 937.83 277.625 937.83 280.07ZM933.9 277.19C932.52 277.19 931.5 278.12 931.35 279.47H936.45C936.3 278.135 935.295 277.19 933.9 277.19ZM942.505 275.975C944.68 275.975 945.91 277.025 945.91 279.2V284H944.545V282.95C944.065 283.67 943.18 284.09 941.935 284.09C940.135 284.09 938.995 283.13 938.995 281.75C938.995 280.475 939.82 279.425 942.19 279.425H944.47V279.14C944.47 277.925 943.765 277.22 942.34 277.22C941.395 277.22 940.435 277.55 939.82 278.075L939.22 276.995C940.045 276.335 941.23 275.975 942.505 275.975ZM942.175 282.98C943.255 282.98 944.11 282.485 944.47 281.57V280.46H942.25C940.825 280.46 940.42 281.015 940.42 281.69C940.42 282.485 941.08 282.98 942.175 282.98ZM949.955 277.385C950.465 276.455 951.455 275.975 952.85 275.975V277.37C952.73 277.355 952.625 277.355 952.52 277.355C950.975 277.355 950.015 278.3 950.015 280.04V284H948.575V276.05H949.955V277.385ZM955.345 274.52C954.79 274.52 954.37 274.115 954.37 273.59C954.37 273.065 954.79 272.645 955.345 272.645C955.9 272.645 956.32 273.05 956.32 273.56C956.32 274.1 955.915 274.52 955.345 274.52ZM954.625 284V276.05H956.065V284H954.625ZM963.059 275.975C964.994 275.975 966.359 277.085 966.359 279.425V284H964.919V279.59C964.919 278.03 964.139 277.265 962.774 277.265C961.244 277.265 960.254 278.18 960.254 279.905V284H958.814V276.05H960.194V277.25C960.779 276.44 961.799 275.975 963.059 275.975ZM975.308 276.05H976.673V282.92C976.673 285.725 975.248 287 972.548 287C971.093 287 969.623 286.595 968.753 285.815L969.443 284.705C970.178 285.335 971.333 285.74 972.503 285.74C974.378 285.74 975.233 284.87 975.233 283.07V282.44C974.543 283.265 973.508 283.67 972.368 283.67C970.073 283.67 968.333 282.11 968.333 279.815C968.333 277.52 970.073 275.975 972.368 275.975C973.553 275.975 974.633 276.41 975.308 277.28V276.05ZM972.533 282.41C974.123 282.41 975.263 281.345 975.263 279.815C975.263 278.27 974.123 277.235 972.533 277.235C970.928 277.235 969.788 278.27 969.788 279.815C969.788 281.345 970.928 282.41 972.533 282.41ZM986.348 275.975C988.523 275.975 989.753 277.025 989.753 279.2V284H988.388V282.95C987.908 283.67 987.023 284.09 985.778 284.09C983.978 284.09 982.838 283.13 982.838 281.75C982.838 280.475 983.663 279.425 986.033 279.425H988.313V279.14C988.313 277.925 987.608 277.22 986.183 277.22C985.238 277.22 984.278 277.55 983.663 278.075L983.063 276.995C983.888 276.335 985.073 275.975 986.348 275.975ZM986.018 282.98C987.098 282.98 987.953 282.485 988.313 281.57V280.46H986.093C984.668 280.46 984.263 281.015 984.263 281.69C984.263 282.485 984.923 282.98 986.018 282.98ZM996.663 275.975C998.598 275.975 999.963 277.085 999.963 279.425V284H998.523V279.59C998.523 278.03 997.743 277.265 996.378 277.265C994.848 277.265 993.858 278.18 993.858 279.905V284H992.418V276.05H993.798V277.25C994.383 276.44 995.403 275.975 996.663 275.975ZM1008.73 272.87H1010.17V284H1008.79V282.74C1008.15 283.64 1007.13 284.09 1005.96 284.09C1003.63 284.09 1001.94 282.455 1001.94 280.025C1001.94 277.595 1003.63 275.975 1005.96 275.975C1007.08 275.975 1008.07 276.395 1008.73 277.25V272.87ZM1006.08 282.83C1007.59 282.83 1008.75 281.72 1008.75 280.025C1008.75 278.33 1007.59 277.235 1006.08 277.235C1004.55 277.235 1003.39 278.33 1003.39 280.025C1003.39 281.72 1004.55 282.83 1006.08 282.83ZM1022.89 276.05H1024.33V284H1022.97V282.8C1022.38 283.625 1021.39 284.09 1020.27 284.09C1018.21 284.09 1016.85 282.965 1016.85 280.625V276.05H1018.29V280.46C1018.29 282.02 1019.07 282.8 1020.43 282.8C1021.93 282.8 1022.89 281.87 1022.89 280.16V276.05ZM1031.32 275.975C1033.26 275.975 1034.62 277.085 1034.62 279.425V284H1033.18V279.59C1033.18 278.03 1032.4 277.265 1031.04 277.265C1029.51 277.265 1028.52 278.18 1028.52 279.905V284H1027.08V276.05H1028.46V277.25C1029.04 276.44 1030.06 275.975 1031.32 275.975ZM1043.39 272.87H1044.83V284H1043.45V282.74C1042.8 283.64 1041.78 284.09 1040.61 284.09C1038.29 284.09 1036.59 282.455 1036.59 280.025C1036.59 277.595 1038.29 275.975 1040.61 275.975C1041.74 275.975 1042.73 276.395 1043.39 277.25V272.87ZM1040.73 282.83C1042.25 282.83 1043.4 281.72 1043.4 280.025C1043.4 278.33 1042.25 277.235 1040.73 277.235C1039.2 277.235 1038.05 278.33 1038.05 280.025C1038.05 281.72 1039.2 282.83 1040.73 282.83ZM1054.74 280.07C1054.74 280.19 1054.72 280.37 1054.71 280.505H1048.26C1048.44 281.9 1049.56 282.83 1051.14 282.83C1052.07 282.83 1052.85 282.515 1053.43 281.87L1054.23 282.8C1053.51 283.64 1052.41 284.09 1051.09 284.09C1048.53 284.09 1046.82 282.395 1046.82 280.025C1046.82 277.67 1048.51 275.975 1050.81 275.975C1053.1 275.975 1054.74 277.625 1054.74 280.07ZM1050.81 277.19C1049.43 277.19 1048.41 278.12 1048.26 279.47H1053.36C1053.21 278.135 1052.2 277.19 1050.81 277.19ZM1058.12 277.385C1058.63 276.455 1059.62 275.975 1061.01 275.975V277.37C1060.89 277.355 1060.79 277.355 1060.68 277.355C1059.14 277.355 1058.18 278.3 1058.18 280.04V284H1056.74V276.05H1058.12V277.385ZM1065.13 284.09C1063.81 284.09 1062.5 283.685 1061.84 283.16L1062.44 282.02C1063.12 282.5 1064.2 282.845 1065.23 282.845C1066.57 282.845 1067.12 282.44 1067.12 281.765C1067.12 279.98 1062.1 281.525 1062.1 278.36C1062.1 276.935 1063.37 275.975 1065.41 275.975C1066.45 275.975 1067.62 276.245 1068.31 276.695L1067.69 277.835C1066.97 277.37 1066.18 277.205 1065.4 277.205C1064.14 277.205 1063.52 277.67 1063.52 278.3C1063.52 280.175 1068.56 278.645 1068.56 281.735C1068.56 283.175 1067.24 284.09 1065.13 284.09ZM1074.38 282.5L1074.83 283.535C1074.4 283.91 1073.74 284.09 1073.09 284.09C1071.49 284.09 1070.57 283.205 1070.57 281.6V277.235H1069.22V276.05H1070.57V274.31H1072.01V276.05H1074.29V277.235H1072.01V281.54C1072.01 282.395 1072.46 282.875 1073.26 282.875C1073.68 282.875 1074.08 282.74 1074.38 282.5ZM1079.47 275.975C1081.64 275.975 1082.87 277.025 1082.87 279.2V284H1081.51V282.95C1081.03 283.67 1080.14 284.09 1078.9 284.09C1077.1 284.09 1075.96 283.13 1075.96 281.75C1075.96 280.475 1076.78 279.425 1079.15 279.425H1081.43V279.14C1081.43 277.925 1080.73 277.22 1079.3 277.22C1078.36 277.22 1077.4 277.55 1076.78 278.075L1076.18 276.995C1077.01 276.335 1078.19 275.975 1079.47 275.975ZM1079.14 282.98C1080.22 282.98 1081.07 282.485 1081.43 281.57V280.46H1079.21C1077.79 280.46 1077.38 281.015 1077.38 281.69C1077.38 282.485 1078.04 282.98 1079.14 282.98ZM1089.78 275.975C1091.72 275.975 1093.08 277.085 1093.08 279.425V284H1091.64V279.59C1091.64 278.03 1090.86 277.265 1089.5 277.265C1087.97 277.265 1086.98 278.18 1086.98 279.905V284H1085.54V276.05H1086.92V277.25C1087.5 276.44 1088.52 275.975 1089.78 275.975ZM1101.85 272.87H1103.29V284H1101.91V282.74C1101.27 283.64 1100.25 284.09 1099.08 284.09C1096.75 284.09 1095.06 282.455 1095.06 280.025C1095.06 277.595 1096.75 275.975 1099.08 275.975C1100.2 275.975 1101.19 276.395 1101.85 277.25V272.87ZM1099.2 282.83C1100.71 282.83 1101.87 281.72 1101.87 280.025C1101.87 278.33 1100.71 277.235 1099.2 277.235C1097.67 277.235 1096.51 278.33 1096.51 280.025C1096.51 281.72 1097.67 282.83 1099.2 282.83ZM1106.74 274.52C1106.18 274.52 1105.76 274.115 1105.76 273.59C1105.76 273.065 1106.18 272.645 1106.74 272.645C1107.29 272.645 1107.71 273.05 1107.71 273.56C1107.71 274.1 1107.31 274.52 1106.74 274.52ZM1106.02 284V276.05H1107.46V284H1106.02ZM1114.45 275.975C1116.39 275.975 1117.75 277.085 1117.75 279.425V284H1116.31V279.59C1116.31 278.03 1115.53 277.265 1114.17 277.265C1112.64 277.265 1111.65 278.18 1111.65 279.905V284H1110.21V276.05H1111.59V277.25C1112.17 276.44 1113.19 275.975 1114.45 275.975ZM1126.7 276.05H1128.06V282.92C1128.06 285.725 1126.64 287 1123.94 287C1122.48 287 1121.01 286.595 1120.14 285.815L1120.83 284.705C1121.57 285.335 1122.72 285.74 1123.89 285.74C1125.77 285.74 1126.62 284.87 1126.62 283.07V282.44C1125.93 283.265 1124.9 283.67 1123.76 283.67C1121.46 283.67 1119.72 282.11 1119.72 279.815C1119.72 277.52 1121.46 275.975 1123.76 275.975C1124.94 275.975 1126.02 276.41 1126.7 277.28V276.05ZM1123.92 282.41C1125.51 282.41 1126.65 281.345 1126.65 279.815C1126.65 278.27 1125.51 277.235 1123.92 277.235C1122.32 277.235 1121.18 278.27 1121.18 279.815C1121.18 281.345 1122.32 282.41 1123.92 282.41ZM1131.18 282.035C1131.75 282.035 1132.15 282.47 1132.15 283.055C1132.15 283.355 1132.09 283.58 1131.9 284.135L1131.19 286.22H1130.25L1130.8 283.985C1130.43 283.85 1130.17 283.505 1130.17 283.055C1130.17 282.455 1130.61 282.035 1131.18 282.035ZM657.58 302.975C659.905 302.975 661.6 304.595 661.6 307.025C661.6 309.455 659.905 311.09 657.58 311.09C656.41 311.09 655.39 310.64 654.745 309.74V311H653.365V299.87H654.805V304.25C655.465 303.395 656.455 302.975 657.58 302.975ZM657.46 309.83C658.99 309.83 660.145 308.72 660.145 307.025C660.145 305.33 658.99 304.235 657.46 304.235C655.945 304.235 654.79 305.33 654.79 307.025C654.79 308.72 655.945 309.83 657.46 309.83ZM670.775 307.07C670.775 307.19 670.76 307.37 670.745 307.505H664.295C664.475 308.9 665.6 309.83 667.175 309.83C668.105 309.83 668.885 309.515 669.47 308.87L670.265 309.8C669.545 310.64 668.45 311.09 667.13 311.09C664.565 311.09 662.855 309.395 662.855 307.025C662.855 304.67 664.55 302.975 666.845 302.975C669.14 302.975 670.775 304.625 670.775 307.07ZM666.845 304.19C665.465 304.19 664.445 305.12 664.295 306.47H669.395C669.245 305.135 668.24 304.19 666.845 304.19ZM676.794 309.5L677.244 310.535C676.809 310.91 676.149 311.09 675.504 311.09C673.899 311.09 672.984 310.205 672.984 308.6V304.235H671.634V303.05H672.984V301.31H674.424V303.05H676.704V304.235H674.424V308.54C674.424 309.395 674.874 309.875 675.669 309.875C676.089 309.875 676.494 309.74 676.794 309.5ZM689.579 303.05H690.869L687.899 311H686.519L684.224 304.97L681.899 311H680.519L677.564 303.05H678.929L681.239 309.38L683.639 303.05H684.854L687.209 309.41L689.579 303.05ZM699.295 307.07C699.295 307.19 699.28 307.37 699.265 307.505H692.815C692.995 308.9 694.12 309.83 695.695 309.83C696.625 309.83 697.405 309.515 697.99 308.87L698.785 309.8C698.065 310.64 696.97 311.09 695.65 311.09C693.085 311.09 691.375 309.395 691.375 307.025C691.375 304.67 693.07 302.975 695.365 302.975C697.66 302.975 699.295 304.625 699.295 307.07ZM695.365 304.19C693.985 304.19 692.965 305.12 692.815 306.47H697.915C697.765 305.135 696.76 304.19 695.365 304.19ZM708.48 307.07C708.48 307.19 708.465 307.37 708.45 307.505H702C702.18 308.9 703.305 309.83 704.88 309.83C705.81 309.83 706.59 309.515 707.175 308.87L707.97 309.8C707.25 310.64 706.155 311.09 704.835 311.09C702.27 311.09 700.56 309.395 700.56 307.025C700.56 304.67 702.255 302.975 704.55 302.975C706.845 302.975 708.48 304.625 708.48 307.07ZM704.55 304.19C703.17 304.19 702.15 305.12 702 306.47H707.1C706.95 305.135 705.945 304.19 704.55 304.19ZM714.724 302.975C716.659 302.975 718.024 304.085 718.024 306.425V311H716.584V306.59C716.584 305.03 715.804 304.265 714.439 304.265C712.909 304.265 711.919 305.18 711.919 306.905V311H710.479V303.05H711.859V304.25C712.444 303.44 713.464 302.975 714.724 302.975ZM726.998 311.09C725.678 311.09 724.373 310.685 723.713 310.16L724.313 309.02C724.988 309.5 726.068 309.845 727.103 309.845C728.438 309.845 728.993 309.44 728.993 308.765C728.993 306.98 723.968 308.525 723.968 305.36C723.968 303.935 725.243 302.975 727.283 302.975C728.318 302.975 729.488 303.245 730.178 303.695L729.563 304.835C728.843 304.37 728.048 304.205 727.268 304.205C726.008 304.205 725.393 304.67 725.393 305.3C725.393 307.175 730.433 305.645 730.433 308.735C730.433 310.175 729.113 311.09 726.998 311.09ZM739.417 307.07C739.417 307.19 739.402 307.37 739.387 307.505H732.937C733.117 308.9 734.242 309.83 735.817 309.83C736.747 309.83 737.527 309.515 738.112 308.87L738.907 309.8C738.187 310.64 737.092 311.09 735.772 311.09C733.207 311.09 731.497 309.395 731.497 307.025C731.497 304.67 733.192 302.975 735.487 302.975C737.782 302.975 739.417 304.625 739.417 307.07ZM735.487 304.19C734.107 304.19 733.087 305.12 732.937 306.47H738.037C737.887 305.135 736.882 304.19 735.487 304.19ZM748.602 307.07C748.602 307.19 748.587 307.37 748.572 307.505H742.122C742.302 308.9 743.427 309.83 745.002 309.83C745.932 309.83 746.712 309.515 747.297 308.87L748.092 309.8C747.372 310.64 746.277 311.09 744.957 311.09C742.392 311.09 740.682 309.395 740.682 307.025C740.682 304.67 742.377 302.975 744.672 302.975C746.967 302.975 748.602 304.625 748.602 307.07ZM744.672 304.19C743.292 304.19 742.272 305.12 742.122 306.47H747.222C747.072 305.135 746.067 304.19 744.672 304.19ZM751.321 301.52C750.766 301.52 750.346 301.115 750.346 300.59C750.346 300.065 750.766 299.645 751.321 299.645C751.876 299.645 752.296 300.05 752.296 300.56C752.296 301.1 751.891 301.52 751.321 301.52ZM750.601 311V303.05H752.041V311H750.601ZM759.036 302.975C760.971 302.975 762.336 304.085 762.336 306.425V311H760.896V306.59C760.896 305.03 760.116 304.265 758.751 304.265C757.221 304.265 756.231 305.18 756.231 306.905V311H754.791V303.05H756.171V304.25C756.756 303.44 757.776 302.975 759.036 302.975ZM771.285 303.05H772.65V309.92C772.65 312.725 771.225 314 768.525 314C767.07 314 765.6 313.595 764.73 312.815L765.42 311.705C766.155 312.335 767.31 312.74 768.48 312.74C770.355 312.74 771.21 311.87 771.21 310.07V309.44C770.52 310.265 769.485 310.67 768.345 310.67C766.05 310.67 764.31 309.11 764.31 306.815C764.31 304.52 766.05 302.975 768.345 302.975C769.53 302.975 770.61 303.41 771.285 304.28V303.05ZM768.51 309.41C770.1 309.41 771.24 308.345 771.24 306.815C771.24 305.27 770.1 304.235 768.51 304.235C766.905 304.235 765.765 305.27 765.765 306.815C765.765 308.345 766.905 309.41 768.51 309.41ZM782.324 302.975C784.499 302.975 785.729 304.025 785.729 306.2V311H784.364V309.95C783.884 310.67 782.999 311.09 781.754 311.09C779.954 311.09 778.814 310.13 778.814 308.75C778.814 307.475 779.639 306.425 782.009 306.425H784.289V306.14C784.289 304.925 783.584 304.22 782.159 304.22C781.214 304.22 780.254 304.55 779.639 305.075L779.039 303.995C779.864 303.335 781.049 302.975 782.324 302.975ZM781.994 309.98C783.074 309.98 783.929 309.485 784.289 308.57V307.46H782.069C780.644 307.46 780.239 308.015 780.239 308.69C780.239 309.485 780.899 309.98 781.994 309.98ZM792.639 302.975C794.574 302.975 795.939 304.085 795.939 306.425V311H794.499V306.59C794.499 305.03 793.719 304.265 792.354 304.265C790.824 304.265 789.834 305.18 789.834 306.905V311H788.394V303.05H789.774V304.25C790.359 303.44 791.379 302.975 792.639 302.975ZM804.708 299.87H806.148V311H804.768V309.74C804.123 310.64 803.103 311.09 801.933 311.09C799.608 311.09 797.913 309.455 797.913 307.025C797.913 304.595 799.608 302.975 801.933 302.975C803.058 302.975 804.048 303.395 804.708 304.25V299.87ZM802.053 309.83C803.568 309.83 804.723 308.72 804.723 307.025C804.723 305.33 803.568 304.235 802.053 304.235C800.523 304.235 799.368 305.33 799.368 307.025C799.368 308.72 800.523 309.83 802.053 309.83ZM814.281 304.385C814.791 303.455 815.781 302.975 817.176 302.975V304.37C817.056 304.355 816.951 304.355 816.846 304.355C815.301 304.355 814.341 305.3 814.341 307.04V311H812.901V303.05H814.281V304.385ZM826.063 307.07C826.063 307.19 826.048 307.37 826.033 307.505H819.583C819.763 308.9 820.888 309.83 822.463 309.83C823.393 309.83 824.173 309.515 824.758 308.87L825.553 309.8C824.833 310.64 823.738 311.09 822.418 311.09C819.853 311.09 818.143 309.395 818.143 307.025C818.143 304.67 819.838 302.975 822.133 302.975C824.428 302.975 826.063 304.625 826.063 307.07ZM822.133 304.19C820.753 304.19 819.733 305.12 819.583 306.47H824.683C824.533 305.135 823.528 304.19 822.133 304.19ZM838.007 302.975C839.942 302.975 841.262 304.085 841.262 306.425V311H839.822V306.59C839.822 305.03 839.072 304.265 837.767 304.265C836.327 304.265 835.382 305.18 835.382 306.905V311H833.942V306.59C833.942 305.03 833.192 304.265 831.887 304.265C830.447 304.265 829.502 305.18 829.502 306.905V311H828.062V303.05H829.442V304.235C830.012 303.425 830.987 302.975 832.187 302.975C833.402 302.975 834.422 303.455 834.947 304.445C835.547 303.545 836.657 302.975 838.007 302.975ZM851.141 307.07C851.141 307.19 851.126 307.37 851.111 307.505H844.661C844.841 308.9 845.966 309.83 847.541 309.83C848.471 309.83 849.251 309.515 849.836 308.87L850.631 309.8C849.911 310.64 848.816 311.09 847.496 311.09C844.931 311.09 843.221 309.395 843.221 307.025C843.221 304.67 844.916 302.975 847.211 302.975C849.506 302.975 851.141 304.625 851.141 307.07ZM847.211 304.19C845.831 304.19 844.811 305.12 844.661 306.47H849.761C849.611 305.135 848.606 304.19 847.211 304.19ZM863.085 302.975C865.02 302.975 866.34 304.085 866.34 306.425V311H864.9V306.59C864.9 305.03 864.15 304.265 862.845 304.265C861.405 304.265 860.46 305.18 860.46 306.905V311H859.02V306.59C859.02 305.03 858.27 304.265 856.965 304.265C855.525 304.265 854.58 305.18 854.58 306.905V311H853.14V303.05H854.52V304.235C855.09 303.425 856.065 302.975 857.265 302.975C858.48 302.975 859.5 303.455 860.025 304.445C860.625 303.545 861.735 302.975 863.085 302.975ZM873.205 302.975C875.53 302.975 877.225 304.595 877.225 307.025C877.225 309.455 875.53 311.09 873.205 311.09C872.035 311.09 871.015 310.64 870.37 309.74V311H868.99V299.87H870.43V304.25C871.09 303.395 872.08 302.975 873.205 302.975ZM873.085 309.83C874.615 309.83 875.77 308.72 875.77 307.025C875.77 305.33 874.615 304.235 873.085 304.235C871.57 304.235 870.415 305.33 870.415 307.025C870.415 308.72 871.57 309.83 873.085 309.83ZM886.4 307.07C886.4 307.19 886.385 307.37 886.37 307.505H879.92C880.1 308.9 881.225 309.83 882.8 309.83C883.73 309.83 884.51 309.515 885.095 308.87L885.89 309.8C885.17 310.64 884.075 311.09 882.755 311.09C880.19 311.09 878.48 309.395 878.48 307.025C878.48 304.67 880.175 302.975 882.47 302.975C884.765 302.975 886.4 304.625 886.4 307.07ZM882.47 304.19C881.09 304.19 880.07 305.12 879.92 306.47H885.02C884.87 305.135 883.865 304.19 882.47 304.19ZM889.779 304.385C890.289 303.455 891.279 302.975 892.674 302.975V304.37C892.554 304.355 892.449 304.355 892.344 304.355C890.799 304.355 889.839 305.3 889.839 307.04V311H888.399V303.05H889.779V304.385ZM895.169 301.52C894.614 301.52 894.194 301.115 894.194 300.59C894.194 300.065 894.614 299.645 895.169 299.645C895.724 299.645 896.144 300.05 896.144 300.56C896.144 301.1 895.739 301.52 895.169 301.52ZM894.449 311V303.05H895.889V311H894.449ZM902.883 302.975C904.818 302.975 906.183 304.085 906.183 306.425V311H904.743V306.59C904.743 305.03 903.963 304.265 902.598 304.265C901.068 304.265 900.078 305.18 900.078 306.905V311H898.638V303.05H900.018V304.25C900.603 303.44 901.623 302.975 902.883 302.975ZM915.132 303.05H916.497V309.92C916.497 312.725 915.072 314 912.372 314C910.917 314 909.447 313.595 908.577 312.815L909.267 311.705C910.002 312.335 911.157 312.74 912.327 312.74C914.202 312.74 915.057 311.87 915.057 310.07V309.44C914.367 310.265 913.332 310.67 912.192 310.67C909.897 310.67 908.157 309.11 908.157 306.815C908.157 304.52 909.897 302.975 912.192 302.975C913.377 302.975 914.457 303.41 915.132 304.28V303.05ZM912.357 309.41C913.947 309.41 915.087 308.345 915.087 306.815C915.087 305.27 913.947 304.235 912.357 304.235C910.752 304.235 909.612 305.27 909.612 306.815C909.612 308.345 910.752 309.41 912.357 309.41ZM919.594 311.09C919.039 311.09 918.574 310.655 918.574 310.055C918.574 309.455 919.039 309.035 919.594 309.035C920.134 309.035 920.584 309.455 920.584 310.055C920.584 310.655 920.134 311.09 919.594 311.09ZM934.416 300.5H935.916V311H934.686L928.386 303.17V311H926.886V300.5H928.116L934.416 308.33V300.5ZM942.253 311.09C939.868 311.09 938.113 309.395 938.113 307.025C938.113 304.655 939.868 302.975 942.253 302.975C944.638 302.975 946.378 304.655 946.378 307.025C946.378 309.395 944.638 311.09 942.253 311.09ZM942.253 309.83C943.783 309.83 944.923 308.72 944.923 307.025C944.923 305.33 943.783 304.235 942.253 304.235C940.723 304.235 939.568 305.33 939.568 307.025C939.568 308.72 940.723 309.83 942.253 309.83ZM952.39 309.5L952.84 310.535C952.405 310.91 951.745 311.09 951.1 311.09C949.495 311.09 948.58 310.205 948.58 308.6V304.235H947.23V303.05H948.58V301.31H950.02V303.05H952.3V304.235H950.02V308.54C950.02 309.395 950.47 309.875 951.265 309.875C951.685 309.875 952.09 309.74 952.39 309.5ZM961.502 307.07C961.502 307.19 961.487 307.37 961.472 307.505H955.022C955.202 308.9 956.327 309.83 957.902 309.83C958.832 309.83 959.612 309.515 960.197 308.87L960.992 309.8C960.272 310.64 959.177 311.09 957.857 311.09C955.292 311.09 953.582 309.395 953.582 307.025C953.582 304.67 955.277 302.975 957.572 302.975C959.867 302.975 961.502 304.625 961.502 307.07ZM957.572 304.19C956.192 304.19 955.172 305.12 955.022 306.47H960.122C959.972 305.135 958.967 304.19 957.572 304.19ZM965.782 311.09C964.462 311.09 963.157 310.685 962.497 310.16L963.097 309.02C963.772 309.5 964.852 309.845 965.887 309.845C967.222 309.845 967.777 309.44 967.777 308.765C967.777 306.98 962.752 308.525 962.752 305.36C962.752 303.935 964.027 302.975 966.067 302.975C967.102 302.975 968.272 303.245 968.962 303.695L968.347 304.835C967.627 304.37 966.832 304.205 966.052 304.205C964.792 304.205 964.177 304.67 964.177 305.3C964.177 307.175 969.217 305.645 969.217 308.735C969.217 310.175 967.897 311.09 965.782 311.09ZM977.94 302.975C980.115 302.975 981.345 304.025 981.345 306.2V311H979.98V309.95C979.5 310.67 978.615 311.09 977.37 311.09C975.57 311.09 974.43 310.13 974.43 308.75C974.43 307.475 975.255 306.425 977.625 306.425H979.905V306.14C979.905 304.925 979.2 304.22 977.775 304.22C976.83 304.22 975.87 304.55 975.255 305.075L974.655 303.995C975.48 303.335 976.665 302.975 977.94 302.975ZM977.61 309.98C978.69 309.98 979.545 309.485 979.905 308.57V307.46H977.685C976.26 307.46 975.855 308.015 975.855 308.69C975.855 309.485 976.515 309.98 977.61 309.98ZM985.39 304.385C985.9 303.455 986.89 302.975 988.285 302.975V304.37C988.165 304.355 988.06 304.355 987.955 304.355C986.41 304.355 985.45 305.3 985.45 307.04V311H984.01V303.05H985.39V304.385ZM997.171 307.07C997.171 307.19 997.156 307.37 997.141 307.505H990.691C990.871 308.9 991.996 309.83 993.571 309.83C994.501 309.83 995.281 309.515 995.866 308.87L996.661 309.8C995.941 310.64 994.846 311.09 993.526 311.09C990.961 311.09 989.251 309.395 989.251 307.025C989.251 304.67 990.946 302.975 993.241 302.975C995.536 302.975 997.171 304.625 997.171 307.07ZM993.241 304.19C991.861 304.19 990.841 305.12 990.691 306.47H995.791C995.641 305.135 994.636 304.19 993.241 304.19ZM1007.22 309.5L1007.67 310.535C1007.23 310.91 1006.57 311.09 1005.93 311.09C1004.32 311.09 1003.41 310.205 1003.41 308.6V304.235H1002.06V303.05H1003.41V301.31H1004.85V303.05H1007.13V304.235H1004.85V308.54C1004.85 309.395 1005.3 309.875 1006.09 309.875C1006.51 309.875 1006.92 309.74 1007.22 309.5ZM1013.65 302.975C1015.59 302.975 1016.95 304.085 1016.95 306.425V311H1015.51V306.59C1015.51 305.03 1014.73 304.265 1013.37 304.265C1011.84 304.265 1010.85 305.18 1010.85 306.905V311H1009.41V299.87H1010.85V304.175C1011.45 303.41 1012.44 302.975 1013.65 302.975ZM1026.85 307.07C1026.85 307.19 1026.83 307.37 1026.82 307.505H1020.37C1020.55 308.9 1021.67 309.83 1023.25 309.83C1024.18 309.83 1024.96 309.515 1025.54 308.87L1026.34 309.8C1025.62 310.64 1024.52 311.09 1023.2 311.09C1020.64 311.09 1018.93 309.395 1018.93 307.025C1018.93 304.67 1020.62 302.975 1022.92 302.975C1025.21 302.975 1026.85 304.625 1026.85 307.07ZM1022.92 304.19C1021.54 304.19 1020.52 305.12 1020.37 306.47H1025.47C1025.32 305.135 1024.31 304.19 1022.92 304.19ZM1037.09 302.975C1039.42 302.975 1041.11 304.595 1041.11 307.025C1041.11 309.455 1039.42 311.09 1037.09 311.09C1035.92 311.09 1034.9 310.64 1034.26 309.74V311H1032.88V299.87H1034.32V304.25C1034.98 303.395 1035.97 302.975 1037.09 302.975ZM1036.97 309.83C1038.5 309.83 1039.66 308.72 1039.66 307.025C1039.66 305.33 1038.5 304.235 1036.97 304.235C1035.46 304.235 1034.3 305.33 1034.3 307.025C1034.3 308.72 1035.46 309.83 1036.97 309.83ZM1044.48 304.385C1044.99 303.455 1045.98 302.975 1047.38 302.975V304.37C1047.26 304.355 1047.15 304.355 1047.05 304.355C1045.5 304.355 1044.54 305.3 1044.54 307.04V311H1043.1V303.05H1044.48V304.385ZM1056.26 307.07C1056.26 307.19 1056.25 307.37 1056.23 307.505H1049.78C1049.96 308.9 1051.09 309.83 1052.66 309.83C1053.59 309.83 1054.37 309.515 1054.96 308.87L1055.75 309.8C1055.03 310.64 1053.94 311.09 1052.62 311.09C1050.05 311.09 1048.34 309.395 1048.34 307.025C1048.34 304.67 1050.04 302.975 1052.33 302.975C1054.63 302.975 1056.26 304.625 1056.26 307.07ZM1052.33 304.19C1050.95 304.19 1049.93 305.12 1049.78 306.47H1054.88C1054.73 305.135 1053.73 304.19 1052.33 304.19ZM1060.94 302.975C1063.11 302.975 1064.34 304.025 1064.34 306.2V311H1062.98V309.95C1062.5 310.67 1061.61 311.09 1060.37 311.09C1058.57 311.09 1057.43 310.13 1057.43 308.75C1057.43 307.475 1058.25 306.425 1060.62 306.425H1062.9V306.14C1062.9 304.925 1062.2 304.22 1060.77 304.22C1059.83 304.22 1058.87 304.55 1058.25 305.075L1057.65 303.995C1058.48 303.335 1059.66 302.975 1060.94 302.975ZM1060.61 309.98C1061.69 309.98 1062.54 309.485 1062.9 308.57V307.46H1060.68C1059.26 307.46 1058.85 308.015 1058.85 308.69C1058.85 309.485 1059.51 309.98 1060.61 309.98ZM1073.11 299.87H1074.55V311H1073.17V309.74C1072.53 310.64 1071.51 311.09 1070.34 311.09C1068.01 311.09 1066.32 309.455 1066.32 307.025C1066.32 304.595 1068.01 302.975 1070.34 302.975C1071.46 302.975 1072.45 303.395 1073.11 304.25V299.87ZM1070.46 309.83C1071.97 309.83 1073.13 308.72 1073.13 307.025C1073.13 305.33 1071.97 304.235 1070.46 304.235C1068.93 304.235 1067.77 305.33 1067.77 307.025C1067.77 308.72 1068.93 309.83 1070.46 309.83ZM1080.74 311.09C1078.3 311.09 1076.54 309.395 1076.54 307.025C1076.54 304.655 1078.3 302.975 1080.74 302.975C1082.17 302.975 1083.35 303.56 1083.98 304.67L1082.89 305.375C1082.38 304.595 1081.6 304.235 1080.73 304.235C1079.17 304.235 1078 305.33 1078 307.025C1078 308.75 1079.17 309.83 1080.73 309.83C1081.6 309.83 1082.38 309.47 1082.89 308.69L1083.98 309.38C1083.35 310.49 1082.17 311.09 1080.74 311.09ZM1087.23 304.385C1087.74 303.455 1088.73 302.975 1090.12 302.975V304.37C1090 304.355 1089.9 304.355 1089.79 304.355C1088.25 304.355 1087.29 305.3 1087.29 307.04V311H1085.85V303.05H1087.23V304.385ZM1097.97 303.05H1099.41V311H1098.04V309.8C1097.46 310.625 1096.47 311.09 1095.34 311.09C1093.29 311.09 1091.92 309.965 1091.92 307.625V303.05H1093.36V307.46C1093.36 309.02 1094.14 309.8 1095.51 309.8C1097.01 309.8 1097.97 308.87 1097.97 307.16V303.05ZM1112.09 302.975C1114.03 302.975 1115.35 304.085 1115.35 306.425V311H1113.91V306.59C1113.91 305.03 1113.16 304.265 1111.85 304.265C1110.41 304.265 1109.47 305.18 1109.47 306.905V311H1108.03V306.59C1108.03 305.03 1107.28 304.265 1105.97 304.265C1104.53 304.265 1103.59 305.18 1103.59 306.905V311H1102.15V303.05H1103.53V304.235C1104.1 303.425 1105.07 302.975 1106.27 302.975C1107.49 302.975 1108.51 303.455 1109.03 304.445C1109.63 303.545 1110.74 302.975 1112.09 302.975ZM1122.21 302.975C1124.54 302.975 1126.23 304.595 1126.23 307.025C1126.23 309.455 1124.54 311.09 1122.21 311.09C1121.04 311.09 1120.02 310.64 1119.38 309.74V311H1118V299.87H1119.44V304.25C1120.1 303.395 1121.09 302.975 1122.21 302.975ZM1122.09 309.83C1123.62 309.83 1124.78 308.72 1124.78 307.025C1124.78 305.33 1123.62 304.235 1122.09 304.235C1120.58 304.235 1119.42 305.33 1119.42 307.025C1119.42 308.72 1120.58 309.83 1122.09 309.83ZM1130.5 311.09C1129.18 311.09 1127.88 310.685 1127.22 310.16L1127.82 309.02C1128.49 309.5 1129.57 309.845 1130.61 309.845C1131.94 309.845 1132.5 309.44 1132.5 308.765C1132.5 306.98 1127.47 308.525 1127.47 305.36C1127.47 303.935 1128.75 302.975 1130.79 302.975C1131.82 302.975 1132.99 303.245 1133.68 303.695L1133.07 304.835C1132.35 304.37 1131.55 304.205 1130.77 304.205C1129.51 304.205 1128.9 304.67 1128.9 305.3C1128.9 307.175 1133.94 305.645 1133.94 308.735C1133.94 310.175 1132.62 311.09 1130.5 311.09ZM653.365 338V326.87H654.805V338H653.365ZM664.739 334.07C664.739 334.19 664.724 334.37 664.709 334.505H658.259C658.439 335.9 659.564 336.83 661.139 336.83C662.069 336.83 662.849 336.515 663.434 335.87L664.229 336.8C663.509 337.64 662.414 338.09 661.094 338.09C658.529 338.09 656.819 336.395 656.819 334.025C656.819 331.67 658.514 329.975 660.809 329.975C663.104 329.975 664.739 331.625 664.739 334.07ZM660.809 331.19C659.429 331.19 658.409 332.12 658.259 333.47H663.359C663.209 332.135 662.204 331.19 660.809 331.19ZM669.414 329.975C671.589 329.975 672.819 331.025 672.819 333.2V338H671.454V336.95C670.974 337.67 670.089 338.09 668.844 338.09C667.044 338.09 665.904 337.13 665.904 335.75C665.904 334.475 666.729 333.425 669.099 333.425H671.379V333.14C671.379 331.925 670.674 331.22 669.249 331.22C668.304 331.22 667.344 331.55 666.729 332.075L666.129 330.995C666.954 330.335 668.139 329.975 669.414 329.975ZM669.084 336.98C670.164 336.98 671.019 336.485 671.379 335.57V334.46H669.159C667.734 334.46 667.329 335.015 667.329 335.69C667.329 336.485 667.989 336.98 669.084 336.98ZM681.588 326.87H683.028V338H681.648V336.74C681.003 337.64 679.983 338.09 678.813 338.09C676.488 338.09 674.793 336.455 674.793 334.025C674.793 331.595 676.488 329.975 678.813 329.975C679.938 329.975 680.928 330.395 681.588 331.25V326.87ZM678.933 336.83C680.448 336.83 681.603 335.72 681.603 334.025C681.603 332.33 680.448 331.235 678.933 331.235C677.403 331.235 676.248 332.33 676.248 334.025C676.248 335.72 677.403 336.83 678.933 336.83ZM686.473 328.52C685.918 328.52 685.498 328.115 685.498 327.59C685.498 327.065 685.918 326.645 686.473 326.645C687.028 326.645 687.448 327.05 687.448 327.56C687.448 328.1 687.043 328.52 686.473 328.52ZM685.753 338V330.05H687.193V338H685.753ZM694.187 329.975C696.122 329.975 697.487 331.085 697.487 333.425V338H696.047V333.59C696.047 332.03 695.267 331.265 693.902 331.265C692.372 331.265 691.382 332.18 691.382 333.905V338H689.942V330.05H691.322V331.25C691.907 330.44 692.927 329.975 694.187 329.975ZM706.436 330.05H707.801V336.92C707.801 339.725 706.376 341 703.676 341C702.221 341 700.751 340.595 699.881 339.815L700.571 338.705C701.306 339.335 702.461 339.74 703.631 339.74C705.506 339.74 706.361 338.87 706.361 337.07V336.44C705.671 337.265 704.636 337.67 703.496 337.67C701.201 337.67 699.461 336.11 699.461 333.815C699.461 331.52 701.201 329.975 703.496 329.975C704.681 329.975 705.761 330.41 706.436 331.28V330.05ZM703.661 336.41C705.251 336.41 706.391 335.345 706.391 333.815C706.391 332.27 705.251 331.235 703.661 331.235C702.056 331.235 700.916 332.27 700.916 333.815C700.916 335.345 702.056 336.41 703.661 336.41ZM718.601 336.5L719.051 337.535C718.616 337.91 717.956 338.09 717.311 338.09C715.706 338.09 714.791 337.205 714.791 335.6V331.235H713.441V330.05H714.791V328.31H716.231V330.05H718.511V331.235H716.231V335.54C716.231 336.395 716.681 336.875 717.476 336.875C717.896 336.875 718.301 336.74 718.601 336.5ZM723.933 338.09C721.548 338.09 719.793 336.395 719.793 334.025C719.793 331.655 721.548 329.975 723.933 329.975C726.318 329.975 728.058 331.655 728.058 334.025C728.058 336.395 726.318 338.09 723.933 338.09ZM723.933 336.83C725.463 336.83 726.603 335.72 726.603 334.025C726.603 332.33 725.463 331.235 723.933 331.235C722.403 331.235 721.248 332.33 721.248 334.025C721.248 335.72 722.403 336.83 723.933 336.83ZM738.098 336.5L738.548 337.535C738.113 337.91 737.453 338.09 736.808 338.09C735.203 338.09 734.288 337.205 734.288 335.6V331.235H732.938V330.05H734.288V328.31H735.728V330.05H738.008V331.235H735.728V335.54C735.728 336.395 736.178 336.875 736.973 336.875C737.393 336.875 737.798 336.74 738.098 336.5ZM744.534 329.975C746.469 329.975 747.834 331.085 747.834 333.425V338H746.394V333.59C746.394 332.03 745.614 331.265 744.249 331.265C742.719 331.265 741.729 332.18 741.729 333.905V338H740.289V326.87H741.729V331.175C742.329 330.41 743.319 329.975 744.534 329.975ZM757.728 334.07C757.728 334.19 757.713 334.37 757.698 334.505H751.248C751.428 335.9 752.553 336.83 754.128 336.83C755.058 336.83 755.838 336.515 756.423 335.87L757.218 336.8C756.498 337.64 755.403 338.09 754.083 338.09C751.518 338.09 749.808 336.395 749.808 334.025C749.808 331.67 751.503 329.975 753.798 329.975C756.093 329.975 757.728 331.625 757.728 334.07ZM753.798 331.19C752.418 331.19 751.398 332.12 751.248 333.47H756.348C756.198 332.135 755.193 331.19 753.798 331.19ZM766.666 327.965C765.811 327.965 765.376 328.445 765.376 329.36V330.05H767.686V331.235H765.406V338H763.966V331.235H762.616V330.05H763.966V329.345C763.966 327.8 764.896 326.78 766.591 326.78C767.206 326.78 767.806 326.93 768.211 327.245L767.776 328.34C767.476 328.115 767.086 327.965 766.666 327.965ZM776.112 334.07C776.112 334.19 776.097 334.37 776.082 334.505H769.632C769.812 335.9 770.937 336.83 772.512 336.83C773.442 336.83 774.222 336.515 774.807 335.87L775.602 336.8C774.882 337.64 773.787 338.09 772.467 338.09C769.902 338.09 768.192 336.395 768.192 334.025C768.192 331.67 769.887 329.975 772.182 329.975C774.477 329.975 776.112 331.625 776.112 334.07ZM772.182 331.19C770.802 331.19 769.782 332.12 769.632 333.47H774.732C774.582 332.135 773.577 331.19 772.182 331.19ZM780.786 329.975C782.961 329.975 784.191 331.025 784.191 333.2V338H782.826V336.95C782.346 337.67 781.461 338.09 780.216 338.09C778.416 338.09 777.276 337.13 777.276 335.75C777.276 334.475 778.101 333.425 780.471 333.425H782.751V333.14C782.751 331.925 782.046 331.22 780.621 331.22C779.676 331.22 778.716 331.55 778.101 332.075L777.501 330.995C778.326 330.335 779.511 329.975 780.786 329.975ZM780.456 336.98C781.536 336.98 782.391 336.485 782.751 335.57V334.46H780.531C779.106 334.46 778.701 335.015 778.701 335.69C778.701 336.485 779.361 336.98 780.456 336.98ZM789.136 338.09C787.816 338.09 786.511 337.685 785.851 337.16L786.451 336.02C787.126 336.5 788.206 336.845 789.241 336.845C790.576 336.845 791.131 336.44 791.131 335.765C791.131 333.98 786.106 335.525 786.106 332.36C786.106 330.935 787.381 329.975 789.421 329.975C790.456 329.975 791.626 330.245 792.316 330.695L791.701 331.835C790.981 331.37 790.186 331.205 789.406 331.205C788.146 331.205 787.531 331.67 787.531 332.3C787.531 334.175 792.571 332.645 792.571 335.735C792.571 337.175 791.251 338.09 789.136 338.09ZM798.391 336.5L798.841 337.535C798.406 337.91 797.746 338.09 797.101 338.09C795.496 338.09 794.581 337.205 794.581 335.6V331.235H793.231V330.05H794.581V328.31H796.021V330.05H798.301V331.235H796.021V335.54C796.021 336.395 796.471 336.875 797.266 336.875C797.686 336.875 798.091 336.74 798.391 336.5ZM808.015 338.09C805.63 338.09 803.875 336.395 803.875 334.025C803.875 331.655 805.63 329.975 808.015 329.975C810.4 329.975 812.14 331.655 812.14 334.025C812.14 336.395 810.4 338.09 808.015 338.09ZM808.015 336.83C809.545 336.83 810.685 335.72 810.685 334.025C810.685 332.33 809.545 331.235 808.015 331.235C806.485 331.235 805.33 332.33 805.33 334.025C805.33 335.72 806.485 336.83 808.015 336.83ZM817.042 327.965C816.187 327.965 815.752 328.445 815.752 329.36V330.05H818.062V331.235H815.782V338H814.342V331.235H812.992V330.05H814.342V329.345C814.342 327.8 815.272 326.78 816.967 326.78C817.582 326.78 818.182 326.93 818.587 327.245L818.152 328.34C817.852 328.115 817.462 327.965 817.042 327.965ZM829.523 338L826.538 334.295L824.888 335.825V338H823.448V326.87H824.888V334.01L829.223 330.05H830.963L827.618 333.335L831.293 338H829.523ZM836.834 329.975C838.769 329.975 840.134 331.085 840.134 333.425V338H838.694V333.59C838.694 332.03 837.914 331.265 836.549 331.265C835.019 331.265 834.029 332.18 834.029 333.905V338H832.589V330.05H833.969V331.25C834.554 330.44 835.574 329.975 836.834 329.975ZM846.248 338.09C843.863 338.09 842.108 336.395 842.108 334.025C842.108 331.655 843.863 329.975 846.248 329.975C848.633 329.975 850.373 331.655 850.373 334.025C850.373 336.395 848.633 338.09 846.248 338.09ZM846.248 336.83C847.778 336.83 848.918 335.72 848.918 334.025C848.918 332.33 847.778 331.235 846.248 331.235C844.718 331.235 843.563 332.33 843.563 334.025C843.563 335.72 844.718 336.83 846.248 336.83ZM862.884 330.05H864.174L861.204 338H859.824L857.529 331.97L855.204 338H853.824L850.869 330.05H852.234L854.544 336.38L856.944 330.05H858.159L860.514 336.41L862.884 330.05ZM865.636 338V326.87H867.076V338H865.636ZM877.01 334.07C877.01 334.19 876.995 334.37 876.98 334.505H870.53C870.71 335.9 871.835 336.83 873.41 336.83C874.34 336.83 875.12 336.515 875.705 335.87L876.5 336.8C875.78 337.64 874.685 338.09 873.365 338.09C870.8 338.09 869.09 336.395 869.09 334.025C869.09 331.67 870.785 329.975 873.08 329.975C875.375 329.975 877.01 331.625 877.01 334.07ZM873.08 331.19C871.7 331.19 870.68 332.12 870.53 333.47H875.63C875.48 332.135 874.475 331.19 873.08 331.19ZM885.07 326.87H886.51V338H885.13V336.74C884.485 337.64 883.465 338.09 882.295 338.09C879.97 338.09 878.275 336.455 878.275 334.025C878.275 331.595 879.97 329.975 882.295 329.975C883.42 329.975 884.41 330.395 885.07 331.25V326.87ZM882.415 336.83C883.93 336.83 885.085 335.72 885.085 334.025C885.085 332.33 883.93 331.235 882.415 331.235C880.885 331.235 879.73 332.33 879.73 334.025C879.73 335.72 880.885 336.83 882.415 336.83ZM895.474 330.05H896.839V336.92C896.839 339.725 895.414 341 892.714 341C891.259 341 889.789 340.595 888.919 339.815L889.609 338.705C890.344 339.335 891.499 339.74 892.669 339.74C894.544 339.74 895.399 338.87 895.399 337.07V336.44C894.709 337.265 893.674 337.67 892.534 337.67C890.239 337.67 888.499 336.11 888.499 333.815C888.499 331.52 890.239 329.975 892.534 329.975C893.719 329.975 894.799 330.41 895.474 331.28V330.05ZM892.699 336.41C894.289 336.41 895.429 335.345 895.429 333.815C895.429 332.27 894.289 331.235 892.699 331.235C891.094 331.235 889.954 332.27 889.954 333.815C889.954 335.345 891.094 336.41 892.699 336.41ZM906.776 334.07C906.776 334.19 906.761 334.37 906.746 334.505H900.296C900.476 335.9 901.601 336.83 903.176 336.83C904.106 336.83 904.886 336.515 905.471 335.87L906.266 336.8C905.546 337.64 904.451 338.09 903.131 338.09C900.566 338.09 898.856 336.395 898.856 334.025C898.856 331.67 900.551 329.975 902.846 329.975C905.141 329.975 906.776 331.625 906.776 334.07ZM902.846 331.19C901.466 331.19 900.446 332.12 900.296 333.47H905.396C905.246 332.135 904.241 331.19 902.846 331.19ZM913.148 338.09C912.593 338.09 912.128 337.655 912.128 337.055C912.128 336.455 912.593 336.035 913.148 336.035C913.688 336.035 914.138 336.455 914.138 337.055C914.138 337.655 913.688 338.09 913.148 338.09Z" fill="black" fill-opacity="0.7"/>
<path d="M232.92 95.4769H131.3V225.643H232.92V95.4769Z" fill="#F6F5F5"/>
<path d="M142.415 123.302L182.11 123.197L221.805 123.302L182.11 123.398L142.415 123.302Z" fill="#63B4B8"/>
<path d="M142.415 126.528L182.11 126.432L221.805 126.528L182.11 126.633L142.415 126.528Z" fill="#63B4B8"/>
<path d="M142.415 129.763L182.11 129.658L221.805 129.763L182.11 129.859L142.415 129.763Z" fill="#63B4B8"/>
<path d="M142.415 132.989L182.11 132.893L221.805 132.989L182.11 133.085L142.415 132.989Z" fill="#63B4B8"/>
<path d="M142.415 136.224L182.11 136.119L221.805 136.224L182.11 136.32L142.415 136.224Z" fill="#63B4B8"/>
<path d="M142.415 139.45L182.11 139.354L221.805 139.45L182.11 139.546L142.415 139.45Z" fill="#63B4B8"/>
<path d="M142.415 142.676L182.11 142.58L221.805 142.676L182.11 142.781L142.415 142.676Z" fill="#63B4B8"/>
<path d="M142.415 145.911L182.11 145.815L221.805 145.911L182.11 146.007L142.415 145.911Z" fill="#63B4B8"/>
<path d="M142.415 149.137L182.11 149.041L221.805 149.137L182.11 149.242L142.415 149.137Z" fill="#63B4B8"/>
<path d="M142.415 152.372L182.11 152.267L221.805 152.372L182.11 152.468L142.415 152.372Z" fill="#63B4B8"/>
<path d="M142.415 155.598L182.11 155.502L221.805 155.598L182.11 155.703L142.415 155.598Z" fill="#63B4B8"/>
<path d="M142.415 158.833L182.11 158.728L221.805 158.833L182.11 158.929L142.415 158.833Z" fill="#63B4B8"/>
<path d="M142.415 162.059L182.11 161.963L221.805 162.059L182.11 162.164L142.415 162.059Z" fill="#63B4B8"/>
<path d="M142.415 165.294L182.11 165.189L221.805 165.294L182.11 165.39L142.415 165.294Z" fill="#63B4B8"/>
<path d="M142.415 168.52L182.11 168.423L221.805 168.52L182.11 168.625L142.415 168.52Z" fill="#63B4B8"/>
<path d="M156.833 158.728H150.814V172.281H156.833V158.728Z" fill="#279FF2"/>
<path d="M168 151.495H161.981V172.281H168V151.495Z" fill="#279FF2"/>
<path d="M179.167 143.404H173.148V172.29H179.167V143.404Z" fill="#63B4B8"/>
<path d="M190.334 139.932H184.315V172.29H190.334V139.932Z" fill="#63B4B8"/>
<path d="M201.501 133.734H195.482V172.289H201.501V133.734Z" fill="#63B4B8"/>
<path d="M212.668 127.606H206.649V172.281H212.668V127.606Z" fill="#63B4B8"/>
<path d="M144.567 121.031L144.725 133.848L144.831 146.656C144.91 155.204 144.927 163.742 144.945 172.29L144.567 171.913H163.897L183.226 171.956L202.555 172.079L221.884 172.298L202.555 172.518L183.226 172.64H144.198V172.272C144.198 163.725 144.233 155.186 144.304 146.639L144.418 133.831L144.567 121.031Z" fill="#63B4B8"/>
<path d="M156.833 174.998H150.814V175.542H156.833V174.998Z" fill="#C7C7C7"/>
<path d="M168 174.998H161.981V175.542H168V174.998Z" fill="#C7C7C7"/>
<path d="M179.167 174.998H173.148V175.542H179.167V174.998Z" fill="#C7C7C7"/>
<path d="M190.334 174.998H184.315V175.542H190.334V174.998Z" fill="#C7C7C7"/>
<path d="M201.501 174.998H195.482V175.542H201.501V174.998Z" fill="#C7C7C7"/>
<path d="M212.668 174.998H206.649V175.542H212.668V174.998Z" fill="#C7C7C7"/>
<path d="M151.491 160.437C154.434 160.393 157.36 160.174 160.277 159.78C163.194 159.403 166.102 158.877 168.966 158.202C174.686 156.913 180.239 154.967 185.501 152.389C190.782 149.847 195.649 146.542 199.954 142.571L200.772 141.834L201.545 141.054L203.074 139.485C204.022 138.372 205.042 137.311 205.903 136.127C207.73 133.822 209.373 131.385 210.84 128.842H210.884C206.887 136.811 200.93 143.632 193.567 148.681C191.133 150.364 188.568 151.872 185.906 153.17C175.187 158.281 163.405 160.77 151.535 160.437H151.491Z" fill="#263238"/>
<path d="M212.527 133.042L211.693 133.252L210.665 129.149L206.641 130.473L206.377 129.658L211.28 128.053L212.527 133.042Z" fill="#263238"/>
<path d="M223.501 192.444H140.719V195.784H223.501V192.444Z" fill="#DBDBDB"/>
<path d="M187.329 200.877H140.719V204.217H187.329V200.877Z" fill="#DBDBDB"/>
<path d="M205.411 109.863H158.801V113.203H205.411V109.863Z" fill="#63B4B8"/>
<path d="M213.713 257.378L114.168 277.786L87.9148 150.285L161.823 135.137L192.46 154.178L213.713 257.378Z" fill="#279FF2"/>
<path d="M213.713 257.378L114.168 277.786L87.9148 150.285L161.823 135.137L192.46 154.178L213.713 257.378Z" fill="#BBE2EC"/>
<path opacity="0.7" d="M161.823 135.137L192.46 154.178L166.822 159.429L161.823 135.137Z" fill="#0C359E"/>
<path d="M157.38 158.345L102.033 169.691L102.707 172.963L158.054 161.617L157.38 158.345Z" fill="#FFF6E9"/>
<path d="M159.073 166.611L103.726 177.957L104.399 181.229L159.746 169.883L159.073 166.611Z" fill="#FFF6E9"/>
<path d="M160.782 174.865L105.435 186.211L106.109 189.482L161.456 178.136L160.782 174.865Z" fill="#FFF6E9"/>
<path d="M188.227 177.855L107.139 194.478L107.812 197.75L188.901 181.127L188.227 177.855Z" fill="#FFF6E9"/>
<path d="M190.122 185.815L108.994 202.329L109.663 205.602L190.792 189.088L190.122 185.815Z" fill="#FFF6E9"/>
<path d="M191.64 194.374L110.551 210.997L111.225 214.269L192.313 197.646L191.64 194.374Z" fill="#FFF6E9"/>
<path d="M193.343 202.647L112.254 219.27L112.928 222.542L194.016 205.919L193.343 202.647Z" fill="#FFF6E9"/>
<path d="M195.035 210.904L113.947 227.527L114.62 230.799L195.709 214.176L195.035 210.904Z" fill="#FFF6E9"/>
<path d="M196.729 219.17L115.641 235.793L116.315 239.065L197.403 222.442L196.729 219.17Z" fill="#FFF6E9"/>
<path d="M198.441 227.434L117.352 244.057L118.026 247.328L199.115 230.706L198.441 227.434Z" fill="#FFF6E9"/>
<path d="M200.15 235.696L119.062 252.319L119.736 255.591L200.824 238.968L200.15 235.696Z" fill="#FFF6E9"/>
<path d="M201.845 243.962L120.756 260.585L121.43 263.856L202.518 247.234L201.845 243.962Z" fill="#FFF6E9"/>
<path d="M417.831 164.706L306.327 172.807C293.631 124.643 307.206 76.4798 297.339 28.3162L408.825 20.2159C421.53 68.3794 407.947 116.543 417.831 164.706Z" fill="#F6F5F5"/>
<path opacity="0.7" d="M310.799 48.9527L373.4 44.4554C373.54 45.6915 373.663 46.9276 373.769 48.1637L311.089 52.6697C311.001 51.4249 310.905 50.1888 310.799 48.9527Z" fill="#0C359E"/>
<path opacity="0.7" d="M311.423 58.3243L374.217 53.8182C374.296 55.0543 374.366 56.2904 374.428 57.5265L311.572 62.0325C311.528 60.7964 311.476 59.5603 311.423 58.3243Z" fill="#0C359E"/>
<path opacity="0.7" d="M311.713 67.6869L374.656 63.1809C374.656 64.417 374.718 65.6531 374.744 66.8892L311.748 71.4127C311.748 70.1591 311.73 68.923 311.713 67.6869Z" fill="#0C359E"/>
<path opacity="0.7" d="M311.748 77.0496L404.116 70.4572V74.1654L311.695 80.7579C311.731 79.5218 311.748 78.2857 311.748 77.0496Z" fill="#0C359E"/>
<path d="M311.625 86.4123L404.107 79.8198L404.054 83.5281L311.546 90.1293L311.625 86.4123Z" fill="#DBDBDB"/>
<path d="M311.405 95.7837L403.94 89.1825C403.94 90.4186 403.887 91.6547 403.852 92.8908L311.3 99.4657C311.344 98.2559 311.379 97.0198 311.405 95.7837Z" fill="#DBDBDB"/>
<path d="M311.186 105.146L403.712 98.589C403.712 99.8251 403.659 101.07 403.624 102.306L311.115 108.898C311.142 107.619 311.159 106.382 311.186 105.146Z" fill="#DBDBDB"/>
<path d="M311.045 114.509L403.554 107.917C403.554 109.153 403.51 110.389 403.492 111.625L311.063 118.217C311.028 116.999 311.028 115.745 311.045 114.509Z" fill="#DBDBDB"/>
<path d="M311.054 123.872L403.395 117.279V120.988L311.142 127.589C311.089 126.353 311.072 125.117 311.054 123.872Z" fill="#DBDBDB"/>
<path d="M311.3 133.243L403.474 126.642C403.474 127.878 403.527 129.114 403.571 130.359L311.485 136.952C311.414 135.715 311.353 134.479 311.3 133.243Z" fill="#DBDBDB"/>
<path d="M311.871 142.606L403.808 136.005C403.87 137.25 403.949 138.486 404.028 139.722L312.179 146.314C312.073 145.052 311.968 143.842 311.871 142.606Z" fill="#DBDBDB"/>
<path d="M312.838 151.969L404.485 145.376C404.599 146.612 404.722 147.848 404.863 149.084L313.347 155.686C313.163 154.45 312.996 153.205 312.838 151.969Z" fill="#DBDBDB"/>
<path d="M401.972 216.271C363.524 209.767 325.516 203.271 287.938 196.783C292.849 149.19 316.923 101.631 315.693 54.0724C354.141 60.5772 392.149 67.082 429.727 73.5868C424.851 121.145 400.742 168.73 401.972 216.271Z" fill="#BBE2EC"/>
<path d="M325.147 76.9882C345.987 80.6088 366.731 84.2206 387.378 87.8412C387.167 89.0685 386.948 90.287 386.719 91.5056C366.116 87.8938 345.425 84.2732 324.664 80.6526C324.839 79.434 324.997 78.2155 325.147 76.9882Z" fill="#E78895"/>
<path d="M323.811 86.2369C344.485 89.8575 365.079 93.4694 385.604 97.0899C385.34 98.3173 385.076 99.5358 384.804 100.754C364.333 97.1425 343.791 93.522 323.17 89.9014C323.39 88.6828 323.6 87.4643 323.811 86.2369Z" fill="#E78895"/>
<path d="M322.089 95.4857L383.521 106.339C383.223 107.557 382.933 108.785 382.643 110.003C362.259 106.383 341.823 102.762 321.334 99.1501C321.58 97.9316 321.843 96.713 322.089 95.4857Z" fill="#E78895"/>
<path d="M320.086 104.726C350.029 110.029 379.875 115.333 409.616 120.628C409.291 121.847 408.957 123.065 408.623 124.293C378.882 118.998 349.08 113.703 319.207 108.399C319.471 107.18 319.761 105.962 320.086 104.726Z" fill="#E78895"/>
<path d="M317.775 113.983C347.604 119.287 377.362 124.591 407.068 129.886C406.734 131.104 406.4 132.323 406.057 133.55L316.826 117.648C317.143 116.429 317.45 115.246 317.775 113.983Z" fill="#E78895"/>
<path d="M315.333 123.232L404.502 139.134C404.169 140.353 403.826 141.571 403.492 142.799L314.34 126.896C314.674 125.678 315.008 124.45 315.333 123.232Z" fill="#E78895"/>
<path d="M312.802 132.481L401.981 148.383C401.647 149.602 401.322 150.82 400.997 152.039C371.221 146.744 341.48 141.449 311.783 136.145C312.126 134.926 312.46 133.699 312.802 132.481Z" fill="#E78895"/>
<path d="M310.246 141.729C339.969 147.024 369.736 152.319 399.556 157.623C399.248 158.85 398.941 160.069 398.677 161.287C368.805 155.992 339.002 150.697 309.27 145.394C309.543 144.175 309.903 142.948 310.246 141.729Z" fill="#E78895"/>
<path d="M307.786 150.978C337.553 156.273 367.408 161.568 397.351 166.872C397.069 168.099 396.797 169.318 396.525 170.536C366.512 165.241 336.613 159.946 306.819 154.642C307.091 153.415 307.417 152.197 307.786 150.978Z" fill="#E78895"/>
<path d="M305.361 160.227C335.233 165.522 365.22 170.817 395.312 176.121C395.066 177.348 394.838 178.566 394.609 179.785C364.403 174.49 334.355 169.195 304.464 163.891C304.754 162.664 305.053 161.445 305.361 160.227Z" fill="#E78895"/>
<path d="M303.173 169.467C333.177 174.77 363.34 180.074 393.669 185.369C393.467 186.588 393.283 187.815 393.107 189.034C362.672 183.739 332.43 178.426 302.382 173.105C302.637 171.913 302.901 170.694 303.173 169.467Z" fill="#E78895"/>
<path d="M301.258 178.715C331.438 184.019 361.811 189.314 392.36 194.618C392.219 195.837 392.096 197.064 391.982 198.282C361.293 192.979 330.831 187.675 300.607 182.38C300.809 181.161 301.029 179.943 301.258 178.715Z" fill="#E78895"/>
<path d="M355.459 196.766H158.396V339.293H355.459V196.766Z" fill="#279FF2"/>
<path d="M228.026 182.003H158.396V196.766H232.024L228.026 182.003Z" fill="#279FF2"/>
<g opacity="0.1">
<path d="M355.459 196.766H158.396V339.293H355.459V196.766Z" fill="black"/>
<path d="M228.026 182.003H158.396V196.766H232.024L228.026 182.003Z" fill="black"/>
</g>
<path d="M354.114 285.966C315.64 274.981 278.027 264.128 240.994 253.38C250.307 209.942 276.402 167.389 278.177 123.311C316.616 133.664 354.202 144.017 391.253 154.414C381.773 198.537 355.713 241.493 354.114 285.966Z" fill="#C499F3"/>
<path d="M348.026 205.26C342.306 220.506 324.971 229 308.796 224.231C292.621 219.462 284.142 203.358 289.721 188.201C295.301 173.043 311.985 164.417 328.38 169.09C344.775 173.762 353.816 190.007 348.026 205.26Z" fill="#33186B"/>
<path d="M318.891 196.704C312.258 204.261 305.545 211.8 299 219.34C289.273 212.195 285.487 199.475 289.721 188.192C295.222 173.105 312.091 164.435 328.38 169.081C344.669 173.727 353.798 190.121 348.043 205.252C338.326 202.394 328.609 199.545 318.891 196.704Z" fill="#DBDBDB"/>
<path d="M318.891 196.704C324.672 204.463 330.392 212.221 336.235 220.006C328.169 225.397 318.118 226.94 308.796 224.223C292.647 219.497 284.195 203.253 289.721 188.192C295.248 173.131 312.091 164.435 328.38 169.081C344.669 173.727 353.798 190.121 348.043 205.252C338.326 202.394 328.609 199.545 318.891 196.704Z" fill="#FFF6E9"/>
<path d="M318.891 196.704L288.325 201.789C287.648 197.213 288.122 192.54 289.721 188.192C295.222 173.105 312.091 164.435 328.38 169.081C344.669 173.727 353.798 190.121 348.043 205.252C338.326 202.394 328.609 199.545 318.891 196.704Z" fill="#7360DF"/>
<path d="M286.875 142.422C302.496 146.752 318.004 151.083 333.397 155.423C333.125 156.553 332.852 157.676 332.562 158.798C317.213 154.458 301.776 150.119 286.242 145.788C286.462 144.666 286.699 143.544 286.875 142.422Z" fill="#FFF6E9"/>
<path d="M283.352 229.263C303.929 235.321 324.62 241.405 345.416 247.507C345.109 248.629 344.801 249.751 344.538 250.873C323.644 244.754 302.892 238.661 282.28 232.603C282.614 231.49 282.983 230.377 283.352 229.263Z" fill="#DBDBDB"/>
<path d="M280.663 237.697C301.372 243.772 322.23 249.882 343.228 256.019C342.965 257.141 342.71 258.272 342.464 259.394C321.378 253.24 300.449 247.121 279.67 241.037C279.995 239.924 280.32 238.81 280.663 237.697Z" fill="#DBDBDB"/>
<path d="M278.256 246.121C299.131 252.232 320.191 258.368 341.427 264.531C341.216 265.653 341.014 266.784 340.83 267.915C319.48 261.726 298.332 255.572 277.386 249.462C277.667 248.357 277.957 247.235 278.256 246.121Z" fill="#DBDBDB"/>
<path d="M271.183 229.351L263.697 227.159L264.831 223.828L272.308 226.029C271.93 227.133 271.552 228.246 271.183 229.351Z" fill="#279FF2"/>
<path d="M268.521 237.767L260.982 235.558C261.325 234.453 261.676 233.34 262.028 232.227L269.549 234.436C269.197 235.54 268.855 236.654 268.521 237.767Z" fill="#455A64"/>
<path d="M266.149 246.192L258.584 243.974C258.882 242.86 259.19 241.756 259.506 240.642L267.08 242.852C266.746 243.965 266.438 245.078 266.149 246.192Z" fill="#DBDBDB"/>
<path d="M354.94 339.293H157.878L142.678 208.601H339.74L354.94 339.293Z" fill="#00A9FF"/>
<path d="M210.735 195.056H141.106L142.678 208.601H216.305L210.735 195.056Z" fill="#00A9FF"/>
<path d="M277.439 108.548C277.131 107.408 276.982 106.225 276.999 105.041C276.973 103.858 277.122 102.674 277.439 101.535C278.027 103.831 278.027 106.251 277.439 108.548Z" fill="#FFD28F"/>
<path d="M270.287 110.608C269.452 109.775 268.732 108.828 268.152 107.794C267.545 106.777 267.08 105.681 266.781 104.542C267.616 105.374 268.336 106.321 268.916 107.356C269.522 108.372 269.988 109.468 270.287 110.608Z" fill="#FFD28F"/>
<path d="M265.138 115.956C263.996 115.657 262.898 115.193 261.879 114.588C260.842 114.018 259.893 113.299 259.058 112.458C260.2 112.756 261.299 113.22 262.318 113.825C263.346 114.404 264.295 115.123 265.138 115.956Z" fill="#FFD28F"/>
<path d="M263.355 123.135C261.053 123.723 258.628 123.723 256.326 123.135C258.636 122.557 261.044 122.557 263.355 123.135Z" fill="#FFD28F"/>
<path d="M265.419 130.298C264.585 131.131 263.636 131.849 262.599 132.428C261.58 133.033 260.482 133.498 259.339 133.796C261.044 132.139 263.126 130.929 265.419 130.289V130.298Z" fill="#FFD28F"/>
<path d="M270.779 135.409C270.471 136.548 270.014 137.644 269.408 138.661C268.828 139.695 268.117 140.633 267.273 141.466C267.572 140.327 268.038 139.231 268.644 138.223C269.224 137.188 269.935 136.241 270.779 135.409Z" fill="#FFD28F"/>
<path d="M278.001 137.223C278.59 139.52 278.59 141.94 278.001 144.237C277.412 141.94 277.412 139.52 278.001 137.223Z" fill="#FFD28F"/>
<path d="M285.153 135.154C285.987 135.996 286.708 136.943 287.288 137.968C287.894 138.985 288.36 140.081 288.658 141.221C287.815 140.388 287.094 139.441 286.523 138.407C285.917 137.39 285.451 136.294 285.153 135.154Z" fill="#FFD28F"/>
<path d="M290.31 129.807C291.452 130.105 292.551 130.569 293.561 131.174C294.589 131.753 295.529 132.472 296.364 133.305C294.079 132.665 291.988 131.464 290.293 129.798H290.31V129.807Z" fill="#FFD28F"/>
<path d="M292.085 122.601C293.227 122.294 294.413 122.145 295.599 122.162C296.785 122.136 297.972 122.285 299.114 122.601C297.972 122.916 296.785 123.065 295.599 123.039C294.413 123.056 293.227 122.907 292.085 122.601Z" fill="#FFD28F"/>
<path d="M290.02 115.473C290.855 114.641 291.804 113.922 292.841 113.343C293.851 112.729 294.949 112.265 296.1 111.967C295.265 112.808 294.317 113.527 293.28 114.097C292.261 114.702 291.162 115.167 290.02 115.473Z" fill="#FFD28F"/>
<path d="M284.661 110.327C284.959 109.188 285.425 108.092 286.031 107.075C286.602 106.041 287.323 105.094 288.166 104.261C287.868 105.401 287.402 106.496 286.796 107.513C286.216 108.548 285.495 109.495 284.661 110.327Z" fill="#FFD28F"/>
<path opacity="0.7" d="M281.023 268.099H326.175C327.493 265.285 328.257 262.234 328.415 259.131V223.074H283.264V259.631C283.264 263.251 281.023 268.099 281.023 268.099Z" fill="#3767D3"/>
<path d="M6.14311 145.806L74.6743 146.218L74.3404 149.391L74.0856 176.445L73.5057 195.644L72.6623 211.178L71.4937 228.79L63.8762 228.545L63.2963 230.71L10.3253 228.79L2.29482 228.29L6.23097 145.552" fill="#C499F3"/>
<path d="M68.647 229.211L69.8156 239.564L69.6486 247.244L69.4817 252.416L69.3148 257.763L68.3132 266.442C68.3132 266.442 65.1326 300.676 65.9673 311.029L53.9216 311.529L54.0886 312.861L5.72138 313.194L7.73338 277.129L7.90031 259.929L7.3995 244.736L7.06564 232.717L6.39789 228.378L37.3599 229.377L56.1006 230.377L63.2524 231.087L63.7532 228.334L68.647 229.211Z" fill="#FFAB97"/>
<path d="M50.1612 45.8668L44.8017 45.9457L34.1706 50.1186L25.6393 57.3861L21.0354 64.2328L16.1855 74.7527L13.7606 82.9319L9.49059 98.0454L6.81084 108.986L4.13111 123.258L2.20696 133.278L1.03842 144.052L0.871479 145.806L71.2477 146.551L59.448 138.871L43.3784 121.926L37.2721 112.493L60.9505 87.0258L67.9002 96.6252L78.4435 106.891L82.8716 91.453L84.128 81.5117L83.7942 69.6593L82.037 62.5584L77.1871 56.0448L74.5073 53.7918L72.7501 55.5451L69.0688 57.3861L64.7987 58.0523L60.2827 56.5533L56.2675 53.6252L52.2523 49.2858L50.1612 45.8668Z" fill="#FFE3CA"/>
<path d="M127.057 109.565L116.68 113.159L104.125 115.245L93.5818 114.325L85.3054 111.151L78.0217 106.645L70.905 99.8777L63.4633 90.8656L60.9505 87.0259L37.2721 112.493L42.8776 120.839L54.317 134.251L64.913 142.939L72.7765 146.945L77.8021 148.672L89.962 150.338L100.778 149.786L111.664 147.778L120.414 145.271L138.997 137.311L152.993 131.411L157.237 128.571L161.753 124.012L165.434 120.277L168.729 115.053L170.117 112.046L169.73 105.138L166.945 100.912L165.214 99.0711L164.38 92.2858L163.984 88.6652L159.75 87.2187L152.826 106.698L152.773 108.872L127.505 109.153L127.057 109.565Z" fill="#FFAB97"/>
<path d="M82.5378 92.619L92.5802 88.4461L102.535 85.1849L109.564 84.2732L114.422 84.6852L119.527 86.1054L123.876 88.4461L126.89 91.9527L129.649 96.3711L131.072 101.298L130.483 103.139L127.391 104.471L128.647 107.312L98.1857 107.566L97.0962 107.478L97.4301 109.319L96.7624 109.065L93.0019 112.572L92.1585 113.825L83.7151 110.652L78.4435 106.891L82.5378 92.619Z" fill="#FFAB97"/>
<path d="M169.309 55.5452L171.066 55.966L160.277 85.6846L152.826 106.698L152.773 108.872L97.4301 109.319L97.0962 107.478L150.735 107.233L169.309 55.5452Z" fill="#1C1C1C"/>
<path d="M68.1989 44.0785L66.8635 48.1987L60.3969 46.2L52.5861 45.4197L42.6579 46.6383L34.1706 50.1186L27.4844 55.6591L21.2903 63.5665L17.8549 59.6391L16.1855 53.4587L16.6864 46.4454L15.9308 44.5256L15.5969 38.5117L16.7742 33.8391L20.2886 30.2536L25.9732 28.9123L26.8957 28.0795L27.8973 25.0725L30.0763 21.7325L35.2601 18.3924L41.6212 17.5596L43.4662 15.0524L51.4088 7.46052L56.6804 3.86623L65.6334 0.94696L76.0097 0.447266L81.7031 2.20058L83.7942 6.2858L83.2934 10.2921L79.858 13.0536" fill="#1C1C1C"/>
<path d="M79.9195 13.413L70.826 12.6854L64.6318 13.6936L62.5671 15.1927L59.0527 18.9272L54.8705 24.0995L48.9575 23.9329L44.6611 24.7132L42.2625 26.4928L40.9798 29.0526L41.8145 34.0057L43.5453 36.6795L48.6236 39.0728L53.3066 38.8536L56.4344 41.4135L61.8994 43.6402L66.9777 44.0785L71.0456 43.1931L76.8532 40.3527L79.5856 37.9594L81.6504 33.2255L82.2039 26.6593L81.2023 18.5853L79.9195 13.413Z" fill="#FFAB97"/>
<path d="M67.0919 48.5319L74.5073 53.7918L73.5057 55.3786L68.7085 57.6666L63.2963 57.7192L58.7188 55.8257L55.3713 52.5996L51.4088 47.699L50.1612 45.8668L52.8585 45.2532L59.0527 46.0334L64.746 47.5851L67.0919 48.5319Z" fill="#FFAB97"/>
<path d="M5.05363 327.896L53.6756 327.563L54.0886 325.888H65.7213L65.8882 329.904L68.2341 334.997L72.6623 341.423L81.3692 347.349L86.386 352.022L87.4755 354.695L87.5634 357.615L86.6408 360.21L75.0081 360.043L74.6743 361.875L3.21735 359.201L5.05363 327.896Z" fill="#67729D"/>
<path d="M54.0886 312.87L54.2028 311.31L65.9761 311.029L65.8619 325.45L65.6949 326.23L54.0886 325.888L53.6756 327.563L5.05363 327.896L6.05524 313.089L54.0886 312.87Z" fill="#FED9ED"/>
<path d="M55.3801 23.5297C55.0989 23.9154 54.6245 24.0995 54.1501 24.0382C45.9615 22.9599 39.2665 25.3882 41.3752 32.831C43.4838 40.2738 53.2539 38.8449 53.2539 38.8449C61.9521 47.0241 72.671 44.5256 79.0233 38.5118C85.3757 32.4979 79.858 13.1326 79.858 13.1326C79.858 13.1326 70.3779 11.8526 64.7987 13.7988C62.0136 14.7719 56.9264 21.4433 55.3801 23.5297Z" stroke="black" stroke-miterlimit="10"/>
<path d="M79.858 13.1325C79.858 13.1325 83.6536 11.1863 83.8205 8.34597C83.9875 5.50561 82.9507 2.63017 80.2534 1.66585C75.7374 0.0528032 68.401 -0.0611622 60.23 2.61264C54.3433 4.54128 48.1228 8.95963 41.4279 17.8051C41.4279 17.8051 29.3207 16.9723 26.7552 28.6581C26.7552 28.6581 18.6632 29.3244 16.4316 34.7246C14.1999 40.1248 16.5985 46.4104 16.5985 46.4104C16.5985 46.4104 14.7007 58.8765 21.2815 63.5578" stroke="black" stroke-miterlimit="10"/>
<path d="M68.0671 44.0259C68.0671 44.0259 67.1446 47.3659 66.7317 48.6196" stroke="black" stroke-miterlimit="10"/>
<path d="M72.4162 146.472L0.871479 145.718C1.20535 135.11 10.0792 85.6057 20.4556 65.5653C30.8319 45.5249 48.5709 44.7798 57.5239 45.6915C66.4769 46.6032 73.2509 51.6177 80.0337 59.5514C84.4004 64.6623 84.3916 76.4358 83.8293 84.1592C83.5306 88.2356 82.7486 92.2419 81.5186 96.1431C80.4643 99.4831 79.1639 103.858 78.6016 106.637" stroke="black" stroke-miterlimit="10"/>
<path d="M74.5073 54.2127C74.5073 54.2127 62.4617 66.819 50.1612 45.7003" stroke="black" stroke-miterlimit="10"/>
<path d="M53.6756 69.8259C53.6756 69.8259 59.8698 85.4392 60.8714 86.9383C60.8714 86.9383 39.6179 110.818 37.1051 112.651C37.1051 112.651 28.7408 103.972 25.1385 96.2045" stroke="black" stroke-miterlimit="10"/>
<path d="M82.5378 92.6978C82.5378 92.6978 101.867 82.4322 114.255 84.5186C125.686 86.4472 129.561 94.1969 130.676 101.421C130.835 102.464 130.246 103.481 129.262 103.866L127.303 104.638" stroke="black" stroke-miterlimit="10"/>
<path d="M121.196 93.2852C121.196 93.2852 127.25 102.858 128.339 107.364" stroke="black" stroke-miterlimit="10"/>
<path d="M112.498 92.1193C112.498 92.1193 118.438 97.5458 120.696 107.478" stroke="black" stroke-miterlimit="10"/>
<path d="M100.778 94.7931L107.165 101.087C107.639 101.552 108.237 101.876 108.887 102.026L113.438 103.06C114.08 103.209 114.58 103.726 114.695 104.375L115.257 107.478" stroke="black" stroke-miterlimit="10"/>
<path d="M94.2584 102.718C94.2584 102.718 97.1841 105.699 98.2736 107.531" stroke="black" stroke-miterlimit="10"/>
<path d="M60.8714 86.9382C60.8714 86.9382 74.4282 109.065 91.4995 113.738C108.571 118.41 127.847 109.205 127.847 109.205" stroke="black" stroke-miterlimit="10"/>
<path d="M37.1051 112.659C37.1051 112.659 55.5119 142.886 77.7757 148.558C100.04 154.23 122.962 145.052 134.929 139.292C142.309 135.742 148.644 133.007 152.413 131.437C154.882 130.412 157.114 128.895 158.976 126.975L165.346 120.409C166.093 119.638 166.743 118.787 167.288 117.858L168.659 115.535C169.581 113.983 170.038 112.195 169.985 110.389L169.853 105.664C169.827 104.577 169.37 103.533 168.588 102.771L164.696 98.9572L164.415 90.3222C164.38 89.3052 163.686 88.4198 162.702 88.1481L159.925 87.1925" stroke="black" stroke-miterlimit="10"/>
<path d="M155.339 99.2991L158.036 100.386C158.511 100.579 158.801 101.079 158.722 101.587L157.623 108.714C157.254 111.108 156.121 113.334 154.329 114.965C151.561 117.481 146.289 120.672 136.423 122.767" stroke="black" stroke-miterlimit="10"/>
<path d="M164.714 98.9659C164.714 98.9659 165.469 106.567 163.712 122.013" stroke="black" stroke-miterlimit="10"/>
<path d="M170.838 56.0635L169.316 55.5192L150.342 108.335L151.864 108.879L170.838 56.0635Z" stroke="black" stroke-miterlimit="10"/>
<path d="M152.656 108.994L152.649 107.381L97.3586 107.621L97.3657 109.234L152.656 108.994Z" stroke="black" stroke-miterlimit="10"/>
<path d="M97.0962 108.898C97.0962 108.898 93.2919 111.572 92.0355 113.869" stroke="black" stroke-miterlimit="10"/>
<path d="M130.351 74.8053L144.515 81.5994" stroke="#00A9FF" stroke-miterlimit="10" stroke-linecap="round"/>
<path d="M140.947 62.3392L151.991 74.8053" stroke="#00A9FF" stroke-linecap="round" stroke-linejoin="round"/>
<path d="M6.39789 145.718L2.38268 228.545C2.38268 228.545 54.0358 229.211 63.4105 231.218C63.4105 231.218 64.746 222.759 65.7564 190.918L66.0639 173.604" stroke="black" stroke-miterlimit="10"/>
<path d="M49.1244 240.178C49.1244 240.178 45.6364 245.166 49.8976 247.936" stroke="black" stroke-miterlimit="10"/>
<path d="M6.64392 228.457C6.64392 228.457 7.64552 236.969 7.94425 262.787C8.15511 281.232 3.27007 359.228 3.27007 359.228L74.4458 361.98C74.4458 361.98 76.6599 357.413 74.481 354.012C72.302 350.61 61.4513 344.053 61.4513 344.053C61.4513 344.053 53.456 335.207 53.7283 329.483C54.0007 323.758 54.2028 286.772 56.5838 265.469C58.9648 244.175 56.6014 230.429 56.6014 230.429" stroke="black" stroke-miterlimit="10"/>
<path d="M53.9919 312.712L6.18704 313.212" stroke="black" stroke-miterlimit="10"/>
<path d="M53.781 327.598L4.88671 327.896" stroke="black" stroke-miterlimit="10"/>
<path d="M56.1884 337.215L47.0334 342.852" stroke="black" stroke-miterlimit="10"/>
<path d="M60.3091 342.755L55.793 347.971" stroke="black" stroke-miterlimit="10"/>
<path d="M46.225 27.9918C46.225 27.9918 51.1628 28.8246 52.9991 31.2442" stroke="black" stroke-miterlimit="10"/>
<path d="M75.6759 23.2404L76.3612 30.5517C76.3963 30.9374 76.1064 31.2705 75.7198 31.2881L74.5864 31.3407" stroke="black" stroke-miterlimit="10"/>
<path d="M69.1478 25.0463C69.5166 25.0463 69.8156 24.748 69.8156 24.38C69.8156 24.012 69.5166 23.7137 69.1478 23.7137C68.7791 23.7137 68.4801 24.012 68.4801 24.38C68.4801 24.748 68.7791 25.0463 69.1478 25.0463Z" stroke="black" stroke-miterlimit="10"/>
<path d="M66.5823 21.5222C66.5823 21.5222 68.7349 20.2685 70.4482 20.3299L70.167 20.251C68.8227 19.8653 67.3731 20.3737 66.5735 21.5222H66.5823Z" stroke="black" stroke-width="0.7" stroke-linecap="round" stroke-linejoin="round"/>
<path d="M78.7393 24.3177C79.0827 24.2536 79.3069 23.9123 79.24 23.5554C79.1732 23.1985 78.8405 22.961 78.4971 23.0251C78.1537 23.0892 77.9295 23.4305 77.9964 23.7874C78.0633 24.1443 78.3959 24.3818 78.7393 24.3177Z" stroke="black" stroke-miterlimit="10"/>
<path d="M80.5082 20.4614C80.5082 20.4614 78.2765 19.6286 76.6862 19.988L76.9323 19.8653C78.1184 19.2604 79.5593 19.4971 80.5082 20.4614Z" stroke="black" stroke-width="0.7" stroke-linecap="round" stroke-linejoin="round"/>
<path d="M77.8636 34.5054C77.8636 34.5054 76.3963 36.7584 72.7589 36.2587" stroke="black" stroke-miterlimit="10"/>
<path d="M135.711 53.8971L145.481 20.5315C146.21 18.0331 143.935 15.6924 141.413 16.3499L105.267 25.7739C103 26.3613 102.974 29.5611 105.223 30.1923L125.66 35.9344L130.606 53.862C131.318 56.4306 134.955 56.4569 135.702 53.8971H135.711Z" fill="#00A9FF"/>
<path opacity="0.7" d="M288.887 233.55L321.184 233.717" stroke="#FFF6E9" stroke-linecap="round" stroke-linejoin="round"/>
<path opacity="0.7" d="M288.887 239.731L321.184 239.897" stroke="#FFF6E9" stroke-linecap="round" stroke-linejoin="round"/>
<path opacity="0.7" d="M288.887 245.911L321.184 246.078" stroke="#FFF6E9" stroke-linecap="round" stroke-linejoin="round"/>
<path opacity="0.7" d="M288.887 252.083L321.184 252.249" stroke="#FFF6E9" stroke-linecap="round" stroke-linejoin="round"/>
<path d="M74.3404 147.831C75.0081 179.776 71.5552 229.211 71.5552 229.211C65.9233 228.711 69.0775 228.825 63.7268 228.492" stroke="black" stroke-miterlimit="10"/>
<path d="M64.746 238.284C64.746 238.284 61.258 243.272 65.5192 246.043" stroke="black" stroke-miterlimit="10"/>
<path d="M68.6558 228.878C68.6558 228.878 71.0193 242.624 68.6382 263.926C66.2484 285.22 66.0551 322.207 65.774 327.931C65.5016 333.656 73.5057 342.501 73.5057 342.501C73.5057 342.501 84.3565 349.067 86.5354 352.46C88.7144 355.861 86.5003 360.429 86.5003 360.429L75.096 360.21" stroke="black" stroke-miterlimit="10"/>
<path d="M66.0464 311.161L54.1501 311.283" stroke="black" stroke-miterlimit="10"/>
<path d="M65.8355 326.046L53.8338 326.116" stroke="black" stroke-miterlimit="10"/>
<path d="M68.2341 335.654L59.0878 341.3" stroke="black" stroke-miterlimit="10"/>
<path d="M72.3547 341.204L67.8475 346.411" stroke="black" stroke-miterlimit="10"/>
</svg>
