<svg width="17" height="15" viewBox="0 0 17 15" fill="none" xmlns="http://www.w3.org/2000/svg">
<path d="M8.5 4.99984V13.4998M8.5 4.99984C8.5 3.59971 8.5 2.89993 8.77248 2.36515C9.01217 1.89475 9.39434 1.51217 9.86475 1.27248C10.3995 1 11.0997 1 12.4998 1H14.6665C15.1332 1 15.3667 1 15.545 1.09083C15.7018 1.17072 15.829 1.29811 15.9089 1.45492C15.9997 1.63318 16 1.8667 16 2.33341V9.66675C16 10.1335 15.9997 10.3665 15.9089 10.5447C15.829 10.7016 15.7021 10.8294 15.5453 10.9093C15.3672 11 15.1342 11 14.6684 11H12.3078C11.5251 11 11.1331 11 10.7778 11.1079C10.4634 11.2034 10.1714 11.3598 9.91749 11.5684C9.63068 11.8042 9.41335 12.1298 8.9792 12.781L8.5 13.4998M8.5 4.99984C8.5 3.59971 8.49986 2.89993 8.22738 2.36515C7.98769 1.89475 7.60522 1.51217 7.13481 1.27248C6.60003 1 5.89981 1 4.49967 1H2.33301C1.8663 1 1.63318 1 1.45492 1.09083C1.29811 1.17072 1.17072 1.29811 1.09083 1.45492C1 1.63318 1 1.8667 1 2.33341V9.66675C1 10.1335 1 10.3665 1.09083 10.5447C1.17072 10.7016 1.29811 10.8294 1.45492 10.9093C1.633 11 1.86584 11 2.33164 11H4.69227C5.47495 11 5.86618 11 6.2214 11.1079C6.53588 11.2034 6.82927 11.3598 7.08317 11.5684C7.36881 11.8032 7.58477 12.1271 8.0154 12.7731L8.5 13.4998" stroke="#00A9FF" stroke-width="1.5" stroke-linecap="round" stroke-linejoin="round"/>
</svg>
