<svg width="100" height="100" viewBox="0 0 100 100" fill="none" xmlns="http://www.w3.org/2000/svg">
<g clip-path="url(#clip0_1788_1392)">
<path d="M99 50C99 77.062 77.062 99 50 99C22.938 99 1 77.062 1 50C1 22.938 22.938 1 50 1C77.062 1 99 22.938 99 50Z" stroke="#00A9FF" stroke-width="2"/>
<path fill-rule="evenodd" clip-rule="evenodd" d="M50.875 72.8906C53.0739 72.7378 55.254 72.3821 57.3875 71.8281C60.0204 72.6316 62.8037 72.8134 65.5187 72.3594C65.6262 72.342 65.7349 72.3337 65.8438 72.3344C66.8125 72.3344 68.0844 72.8969 69.9375 74.0844V72.1313C69.9379 71.7933 70.0281 71.4616 70.1989 71.17C70.3696 70.8785 70.6148 70.6375 70.9094 70.4719C71.7156 70.0156 72.4656 69.4906 73.15 68.9125C75.85 66.625 77.375 63.575 77.375 60.3438C77.375 59.2594 77.2031 58.2063 76.8781 57.2C77.6937 55.6781 78.3531 54.0781 78.8375 52.4188C80.4036 54.7657 81.2428 57.5223 81.25 60.3438C81.25 64.7344 79.2062 68.8281 75.6719 71.8219C75.0819 72.3212 74.4609 72.7825 73.8125 73.2031V77.7687C73.8125 79.3406 72 80.2437 70.7219 79.3094C69.5133 78.4059 68.2618 77.5612 66.9719 76.7781C66.6025 76.557 66.2182 76.3618 65.8219 76.1937C64.7594 76.3531 63.6719 76.4344 62.575 76.4344C58.1625 76.4344 54.0844 75.1125 50.875 72.8906ZM27.5438 63.7594C21.9688 59.0312 18.75 52.5906 18.75 45.6875C18.75 31.5844 32.0562 20.3125 48.3031 20.3125C64.5531 20.3125 77.8594 31.5844 77.8594 45.6875C77.8594 59.7938 64.55 71.0656 48.3031 71.0656C46.4781 71.0656 44.6719 70.925 42.9031 70.6438C42.1375 70.825 39.0781 72.6437 34.6687 75.8625C33.0719 77.0312 30.8062 75.9031 30.8062 73.9375V66.15C29.6644 65.4301 28.5742 64.6313 27.5438 63.7594ZM43.0094 65.8406C43.1437 65.8406 43.2812 65.85 43.4156 65.8719C45.0094 66.1406 46.6469 66.2781 48.3031 66.2781C62.0281 66.2781 73.0125 56.9719 73.0125 45.6875C73.0125 34.4062 62.0281 25.1 48.3031 25.1C34.5844 25.1 23.5938 34.4062 23.5938 45.6875C23.5938 51.1437 26.1594 56.2812 30.6969 60.125C31.8375 61.0875 33.0906 61.9625 34.4344 62.725C35.1875 63.15 35.6531 63.9437 35.6531 64.8V69.2906C39.1406 66.95 41.4344 65.8406 43.0094 65.8406ZM35.7062 50.4781C33.5656 50.4781 31.8312 48.7594 31.8312 46.6469C31.8312 44.5312 33.5656 42.8156 35.7062 42.8156C37.8469 42.8156 39.5813 44.5312 39.5813 46.6469C39.5813 48.7625 37.8469 50.4781 35.7062 50.4781ZM48.3031 50.4781C46.1625 50.4781 44.4281 48.7594 44.4281 46.6469C44.4281 44.5312 46.1625 42.8156 48.3031 42.8156C50.4437 42.8156 52.1781 44.5312 52.1781 46.6469C52.1781 48.7625 50.4437 50.4781 48.3031 50.4781ZM60.9 50.4781C58.7594 50.4781 57.025 48.7594 57.025 46.6469C57.025 44.5312 58.7594 42.8156 60.9 42.8156C63.0406 42.8156 64.775 44.5312 64.775 46.6469C64.775 48.7625 63.0406 50.4781 60.9 50.4781Z" fill="#00A9FF"/>
</g>
<defs>
<clipPath id="clip0_1788_1392">
<rect width="100" height="100" fill="white"/>
</clipPath>
</defs>
</svg>
