<svg width="45" height="45" viewBox="0 0 45 45" fill="none" xmlns="http://www.w3.org/2000/svg">
<rect width="45" height="45" rx="10" fill="#00A9FF"/>
<path d="M24 14.0009C23.9045 14 23.7973 14 23.6747 14H19.2002C18.0801 14 17.5196 14 17.0918 14.218C16.7155 14.4097 16.4097 14.7155 16.218 15.0918C16 15.5196 16 16.0801 16 17.2002V28.8002C16 29.9203 16 30.4801 16.218 30.9079C16.4097 31.2842 16.7155 31.5905 17.0918 31.7822C17.5192 32 18.079 32 19.1969 32L26.8031 32C27.921 32 28.48 32 28.9074 31.7822C29.2837 31.5905 29.5905 31.2842 29.7822 30.9079C30 30.4805 30 29.9215 30 28.8036V20.3257C30 20.203 30 20.0956 29.9991 20M24 14.0009C24.2856 14.0035 24.4663 14.0138 24.6388 14.0553C24.8429 14.1043 25.0379 14.1853 25.2168 14.2949C25.4186 14.4186 25.5918 14.5918 25.9375 14.9375L29.063 18.063C29.4089 18.4089 29.5809 18.5814 29.7046 18.7832C29.8142 18.9621 29.8953 19.1573 29.9443 19.3613C29.9857 19.5338 29.9963 19.7145 29.9991 20M24 14.0009V16.8C24 17.9201 24 18.4798 24.218 18.9076C24.4097 19.2839 24.7155 19.5905 25.0918 19.7822C25.5192 20 26.079 20 27.1969 20H29.9991M29.9991 20H30.0002" stroke="white" stroke-width="2" stroke-linecap="round" stroke-linejoin="round"/>
</svg>
