<svg width="45" height="45" viewBox="0 0 45 45" fill="none" xmlns="http://www.w3.org/2000/svg">
<circle cx="22.5" cy="22.5" r="22.5" fill="#00A9FF"/>
<path d="M20.8611 25.1387L25.22 20.7798M29.679 18.1196L25.9996 30.0776C25.6699 31.1493 25.5049 31.6854 25.2205 31.8631C24.9738 32.0172 24.6684 32.043 24.3998 31.9315C24.09 31.8029 23.8385 31.3009 23.337 30.2978L21.0065 25.6368C20.9269 25.4776 20.8871 25.3983 20.8339 25.3294C20.7867 25.2682 20.7323 25.213 20.6711 25.1658C20.6037 25.1139 20.5257 25.0749 20.3736 24.9989L15.702 22.663C14.6988 22.1614 14.1972 21.9104 14.0686 21.6006C13.9572 21.3319 13.9826 21.0262 14.1367 20.7796C14.3144 20.4951 14.8505 20.3299 15.9225 20L27.8804 16.3206C28.7231 16.0613 29.1447 15.9317 29.4293 16.0363C29.6773 16.1273 29.8728 16.3226 29.9638 16.5705C30.0682 16.855 29.9386 17.2764 29.6795 18.1183L29.679 18.1196Z" stroke="white" stroke-width="2" stroke-linecap="round" stroke-linejoin="round"/>
</svg>
