<svg width="18" height="18" viewBox="0 0 18 18" fill="none" xmlns="http://www.w3.org/2000/svg">
<path d="M5.00868 15.9349C6.18334 16.6124 7.54625 17 8.99968 17C13.418 17 17 13.4183 17 9.00002C17 4.58173 13.4183 1 9 1C4.58172 1 1 4.58173 1 9.00002C1 10.4535 1.38759 11.8164 2.06506 12.991L2.06768 12.9956C2.13287 13.1086 2.16574 13.1656 2.18063 13.2195C2.19467 13.2703 2.19859 13.3159 2.195 13.3685C2.19113 13.425 2.17209 13.4836 2.13305 13.6007L1.44965 15.6509L1.44879 15.6536C1.3046 16.0862 1.23251 16.3025 1.2839 16.4466C1.3287 16.5722 1.42816 16.6714 1.55382 16.7162C1.69761 16.7675 1.91293 16.6957 2.3436 16.5522L2.34896 16.5502L4.39915 15.8668C4.51589 15.8279 4.57523 15.8082 4.63164 15.8043C4.68422 15.8007 4.72958 15.8054 4.78038 15.8195C4.83439 15.8344 4.89141 15.8673 5.00501 15.9328L5.00868 15.9349Z" stroke="black" stroke-opacity="0.5" stroke-width="1.5" stroke-linecap="round" stroke-linejoin="round"/>
</svg>
