<svg width="39" height="39" viewBox="0 0 39 39" fill="none" xmlns="http://www.w3.org/2000/svg">
<circle cx="19.5" cy="19.5" r="19" stroke="black" stroke-opacity="0.5"/>
<g opacity="0.5" clip-path="url(#clip0_651_997)">
<path d="M25.9583 29.8333C25.9583 27.6931 23.0668 25.9583 19.5 25.9583C15.9332 25.9583 13.0417 27.6931 13.0417 29.8333M31.125 25.9587C31.125 24.3697 29.531 23.0041 27.25 22.4062M7.875 25.9587C7.875 24.3697 9.46904 23.0041 11.75 22.4062M27.25 17.2216C28.0428 16.512 28.5417 15.4809 28.5417 14.3333C28.5417 12.1931 26.8068 10.4583 24.6667 10.4583C23.6742 10.4583 22.7689 10.8314 22.0833 11.4449M11.75 17.2216C10.9572 16.512 10.4583 15.4809 10.4583 14.3333C10.4583 12.1931 12.1932 10.4583 14.3333 10.4583C15.3258 10.4583 16.2311 10.8314 16.9167 11.4449M19.5 22.0833C17.3599 22.0833 15.625 20.3484 15.625 18.2083C15.625 16.0681 17.3599 14.3333 19.5 14.3333C21.6401 14.3333 23.375 16.0681 23.375 18.2083C23.375 20.3484 21.6401 22.0833 19.5 22.0833Z" stroke="black" stroke-width="2" stroke-linecap="round" stroke-linejoin="round"/>
</g>
<defs>
<clipPath id="clip0_651_997">
<rect width="31" height="31" fill="white" transform="translate(4 4)"/>
</clipPath>
</defs>
</svg>
