<svg width="39" height="39" viewBox="0 0 39 39" fill="none" xmlns="http://www.w3.org/2000/svg">
<circle cx="19.5" cy="19.5" r="19" stroke="#00A9FF"/>
<path d="M15.0109 27.6687C16.4792 28.5155 18.1828 29 19.9996 29C25.5225 29 30 24.5229 30 19C30 13.4772 25.5228 9 20 9C14.4772 9 10 13.4772 10 19C10 20.8168 10.4845 22.5205 11.3313 23.9888L11.3346 23.9945C11.4161 24.1358 11.4572 24.207 11.4758 24.2743C11.4933 24.3378 11.4982 24.3949 11.4937 24.4607C11.4889 24.5313 11.4651 24.6045 11.4163 24.7509L10.5621 27.3137L10.561 27.317C10.3808 27.8577 10.2906 28.1281 10.3549 28.3082C10.4109 28.4653 10.5352 28.5893 10.6923 28.6453C10.872 28.7094 11.1412 28.6197 11.6795 28.4402L11.6862 28.4377L14.2489 27.5835C14.3949 27.5349 14.469 27.5102 14.5395 27.5054C14.6053 27.5009 14.662 27.5068 14.7255 27.5244C14.793 27.543 14.8643 27.5841 15.0063 27.666L15.0109 27.6687Z" stroke="#00A9FF" stroke-width="2" stroke-linecap="round" stroke-linejoin="round"/>
</svg>
