<svg width="178" height="45" viewBox="0 0 178 45" fill="none" xmlns="http://www.w3.org/2000/svg">
<rect width="45" height="45" rx="10" fill="#00A9FF"/>
<path d="M24 14.0009C23.9045 14 23.7973 14 23.6747 14H19.2002C18.0801 14 17.5196 14 17.0918 14.218C16.7155 14.4097 16.4097 14.7155 16.218 15.0918C16 15.5196 16 16.0801 16 17.2002V28.8002C16 29.9203 16 30.4801 16.218 30.9079C16.4097 31.2842 16.7155 31.5905 17.0918 31.7822C17.5192 32 18.079 32 19.1969 32L26.8031 32C27.921 32 28.48 32 28.9074 31.7822C29.2837 31.5905 29.5905 31.2842 29.7822 30.9079C30 30.4805 30 29.9215 30 28.8036V20.3257C30 20.203 30 20.0956 29.9991 20M24 14.0009C24.2856 14.0035 24.4663 14.0138 24.6388 14.0553C24.8429 14.1043 25.0379 14.1853 25.2168 14.2949C25.4186 14.4186 25.5918 14.5918 25.9375 14.9375L29.063 18.063C29.4089 18.4089 29.5809 18.5814 29.7046 18.7832C29.8142 18.9621 29.8953 19.1573 29.9443 19.3613C29.9857 19.5338 29.9963 19.7145 29.9991 20M24 14.0009V16.8C24 17.9201 24 18.4798 24.218 18.9076C24.4097 19.2839 24.7155 19.5905 25.0918 19.7822C25.5192 20 26.079 20 27.1969 20H29.9991M29.9991 20H30.0002" stroke="white" stroke-width="2" stroke-linecap="round" stroke-linejoin="round"/>
<path d="M64.852 19.112C64.1053 19.112 63.4147 18.9907 62.78 18.748C62.1547 18.496 61.6087 18.146 61.142 17.698C60.6847 17.2407 60.3253 16.7087 60.064 16.102C59.8027 15.4953 59.672 14.828 59.672 14.1C59.672 13.372 59.8027 12.7047 60.064 12.098C60.3253 11.4913 60.6893 10.964 61.156 10.516C61.6227 10.0587 62.1687 9.70867 62.794 9.466C63.4287 9.214 64.1193 9.088 64.866 9.088C65.622 9.088 66.3173 9.21867 66.952 9.48C67.596 9.732 68.142 10.11 68.59 10.614L67.68 11.496C67.3067 11.104 66.8867 10.8147 66.42 10.628C65.9533 10.432 65.454 10.334 64.922 10.334C64.3713 10.334 63.858 10.4273 63.382 10.614C62.9153 10.8007 62.5093 11.062 62.164 11.398C61.8187 11.734 61.548 12.1353 61.352 12.602C61.1653 13.0593 61.072 13.5587 61.072 14.1C61.072 14.6413 61.1653 15.1453 61.352 15.612C61.548 16.0693 61.8187 16.466 62.164 16.802C62.5093 17.138 62.9153 17.3993 63.382 17.586C63.858 17.7727 64.3713 17.866 64.922 17.866C65.454 17.866 65.9533 17.7727 66.42 17.586C66.8867 17.39 67.3067 17.0913 67.68 16.69L68.59 17.572C68.142 18.076 67.596 18.4587 66.952 18.72C66.3173 18.9813 65.6173 19.112 64.852 19.112ZM73.2547 19.084C72.5081 19.084 71.8454 18.9207 71.2667 18.594C70.6881 18.2673 70.2307 17.8193 69.8947 17.25C69.5587 16.6713 69.3907 16.018 69.3907 15.29C69.3907 14.5527 69.5587 13.8993 69.8947 13.33C70.2307 12.7607 70.6881 12.3173 71.2667 12C71.8454 11.6733 72.5081 11.51 73.2547 11.51C73.9921 11.51 74.6501 11.6733 75.2287 12C75.8167 12.3173 76.2741 12.7607 76.6007 13.33C76.9367 13.89 77.1047 14.5433 77.1047 15.29C77.1047 16.0273 76.9367 16.6807 76.6007 17.25C76.2741 17.8193 75.8167 18.2673 75.2287 18.594C74.6501 18.9207 73.9921 19.084 73.2547 19.084ZM73.2547 17.908C73.7307 17.908 74.1554 17.8007 74.5287 17.586C74.9114 17.3713 75.2101 17.068 75.4247 16.676C75.6394 16.2747 75.7467 15.8127 75.7467 15.29C75.7467 14.758 75.6394 14.3007 75.4247 13.918C75.2101 13.526 74.9114 13.2227 74.5287 13.008C74.1554 12.7933 73.7307 12.686 73.2547 12.686C72.7787 12.686 72.3541 12.7933 71.9807 13.008C71.6074 13.2227 71.3087 13.526 71.0847 13.918C70.8607 14.3007 70.7487 14.758 70.7487 15.29C70.7487 15.8127 70.8607 16.2747 71.0847 16.676C71.3087 17.068 71.6074 17.3713 71.9807 17.586C72.3541 17.8007 72.7787 17.908 73.2547 17.908ZM82.0855 19.084C81.4508 19.084 80.8908 18.9673 80.4055 18.734C79.9295 18.5007 79.5561 18.146 79.2855 17.67C79.0241 17.1847 78.8935 16.578 78.8935 15.85V11.58H80.2375V15.696C80.2375 16.424 80.4101 16.97 80.7555 17.334C81.1101 17.698 81.6048 17.88 82.2395 17.88C82.7061 17.88 83.1121 17.7867 83.4575 17.6C83.8028 17.404 84.0688 17.124 84.2555 16.76C84.4421 16.3867 84.5355 15.9387 84.5355 15.416V11.58H85.8795V19H84.6055V16.998L84.8155 17.53C84.5728 18.0247 84.2088 18.4073 83.7235 18.678C83.2381 18.9487 82.6921 19.084 82.0855 19.084ZM88.4381 19V11.58H89.7261V13.596L89.6001 13.092C89.8054 12.5787 90.1507 12.1867 90.6361 11.916C91.1214 11.6453 91.7187 11.51 92.4281 11.51V12.812C92.3721 12.8027 92.3161 12.798 92.2601 12.798C92.2134 12.798 92.1667 12.798 92.1201 12.798C91.4014 12.798 90.8321 13.0127 90.4121 13.442C89.9921 13.8713 89.7821 14.492 89.7821 15.304V19H88.4381ZM96.2946 19.084C95.6786 19.084 95.0906 19 94.5306 18.832C93.9799 18.664 93.5459 18.4587 93.2286 18.216L93.7886 17.152C94.1059 17.3667 94.4979 17.5487 94.9646 17.698C95.4312 17.8473 95.9072 17.922 96.3926 17.922C97.0179 17.922 97.4659 17.8333 97.7366 17.656C98.0166 17.4787 98.1566 17.2313 98.1566 16.914C98.1566 16.6807 98.0726 16.4987 97.9046 16.368C97.7366 16.2373 97.5126 16.1393 97.2326 16.074C96.9619 16.0087 96.6586 15.9527 96.3226 15.906C95.9866 15.85 95.6506 15.7847 95.3146 15.71C94.9786 15.626 94.6706 15.514 94.3906 15.374C94.1106 15.2247 93.8866 15.024 93.7186 14.772C93.5506 14.5107 93.4666 14.1653 93.4666 13.736C93.4666 13.288 93.5926 12.896 93.8446 12.56C94.0966 12.224 94.4512 11.9673 94.9086 11.79C95.3752 11.6033 95.9259 11.51 96.5606 11.51C97.0459 11.51 97.5359 11.5707 98.0306 11.692C98.5346 11.804 98.9452 11.9673 99.2626 12.182L98.6886 13.246C98.3526 13.022 98.0026 12.868 97.6386 12.784C97.2746 12.7 96.9106 12.658 96.5466 12.658C95.9586 12.658 95.5199 12.756 95.2306 12.952C94.9412 13.1387 94.7966 13.3813 94.7966 13.68C94.7966 13.932 94.8806 14.128 95.0486 14.268C95.2259 14.3987 95.4499 14.5013 95.7206 14.576C96.0006 14.6507 96.3086 14.716 96.6446 14.772C96.9806 14.8187 97.3166 14.884 97.6526 14.968C97.9886 15.0427 98.2919 15.15 98.5626 15.29C98.8426 15.43 99.0666 15.626 99.2346 15.878C99.4119 16.13 99.5006 16.466 99.5006 16.886C99.5006 17.334 99.3699 17.7213 99.1086 18.048C98.8472 18.3747 98.4786 18.6313 98.0026 18.818C97.5266 18.9953 96.9572 19.084 96.2946 19.084ZM104.484 19.084C103.691 19.084 102.991 18.9207 102.384 18.594C101.787 18.2673 101.32 17.8193 100.984 17.25C100.658 16.6807 100.494 16.0273 100.494 15.29C100.494 14.5527 100.653 13.8993 100.97 13.33C101.297 12.7607 101.74 12.3173 102.3 12C102.87 11.6733 103.509 11.51 104.218 11.51C104.937 11.51 105.572 11.6687 106.122 11.986C106.673 12.3033 107.102 12.7513 107.41 13.33C107.728 13.8993 107.886 14.5667 107.886 15.332C107.886 15.388 107.882 15.4533 107.872 15.528C107.872 15.6027 107.868 15.6727 107.858 15.738H101.544V14.772H107.158L106.612 15.108C106.622 14.632 106.524 14.2073 106.318 13.834C106.113 13.4607 105.828 13.1713 105.464 12.966C105.11 12.7513 104.694 12.644 104.218 12.644C103.752 12.644 103.336 12.7513 102.972 12.966C102.608 13.1713 102.324 13.4653 102.118 13.848C101.913 14.2213 101.81 14.6507 101.81 15.136V15.36C101.81 15.8547 101.922 16.298 102.146 16.69C102.38 17.0727 102.702 17.3713 103.112 17.586C103.523 17.8007 103.994 17.908 104.526 17.908C104.965 17.908 105.362 17.8333 105.716 17.684C106.08 17.5347 106.398 17.3107 106.668 17.012L107.41 17.88C107.074 18.272 106.654 18.5707 106.15 18.776C105.656 18.9813 105.1 19.084 104.484 19.084ZM115.08 19L112.322 11.58H113.596L116.046 18.3H115.444L117.992 11.58H119.126L121.618 18.3H121.03L123.536 11.58H124.74L121.968 19H120.68L118.342 12.868H118.734L116.368 19H115.08ZM129.077 19.084C128.33 19.084 127.668 18.9207 127.089 18.594C126.51 18.2673 126.053 17.8193 125.717 17.25C125.381 16.6713 125.213 16.018 125.213 15.29C125.213 14.5527 125.381 13.8993 125.717 13.33C126.053 12.7607 126.51 12.3173 127.089 12C127.668 11.6733 128.33 11.51 129.077 11.51C129.814 11.51 130.472 11.6733 131.051 12C131.639 12.3173 132.096 12.7607 132.423 13.33C132.759 13.89 132.927 14.5433 132.927 15.29C132.927 16.0273 132.759 16.6807 132.423 17.25C132.096 17.8193 131.639 18.2673 131.051 18.594C130.472 18.9207 129.814 19.084 129.077 19.084ZM129.077 17.908C129.553 17.908 129.978 17.8007 130.351 17.586C130.734 17.3713 131.032 17.068 131.247 16.676C131.462 16.2747 131.569 15.8127 131.569 15.29C131.569 14.758 131.462 14.3007 131.247 13.918C131.032 13.526 130.734 13.2227 130.351 13.008C129.978 12.7933 129.553 12.686 129.077 12.686C128.601 12.686 128.176 12.7933 127.803 13.008C127.43 13.2227 127.131 13.526 126.907 13.918C126.683 14.3007 126.571 14.758 126.571 15.29C126.571 15.8127 126.683 16.2747 126.907 16.676C127.131 17.068 127.43 17.3713 127.803 17.586C128.176 17.8007 128.601 17.908 129.077 17.908ZM134.786 19V11.58H136.074V13.596L135.948 13.092C136.153 12.5787 136.498 12.1867 136.984 11.916C137.469 11.6453 138.066 11.51 138.776 11.51V12.812C138.72 12.8027 138.664 12.798 138.608 12.798C138.561 12.798 138.514 12.798 138.468 12.798C137.749 12.798 137.18 13.0127 136.76 13.442C136.34 13.8713 136.13 14.492 136.13 15.304V19H134.786ZM141.524 17.208L141.552 15.486L145.822 11.58H147.446L144.17 14.8L143.442 15.416L141.524 17.208ZM140.432 19V8.612H141.776V19H140.432ZM146.102 19L143.19 15.388L144.058 14.31L147.754 19H146.102ZM149.518 19.084C149.257 19.084 149.033 18.9953 148.846 18.818C148.659 18.6313 148.566 18.398 148.566 18.118C148.566 17.838 148.659 17.6093 148.846 17.432C149.033 17.2547 149.257 17.166 149.518 17.166C149.77 17.166 149.985 17.2547 150.162 17.432C150.349 17.6093 150.442 17.838 150.442 18.118C150.442 18.398 150.349 18.6313 150.162 18.818C149.985 18.9953 149.77 19.084 149.518 19.084ZM155.27 19.084C154.551 19.084 153.907 18.9253 153.338 18.608C152.778 18.2907 152.334 17.8473 152.008 17.278C151.681 16.7087 151.518 16.046 151.518 15.29C151.518 14.534 151.681 13.876 152.008 13.316C152.334 12.7467 152.778 12.3033 153.338 11.986C153.907 11.6687 154.551 11.51 155.27 11.51C155.895 11.51 156.46 11.65 156.964 11.93C157.468 12.21 157.869 12.63 158.168 13.19C158.476 13.75 158.63 14.45 158.63 15.29C158.63 16.13 158.48 16.83 158.182 17.39C157.892 17.95 157.496 18.3747 156.992 18.664C156.488 18.944 155.914 19.084 155.27 19.084ZM155.382 17.908C155.848 17.908 156.268 17.8007 156.642 17.586C157.024 17.3713 157.323 17.068 157.538 16.676C157.762 16.2747 157.874 15.8127 157.874 15.29C157.874 14.758 157.762 14.3007 157.538 13.918C157.323 13.526 157.024 13.2227 156.642 13.008C156.268 12.7933 155.848 12.686 155.382 12.686C154.906 12.686 154.481 12.7933 154.108 13.008C153.734 13.2227 153.436 13.526 153.212 13.918C152.988 14.3007 152.876 14.758 152.876 15.29C152.876 15.8127 152.988 16.2747 153.212 16.676C153.436 17.068 153.734 17.3713 154.108 17.586C154.481 17.8007 154.906 17.908 155.382 17.908ZM157.916 19V16.998L158 15.276L157.86 13.554V8.612H159.204V19H157.916ZM164.925 19.084C164.178 19.084 163.515 18.9207 162.937 18.594C162.358 18.2673 161.901 17.8193 161.565 17.25C161.229 16.6713 161.061 16.018 161.061 15.29C161.061 14.5527 161.229 13.8993 161.565 13.33C161.901 12.7607 162.358 12.3173 162.937 12C163.515 11.6733 164.178 11.51 164.925 11.51C165.662 11.51 166.32 11.6733 166.899 12C167.487 12.3173 167.944 12.7607 168.271 13.33C168.607 13.89 168.775 14.5433 168.775 15.29C168.775 16.0273 168.607 16.6807 168.271 17.25C167.944 17.8193 167.487 18.2673 166.899 18.594C166.32 18.9207 165.662 19.084 164.925 19.084ZM164.925 17.908C165.401 17.908 165.825 17.8007 166.199 17.586C166.581 17.3713 166.88 17.068 167.095 16.676C167.309 16.2747 167.417 15.8127 167.417 15.29C167.417 14.758 167.309 14.3007 167.095 13.918C166.88 13.526 166.581 13.2227 166.199 13.008C165.825 12.7933 165.401 12.686 164.925 12.686C164.449 12.686 164.024 12.7933 163.651 13.008C163.277 13.2227 162.979 13.526 162.755 13.918C162.531 14.3007 162.419 14.758 162.419 15.29C162.419 15.8127 162.531 16.2747 162.755 16.676C162.979 17.068 163.277 17.3713 163.651 17.586C164.024 17.8007 164.449 17.908 164.925 17.908ZM173.867 19.084C173.111 19.084 172.435 18.9207 171.837 18.594C171.249 18.2673 170.787 17.8193 170.451 17.25C170.115 16.6807 169.947 16.0273 169.947 15.29C169.947 14.5527 170.115 13.8993 170.451 13.33C170.787 12.7607 171.249 12.3173 171.837 12C172.435 11.6733 173.111 11.51 173.867 11.51C174.539 11.51 175.137 11.6453 175.659 11.916C176.191 12.1773 176.602 12.5693 176.891 13.092L175.869 13.75C175.627 13.386 175.328 13.12 174.973 12.952C174.628 12.7747 174.255 12.686 173.853 12.686C173.368 12.686 172.934 12.7933 172.551 13.008C172.169 13.2227 171.865 13.526 171.641 13.918C171.417 14.3007 171.305 14.758 171.305 15.29C171.305 15.822 171.417 16.284 171.641 16.676C171.865 17.068 172.169 17.3713 172.551 17.586C172.934 17.8007 173.368 17.908 173.853 17.908C174.255 17.908 174.628 17.824 174.973 17.656C175.328 17.4787 175.627 17.208 175.869 16.844L176.891 17.488C176.602 18.0013 176.191 18.398 175.659 18.678C175.137 18.9487 174.539 19.084 173.867 19.084Z" fill="black" fill-opacity="0.85"/>
<path d="M62.3 28.504C63.06 28.504 63.7 28.668 64.22 28.996C64.748 29.324 65.148 29.8 65.42 30.424C65.692 31.04 65.828 31.796 65.828 32.692C65.828 33.644 65.66 34.448 65.324 35.104C64.988 35.76 64.524 36.256 63.932 36.592C63.34 36.928 62.648 37.096 61.856 37.096C61.464 37.096 61.084 37.056 60.716 36.976C60.356 36.896 60.04 36.772 59.768 36.604L60.224 35.668C60.448 35.812 60.696 35.916 60.968 35.98C61.248 36.036 61.54 36.064 61.844 36.064C62.692 36.064 63.368 35.8 63.872 35.272C64.376 34.736 64.628 33.944 64.628 32.896C64.628 32.728 64.62 32.528 64.604 32.296C64.588 32.064 64.552 31.836 64.496 31.612L64.892 32.02C64.78 32.388 64.592 32.7 64.328 32.956C64.072 33.204 63.76 33.392 63.392 33.52C63.032 33.64 62.636 33.7 62.204 33.7C61.652 33.7 61.16 33.596 60.728 33.388C60.296 33.18 59.956 32.888 59.708 32.512C59.46 32.128 59.336 31.676 59.336 31.156C59.336 30.612 59.464 30.144 59.72 29.752C59.984 29.352 60.34 29.044 60.788 28.828C61.244 28.612 61.748 28.504 62.3 28.504ZM62.348 29.476C61.988 29.476 61.668 29.544 61.388 29.68C61.108 29.816 60.888 30.004 60.728 30.244C60.576 30.484 60.5 30.772 60.5 31.108C60.5 31.604 60.672 32 61.016 32.296C61.36 32.584 61.824 32.728 62.408 32.728C62.792 32.728 63.128 32.656 63.416 32.512C63.712 32.368 63.94 32.172 64.1 31.924C64.268 31.676 64.352 31.4 64.352 31.096C64.352 30.8 64.276 30.532 64.124 30.292C63.972 30.052 63.748 29.856 63.452 29.704C63.156 29.552 62.788 29.476 62.348 29.476ZM67.6336 37.072C67.4096 37.072 67.2176 36.996 67.0576 36.844C66.8976 36.684 66.8176 36.484 66.8176 36.244C66.8176 36.004 66.8976 35.808 67.0576 35.656C67.2176 35.504 67.4096 35.428 67.6336 35.428C67.8496 35.428 68.0336 35.504 68.1856 35.656C68.3456 35.808 68.4256 36.004 68.4256 36.244C68.4256 36.484 68.3456 36.684 68.1856 36.844C68.0336 36.996 67.8496 37.072 67.6336 37.072ZM70.86 37L74.424 29.104L74.736 29.644H69.744L70.344 29.056V31.144H69.192V28.6H75.528V29.416L72.132 37H70.86ZM77.2639 37V28.6H78.2479L82.0159 34.948H81.4879L85.2079 28.6H86.1919L86.2039 37H85.0519L85.0399 30.412H85.3159L82.0039 35.98H81.4519L78.1159 30.412H78.4159V37H77.2639ZM88.7248 37V28.6H92.4928C93.4608 28.6 94.2048 28.796 94.7248 29.188C95.2448 29.572 95.5048 30.1 95.5048 30.772C95.5048 31.228 95.4008 31.612 95.1928 31.924C94.9928 32.236 94.7208 32.476 94.3768 32.644C94.0328 32.812 93.6608 32.896 93.2608 32.896L93.4768 32.536C93.9568 32.536 94.3808 32.62 94.7488 32.788C95.1168 32.956 95.4088 33.204 95.6248 33.532C95.8408 33.852 95.9488 34.252 95.9488 34.732C95.9488 35.452 95.6768 36.012 95.1328 36.412C94.5968 36.804 93.7968 37 92.7328 37H88.7248ZM89.9248 36.028H92.6848C93.3488 36.028 93.8568 35.916 94.2088 35.692C94.5608 35.468 94.7368 35.116 94.7368 34.636C94.7368 34.148 94.5608 33.792 94.2088 33.568C93.8568 33.344 93.3488 33.232 92.6848 33.232H89.8168V32.26H92.3848C92.9928 32.26 93.4648 32.148 93.8008 31.924C94.1368 31.7 94.3048 31.364 94.3048 30.916C94.3048 30.468 94.1368 30.132 93.8008 29.908C93.4648 29.684 92.9928 29.572 92.3848 29.572H89.9248V36.028Z" fill="black" fill-opacity="0.5"/>
</svg>
