<svg width="108" height="59" viewBox="0 0 108 59" fill="none" xmlns="http://www.w3.org/2000/svg">
<g clip-path="url(#clip0_2077_2168)">
<path d="M92.5849 19.6796C92.5288 19.1576 92.4403 18.6395 92.32 18.1287L61.1285 18.1012C61.268 16.8866 61.5786 15.698 62.0504 14.5719C62.6944 13.0169 63.6398 11.6077 64.8309 10.427C66.0039 9.28146 67.3901 8.38224 68.9096 7.78153C71.3518 6.71892 74.0608 6.44906 76.6615 7.00931C79.2623 7.56956 81.6263 8.9325 83.4263 10.909L88.3518 6.04241C86.6057 4.14158 84.4858 2.62959 82.1279 1.60326C79.523 0.49716 76.7186 -0.0487507 73.8932 0.000260387C71.2259 -0.0160753 68.5809 0.491821 66.1058 1.49566C63.7367 2.45179 61.5771 3.86906 59.75 5.66706C57.9294 7.48149 56.4727 9.6337 55.4599 12.0055C54.6281 13.9396 54.1182 15.9994 53.9506 18.1012H53.7473C53.5795 15.9992 53.0688 13.9393 52.2358 12.0055C51.2239 9.6332 49.7673 7.48082 47.9459 5.66706C46.1192 3.86853 43.9595 2.45119 41.5901 1.49566C36.4324 -0.537357 30.6998 -0.500584 25.5681 1.59825C23.2105 2.62522 21.0907 4.13712 19.3441 6.0374L24.2706 10.9039C26.1206 9.00377 28.4828 7.6939 31.0636 7.13793C33.6445 6.58196 36.3303 6.80413 38.7873 7.77653C40.3067 8.37687 41.6927 9.27614 42.865 10.422C44.0568 11.6024 45.0025 13.0117 45.6465 14.5669C46.1186 15.6929 46.4292 16.881 46.5684 18.0957L15.3769 18.1237C15.2566 18.6345 15.1681 19.1521 15.112 19.6741C15.0426 20.2773 15.0086 20.8841 15.0104 21.4913C14.9966 23.8554 15.3741 26.2053 16.1271 28.4438C16.8671 30.616 18.0587 32.6031 19.6222 34.2718C21.3328 36.1005 23.409 37.541 25.713 38.4977C28.2893 39.5345 31.0442 40.0432 33.8171 39.9941C36.4838 40.0105 39.1281 39.5023 41.6022 38.4977C43.9722 37.5433 46.1322 36.1253 47.9581 34.3258C49.7802 32.5127 51.2371 30.3607 52.2482 27.9879C52.7663 26.7929 53.1584 25.5458 53.4185 24.2679H54.3027C54.5629 25.5455 54.9543 26.7925 55.4711 27.9879C56.483 30.3602 57.9398 32.512 59.7611 34.3258C61.5875 36.1248 63.7473 37.5427 66.117 38.4977C68.5919 39.5021 71.237 40.0104 73.9043 39.9941C76.6766 40.0433 79.4307 39.5346 82.0062 38.4977C84.3106 37.5417 86.387 36.1011 88.0971 34.2718C89.661 32.6031 90.8535 30.616 91.5943 28.4438C92.3471 26.2053 92.7243 23.8554 92.7108 21.4913C92.7037 20.8853 92.6616 20.2807 92.5849 19.6796ZM45.6395 25.4275C44.9932 26.9877 44.0375 28.3978 42.8315 29.5714C41.6461 30.7138 40.2523 31.613 38.7273 32.2189C35.4773 33.4471 31.9003 33.4657 28.6378 32.2719C27.3218 31.7345 26.1111 30.9649 25.0625 29.9988C24.3156 29.3032 23.6969 28.4794 23.2352 27.5655C22.7017 26.5249 22.3015 25.42 22.0443 24.2774H46.0609C45.941 24.6682 45.801 25.0525 45.6415 25.4285L45.6395 25.4275ZM84.4546 27.5655C83.9927 28.4793 83.3743 29.3031 82.6275 29.9988C81.5789 30.965 80.368 31.7346 79.0519 32.2719C75.7894 33.4657 72.2124 33.4471 68.9624 32.2189C67.4374 31.6125 66.0433 30.7135 64.8572 29.5714C63.6513 28.398 62.6962 26.9877 62.0504 25.4275C61.8901 25.0505 61.7494 24.6653 61.6291 24.2734H73.7296H85.6464C85.3893 25.4177 84.9891 26.5242 84.4556 27.5665L84.4546 27.5655Z" fill="#2F8D46"/>
</g>
<path d="M10.654 50.862C10.668 51.03 10.696 51.198 10.696 51.422C10.654 54.026 8.484 56.182 5.67 56.182C2.898 56.182 0.63 53.984 0.63 51.31C0.63 48.664 2.856 46.438 5.67 46.438C7.686 46.438 9.436 47.558 10.262 49.196L8.582 49.476C7.966 48.538 6.888 47.922 5.67 47.922C3.808 47.922 2.31 49.434 2.31 51.296C2.31 53.158 3.85 54.67 5.74 54.67C7.406 54.67 8.736 53.564 9.086 52.122H5.306V50.862H10.654ZM15.6209 54.866C16.4329 54.866 17.2309 54.544 17.5109 53.97L19.0509 54.054C18.5609 55.314 17.1329 56.168 15.5649 56.168C13.4509 56.168 11.7709 54.642 11.7709 52.584C11.7709 50.624 13.3109 49 15.5089 49C17.8329 49 19.2469 50.806 19.2469 53.06H13.3669C13.5769 54.166 14.4449 54.866 15.6209 54.866ZM15.5089 50.302C14.3189 50.302 13.5769 50.974 13.3669 51.954H17.6229C17.3849 50.904 16.6149 50.302 15.5089 50.302ZM24.1385 54.866C24.9505 54.866 25.7485 54.544 26.0285 53.97L27.5685 54.054C27.0785 55.314 25.6505 56.168 24.0825 56.168C21.9685 56.168 20.2885 54.642 20.2885 52.584C20.2885 50.624 21.8285 49 24.0265 49C26.3505 49 27.7645 50.806 27.7645 53.06H21.8845C22.0945 54.166 22.9625 54.866 24.1385 54.866ZM24.0265 50.302C22.8365 50.302 22.0945 50.974 21.8845 51.954H26.1405C25.9025 50.904 25.1325 50.302 24.0265 50.302ZM29.3521 56V45.92H30.9481V51.884H30.9761L33.8601 49.182H35.8621L32.5301 52.304L36.0301 56H34.0001L30.9761 52.71H30.9481V56H29.3521ZM40.0704 56.168C38.3764 56.168 36.8504 55.496 36.8084 53.998H38.5164C38.5584 54.768 39.3844 54.95 40.0144 54.95C40.6724 54.95 41.3444 54.74 41.3444 54.152C41.3444 53.48 40.5324 53.354 39.4684 53.102C38.3344 52.836 37.0184 52.374 37.0184 51.002C37.0184 49.7 38.2364 49 39.8744 49C41.3584 49 42.8704 49.588 42.9124 51.1H41.2604C41.2184 50.428 40.5044 50.204 39.9024 50.204C39.2864 50.204 38.6844 50.414 38.6844 50.974C38.6844 51.618 39.4684 51.786 40.4764 52.01C41.7504 52.276 43.0944 52.682 43.0944 54.068C43.0944 55.468 41.7644 56.168 40.0704 56.168ZM46.7336 48.51V49.182H49.1976V50.456H46.7336V56H45.1376V50.456H43.9056V49.182H45.1376V48.37C45.1376 46.914 46.1736 45.752 47.9376 45.752C48.5396 45.752 49.0016 45.864 49.3516 46.004L49.1556 47.278C48.8476 47.152 48.5396 47.068 48.1896 47.068C47.2096 47.068 46.7336 47.698 46.7336 48.51ZM53.6134 56.168C51.5414 56.168 49.8474 54.558 49.8474 52.584C49.8474 50.624 51.5414 49 53.6134 49C55.6994 49 57.4074 50.624 57.4074 52.584C57.4074 54.558 55.6994 56.168 53.6134 56.168ZM53.6134 54.768C54.8174 54.768 55.8114 53.788 55.8114 52.584C55.8114 51.394 54.8174 50.414 53.6134 50.414C52.4374 50.414 51.4434 51.394 51.4434 52.584C51.4434 53.788 52.4374 54.768 53.6134 54.768ZM59.0748 56V49.182H60.4888L60.5728 50.876H60.6008C61.0068 49.672 62.0428 49.056 63.1068 49.042V50.47C61.5808 50.47 60.6708 51.52 60.6708 52.976V56H59.0748ZM74.1872 50.862C74.2012 51.03 74.2292 51.198 74.2292 51.422C74.1872 54.026 72.0172 56.182 69.2032 56.182C66.4312 56.182 64.1632 53.984 64.1632 51.31C64.1632 48.664 66.3892 46.438 69.2032 46.438C71.2192 46.438 72.9692 47.558 73.7952 49.196L72.1152 49.476C71.4992 48.538 70.4212 47.922 69.2032 47.922C67.3412 47.922 65.8432 49.434 65.8432 51.296C65.8432 53.158 67.3832 54.67 69.2732 54.67C70.9392 54.67 72.2692 53.564 72.6192 52.122H68.8392V50.862H74.1872ZM79.1541 54.866C79.9661 54.866 80.7641 54.544 81.0441 53.97L82.5841 54.054C82.0941 55.314 80.6661 56.168 79.0981 56.168C76.9841 56.168 75.3041 54.642 75.3041 52.584C75.3041 50.624 76.8441 49 79.0421 49C81.3661 49 82.7801 50.806 82.7801 53.06H76.9001C77.1101 54.166 77.9781 54.866 79.1541 54.866ZM79.0421 50.302C77.8521 50.302 77.1101 50.974 76.9001 51.954H81.1561C80.9181 50.904 80.1481 50.302 79.0421 50.302ZM87.6717 54.866C88.4837 54.866 89.2817 54.544 89.5617 53.97L91.1017 54.054C90.6117 55.314 89.1837 56.168 87.6157 56.168C85.5017 56.168 83.8217 54.642 83.8217 52.584C83.8217 50.624 85.3617 49 87.5597 49C89.8837 49 91.2977 50.806 91.2977 53.06H85.4177C85.6277 54.166 86.4957 54.866 87.6717 54.866ZM87.5597 50.302C86.3697 50.302 85.6277 50.974 85.4177 51.954H89.6737C89.4357 50.904 88.6657 50.302 87.5597 50.302ZM92.8853 56V45.92H94.4813V51.884H94.5093L97.3933 49.182H99.3953L96.0633 52.304L99.5633 56H97.5333L94.5093 52.71H94.4813V56H92.8853ZM103.604 56.168C101.91 56.168 100.384 55.496 100.342 53.998H102.05C102.092 54.768 102.918 54.95 103.548 54.95C104.206 54.95 104.878 54.74 104.878 54.152C104.878 53.48 104.066 53.354 103.002 53.102C101.868 52.836 100.552 52.374 100.552 51.002C100.552 49.7 101.77 49 103.408 49C104.892 49 106.404 49.588 106.446 51.1H104.794C104.752 50.428 104.038 50.204 103.436 50.204C102.82 50.204 102.218 50.414 102.218 50.974C102.218 51.618 103.002 51.786 104.01 52.01C105.284 52.276 106.628 52.682 106.628 54.068C106.628 55.468 105.298 56.168 103.604 56.168Z" fill="black"/>
<defs>
<clipPath id="clip0_2077_2168">
<rect width="77.6923" height="40" fill="white" transform="translate(15)"/>
</clipPath>
</defs>
</svg>
