<svg width="212" height="40" viewBox="0 0 212 40" fill="none" xmlns="http://www.w3.org/2000/svg">
<path d="M71.3801 13.1818V26.4359H67.7939V24.8615C66.7996 26.0184 65.3453 26.6371 63.7476 26.6371C60.4779 26.6371 58.1777 24.766 58.1777 20.6765V13.1868H61.9569V20.1081C61.9569 22.3263 62.9264 23.3122 64.5984 23.3122C66.2702 23.3122 67.6009 22.1805 67.6009 19.7409V13.1868H71.3801V13.1818Z" fill="#40A944"/>
<path d="M83.4944 19.8056C83.4944 15.8168 86.5217 12.9799 90.6669 12.9799C94.8126 12.9799 97.8143 15.8118 97.8143 19.8056C97.8143 23.7994 94.8126 26.6313 90.6669 26.6313C86.5217 26.6313 83.4944 23.7994 83.4944 19.8056ZM93.9865 19.8056C93.9865 17.5169 92.5565 16.1337 90.6669 16.1337C88.7773 16.1337 87.323 17.512 87.323 19.8056C87.323 22.0993 88.7773 23.4775 90.6669 23.4775C92.5565 23.4775 93.9865 22.0993 93.9865 19.8056Z" fill="#40A944"/>
<path d="M107.969 12.9855V16.5316C107.652 16.5064 107.41 16.4813 107.123 16.4813C105.04 16.4813 103.66 17.6382 103.66 20.1783V26.4357H99.8813V13.1816H103.492V14.932C104.412 13.6494 105.965 12.9855 107.973 12.9855H107.969Z" fill="#40A944"/>
<path d="M110.23 13.1818H114.01V26.4359H110.23V13.1818Z" fill="#40A944"/>
<path d="M130.296 13.1811V26.4352H126.684V24.906C125.74 26.0629 124.36 26.6313 122.614 26.6313C118.933 26.6313 116.099 23.9704 116.099 19.8056C116.099 15.6407 118.933 12.9799 122.614 12.9799C124.212 12.9799 125.567 13.498 126.512 14.5794V13.176H130.291L130.296 13.1811ZM126.591 19.8056C126.591 17.5169 125.136 16.1337 123.271 16.1337C121.407 16.1337 119.928 17.512 119.928 19.8056C119.928 22.0993 121.382 23.4775 123.271 23.4775C125.161 23.4775 126.591 22.0993 126.591 19.8056Z" fill="#40A944"/>
<path d="M137.117 8.15479H133.338V26.4338H137.117V8.15479Z" fill="#40A944"/>
<path d="M139.682 25.2021L140.943 22.4456C142.106 23.2102 143.876 23.7283 145.474 23.7283C147.221 23.7283 147.873 23.2605 147.873 22.5211C147.873 20.3532 139.999 22.5714 139.999 17.2748C139.999 14.7598 142.23 12.9893 146.028 12.9893C147.819 12.9893 149.807 13.4067 151.044 14.1461L149.782 16.8825C148.496 16.1431 147.215 15.8966 146.028 15.8966C144.331 15.8966 143.605 16.4398 143.605 17.129C143.605 19.3974 151.479 17.2044 151.479 22.4255C151.479 24.8902 149.229 26.6356 145.326 26.6356C143.119 26.6356 140.894 26.022 139.682 25.2072V25.2021Z" fill="#40A944"/>
<path d="M166.922 19.9563C166.922 23.8998 164.212 26.5557 160.576 26.5557C158.543 26.5557 156.797 25.6704 155.733 23.9955V31.2136H154.012V13.4776H155.659V16.0379C156.703 14.3127 158.469 13.3771 160.576 13.3771C164.212 13.3771 166.922 16.0379 166.922 19.9563ZM165.201 19.9563C165.201 16.9535 163.143 14.9062 160.453 14.9062C157.762 14.9062 155.704 16.9484 155.704 19.9563C155.704 22.9643 157.736 25.0065 160.453 25.0065C163.169 25.0065 165.201 22.9844 165.201 19.9563Z" fill="black"/>
<path d="M168.705 19.9563C168.705 16.1134 171.465 13.3771 175.194 13.3771C178.925 13.3771 181.664 16.1134 181.664 19.9563C181.664 23.7993 178.929 26.5557 175.194 26.5557C171.46 26.5557 168.705 23.7993 168.705 19.9563ZM179.918 19.9563C179.918 16.9283 177.906 14.9062 175.194 14.9062C172.484 14.9062 170.446 16.9283 170.446 19.9563C170.446 22.9844 172.479 25.0065 175.194 25.0065C177.91 25.0065 179.918 22.9844 179.918 19.9563Z" fill="black"/>
<path d="M184.275 13.4784H185.997V26.4357H184.275V13.4784Z" fill="black"/>
<path d="M201.634 18.9201V26.435H199.913V19.0962C199.913 16.3598 198.508 14.9565 196.084 14.9565C193.349 14.9565 191.628 16.6818 191.628 19.6344V26.435H189.906V13.4776H191.553V15.8669C192.473 14.2925 194.195 13.3771 196.396 13.3771C199.497 13.3771 201.629 15.1979 201.629 18.9201H201.634Z" fill="black"/>
<path d="M55.5716 23.0846C55.1364 23.4066 54.5774 23.5776 54.0233 23.5776C53.0043 23.5776 52.4256 22.964 52.4256 21.8271V16.435H55.6459V13.4773H52.4256V9.79541L48.6464 10.7058V13.4773H47.0339V16.435H48.6464V21.8775C48.6464 25.0313 50.4173 26.6308 53.5138 26.6308C54.6516 26.6308 55.7893 26.3592 56.5659 25.7908L55.5716 23.0796V23.0846Z" fill="#40A944"/>
<path d="M81.7519 23.0846C81.3165 23.4066 80.7576 23.5776 80.2036 23.5776C79.1846 23.5776 78.6058 22.964 78.6058 21.8271V16.435H81.826V13.4773H78.6058V9.79541L74.8266 10.7058V13.4773H73.2141V16.435H74.8266V21.8775C74.8266 25.0313 76.5975 26.6308 79.6941 26.6308C80.8318 26.6308 81.9695 26.3592 82.7461 25.7908L81.7519 23.0796V23.0846Z" fill="#40A944"/>
<path d="M112.12 11.2592C113.164 11.2592 114.01 10.3989 114.01 9.33773C114.01 8.27653 113.164 7.41626 112.12 7.41626C111.077 7.41626 110.23 8.27653 110.23 9.33773C110.23 10.3989 111.077 11.2592 112.12 11.2592Z" fill="#40A944"/>
<path d="M185.137 11.2592C186.18 11.2592 187.026 10.3989 187.026 9.33773C187.026 8.27653 186.18 7.41626 185.137 7.41626C184.094 7.41626 183.247 8.27653 183.247 9.33773C183.247 10.3989 184.094 11.2592 185.137 11.2592Z" fill="#40A944"/>
<path d="M210.871 24.3877C210.386 24.8303 209.708 25.0517 208.982 25.0517C207.551 25.0517 206.799 24.2117 206.799 22.6876V14.9514H210.653V13.4725H206.799V9.73022L205.078 10.6407V13.4725H203.278V14.9514H205.078V22.7831C205.078 25.1724 206.409 26.5506 208.808 26.5506C209.802 26.5506 210.821 26.2538 211.474 25.6401L210.871 24.3827V24.3877Z" fill="black"/>
<path d="M25.5688 37.698C31.0594 37.5773 35.9713 34.162 38.2913 29.1018C39.6367 26.1742 40.3144 22.8696 40.1363 19.3888C39.5971 8.86095 31.0495 0.375312 20.6815 0.0684817C9.31931 -0.26853 0 8.99676 0 20.4803C0 29.2476 5.43627 36.7222 13.0639 39.6195C12.3367 38.8449 11.8025 37.8992 11.476 36.7826C10.9665 35.0573 10.9814 33.0201 11.5156 30.6711L14.2659 18.9411H8.58227L9.51226 14.8417L9.76448 13.7552H15.4778L15.5817 13.2773L16.9172 7.39219L25.262 5.76749L23.5555 13.2773L22.3288 18.9411L19.4993 31.6771C19.0689 33.5835 19.2371 35.0573 20.0187 36.0884C20.0187 36.0884 21.1861 37.7936 25.5688 37.698ZM27.5474 12.8196C29.8723 12.3719 31.8706 14.404 31.4304 16.7681C31.1831 18.086 30.1394 19.1523 28.8384 19.4039C26.5135 19.8516 24.5151 17.8194 24.9554 15.4553C25.2027 14.1375 26.2464 13.0711 27.5474 12.8196Z" fill="#40A944"/>
</svg>
