<svg width="1150" height="375" viewBox="0 0 1150 375" fill="none" xmlns="http://www.w3.org/2000/svg">
<rect width="1150" height="375" fill="url(#paint0_linear_532_7599)"/>
<path d="M244.928 361.34C330.307 361.34 399.521 357.937 399.521 353.74C399.521 349.543 330.307 346.14 244.928 346.14C159.548 346.14 90.3342 349.543 90.3342 353.74C90.3342 357.937 159.548 361.34 244.928 361.34Z" fill="#CFD9DB"/>
<path d="M277.924 321.513L280.041 331.71C280.041 331.71 293.316 335.173 290.334 346.044H259.742L258.203 321.513H277.924Z" fill="#06262D"/>
<path d="M265.707 343.35V345.948H290.334C293.316 335.077 280.041 331.614 280.041 331.614C270.805 332.384 265.707 337.675 265.707 343.35Z" fill="#CAD9DB"/>
<path d="M259.55 343.543L259.742 346.044H290.334C290.526 345.178 290.719 344.312 290.719 343.543H259.55Z" fill="#9FAAAA"/>
<path d="M259.358 340.849C259.358 340.849 264.745 330.748 279.848 330.748L278.213 321.609H258.107L259.358 340.849Z" fill="black"/>
<path d="M213.759 321.513L211.642 331.71C211.642 331.71 198.367 335.173 201.349 346.044H231.941L233.48 321.513H213.759Z" fill="#06262D"/>
<path d="M225.976 343.35V345.948H201.349C198.367 335.077 211.642 331.614 211.642 331.614C220.878 332.383 225.976 337.674 225.976 343.35Z" fill="#CAD9DB"/>
<path d="M232.133 343.542L231.941 346.044H201.349C201.157 345.178 200.964 344.312 200.964 343.542H232.133Z" fill="#9FAAAA"/>
<path d="M211.642 331.71C211.642 331.71 221.359 329.786 232.518 338.348L233.576 321.513L213.47 320.551L211.642 331.71Z" fill="black"/>
<path d="M210.488 141.427L211.739 326.708C211.739 326.708 220.397 337.001 238.771 327.862L242.907 173.461L255.221 326.9C255.221 326.9 271.479 337.194 281.003 327.766L273.499 141.33L210.488 141.427Z" fill="#5B93BC"/>
<path d="M221.07 169.421L223.475 181.446C223.475 181.446 218.954 186.159 210.777 184.813L210.488 141.427H273.403L274.942 180.291C274.942 180.291 270.132 188.372 260.897 188.372L264.456 162.398C250.315 167.497 232.614 172.21 221.07 169.421Z" fill="black"/>
<path d="M233.48 176.443L250.026 171.633" stroke="black" stroke-linecap="round" stroke-linejoin="round"/>
<path d="M255.221 326.9L242.907 173.461L240.406 266.968" stroke="black" stroke-linecap="round" stroke-linejoin="round"/>
<path d="M264.456 162.398L276.577 330.748" stroke="black" stroke-linecap="round" stroke-linejoin="round"/>
<path d="M260.608 193.567L265.514 222.812C265.514 222.812 271.286 227.237 278.213 224.736L275.615 194.529L260.608 193.567Z" fill="#5B93BC"/>
<path d="M263.109 208.382L265.514 222.812C265.514 222.812 270.998 227.333 278.213 224.736" stroke="black" stroke-linecap="round" stroke-linejoin="round"/>
<path d="M219.916 157.203L217.414 330.46" stroke="black" stroke-linecap="round" stroke-linejoin="round"/>
<path d="M210.873 194.529L208.564 229.257C208.564 229.257 215.779 232.239 222.032 227.237L227.323 192.605L210.873 194.529Z" fill="#5B93BC"/>
<path d="M209.911 208.382C209.911 208.382 220.878 208.67 226.65 192.509L210.873 194.433L209.911 208.382Z" fill="black"/>
<path d="M210.873 194.529L205.678 205.111C205.678 205.111 223.764 206.265 227.227 192.605L210.873 194.529Z" fill="#5B93BC"/>
<path d="M205.678 205.111L210.873 194.529L227.227 192.605" stroke="black" stroke-linecap="round" stroke-linejoin="round"/>
<path d="M226.457 197.992L222.032 227.237C216.549 232.528 208.564 229.257 208.564 229.257" stroke="black" stroke-linecap="round" stroke-linejoin="round"/>
<path d="M209.622 212.807L208.564 228.776" stroke="black" stroke-linecap="round" stroke-linejoin="round"/>
<path d="M276.385 203.764C276.385 203.764 268.689 207.131 261.763 199.916L260.993 194.529L276.385 203.764Z" fill="black"/>
<path d="M275.519 194.529L278.117 206.169C278.117 206.169 264.841 207.035 260.512 193.567L275.519 194.529Z" fill="#5B93BC"/>
<path d="M260.608 193.567C260.608 193.567 265.13 207.805 278.213 206.169" stroke="black" stroke-linecap="round" stroke-linejoin="round"/>
<path d="M212.604 200.974C212.22 202.033 211.45 202.706 210.777 202.514C210.103 202.321 209.815 201.263 210.199 200.205C210.584 199.147 211.354 198.473 212.027 198.666C212.701 198.858 212.989 200.012 212.604 200.974Z" fill="black"/>
<path d="M275.808 200.012C276.289 200.974 276.096 202.033 275.423 202.321C274.75 202.61 273.98 202.033 273.499 200.974C273.018 199.916 273.21 198.954 273.884 198.666C274.557 198.377 275.423 198.954 275.808 200.012Z" fill="black"/>
<path d="M218.28 209.536L217.511 224.159" stroke="black" stroke-linecap="round" stroke-linejoin="round"/>
<path d="M267.631 207.42L268.689 214.635" stroke="black" stroke-linecap="round" stroke-linejoin="round"/>
<path d="M211.739 326.708C211.739 326.708 219.627 336.809 238.771 327.862" stroke="black" stroke-linecap="round" stroke-linejoin="round"/>
<path d="M214.913 318.05C214.913 318.05 218.569 322.379 232.037 319.685" stroke="black" stroke-linecap="round" stroke-linejoin="round"/>
<path d="M260.608 318.05C260.608 318.05 271.575 321.513 278.213 318.05" stroke="black" stroke-linecap="round" stroke-linejoin="round"/>
<path d="M225.207 335.558C218.088 330.556 211.546 331.614 211.546 331.614C211.546 331.614 218.857 330.267 225.207 332.865" stroke="#CFD9DB" stroke-width="0.5" stroke-linecap="round" stroke-linejoin="round"/>
<path d="M214.913 331.71C214.913 331.71 202.888 325.553 206.736 321.609C210.777 317.376 214.913 331.71 214.913 331.71Z" stroke="#CFD9DB" stroke-width="0.5" stroke-linecap="round" stroke-linejoin="round"/>
<path d="M214.913 331.71C214.913 331.71 219.242 323.245 225.207 322.571C231.171 321.898 221.359 330.46 214.913 331.71Z" stroke="#CFD9DB" stroke-width="0.5" stroke-linecap="round" stroke-linejoin="round"/>
<path d="M267.246 335.558C270.517 332.287 280.137 331.614 280.137 331.614C280.137 331.614 273.595 330.652 266.669 332.961" stroke="#CFD9DB" stroke-width="0.5" stroke-linecap="round" stroke-linejoin="round"/>
<path d="M278.309 331.71C278.309 331.71 273.403 322.956 269.074 325.168C264.745 327.381 278.309 331.71 278.309 331.71Z" stroke="#CFD9DB" stroke-width="0.5" stroke-linecap="round" stroke-linejoin="round"/>
<path d="M278.309 331.71C278.309 331.71 281.676 322.282 277.154 320.455C272.633 318.627 278.309 331.71 278.309 331.71Z" stroke="#CFD9DB" stroke-width="0.5" stroke-linecap="round" stroke-linejoin="round"/>
<path d="M207.987 71.2004L195.769 162.206C195.769 162.206 192.883 182.215 218.376 175L207.987 71.2004Z" fill="#FF8A69"/>
<path d="M198.078 144.986L195.769 162.206C195.769 162.206 191.633 182.889 218.376 175" stroke="black" stroke-linecap="round" stroke-linejoin="round"/>
<path d="M212.797 119.782C208.564 121.609 204.139 122.379 201.06 122.668L204.139 100.061C206.544 100.445 208.853 100.83 211.065 101.311L212.797 119.782Z" fill="black"/>
<path d="M207.987 71.2004L193.845 108.43C193.845 108.43 200.868 125.842 221.07 114.298L207.987 71.2004Z" fill="#F4F4F4"/>
<path d="M203.465 82.9368L193.845 108.334C193.845 108.334 194.134 110.065 195.962 112.085" stroke="black" stroke-linecap="round" stroke-linejoin="round"/>
<path d="M341.127 105.736C334.297 100.638 327.371 108.045 327.371 108.045L290.815 120.647L269.074 69.5649L262.821 137.771L268.977 142.004C277.828 148.064 289.372 148.449 298.511 142.966L334.105 124.399C345.36 127.093 351.709 120.551 351.709 120.551L354.018 107.083C354.307 105.351 352.768 103.812 351.036 104.101L341.127 105.736Z" fill="#FF8A69"/>
<path d="M285.524 108.237C285.332 109.007 281.099 124.303 263.879 125.842L268.977 69.5649L285.524 108.237Z" fill="black"/>
<path d="M259.839 111.701C282.83 127.093 288.602 100.734 288.602 100.734L269.074 69.6611L259.839 111.701Z" fill="#F4F4F4"/>
<path d="M286.39 123.822L290.815 120.647L288.602 127.093" stroke="black" stroke-linecap="round" stroke-linejoin="round"/>
<path d="M272.152 74.4712L288.602 100.734" stroke="black" stroke-linecap="round" stroke-linejoin="round"/>
<path d="M336.414 111.027L343.148 109.68L341.031 105.736C338.242 103.235 334.971 103.716 332.277 104.87C328.718 106.409 326.217 109.776 326.12 113.624C326.12 114.394 326.217 114.779 326.217 114.779" stroke="black" stroke-linecap="round" stroke-linejoin="round"/>
<path d="M353.922 107.468L345.36 110.161" stroke="black" stroke-linecap="round" stroke-linejoin="round"/>
<path d="M345.36 114.875L353.153 111.989" stroke="black" stroke-linecap="round" stroke-linejoin="round"/>
<path d="M345.36 119.012L352.479 116.03" stroke="black" stroke-linecap="round" stroke-linejoin="round"/>
<path d="M334.105 124.399L328.91 120.551L331.508 126.419L334.105 124.399Z" fill="black"/>
<path d="M334.105 124.399L300.435 141.426" stroke="black" stroke-linecap="round" stroke-linejoin="round"/>
<path d="M276.577 142.966C276.577 142.966 268.208 162.206 248.102 163.937C227.996 165.669 206.544 149.219 206.544 149.219L207.987 71.2005L227.804 65.5247V67.6411C227.804 67.6411 228.766 76.9725 238.771 77.0687C248.872 77.1649 249.93 64.6589 249.93 64.6589L268.977 69.6613L276.577 142.966Z" fill="#CAD9DB"/>
<path d="M227.996 54.7503L227.9 67.6411C227.9 67.6411 228.862 76.9725 238.867 77.0687C248.872 77.1649 250.026 64.6589 250.026 64.6589L245.312 51.0947L227.996 54.7503Z" fill="#FF8A69"/>
<path d="M247.429 57.0591C247.429 57.0591 241.464 67.5449 227.9 65.6209L227.996 54.8465L245.409 51.1909L247.429 57.0591Z" fill="black"/>
<path d="M250.122 65.5247C253.778 102.177 254.836 136.616 247.429 164.033C247.429 164.033 258.684 162.975 262.917 158.742L250.122 65.5247Z" fill="black"/>
<path d="M207.987 71.2005L204.716 171.729C209.911 180.195 216.837 183.37 225.784 181.061L227.9 65.6208C222.224 65.8132 215.875 67.3525 207.987 71.2005Z" fill="#F4F4F4"/>
<path d="M250.026 64.5628L258.492 181.734C270.517 179.714 277.539 175.674 281.003 170.19L269.074 69.6614C262.628 65.9096 256.279 64.178 250.026 64.5628Z" fill="#F4F4F4"/>
<path d="M207.313 91.9797L204.716 171.633C204.716 171.633 210.777 184.717 225.784 180.965L226.842 123.149" stroke="black" stroke-linecap="round" stroke-linejoin="round"/>
<path d="M271.864 93.134L279.175 154.894" stroke="black" stroke-linecap="round" stroke-linejoin="round"/>
<path d="M274.653 116.414L276.577 106.41" stroke="black" stroke-linecap="round" stroke-linejoin="round"/>
<path d="M207.987 71.2005C207.987 71.2005 217.222 66.6791 227.9 65.5247L227.323 95.4428" stroke="black" stroke-linecap="round" stroke-linejoin="round"/>
<path d="M230.498 73.5093C230.498 73.5093 232.518 76.9725 238.867 76.9725C245.216 76.9725 248.487 72.2587 250.122 65.5247" stroke="black" stroke-linecap="round" stroke-linejoin="round"/>
<path d="M251.661 87.3621L256.183 150.277" stroke="black" stroke-linecap="round" stroke-linejoin="round"/>
<path d="M258.492 181.734C258.492 181.734 275.134 179.907 281.002 170.19" stroke="black" stroke-linecap="round" stroke-linejoin="round"/>
<path d="M224.148 42.0517C225.495 44.6491 225.399 47.5352 223.956 48.4972C222.417 49.4592 220.108 48.2086 218.761 45.6112C217.414 43.0138 217.511 40.1277 218.954 39.1657C220.493 38.2037 222.802 39.4543 224.148 42.0517Z" fill="#E55145"/>
<path d="M255.413 52.249C252.912 53.692 250.315 53.5958 249.449 51.9604C248.679 50.325 250.026 47.8238 252.431 46.3808C254.836 44.9378 257.53 45.034 258.395 46.6694C259.165 48.3048 257.818 50.806 255.413 52.249Z" fill="#E55145"/>
<path d="M222.417 27.6218C222.417 27.6218 216.452 34.1634 220.108 38.9734C220.108 38.9734 222.609 38.9734 222.898 44.6492L251.469 50.9022C251.469 50.9022 254.067 44.8416 256.375 45.4188C256.375 45.4188 260.32 38.5886 255.894 35.5102C251.469 32.3356 222.417 27.6218 222.417 27.6218Z" fill="black"/>
<path d="M236.173 61.0995C224.726 60.1375 220.589 42.1481 223.283 32.7205C225.976 23.2929 235.211 17.8095 243.869 20.5031C252.527 23.1967 257.337 33.0091 254.644 42.4367C251.95 51.8643 247.429 62.1577 236.173 61.0995Z" fill="#FF8A69"/>
<path d="M236.847 45.6113L240.406 46.4771C240.406 46.4771 239.733 48.8821 237.905 48.4973C236.077 48.1125 236.847 45.6113 236.847 45.6113Z" fill="#E55145"/>
<path d="M234.057 49.5554C234.057 49.5554 236.75 50.6136 241.272 50.806C241.272 50.806 240.406 55.135 236.847 54.4616C233.191 53.692 234.057 49.5554 234.057 49.5554Z" fill="#B2221B"/>
<path d="M234.442 41.0899C234.346 41.9557 233.672 42.6291 233.095 42.5329C232.422 42.4367 232.037 41.6671 232.133 40.8013C232.229 39.9355 232.903 39.2621 233.48 39.3583C234.153 39.4545 234.538 40.2241 234.442 41.0899Z" fill="black"/>
<path d="M245.986 43.8797C245.889 44.7455 245.216 45.4189 244.639 45.3227C244.062 45.2265 243.581 44.4569 243.677 43.5911C243.773 42.7253 244.446 42.0519 245.024 42.1481C245.601 42.2443 246.082 43.0139 245.986 43.8797Z" fill="black"/>
<path d="M230.882 35.895C230.882 35.895 234.153 33.8748 235.019 37.6266L230.882 35.895Z" fill="#3A180C"/>
<path d="M243.581 38.8773C243.581 38.8773 246.659 36.3761 248.006 39.5507L243.581 38.8773Z" fill="#3A180C"/>
<path d="M220.781 35.414C220.781 35.414 228.67 35.6064 232.229 26.8522C233.961 30.7002 238.001 33.3938 243.677 35.414L241.368 28.8724C241.368 28.8724 250.7 42.148 260.416 40.5126C260.416 40.5126 261.859 30.9888 257.337 24.351C252.72 17.617 236.751 10.883 227.9 19.8296C227.804 19.8296 213.951 22.8118 220.781 35.414Z" fill="#723A27"/>
<path d="M241.272 21.1764C238.001 22.5232 234.827 22.6194 232.614 22.427C230.69 22.2346 228.958 21.3688 227.804 19.8296C229.343 18.2904 230.979 17.2322 232.806 16.5588C232.325 17.5208 232.133 18.1942 232.133 18.1942C233.865 17.0398 236.654 18.1942 236.654 18.1942L233.961 19.8296C236.366 19.541 241.08 20.8878 241.272 21.1764Z" fill="#3A180C"/>
<path d="M290.815 120.647L327.371 108.045" stroke="black" stroke-linecap="round" stroke-linejoin="round"/>
<path d="M136.51 96.9822L111.402 118.242L106.303 79.8586L92.5468 69.6614C92.5468 69.6614 82.1572 78.2232 86.1976 87.9394L92.4506 88.6128L92.8354 126.804C93.8936 141.715 106.592 148.93 119.771 141.427L143.918 129.69L136.51 96.9822Z" fill="#CC7256"/>
<path d="M108.708 121.321L111.402 118.242V124.399" stroke="black" stroke-linecap="round" stroke-linejoin="round"/>
<path d="M92.5468 88.5166L96.6833 88.9976C96.6833 88.9976 97.4529 86.304 94.7593 85.2458C94.7593 85.2458 96.7796 85.5344 96.8758 83.3218C96.8758 83.3218 99.377 88.228 102.359 87.747C102.359 87.747 96.3948 93.1342 92.5468 92.6532V88.5166Z" fill="black"/>
<path d="M90.0455 77.3572L96.8757 83.3216C96.7795 85.0532 95.6251 85.3418 94.7593 85.2456" stroke="black" stroke-linecap="round" stroke-linejoin="round"/>
<path d="M96.1062 72.1624C95.7214 75.7218 97.453 78.3192 101.109 79.7622L105.63 73.7016L100.243 66.679L96.1062 72.1624Z" fill="#F4F4F4"/>
<path d="M106.303 79.7622L91.9696 77.0686C91.9696 77.0686 91.0076 78.223 91.4886 79.7622C91.7772 80.5318 92.3544 81.109 93.124 81.4938L96.972 83.2254L98.6074 85.5342C99.5694 87.0734 101.301 87.9392 103.129 87.6506L107.362 86.9772L106.303 79.7622Z" fill="#CC7256"/>
<path d="M102.936 87.7468C101.109 88.0354 99.377 87.1696 98.415 85.6304L96.7796 83.3216L92.9316 81.59C92.162 81.2052 91.5848 80.628 91.2962 79.8584C90.8152 78.3192 91.7772 77.1648 91.7772 77.1648L102.455 79.0888" stroke="black" stroke-linecap="round" stroke-linejoin="round"/>
<path d="M116.02 73.6055C114.673 75.9143 112.556 77.1649 111.306 76.3953C111.113 76.2991 110.921 76.1067 110.825 75.9143C109.959 75.1447 108.901 74.2789 106.111 73.6055C109.574 71.7777 111.21 68.8917 111.017 64.9475C113.037 66.9677 114.288 67.4487 115.442 67.8335C115.635 67.8335 115.923 67.9297 116.116 68.0259C117.366 68.7955 117.366 71.2967 116.02 73.6055Z" fill="#F4F4F4"/>
<path d="M114.192 63.6968C113.903 63.5044 113.518 63.4082 113.134 63.4082C109.767 62.2538 105.341 60.7146 93.4126 41.2822L85.0432 56.0008L76.6738 70.7194C99.5694 71.1042 103.129 74.1826 105.822 76.4914C106.015 76.78 106.303 77.0686 106.592 77.261C108.708 78.4154 112.075 76.3952 114.192 72.7396C116.308 69.084 116.308 64.8512 114.192 63.6968Z" fill="#F4F4F4"/>
<path d="M93.605 60.8108C88.9874 68.8916 80.9066 73.0282 75.5194 69.9498C70.1322 66.8714 69.555 57.8286 74.1726 49.6516C78.7902 41.5708 86.871 37.4342 92.2582 40.5126C97.6454 43.591 98.2226 52.6338 93.605 60.8108Z" fill="#B2221B"/>
<path d="M91.8351 59.7245C96.474 51.6052 95.8591 42.5232 90.4616 39.4394C85.0641 36.3555 76.9279 40.4376 72.289 48.5569C67.65 56.6763 68.265 65.7583 73.6625 68.8421C79.06 71.926 87.1961 67.8439 91.8351 59.7245Z" fill="#F4F4F4"/>
<path d="M92.8354 46.477C85.3318 44.9378 77.1548 47.8238 71.479 54.0768C71.96 52.4414 72.6334 50.9022 73.4992 49.2668C77.5396 42.2442 84.5622 38.6848 89.276 41.3784C91.1038 42.4366 92.3544 44.2644 92.8354 46.477Z" fill="black"/>
<path d="M90.5266 58.9831C86.4862 66.0057 79.4636 69.5651 74.7498 66.8715C71.0942 64.7551 69.9398 59.5603 71.5752 54.0769C77.251 47.8239 85.428 44.8417 92.9316 46.4771C93.7012 50.0365 92.9316 54.6541 90.5266 58.9831Z" fill="#82B1DB"/>
<path d="M114.192 72.5471C112.075 76.2989 108.708 78.3191 106.592 77.0685C106.303 76.8761 106.015 76.5875 105.822 76.2989C104.379 75.1445 102.744 73.7015 98.2225 72.5471C103.706 69.5649 106.4 64.9473 106.111 58.6943C109.382 61.9651 111.402 62.7347 113.23 63.3119C113.615 63.3119 113.999 63.4081 114.288 63.6005C116.308 64.8511 116.308 68.7953 114.192 72.5471Z" fill="#B2221B"/>
<path d="M105.726 76.2991C105.726 76.2991 101.397 71.3929 87.2557 71.0081" stroke="black" stroke-linecap="round" stroke-linejoin="round"/>
<path d="M70.9017 57.059C70.4207 61.388 71.6713 65.236 74.6535 66.9676C79.3673 69.6612 86.3899 66.1018 90.4303 59.0792C91.6809 56.9628 92.4505 54.654 92.8353 52.5376" stroke="black" stroke-linecap="round" stroke-linejoin="round"/>
<path d="M98.5112 78.3192C98.5112 78.3192 95.7214 76.8762 96.01 72.1624" stroke="black" stroke-linecap="round" stroke-linejoin="round"/>
<path d="M86.1976 87.843L96.5872 88.9974C96.8758 87.4582 96.2986 85.919 94.6632 85.2456L88.1216 82.6482" stroke="black" stroke-linecap="round" stroke-linejoin="round"/>
<path d="M92.5468 88.5164L92.8353 119.589" stroke="black" stroke-linecap="round" stroke-linejoin="round"/>
<path d="M109.382 103.139L111.402 118.242" stroke="black" stroke-linecap="round" stroke-linejoin="round"/>
<path d="M150.555 54.8464L138.146 74.7598C138.146 74.7598 125.543 73.5092 126.121 89.5746C126.121 89.5746 117.847 89.5746 115.827 99.0022C113.037 111.797 135.452 122.379 159.117 127.093C190.671 133.346 212.989 114.298 191.344 96.2124C191.344 96.2124 192.691 83.6102 183.071 81.0128L179.319 62.6386L150.555 54.8464Z" fill="black"/>
<path d="M105.919 163.456C105.919 163.456 126.409 206.458 186.053 183.081L139.108 138.829C139.204 138.829 105.919 163.456 105.919 163.456Z" fill="#CAD9DB"/>
<path d="M261.763 305.351C261.763 305.351 238.194 331.229 213.085 329.113C187.881 326.996 131.219 315.548 131.219 315.548L126.121 241.955L215.779 230.989L261.763 305.351Z" fill="#0A2930"/>
<path d="M121.695 167.497L139.973 338.444C140.166 340.56 138.723 342.581 136.51 342.869C131.604 343.446 123.716 345.948 123.716 355.664H154.596V167.497H121.695Z" fill="#CC7256"/>
<path d="M134.971 342.196C134.971 342.196 142.09 341.715 142.09 351.816H153.249C153.249 351.816 153.345 347.679 156.231 347.679V355.664H123.619C123.716 355.664 121.022 344.697 134.971 342.196Z" fill="#9FAAAA"/>
<path d="M139.396 333.153C139.396 333.153 141.705 331.325 154.596 335.173V327.862L138.338 323.052L139.396 333.153Z" fill="black"/>
<path d="M156.231 353.163V355.664H123.619C123.619 355.664 123.427 354.702 123.427 353.163H156.231Z" fill="#768483"/>
<path d="M134.971 342.196C134.971 342.196 142.09 342.1 142.09 351.816H148.92" stroke="black" stroke-linecap="round" stroke-linejoin="round"/>
<path d="M123.716 355.664H156.231" stroke="black" stroke-linecap="round" stroke-linejoin="round"/>
<path d="M153.249 351.816C153.249 351.816 153.249 348.256 156.231 347.679" stroke="black" stroke-linecap="round" stroke-linejoin="round"/>
<path d="M136.51 167.497L211.354 342.677C211.354 342.677 204.043 345.659 203.562 355.664H229.055L172.393 153.163L136.51 167.497Z" fill="#CC7256"/>
<path d="M200.098 316.414C200.098 316.414 209.334 311.316 217.222 313.336L214.913 305.255L197.982 311.316L200.098 316.414Z" fill="black"/>
<path d="M203.561 355.664C203.561 355.664 202.696 342.196 213.085 342.196C223.475 342.196 224.918 351.912 224.918 351.912H226.361C226.361 351.912 227.515 347.294 228.67 347.294L229.054 355.568H203.561V355.664Z" fill="#CAD9DB"/>
<path d="M229.055 355.664H203.562C203.562 355.664 203.465 354.702 203.658 353.163H229.055V355.664Z" fill="#9FAAAA"/>
<path d="M229.055 355.664H203.562C203.562 355.664 202.984 352.008 204.427 348.93" stroke="black" stroke-linecap="round" stroke-linejoin="round"/>
<path d="M213.085 342.1C213.085 342.1 222.898 341.426 224.918 351.816H226.361C226.361 351.816 227.227 347.872 228.67 347.198" stroke="black" stroke-linecap="round" stroke-linejoin="round"/>
<path d="M119.868 153.163L131.219 315.548C131.219 315.548 144.495 348.834 180.185 329.401C203.85 316.51 239.252 285.245 261.859 305.447L157.578 137.097L119.868 153.163Z" fill="#82B1DB"/>
<path d="M159.887 156.53L222.321 257.54L216.549 261.58H229.055L224.533 264.081L238.578 286.881" stroke="black" stroke-linecap="round" stroke-linejoin="round"/>
<path d="M186.053 183.081C186.053 183.081 137.953 160.089 120.926 168.555C120.83 168.555 119.868 153.067 119.868 153.067L157.578 137.001L186.053 183.081Z" fill="black"/>
<path d="M130.065 300.445C130.065 300.445 148.15 330.267 169.218 319.3C190.286 308.334 234.73 279.089 251.565 288.997" stroke="black" stroke-linecap="round" stroke-linejoin="round"/>
<path d="M119.868 153.163L131.123 315.548" stroke="black" stroke-linecap="round" stroke-linejoin="round"/>
<path d="M180.089 329.305C203.754 316.414 239.156 285.149 261.763 305.351C261.763 305.351 252.143 317.665 231.267 326.323" stroke="black" stroke-linecap="round" stroke-linejoin="round"/>
<path d="M111.402 171.441C111.402 171.441 116.885 178.175 121.792 180.869" stroke="black" stroke-linecap="round" stroke-linejoin="round"/>
<path d="M173.259 96.982C173.259 96.982 168.352 84.0912 168.737 71.97L149.016 76.2028C152.672 82.1672 152.479 88.4202 150.652 91.7872L136.414 96.982C136.414 96.982 114.673 116.222 121.695 126.131L119.868 153.163C119.868 153.163 135.163 156.915 152.095 151.046C169.026 145.178 165.947 153.163 165.947 153.163L187.015 104.87L173.259 96.982Z" fill="#CC7256"/>
<path d="M169.218 80.8204C169.218 80.8204 167.198 93.5188 150.555 91.8834C152.383 88.5164 152.576 82.2634 148.92 76.299L168.641 72.0662C168.641 74.9522 168.93 77.9344 169.218 80.8204Z" fill="black"/>
<path d="M173.259 144.889C183.456 155.76 187.208 167.593 186.053 183.081C186.053 183.081 157.963 166.246 135.837 158.55C121.695 153.644 105.919 163.36 105.919 163.36L119.194 134.5C119.194 134.5 114.769 125.746 118.617 116.799C122.561 107.853 136.414 96.9819 136.414 96.9819L150.555 91.8833L141.705 119.589L173.162 96.9819C178.55 98.0401 182.975 100.83 186.919 104.87L173.259 144.889Z" fill="#F4F4F4"/>
<path d="M177.203 133.345L173.259 144.889C176.722 148.641 179.512 152.489 181.532 156.53" stroke="black" stroke-linecap="round" stroke-linejoin="round"/>
<path d="M150.652 91.8833L141.801 119.589" stroke="black" stroke-linecap="round" stroke-linejoin="round"/>
<path d="M136.51 96.9819C136.51 96.9819 122.657 107.853 118.713 116.799C114.769 125.746 119.29 134.5 119.29 134.5L106.015 163.36L113.134 159.993" stroke="black" stroke-linecap="round" stroke-linejoin="round"/>
<path d="M173.259 96.9819L157.193 108.526" stroke="black" stroke-linecap="round" stroke-linejoin="round"/>
<path d="M173.259 144.89L167.294 139.887" stroke="black" stroke-linecap="round" stroke-linejoin="round"/>
<path d="M165.947 131.614C161.137 141.042 144.014 134.5 144.014 134.5C132.47 130.267 128.237 134.211 128.237 134.211" stroke="black" stroke-linecap="round" stroke-linejoin="round"/>
<path d="M208.372 138.156L187.015 104.87L184.225 106.41C181.436 107.949 179.127 110.065 177.491 112.566C173.451 118.723 173.066 127.093 177.78 133.538C177.972 133.827 192.595 151.046 192.595 151.046L182.686 160.666L173.451 163.745C171.431 164.418 167.006 168.074 166.044 169.902C166.044 169.902 168.545 177.694 173.932 181.349C173.932 181.349 190.094 177.982 191.056 170.094C191.056 170.094 200.868 164.418 207.121 160.955C214.913 156.53 215.202 147.102 208.372 138.156Z" fill="#CC7256"/>
<path d="M196.154 152.874C193.557 152.682 192.499 150.95 192.499 150.95C192.499 150.95 191.729 151.046 192.98 154.029" stroke="black" stroke-linecap="round" stroke-linejoin="round"/>
<path d="M171.912 179.81L177.395 176.635" stroke="black" stroke-linecap="round" stroke-linejoin="round"/>
<path d="M169.026 176.443L174.702 173.076" stroke="black" stroke-linecap="round" stroke-linejoin="round"/>
<path d="M167.294 173.076L173.066 168.651" stroke="black" stroke-linecap="round" stroke-linejoin="round"/>
<path d="M174.894 163.168C174.894 163.168 175.183 163.841 173.355 161.628C171.527 159.416 174.124 156.53 174.124 156.53L182.686 160.57L174.894 163.168Z" fill="#CC7256"/>
<path d="M179.608 161.628L172.104 164.226" stroke="black" stroke-linecap="round" stroke-linejoin="round"/>
<path d="M174.028 156.53C173.74 156.915 171.431 159.704 173.259 161.628C175.183 163.552 174.798 163.168 174.798 163.168" stroke="black" stroke-linecap="round" stroke-linejoin="round"/>
<path d="M187.015 104.87L184.225 106.41C181.436 107.949 179.127 110.065 177.491 112.566C173.451 118.723 173.066 127.093 177.78 133.538L183.648 140.561" stroke="black" stroke-linecap="round" stroke-linejoin="round"/>
<path d="M196.154 167.112C196.154 167.112 200.772 164.418 207.025 160.955C214.817 156.626 215.202 147.102 208.275 138.155L199.906 124.88" stroke="black" stroke-linecap="round" stroke-linejoin="round"/>
<path d="M149.978 68.5069C150.844 71.1043 150.267 73.7017 148.824 74.3751C147.381 75.0485 145.457 73.5093 144.687 71.0081C143.918 68.5069 144.399 65.8133 145.842 65.1399C147.285 64.4665 149.112 65.9095 149.978 68.5069Z" fill="#99413A"/>
<path d="M175.856 82.1674C173.451 83.2256 171.142 82.7446 170.661 81.1092C170.18 79.4738 171.719 77.3574 174.124 76.2992C176.529 75.241 178.838 75.722 179.319 77.3574C179.8 78.9928 178.165 81.1092 175.856 82.1674Z" fill="#99413A"/>
<path d="M157.674 87.747C147.766 85.2458 146.804 68.1222 150.555 59.7528C154.307 51.3834 163.254 47.6316 170.469 51.191C177.684 54.8466 180.474 64.5628 176.626 72.9322C172.874 81.3016 167.39 90.2482 157.674 87.747Z" fill="#CC7256"/>
<path d="M169.795 46.6695C169.795 46.6695 152.095 42.6291 147.092 56.4819C147.092 56.4819 148.824 63.6969 160.945 64.2741C160.945 64.2741 160.849 60.2337 163.735 59.5603C162.196 61.9653 163.446 65.3323 166.14 65.8133L169.795 66.5829C168.93 65.0437 169.699 63.6007 170.276 62.0615L170.95 63.6007C171.912 65.8133 173.643 67.5449 175.76 68.6031L181.051 71.1043C180.955 71.2005 185.957 53.1149 169.795 46.6695Z" fill="black"/>
<path d="M158.636 74.5676L162.292 75.722C162.292 75.722 162.099 77.5498 160.079 77.2612C158.059 76.9726 158.636 74.5676 158.636 74.5676Z" fill="#99413A"/>
<path d="M155.75 76.9724C155.75 76.9724 158.636 79.185 163.446 79.2812C163.446 79.2812 161.426 83.7064 158.251 82.9368C154.981 82.1672 155.75 76.9724 155.75 76.9724Z" fill="#B2221B"/>
<path d="M153.441 65.8134C153.441 65.8134 159.117 63.4084 158.54 68.2184C157.482 67.2564 155.75 66.102 153.441 65.8134Z" fill="black"/>
<path d="M170.95 70.1422C170.95 70.1422 166.813 65.9094 165.37 69.9498C166.909 69.4688 168.737 69.565 170.95 70.1422Z" fill="black"/>
<path d="M169.026 72.6435C168.641 73.1245 168.064 73.1245 167.583 73.0283C167.487 72.6435 167.198 72.3549 166.909 72.2587C166.332 72.1625 165.659 72.6435 165.466 73.5093C165.274 74.3751 165.563 75.0485 166.14 75.2409C166.717 75.3371 167.39 74.8561 167.583 73.9903C167.583 73.8941 167.583 73.8941 167.583 73.7979C168.833 73.7979 169.026 72.6435 169.026 72.6435Z" fill="black"/>
<path d="M154.307 68.2183C154.403 68.7955 154.884 69.0841 155.269 69.2765C155.558 68.9879 155.943 68.8917 156.231 69.0841C156.808 69.2765 157.001 70.0461 156.808 70.9119C156.616 71.7776 155.846 72.1625 155.269 71.9701C154.692 71.7777 154.5 71.0081 154.692 70.1423C154.692 70.0461 154.692 70.0461 154.788 70.0461C153.826 69.2765 154.307 68.2183 154.307 68.2183Z" fill="black"/>
<path d="M341.897 108.334L379.992 100.926L411.257 73.0282L418.665 60.6184L420.011 60.907C421.454 61.1956 422.513 62.4462 422.609 63.9854L421.935 68.7954L430.69 68.4106C433.095 68.4106 435.115 70.046 435.596 72.3548L437.424 80.8204L417.222 91.1138L395.384 117.473C392.306 121.224 386.149 124.303 381.339 125.457L357.481 131.037L341.897 108.334Z" fill="#FFAB97"/>
<path d="M366.043 105.159C366.043 105.159 379.896 113.913 378.934 126.131L367.102 129.209L366.043 105.159Z" fill="black"/>
<path d="M380.954 106.506L379.896 100.926L384.706 105.159" stroke="black" stroke-linecap="round" stroke-linejoin="round"/>
<path d="M435.692 72.3547H428.285" stroke="black" stroke-linecap="round" stroke-linejoin="round"/>
<path d="M436.269 75.2407L430.786 76.2989" stroke="black" stroke-linecap="round" stroke-linejoin="round"/>
<path d="M436.943 78.3193L430.786 80.8205" stroke="black" stroke-linecap="round" stroke-linejoin="round"/>
<path d="M417.222 91.1139C417.222 91.1139 412.989 91.1139 412.893 86.9773C412.893 86.9773 412.315 91.9797 414.047 94.7695L417.222 91.1139Z" fill="black"/>
<path d="M411.257 81.109C408.852 79.4736 411.257 73.0282 411.257 73.0282L418.665 60.6184C418.665 60.6184 422.994 61.2918 422.609 63.9854C422.224 66.679 421.936 68.7954 421.936 68.7954L421.455 73.3168C421.455 73.3168 426.457 78.6078 423.571 81.59" stroke="black" stroke-linecap="round" stroke-linejoin="round"/>
<path d="M284.177 143.35L250.988 186.544L210.103 198.184L195.673 197.222V200.301C195.673 201.551 196.25 202.706 197.308 203.475L204.523 206.458L200.098 215.019C197.405 218.964 199.136 224.447 203.561 226.179L211.642 229.257L224.437 210.402L261.762 207.901C266.572 207.131 270.998 204.918 274.461 201.551L299.665 176.924L284.177 143.35Z" fill="#FFAB97"/>
<path d="M265.611 167.593C265.611 167.593 264.841 190.2 277.443 198.761L280.137 196.164L270.998 160.57L265.611 167.593Z" fill="black"/>
<path d="M252.624 192.99L250.988 186.544L256.856 191.354" stroke="black" stroke-linecap="round" stroke-linejoin="round"/>
<path d="M205.197 215.115L200.291 223.581" stroke="black" stroke-linecap="round" stroke-linejoin="round"/>
<path d="M203.658 226.179L207.794 219.348" stroke="black" stroke-linecap="round" stroke-linejoin="round"/>
<path d="M207.794 227.814L213.566 219.348" stroke="black" stroke-linecap="round" stroke-linejoin="round"/>
<path d="M224.533 210.402C224.533 210.402 225.591 206.265 223.86 205.207C223.86 205.207 228.958 206.169 229.247 210.113L224.533 210.402Z" fill="black"/>
<path d="M195.673 197.222C195 203.187 197.309 203.475 197.309 203.475L204.524 206.458H208.468C208.468 206.458 210.584 211.556 215.298 208.382" stroke="black" stroke-linecap="round" stroke-linejoin="round"/>
<path d="M224.533 210.402L261.859 207.9" stroke="black" stroke-linecap="round" stroke-linejoin="round"/>
<path d="M336.51 316.799L319.194 341.138L333.143 354.606H367.871C367.871 354.606 369.218 338.829 357.482 338.829C345.745 338.829 348.054 338.829 348.054 338.829L357.097 322.667L336.51 316.799Z" fill="#FFAB97"/>
<path d="M357.193 322.667L349.689 336.135C334.586 339.117 327.66 329.401 327.66 329.401L336.606 316.799L357.193 322.667Z" fill="black"/>
<path d="M336.51 193.759L378.357 256.001L333.047 321.994C333.047 321.994 339.396 338.059 358.444 331.229L409.045 276.299C414.24 270.623 419.242 264.37 415.009 255.327L379.03 173.269L336.51 193.759Z" fill="#5B93BC"/>
<path d="M355.461 197.222L388.65 253.018H383.552L390.574 256.866L383.552 255.904L388.266 260.426H382.59L337.087 327.958" stroke="black" stroke-linecap="round" stroke-linejoin="round"/>
<path d="M356.231 184.235L378.357 256.001L336.51 193.759L356.231 184.235Z" fill="black"/>
<path d="M337.857 313.913C338.338 318.53 341.897 327.188 362.484 327.862C363.254 327.862 363.638 328.824 363.061 329.305L355.558 336.424C355.461 336.52 355.461 336.52 355.365 336.616C353.826 337.29 339.588 343.254 329.872 323.725C329.776 323.437 329.776 323.148 329.968 322.859L336.414 313.528C336.799 312.855 337.857 313.143 337.857 313.913Z" fill="#9FAAAA"/>
<path d="M367.871 354.605H333.143L319.194 341.137C318.809 337.193 320.926 334.692 324.966 333.057C324.966 333.057 322.85 343.542 335.644 339.791L339.877 339.406C339.877 339.406 341.416 334.5 346.611 334.884C347.958 334.981 349.112 335.365 349.978 335.75C352.575 336.905 353.537 338.925 353.537 338.925H357.578C369.314 338.925 367.871 354.702 367.871 354.605Z" fill="#06262D"/>
<path d="M367.871 354.606H333.143L319.194 341.138C319.098 339.887 319.194 338.733 319.579 337.771L335.452 351.142H367.871C367.871 351.527 367.871 351.912 367.967 352.201C367.967 352.393 367.967 352.489 367.967 352.682C367.967 353.932 367.871 354.606 367.871 354.606Z" fill="#9FAAAA"/>
<path d="M367.871 351.142H344.687C344.687 351.142 343.436 338.829 353.537 338.829H357.578C365.755 338.925 367.486 346.525 367.871 351.142Z" fill="#9FAAAA"/>
<path d="M336.51 333.057L344.013 323.437" stroke="black" stroke-linecap="round" stroke-linejoin="round"/>
<path d="M319.194 341.234L333.239 354.606H367.871" stroke="black" stroke-linecap="round" stroke-linejoin="round"/>
<path d="M319.579 337.867L335.452 351.142H339.781" stroke="black" stroke-linecap="round" stroke-linejoin="round"/>
<path d="M367.871 351.142H359.117" stroke="black" stroke-linecap="round" stroke-linejoin="round"/>
<path d="M353.537 338.925C353.537 338.925 346.322 339.214 345.072 341.619" stroke="white" stroke-width="0.5" stroke-linecap="round" stroke-linejoin="round"/>
<path d="M342.955 340.272C342.955 340.272 344.975 338.252 352.19 339.021" stroke="white" stroke-width="0.5" stroke-linecap="round" stroke-linejoin="round"/>
<path d="M350.651 338.925C350.651 338.925 343.34 337.578 344.687 334.307C346.13 331.037 350.651 338.925 350.651 338.925Z" stroke="white" stroke-width="0.5" stroke-linecap="round" stroke-linejoin="round"/>
<path d="M350.651 338.925C350.651 338.925 351.325 331.518 354.692 332.576C358.059 333.634 350.651 338.925 350.651 338.925Z" stroke="white" stroke-width="0.5" stroke-linecap="round" stroke-linejoin="round"/>
<path d="M293.509 316.799L272.729 346.044L290.142 354.605H324.87C324.87 354.605 326.217 338.829 314.48 338.829C302.744 338.829 305.053 338.829 305.053 338.829L314.095 322.667L293.509 316.799Z" fill="#FFAB97"/>
<path d="M314.192 322.667L306.592 336.424C288.314 337.482 286.582 326.611 286.582 326.611L293.509 316.799L314.192 322.667Z" fill="black"/>
<path d="M312.364 185.967L335.259 256L293.412 316.799C293.412 316.799 296.202 338.059 315.154 331.229L365.755 276.299C370.95 270.623 373.162 262.831 371.719 255.327L354.692 165.476L312.364 185.967Z" fill="#82B1DB"/>
<path d="M321.695 214.346C321.695 214.346 344.591 209.824 361.233 198.761L318.521 204.63L321.695 214.346Z" fill="black"/>
<path d="M296.683 325.649L341.897 267.929L339.877 262.831L346.226 266.775L341.897 258.598H349.785L339.877 253.018H343.629L329.102 206.554" stroke="black" stroke-linecap="round" stroke-linejoin="round"/>
<path d="M297.164 309.295C298.607 313.24 304.091 324.014 320.156 327.573C320.829 327.67 321.022 328.535 320.541 329.016L312.749 336.424C312.652 336.52 312.556 336.616 312.364 336.616C310.247 337.193 291.488 341.811 287.929 319.108C287.929 318.915 287.929 318.627 288.121 318.434L295.529 309.007C296.106 308.622 296.876 308.718 297.164 309.295Z" fill="#CAD9DB"/>
<path d="M324.87 354.606H290.142L272.729 346.044C273.499 340.657 276.674 336.905 281.195 334.211C281.676 343.446 291.873 338.925 291.873 338.925H295.048C305.149 328.439 309.285 338.925 309.285 338.925H314.576C326.313 338.829 324.966 354.606 324.87 354.606Z" fill="#06262D"/>
<path d="M324.87 354.606H290.142L272.729 346.044C272.826 344.986 273.114 344.024 273.403 343.062L290.719 350.661H324.87C324.87 351.142 324.966 351.623 324.966 352.008C324.966 352.201 324.966 352.393 324.966 352.489C324.966 353.836 324.966 354.606 324.87 354.606Z" fill="#CAD9DB"/>
<path d="M324.87 350.661H296.683C296.683 350.661 298.992 338.829 309.285 338.829C312.364 338.829 314.961 338.829 317.174 339.117C322.849 340.56 324.485 346.525 324.87 350.661Z" fill="#CAD9DB"/>
<path d="M333.913 221.849C333.913 221.849 337.664 219.925 334.971 207.131" stroke="black" stroke-linecap="round" stroke-linejoin="round"/>
<path d="M289.661 325.649L299.762 314.394" stroke="black" stroke-linecap="round" stroke-linejoin="round"/>
<path d="M309.285 338.925C309.285 338.925 302.936 338.252 298.8 342.196" stroke="white" stroke-width="0.5" stroke-linecap="round" stroke-linejoin="round"/>
<path d="M297.26 340.464C297.26 340.464 299.377 338.829 307.842 338.829" stroke="white" stroke-width="0.5" stroke-linecap="round" stroke-linejoin="round"/>
<path d="M303.417 339.502C303.417 339.502 292.45 334.115 296.587 328.728C300.82 323.437 303.417 339.502 303.417 339.502Z" stroke="white" stroke-width="0.5" stroke-linecap="round" stroke-linejoin="round"/>
<path d="M303.417 339.502C303.417 339.502 303.706 332.383 308.804 332.191C313.903 331.998 303.417 339.502 303.417 339.502Z" stroke="white" stroke-width="0.5" stroke-linecap="round" stroke-linejoin="round"/>
<path d="M272.729 346.044L290.238 354.605H324.87" stroke="black" stroke-linecap="round" stroke-linejoin="round"/>
<path d="M273.499 343.062L290.719 350.661H306.014" stroke="black" stroke-linecap="round" stroke-linejoin="round"/>
<path d="M283.023 338.829C283.023 338.829 286.197 341.234 291.873 338.925" stroke="black" stroke-linecap="round" stroke-linejoin="round"/>
<path d="M324.87 350.661H320.829" stroke="black" stroke-linecap="round" stroke-linejoin="round"/>
<path d="M341.897 108.334L323.138 112.278L320.252 101.792L298.896 100.926L303.898 117.761L284.273 143.447L312.556 204.534C312.556 204.534 384.033 208.189 386.63 173.365L341.897 108.334Z" fill="#FFAB97"/>
<path d="M322.176 108.911C315.442 121.224 305.437 118.338 303.994 117.761C303.898 117.761 303.802 117.665 303.802 117.665L298.799 100.83L320.156 101.792L322.176 108.911Z" fill="black"/>
<path d="M386.534 173.365C383.937 208.189 312.46 204.534 312.46 204.534L284.177 143.447L303.802 117.761C303.802 117.761 311.017 132.769 321.791 129.113C336.702 124.014 323.138 112.278 323.138 112.278L341.897 108.334L386.534 173.365Z" fill="#F4F4F4"/>
<path d="M284.177 143.351L265.61 167.497C268.785 182.215 276.481 193.663 286.582 202.417L304.475 187.218L284.177 143.351Z" fill="#CAD9DB"/>
<path d="M341.897 108.334L366.043 103.716C366.043 103.716 381.628 121.609 372.489 140.561H364.119L341.897 108.334Z" fill="#CAD9DB"/>
<path d="M296.972 96.1161C298.415 98.6173 298.415 101.503 296.972 102.562C295.529 103.62 293.124 102.369 291.585 99.8679C290.142 97.3667 290.142 94.4807 291.585 93.4225C293.028 92.3643 295.433 93.6149 296.972 96.1161Z" fill="#FF8A69"/>
<path d="M328.622 105.063C326.217 106.602 323.523 106.602 322.657 104.967C321.791 103.331 323.042 100.734 325.447 99.1947C327.852 97.6555 330.546 97.6554 331.411 99.2908C332.277 100.926 331.027 103.524 328.622 105.063Z" fill="#FF8A69"/>
<path d="M294.663 81.6863C294.663 81.6863 288.891 88.5165 292.835 93.1341C292.835 93.1341 295.336 93.0379 295.914 98.7137L324.774 103.908C324.774 103.908 327.082 97.7517 329.487 98.2327C329.487 98.2327 333.239 91.2101 328.622 88.3241C324.004 85.4381 294.663 81.6863 294.663 81.6863Z" fill="#720B00"/>
<path d="M309.67 114.779C298.126 114.202 293.316 96.4049 295.625 86.7849C298.03 77.2611 306.977 71.3929 315.827 73.7017C324.677 76.0105 329.776 85.7267 327.467 95.2505C325.158 104.774 321.118 115.26 309.67 114.779Z" fill="#FFAB97"/>
<path d="M289.372 73.0282C289.372 73.0282 287.256 88.9974 300.916 89.0936C307.939 89.0936 312.556 88.2278 312.556 88.2278L310.536 90.4404C310.536 90.4404 319.098 93.4226 323.908 89.767C323.908 89.767 323.331 95.9238 327.275 96.02C327.275 96.02 335.356 90.9214 333.816 83.514C333.143 80.4356 329.103 78.9926 329.103 78.9926C329.103 78.9926 329.006 71.7776 322.465 70.9118C315.923 70.046 294.759 66.2942 294.759 66.2942C294.759 66.2942 291.873 71.8738 294.471 73.3168L289.372 73.0282Z" fill="#E5410E"/>
<path d="M307.554 102.465L311.209 103.139C311.209 103.139 310.632 105.64 308.804 105.255C306.977 104.87 307.554 102.465 307.554 102.465Z" fill="#FF8A69"/>
<path d="M305.726 106.41C305.726 106.41 308.516 107.372 313.037 107.372C313.037 107.372 312.364 111.797 308.708 111.22C305.053 110.642 305.726 106.41 305.726 106.41Z" fill="#B2221B"/>
<path d="M304.956 98.0402C304.86 98.906 304.283 99.5794 303.61 99.5794C302.936 99.4832 302.551 98.7136 302.648 97.8478C302.744 96.982 303.321 96.3086 303.994 96.3086C304.572 96.4048 305.053 97.1744 304.956 98.0402Z" fill="black"/>
<path d="M316.597 100.445C316.5 101.311 315.923 101.984 315.25 101.984C314.576 101.888 314.192 101.119 314.288 100.253C314.384 99.387 314.961 98.7136 315.635 98.7136C316.212 98.7136 316.693 99.4832 316.597 100.445Z" fill="black"/>
<path d="M301.205 92.9416C301.205 92.9416 304.379 90.729 305.437 94.577L301.205 92.9416Z" fill="#C42D0A"/>
<path d="M313.999 95.4428C313.999 95.4428 316.981 92.8454 318.424 95.9238L313.999 95.4428Z" fill="#C42D0A"/>
<path d="M329.103 78.9925L323.138 81.6861C323.138 81.6861 321.214 83.1291 316.789 81.1089L320.541 80.5317C320.541 80.5317 319.483 78.4153 315.538 77.6457C315.538 77.6457 320.733 76.0103 323.523 77.6457V75.1445C323.619 75.1445 327.852 74.8559 329.103 78.9925Z" fill="#AA1B04"/>
<path d="M802.678 159.114C801.313 154.058 797.315 150.073 792.244 148.712C782.98 146.184 745.923 146.184 745.923 146.184C745.923 146.184 708.867 146.184 699.603 148.614C694.63 149.975 690.534 154.058 689.169 159.114C686.731 168.349 686.731 187.5 686.731 187.5C686.731 187.5 686.731 206.748 689.169 215.886C690.534 220.942 694.532 224.927 699.603 226.288C708.965 228.816 745.923 228.816 745.923 228.816C745.923 228.816 782.98 228.816 792.244 226.385C797.315 225.024 801.313 221.039 802.678 215.984C805.116 206.748 805.116 187.597 805.116 187.597C805.116 187.597 805.213 168.349 802.678 159.114Z" fill="#FF0000" fill-opacity="0.75"/>
<path d="M734.124 169.807V205.193L764.939 187.5L734.124 169.807Z" fill="white" fill-opacity="0.75"/>
<path d="M858.653 221.427C856.313 219.872 854.655 217.442 853.68 214.039C852.704 210.734 852.217 206.262 852.217 200.818V193.333C852.217 187.792 852.802 183.32 853.875 179.917C855.045 176.515 856.8 174.084 859.14 172.529C861.578 170.974 864.699 170.196 868.6 170.196C872.403 170.196 875.523 170.974 877.864 172.529C880.204 174.084 881.862 176.612 882.935 179.917C884.007 183.222 884.592 187.694 884.592 193.333V200.818C884.592 206.359 884.105 210.734 883.032 214.136C881.959 217.442 880.302 219.969 877.961 221.525C875.621 223.08 872.403 223.858 868.405 223.858C864.309 223.761 860.993 222.983 858.653 221.427ZM871.818 213.262C872.5 211.609 872.793 208.79 872.793 204.998V188.861C872.793 185.167 872.5 182.445 871.818 180.695C871.135 178.945 870.062 178.167 868.405 178.167C866.844 178.167 865.674 179.042 865.089 180.695C864.406 182.445 864.114 185.167 864.114 188.861V204.998C864.114 208.79 864.406 211.609 865.089 213.262C865.674 214.914 866.844 215.789 868.502 215.789C870.062 215.789 871.135 215.011 871.818 213.262Z" fill="#282828"/>
<path d="M1038.67 200.915V203.54C1038.67 206.845 1038.77 209.373 1038.96 211.026C1039.16 212.678 1039.55 213.942 1040.23 214.623C1040.81 215.4 1041.79 215.789 1043.15 215.789C1044.91 215.789 1046.08 215.109 1046.76 213.748C1047.44 212.387 1047.74 210.151 1047.83 206.943L1057.88 207.526C1057.98 208.012 1057.98 208.595 1057.98 209.373C1057.98 214.137 1056.71 217.733 1054.08 220.067C1051.44 222.4 1047.74 223.566 1042.96 223.566C1037.21 223.566 1033.21 221.719 1030.87 218.122C1028.53 214.525 1027.36 208.984 1027.36 201.402V192.361C1027.36 184.584 1028.53 178.945 1030.96 175.348C1033.4 171.751 1037.5 170.001 1043.25 170.001C1047.25 170.001 1050.37 170.779 1052.52 172.237C1054.66 173.696 1056.12 176.029 1057 179.042C1057.88 182.153 1058.27 186.431 1058.27 191.875V200.721H1038.67V200.915ZM1040.13 179.14C1039.55 179.917 1039.16 181.084 1038.96 182.736C1038.77 184.389 1038.67 186.917 1038.67 190.319V194.013H1047.25V190.319C1047.25 187.014 1047.15 184.486 1046.96 182.736C1046.76 180.987 1046.27 179.82 1045.69 179.14C1045.1 178.459 1044.13 178.07 1042.96 178.07C1041.59 177.973 1040.72 178.362 1040.13 179.14Z" fill="#282828"/>
<path d="M830.178 199.943L816.916 152.017H828.52L833.201 173.696C834.371 179.042 835.249 183.611 835.834 187.403H836.126C836.516 184.681 837.394 180.209 838.759 173.793L843.635 152.017H855.24L841.782 199.943V222.886H830.275V199.943H830.178Z" fill="#282828"/>
<path d="M922.331 171.168V222.983H913.165L912.189 216.664H911.897C909.459 221.428 905.656 223.858 900.682 223.858C897.269 223.858 894.734 222.691 893.076 220.455C891.418 218.219 890.638 214.72 890.638 209.859V171.168H902.34V209.179C902.34 211.512 902.633 213.164 903.12 214.136C903.608 215.109 904.486 215.595 905.656 215.595C906.631 215.595 907.606 215.303 908.581 214.623C909.556 214.039 910.239 213.262 910.629 212.289V171.168H922.331Z" fill="#282828"/>
<path d="M982.304 171.168V222.983H973.137L972.162 216.664H971.869C969.432 221.428 965.628 223.858 960.655 223.858C957.242 223.858 954.707 222.691 953.049 220.455C951.391 218.219 950.611 214.72 950.611 209.859V171.168H962.313V209.179C962.313 211.512 962.605 213.164 963.093 214.136C963.581 215.109 964.458 215.595 965.628 215.595C966.604 215.595 967.579 215.303 968.554 214.623C969.529 214.039 970.212 213.262 970.602 212.289V171.168H982.304Z" fill="#282828"/>
<path d="M954.121 161.447H942.517V222.886H931.107V161.447H919.503V152.017H954.121V161.447Z" fill="#282828"/>
<path d="M1021.02 179.431C1020.34 176.126 1019.17 173.793 1017.6 172.335C1016.04 170.876 1013.8 170.099 1011.07 170.099C1008.93 170.099 1006.88 170.682 1005.03 171.946C1003.17 173.112 1001.71 174.765 1000.73 176.709H1000.64V149.392H989.325V222.886H998.979L1000.15 218.025H1000.44C1001.32 219.775 1002.68 221.136 1004.54 222.205C1006.39 223.177 1008.34 223.761 1010.58 223.761C1014.58 223.761 1017.41 221.914 1019.26 218.317C1021.12 214.72 1022.09 208.984 1022.09 201.304V193.138C1021.99 187.208 1021.7 182.639 1021.02 179.431ZM1010.29 200.527C1010.29 204.318 1010.1 207.234 1009.8 209.373C1009.51 211.512 1008.93 213.067 1008.24 213.942C1007.46 214.817 1006.49 215.303 1005.32 215.303C1004.34 215.303 1003.46 215.109 1002.68 214.623C1001.9 214.136 1001.22 213.456 1000.73 212.581V183.222C1001.12 181.862 1001.81 180.695 1002.78 179.723C1003.76 178.848 1004.83 178.362 1005.9 178.362C1007.07 178.362 1008.05 178.848 1008.63 179.723C1009.32 180.695 1009.71 182.25 1010 184.389C1010.29 186.625 1010.39 189.736 1010.39 193.722V200.527H1010.29Z" fill="#282828"/>
<defs>
<linearGradient id="paint0_linear_532_7599" x1="0" y1="187.5" x2="1150" y2="187.5" gradientUnits="userSpaceOnUse">
<stop stop-color="#0090D9"/>
<stop offset="1" stop-color="#81D4FF"/>
</linearGradient>
</defs>
</svg>
