<svg width="138" height="21" viewBox="0 0 138 21" fill="none" xmlns="http://www.w3.org/2000/svg">
<path d="M19.2627 10.5447C19.2627 5.30498 23.6228 1.0675 29.0744 1.0675C34.5641 1.0675 38.9255 5.30733 38.9255 10.5447C38.9255 15.7456 34.5641 20.0608 29.0744 20.0608C23.6228 20.0608 19.2627 15.7408 19.2627 10.5447ZM34.2142 10.5447C34.2142 7.92543 31.9169 5.61354 29.0744 5.61354C26.2712 5.61354 23.974 7.92543 23.974 10.5447C23.974 13.2028 26.2712 15.5147 29.0744 15.5147C31.9217 15.5147 34.2142 13.2028 34.2142 10.5447Z" fill="#0056D2" fill-opacity="0.75"/>
<path d="M118.206 10.699C118.206 4.95872 122.918 1.0675 127.201 1.0675C130.121 1.0675 131.796 1.95316 132.925 3.64909L133.373 1.4114H137.752V19.7133H133.373L132.808 17.829C131.524 19.2163 129.926 20.0666 127.201 20.0666C122.996 20.0608 118.206 16.4004 118.206 10.699ZM133.158 10.6601C133.153 9.317 132.608 8.03093 131.645 7.08485C130.681 6.13876 129.377 5.61015 128.02 5.61531C126.662 5.62046 125.363 6.15896 124.406 7.11233C123.45 8.06571 122.916 9.35586 122.921 10.699C122.921 13.2417 125.218 15.5147 128.023 15.5147C130.862 15.5147 133.158 13.2417 133.158 10.6601Z" fill="#0056D2" fill-opacity="0.75"/>
<path d="M112.825 3.53252V1.4126H108.036V19.7134H112.825V9.85222C112.825 6.88552 114.306 5.34505 116.872 5.34505C117.042 5.34505 117.204 5.35682 117.362 5.37213L118.25 0.954468C115.754 0.967423 113.945 1.81421 112.825 3.53252Z" fill="#0056D2" fill-opacity="0.75"/>
<path d="M64.7041 3.53371V1.4138L59.9155 1.4244L59.956 19.7228L64.7446 19.7122L64.7184 9.85224C64.7113 6.88671 66.1885 5.34271 68.7572 5.33682C68.921 5.33729 69.0847 5.34633 69.2476 5.36391L70.1308 0.941528C67.6311 0.96155 65.8195 1.81187 64.7041 3.53371Z" fill="#0056D2" fill-opacity="0.75"/>
<path d="M40.5847 12.6246V1.41382H45.3721V12.0475C45.3721 14.3971 46.6958 15.7845 48.9931 15.7845C51.563 15.7845 53.0401 14.2428 53.0401 11.2761V1.41382H57.8299V19.7134H53.0437V17.5935C51.9153 19.3271 50.0846 20.1751 47.554 20.1751C43.2713 20.1762 40.5847 17.0941 40.5847 12.6246Z" fill="#0056D2" fill-opacity="0.75"/>
<path d="M87.2141 10.5659C87.2248 5.44161 90.9315 1.05692 96.8104 1.06752C102.262 1.07812 106.108 5.39921 106.095 10.4894C106.096 10.9926 106.056 11.4952 105.976 11.9921L91.8813 11.9662C92.4217 14.1627 94.2489 15.7456 97.014 15.7515C98.6875 15.7515 100.48 15.1414 101.573 13.7564L104.839 16.3474C103.16 18.6946 100.197 20.0761 97.0449 20.0702C91.4802 20.0514 87.2046 15.9211 87.2141 10.5659ZM101.274 8.66506C101.005 6.81602 99.0613 5.38626 96.764 5.38273C94.5441 5.38273 92.7515 6.6853 92.0468 8.64857L101.274 8.66506Z" fill="#0056D2" fill-opacity="0.75"/>
<path d="M70.1594 15.7244L74.416 13.5197C75.1195 15.0283 76.5264 15.9175 78.5202 15.9175C80.3568 15.9175 81.0603 15.3381 81.0603 14.5254C81.0603 11.5811 70.9772 13.3654 70.9772 6.63465C70.9772 2.92245 74.26 0.950928 78.3238 0.950928C81.4114 0.950928 84.1468 2.30414 85.6323 4.81742L81.4138 7.02566C80.7889 5.78787 79.6165 5.09183 78.1309 5.09183C76.6859 5.09183 75.9812 5.59472 75.9812 6.44504C75.9812 9.30692 86.0644 7.48969 86.0644 14.3358C86.0644 17.8938 83.1338 20.0584 78.4047 20.0584C74.3791 20.0549 71.5652 18.7405 70.1594 15.7244Z" fill="#0056D2" fill-opacity="0.75"/>
<path d="M0.247559 10.5447C0.247559 5.26733 4.60767 1.02868 10.0593 1.02868C11.6985 1.01731 13.3147 1.40967 14.7624 2.17038C16.2101 2.93109 17.4438 4.03626 18.3522 5.38628L14.2647 7.73232C13.7917 7.06361 13.1622 6.51809 12.4299 6.14237C11.6975 5.76665 10.8842 5.57189 10.0593 5.57472C7.25611 5.57472 4.95881 7.88661 4.95881 10.5447C4.95881 13.2029 7.25611 15.5148 10.0593 15.5148C10.9231 15.5203 11.7739 15.3067 12.5306 14.8944C13.2872 14.482 13.9244 13.8846 14.3813 13.1593L18.4284 15.5477C17.531 16.9373 16.2927 18.0794 14.8289 18.8677C13.3651 19.656 11.7235 20.0648 10.0569 20.0561C4.60767 20.0608 0.247559 15.7409 0.247559 10.5447Z" fill="#0056D2" fill-opacity="0.75"/>
</svg>
