<svg width="15" height="15" viewBox="0 0 15 10" fill="none" xmlns="http://www.w3.org/2000/svg">
<path d="M3.23722 8.97301L12.5625 9L13.3651 8.79261L14.0142 8.37784L14.483 7.52983L14.5469 6.8892L14.4389 6.15909L14.0057 5.51847L13.2656 4.96875L12.7074 4.78835L12.2386 4.21023L11.4801 3.78693L10.5966 3.69602L10.3537 3.74148L10.1818 2.9304L9.61364 2.07244L8.91903 1.48722L8.03551 1.07244L7.14205 1L6.22301 1.19886L5.54546 1.58665L5.03267 2.01847L4.59943 2.65909L4.3821 3.2358L4.31961 3.55256L3.72443 3.46165L2.84943 3.59659L2.12784 4.01278L1.49716 4.57102L1.21733 5.10369L1 6.0767L1.0554 6.86222L1.22586 7.4304L1.53267 7.87216L2.01989 8.40483L2.56108 8.73864L2.94887 8.90057L3.23722 8.97301Z" fill="#E78895"/>
<path d="M10.332 3.75991C10.1871 2.22156 8.89169 1.01843 7.3164 1.01843C5.74112 1.01843 4.5522 2.12497 4.32493 3.57099" stroke="black" stroke-width="0.2" stroke-miterlimit="10"/>
<path d="M4.38232 3.5696C4.38232 3.5696 2.19909 2.9659 1.19909 5.19318C1.19909 5.19318 0.42352 6.9517 1.92068 8.29545C1.92068 8.29545 2.66926 8.95312 3.28289 8.97158C3.89653 8.99005 12.6991 8.99005 12.6991 8.99005C12.6991 8.99005 14.2417 8.91761 14.5755 7.06959C14.5755 7.06959 14.6565 6.00567 13.9178 5.39204C13.9178 5.39204 13.2502 4.80539 12.6735 4.81533C12.6735 4.81533 12.0201 3.4446 10.2701 3.7784" stroke="black" stroke-width="0.2" stroke-miterlimit="10"/>
<path d="M9.46875 4.27414L8.09801 4.25568" stroke="black" stroke-width="0.2" stroke-miterlimit="10"/>
<path d="M8.04297 5.04968L3.60547 5.03973" stroke="black" stroke-width="0.2" stroke-miterlimit="10"/>
<path d="M11.5977 5.86082L8.49538 5.85229" stroke="black" stroke-width="0.2" stroke-miterlimit="10"/>
<path d="M8.57812 6.63635H6.90057" stroke="black" stroke-width="0.2" stroke-miterlimit="10"/>
<path d="M6.1875 7.05115L2.66193 7.06109" stroke="black" stroke-width="0.2" stroke-miterlimit="10"/>
<path d="M11.6055 7.57385H8.09695" stroke="black" stroke-width="0.2" stroke-miterlimit="10"/>
</svg>
