<svg width="11" height="10" viewBox="0 0 11 10" fill="none" xmlns="http://www.w3.org/2000/svg">
<path d="M8.92724 1.00031C8.92724 1.00031 5.62526 0.890853 5.38244 4.76355C5.13962 8.63625 2.00781 9 2.00781 9" stroke="#63B4B8" stroke-width="0.3" stroke-linecap="round" stroke-linejoin="round"/>
<path d="M9.27977 3.46003L7.80469 1.19769" stroke="#63B4B8" stroke-width="0.3" stroke-linecap="round" stroke-linejoin="round"/>
<path d="M8.60475 4.11107L6.96094 1.59827" stroke="#63B4B8" stroke-width="0.3" stroke-linecap="round" stroke-linejoin="round"/>
<path d="M7.65701 4.53032L6.19531 2.31769" stroke="#63B4B8" stroke-width="0.3" stroke-linecap="round" stroke-linejoin="round"/>
<path d="M6.70022 4.69376L5.70312 3.33722" stroke="#63B4B8" stroke-width="0.3" stroke-linecap="round" stroke-linejoin="round"/>
<path d="M9.93512 2.1781C9.93512 2.1781 9.49058 5.00352 5.77658 4.71672C5.24027 4.67513 4.70014 4.6976 4.17339 4.80706C3.00422 5.0494 1.37236 5.74345 1 7.72616" stroke="black" stroke-width="0.3" stroke-linecap="round" stroke-linejoin="round"/>
<path d="M5.13029 6.13253L3.99219 4.85773" stroke="black" stroke-width="0.3" stroke-linecap="round" stroke-linejoin="round"/>
<path d="M4.64763 7.22518L2.86328 5.25824" stroke="black" stroke-width="0.3" stroke-linecap="round" stroke-linejoin="round"/>
<path d="M3.97554 8.03539L2 5.86865" stroke="black" stroke-width="0.3" stroke-linecap="round" stroke-linejoin="round"/>
<path d="M3.13171 8.6042L1.37891 6.64252" stroke="black" stroke-width="0.3" stroke-linecap="round" stroke-linejoin="round"/>
</svg>
