<svg width="1183" height="353" viewBox="0 0 1183 353" fill="none" xmlns="http://www.w3.org/2000/svg">
<path d="M683.69 99.0001H678.785L671.99 89.3251C671.36 89.3701 670.685 89.4151 670.01 89.4151H662.225V99.0001H657.725V67.5001H670.01C678.2 67.5001 683.15 71.6401 683.15 78.4801C683.15 83.3401 680.63 86.8501 676.22 88.4251L683.69 99.0001ZM669.875 85.5901C675.635 85.5901 678.65 82.9801 678.65 78.4801C678.65 73.9801 675.635 71.4151 669.875 71.4151H662.225V85.5901H669.875ZM711.345 87.2101C711.345 87.5701 711.3 88.1101 711.255 88.5151H691.905C692.445 92.7001 695.82 95.4901 700.545 95.4901C703.335 95.4901 705.675 94.5451 707.43 92.6101L709.815 95.4001C707.655 97.9201 704.37 99.2701 700.41 99.2701C692.715 99.2701 687.585 94.1851 687.585 87.0751C687.585 80.0101 692.67 74.9251 699.555 74.9251C706.44 74.9251 711.345 79.8751 711.345 87.2101ZM699.555 78.5701C695.415 78.5701 692.355 81.3601 691.905 85.4101H707.205C706.755 81.4051 703.74 78.5701 699.555 78.5701ZM725.37 74.9251C731.895 74.9251 735.585 78.0751 735.585 84.6001V99.0001H731.49V95.8501C730.05 98.0101 727.395 99.2701 723.66 99.2701C718.26 99.2701 714.84 96.3901 714.84 92.2501C714.84 88.4251 717.315 85.2751 724.425 85.2751H731.265V84.4201C731.265 80.7751 729.15 78.6601 724.875 78.6601C722.04 78.6601 719.16 79.6501 717.315 81.2251L715.515 77.9851C717.99 76.0051 721.545 74.9251 725.37 74.9251ZM724.38 95.9401C727.62 95.9401 730.185 94.4551 731.265 91.7101V88.3801H724.605C720.33 88.3801 719.115 90.0451 719.115 92.0701C719.115 94.4551 721.095 95.9401 724.38 95.9401ZM743.579 99.0001V65.6101H747.899V99.0001H743.579ZM780.293 94.5001L781.643 97.6051C780.338 98.7301 778.358 99.2701 776.423 99.2701C771.608 99.2701 768.863 96.6151 768.863 91.8001V78.7051H764.813V75.1501H768.863V69.9301H773.183V75.1501H780.023V78.7051H773.183V91.6201C773.183 94.1851 774.533 95.6251 776.918 95.6251C778.178 95.6251 779.393 95.2201 780.293 94.5001ZM789.026 70.5601C787.361 70.5601 786.101 69.3451 786.101 67.7701C786.101 66.1951 787.361 64.9351 789.026 64.9351C790.691 64.9351 791.951 66.1501 791.951 67.6801C791.951 69.3001 790.736 70.5601 789.026 70.5601ZM786.866 99.0001V75.1501H791.186V99.0001H786.866ZM829.269 74.9251C835.074 74.9251 839.034 78.2551 839.034 85.2751V99.0001H834.714V85.7701C834.714 81.0901 832.464 78.7951 828.549 78.7951C824.229 78.7951 821.394 81.5401 821.394 86.7151V99.0001H817.074V85.7701C817.074 81.0901 814.824 78.7951 810.909 78.7951C806.589 78.7951 803.754 81.5401 803.754 86.7151V99.0001H799.434V75.1501H803.574V78.7051C805.284 76.2751 808.209 74.9251 811.809 74.9251C815.454 74.9251 818.514 76.3651 820.089 79.3351C821.889 76.6351 825.219 74.9251 829.269 74.9251ZM868.67 87.2101C868.67 87.5701 868.625 88.1101 868.58 88.5151H849.23C849.77 92.7001 853.145 95.4901 857.87 95.4901C860.66 95.4901 863 94.5451 864.755 92.6101L867.14 95.4001C864.98 97.9201 861.695 99.2701 857.735 99.2701C850.04 99.2701 844.91 94.1851 844.91 87.0751C844.91 80.0101 849.995 74.9251 856.88 74.9251C863.765 74.9251 868.67 79.8751 868.67 87.2101ZM856.88 78.5701C852.74 78.5701 849.68 81.3601 849.23 85.4101H864.53C864.08 81.4051 861.065 78.5701 856.88 78.5701ZM904.933 65.6101H909.253V99.0001H905.113V95.2201C903.178 97.9201 900.118 99.2701 896.608 99.2701C889.633 99.2701 884.548 94.3651 884.548 87.0751C884.548 79.7851 889.633 74.9251 896.608 74.9251C899.983 74.9251 902.953 76.1851 904.933 78.7501V65.6101ZM896.968 95.4901C901.513 95.4901 904.978 92.1601 904.978 87.0751C904.978 81.9901 901.513 78.7051 896.968 78.7051C892.378 78.7051 888.913 81.9901 888.913 87.0751C888.913 92.1601 892.378 95.4901 896.968 95.4901ZM919.587 70.5601C917.922 70.5601 916.662 69.3451 916.662 67.7701C916.662 66.1951 917.922 64.9351 919.587 64.9351C921.252 64.9351 922.512 66.1501 922.512 67.6801C922.512 69.3001 921.297 70.5601 919.587 70.5601ZM917.427 99.0001V75.1501H921.747V99.0001H917.427ZM936.835 99.2701C932.875 99.2701 928.96 98.0551 926.98 96.4801L928.78 93.0601C930.805 94.5001 934.045 95.5351 937.15 95.5351C941.155 95.5351 942.82 94.3201 942.82 92.2951C942.82 86.9401 927.745 91.5751 927.745 82.0801C927.745 77.8051 931.57 74.9251 937.69 74.9251C940.795 74.9251 944.305 75.7351 946.375 77.0851L944.53 80.5051C942.37 79.1101 939.985 78.6151 937.645 78.6151C933.865 78.6151 932.02 80.0101 932.02 81.9001C932.02 87.5251 947.14 82.9351 947.14 92.2051C947.14 96.5251 943.18 99.2701 936.835 99.2701ZM962.934 99.2701C955.599 99.2701 950.334 94.1851 950.334 87.0751C950.334 79.9651 955.599 74.9251 962.934 74.9251C967.209 74.9251 970.764 76.6801 972.654 80.0101L969.369 82.1251C967.839 79.7851 965.499 78.7051 962.889 78.7051C958.209 78.7051 954.699 81.9901 954.699 87.0751C954.699 92.2501 958.209 95.4901 962.889 95.4901C965.499 95.4901 967.839 94.4101 969.369 92.0701L972.654 94.1401C970.764 97.4701 967.209 99.2701 962.934 99.2701ZM996.157 75.1501H1000.48V99.0001H996.382V95.4001C994.627 97.8751 991.657 99.2701 988.282 99.2701C982.117 99.2701 978.022 95.8951 978.022 88.8751V75.1501H982.342V88.3801C982.342 93.0601 984.682 95.4001 988.777 95.4001C993.277 95.4001 996.157 92.6101 996.157 87.4801V75.1501ZM1015.54 99.2701C1011.58 99.2701 1007.67 98.0551 1005.69 96.4801L1007.49 93.0601C1009.51 94.5001 1012.75 95.5351 1015.86 95.5351C1019.86 95.5351 1021.53 94.3201 1021.53 92.2951C1021.53 86.9401 1006.45 91.5751 1006.45 82.0801C1006.45 77.8051 1010.28 74.9251 1016.4 74.9251C1019.5 74.9251 1023.01 75.7351 1025.08 77.0851L1023.24 80.5051C1021.08 79.1101 1018.69 78.6151 1016.35 78.6151C1012.57 78.6151 1010.73 80.0101 1010.73 81.9001C1010.73 87.5251 1025.85 82.9351 1025.85 92.2051C1025.85 96.5251 1021.89 99.2701 1015.54 99.2701ZM1038.09 99.2701C1034.13 99.2701 1030.21 98.0551 1028.23 96.4801L1030.03 93.0601C1032.06 94.5001 1035.3 95.5351 1038.4 95.5351C1042.41 95.5351 1044.07 94.3201 1044.07 92.2951C1044.07 86.9401 1029 91.5751 1029 82.0801C1029 77.8051 1032.82 74.9251 1038.94 74.9251C1042.05 74.9251 1045.56 75.7351 1047.63 77.0851L1045.78 80.5051C1043.62 79.1101 1041.24 78.6151 1038.9 78.6151C1035.12 78.6151 1033.27 80.0101 1033.27 81.9001C1033.27 87.5251 1048.39 82.9351 1048.39 92.2051C1048.39 96.5251 1044.43 99.2701 1038.09 99.2701ZM1055.95 70.5601C1054.28 70.5601 1053.02 69.3451 1053.02 67.7701C1053.02 66.1951 1054.28 64.9351 1055.95 64.9351C1057.61 64.9351 1058.87 66.1501 1058.87 67.6801C1058.87 69.3001 1057.66 70.5601 1055.95 70.5601ZM1053.79 99.0001V75.1501H1058.11V99.0001H1053.79ZM1076.57 99.2701C1069.42 99.2701 1064.15 94.1851 1064.15 87.0751C1064.15 79.9651 1069.42 74.9251 1076.57 74.9251C1083.73 74.9251 1088.95 79.9651 1088.95 87.0751C1088.95 94.1851 1083.73 99.2701 1076.57 99.2701ZM1076.57 95.4901C1081.16 95.4901 1084.58 92.1601 1084.58 87.0751C1084.58 81.9901 1081.16 78.7051 1076.57 78.7051C1071.98 78.7051 1068.52 81.9901 1068.52 87.0751C1068.52 92.1601 1071.98 95.4901 1076.57 95.4901ZM1107.66 74.9251C1113.46 74.9251 1117.56 78.2551 1117.56 85.2751V99.0001H1113.24V85.7701C1113.24 81.0901 1110.9 78.7951 1106.8 78.7951C1102.21 78.7951 1099.24 81.5401 1099.24 86.7151V99.0001H1094.92V75.1501H1099.06V78.7501C1100.82 76.3201 1103.88 74.9251 1107.66 74.9251Z" fill="black"/>
<path d="M667.49 149.27C660.155 149.27 654.89 144.185 654.89 137.075C654.89 129.965 660.155 124.925 667.49 124.925C671.765 124.925 675.32 126.68 677.21 130.01L673.925 132.125C672.395 129.785 670.055 128.705 667.445 128.705C662.765 128.705 659.255 131.99 659.255 137.075C659.255 142.25 662.765 145.49 667.445 145.49C670.055 145.49 672.395 144.41 673.925 142.07L677.21 144.14C675.32 147.47 671.765 149.27 667.49 149.27ZM695.23 124.925C701.035 124.925 705.13 128.255 705.13 135.275V149H700.81V135.77C700.81 131.09 698.47 128.795 694.375 128.795C689.785 128.795 686.815 131.54 686.815 136.715V149H682.495V115.61H686.815V128.525C688.615 126.23 691.585 124.925 695.23 124.925ZM721.81 124.925C728.335 124.925 732.025 128.075 732.025 134.6V149H727.93V145.85C726.49 148.01 723.835 149.27 720.1 149.27C714.7 149.27 711.28 146.39 711.28 142.25C711.28 138.425 713.755 135.275 720.865 135.275H727.705V134.42C727.705 130.775 725.59 128.66 721.315 128.66C718.48 128.66 715.6 129.65 713.755 131.225L711.955 127.985C714.43 126.005 717.985 124.925 721.81 124.925ZM720.82 145.94C724.06 145.94 726.625 144.455 727.705 141.71V138.38H721.045C716.77 138.38 715.555 140.045 715.555 142.07C715.555 144.455 717.535 145.94 720.82 145.94ZM752.08 144.5L753.43 147.605C752.125 148.73 750.145 149.27 748.21 149.27C743.395 149.27 740.65 146.615 740.65 141.8V128.705H736.6V125.15H740.65V119.93H744.97V125.15H751.81V128.705H744.97V141.62C744.97 144.185 746.32 145.625 748.705 145.625C749.965 145.625 751.18 145.22 752.08 144.5ZM774.878 129.155C776.408 126.365 779.378 124.925 783.563 124.925V129.11C783.203 129.065 782.888 129.065 782.573 129.065C777.938 129.065 775.058 131.9 775.058 137.12V149H770.738V125.15H774.878V129.155ZM798.882 149.27C791.727 149.27 786.462 144.185 786.462 137.075C786.462 129.965 791.727 124.925 798.882 124.925C806.037 124.925 811.257 129.965 811.257 137.075C811.257 144.185 806.037 149.27 798.882 149.27ZM798.882 145.49C803.472 145.49 806.892 142.16 806.892 137.075C806.892 131.99 803.472 128.705 798.882 128.705C794.292 128.705 790.827 131.99 790.827 137.075C790.827 142.16 794.292 145.49 798.882 145.49ZM827.447 149.27C820.292 149.27 815.027 144.185 815.027 137.075C815.027 129.965 820.292 124.925 827.447 124.925C834.602 124.925 839.822 129.965 839.822 137.075C839.822 144.185 834.602 149.27 827.447 149.27ZM827.447 145.49C832.037 145.49 835.457 142.16 835.457 137.075C835.457 131.99 832.037 128.705 827.447 128.705C822.857 128.705 819.392 131.99 819.392 137.075C819.392 142.16 822.857 145.49 827.447 145.49ZM875.631 124.925C881.436 124.925 885.396 128.255 885.396 135.275V149H881.076V135.77C881.076 131.09 878.826 128.795 874.911 128.795C870.591 128.795 867.756 131.54 867.756 136.715V149H863.436V135.77C863.436 131.09 861.186 128.795 857.271 128.795C852.951 128.795 850.116 131.54 850.116 136.715V149H845.796V125.15H849.936V128.705C851.646 126.275 854.571 124.925 858.171 124.925C861.816 124.925 864.876 126.365 866.451 129.335C868.251 126.635 871.581 124.925 875.631 124.925Z" fill="#00A9FF"/>
<path d="M662.105 197.5H663.605V208H662.375L656.075 200.17V208H654.575V197.5H655.805L662.105 205.33V197.5ZM669.943 208.09C667.558 208.09 665.803 206.395 665.803 204.025C665.803 201.655 667.558 199.975 669.943 199.975C672.328 199.975 674.068 201.655 674.068 204.025C674.068 206.395 672.328 208.09 669.943 208.09ZM669.943 206.83C671.473 206.83 672.613 205.72 672.613 204.025C672.613 202.33 671.473 201.235 669.943 201.235C668.413 201.235 667.258 202.33 667.258 204.025C667.258 205.72 668.413 206.83 669.943 206.83ZM680.079 206.5L680.529 207.535C680.094 207.91 679.434 208.09 678.789 208.09C677.184 208.09 676.269 207.205 676.269 205.6V201.235H674.919V200.05H676.269V198.31H677.709V200.05H679.989V201.235H677.709V205.54C677.709 206.395 678.159 206.875 678.954 206.875C679.374 206.875 679.779 206.74 680.079 206.5ZM689.192 204.07C689.192 204.19 689.177 204.37 689.162 204.505H682.712C682.892 205.9 684.017 206.83 685.592 206.83C686.522 206.83 687.302 206.515 687.887 205.87L688.682 206.8C687.962 207.64 686.867 208.09 685.547 208.09C682.982 208.09 681.272 206.395 681.272 204.025C681.272 201.67 682.967 199.975 685.262 199.975C687.557 199.975 689.192 201.625 689.192 204.07ZM685.262 201.19C683.882 201.19 682.862 202.12 682.712 203.47H687.812C687.662 202.135 686.657 201.19 685.262 201.19ZM690.828 204.505V203.26H694.863V204.505H690.828ZM701.246 206.5L701.696 207.535C701.261 207.91 700.601 208.09 699.956 208.09C698.351 208.09 697.436 207.205 697.436 205.6V201.235H696.086V200.05H697.436V198.31H698.876V200.05H701.156V201.235H698.876V205.54C698.876 206.395 699.326 206.875 700.121 206.875C700.541 206.875 700.946 206.74 701.246 206.5ZM706.332 199.975C708.507 199.975 709.737 201.025 709.737 203.2V208H708.372V206.95C707.892 207.67 707.007 208.09 705.762 208.09C703.962 208.09 702.822 207.13 702.822 205.75C702.822 204.475 703.647 203.425 706.017 203.425H708.297V203.14C708.297 201.925 707.592 201.22 706.167 201.22C705.222 201.22 704.262 201.55 703.647 202.075L703.047 200.995C703.872 200.335 705.057 199.975 706.332 199.975ZM706.002 206.98C707.082 206.98 707.937 206.485 708.297 205.57V204.46H706.077C704.652 204.46 704.247 205.015 704.247 205.69C704.247 206.485 704.907 206.98 706.002 206.98ZM718.477 208L715.492 204.295L713.842 205.825V208H712.402V196.87H713.842V204.01L718.177 200.05H719.917L716.572 203.335L720.247 208H718.477ZM722.263 198.52C721.708 198.52 721.288 198.115 721.288 197.59C721.288 197.065 721.708 196.645 722.263 196.645C722.818 196.645 723.238 197.05 723.238 197.56C723.238 198.1 722.833 198.52 722.263 198.52ZM721.543 208V200.05H722.983V208H721.543ZM729.977 199.975C731.912 199.975 733.277 201.085 733.277 203.425V208H731.837V203.59C731.837 202.03 731.057 201.265 729.692 201.265C728.162 201.265 727.172 202.18 727.172 203.905V208H725.732V200.05H727.112V201.25C727.697 200.44 728.717 199.975 729.977 199.975ZM742.226 200.05H743.591V206.92C743.591 209.725 742.166 211 739.466 211C738.011 211 736.541 210.595 735.671 209.815L736.361 208.705C737.096 209.335 738.251 209.74 739.421 209.74C741.296 209.74 742.151 208.87 742.151 207.07V206.44C741.461 207.265 740.426 207.67 739.286 207.67C736.991 207.67 735.251 206.11 735.251 203.815C735.251 201.52 736.991 199.975 739.286 199.975C740.471 199.975 741.551 200.41 742.226 201.28V200.05ZM739.451 206.41C741.041 206.41 742.181 205.345 742.181 203.815C742.181 202.27 741.041 201.235 739.451 201.235C737.846 201.235 736.706 202.27 736.706 203.815C736.706 205.345 737.846 206.41 739.451 206.41ZM751.091 198.52C750.536 198.52 750.116 198.115 750.116 197.59C750.116 197.065 750.536 196.645 751.091 196.645C751.646 196.645 752.066 197.05 752.066 197.56C752.066 198.1 751.661 198.52 751.091 198.52ZM750.371 208V200.05H751.811V208H750.371ZM756.84 208.09C755.52 208.09 754.215 207.685 753.555 207.16L754.155 206.02C754.83 206.5 755.91 206.845 756.945 206.845C758.28 206.845 758.835 206.44 758.835 205.765C758.835 203.98 753.81 205.525 753.81 202.36C753.81 200.935 755.085 199.975 757.125 199.975C758.16 199.975 759.33 200.245 760.02 200.695L759.405 201.835C758.685 201.37 757.89 201.205 757.11 201.205C755.85 201.205 755.235 201.67 755.235 202.3C755.235 204.175 760.275 202.645 760.275 205.735C760.275 207.175 758.955 208.09 756.84 208.09ZM770.123 206.5L770.573 207.535C770.138 207.91 769.478 208.09 768.833 208.09C767.228 208.09 766.313 207.205 766.313 205.6V201.235H764.963V200.05H766.313V198.31H767.753V200.05H770.033V201.235H767.753V205.54C767.753 206.395 768.203 206.875 768.998 206.875C769.418 206.875 769.823 206.74 770.123 206.5ZM776.559 199.975C778.494 199.975 779.859 201.085 779.859 203.425V208H778.419V203.59C778.419 202.03 777.639 201.265 776.274 201.265C774.744 201.265 773.754 202.18 773.754 203.905V208H772.314V196.87H773.754V201.175C774.354 200.41 775.344 199.975 776.559 199.975ZM789.753 204.07C789.753 204.19 789.738 204.37 789.723 204.505H783.273C783.453 205.9 784.578 206.83 786.153 206.83C787.083 206.83 787.863 206.515 788.448 205.87L789.243 206.8C788.523 207.64 787.428 208.09 786.108 208.09C783.543 208.09 781.833 206.395 781.833 204.025C781.833 201.67 783.528 199.975 785.823 199.975C788.118 199.975 789.753 201.625 789.753 204.07ZM785.823 201.19C784.443 201.19 783.423 202.12 783.273 203.47H788.373C788.223 202.135 787.218 201.19 785.823 201.19ZM799.996 199.975C802.321 199.975 804.016 201.595 804.016 204.025C804.016 206.455 802.321 208.09 799.996 208.09C798.826 208.09 797.806 207.64 797.161 206.74V208H795.781V196.87H797.221V201.25C797.881 200.395 798.871 199.975 799.996 199.975ZM799.876 206.83C801.406 206.83 802.561 205.72 802.561 204.025C802.561 202.33 801.406 201.235 799.876 201.235C798.361 201.235 797.206 202.33 797.206 204.025C797.206 205.72 798.361 206.83 799.876 206.83ZM807.386 201.385C807.896 200.455 808.886 199.975 810.281 199.975V201.37C810.161 201.355 810.056 201.355 809.951 201.355C808.406 201.355 807.446 202.3 807.446 204.04V208H806.006V200.05H807.386V201.385ZM812.775 198.52C812.22 198.52 811.8 198.115 811.8 197.59C811.8 197.065 812.22 196.645 812.775 196.645C813.33 196.645 813.75 197.05 813.75 197.56C813.75 198.1 813.345 198.52 812.775 198.52ZM812.055 208V200.05H813.495V208H812.055ZM822.305 196.87H823.745V208H822.365V206.74C821.72 207.64 820.7 208.09 819.53 208.09C817.205 208.09 815.51 206.455 815.51 204.025C815.51 201.595 817.205 199.975 819.53 199.975C820.655 199.975 821.645 200.395 822.305 201.25V196.87ZM819.65 206.83C821.165 206.83 822.32 205.72 822.32 204.025C822.32 202.33 821.165 201.235 819.65 201.235C818.12 201.235 816.965 202.33 816.965 204.025C816.965 205.72 818.12 206.83 819.65 206.83ZM832.709 200.05H834.074V206.92C834.074 209.725 832.649 211 829.949 211C828.494 211 827.024 210.595 826.154 209.815L826.844 208.705C827.579 209.335 828.734 209.74 829.904 209.74C831.779 209.74 832.634 208.87 832.634 207.07V206.44C831.944 207.265 830.909 207.67 829.769 207.67C827.474 207.67 825.734 206.11 825.734 203.815C825.734 201.52 827.474 199.975 829.769 199.975C830.954 199.975 832.034 200.41 832.709 201.28V200.05ZM829.934 206.41C831.524 206.41 832.664 205.345 832.664 203.815C832.664 202.27 831.524 201.235 829.934 201.235C828.329 201.235 827.189 202.27 827.189 203.815C827.189 205.345 828.329 206.41 829.934 206.41ZM844.011 204.07C844.011 204.19 843.996 204.37 843.981 204.505H837.531C837.711 205.9 838.836 206.83 840.411 206.83C841.341 206.83 842.121 206.515 842.706 205.87L843.501 206.8C842.781 207.64 841.686 208.09 840.366 208.09C837.801 208.09 836.091 206.395 836.091 204.025C836.091 201.67 837.786 199.975 840.081 199.975C842.376 199.975 844.011 201.625 844.011 204.07ZM840.081 201.19C838.701 201.19 837.681 202.12 837.531 203.47H842.631C842.481 202.135 841.476 201.19 840.081 201.19ZM854.254 199.975C856.579 199.975 858.274 201.595 858.274 204.025C858.274 206.455 856.579 208.09 854.254 208.09C853.084 208.09 852.064 207.64 851.419 206.74V208H850.039V196.87H851.479V201.25C852.139 200.395 853.129 199.975 854.254 199.975ZM854.134 206.83C855.664 206.83 856.819 205.72 856.819 204.025C856.819 202.33 855.664 201.235 854.134 201.235C852.619 201.235 851.464 202.33 851.464 204.025C851.464 205.72 852.619 206.83 854.134 206.83ZM867.448 204.07C867.448 204.19 867.433 204.37 867.418 204.505H860.968C861.148 205.9 862.273 206.83 863.848 206.83C864.778 206.83 865.558 206.515 866.143 205.87L866.938 206.8C866.218 207.64 865.123 208.09 863.803 208.09C861.238 208.09 859.528 206.395 859.528 204.025C859.528 201.67 861.223 199.975 863.518 199.975C865.813 199.975 867.448 201.625 867.448 204.07ZM863.518 201.19C862.138 201.19 861.118 202.12 860.968 203.47H866.068C865.918 202.135 864.913 201.19 863.518 201.19ZM873.468 206.5L873.918 207.535C873.483 207.91 872.823 208.09 872.178 208.09C870.573 208.09 869.658 207.205 869.658 205.6V201.235H868.308V200.05H869.658V198.31H871.098V200.05H873.378V201.235H871.098V205.54C871.098 206.395 871.548 206.875 872.343 206.875C872.763 206.875 873.168 206.74 873.468 206.5ZM886.252 200.05H887.542L884.572 208H883.192L880.897 201.97L878.572 208H877.192L874.237 200.05H875.602L877.912 206.38L880.312 200.05H881.527L883.882 206.41L886.252 200.05ZM895.969 204.07C895.969 204.19 895.954 204.37 895.939 204.505H889.489C889.669 205.9 890.794 206.83 892.369 206.83C893.299 206.83 894.079 206.515 894.664 205.87L895.459 206.8C894.739 207.64 893.644 208.09 892.324 208.09C889.759 208.09 888.049 206.395 888.049 204.025C888.049 201.67 889.744 199.975 892.039 199.975C894.334 199.975 895.969 201.625 895.969 204.07ZM892.039 201.19C890.659 201.19 889.639 202.12 889.489 203.47H894.589C894.439 202.135 893.434 201.19 892.039 201.19ZM905.154 204.07C905.154 204.19 905.139 204.37 905.124 204.505H898.674C898.854 205.9 899.979 206.83 901.554 206.83C902.484 206.83 903.264 206.515 903.849 205.87L904.644 206.8C903.924 207.64 902.829 208.09 901.509 208.09C898.944 208.09 897.234 206.395 897.234 204.025C897.234 201.67 898.929 199.975 901.224 199.975C903.519 199.975 905.154 201.625 905.154 204.07ZM901.224 201.19C899.844 201.19 898.824 202.12 898.674 203.47H903.774C903.624 202.135 902.619 201.19 901.224 201.19ZM911.398 199.975C913.333 199.975 914.698 201.085 914.698 203.425V208H913.258V203.59C913.258 202.03 912.478 201.265 911.113 201.265C909.583 201.265 908.593 202.18 908.593 203.905V208H907.153V200.05H908.533V201.25C909.118 200.44 910.138 199.975 911.398 199.975ZM925.636 199.975C927.571 199.975 928.936 201.085 928.936 203.425V208H927.496V203.59C927.496 202.03 926.716 201.265 925.351 201.265C923.821 201.265 922.831 202.18 922.831 203.905V208H921.391V196.87H922.831V201.175C923.431 200.41 924.421 199.975 925.636 199.975ZM938.83 204.07C938.83 204.19 938.815 204.37 938.8 204.505H932.35C932.53 205.9 933.655 206.83 935.23 206.83C936.16 206.83 936.94 206.515 937.525 205.87L938.32 206.8C937.6 207.64 936.505 208.09 935.185 208.09C932.62 208.09 930.91 206.395 930.91 204.025C930.91 201.67 932.605 199.975 934.9 199.975C937.195 199.975 938.83 201.625 938.83 204.07ZM934.9 201.19C933.52 201.19 932.5 202.12 932.35 203.47H937.45C937.3 202.135 936.295 201.19 934.9 201.19ZM943.505 199.975C945.68 199.975 946.91 201.025 946.91 203.2V208H945.545V206.95C945.065 207.67 944.18 208.09 942.935 208.09C941.135 208.09 939.995 207.13 939.995 205.75C939.995 204.475 940.82 203.425 943.19 203.425H945.47V203.14C945.47 201.925 944.765 201.22 943.34 201.22C942.395 201.22 941.435 201.55 940.82 202.075L940.22 200.995C941.045 200.335 942.23 199.975 943.505 199.975ZM943.175 206.98C944.255 206.98 945.11 206.485 945.47 205.57V204.46H943.25C941.825 204.46 941.42 205.015 941.42 205.69C941.42 206.485 942.08 206.98 943.175 206.98ZM950.955 201.385C951.465 200.455 952.455 199.975 953.85 199.975V201.37C953.73 201.355 953.625 201.355 953.52 201.355C951.975 201.355 951.015 202.3 951.015 204.04V208H949.575V200.05H950.955V201.385ZM956.345 198.52C955.79 198.52 955.37 198.115 955.37 197.59C955.37 197.065 955.79 196.645 956.345 196.645C956.9 196.645 957.32 197.05 957.32 197.56C957.32 198.1 956.915 198.52 956.345 198.52ZM955.625 208V200.05H957.065V208H955.625ZM964.059 199.975C965.994 199.975 967.359 201.085 967.359 203.425V208H965.919V203.59C965.919 202.03 965.139 201.265 963.774 201.265C962.244 201.265 961.254 202.18 961.254 203.905V208H959.814V200.05H961.194V201.25C961.779 200.44 962.799 199.975 964.059 199.975ZM976.308 200.05H977.673V206.92C977.673 209.725 976.248 211 973.548 211C972.093 211 970.623 210.595 969.753 209.815L970.443 208.705C971.178 209.335 972.333 209.74 973.503 209.74C975.378 209.74 976.233 208.87 976.233 207.07V206.44C975.543 207.265 974.508 207.67 973.368 207.67C971.073 207.67 969.333 206.11 969.333 203.815C969.333 201.52 971.073 199.975 973.368 199.975C974.553 199.975 975.633 200.41 976.308 201.28V200.05ZM973.533 206.41C975.123 206.41 976.263 205.345 976.263 203.815C976.263 202.27 975.123 201.235 973.533 201.235C971.928 201.235 970.788 202.27 970.788 203.815C970.788 205.345 971.928 206.41 973.533 206.41ZM987.348 199.975C989.523 199.975 990.753 201.025 990.753 203.2V208H989.388V206.95C988.908 207.67 988.023 208.09 986.778 208.09C984.978 208.09 983.838 207.13 983.838 205.75C983.838 204.475 984.663 203.425 987.033 203.425H989.313V203.14C989.313 201.925 988.608 201.22 987.183 201.22C986.238 201.22 985.278 201.55 984.663 202.075L984.063 200.995C984.888 200.335 986.073 199.975 987.348 199.975ZM987.018 206.98C988.098 206.98 988.953 206.485 989.313 205.57V204.46H987.093C985.668 204.46 985.263 205.015 985.263 205.69C985.263 206.485 985.923 206.98 987.018 206.98ZM997.663 199.975C999.598 199.975 1000.96 201.085 1000.96 203.425V208H999.523V203.59C999.523 202.03 998.743 201.265 997.378 201.265C995.848 201.265 994.858 202.18 994.858 203.905V208H993.418V200.05H994.798V201.25C995.383 200.44 996.403 199.975 997.663 199.975ZM1009.73 196.87H1011.17V208H1009.79V206.74C1009.15 207.64 1008.13 208.09 1006.96 208.09C1004.63 208.09 1002.94 206.455 1002.94 204.025C1002.94 201.595 1004.63 199.975 1006.96 199.975C1008.08 199.975 1009.07 200.395 1009.73 201.25V196.87ZM1007.08 206.83C1008.59 206.83 1009.75 205.72 1009.75 204.025C1009.75 202.33 1008.59 201.235 1007.08 201.235C1005.55 201.235 1004.39 202.33 1004.39 204.025C1004.39 205.72 1005.55 206.83 1007.08 206.83ZM1023.89 200.05H1025.33V208H1023.97V206.8C1023.38 207.625 1022.39 208.09 1021.27 208.09C1019.21 208.09 1017.85 206.965 1017.85 204.625V200.05H1019.29V204.46C1019.29 206.02 1020.07 206.8 1021.43 206.8C1022.93 206.8 1023.89 205.87 1023.89 204.16V200.05ZM1032.32 199.975C1034.26 199.975 1035.62 201.085 1035.62 203.425V208H1034.18V203.59C1034.18 202.03 1033.4 201.265 1032.04 201.265C1030.51 201.265 1029.52 202.18 1029.52 203.905V208H1028.08V200.05H1029.46V201.25C1030.04 200.44 1031.06 199.975 1032.32 199.975ZM1044.39 196.87H1045.83V208H1044.45V206.74C1043.8 207.64 1042.78 208.09 1041.61 208.09C1039.29 208.09 1037.59 206.455 1037.59 204.025C1037.59 201.595 1039.29 199.975 1041.61 199.975C1042.74 199.975 1043.73 200.395 1044.39 201.25V196.87ZM1041.73 206.83C1043.25 206.83 1044.4 205.72 1044.4 204.025C1044.4 202.33 1043.25 201.235 1041.73 201.235C1040.2 201.235 1039.05 202.33 1039.05 204.025C1039.05 205.72 1040.2 206.83 1041.73 206.83ZM1055.74 204.07C1055.74 204.19 1055.72 204.37 1055.71 204.505H1049.26C1049.44 205.9 1050.56 206.83 1052.14 206.83C1053.07 206.83 1053.85 206.515 1054.43 205.87L1055.23 206.8C1054.51 207.64 1053.41 208.09 1052.09 208.09C1049.53 208.09 1047.82 206.395 1047.82 204.025C1047.82 201.67 1049.51 199.975 1051.81 199.975C1054.1 199.975 1055.74 201.625 1055.74 204.07ZM1051.81 201.19C1050.43 201.19 1049.41 202.12 1049.26 203.47H1054.36C1054.21 202.135 1053.2 201.19 1051.81 201.19ZM1059.12 201.385C1059.63 200.455 1060.62 199.975 1062.01 199.975V201.37C1061.89 201.355 1061.79 201.355 1061.68 201.355C1060.14 201.355 1059.18 202.3 1059.18 204.04V208H1057.74V200.05H1059.12V201.385ZM1066.13 208.09C1064.81 208.09 1063.5 207.685 1062.84 207.16L1063.44 206.02C1064.12 206.5 1065.2 206.845 1066.23 206.845C1067.57 206.845 1068.12 206.44 1068.12 205.765C1068.12 203.98 1063.1 205.525 1063.1 202.36C1063.1 200.935 1064.37 199.975 1066.41 199.975C1067.45 199.975 1068.62 200.245 1069.31 200.695L1068.69 201.835C1067.97 201.37 1067.18 201.205 1066.4 201.205C1065.14 201.205 1064.52 201.67 1064.52 202.3C1064.52 204.175 1069.56 202.645 1069.56 205.735C1069.56 207.175 1068.24 208.09 1066.13 208.09ZM1075.38 206.5L1075.83 207.535C1075.4 207.91 1074.74 208.09 1074.09 208.09C1072.49 208.09 1071.57 207.205 1071.57 205.6V201.235H1070.22V200.05H1071.57V198.31H1073.01V200.05H1075.29V201.235H1073.01V205.54C1073.01 206.395 1073.46 206.875 1074.26 206.875C1074.68 206.875 1075.08 206.74 1075.38 206.5ZM1080.47 199.975C1082.64 199.975 1083.87 201.025 1083.87 203.2V208H1082.51V206.95C1082.03 207.67 1081.14 208.09 1079.9 208.09C1078.1 208.09 1076.96 207.13 1076.96 205.75C1076.96 204.475 1077.78 203.425 1080.15 203.425H1082.43V203.14C1082.43 201.925 1081.73 201.22 1080.3 201.22C1079.36 201.22 1078.4 201.55 1077.78 202.075L1077.18 200.995C1078.01 200.335 1079.19 199.975 1080.47 199.975ZM1080.14 206.98C1081.22 206.98 1082.07 206.485 1082.43 205.57V204.46H1080.21C1078.79 204.46 1078.38 205.015 1078.38 205.69C1078.38 206.485 1079.04 206.98 1080.14 206.98ZM1090.78 199.975C1092.72 199.975 1094.08 201.085 1094.08 203.425V208H1092.64V203.59C1092.64 202.03 1091.86 201.265 1090.5 201.265C1088.97 201.265 1087.98 202.18 1087.98 203.905V208H1086.54V200.05H1087.92V201.25C1088.5 200.44 1089.52 199.975 1090.78 199.975ZM1102.85 196.87H1104.29V208H1102.91V206.74C1102.27 207.64 1101.25 208.09 1100.08 208.09C1097.75 208.09 1096.06 206.455 1096.06 204.025C1096.06 201.595 1097.75 199.975 1100.08 199.975C1101.2 199.975 1102.19 200.395 1102.85 201.25V196.87ZM1100.2 206.83C1101.71 206.83 1102.87 205.72 1102.87 204.025C1102.87 202.33 1101.71 201.235 1100.2 201.235C1098.67 201.235 1097.51 202.33 1097.51 204.025C1097.51 205.72 1098.67 206.83 1100.2 206.83ZM1107.74 198.52C1107.18 198.52 1106.76 198.115 1106.76 197.59C1106.76 197.065 1107.18 196.645 1107.74 196.645C1108.29 196.645 1108.71 197.05 1108.71 197.56C1108.71 198.1 1108.31 198.52 1107.74 198.52ZM1107.02 208V200.05H1108.46V208H1107.02ZM1115.45 199.975C1117.39 199.975 1118.75 201.085 1118.75 203.425V208H1117.31V203.59C1117.31 202.03 1116.53 201.265 1115.17 201.265C1113.64 201.265 1112.65 202.18 1112.65 203.905V208H1111.21V200.05H1112.59V201.25C1113.17 200.44 1114.19 199.975 1115.45 199.975ZM1127.7 200.05H1129.06V206.92C1129.06 209.725 1127.64 211 1124.94 211C1123.48 211 1122.01 210.595 1121.14 209.815L1121.83 208.705C1122.57 209.335 1123.72 209.74 1124.89 209.74C1126.77 209.74 1127.62 208.87 1127.62 207.07V206.44C1126.93 207.265 1125.9 207.67 1124.76 207.67C1122.46 207.67 1120.72 206.11 1120.72 203.815C1120.72 201.52 1122.46 199.975 1124.76 199.975C1125.94 199.975 1127.02 200.41 1127.7 201.28V200.05ZM1124.92 206.41C1126.51 206.41 1127.65 205.345 1127.65 203.815C1127.65 202.27 1126.51 201.235 1124.92 201.235C1123.32 201.235 1122.18 202.27 1122.18 203.815C1122.18 205.345 1123.32 206.41 1124.92 206.41ZM1132.18 206.035C1132.75 206.035 1133.15 206.47 1133.15 207.055C1133.15 207.355 1133.09 207.58 1132.9 208.135L1132.19 210.22H1131.25L1131.8 207.985C1131.43 207.85 1131.17 207.505 1131.17 207.055C1131.17 206.455 1131.61 206.035 1132.18 206.035ZM658.58 226.975C660.905 226.975 662.6 228.595 662.6 231.025C662.6 233.455 660.905 235.09 658.58 235.09C657.41 235.09 656.39 234.64 655.745 233.74V235H654.365V223.87H655.805V228.25C656.465 227.395 657.455 226.975 658.58 226.975ZM658.46 233.83C659.99 233.83 661.145 232.72 661.145 231.025C661.145 229.33 659.99 228.235 658.46 228.235C656.945 228.235 655.79 229.33 655.79 231.025C655.79 232.72 656.945 233.83 658.46 233.83ZM671.775 231.07C671.775 231.19 671.76 231.37 671.745 231.505H665.295C665.475 232.9 666.6 233.83 668.175 233.83C669.105 233.83 669.885 233.515 670.47 232.87L671.265 233.8C670.545 234.64 669.45 235.09 668.13 235.09C665.565 235.09 663.855 233.395 663.855 231.025C663.855 228.67 665.55 226.975 667.845 226.975C670.14 226.975 671.775 228.625 671.775 231.07ZM667.845 228.19C666.465 228.19 665.445 229.12 665.295 230.47H670.395C670.245 229.135 669.24 228.19 667.845 228.19ZM677.794 233.5L678.244 234.535C677.809 234.91 677.149 235.09 676.504 235.09C674.899 235.09 673.984 234.205 673.984 232.6V228.235H672.634V227.05H673.984V225.31H675.424V227.05H677.704V228.235H675.424V232.54C675.424 233.395 675.874 233.875 676.669 233.875C677.089 233.875 677.494 233.74 677.794 233.5ZM690.579 227.05H691.869L688.899 235H687.519L685.224 228.97L682.899 235H681.519L678.564 227.05H679.929L682.239 233.38L684.639 227.05H685.854L688.209 233.41L690.579 227.05ZM700.295 231.07C700.295 231.19 700.28 231.37 700.265 231.505H693.815C693.995 232.9 695.12 233.83 696.695 233.83C697.625 233.83 698.405 233.515 698.99 232.87L699.785 233.8C699.065 234.64 697.97 235.09 696.65 235.09C694.085 235.09 692.375 233.395 692.375 231.025C692.375 228.67 694.07 226.975 696.365 226.975C698.66 226.975 700.295 228.625 700.295 231.07ZM696.365 228.19C694.985 228.19 693.965 229.12 693.815 230.47H698.915C698.765 229.135 697.76 228.19 696.365 228.19ZM709.48 231.07C709.48 231.19 709.465 231.37 709.45 231.505H703C703.18 232.9 704.305 233.83 705.88 233.83C706.81 233.83 707.59 233.515 708.175 232.87L708.97 233.8C708.25 234.64 707.155 235.09 705.835 235.09C703.27 235.09 701.56 233.395 701.56 231.025C701.56 228.67 703.255 226.975 705.55 226.975C707.845 226.975 709.48 228.625 709.48 231.07ZM705.55 228.19C704.17 228.19 703.15 229.12 703 230.47H708.1C707.95 229.135 706.945 228.19 705.55 228.19ZM715.724 226.975C717.659 226.975 719.024 228.085 719.024 230.425V235H717.584V230.59C717.584 229.03 716.804 228.265 715.439 228.265C713.909 228.265 712.919 229.18 712.919 230.905V235H711.479V227.05H712.859V228.25C713.444 227.44 714.464 226.975 715.724 226.975ZM727.998 235.09C726.678 235.09 725.373 234.685 724.713 234.16L725.313 233.02C725.988 233.5 727.068 233.845 728.103 233.845C729.438 233.845 729.993 233.44 729.993 232.765C729.993 230.98 724.968 232.525 724.968 229.36C724.968 227.935 726.243 226.975 728.283 226.975C729.318 226.975 730.488 227.245 731.178 227.695L730.563 228.835C729.843 228.37 729.048 228.205 728.268 228.205C727.008 228.205 726.393 228.67 726.393 229.3C726.393 231.175 731.433 229.645 731.433 232.735C731.433 234.175 730.113 235.09 727.998 235.09ZM740.417 231.07C740.417 231.19 740.402 231.37 740.387 231.505H733.937C734.117 232.9 735.242 233.83 736.817 233.83C737.747 233.83 738.527 233.515 739.112 232.87L739.907 233.8C739.187 234.64 738.092 235.09 736.772 235.09C734.207 235.09 732.497 233.395 732.497 231.025C732.497 228.67 734.192 226.975 736.487 226.975C738.782 226.975 740.417 228.625 740.417 231.07ZM736.487 228.19C735.107 228.19 734.087 229.12 733.937 230.47H739.037C738.887 229.135 737.882 228.19 736.487 228.19ZM749.602 231.07C749.602 231.19 749.587 231.37 749.572 231.505H743.122C743.302 232.9 744.427 233.83 746.002 233.83C746.932 233.83 747.712 233.515 748.297 232.87L749.092 233.8C748.372 234.64 747.277 235.09 745.957 235.09C743.392 235.09 741.682 233.395 741.682 231.025C741.682 228.67 743.377 226.975 745.672 226.975C747.967 226.975 749.602 228.625 749.602 231.07ZM745.672 228.19C744.292 228.19 743.272 229.12 743.122 230.47H748.222C748.072 229.135 747.067 228.19 745.672 228.19ZM752.321 225.52C751.766 225.52 751.346 225.115 751.346 224.59C751.346 224.065 751.766 223.645 752.321 223.645C752.876 223.645 753.296 224.05 753.296 224.56C753.296 225.1 752.891 225.52 752.321 225.52ZM751.601 235V227.05H753.041V235H751.601ZM760.036 226.975C761.971 226.975 763.336 228.085 763.336 230.425V235H761.896V230.59C761.896 229.03 761.116 228.265 759.751 228.265C758.221 228.265 757.231 229.18 757.231 230.905V235H755.791V227.05H757.171V228.25C757.756 227.44 758.776 226.975 760.036 226.975ZM772.285 227.05H773.65V233.92C773.65 236.725 772.225 238 769.525 238C768.07 238 766.6 237.595 765.73 236.815L766.42 235.705C767.155 236.335 768.31 236.74 769.48 236.74C771.355 236.74 772.21 235.87 772.21 234.07V233.44C771.52 234.265 770.485 234.67 769.345 234.67C767.05 234.67 765.31 233.11 765.31 230.815C765.31 228.52 767.05 226.975 769.345 226.975C770.53 226.975 771.61 227.41 772.285 228.28V227.05ZM769.51 233.41C771.1 233.41 772.24 232.345 772.24 230.815C772.24 229.27 771.1 228.235 769.51 228.235C767.905 228.235 766.765 229.27 766.765 230.815C766.765 232.345 767.905 233.41 769.51 233.41ZM783.324 226.975C785.499 226.975 786.729 228.025 786.729 230.2V235H785.364V233.95C784.884 234.67 783.999 235.09 782.754 235.09C780.954 235.09 779.814 234.13 779.814 232.75C779.814 231.475 780.639 230.425 783.009 230.425H785.289V230.14C785.289 228.925 784.584 228.22 783.159 228.22C782.214 228.22 781.254 228.55 780.639 229.075L780.039 227.995C780.864 227.335 782.049 226.975 783.324 226.975ZM782.994 233.98C784.074 233.98 784.929 233.485 785.289 232.57V231.46H783.069C781.644 231.46 781.239 232.015 781.239 232.69C781.239 233.485 781.899 233.98 782.994 233.98ZM793.639 226.975C795.574 226.975 796.939 228.085 796.939 230.425V235H795.499V230.59C795.499 229.03 794.719 228.265 793.354 228.265C791.824 228.265 790.834 229.18 790.834 230.905V235H789.394V227.05H790.774V228.25C791.359 227.44 792.379 226.975 793.639 226.975ZM805.708 223.87H807.148V235H805.768V233.74C805.123 234.64 804.103 235.09 802.933 235.09C800.608 235.09 798.913 233.455 798.913 231.025C798.913 228.595 800.608 226.975 802.933 226.975C804.058 226.975 805.048 227.395 805.708 228.25V223.87ZM803.053 233.83C804.568 233.83 805.723 232.72 805.723 231.025C805.723 229.33 804.568 228.235 803.053 228.235C801.523 228.235 800.368 229.33 800.368 231.025C800.368 232.72 801.523 233.83 803.053 233.83ZM815.281 228.385C815.791 227.455 816.781 226.975 818.176 226.975V228.37C818.056 228.355 817.951 228.355 817.846 228.355C816.301 228.355 815.341 229.3 815.341 231.04V235H813.901V227.05H815.281V228.385ZM827.063 231.07C827.063 231.19 827.048 231.37 827.033 231.505H820.583C820.763 232.9 821.888 233.83 823.463 233.83C824.393 233.83 825.173 233.515 825.758 232.87L826.553 233.8C825.833 234.64 824.738 235.09 823.418 235.09C820.853 235.09 819.143 233.395 819.143 231.025C819.143 228.67 820.838 226.975 823.133 226.975C825.428 226.975 827.063 228.625 827.063 231.07ZM823.133 228.19C821.753 228.19 820.733 229.12 820.583 230.47H825.683C825.533 229.135 824.528 228.19 823.133 228.19ZM839.007 226.975C840.942 226.975 842.262 228.085 842.262 230.425V235H840.822V230.59C840.822 229.03 840.072 228.265 838.767 228.265C837.327 228.265 836.382 229.18 836.382 230.905V235H834.942V230.59C834.942 229.03 834.192 228.265 832.887 228.265C831.447 228.265 830.502 229.18 830.502 230.905V235H829.062V227.05H830.442V228.235C831.012 227.425 831.987 226.975 833.187 226.975C834.402 226.975 835.422 227.455 835.947 228.445C836.547 227.545 837.657 226.975 839.007 226.975ZM852.141 231.07C852.141 231.19 852.126 231.37 852.111 231.505H845.661C845.841 232.9 846.966 233.83 848.541 233.83C849.471 233.83 850.251 233.515 850.836 232.87L851.631 233.8C850.911 234.64 849.816 235.09 848.496 235.09C845.931 235.09 844.221 233.395 844.221 231.025C844.221 228.67 845.916 226.975 848.211 226.975C850.506 226.975 852.141 228.625 852.141 231.07ZM848.211 228.19C846.831 228.19 845.811 229.12 845.661 230.47H850.761C850.611 229.135 849.606 228.19 848.211 228.19ZM864.085 226.975C866.02 226.975 867.34 228.085 867.34 230.425V235H865.9V230.59C865.9 229.03 865.15 228.265 863.845 228.265C862.405 228.265 861.46 229.18 861.46 230.905V235H860.02V230.59C860.02 229.03 859.27 228.265 857.965 228.265C856.525 228.265 855.58 229.18 855.58 230.905V235H854.14V227.05H855.52V228.235C856.09 227.425 857.065 226.975 858.265 226.975C859.48 226.975 860.5 227.455 861.025 228.445C861.625 227.545 862.735 226.975 864.085 226.975ZM874.205 226.975C876.53 226.975 878.225 228.595 878.225 231.025C878.225 233.455 876.53 235.09 874.205 235.09C873.035 235.09 872.015 234.64 871.37 233.74V235H869.99V223.87H871.43V228.25C872.09 227.395 873.08 226.975 874.205 226.975ZM874.085 233.83C875.615 233.83 876.77 232.72 876.77 231.025C876.77 229.33 875.615 228.235 874.085 228.235C872.57 228.235 871.415 229.33 871.415 231.025C871.415 232.72 872.57 233.83 874.085 233.83ZM887.4 231.07C887.4 231.19 887.385 231.37 887.37 231.505H880.92C881.1 232.9 882.225 233.83 883.8 233.83C884.73 233.83 885.51 233.515 886.095 232.87L886.89 233.8C886.17 234.64 885.075 235.09 883.755 235.09C881.19 235.09 879.48 233.395 879.48 231.025C879.48 228.67 881.175 226.975 883.47 226.975C885.765 226.975 887.4 228.625 887.4 231.07ZM883.47 228.19C882.09 228.19 881.07 229.12 880.92 230.47H886.02C885.87 229.135 884.865 228.19 883.47 228.19ZM890.779 228.385C891.289 227.455 892.279 226.975 893.674 226.975V228.37C893.554 228.355 893.449 228.355 893.344 228.355C891.799 228.355 890.839 229.3 890.839 231.04V235H889.399V227.05H890.779V228.385ZM896.169 225.52C895.614 225.52 895.194 225.115 895.194 224.59C895.194 224.065 895.614 223.645 896.169 223.645C896.724 223.645 897.144 224.05 897.144 224.56C897.144 225.1 896.739 225.52 896.169 225.52ZM895.449 235V227.05H896.889V235H895.449ZM903.883 226.975C905.818 226.975 907.183 228.085 907.183 230.425V235H905.743V230.59C905.743 229.03 904.963 228.265 903.598 228.265C902.068 228.265 901.078 229.18 901.078 230.905V235H899.638V227.05H901.018V228.25C901.603 227.44 902.623 226.975 903.883 226.975ZM916.132 227.05H917.497V233.92C917.497 236.725 916.072 238 913.372 238C911.917 238 910.447 237.595 909.577 236.815L910.267 235.705C911.002 236.335 912.157 236.74 913.327 236.74C915.202 236.74 916.057 235.87 916.057 234.07V233.44C915.367 234.265 914.332 234.67 913.192 234.67C910.897 234.67 909.157 233.11 909.157 230.815C909.157 228.52 910.897 226.975 913.192 226.975C914.377 226.975 915.457 227.41 916.132 228.28V227.05ZM913.357 233.41C914.947 233.41 916.087 232.345 916.087 230.815C916.087 229.27 914.947 228.235 913.357 228.235C911.752 228.235 910.612 229.27 910.612 230.815C910.612 232.345 911.752 233.41 913.357 233.41ZM920.594 235.09C920.039 235.09 919.574 234.655 919.574 234.055C919.574 233.455 920.039 233.035 920.594 233.035C921.134 233.035 921.584 233.455 921.584 234.055C921.584 234.655 921.134 235.09 920.594 235.09ZM935.416 224.5H936.916V235H935.686L929.386 227.17V235H927.886V224.5H929.116L935.416 232.33V224.5ZM943.253 235.09C940.868 235.09 939.113 233.395 939.113 231.025C939.113 228.655 940.868 226.975 943.253 226.975C945.638 226.975 947.378 228.655 947.378 231.025C947.378 233.395 945.638 235.09 943.253 235.09ZM943.253 233.83C944.783 233.83 945.923 232.72 945.923 231.025C945.923 229.33 944.783 228.235 943.253 228.235C941.723 228.235 940.568 229.33 940.568 231.025C940.568 232.72 941.723 233.83 943.253 233.83ZM953.39 233.5L953.84 234.535C953.405 234.91 952.745 235.09 952.1 235.09C950.495 235.09 949.58 234.205 949.58 232.6V228.235H948.23V227.05H949.58V225.31H951.02V227.05H953.3V228.235H951.02V232.54C951.02 233.395 951.47 233.875 952.265 233.875C952.685 233.875 953.09 233.74 953.39 233.5ZM962.502 231.07C962.502 231.19 962.487 231.37 962.472 231.505H956.022C956.202 232.9 957.327 233.83 958.902 233.83C959.832 233.83 960.612 233.515 961.197 232.87L961.992 233.8C961.272 234.64 960.177 235.09 958.857 235.09C956.292 235.09 954.582 233.395 954.582 231.025C954.582 228.67 956.277 226.975 958.572 226.975C960.867 226.975 962.502 228.625 962.502 231.07ZM958.572 228.19C957.192 228.19 956.172 229.12 956.022 230.47H961.122C960.972 229.135 959.967 228.19 958.572 228.19ZM966.782 235.09C965.462 235.09 964.157 234.685 963.497 234.16L964.097 233.02C964.772 233.5 965.852 233.845 966.887 233.845C968.222 233.845 968.777 233.44 968.777 232.765C968.777 230.98 963.752 232.525 963.752 229.36C963.752 227.935 965.027 226.975 967.067 226.975C968.102 226.975 969.272 227.245 969.962 227.695L969.347 228.835C968.627 228.37 967.832 228.205 967.052 228.205C965.792 228.205 965.177 228.67 965.177 229.3C965.177 231.175 970.217 229.645 970.217 232.735C970.217 234.175 968.897 235.09 966.782 235.09ZM978.94 226.975C981.115 226.975 982.345 228.025 982.345 230.2V235H980.98V233.95C980.5 234.67 979.615 235.09 978.37 235.09C976.57 235.09 975.43 234.13 975.43 232.75C975.43 231.475 976.255 230.425 978.625 230.425H980.905V230.14C980.905 228.925 980.2 228.22 978.775 228.22C977.83 228.22 976.87 228.55 976.255 229.075L975.655 227.995C976.48 227.335 977.665 226.975 978.94 226.975ZM978.61 233.98C979.69 233.98 980.545 233.485 980.905 232.57V231.46H978.685C977.26 231.46 976.855 232.015 976.855 232.69C976.855 233.485 977.515 233.98 978.61 233.98ZM986.39 228.385C986.9 227.455 987.89 226.975 989.285 226.975V228.37C989.165 228.355 989.06 228.355 988.955 228.355C987.41 228.355 986.45 229.3 986.45 231.04V235H985.01V227.05H986.39V228.385ZM998.171 231.07C998.171 231.19 998.156 231.37 998.141 231.505H991.691C991.871 232.9 992.996 233.83 994.571 233.83C995.501 233.83 996.281 233.515 996.866 232.87L997.661 233.8C996.941 234.64 995.846 235.09 994.526 235.09C991.961 235.09 990.251 233.395 990.251 231.025C990.251 228.67 991.946 226.975 994.241 226.975C996.536 226.975 998.171 228.625 998.171 231.07ZM994.241 228.19C992.861 228.19 991.841 229.12 991.691 230.47H996.791C996.641 229.135 995.636 228.19 994.241 228.19ZM1008.22 233.5L1008.67 234.535C1008.23 234.91 1007.57 235.09 1006.93 235.09C1005.32 235.09 1004.41 234.205 1004.41 232.6V228.235H1003.06V227.05H1004.41V225.31H1005.85V227.05H1008.13V228.235H1005.85V232.54C1005.85 233.395 1006.3 233.875 1007.09 233.875C1007.51 233.875 1007.92 233.74 1008.22 233.5ZM1014.65 226.975C1016.59 226.975 1017.95 228.085 1017.95 230.425V235H1016.51V230.59C1016.51 229.03 1015.73 228.265 1014.37 228.265C1012.84 228.265 1011.85 229.18 1011.85 230.905V235H1010.41V223.87H1011.85V228.175C1012.45 227.41 1013.44 226.975 1014.65 226.975ZM1027.85 231.07C1027.85 231.19 1027.83 231.37 1027.82 231.505H1021.37C1021.55 232.9 1022.67 233.83 1024.25 233.83C1025.18 233.83 1025.96 233.515 1026.54 232.87L1027.34 233.8C1026.62 234.64 1025.52 235.09 1024.2 235.09C1021.64 235.09 1019.93 233.395 1019.93 231.025C1019.93 228.67 1021.62 226.975 1023.92 226.975C1026.21 226.975 1027.85 228.625 1027.85 231.07ZM1023.92 228.19C1022.54 228.19 1021.52 229.12 1021.37 230.47H1026.47C1026.32 229.135 1025.31 228.19 1023.92 228.19ZM1038.09 226.975C1040.42 226.975 1042.11 228.595 1042.11 231.025C1042.11 233.455 1040.42 235.09 1038.09 235.09C1036.92 235.09 1035.9 234.64 1035.26 233.74V235H1033.88V223.87H1035.32V228.25C1035.98 227.395 1036.97 226.975 1038.09 226.975ZM1037.97 233.83C1039.5 233.83 1040.66 232.72 1040.66 231.025C1040.66 229.33 1039.5 228.235 1037.97 228.235C1036.46 228.235 1035.3 229.33 1035.3 231.025C1035.3 232.72 1036.46 233.83 1037.97 233.83ZM1045.48 228.385C1045.99 227.455 1046.98 226.975 1048.38 226.975V228.37C1048.26 228.355 1048.15 228.355 1048.05 228.355C1046.5 228.355 1045.54 229.3 1045.54 231.04V235H1044.1V227.05H1045.48V228.385ZM1057.26 231.07C1057.26 231.19 1057.25 231.37 1057.23 231.505H1050.78C1050.96 232.9 1052.09 233.83 1053.66 233.83C1054.59 233.83 1055.37 233.515 1055.96 232.87L1056.75 233.8C1056.03 234.64 1054.94 235.09 1053.62 235.09C1051.05 235.09 1049.34 233.395 1049.34 231.025C1049.34 228.67 1051.04 226.975 1053.33 226.975C1055.63 226.975 1057.26 228.625 1057.26 231.07ZM1053.33 228.19C1051.95 228.19 1050.93 229.12 1050.78 230.47H1055.88C1055.73 229.135 1054.73 228.19 1053.33 228.19ZM1061.94 226.975C1064.11 226.975 1065.34 228.025 1065.34 230.2V235H1063.98V233.95C1063.5 234.67 1062.61 235.09 1061.37 235.09C1059.57 235.09 1058.43 234.13 1058.43 232.75C1058.43 231.475 1059.25 230.425 1061.62 230.425H1063.9V230.14C1063.9 228.925 1063.2 228.22 1061.77 228.22C1060.83 228.22 1059.87 228.55 1059.25 229.075L1058.65 227.995C1059.48 227.335 1060.66 226.975 1061.94 226.975ZM1061.61 233.98C1062.69 233.98 1063.54 233.485 1063.9 232.57V231.46H1061.68C1060.26 231.46 1059.85 232.015 1059.85 232.69C1059.85 233.485 1060.51 233.98 1061.61 233.98ZM1074.11 223.87H1075.55V235H1074.17V233.74C1073.53 234.64 1072.51 235.09 1071.34 235.09C1069.01 235.09 1067.32 233.455 1067.32 231.025C1067.32 228.595 1069.01 226.975 1071.34 226.975C1072.46 226.975 1073.45 227.395 1074.11 228.25V223.87ZM1071.46 233.83C1072.97 233.83 1074.13 232.72 1074.13 231.025C1074.13 229.33 1072.97 228.235 1071.46 228.235C1069.93 228.235 1068.77 229.33 1068.77 231.025C1068.77 232.72 1069.93 233.83 1071.46 233.83ZM1081.74 235.09C1079.3 235.09 1077.54 233.395 1077.54 231.025C1077.54 228.655 1079.3 226.975 1081.74 226.975C1083.17 226.975 1084.35 227.56 1084.98 228.67L1083.89 229.375C1083.38 228.595 1082.6 228.235 1081.73 228.235C1080.17 228.235 1079 229.33 1079 231.025C1079 232.75 1080.17 233.83 1081.73 233.83C1082.6 233.83 1083.38 233.47 1083.89 232.69L1084.98 233.38C1084.35 234.49 1083.17 235.09 1081.74 235.09ZM1088.23 228.385C1088.74 227.455 1089.73 226.975 1091.12 226.975V228.37C1091 228.355 1090.9 228.355 1090.79 228.355C1089.25 228.355 1088.29 229.3 1088.29 231.04V235H1086.85V227.05H1088.23V228.385ZM1098.97 227.05H1100.41V235H1099.04V233.8C1098.46 234.625 1097.47 235.09 1096.34 235.09C1094.29 235.09 1092.92 233.965 1092.92 231.625V227.05H1094.36V231.46C1094.36 233.02 1095.14 233.8 1096.51 233.8C1098.01 233.8 1098.97 232.87 1098.97 231.16V227.05ZM1113.09 226.975C1115.03 226.975 1116.35 228.085 1116.35 230.425V235H1114.91V230.59C1114.91 229.03 1114.16 228.265 1112.85 228.265C1111.41 228.265 1110.47 229.18 1110.47 230.905V235H1109.03V230.59C1109.03 229.03 1108.28 228.265 1106.97 228.265C1105.53 228.265 1104.59 229.18 1104.59 230.905V235H1103.15V227.05H1104.53V228.235C1105.1 227.425 1106.07 226.975 1107.27 226.975C1108.49 226.975 1109.51 227.455 1110.03 228.445C1110.63 227.545 1111.74 226.975 1113.09 226.975ZM1123.21 226.975C1125.54 226.975 1127.23 228.595 1127.23 231.025C1127.23 233.455 1125.54 235.09 1123.21 235.09C1122.04 235.09 1121.02 234.64 1120.38 233.74V235H1119V223.87H1120.44V228.25C1121.1 227.395 1122.09 226.975 1123.21 226.975ZM1123.09 233.83C1124.62 233.83 1125.78 232.72 1125.78 231.025C1125.78 229.33 1124.62 228.235 1123.09 228.235C1121.58 228.235 1120.42 229.33 1120.42 231.025C1120.42 232.72 1121.58 233.83 1123.09 233.83ZM1131.5 235.09C1130.18 235.09 1128.88 234.685 1128.22 234.16L1128.82 233.02C1129.49 233.5 1130.57 233.845 1131.61 233.845C1132.94 233.845 1133.5 233.44 1133.5 232.765C1133.5 230.98 1128.47 232.525 1128.47 229.36C1128.47 227.935 1129.75 226.975 1131.79 226.975C1132.82 226.975 1133.99 227.245 1134.68 227.695L1134.07 228.835C1133.35 228.37 1132.55 228.205 1131.77 228.205C1130.51 228.205 1129.9 228.67 1129.9 229.3C1129.9 231.175 1134.94 229.645 1134.94 232.735C1134.94 234.175 1133.62 235.09 1131.5 235.09ZM654.365 262V250.87H655.805V262H654.365ZM665.739 258.07C665.739 258.19 665.724 258.37 665.709 258.505H659.259C659.439 259.9 660.564 260.83 662.139 260.83C663.069 260.83 663.849 260.515 664.434 259.87L665.229 260.8C664.509 261.64 663.414 262.09 662.094 262.09C659.529 262.09 657.819 260.395 657.819 258.025C657.819 255.67 659.514 253.975 661.809 253.975C664.104 253.975 665.739 255.625 665.739 258.07ZM661.809 255.19C660.429 255.19 659.409 256.12 659.259 257.47H664.359C664.209 256.135 663.204 255.19 661.809 255.19ZM670.414 253.975C672.589 253.975 673.819 255.025 673.819 257.2V262H672.454V260.95C671.974 261.67 671.089 262.09 669.844 262.09C668.044 262.09 666.904 261.13 666.904 259.75C666.904 258.475 667.729 257.425 670.099 257.425H672.379V257.14C672.379 255.925 671.674 255.22 670.249 255.22C669.304 255.22 668.344 255.55 667.729 256.075L667.129 254.995C667.954 254.335 669.139 253.975 670.414 253.975ZM670.084 260.98C671.164 260.98 672.019 260.485 672.379 259.57V258.46H670.159C668.734 258.46 668.329 259.015 668.329 259.69C668.329 260.485 668.989 260.98 670.084 260.98ZM682.588 250.87H684.028V262H682.648V260.74C682.003 261.64 680.983 262.09 679.813 262.09C677.488 262.09 675.793 260.455 675.793 258.025C675.793 255.595 677.488 253.975 679.813 253.975C680.938 253.975 681.928 254.395 682.588 255.25V250.87ZM679.933 260.83C681.448 260.83 682.603 259.72 682.603 258.025C682.603 256.33 681.448 255.235 679.933 255.235C678.403 255.235 677.248 256.33 677.248 258.025C677.248 259.72 678.403 260.83 679.933 260.83ZM687.473 252.52C686.918 252.52 686.498 252.115 686.498 251.59C686.498 251.065 686.918 250.645 687.473 250.645C688.028 250.645 688.448 251.05 688.448 251.56C688.448 252.1 688.043 252.52 687.473 252.52ZM686.753 262V254.05H688.193V262H686.753ZM695.187 253.975C697.122 253.975 698.487 255.085 698.487 257.425V262H697.047V257.59C697.047 256.03 696.267 255.265 694.902 255.265C693.372 255.265 692.382 256.18 692.382 257.905V262H690.942V254.05H692.322V255.25C692.907 254.44 693.927 253.975 695.187 253.975ZM707.436 254.05H708.801V260.92C708.801 263.725 707.376 265 704.676 265C703.221 265 701.751 264.595 700.881 263.815L701.571 262.705C702.306 263.335 703.461 263.74 704.631 263.74C706.506 263.74 707.361 262.87 707.361 261.07V260.44C706.671 261.265 705.636 261.67 704.496 261.67C702.201 261.67 700.461 260.11 700.461 257.815C700.461 255.52 702.201 253.975 704.496 253.975C705.681 253.975 706.761 254.41 707.436 255.28V254.05ZM704.661 260.41C706.251 260.41 707.391 259.345 707.391 257.815C707.391 256.27 706.251 255.235 704.661 255.235C703.056 255.235 701.916 256.27 701.916 257.815C701.916 259.345 703.056 260.41 704.661 260.41ZM719.601 260.5L720.051 261.535C719.616 261.91 718.956 262.09 718.311 262.09C716.706 262.09 715.791 261.205 715.791 259.6V255.235H714.441V254.05H715.791V252.31H717.231V254.05H719.511V255.235H717.231V259.54C717.231 260.395 717.681 260.875 718.476 260.875C718.896 260.875 719.301 260.74 719.601 260.5ZM724.933 262.09C722.548 262.09 720.793 260.395 720.793 258.025C720.793 255.655 722.548 253.975 724.933 253.975C727.318 253.975 729.058 255.655 729.058 258.025C729.058 260.395 727.318 262.09 724.933 262.09ZM724.933 260.83C726.463 260.83 727.603 259.72 727.603 258.025C727.603 256.33 726.463 255.235 724.933 255.235C723.403 255.235 722.248 256.33 722.248 258.025C722.248 259.72 723.403 260.83 724.933 260.83ZM739.098 260.5L739.548 261.535C739.113 261.91 738.453 262.09 737.808 262.09C736.203 262.09 735.288 261.205 735.288 259.6V255.235H733.938V254.05H735.288V252.31H736.728V254.05H739.008V255.235H736.728V259.54C736.728 260.395 737.178 260.875 737.973 260.875C738.393 260.875 738.798 260.74 739.098 260.5ZM745.534 253.975C747.469 253.975 748.834 255.085 748.834 257.425V262H747.394V257.59C747.394 256.03 746.614 255.265 745.249 255.265C743.719 255.265 742.729 256.18 742.729 257.905V262H741.289V250.87H742.729V255.175C743.329 254.41 744.319 253.975 745.534 253.975ZM758.728 258.07C758.728 258.19 758.713 258.37 758.698 258.505H752.248C752.428 259.9 753.553 260.83 755.128 260.83C756.058 260.83 756.838 260.515 757.423 259.87L758.218 260.8C757.498 261.64 756.403 262.09 755.083 262.09C752.518 262.09 750.808 260.395 750.808 258.025C750.808 255.67 752.503 253.975 754.798 253.975C757.093 253.975 758.728 255.625 758.728 258.07ZM754.798 255.19C753.418 255.19 752.398 256.12 752.248 257.47H757.348C757.198 256.135 756.193 255.19 754.798 255.19ZM767.666 251.965C766.811 251.965 766.376 252.445 766.376 253.36V254.05H768.686V255.235H766.406V262H764.966V255.235H763.616V254.05H764.966V253.345C764.966 251.8 765.896 250.78 767.591 250.78C768.206 250.78 768.806 250.93 769.211 251.245L768.776 252.34C768.476 252.115 768.086 251.965 767.666 251.965ZM777.112 258.07C777.112 258.19 777.097 258.37 777.082 258.505H770.632C770.812 259.9 771.937 260.83 773.512 260.83C774.442 260.83 775.222 260.515 775.807 259.87L776.602 260.8C775.882 261.64 774.787 262.09 773.467 262.09C770.902 262.09 769.192 260.395 769.192 258.025C769.192 255.67 770.887 253.975 773.182 253.975C775.477 253.975 777.112 255.625 777.112 258.07ZM773.182 255.19C771.802 255.19 770.782 256.12 770.632 257.47H775.732C775.582 256.135 774.577 255.19 773.182 255.19ZM781.786 253.975C783.961 253.975 785.191 255.025 785.191 257.2V262H783.826V260.95C783.346 261.67 782.461 262.09 781.216 262.09C779.416 262.09 778.276 261.13 778.276 259.75C778.276 258.475 779.101 257.425 781.471 257.425H783.751V257.14C783.751 255.925 783.046 255.22 781.621 255.22C780.676 255.22 779.716 255.55 779.101 256.075L778.501 254.995C779.326 254.335 780.511 253.975 781.786 253.975ZM781.456 260.98C782.536 260.98 783.391 260.485 783.751 259.57V258.46H781.531C780.106 258.46 779.701 259.015 779.701 259.69C779.701 260.485 780.361 260.98 781.456 260.98ZM790.136 262.09C788.816 262.09 787.511 261.685 786.851 261.16L787.451 260.02C788.126 260.5 789.206 260.845 790.241 260.845C791.576 260.845 792.131 260.44 792.131 259.765C792.131 257.98 787.106 259.525 787.106 256.36C787.106 254.935 788.381 253.975 790.421 253.975C791.456 253.975 792.626 254.245 793.316 254.695L792.701 255.835C791.981 255.37 791.186 255.205 790.406 255.205C789.146 255.205 788.531 255.67 788.531 256.3C788.531 258.175 793.571 256.645 793.571 259.735C793.571 261.175 792.251 262.09 790.136 262.09ZM799.391 260.5L799.841 261.535C799.406 261.91 798.746 262.09 798.101 262.09C796.496 262.09 795.581 261.205 795.581 259.6V255.235H794.231V254.05H795.581V252.31H797.021V254.05H799.301V255.235H797.021V259.54C797.021 260.395 797.471 260.875 798.266 260.875C798.686 260.875 799.091 260.74 799.391 260.5ZM809.015 262.09C806.63 262.09 804.875 260.395 804.875 258.025C804.875 255.655 806.63 253.975 809.015 253.975C811.4 253.975 813.14 255.655 813.14 258.025C813.14 260.395 811.4 262.09 809.015 262.09ZM809.015 260.83C810.545 260.83 811.685 259.72 811.685 258.025C811.685 256.33 810.545 255.235 809.015 255.235C807.485 255.235 806.33 256.33 806.33 258.025C806.33 259.72 807.485 260.83 809.015 260.83ZM818.042 251.965C817.187 251.965 816.752 252.445 816.752 253.36V254.05H819.062V255.235H816.782V262H815.342V255.235H813.992V254.05H815.342V253.345C815.342 251.8 816.272 250.78 817.967 250.78C818.582 250.78 819.182 250.93 819.587 251.245L819.152 252.34C818.852 252.115 818.462 251.965 818.042 251.965ZM830.523 262L827.538 258.295L825.888 259.825V262H824.448V250.87H825.888V258.01L830.223 254.05H831.963L828.618 257.335L832.293 262H830.523ZM837.834 253.975C839.769 253.975 841.134 255.085 841.134 257.425V262H839.694V257.59C839.694 256.03 838.914 255.265 837.549 255.265C836.019 255.265 835.029 256.18 835.029 257.905V262H833.589V254.05H834.969V255.25C835.554 254.44 836.574 253.975 837.834 253.975ZM847.248 262.09C844.863 262.09 843.108 260.395 843.108 258.025C843.108 255.655 844.863 253.975 847.248 253.975C849.633 253.975 851.373 255.655 851.373 258.025C851.373 260.395 849.633 262.09 847.248 262.09ZM847.248 260.83C848.778 260.83 849.918 259.72 849.918 258.025C849.918 256.33 848.778 255.235 847.248 255.235C845.718 255.235 844.563 256.33 844.563 258.025C844.563 259.72 845.718 260.83 847.248 260.83ZM863.884 254.05H865.174L862.204 262H860.824L858.529 255.97L856.204 262H854.824L851.869 254.05H853.234L855.544 260.38L857.944 254.05H859.159L861.514 260.41L863.884 254.05ZM866.636 262V250.87H868.076V262H866.636ZM878.01 258.07C878.01 258.19 877.995 258.37 877.98 258.505H871.53C871.71 259.9 872.835 260.83 874.41 260.83C875.34 260.83 876.12 260.515 876.705 259.87L877.5 260.8C876.78 261.64 875.685 262.09 874.365 262.09C871.8 262.09 870.09 260.395 870.09 258.025C870.09 255.67 871.785 253.975 874.08 253.975C876.375 253.975 878.01 255.625 878.01 258.07ZM874.08 255.19C872.7 255.19 871.68 256.12 871.53 257.47H876.63C876.48 256.135 875.475 255.19 874.08 255.19ZM886.07 250.87H887.51V262H886.13V260.74C885.485 261.64 884.465 262.09 883.295 262.09C880.97 262.09 879.275 260.455 879.275 258.025C879.275 255.595 880.97 253.975 883.295 253.975C884.42 253.975 885.41 254.395 886.07 255.25V250.87ZM883.415 260.83C884.93 260.83 886.085 259.72 886.085 258.025C886.085 256.33 884.93 255.235 883.415 255.235C881.885 255.235 880.73 256.33 880.73 258.025C880.73 259.72 881.885 260.83 883.415 260.83ZM896.474 254.05H897.839V260.92C897.839 263.725 896.414 265 893.714 265C892.259 265 890.789 264.595 889.919 263.815L890.609 262.705C891.344 263.335 892.499 263.74 893.669 263.74C895.544 263.74 896.399 262.87 896.399 261.07V260.44C895.709 261.265 894.674 261.67 893.534 261.67C891.239 261.67 889.499 260.11 889.499 257.815C889.499 255.52 891.239 253.975 893.534 253.975C894.719 253.975 895.799 254.41 896.474 255.28V254.05ZM893.699 260.41C895.289 260.41 896.429 259.345 896.429 257.815C896.429 256.27 895.289 255.235 893.699 255.235C892.094 255.235 890.954 256.27 890.954 257.815C890.954 259.345 892.094 260.41 893.699 260.41ZM907.776 258.07C907.776 258.19 907.761 258.37 907.746 258.505H901.296C901.476 259.9 902.601 260.83 904.176 260.83C905.106 260.83 905.886 260.515 906.471 259.87L907.266 260.8C906.546 261.64 905.451 262.09 904.131 262.09C901.566 262.09 899.856 260.395 899.856 258.025C899.856 255.67 901.551 253.975 903.846 253.975C906.141 253.975 907.776 255.625 907.776 258.07ZM903.846 255.19C902.466 255.19 901.446 256.12 901.296 257.47H906.396C906.246 256.135 905.241 255.19 903.846 255.19ZM914.148 262.09C913.593 262.09 913.128 261.655 913.128 261.055C913.128 260.455 913.593 260.035 914.148 260.035C914.688 260.035 915.138 260.455 915.138 261.055C915.138 261.655 914.688 262.09 914.148 262.09Z" fill="black" fill-opacity="0.7"/>
<path d="M56.6201 196.46C56.6201 196.46 56.6601 196.79 56.7501 197.45" stroke="#00A9FF" stroke-width="0.75" stroke-miterlimit="10" stroke-dasharray="1.5 1.5"/>
<path d="M57.0401 199.49C57.8901 205.56 60.0801 220.59 63.9001 243.39" stroke="#00A9FF" stroke-width="0.75" stroke-miterlimit="10" stroke-dasharray="1.5 1.5"/>
<path d="M64.0701 244.42C64.1301 244.75 64.1801 245.08 64.2401 245.41" stroke="#00A9FF" stroke-width="0.75" stroke-miterlimit="10" stroke-dasharray="1.5 1.5"/>
<path d="M97.0001 297.03C97.0001 297.03 188.05 321.6 195.86 323.7" stroke="#00A9FF" stroke-width="0.75" stroke-miterlimit="10" stroke-dasharray="1.5 1.5"/>
<path d="M44.8101 189.99C44.8101 189.99 30.9101 234.94 30.7101 247.13C30.5101 259.32 35.8501 267.51 35.8501 267.51" stroke="#C7D8E5" stroke-width="0.75" stroke-miterlimit="10" stroke-dasharray="1.5 1.5"/>
<path d="M179.67 306.56C179.67 306.56 119.86 319.32 106.91 317.61C93.9601 315.9 89.3901 311.51 89.3901 311.51" stroke="#C7D8E5" stroke-width="0.75" stroke-miterlimit="10" stroke-dasharray="1.5 1.5"/>
<path d="M298.9 186.37C298.9 186.37 316.04 134.37 314.71 122.56C313.38 110.75 308.81 101.42 308.81 101.42" stroke="#C7D8E5" stroke-width="0.75" stroke-miterlimit="10" stroke-dasharray="1.5 1.5"/>
<path d="M280.05 110.56C280.05 110.56 279.67 116.27 280.81 122.56C281.95 128.85 291.29 186.75 291.29 186.75" stroke="#00A9FF" stroke-width="0.75" stroke-miterlimit="10" stroke-dasharray="1.5 1.5"/>
<path d="M265.38 65.9901C265.38 65.9901 253.19 50.9401 229 53.2301" stroke="#C7D8E5" stroke-width="0.75" stroke-miterlimit="10" stroke-dasharray="1.5 1.5"/>
<path d="M260.24 77.2201C260.24 77.2201 233.95 69.9801 229.38 68.8401" stroke="#00A9FF" stroke-width="0.75" stroke-miterlimit="10" stroke-dasharray="1.5 1.5"/>
<path d="M89.76 203.7C139.201 203.7 179.28 163.621 179.28 114.18C179.28 64.7396 139.201 24.6601 89.76 24.6601C40.3195 24.6601 0.23999 64.7396 0.23999 114.18C0.23999 163.621 40.3195 203.7 89.76 203.7Z" fill="#E0AED0"/>
<path d="M255.48 352.27C304.921 352.27 345 312.191 345 262.75C345 213.31 304.921 173.23 255.48 173.23C206.039 173.23 165.96 213.31 165.96 262.75C165.96 312.191 206.039 352.27 255.48 352.27Z" fill="#91C8E4"/>
<mask id="mask0_532_3795" style="mask-type:luminance" maskUnits="userSpaceOnUse" x="0" y="24" width="180" height="180">
<path d="M89.76 203.7C139.201 203.7 179.28 163.621 179.28 114.18C179.28 64.7396 139.201 24.6601 89.76 24.6601C40.3195 24.6601 0.23999 64.7396 0.23999 114.18C0.23999 163.621 40.3195 203.7 89.76 203.7Z" fill="white"/>
</mask>
<g mask="url(#mask0_532_3795)">
<path d="M26.01 96.6601C22.55 95.8701 20.69 96.9501 19.59 98.0301C18.67 98.9301 18.22 100.22 18.32 101.5C18.56 104.87 20.33 106.23 22.11 107.12C24.12 108.12 28.1 107.12 28.1 107.12C28.1 107.12 32.44 113.54 34.37 113.9C36.3 114.26 42.65 114.65 46.24 114.04C49.83 113.43 51.19 112.89 54.13 111.53C57.07 110.17 58.67 107.91 58.67 107.91C61.92 104.23 62.21 99.7401 62.3 96.6801C62.39 93.7901 60.28 88.9801 58.62 81.8201C56.96 74.6601 49.25 70.8301 49.25 70.8301C49.25 70.8301 48.35 75.2801 44.98 77.8801C42.94 79.4601 40.64 80.1401 35.55 80.2501C35.55 80.2501 36.02 86.7001 34.76 88.7501C33.5 90.8001 31.18 91.0801 29.63 90.9701C29.63 90.9701 29.45 94.3401 28.55 95.2701C27.65 96.2001 26.61 96.4901 25.86 96.6001L26 96.6701L26.01 96.6601Z" fill="#FFAB97"/>
<path d="M61.97 76.8001L62.1 72.4201L61.2 68.8001L55.39 65.8001L39.83 67.6201L36.87 66.7101L31.06 66.9001L28.39 69.1401L26.87 71.6201L22.06 74.6701L19.77 77.8601L19.44 82.0001L20.58 89.5201L22.53 96.4701L25.67 96.6601L28.53 95.4701L29.64 90.9601L33.1 90.4701L35.24 87.9001L35.62 80.0401L40.86 79.5201C40.86 79.5201 44.57 78.0001 44.81 78.1901C45.05 78.3801 48.24 74.0901 48.24 74.0901L49.24 70.8301L52.81 73.1401L56.76 77.5701L58.71 82.4701L60.38 87.7101L61.33 91.7101C61.33 91.7101 65.43 90.0001 65.85 86.0401C66.27 82.0801 64.69 78.9001 61.96 76.8001" fill="#91C8E4"/>
<path d="M37.19 66.8701L35.54 60.8401C35.54 60.8401 32.17 54.6201 23.86 55.0601C15.55 55.5001 12.11 59.5701 12.11 59.5701C12.11 59.5701 8.35999 63.7001 8.86999 69.4701C9.37999 75.2401 9.62999 76.6401 12.68 79.3101C15.73 81.9801 19.43 81.9801 19.43 81.9801" fill="#91C8E4"/>
<path d="M25.87 96.5801C26.62 96.4801 27.66 96.1901 28.56 95.2601C28.88 94.9101 29.12 94.2401 29.28 93.5201C29.56 92.3001 29.63 90.9501 29.63 90.9501C31.18 91.0601 33.51 90.7801 34.76 88.7301C36.01 86.6901 35.55 80.2401 35.55 80.2401C40.64 80.1301 42.93 79.4501 44.98 77.8701C48.35 75.2701 49.24 70.8201 49.24 70.8201C49.24 70.8201 56.99 74.7901 58.61 81.8101C58.87 82.9301 59.14 83.9901 59.41 85.0001C60.39 88.6101 61.37 91.5101 61.89 93.7601C62.17 94.8901 62.32 95.8601 62.29 96.6801C62.2 99.7401 61.91 104.23 58.66 107.91C58.66 107.91 57.06 110.17 54.12 111.53C51.18 112.89 49.82 113.43 46.23 114.04C45.29 114.2 44.17 114.29 42.99 114.33" stroke="black" stroke-miterlimit="10"/>
<path d="M18.71 99.3201C18.92 98.8401 19.21 98.4001 19.59 98.0301C20.69 96.9401 22.56 95.8601 26.01 96.6501" stroke="black" stroke-miterlimit="10"/>
<path d="M20.56 99.3401C20.34 99.3401 20.21 99.3801 20.21 99.3801" stroke="black" stroke-miterlimit="10"/>
<path d="M22.5 96.4901C22.5 96.4901 19.2 86.4001 19.45 80.4901C19.7 74.5801 24.33 73.2801 25.04 72.7801C25.75 72.2801 26.83 71.9201 27.16 71.2701C27.49 70.6201 28.59 68.1201 30.17 67.4701L30.35 67.3901C31.3 67.0001 32.32 66.8101 33.34 66.7401C34.75 66.6401 35.61 66.5301 37.3 66.7801C37.65 66.8301 38 67.0701 38.28 67.2601C38.73 67.5601 39.27 67.6901 39.81 67.6001C42.94 67.0901 53.14 65.4901 55.08 65.8801C57.37 66.3501 60.35 68.1401 61.53 69.8901C62.71 71.6401 61.75 76.3101 61.96 76.7701C62.17 77.2301 64.3 79.3601 64.94 80.2801C65.73 81.4301 66.19 85.1601 65.37 87.3801C64.55 89.6001 62.5 91.5001 61.71 91.6501" stroke="black" stroke-miterlimit="10"/>
<path d="M19.27 82.1701C19.27 82.1701 10.95 80.6601 9.33999 73.8201C7.72999 66.9801 10.06 62.4901 11.42 60.7001C12.98 58.6401 15.95 55.8901 20.63 55.2201C27.39 54.2501 30.24 56.0601 31.99 57.0801C33.89 58.1801 36.72 61.6301 37.3 66.7901" stroke="black" stroke-miterlimit="10"/>
<path d="M51.23 92.9601C50.92 92.3101 50.79 91.9701 50.79 91.9701C48.95 91.6801 48.09 90.3701 48.09 90.3701C48.09 90.3701 47.89 87.4801 47.93 83.8801" stroke="black" stroke-width="0.5" stroke-miterlimit="10"/>
<path d="M16.5 100.24C16.5 100.24 18.53 95.7201 20.28 95.2201C22.03 94.7201 33.71 92.7601 33.71 92.7601" stroke="white" stroke-miterlimit="10"/>
<path d="M35.84 89.6001C37.64 89.0901 39.48 88.7201 41.34 88.4601C42.35 88.3201 43.37 88.1901 43.6 88.2001C44.1 88.2201 45.23 88.3201 45.97 90.2301C46.71 92.1401 46.81 95.0301 46.69 95.7001C46.57 96.3701 45.76 97.0901 45.23 97.2801C44.7 97.4701 37.85 98.7001 36.63 98.5801C35.9 98.5001 35.63 98.4201 34.96 97.5401C34.29 96.6601 33.95 93.0301 33.93 92.3801C33.91 91.7301 33.79 90.2501 35.1 89.8201C35.32 89.7501 35.57 89.6701 35.85 89.5901L35.84 89.6001Z" stroke="white" stroke-miterlimit="10"/>
<path d="M46.28 90.9701C46.28 90.9701 48.17 89.4601 50.29 90.1101" stroke="white" stroke-miterlimit="10"/>
<path d="M53.01 86.1801C54.95 85.5601 56.81 85.2901 58.83 85.0601C59.37 85.0001 59.81 84.9701 59.94 84.9901C60.39 85.0901 61.59 85.0901 62.16 86.2101C62.57 87.0201 62.82 89.5201 62.93 90.8701C62.99 91.6501 62.85 92.4301 62.44 93.1001C62.25 93.4201 62 93.7101 61.7 93.8901C60.79 94.4201 55.2 95.4001 54.75 95.4701C54.3 95.5401 53.08 95.7101 52.5 95.2301H52.48C51.74 94.6001 51.22 93.7601 51.01 92.8201L50.57 90.9001C50.37 90.0101 50.26 89.1001 50.32 88.2001C50.32 88.1001 50.34 88.0001 50.35 87.9201C50.41 87.5001 50.66 87.1101 50.95 86.9201C51.24 86.7301 51.96 86.5201 53 86.1901L53.01 86.1801Z" stroke="white" stroke-miterlimit="10"/>
<path d="M42.65 93.9601C43.0863 93.9601 43.44 93.5751 43.44 93.1001C43.44 92.6251 43.0863 92.2401 42.65 92.2401C42.2137 92.2401 41.86 92.6251 41.86 93.1001C41.86 93.5751 42.2137 93.9601 42.65 93.9601Z" fill="black"/>
<path d="M40.27 87.6901C40.27 87.6901 40.66 86.8701 42.19 86.6401L40.27 87.6901Z" stroke="black" stroke-width="0.5" stroke-miterlimit="10"/>
<path d="M54.95 91.8201C55.3863 91.8201 55.74 91.435 55.74 90.9601C55.74 90.4851 55.3863 90.1001 54.95 90.1001C54.5137 90.1001 54.16 90.4851 54.16 90.9601C54.16 91.435 54.5137 91.8201 54.95 91.8201Z" fill="black"/>
<path d="M55.39 84.4501C55.39 84.4501 54.67 83.9001 53.2 84.3901L55.39 84.4501Z" stroke="black" stroke-width="0.5" stroke-miterlimit="10"/>
<path d="M51.82 97.3701C51.82 97.3701 49.53 99.7801 47.49 97.5601" stroke="black" stroke-width="0.5" stroke-miterlimit="10"/>
<path d="M73.71 118.56L81.23 120.85L89.28 126.14C89.28 126.14 97.8 133.66 101.76 142.19C105.72 150.72 113.24 167.33 113.24 167.33L109.29 167.23L95.24 167.52L100.62 182.85L60.24 182.56L58.86 184.08L59.05 186.51L36.72 186.27L23.64 175.83L26.81 172.94C26.81 172.94 34.24 159.96 35.79 153.32C37.34 146.68 37.82 146.97 37.82 146.97L41.85 129.37C41.85 129.37 44.66 129.94 46.14 129.85C47.62 129.76 55 128.8 55 128.8L61.76 127.04L67.71 123.85L73.71 118.56Z" fill="#0565AD"/>
<path d="M64.71 116.53L74.02 118.44L70.69 121.87L62.55 126.7L55.55 128.91L42.02 129.65L43.19 122.68L51.9 122.51L59.48 120.63L63.64 117.99L64.71 116.53Z" fill="#00A9FF"/>
<path d="M43.15 115.23L52.48 115.22L64.81 116.37L64 117.84L58.95 120.75L52.14 122.65L45.29 122.89L43.14 122.27L43.15 115.23Z" fill="#FFAB97"/>
<path d="M93.51 162.75L105.7 150.3L116.75 175.7L117.92 176.72L123.86 175.7L127.92 175.95L117 184.84L101.25 184.72L93.51 162.75Z" fill="#FFAB97"/>
<path d="M128.56 175.83C122.81 174.62 119.38 176.72 117.92 176.72C116.46 176.72 106.59 150.98 100.44 139.49C94.29 128 83.49 122.13 83.49 122.13C80.09 119.61 70.1 117.43 65.73 116.52C65.73 116.52 44.06 112.33 27.67 118.16" stroke="black" stroke-miterlimit="10"/>
<path d="M65.24 116.43C65.24 116.43 57.5 125.96 38.98 121.86" stroke="black" stroke-miterlimit="10"/>
<path d="M74.01 118.32C74.01 118.32 63.93 132.73 37.83 129.21" stroke="black" stroke-miterlimit="10"/>
<path d="M100.76 183.19L93.39 162.23" stroke="black" stroke-miterlimit="10"/>
<path d="M76.88 130.99C76.88 130.99 88.05 157.05 88.54 178.75" stroke="black" stroke-miterlimit="10"/>
<path d="M35.29 111.7L34.62 107.65L33.48 104.75L33.29 102.87L34.19 101.89L36.19 102.18L39.24 107.37L42.14 112.27L43.38 114.13L43.28 118.37V123.47L42.23 126.52V126.85L37.23 148.23C37.23 148.23 33.42 161.61 31.42 164.37C29.42 167.13 29.99 167.66 29.99 167.66L24.04 175.8L2.22999 151.37L24.56 119.04L23.99 117.56L15.75 111.42L14.94 108.9L16.23 107.8L17.71 108.61L22.71 112.04L18.71 107.42L16.19 100.71L17.19 99.2801L20.38 99.5701L21.09 98.0001L23.33 97.7101L25.71 100.19L27.61 104.09L33.04 109.61L35.28 111.71L35.29 111.7Z" fill="#FFAB97"/>
<path d="M23.27 112.66L20.72 109.98C19.56 108.77 18.65 107.34 18.04 105.77L16.42 101.62C16.3 101.31 16.27 100.98 16.34 100.66C16.42 100.24 16.66 99.8701 17 99.6201C17.33 99.3801 17.73 99.2601 18.14 99.2801L19.22 99.3401L20.55 99.5901" stroke="black" stroke-miterlimit="10"/>
<path d="M2.13999 151.76C2.87999 150.63 22.06 122.95 24.5 119.43C24.66 119.19 24.71 118.9 24.64 118.62C24.52 118.17 24.25 117.77 23.87 117.49L16.35 111.87C15.53 111.26 15.07 110.29 15.1 109.27C15.12 108.75 15.43 108.29 15.9 108.07C16.31 107.88 16.79 107.95 17.14 108.23L18.95 109.74L23.27 112.65" stroke="black" stroke-miterlimit="10"/>
<path d="M35.67 112.03C35.58 112.01 35.49 111.99 35.4 111.96" stroke="black" stroke-miterlimit="10"/>
<path d="M35.48 112.3L35.4 111.96" stroke="black" stroke-miterlimit="10"/>
<path d="M42.99 114.33C43.04 114.61 43.1 114.91 43.15 115.23C43.53 117.62 43.65 121.01 43.11 123.07C42.26 126.29 36.52 163.41 24.19 175.51" stroke="black" stroke-miterlimit="10"/>
<path d="M42.99 114.33C42.8 113.43 42.57 112.78 42.34 112.56C41.51 111.76 37.55 103.99 37.1 103.57C36.85 103.35 36.64 102.85 36.5 102.42C36.35 102 35.32 101.85 34.88 101.86C34.38 101.87 33.46 102.09 33.35 102.57L33.29 102.87C33.22 103.18 33.21 103.66 33.32 103.95C33.51 104.48 33.6 105.22 33.74 105.93C33.88 106.65 34.06 107.33 34.43 107.76L35.4 111.96C35 111.83 34.65 111.6 34.37 111.29L28.48 104.97C28.2 104.67 27.78 104.25 27.63 103.86C27.38 103.17 26.98 102.3 26.51 101.46C26.05 100.62 25.54 99.8101 25.08 99.2301L24.83 98.9101L24.57 98.5901C24.21 98.1501 23.68 97.8801 23.11 97.8601L22.23 97.8401C21.35 97.8101 20.62 98.4801 20.56 99.3401C20.55 99.3601 20.55 99.3801 20.55 99.4001V99.6001C20.57 99.8501 20.65 100.1 20.77 100.31L21.37 101.33C21.98 102.37 22.48 103.46 22.87 104.6C23.02 105.04 23.24 105.46 23.52 105.83L24.83 107.56L28.48 112.4" stroke="black" stroke-miterlimit="10"/>
<path d="M158.52 99.3201H78.34C74.8661 99.3201 72.05 102.136 72.05 105.61V161.03C72.05 164.504 74.8661 167.32 78.34 167.32H158.52C161.994 167.32 164.81 164.504 164.81 161.03V105.61C164.81 102.136 161.994 99.3201 158.52 99.3201Z" fill="#00A9FF"/>
<path d="M118.71 131.32C122.813 131.32 126.14 127.994 126.14 123.89C126.14 119.787 122.813 116.46 118.71 116.46C114.607 116.46 111.28 119.787 111.28 123.89C111.28 127.994 114.607 131.32 118.71 131.32Z" fill="#E2F1FE"/>
<path d="M58.97 186.3L58.94 184.2C58.92 183.23 59.71 182.44 60.68 182.45L108.63 182.99L108.58 186.61" fill="#FFD28F"/>
<path d="M124.12 144.08H114.2C112.97 144.08 111.94 145 111.79 146.22L106.91 186.56H130.15L126.34 146.1C126.23 144.96 125.27 144.08 124.12 144.08Z" fill="#057EC9"/>
<path d="M36.24 186.37L144.75 186.68L115.41 208.02L64.11 207.51L37.89 191.64L36.24 186.37Z" fill="#00A9FF"/>
</g>
<mask id="mask1_532_3795" style="mask-type:luminance" maskUnits="userSpaceOnUse" x="165" y="173" width="180" height="180">
<path d="M255.48 352.27C304.921 352.27 345 312.191 345 262.75C345 213.31 304.921 173.23 255.48 173.23C206.039 173.23 165.96 213.31 165.96 262.75C165.96 312.191 206.039 352.27 255.48 352.27Z" fill="white"/>
</mask>
<g mask="url(#mask1_532_3795)">
<path d="M291.03 206.75L294.33 205.35L301.83 205.16L309.25 206.49L316.68 209.41L320.94 213.92L323.48 222.43L325 233.29L326.08 238.87L329.7 243.95L334.65 248.34L349.38 256.84L356.75 260.72L349.06 288.59L348.05 288.21L337.57 274.94L334.46 272.34L331.1 271.26L326.84 272.72L322.78 273.99L317.57 272.78L312.05 268.97L309.13 261.54L309 255.76L309.89 251.45L308.11 253.03L299.79 255L295.1 255.89L289.32 256.78L282.9 259.45L277.44 262.81L271.6 267.64L265.19 267.51L267.79 258.43L264.94 252.65L266.14 247.26L272.11 240.84L274.84 237.16L275.1 230.94L273.89 224.08L275.98 215.7L280.11 210.56L284.3 207.95L291.03 206.75Z" fill="#00A9FF"/>
<path d="M316.62 239.24C316.62 239.24 316.75 239.98 316.69 240.93C316.65 241.62 316.41 242.29 316.02 242.87C314.58 245.02 310.4 251.17 308.77 252.55C306.78 254.24 298.29 254.93 297.1 254.88C295.91 254.83 292.78 255.38 288.01 252.99C283.24 250.6 280.82 246.21 280.51 243.85C280.2 241.49 279.12 225.57 279.12 225.57C279.82 216.13 287.37 211.86 287.37 211.86C287.37 211.86 291.74 221.2 296.41 222.34C301.08 223.48 302.52 219.96 302.52 219.96L303.46 219.81C303.46 219.81 304.95 223.78 307.14 224.33C309.33 224.88 311.11 224.43 312.55 223.78L313.3 223.93C313.3 223.93 314.05 225.97 314.39 226.07C314.62 226.14 317.9 225.63 320.77 226.19C322.84 226.59 324.35 228.39 324.47 230.49L324.61 233.07C324.63 234.61 324.35 235.77 323.37 236.65L321.78 238.08C320.73 239.02 319.2 239.48 317.8 239.56L316.74 239.63L316.64 239.23L316.62 239.24Z" fill="#FFAB97"/>
<path d="M290.05 256.75C290.05 256.75 291.86 260.94 308.81 259.61L309.95 264.47L311.76 268.28L316.81 272.09L321.29 273.9L326.85 272.73L330.72 271.05L334.82 272.19L338.53 276L345.77 285.05L326.91 332.38L311.01 335.52L288.34 333.23V329.71L286.63 329.52L287.58 327.71V269.71L286.15 267.61L271.61 267.64L275.77 263.7L283.87 258.84L290.06 256.74L290.05 256.75Z" fill="#009E9E"/>
<path d="M290.05 256.75C290.05 256.75 296.68 261.61 308.81 259.61L309.64 264.21L297.58 264.46L289.33 262.17L284.44 259.12L290.06 256.74L290.05 256.75Z" fill="#63B4B8"/>
<path d="M290.05 256.75L297 255.6L309.29 255.13L309 259.89L300.33 259.7L291.86 258.13L290.05 256.75Z" fill="#FFAB97"/>
<path d="M309.09 259.73C294.85 261.2 289.99 256.95 289.74 256.72H289.73C289.73 256.72 289.72 256.71 289.71 256.72C289.69 256.72 289.67 256.73 289.65 256.73C289.48 256.78 289.1 256.9 288.51 257.12C288.49 257.12 288.47 257.13 288.44 257.14C287.61 257.43 286.41 257.89 284.94 258.55C284.64 258.68 284.35 258.82 284.05 258.96C284.02 258.98 283.98 258.99 283.95 259.01C283.36 259.29 282.77 259.58 282.18 259.89C282.17 259.89 282.16 259.89 282.15 259.9C278.26 261.95 274.65 264.52 271.54 267.64" stroke="black" stroke-miterlimit="10"/>
<path d="M320.65 277.84C320.65 277.84 321.93 300.95 325.9 304.78L339.51 304.64" stroke="black" stroke-miterlimit="10"/>
<path d="M325.89 304.79C325.89 304.79 296.6 307.11 287.66 309.94" stroke="black" stroke-miterlimit="10"/>
<path d="M311.71 335.7C311.71 335.7 299.68 335.07 288.33 333.22" stroke="black" stroke-miterlimit="10"/>
<path d="M309.13 255.13C303.19 255.11 298.3 255.51 294.91 255.92H294.89C291.59 256.32 289.73 256.71 289.73 256.71" stroke="black" stroke-miterlimit="10"/>
<path d="M284.56 258.87C284.56 258.87 289.19 266.17 309.77 264.2" stroke="black" stroke-miterlimit="10"/>
<path d="M316.62 239.24C316.62 239.24 316.75 239.98 316.69 240.93C316.65 241.62 316.41 242.29 316.02 242.87C314.58 245.02 310.4 251.17 308.77 252.55C306.78 254.24 298.29 254.93 297.1 254.88C295.91 254.83 292.78 255.38 288.01 252.99C283.24 250.6 280.82 246.21 280.51 243.85C280.2 241.49 279.12 225.57 279.12 225.57C279.82 216.13 287.37 211.86 287.37 211.86C287.37 211.86 291.74 221.2 296.41 222.34C301.08 223.48 302.52 219.96 302.52 219.96L303.46 219.81C303.46 219.81 304.95 223.78 307.14 224.33C309.33 224.88 311.11 224.43 312.55 223.78L313.3 223.93C313.3 223.93 314.05 225.97 314.39 226.07C314.62 226.14 317.9 225.63 320.77 226.19C322.84 226.59 324.35 228.39 324.47 230.49L324.61 233.07C324.63 234.61 324.35 235.77 323.37 236.65L321.78 238.08C320.73 239.02 319.2 239.48 317.8 239.56L316.74 239.63" stroke="black" stroke-miterlimit="10"/>
<path d="M322.23 228.91C322.23 228.91 317.01 229.26 316.72 237.16" stroke="black" stroke-miterlimit="10"/>
<path d="M318.51 231.94C318.51 231.94 320.65 233.98 319.11 236.76" stroke="black" stroke-width="0.7" stroke-miterlimit="10"/>
<path d="M356.52 260.7C350.81 257.65 338.85 251.29 338.85 251.29C334.66 248.64 331.87 246.2 330.04 244.26C329.85 244.05 329.67 243.86 329.5 243.67C328.23 242.24 327.52 241.13 327.15 240.48C327.07 240.34 326.99 240.19 326.9 240.03C326.53 239.31 326.12 238.37 325.75 237.16C325.28 235.63 324.88 233.64 324.69 231.09V231.05C324.5 228.56 324.02 225.47 323.55 222.89C323.55 222.85 323.55 222.81 323.53 222.77C323.5 222.6 323.47 222.44 323.43 222.28C323 219.97 322.59 218.2 322.45 217.83C322.26 217.33 321.98 216.03 321.09 214.43C320.91 214.1 320.7 213.76 320.46 213.41C319.78 212.4 318.84 211.33 317.53 210.31C316.95 209.85 316.3 209.4 315.57 208.97C313.79 207.93 311.54 206.98 308.67 206.28C306.1 205.65 303.83 205.31 301.83 205.16C299.33 204.97 297.28 205.08 295.65 205.32H295.62C294.68 205.46 293.88 205.64 293.22 205.82C291.63 206.26 290.86 206.73 290.86 206.73C290.86 206.73 287.92 206.55 284.56 207.9C284.37 207.98 284.19 208.06 284 208.14C283.99 208.15 283.98 208.15 283.98 208.15C282.89 208.64 281.78 209.3 280.72 210.18C280.3 210.53 279.88 210.91 279.49 211.33C279.3 211.53 279.12 211.73 278.94 211.94C278.47 212.5 278.04 213.06 277.66 213.61C276.72 214.96 276.04 216.27 275.54 217.48C275.53 217.48 275.52 217.51 275.52 217.52C274.58 219.79 274.28 221.73 274.17 222.96C274.12 223.51 274.11 223.92 274.09 224.16C274.07 224.49 274.14 225.19 274.24 226.05C274.24 226.07 274.25 226.1 274.25 226.12C274.5 228.17 274.95 231.09 275.05 232.25C275.05 232.39 275.06 232.5 275.06 232.58C275.06 233.55 275.23 235.63 274.84 237.09C274.84 237.13 274.83 237.16 274.82 237.19C274.76 237.38 274.7 237.57 274.62 237.73C273.95 239.14 270 243.24 267.31 246.22C266.68 246.92 266.21 247.65 265.89 248.37C265.41 249.43 265.22 250.48 265.22 251.39C265.22 252.48 265.48 253.37 265.82 253.9C267.03 255.76 268.06 257.84 267.76 259.26C267.52 260.36 265.9 265.06 265.21 267.51C265.17 267.64 265.14 267.77 265.11 267.89" stroke="black" stroke-miterlimit="10"/>
<path d="M347.95 288.13C345.09 284.7 337.73 274.71 337.73 274.71C336.89 274.36 336.11 273.28 335.15 272.62C333.76 271.68 332.1 271.39 331.42 271.33C330.33 271.23 329.88 271.48 328.99 271.93C328.1 272.38 326.36 273.27 324.07 273.67C321.78 274.07 318.9 273.77 314.63 270.94C310.36 268.11 308.97 262.79 308.87 258.97C308.8 256.29 310.11 251.12 310.11 251.12" stroke="black" stroke-miterlimit="10"/>
<path d="M287.964 234.799C288.273 234.786 288.509 234.44 288.492 234.026C288.475 233.612 288.21 233.287 287.901 233.3C287.592 233.313 287.356 233.659 287.373 234.073C287.39 234.487 287.655 234.812 287.964 234.799Z" stroke="black" stroke-miterlimit="10"/>
<path d="M285.6 227.37C285.6 227.37 286.88 226.25 287.98 226.76L285.6 227.37Z" stroke="black" stroke-miterlimit="10"/>
<path d="M298.528 232.744C298.837 232.723 299.064 232.371 299.036 231.958C299.008 231.544 298.735 231.226 298.427 231.247C298.118 231.268 297.891 231.62 297.919 232.033C297.947 232.447 298.22 232.765 298.528 232.744Z" stroke="black" stroke-miterlimit="10"/>
<path d="M299.35 225.11C299.35 225.11 297.86 224.29 296.89 225.02L299.35 225.11Z" stroke="black" stroke-miterlimit="10"/>
<path d="M290.34 226.28C290.34 226.28 293.52 231.4 292.63 233.48C291.74 235.56 291.24 235.86 291.29 236.61C291.34 237.36 291.84 237.85 292.53 238.2" stroke="black" stroke-width="0.5" stroke-miterlimit="10"/>
<path d="M294.01 237.8C294.16 237.8 294.8 237.65 294.8 237.65" stroke="black" stroke-width="0.5" stroke-miterlimit="10"/>
<path d="M297.44 238.25C297.44 238.25 297.24 240.19 293.66 240.29" stroke="black" stroke-width="0.5" stroke-miterlimit="10"/>
<path d="M285.76 267.89H203.57C202.57 267.89 201.76 268.7 201.76 269.7V327.7C201.76 328.7 202.57 329.51 203.57 329.51H285.76C286.76 329.51 287.57 328.7 287.57 327.7V269.7C287.57 268.7 286.76 267.89 285.76 267.89Z" fill="#E2F1FE"/>
<path d="M288.33 329.7H200.9V333.22H288.33V329.7Z" fill="#E1E9EF"/>
<path d="M244.38 301.32C248.246 301.32 251.38 298.186 251.38 294.32C251.38 290.454 248.246 287.32 244.38 287.32C240.514 287.32 237.38 290.454 237.38 294.32C237.38 298.186 240.514 301.32 244.38 301.32Z" fill="white"/>
</g>
<path d="M220.75 258.24C234.005 258.24 244.75 247.495 244.75 234.24C244.75 220.985 234.005 210.24 220.75 210.24C207.495 210.24 196.75 220.985 196.75 234.24C196.75 247.495 207.495 258.24 220.75 258.24Z" fill="#00A9FF"/>
<path d="M222.52 258.18L226.64 263.2C226.96 263.59 227.46 263.79 227.96 263.71C228.55 263.63 229.02 263.19 229.16 262.62L230.2 256.34" fill="#00A9FF"/>
<path d="M186.52 235.5C196.191 235.5 204.03 227.661 204.03 217.99C204.03 208.32 196.191 200.48 186.52 200.48C176.849 200.48 169.01 208.32 169.01 217.99C169.01 227.661 176.849 235.5 186.52 235.5Z" fill="#FFD28F"/>
<path d="M177.19 232.8L171.74 234.82C171.4 234.96 171.01 234.92 170.71 234.7C170.36 234.45 170.2 234 170.31 233.59L172.28 228.42" fill="#FFD28F"/>
<path d="M177.86 220.34C179.351 220.34 180.56 219.131 180.56 217.64C180.56 216.149 179.351 214.94 177.86 214.94C176.369 214.94 175.16 216.149 175.16 217.64C175.16 219.131 176.369 220.34 177.86 220.34Z" fill="#A197FC"/>
<path d="M186.43 220.27C187.921 220.27 189.13 219.061 189.13 217.57C189.13 216.079 187.921 214.87 186.43 214.87C184.939 214.87 183.73 216.079 183.73 217.57C183.73 219.061 184.939 220.27 186.43 220.27Z" fill="#A197FC"/>
<path d="M195.44 220.34C196.931 220.34 198.14 219.131 198.14 217.64C198.14 216.149 196.931 214.94 195.44 214.94C193.949 214.94 192.74 216.149 192.74 217.64C192.74 219.131 193.949 220.34 195.44 220.34Z" fill="#A197FC"/>
<path d="M66.02 322.24C87.5149 322.24 104.94 304.815 104.94 283.32C104.94 261.825 87.5149 244.4 66.02 244.4C44.5251 244.4 27.1 261.825 27.1 283.32C27.1 304.815 44.5251 322.24 66.02 322.24Z" fill="#63B4B8"/>
<path d="M97.57 260.53L109.48 261.1C110.37 261.14 111.18 261.64 111.62 262.41C112.12 263.28 112.07 264.36 111.5 265.18L104.43 275.39" fill="#63B4B8"/>
<path d="M288.05 114.24C304.884 114.24 318.53 100.594 318.53 83.7601C318.53 66.9265 304.884 53.2801 288.05 53.2801C271.216 53.2801 257.57 66.9265 257.57 83.7601C257.57 100.594 271.216 114.24 288.05 114.24Z" fill="#A197FC"/>
<path d="M269.63 108.27L260.99 111.74C260.36 111.99 259.64 111.93 259.06 111.57C258.28 111.08 257.91 110.15 258.12 109.26L260.93 97.8001" fill="#A197FC"/>
<path d="M102.71 75.6301C118.594 75.6301 131.47 62.7538 131.47 46.8701C131.47 30.9864 118.594 18.1101 102.71 18.1101C86.8263 18.1101 73.95 30.9864 73.95 46.8701C73.95 62.7538 86.8263 75.6301 102.71 75.6301Z" fill="#A197FC"/>
<path d="M104.81 75.5101L109.63 81.8001C109.95 82.2201 110.45 82.4501 110.97 82.4201C111.69 82.3901 112.29 81.8801 112.45 81.1801L114.27 73.2701" fill="#A197FC"/>
<path d="M60.94 46.1701C73.5266 46.1701 83.73 35.9667 83.73 23.3801C83.73 10.7935 73.5266 0.590088 60.94 0.590088C48.3534 0.590088 38.15 10.7935 38.15 23.3801C38.15 35.9667 48.3534 46.1701 60.94 46.1701Z" fill="#FFD28F"/>
<path d="M48.67 42.7001L42.06 45.7501C41.49 46.0101 40.83 45.9601 40.31 45.6001C39.65 45.1501 39.37 44.3101 39.63 43.5501L42.14 36.3101" fill="#FFD28F"/>
<path d="M218.48 35.4101H152.86C145.365 35.4101 139.29 41.4856 139.29 48.9801V66.7901C139.29 74.2846 145.365 80.3601 152.86 80.3601H218.48C225.974 80.3601 232.05 74.2846 232.05 66.7901V48.9801C232.05 41.4856 225.974 35.4101 218.48 35.4101Z" fill="#63B4B8"/>
<path d="M167.19 80.3701L156.69 88.7201C156.28 89.0501 155.76 89.2101 155.23 89.1701C154.13 89.0901 153.28 88.1901 153.26 87.0901L153.19 80.2801" fill="#63B4B8"/>
<path d="M152.94 47.0701L218.4 47.4501" stroke="#096868" stroke-width="1.7" stroke-miterlimit="10"/>
<path d="M152.94 57.0301L218.4 57.4101" stroke="#096868" stroke-width="1.7" stroke-miterlimit="10"/>
<path d="M152.94 67.0001L218.4 67.3801" stroke="#096868" stroke-width="1.7" stroke-miterlimit="10"/>
<path d="M190.22 195.8H255.84C263.334 195.8 269.41 189.725 269.41 182.23V164.42C269.41 156.926 263.334 150.85 255.84 150.85H190.22C182.725 150.85 176.65 156.926 176.65 164.42V182.23C176.65 189.725 182.725 195.8 190.22 195.8Z" fill="#E78895"/>
<path d="M255.51 195.71L255.44 202.52C255.44 202.74 255.4 202.95 255.34 203.15C255 204.2 253.79 204.7 252.74 204.37L252.4 204.26C252.15 204.18 251.91 204.06 251.71 203.89L241.52 195.79" fill="#E78895"/>
<path d="M255.76 162.51L190.3 162.89" stroke="#B55D6C" stroke-width="1.7" stroke-miterlimit="10"/>
<path d="M255.76 172.47L190.3 172.86" stroke="#B55D6C" stroke-width="1.7" stroke-miterlimit="10"/>
<path d="M255.76 182.44L190.3 182.82" stroke="#B55D6C" stroke-width="1.7" stroke-miterlimit="10"/>
<path d="M71.52 8.18008H51.21C49.5863 8.18008 48.27 9.49637 48.27 11.1201V35.3701C48.27 36.9938 49.5863 38.3101 51.21 38.3101H71.52C73.1437 38.3101 74.46 36.9938 74.46 35.3701V11.1201C74.46 9.49637 73.1437 8.18008 71.52 8.18008Z" fill="#F9F9F9"/>
<path d="M70.74 11.2901H51.22V15.7701H70.74V11.2901Z" fill="#FFD28F"/>
<path d="M56.21 17.9501H51.32V20.3901H56.21V17.9501Z" fill="#A197FC"/>
<path d="M56.27 22.7801H51.38V25.2201H56.27V22.7801Z" fill="#A197FC"/>
<path d="M56.33 27.6001H51.44V30.0401H56.33V27.6001Z" fill="#A197FC"/>
<path d="M56.4 32.4301H51.51V34.8701H56.4V32.4301Z" fill="#A197FC"/>
<path d="M63.45 17.9301H58.56V20.3701H63.45V17.9301Z" fill="#A197FC"/>
<path d="M63.51 22.7601H58.62V25.2001H63.51V22.7601Z" fill="#A197FC"/>
<path d="M63.57 27.5801H58.68V30.0201H63.57V27.5801Z" fill="#A197FC"/>
<path d="M63.64 32.4101H58.75V34.8501H63.64V32.4101Z" fill="#A197FC"/>
<path d="M70.92 17.9101H66.03V20.3501H70.92V17.9101Z" fill="#A197FC"/>
<path d="M71.02 22.7401H66.13V34.8901H71.02V22.7401Z" fill="#FFD28F"/>
<path d="M82.34 257.03H47.96C46.3805 257.03 45.1 258.311 45.1 259.89V307.98C45.1 309.56 46.3805 310.84 47.96 310.84H82.34C83.9195 310.84 85.2 309.56 85.2 307.98V259.89C85.2 258.311 83.9195 257.03 82.34 257.03Z" fill="#E2F1FE"/>
<path d="M58.9 253.32H71.9C73.03 253.32 73.95 254.24 73.95 255.37V257.04H56.81V255.42C56.81 254.26 57.75 253.32 58.91 253.32H58.9Z" fill="#D3D3D3"/>
<path d="M50.38 266.37H66.81" stroke="#A197FC" stroke-miterlimit="10"/>
<path d="M50.38 271.65H66.81" stroke="#A197FC" stroke-miterlimit="10"/>
<path d="M50.67 281.84H67.1" stroke="#A197FC" stroke-miterlimit="10"/>
<path d="M50.67 287.13H67.1" stroke="#A197FC" stroke-miterlimit="10"/>
<path d="M50.9 296.99H67.33" stroke="#A197FC" stroke-miterlimit="10"/>
<path d="M50.9 302.27H67.33" stroke="#A197FC" stroke-miterlimit="10"/>
<path d="M80.43 264.37H71.33V273.75H80.43V264.37Z" fill="#A197FC"/>
<path d="M73.14 266.37L76.07 271.07C76.19 271.26 76.48 271.23 76.55 271.01C77.11 269.29 78.83 263.95 79.47 261.89" stroke="#E78895" stroke-miterlimit="10"/>
<path d="M80.43 279.65H71.33V289.03H80.43V279.65Z" fill="#A197FC"/>
<path d="M73.14 281.65L76.07 286.35C76.19 286.54 76.48 286.51 76.55 286.29C77.11 284.57 78.83 279.23 79.47 277.17" stroke="#FFD28F" stroke-miterlimit="10"/>
<path d="M80.39 295.22H71.29V304.6H80.39V295.22Z" fill="#A197FC"/>
<path d="M73.1 297.22L76.03 301.92C76.15 302.11 76.44 302.08 76.51 301.86C77.07 300.14 78.79 294.8 79.43 292.74" stroke="#FFD28F" stroke-miterlimit="10"/>
<path d="M229.505 221.264L221.627 218.126L212.564 240.878L220.442 244.016L229.505 221.264Z" fill="#91C8E4"/>
<path d="M212.61 240.87L212.48 253.08L220.48 244.01" fill="#EFEFEF"/>
<path d="M214.58 250.72C213.77 250.15 212.49 250.09 212.49 250.09L212.47 253.08L214.57 250.71L214.58 250.72Z" fill="#91C8E4"/>
<path d="M221.67 218.12L222.1 217.19C222.55 216.22 223.68 215.78 224.67 216.17L228.95 217.89C229.87 218.26 230.32 219.31 229.95 220.23L229.54 221.26" fill="#028BC1"/>
<path d="M302 70.6501H273.42C270.924 70.6501 268.9 72.6738 268.9 75.1701V92.7001C268.9 95.1964 270.924 97.2201 273.42 97.2201H302C304.496 97.2201 306.52 95.1964 306.52 92.7001V75.1701C306.52 72.6738 304.496 70.6501 302 70.6501Z" fill="#E2F1FE"/>
<path d="M305.29 72.0801L290.4 83.5301C289.62 84.1301 288.65 84.4601 287.66 84.4601C286.67 84.4601 285.71 84.1301 284.93 83.5301L270.23 72.2701" stroke="#A197FC" stroke-miterlimit="10"/>
<path d="M281.76 80.9401L270.52 95.7001" stroke="#A197FC" stroke-miterlimit="10"/>
<path d="M293.29 81.3201L305.19 95.8001" stroke="#A197FC" stroke-miterlimit="10"/>
<path d="M117.48 27.0301H88.43C87.8004 27.0301 87.29 27.5405 87.29 28.1701V64.2701C87.29 64.8997 87.8004 65.4101 88.43 65.4101H117.48C118.11 65.4101 118.62 64.8997 118.62 64.2701V28.1701C118.62 27.5405 118.11 27.0301 117.48 27.0301Z" fill="#E2F1FE"/>
<path opacity="0.2" d="M118.62 41.4101H87.29V51.1201H118.62V41.4101Z" fill="#63B4B8"/>
<path d="M116.15 28.8401H89.76C89.1304 28.8401 88.62 29.3505 88.62 29.9801V62.6501C88.62 63.2797 89.1304 63.7901 89.76 63.7901H116.15C116.78 63.7901 117.29 63.2797 117.29 62.6501V29.9801C117.29 29.3505 116.78 28.8401 116.15 28.8401Z" stroke="white" stroke-width="0.7" stroke-miterlimit="10"/>
<path d="M85.98 29.3501L90.46 29.3801" stroke="white" stroke-width="1.5" stroke-miterlimit="10" stroke-linecap="round"/>
<path d="M85.98 33.2201L90.46 33.2601" stroke="white" stroke-width="1.5" stroke-miterlimit="10" stroke-linecap="round"/>
<path d="M86.02 36.9701L90.49 37.0001" stroke="white" stroke-width="1.5" stroke-miterlimit="10" stroke-linecap="round"/>
<path d="M86.05 40.7201L90.52 40.7501" stroke="white" stroke-width="1.5" stroke-miterlimit="10" stroke-linecap="round"/>
<path d="M86.08 44.4601L90.56 44.4901" stroke="white" stroke-width="1.5" stroke-miterlimit="10" stroke-linecap="round"/>
<path d="M86.11 48.2101L90.59 48.2401" stroke="white" stroke-width="1.5" stroke-miterlimit="10" stroke-linecap="round"/>
<path d="M86.14 51.9501L90.62 51.9901" stroke="white" stroke-width="1.5" stroke-miterlimit="10" stroke-linecap="round"/>
<path d="M86.17 55.7001L90.65 55.7301" stroke="white" stroke-width="1.5" stroke-miterlimit="10" stroke-linecap="round"/>
<path d="M86.21 59.4501L90.68 59.4801" stroke="white" stroke-width="1.5" stroke-miterlimit="10" stroke-linecap="round"/>
<path d="M86.24 63.1901L90.71 63.2201" stroke="white" stroke-width="1.5" stroke-miterlimit="10" stroke-linecap="round"/>
</svg>
