<svg width="40" height="39" viewBox="0 0 40 39" fill="none" xmlns="http://www.w3.org/2000/svg">
<path d="M20.0944 38.8367C9.46053 38.8367 0.840088 30.2066 0.840088 19.5607C0.840088 8.91481 9.46053 0.284668 20.0944 0.284668C30.7283 0.284668 39.3488 8.91481 39.3488 19.5607C39.3488 30.2066 30.7283 38.8367 20.0944 38.8367Z" fill="#404765"/>
<path d="M9.83489 26.0132C11.6966 27.2085 13.9124 27.9074 16.285 27.9074C24.1011 27.9074 28.5176 21.2981 28.2494 15.3724C29.074 14.7799 29.7874 14.0354 30.3489 13.1896C29.5951 13.5238 28.7806 13.7517 27.9307 13.853C28.8009 13.3314 29.4687 12.5058 29.7823 11.5233C28.9678 12.0044 28.0673 12.359 27.1112 12.5464C26.3422 11.7259 25.2495 11.2144 24.0353 11.2144C21.3187 11.2144 19.3204 13.7517 19.9376 16.3904C16.4368 16.2132 13.3357 14.5368 11.2615 11.9892C10.1587 13.8834 10.6898 16.36 12.5667 17.6161C11.8787 17.5958 11.2261 17.4033 10.6595 17.0893C10.614 19.0443 12.0102 20.8676 14.0338 21.2727C13.4419 21.4348 12.7944 21.4703 12.1316 21.3436C12.6679 23.02 14.221 24.2355 16.0624 24.271C14.2918 25.6587 12.0659 26.2817 9.82983 26.0183L9.83489 26.0132Z" fill="white"/>
</svg>
