<svg width="15" height="14" viewBox="0 0 15 14" fill="none" xmlns="http://www.w3.org/2000/svg">
<path d="M1 13H13.3187M1 13V9.92032L7.15935 3.76097M1 13L4.07968 13L10.239 6.84064M7.15935 3.76097L9.36796 1.55234L9.36929 1.55103C9.67332 1.247 9.82561 1.09472 10.0011 1.03768C10.1558 0.987439 10.3224 0.987439 10.477 1.03768C10.6524 1.09468 10.8045 1.24679 11.1081 1.55039L12.4476 2.88989C12.7525 3.19479 12.905 3.34731 12.9622 3.5231C13.0124 3.67774 13.0124 3.84431 12.9621 3.99894C12.9051 4.17461 12.7528 4.3269 12.4483 4.63136L12.4476 4.63202L10.239 6.84064M7.15935 3.76097L10.239 6.84064" stroke="black" stroke-width="1.5" stroke-linecap="round" stroke-linejoin="round"/>
</svg>
