<svg width="1440" height="616" viewBox="0 0 1440 616" fill="none" xmlns="http://www.w3.org/2000/svg">
<mask id="mask0_2000_2143" style="mask-type:luminance" maskUnits="userSpaceOnUse" x="-3" y="12" width="1441" height="580">
<path fill-rule="evenodd" clip-rule="evenodd" d="M539.9 12.29C549 14.76 563.34 20.99 571.43 32.79C573.84 36.31 575.49 39.74 577.02 42.94C581.59 52.47 585.22 60.04 605.43 62.29L-2.56995 383.35V12.29H539.9ZM-2.56995 396.26V591.28H415.6L645.43 117.78C648.76 110.61 652.73 93.48 641.93 82.28C631.13 71.08 613.1 74.28 605.43 77.28L-2.56995 396.26ZM429.64 591.28H1005.73L764.93 95.28C758.93 85.95 740.83 67.28 716.43 67.28C692.03 67.28 674.6 85.95 668.93 95.28L429.93 590.78L429.64 591.28ZM1017.43 591.28H1437.43V394.58L822.43 69.79C813.76 67.12 794.23 64.09 785.43 73.29C776.63 82.49 779.1 97.12 781.43 103.29L1017.43 591.29V591.28ZM1437.43 383.52V12.29H887.99C878.5 16.4 865.43 24.53 865.43 32.79C865.43 43.48 847.43 59.29 842.93 59.29C839.33 59.29 832.1 62.96 828.93 64.79C834.13 64.79 840.43 68.12 842.93 69.79L1437.43 383.53V383.52Z" fill="white"/>
</mask>
<g mask="url(#mask0_2000_2143)">
<path d="M667.62 99.12L430.43 591.42H1004.91L767.72 99.12C747.52 57.2 687.82 57.2 667.62 99.12Z" fill="url(#paint0_linear_2000_2143)"/>
<mask id="mask1_2000_2143" style="mask-type:luminance" maskUnits="userSpaceOnUse" x="430" y="67" width="575" height="525">
<path d="M667.62 99.12L430.43 591.42H1004.91L767.72 99.12C747.52 57.2 687.82 57.2 667.62 99.12Z" fill="white"/>
</mask>
<g mask="url(#mask1_2000_2143)">
<path d="M635.65 357.39L641.26 342.07L648.7 326.39L653.56 318.02L659.61 310.72L665.54 305.95L670.44 303.1L678.23 299.76L681.44 298.87L681.75 300.6L683.44 305.59L686.74 310.23L693.24 315.12L699.92 317.75L706.82 319.22L712.79 319.53L718.81 319.45L726.73 318.29L734.08 315.97L740.01 312.41L744.59 308L747.62 302.83L748.96 298.42L757.51 302.21L762.5 304.84L769.8 311.16L774.88 316.91L780.63 324.92L787.26 337.75L791.4 347.86L794.21 357.04L797.19 367.28L760.27 372.62L758.18 367.81L761.61 394.85L667.36 399.97L672.57 362.29L635.65 357.39Z" fill="#CDB4DB"/>
<path d="M659.88 451.5L667.36 399.97L761.7 394.49L769.71 451.5H659.88Z" fill="#FFAFCC"/>
<path d="M663 451.68H766.42L776.93 601.33L724.64 602.58L715.64 453.37L715.02 456.4L703.89 600.71L650.53 601.87L663 451.68Z" fill="#A2D2FF"/>
<path d="M635.74 357.66L672.57 362.29L671.75 367.75L661.13 391.53L660.73 392.07L659.59 396.07L657.12 400.42L654.38 403.02L651.11 402.96L648.21 403.13V406.34L614.16 406.5V403.36L611.82 403.09L609.55 398.95L608.88 396.48L603.47 396.14L602 394.54L602.54 392.27L608.68 389.66L611.35 385.25L613.49 383.65L615.36 383.31L618.17 384.32L619.71 382.11L622.24 381.18L622.91 381.04L630.8 372.56L635.74 357.66Z" fill="#FFB4A2"/>
<path d="M760.27 372.62L797.19 367.28L799.2 373.38L805.97 380.42L807.93 379.62L814.97 379.17L817.19 380.69L817.37 383.72L822.54 389.24L822.18 391.82L824.5 396.01L823.78 398.5L821.2 398.86H820.22L816.93 406.43H778.98L778.89 404.29L775.15 402.24L770.78 397.52L768.91 391.73L760.27 372.62Z" fill="#FFB4A2"/>
<path d="M681.44 298.87L690.92 296.8L709.03 295.19L720.39 295.33L735.75 296.13L748.96 298.42L747.51 303.54L743.24 309.76L735.82 315.04L726.4 318.24L714.64 319.85L701.41 318.24L689.52 313.1L683.78 306.62L681.64 300.34L681.44 298.87Z" fill="#FFB4A2"/>
<path d="M711.7 310.56L720.25 310.49L729.81 308.02L738.09 301.61L741.16 296.66L749.58 298.87L747.91 308.76L739.36 320.71L694.8 324.46L682.44 315.04L677.96 302.48L678.23 299.76L689.39 296.86L691.59 301.21L698.14 307.02L705.29 309.69L711.7 310.56Z" fill="#CDB4DB"/>
<path d="M630.57 372.94C630.57 372.94 643.75 327.87 657.65 312.72C671.55 297.57 693.1 295.26 713.59 295.26C736.39 295.26 755.72 295.17 772.03 313.43C789.74 333.27 794.36 358.43 798.99 373.39" stroke="black" stroke-miterlimit="10"/>
<path d="M675.65 338.91C675.65 338.91 662.82 436.72 659.97 451.68H769.71C769.71 451.68 754.92 346.39 754.39 338.55" stroke="black" stroke-miterlimit="10"/>
<path d="M761.88 394.85L667.27 400.02" stroke="black" stroke-miterlimit="10"/>
<path d="M672.15 365.74C672.15 365.74 661.91 390.35 660.66 391.95" stroke="black" stroke-miterlimit="10"/>
<path d="M654 403.04C658.34 400.47 660.03 395.86 660.66 391.95" stroke="black" stroke-miterlimit="10"/>
<path d="M622.96 381.09C625.45 377.97 630.7 372.83 630.7 372.83" stroke="black" stroke-miterlimit="10"/>
<path d="M758 367.08C758 367.08 765.82 387.26 769.22 392.33" stroke="black" stroke-miterlimit="10"/>
<path d="M778.78 404.43C772.71 401.41 769.97 396.31 769.15 392.22" stroke="black" stroke-miterlimit="10"/>
<path d="M798.85 373.09C800.15 374.34 804.25 378.45 805.8 380.37" stroke="black" stroke-miterlimit="10"/>
<path d="M797.42 367.32L760.18 372.58" stroke="black" stroke-miterlimit="10"/>
<path d="M672.44 362.43L635.65 357.53" stroke="black" stroke-miterlimit="10"/>
<path d="M689.43 296.98C692.12 303.1 698.71 310.94 714.82 310.83C731.17 310.72 738.14 302.71 741.08 296.66" stroke="black" stroke-miterlimit="10"/>
<path d="M651.15 403.13C651.15 403.13 646.36 394.53 644.09 394C641.82 393.47 638.54 393.4 634.54 384.78C634.54 384.78 631.91 379.26 627.73 381.41C626.6 381.99 625.86 383.13 625.7 384.39C625.25 387.95 624.39 396.25 625.85 397.4C626.69 398.06 627.6 398.18 628.34 398.11C629.25 398.03 630.02 397.39 630.32 396.52L632.66 389.78" stroke="black" stroke-miterlimit="10"/>
<path d="M625.92 382.78L625.01 382.13C623.93 381.36 622.57 381.1 621.29 381.43C620.24 381.7 619.34 382.38 618.81 383.33L618.18 384.45L617.52 392.14C617.47 392.69 617.66 393.23 618.05 393.63C618.73 394.34 619.68 394.72 620.66 394.67L621.24 394.64C621.75 394.62 622.22 394.34 622.48 393.9L625.19 389.45" stroke="black" stroke-miterlimit="10"/>
<path d="M618.17 384.45L615.8 383.66C615.38 383.52 614.93 383.47 614.49 383.52C613.3 383.64 612.23 384.28 611.56 385.27L609.21 388.71C608.71 389.44 608.55 390.36 608.79 391.22L608.83 391.37C609.03 392.11 609.57 392.72 610.27 393.01C610.88 393.27 611.56 393.27 612.18 393.03L615.9 391.54" stroke="black" stroke-miterlimit="10"/>
<path d="M614.56 392.33C614.56 392.33 615.63 395 616.1 395.47" stroke="black" stroke-miterlimit="10"/>
<path d="M608.7 389.82L603.26 392.03C602.8 392.22 602.45 392.62 602.31 393.1L602.17 393.59C602.02 394.11 602.09 394.67 602.36 395.14C602.8 395.89 603.6 396.34 604.46 396.34H611.21" stroke="black" stroke-miterlimit="10"/>
<path d="M608.88 396.41C608.88 396.41 609.86 400.28 611.86 403.22" stroke="black" stroke-miterlimit="10"/>
<path d="M778.11 404.23C778.11 404.23 781.38 396.73 785.21 394.14C789.04 391.56 788.06 396.1 794.65 385.77L797.02 382.65C797.81 381.6 799.11 381.07 800.41 381.24L801.95 381.45C802.9 381.58 803.66 382.32 803.8 383.27L805 391.36C805.16 392.43 804.81 393.52 804.07 394.31C803.69 394.71 803.17 394.96 802.62 394.99H802.45C801.47 395.07 800.51 394.68 799.85 393.96C799.37 393.43 799.03 392.79 798.86 392.09L797.87 388.07" stroke="black" stroke-miterlimit="10"/>
<path d="M803.46 382.41L805 381.16C805.68 380.45 806.6 380.03 807.57 379.97L814.6 379.53C815.44 379.48 816.25 379.84 816.76 380.51L817.05 380.88C817.31 381.22 817.45 381.64 817.43 382.08L817.4 382.96C817.38 383.5 817.09 383.98 816.62 384.25L811.83 387.04C811.27 387.37 810.86 387.92 810.72 388.55L809.43 394.15" stroke="black" stroke-miterlimit="10"/>
<path d="M817.37 383.8L821.92 388.58C822.32 389 822.53 389.56 822.51 390.13L822.49 390.89C822.47 391.55 821.93 392.09 821.27 392.1L816.93 392.17L814.35 391.55" stroke="black" stroke-miterlimit="10"/>
<path d="M816.93 392.18L815.32 395.38" stroke="black" stroke-miterlimit="10"/>
<path d="M822.2 391.77L824.07 395.21C824.55 396.1 824.54 397.17 824.04 398.05C823.72 398.61 823.12 398.97 822.47 398.98H821.97C820.86 399.02 819.79 398.56 819.04 397.73L817.9 396.45" stroke="black" stroke-miterlimit="10"/>
<path d="M820.43 398.68C820.43 398.68 817.39 405.68 816.86 406.4" stroke="black" stroke-miterlimit="10"/>
<path d="M766.42 451.86L776.97 601.33L724.64 602.6L715.42 451.46L703.96 600.69L650.71 601.78L663 451.82" stroke="black" stroke-miterlimit="10"/>
<path d="M700.31 266.83L721.5 266.82L720.09 262.29L720.32 261.45L724.86 266.82L729.31 266.73L730.61 269.61L731.78 275.12L731.38 280.76L729.47 285.91L726.83 289.48L722.76 292.89L717.95 294.76L713.31 294.96L709.53 294.12L703.68 290.35L700.11 286.04L698.11 279.56L697.87 273.01L699.58 267.9L700.31 266.83Z" fill="#FFB4A2"/>
<path d="M698.67 270.54L696.1 270.37L693.2 271.31L691.73 273.41L691.43 276.22L692.43 278.46L693.9 279.36L696.24 279.93L698.11 279.56L697.84 275.28L698.67 270.54Z" fill="#FFB4A2"/>
<path d="M731.01 270.57H733.72L736.92 272.04L738.06 273.85L738.09 276.42L737.19 278.49L734.72 279.86H732.25H731.38L731.91 275.08L731.01 270.57Z" fill="#FFB4A2"/>
<path d="M698.67 270.54L700.31 266.83L721.5 266.82L720.09 262.29L720.05 261.25L724.86 266.82L729.57 266.9L731.04 270.44L733.72 270.57L733.01 268.1L728.8 262.46L724.96 259.62L719.38 257.95L721.19 256.04L722.26 252.77L721.72 248.96L719.62 246.36L716.01 244.85L713.67 244.95L710.63 246.69L708.8 249.26L708.33 252.03L709.3 255.34L710.97 257.71L706.06 259.35L701.85 261.92L698.81 264.9L696.57 268.07L695.83 270.51L698.67 270.54Z" fill="#14213D"/>
<path d="M707.03 274.92L707.89 274.48L708.7 275.02L708.56 276.02L707.56 276.29L706.89 275.65L707.03 274.92Z" fill="#14213D"/>
<path d="M720.32 275.35L720.99 274.32L722.02 274.52L722.36 275.59L721.89 276.15L721.06 276.35L720.32 275.35Z" fill="#14213D"/>
<path d="M711.42 257.69C712.53 257.44 713.68 257.31 714.84 257.31C716.29 257.31 717.69 257.5 719.03 257.89" stroke="black" stroke-miterlimit="10"/>
<path d="M729.5 266.83C730.97 269.6 731.8 272.82 731.8 276.25C731.8 286.61 724.21 295 714.83 295C705.45 295 697.86 286.61 697.86 276.25C697.86 272.83 698.69 269.64 700.13 266.89" stroke="black" stroke-miterlimit="10"/>
<path d="M731.22 270.6C731.22 270.6 738 269.48 738.11 275.26C738.23 281.03 731.75 279.8 731.75 279.8" stroke="black" stroke-miterlimit="10"/>
<path d="M698.4 270.6C698.4 270.6 691.62 269.48 691.51 275.26C691.39 281.03 697.87 279.8 697.87 279.8" stroke="black" stroke-miterlimit="10"/>
<path d="M700.11 266.88L721.5 266.82C721.5 266.82 720.03 262.93 720.03 261.16L724.86 266.82H729.52" stroke="black" stroke-miterlimit="10"/>
<path d="M695.81 270.42C699.23 259.64 710.73 257.82 710.73 257.82" stroke="black" stroke-miterlimit="10"/>
<path d="M719.7 258.11C719.7 258.11 729.63 258.69 733.99 270.54" stroke="black" stroke-miterlimit="10"/>
<path d="M719.03 258.09C721.01 256.84 722.32 254.58 722.32 252.01C722.32 248.06 719.21 244.85 715.37 244.85C711.53 244.85 708.42 248.06 708.42 252.01C708.42 254.45 709.61 256.6 711.42 257.89" stroke="black" stroke-miterlimit="10"/>
<path d="M707.76 276.29C708.279 276.29 708.7 275.869 708.7 275.35C708.7 274.831 708.279 274.41 707.76 274.41C707.241 274.41 706.82 274.831 706.82 275.35C706.82 275.869 707.241 276.29 707.76 276.29Z" stroke="black" stroke-miterlimit="10"/>
<path d="M704.69 272.41L710.24 271.88L709.85 271.74C708.12 271.12 706.2 271.37 704.69 272.41Z" stroke="black" stroke-linecap="round" stroke-linejoin="round"/>
<path d="M721.26 276.29C721.779 276.29 722.2 275.869 722.2 275.35C722.2 274.831 721.779 274.41 721.26 274.41C720.741 274.41 720.32 274.831 720.32 275.35C720.32 275.869 720.741 276.29 721.26 276.29Z" stroke="black" stroke-miterlimit="10"/>
<path d="M724.33 272.41L718.78 271.88L719.17 271.74C720.9 271.12 722.82 271.37 724.33 272.41Z" stroke="black" stroke-linecap="round" stroke-linejoin="round"/>
<path d="M713.1 277.82L712.74 279.81C712.65 280.3 712.97 280.77 713.46 280.87C713.99 280.97 714.55 280.81 714.94 280.44" stroke="black" stroke-linecap="round" stroke-linejoin="round"/>
<path d="M711.5 286.17C711.5 286.17 713.44 288.17 716.71 286.84" stroke="black" stroke-linecap="round" stroke-linejoin="round"/>
<path d="M695.63 272.21C695.63 272.21 693.69 272.61 693.29 273.81" stroke="black" stroke-width="0.7" stroke-linecap="round" stroke-linejoin="round"/>
<path d="M734.75 272.32C734.75 272.32 736.53 273.41 736.49 274.48" stroke="black" stroke-width="0.7" stroke-linecap="round" stroke-linejoin="round"/>
<path opacity="0.25" d="M914.67 242H520.76V354.42H914.67V242Z" fill="#63B4B8"/>
<path opacity="0.5" d="M914.67 242H520.76V354.42H914.67V242Z" stroke="#48CAE4" stroke-miterlimit="10"/>
<path d="M915 349.13V354.41H521.1V349.13" fill="#003049"/>
<path d="M532.23 254.28V334.81" stroke="#48CAE4" stroke-miterlimit="10"/>
<path d="M545.95 297.93L546.13 334.28" stroke="#48CAE4" stroke-miterlimit="10"/>
<path d="M759.56 254.11L759.74 281.9" stroke="#48CAE4" stroke-miterlimit="10"/>
<path d="M796.44 277.62L796.26 334.45" stroke="#48CAE4" stroke-miterlimit="10"/>
<path d="M651.06 255H538.82V259.63H651.06V255Z" fill="#A197FC"/>
<path d="M663.09 266.13H574.19V270.76H663.09V266.13Z" fill="#63B4B8"/>
<path d="M675.2 276.82H598.24V281.45H675.2V276.82Z" fill="#E78895"/>
<path d="M634.85 287.6H563.05V292.23H634.85V287.6Z" fill="#FFD28F"/>
<path d="M620.86 298.38H552.45V303.01H620.86V298.38Z" fill="#A197FC"/>
<path d="M630.31 309.25H583.9V313.88H630.31V309.25Z" fill="#FFD28F"/>
<path d="M661.58 319.93H606.17V324.56H661.58V319.93Z" fill="#63B4B8"/>
<path d="M627.64 330.8H591.74V335.43H627.64V330.8Z" fill="#E78895"/>
<path d="M878.48 255.17H767V259.8H878.48V255.17Z" fill="#E78895"/>
<path d="M857.91 265.82H766.6V270.45H857.91V265.82Z" fill="#63B4B8"/>
<path d="M885.34 276.78H802.05V281.41H885.34V276.78Z" fill="#A197FC"/>
<path d="M867.71 287.55H802.5V292.18H867.71V287.55Z" fill="#FFD28F"/>
<path d="M882.22 298.33H813.27V302.96H882.22V298.33Z" fill="#E78895"/>
<path d="M859.15 309.2H813.36V313.83H859.15V309.2Z" fill="#FFD28F"/>
<path d="M867.79 320.07H813.27V324.7H867.79V320.07Z" fill="#63B4B8"/>
<path d="M838.13 330.76H802.23V335.39H838.13V330.76Z" fill="#E78895"/>
<path d="M576.59 413.2L578.2 410.44L581.67 407.77L587.1 406.25L652.49 406.52L848.55 406.61L851.31 407.05L856.48 409.37L859.86 413.11L859.77 418.81L576.5 418.9L576.59 413.2Z" fill="#415A77"/>
<path d="M604.03 406.43L604.07 403.22L614.16 403.36V406.5L604.03 406.43Z" fill="#415A77"/>
<path d="M619.62 403.45V406.56L614.16 406.5V403.36L619.62 403.45Z" fill="#8D99AE"/>
<path d="M636.27 406.46V403.26L641.72 403.29L641.62 406.03L636.27 406.46Z" fill="#8D99AE"/>
<path d="M659.09 403.09L662.1 403.19L662.2 406.3L659.02 406.26L659.09 403.09Z" fill="#8D99AE"/>
<path d="M681.5 403.19H683.41L683.24 406.26L681.54 406.2L681.5 403.19Z" fill="#8D99AE"/>
<path d="M703.18 403.06L704.75 402.89V406.06L703.35 406.13L703.18 403.06Z" fill="#8D99AE"/>
<path d="M735.95 403.02L737.29 402.99L737.32 406.33L736.05 406.2L735.95 403.02Z" fill="#8D99AE"/>
<path d="M757.67 402.99H759.5L759.6 406.2L757.73 406.23L757.67 402.99Z" fill="#8D99AE"/>
<path d="M778.81 402.86H781.38L781.48 406.2H779.01L778.81 402.86Z" fill="#8D99AE"/>
<path d="M799.86 402.82H803.6L803.63 406.33L799.99 406.23L799.86 402.82Z" fill="#8D99AE"/>
<path d="M820.83 402.86H826.05L826.01 406.06L821 406L820.83 402.86Z" fill="#8D99AE"/>
<path d="M626.05 406.43L625.99 403.16L636.27 403.26V406.46L626.05 406.43Z" fill="#415A77"/>
<path d="M648.37 403.22L659.02 403.26L659.06 406.4L648.21 406.34L648.37 403.22Z" fill="#415A77"/>
<path d="M670.35 403.06L681.5 403.19L681.54 406.2L670.31 406.13L670.35 403.06Z" fill="#415A77"/>
<path d="M693.1 403.19L703.52 403.29L703.62 406.4H693.06L693.1 403.19Z" fill="#415A77"/>
<path d="M715.08 402.96L726.07 403.19L726.13 406.36L715.31 406.13L715.08 402.96Z" fill="#415A77"/>
<path d="M737.29 402.99H748.35L748.31 406.2L737.29 406.13V402.99Z" fill="#415A77"/>
<path d="M759.54 402.86L770.56 402.82V406.23L759.44 406.13L759.54 402.86Z" fill="#415A77"/>
<path d="M781.38 402.86L792.51 402.96V406.26L781.48 406.2L781.38 402.86Z" fill="#415A77"/>
<path d="M803.6 402.82L814.75 402.76L814.82 406.13H803.83L803.6 402.82Z" fill="#415A77"/>
<path d="M826.05 402.86L836.97 402.82V405.7L825.98 405.86L826.05 402.86Z" fill="#415A77"/>
<path d="M859.82 413.38H576.37V418.95H859.82V413.38Z" stroke="#0A0A0A" stroke-miterlimit="10"/>
<path d="M576.37 413.38C576.97 412.19 578.19 410.62 579.13 409.68C581.37 407.43 585.37 406.52 588.8 406.52H847.39C852.24 406.52 857.78 409.31 859.82 413.38" stroke="#0A0A0A" stroke-miterlimit="10"/>
<path d="M859.82 418.95H576.37" stroke="#0A0A0A" stroke-miterlimit="10"/>
<path d="M604.03 406.43V403.22L619.57 403.31V406.34L604.03 406.43Z" stroke="#0A0A0A" stroke-miterlimit="10"/>
<path d="M626.12 406.39V403.18L641.66 403.27V406.3L626.12 406.39Z" stroke="#0A0A0A" stroke-miterlimit="10"/>
<path d="M614.23 406.52V403.13" stroke="#0A0A0A" stroke-miterlimit="10"/>
<path d="M626.12 406.39V403.18L641.66 403.27V406.3L626.12 406.39Z" stroke="#0A0A0A" stroke-miterlimit="10"/>
<path d="M636.32 403.09V406.47" stroke="#0A0A0A" stroke-miterlimit="10"/>
<path d="M648.21 406.34V403.13L662.2 403.22V406.25L648.21 406.34Z" stroke="#0A0A0A" stroke-miterlimit="10"/>
<path d="M659.03 402.96V406.34" stroke="#0A0A0A" stroke-miterlimit="10"/>
<path d="M670.3 406.3V403.09L683.26 403.18V406.21L670.3 406.3Z" stroke="#0A0A0A" stroke-miterlimit="10"/>
<path d="M681.62 402.87V406.25" stroke="#0A0A0A" stroke-miterlimit="10"/>
<path d="M693.04 406.25V403.05L704.64 403.13V406.16L693.04 406.25Z" stroke="#0A0A0A" stroke-miterlimit="10"/>
<path d="M703.44 403.05V406.43" stroke="#0A0A0A" stroke-miterlimit="10"/>
<path d="M715.2 406.21V403L726.11 403.09V406.12L715.2 406.21Z" stroke="#0A0A0A" stroke-miterlimit="10"/>
<path d="M736.06 406.16V402.96L748.38 403.05V406.07L736.06 406.16Z" stroke="#0A0A0A" stroke-miterlimit="10"/>
<path d="M737.27 403.02V406.41" stroke="#0A0A0A" stroke-miterlimit="10"/>
<path d="M757.71 406.12V402.91L770.45 403V406.03L757.71 406.12Z" stroke="#0A0A0A" stroke-miterlimit="10"/>
<path d="M759.51 402.98V406.36" stroke="#0A0A0A" stroke-miterlimit="10"/>
<path d="M778.98 406.07V402.87L792.43 402.96V405.98L778.98 406.07Z" stroke="#0A0A0A" stroke-miterlimit="10"/>
<path d="M781.41 402.91V406.3" stroke="#0A0A0A" stroke-miterlimit="10"/>
<path d="M799.85 406.03V402.82L814.9 402.91V405.94L799.85 406.03Z" stroke="#0A0A0A" stroke-miterlimit="10"/>
<path d="M803.72 403.16V406.54" stroke="#0A0A0A" stroke-miterlimit="10"/>
<path d="M820.96 405.99V402.78L837.01 402.87V405.9L820.96 405.99Z" stroke="#0A0A0A" stroke-miterlimit="10"/>
<path d="M825.99 402.84V406.23" stroke="#0A0A0A" stroke-miterlimit="10"/>
<path d="M826.77 409.64H837.15" stroke="#0A0A0A" stroke-miterlimit="10"/>
</g>
<path d="M414.43 594.29L646.8 114.79C656.59 92.01 637.79 70.74 615.36 74.61C612.16 75.16 609.09 76.31 606.22 77.82L-11.86 402.29L-13 616L406.43 609.71L414.43 594.28V594.29Z" fill="url(#paint1_linear_2000_2143)"/>
<mask id="mask2_2000_2143" style="mask-type:luminance" maskUnits="userSpaceOnUse" x="-13" y="74" width="663" height="542">
<path d="M414.43 594.29L646.8 114.79C656.59 92.01 637.79 70.74 615.36 74.61C612.16 75.16 609.09 76.31 606.22 77.82L-11.86 402.29L-13 616L406.43 609.71L414.43 594.28V594.29Z" fill="white"/>
</mask>
<g mask="url(#mask2_2000_2143)">
<path d="M329.81 336.09L333 330.97L339.68 323.51L343.72 319.59L349.86 315.44L357.86 310.87L364.72 308.58L372.01 306.77L388.08 305.33L396.45 304.97L407.58 305.75L417.27 308.04L425.58 311.71L434.13 318.39L439.72 325.19L441.29 327.9L408.12 345.6L417.69 363.47L417.21 365.34L416.19 366L380.19 370.1L377.73 370.4L373.75 370.1L367.01 368.95L365.57 369.49L364.9 370.94L365.02 372.32L368.21 375.39L365.69 376.72L361.11 380.63L358.52 383.58L357.92 385.44L358.52 388.03L360.21 389.24L362.2 389.3L365.93 387.49L369.36 384.72L373.69 383.1L374.54 387.73L377.97 393.75L381.16 397.12L384.23 398.93L374.29 399.17L374.05 397.48L372.73 396.16L370.74 395.32L355.39 395.38L347.51 367.45L349.56 346.8L329.81 336.09Z" fill="#457B9D"/>
<path d="M445.26 402.66L449.84 415.12L451.7 426.5L451.58 433.84L450.38 438.41L447.73 442.63L442.25 449.01L435.33 454.24L431.84 455.51L365.51 455.87L361.71 466.64L336.43 541.7L286.59 540.98L312.66 461.17L325.6 424.15L330.05 417.11L335.11 412.65L420.46 412.83L420.7 402.36L445.26 402.66Z" fill="#1D3557"/>
<path d="M296.83 412.95L293.76 415.42L291.47 418.01L289.96 420.54L288.46 424.81L288.22 430.17L290.39 438.17L295.56 447.14L303.87 457.92L311.09 465.86L345.88 515.16L361.41 540.2L412.7 539.3L382.24 494.57L363.88 468.93L361.77 466.22L362.56 412.65L296.83 412.95Z" fill="#1D3557"/>
<path d="M362.48 540.3L411.71 539.5L423.87 567.03L423.75 567.59L357.18 569.71L356.98 568.79V565.3L358.22 563.86L368.21 560.44L369.02 559.68L369.38 558.4L362.48 540.3Z" fill="#8D99AE"/>
<path d="M332.78 541.78L327.4 568.99L257.26 569.39L256.62 569.07L257.42 563.78L259.59 562.41L272.99 558.8L274.76 557.52L288.08 541.22L332.78 541.78Z" fill="#8D99AE"/>
<path d="M349.56 346.8L347.51 367.45L345.58 360.65L343.36 357.58L341.01 357.09L295.02 356.43L292.67 357.58L291.89 359.38L294.78 370.04L263.9 331.45L260.95 328.2L255.23 321.34L247.41 310.02L244.04 304.18V301.66L245.9 300.03L248.37 300.33L260.41 309.48L257.88 300.69L258.3 298.47L260.59 296.72L264.32 297.32L265.77 298.95L271.3 310.44L274.49 299.49L276.12 297.62L278.35 297.02L280.57 297.8L281.6 299.85L281.3 316.28L282.98 314.42L284.85 310.08L289.6 298.23L291.59 297.32L293.88 297.5L295.32 298.95L295.74 305.81L295.56 321.94L296.16 323.15L314.64 340.3L323.73 348.79L326.56 341.32L329.81 336.09L349.56 346.8Z" fill="#FFB4A2"/>
<path d="M382.06 370.1L377.73 370.4L371.1 369.55L367.01 368.95L365.57 369.49L364.9 370.94L365.02 372.32L368.46 375.63L365.45 377.14L362.92 379.12L359.31 382.62L358.04 384.36L358.16 386.95L359.61 388.82L362.2 389.3L365.87 387.73L369.78 384.54L373.69 383.1L374.47 387.01L376.76 391.95L380.43 396.4L382.18 398.02L384.11 398.69L444.36 399.23L455.43 398.87L459.89 397.36L462.54 394.96L465.49 391.46L467.65 385.87L468.25 378.88L463.74 366.12L455.67 351.13L445.5 334.76L441.05 327.96L408.12 345.6L417.51 363.11L417.69 364.74L416.97 365.76L414.98 366.18L382.06 370.1Z" fill="#FFB4A2"/>
<path d="M396.02 305.03L395.48 310.02L394.58 314.18L393.13 318.15L390.55 320.92L388.26 322.66L383.74 323.99L378.93 324.23L374.23 323.27L370.74 320.8L369.12 317.73L368.58 313.09L369.36 307.31L379.23 305.99L388.08 305.33L396.02 305.03Z" fill="#FFB4A2"/>
<path d="M420.5 399.17H243.13V412.81H420.5V399.17Z" fill="#F1FAEE"/>
<path d="M446.83 443.95L457.24 443.89L459.35 446.72L459.41 447.98L445.62 462.31H363.16L365.51 455.87L431.18 455.63L432.92 455.33L436.65 453.4L439.72 451.24L443.27 447.86L446.83 443.95Z" fill="#8D99AE"/>
<path d="M451.7 426.5L459.51 426.05L461.91 427.02L463.6 428.62L465.04 431.43V433.92L464.48 437.05L462.88 440.5L460.31 443.31L458.32 445.28L457.24 443.89L446.83 443.95L448.99 440.94L450.44 437.87L451.58 433.84L451.7 428.78V426.5Z" fill="#F1FAEE"/>
<path d="M420.5 399.17L443.88 399.29L445.26 402.42L420.7 402.36L420.5 399.17Z" fill="#457B9D"/>
<path d="M303.63 399.29L291.95 359.86L292.67 357.58L294.6 356.37L341.19 356.79L344.02 358.24L345.34 360.16L355.39 395.38L370.74 395.32L372.73 396.16L374.05 397.48L374.29 399.17L303.63 399.29Z" fill="#E2F1FE"/>
<path d="M361.89 283.72L364.18 279.3L368.24 274.78L373.51 272.07L378.42 270.9L384.35 270.57L389.61 271.8L392.98 273.94L398.34 279.66L401.38 286.34L402.31 289.47L402.68 291.82L408.27 300.18L413.48 305.27L416.34 307.74L408.72 306.11L396.23 305.06L382.69 305.63L373.51 306.62L363.52 308.76L361.17 309.48L363.58 305.87L366.08 299.82L367.01 295.19L366.02 290.79L366.56 285.98L366.98 284.17L366.47 283.9L361.89 283.72Z" fill="#E63946"/>
<path d="M366.98 284.17L366.11 288.08L366.41 293.29L369.12 299.04L372.64 302.62L378.24 305.09L383.51 305.24L389.23 303.37L393.59 300.21L395.91 296.84L396.15 296.18C396.15 296.18 398.08 296.12 398.2 296.15C398.32 296.18 400.85 294.71 400.85 294.71L402.08 292.06L402.47 289.74L401.27 286.91L398.68 285.16L395.64 285.34L393.23 286.45L386.52 286.69L386.85 283.47L379.39 284.22L379.75 280.73L377.07 281.3L376.14 283.95L372.32 283.92L373.64 279.65L371.11 280.28L369.24 283.8L366.98 284.16V284.17Z" fill="#FFB4A2"/>
<path d="M372.93 289.92L373.59 289.82L373.99 290.44L373.59 290.98L372.69 290.78L372.93 289.92Z" fill="#8D99AE"/>
<path d="M380.51 289.96L381.32 289.64L381.76 290.18L381.42 290.84L380.69 290.72L380.53 290.08L380.51 289.96Z" fill="#8D99AE"/>
<path d="M373.63 383.52C374.67 390.24 378.58 394.83 381.08 397.15C382.26 398.24 383.81 398.83 385.41 398.81C395.81 398.71 440.78 399.7 453.68 399.17C459.24 398.94 462.77 395.57 465.04 392.07C468.51 386.73 469.11 380 466.91 374.02C460.8 357.41 446.81 335.96 438.79 324.34C432.46 315.18 422.85 308.75 411.93 306.59C396.53 303.55 381.21 305.98 381.21 305.98C338.05 307.11 323.69 346.79 323.85 349C323.85 349.02 323.82 349.03 323.8 349.02L296.28 323.22C295.86 322.82 295.62 322.27 295.64 321.69C295.73 317.65 296.05 301.39 295.26 299.12C294.7 297.51 293.28 297.21 292.04 297.29C290.8 297.37 289.68 298.17 289.15 299.32C287.21 303.6 285.51 307.98 284.06 312.45C283.67 313.66 283 314.76 282.1 315.65L281.06 316.69" stroke="black" stroke-miterlimit="10"/>
<path d="M374.96 382.8L371.52 383.75C370.61 384 369.77 384.43 369.04 385.03L367.1 386.6C365.77 387.68 364.28 388.54 362.68 389.17C360.95 389.85 358.99 389.01 358.29 387.28C357.67 385.74 358.03 383.98 359.2 382.8L362.25 379.75C364.04 377.96 366.18 376.55 368.53 375.61L372.79 373.91L382.3 370.06" stroke="black" stroke-miterlimit="10"/>
<path d="M368.46 375.69L365.41 372.81C364.68 372.12 364.59 370.99 365.21 370.2L365.64 369.65C366.03 369.15 366.67 368.9 367.3 369.01L373.9 370.13C375.87 370.47 377.87 370.51 379.86 370.27C387.42 369.35 407.34 366.94 415.94 366.08C417.34 365.94 418.14 364.43 417.48 363.19C414.12 356.94 405.8 341.5 404.08 338.73" stroke="black" stroke-miterlimit="10"/>
<path d="M351 330.55C351 330.55 347.93 361.85 347.69 368.35" stroke="black" stroke-miterlimit="10"/>
<path d="M440.93 328.02L407.94 345.72" stroke="black" stroke-miterlimit="10"/>
<path d="M349.43 346.8C349.43 346.8 331.31 336.99 329.63 336.15" stroke="black" stroke-miterlimit="10"/>
<path d="M395.9 305.15C395.9 305.15 396.42 320.96 385.83 323.53C370.6 327.22 369.02 316.94 369.02 316.94C368.01 314.11 368.99 309.32 369.49 307.25" stroke="black" stroke-miterlimit="10"/>
<path d="M269.98 316.1L274.37 299.98C274.83 298.28 276.4 297.1 278.16 297.14C280.09 297.18 281.62 298.78 281.56 300.7L281.07 318.99C281.07 319.28 281.24 319.54 281.51 319.64C283.12 320.25 288.61 322.43 290.45 324.17" stroke="black" stroke-miterlimit="10"/>
<path d="M271.43 310.81L265.71 299.15C265.15 298.01 264.05 297.24 262.79 297.09L261.55 296.95C260.3 296.81 259.06 297.37 258.34 298.4C257.71 299.3 257.55 300.45 257.9 301.49C259.12 305.1 261.94 313.67 262.39 317.06" stroke="black" stroke-miterlimit="10"/>
<path d="M260.59 309.6L249.57 301C248.55 300.2 247.21 299.92 245.95 300.25C244.13 300.72 243.26 302.79 244.18 304.42C247.4 310.11 254.67 322.1 263.11 330.55L295.09 370.44" stroke="black" stroke-miterlimit="10"/>
<path d="M303.57 399.05L292.16 360.68C291.55 358.63 293.1 356.58 295.23 356.6L340.24 357C342.77 357.02 344.98 358.7 345.68 361.13L356.66 399.17" stroke="black" stroke-miterlimit="10"/>
<path d="M355.57 395.32H370.26C372.41 395.32 374.17 397.03 374.23 399.17" stroke="black" stroke-miterlimit="10"/>
<path d="M420.5 399.17H243.13V412.81H420.5V399.17Z" stroke="black" stroke-miterlimit="10"/>
<path d="M443.86 399.41C443.86 399.41 458.87 429.02 447.55 442.99C437.85 454.96 432.16 455.73 430.73 455.7L429.38 455.67L365.4 455.91" stroke="black" stroke-miterlimit="10"/>
<path d="M420.58 402.46L445.3 402.62" stroke="black" stroke-miterlimit="10"/>
<path d="M368.66 446.04L336.48 541.79L286.64 541.23C286.64 541.23 322.6 429.83 325.73 423.81C328.02 419.41 330.04 416.23 335.18 412.77" stroke="black" stroke-miterlimit="10"/>
<path d="M297.07 412.89C297.07 412.89 284.55 420.04 289.2 434.64C292.71 445.66 305.24 459.8 311.16 466.06" stroke="black" stroke-miterlimit="10"/>
<path d="M345.54 514.74L361.51 540.34L412.79 539.3C412.79 539.3 368.65 474.13 361.91 466.59" stroke="black" stroke-miterlimit="10"/>
<path d="M288.08 541.38L274.75 557.49C273.92 558.5 272.79 559.21 271.52 559.53L259.9 562.46C258.49 562.82 257.43 563.98 257.22 565.42L256.7 568.88C256.65 569.19 256.89 569.47 257.21 569.47L327.4 569.15L332.86 541.7" stroke="black" stroke-miterlimit="10"/>
<path d="M362.64 540.66L369.16 558.17C369.5 559.09 369.02 560.11 368.1 560.43L358.82 563.69C357.61 564.12 356.82 565.29 356.88 566.57L357 569.12C357.01 569.4 357.25 569.62 357.53 569.61L423.56 567.56C423.86 567.56 424.06 567.23 423.94 566.96L411.6 539.37" stroke="black" stroke-miterlimit="10"/>
<path d="M363.28 462.09L445.62 462.25L459.07 448.42C459.51 447.97 459.59 447.27 459.25 446.73L457.57 444.03L446.82 443.95" stroke="black" stroke-miterlimit="10"/>
<path d="M451.88 426.22H458.78C460.99 426.22 462.99 427.49 463.93 429.49L464.47 430.64C464.89 431.54 465.11 432.52 465.09 433.51C465.05 436.71 463.76 439.77 461.5 442.04L458.45 445.09" stroke="black" stroke-miterlimit="10"/>
<path d="M367.11 283.89C366.49 285.6 366.16 287.47 366.16 289.43C366.16 298.05 372.53 305.25 381.46 305.25C388.05 305.25 393.71 301.44 396.22 295.99" stroke="black" stroke-miterlimit="10"/>
<path d="M393.1 286.51C393.1 286.51 397.02 283.93 400.26 286.13C403.5 288.33 402.4 292.77 400.83 294.53C398.97 296.61 395.58 296.44 394.34 295.87" stroke="black" stroke-miterlimit="10"/>
<path d="M393.26 286.39L386.61 286.6L386.81 283.53L379.31 284.19L379.68 280.77L377.16 281.38L376.25 283.86H372.27L373.59 279.68L371.09 280.27L369.2 283.9L361.81 283.86C361.81 283.86 364.73 275.84 372.59 272.47C379.81 269.38 387.54 270.55 391.15 272.77C393.79 274.39 399.73 279.47 401.41 287.03" stroke="black" stroke-miterlimit="10"/>
<path d="M416.41 307.6C409.05 302.74 403.85 294.48 402.32 290.87" stroke="black" stroke-miterlimit="10"/>
<path d="M367.06 294.99C367.06 294.99 365.14 305.71 360.75 309.92" stroke="black" stroke-miterlimit="10"/>
<path d="M374.99 288.2C373.1 287.49 370.89 288.22 370.89 288.22C371.95 287.29 373.5 287.19 374.67 287.98L374.99 288.2Z" stroke="black" stroke-linecap="round" stroke-linejoin="round"/>
<path d="M373.34 291.04C373.671 291.04 373.94 290.771 373.94 290.44C373.94 290.109 373.671 289.84 373.34 289.84C373.009 289.84 372.74 290.109 372.74 290.44C372.74 290.771 373.009 291.04 373.34 291.04Z" stroke="black" stroke-linecap="round" stroke-linejoin="round"/>
<path d="M379.29 288.09C381.26 287.22 383.66 287.87 383.66 287.87C382.47 286.94 380.81 286.93 379.62 287.84L379.29 288.09Z" stroke="black" stroke-linecap="round" stroke-linejoin="round"/>
<path d="M381.06 290.97C381.413 290.97 381.7 290.683 381.7 290.33C381.7 289.977 381.413 289.69 381.06 289.69C380.707 289.69 380.42 289.977 380.42 290.33C380.42 290.683 380.707 290.97 381.06 290.97Z" stroke="black" stroke-linecap="round" stroke-linejoin="round"/>
<path d="M376.89 291.55L376.64 294.32C376.62 294.6 376.84 294.83 377.12 294.81L378.36 294.74" stroke="black" stroke-linecap="round" stroke-linejoin="round"/>
<path d="M375.78 298.76C375.78 298.76 377.25 300.68 380.31 299.28" stroke="black" stroke-linecap="round" stroke-linejoin="round"/>
<path d="M396.03 287.67C396.03 287.67 398.25 286.85 399.88 287.87" stroke="black" stroke-width="0.7" stroke-miterlimit="10"/>
<path d="M248.07 219.77L245.18 223.35L245.3 283.06L248.07 285.25" fill="#309E9E"/>
<path d="M249.38 219.39H289.43C291.79 219.39 293.7 221.3 293.7 223.66V281.76C293.7 283.84 292.01 285.52 289.94 285.52H249.3C248.47 285.52 247.79 284.84 247.79 284.01V220.97C247.79 220.09 248.5 219.38 249.38 219.38V219.39Z" fill="#A8DADC"/>
<path opacity="0.5" d="M286.16 224.85H255.74C254.055 224.85 252.69 226.216 252.69 227.9V277.02C252.69 278.704 254.055 280.07 255.74 280.07H286.16C287.844 280.07 289.21 278.704 289.21 277.02V227.9C289.21 226.216 287.844 224.85 286.16 224.85Z" stroke="#155D7A" stroke-width="0.5" stroke-miterlimit="10"/>
<path d="M271.91 254.63C273.396 254.63 274.6 253.426 274.6 251.94C274.6 250.454 273.396 249.25 271.91 249.25C270.424 249.25 269.22 250.454 269.22 251.94C269.22 253.426 270.424 254.63 271.91 254.63Z" fill="#00A9FF"/>
<path d="M271.79 265.38C274.314 265.38 276.36 259.291 276.36 251.78C276.36 244.269 274.314 238.18 271.79 238.18C269.266 238.18 267.22 244.269 267.22 251.78C267.22 259.291 269.266 265.38 271.79 265.38Z" stroke="#00A9FF" stroke-width="0.7" stroke-miterlimit="10"/>
<path d="M274.111 255.707C280.583 251.895 284.791 247.041 283.51 244.867C282.229 242.692 275.944 244.019 269.472 247.831C263 251.644 258.792 256.497 260.073 258.672C261.354 260.846 267.639 259.519 274.111 255.707Z" stroke="#00A9FF" stroke-width="0.7" stroke-miterlimit="10"/>
<path d="M282.943 259.555C284.387 257.485 280.564 252.323 274.404 248.026C268.244 243.728 262.079 241.923 260.635 243.993C259.191 246.063 263.014 251.224 269.175 255.522C275.335 259.819 281.499 261.625 282.943 259.555Z" stroke="#00A9FF" stroke-width="0.7" stroke-miterlimit="10"/>
<path d="M278.01 261.04C278.606 261.04 279.09 260.556 279.09 259.96C279.09 259.364 278.606 258.88 278.01 258.88C277.413 258.88 276.93 259.364 276.93 259.96C276.93 260.556 277.413 261.04 278.01 261.04Z" fill="#00A9FF"/>
<path d="M262.28 254.54C262.876 254.54 263.36 254.056 263.36 253.46C263.36 252.864 262.876 252.38 262.28 252.38C261.683 252.38 261.2 252.864 261.2 253.46C261.2 254.056 261.683 254.54 262.28 254.54Z" fill="#00A9FF"/>
<path d="M274.9 242.6C275.497 242.6 275.98 242.116 275.98 241.52C275.98 240.924 275.497 240.44 274.9 240.44C274.304 240.44 273.82 240.924 273.82 241.52C273.82 242.116 274.304 242.6 274.9 242.6Z" fill="#00A9FF"/>
</g>
<path d="M1017.19 593.77L783.36 111.58C781.65 108.05 780.37 104.31 779.79 100.43C777.35 84.11 786.1 72.24 801.99 70.03C809.84 68.93 817.82 70.57 824.82 74.28L1437.63 398.65L1438.39 597.75L1019.08 596.74L1017.18 593.78L1017.19 593.77Z" fill="url(#paint2_linear_2000_2143)"/>
<mask id="mask3_2000_2143" style="mask-type:luminance" maskUnits="userSpaceOnUse" x="779" y="69" width="660" height="529">
<path d="M1017.19 593.77L783.36 111.58C781.65 108.05 780.37 104.31 779.79 100.43C777.35 84.11 786.1 72.24 801.99 70.03C809.84 68.93 817.82 70.57 824.82 74.28L1437.63 398.65L1438.39 597.75L1019.08 596.74L1017.18 593.78L1017.19 593.77Z" fill="white"/>
</mask>
<g mask="url(#mask3_2000_2143)">
<path d="M797.48 529.64L796.87 324.14L1018.01 323.65V529.64" fill="#14213D"/>
<path d="M1021.09 385.82L1024.48 381.13L1028.55 377.61L1032.93 374.53L1036.58 372.8L1042 371.38L1047.56 370.77L1053.36 371.38L1059.53 372.86L1064.71 374.65L1069.03 376.94L1072.05 378.97L1075.57 381.56L1081.62 387.42L1087.11 392.55L1094.31 399.04L1107.47 410.81L1107.1 412.08L1102.53 414.22L1106.77 431L1109.2 438.37L1098.03 446.72L1080.44 459.86L1074.58 464.36L1069.4 468L1062.61 470.78L1056.57 471.95L1022.05 495.18L1020.63 468.22L1018.99 435.09L1017.94 409.73L1017.36 398.01L1018.19 392.24L1021.09 385.82Z" fill="#2A9D8F"/>
<path d="M1109.75 400.94L1137.98 402.91L1137.85 410.35L1132.21 409.08L1125.92 409.36L1109.2 412.54L1107.9 411.89L1107.1 412.08L1109.75 400.94Z" fill="#2A9D8F"/>
<path d="M1128.57 481.64L1234.63 495.52L1228.65 529.15L1079.7 529.97" fill="#CAD9DB"/>
<path d="M1022.05 495.18L1056.57 471.95L1061.56 471.03L1066.31 469.48L1069.77 467.76L1074.58 464.36L1081.8 459L1094.63 449.19L1109.2 438.37L1121.47 429.44L1137.33 418.09L1143.07 414.63L1147.7 413.34L1152.94 413.09L1157.44 413.71L1162.44 414.94L1168.06 417.6L1173.05 421.3L1176.69 425.37L1178.92 429.32L1184.84 447.46L1191.5 468.44L1202.61 503.48L1160.41 508.05L1144.55 465.97L1080.38 529.7L1045.65 529.39L1041.51 528.84L1037.5 527.3L1033.06 524.83L1029.11 520.76L1026.02 515.57L1023.74 509.9L1022.51 503.91L1022.08 498.17L1022.05 495.18Z" fill="#CAD9DB"/>
<path d="M1234.51 496.08L1240.92 496.39L1257.64 483.61L1258.88 483.06L1263.94 483.49L1264.06 484.17L1253.51 529.21L1228.65 529.15L1234.51 496.08Z" fill="#264653"/>
<path d="M1161.95 508.05L1202.61 503.48L1202.92 506.69L1203.78 510.58L1205.45 512.61L1218.22 520.7L1224.76 525.14L1225.38 526.68V529.39L1163.61 529.02L1162.57 525.75L1162.07 514.59L1161.95 508.05Z" fill="#264653"/>
<path d="M1115.57 433.47L1108.83 438.24L1105.95 428.62L1102.53 414.22L1107.9 411.89L1109.2 412.54L1110.96 419.57L1115.49 433.14" fill="#F4A261"/>
<path d="M1109.75 400.94L1111.13 395.55L1137.95 394.97L1137.98 402.91L1109.75 400.94Z" fill="#F4A261"/>
<path d="M1115.9 433.47L1114.42 430.59L1111.85 422.04L1109.01 412.44L1123.32 409.79L1131.31 409.02L1138.35 410.59L1142.39 412.78L1144.09 414.29L1136.44 418.77L1123.79 427.71L1115.9 433.47Z" fill="#FFAB97"/>
<path d="M1111.13 395.55L1121.86 368.07L1123.88 366.71L1125.69 367.08L1126.72 369.43L1125.53 382.34L1138.07 384.69L1136.71 395.14L1111.13 395.55Z" fill="#FFAB97"/>
<path d="M1128.88 343.99L1149.79 347.94L1138.26 384.96L1125.53 382.34L1126.72 369.43L1125.69 367.08L1123.88 366.71L1121.86 368.07L1121.66 366.76L1128.88 343.99Z" fill="#6D6D6D"/>
<path d="M1107.34 410.93L1077.25 383.16C1071.47 377.82 1064.49 373.88 1056.85 372C1040.27 367.92 1029.51 375.5 1023.36 382.69C1018.94 387.86 1016.84 394.6 1017.51 401.37C1018.11 407.41 1019 415.43 1019.97 420.56C1021.7 429.69 1024.91 453.38 1031.32 460.54C1036.4 466.21 1043.03 472.49 1055.85 471.92C1062.09 471.64 1068.08 469.35 1073.05 465.57C1088.81 453.58 1132.42 420.61 1141.88 415.38C1153.48 408.96 1174.7 416.37 1179.39 430.68C1184.08 444.99 1202.59 503.49 1202.59 503.49L1160.47 508.1L1144.51 466.14" stroke="black" stroke-miterlimit="10"/>
<path d="M1057.16 471.73L1022.11 495.26C1021.45 490.49 1017.51 401.37 1017.51 401.37" stroke="black" stroke-miterlimit="10"/>
<path d="M1022.12 495.25C1022.12 495.25 1020.15 528.49 1047.46 529.47C1074.77 530.46 1169.54 529.14 1169.54 529.14" stroke="black" stroke-miterlimit="10"/>
<path d="M1150.62 459.88L1090.89 518.95" stroke="black" stroke-miterlimit="10"/>
<path d="M1128.32 481.77L1151.64 484.85H1151.65" stroke="black" stroke-miterlimit="10"/>
<path d="M1198.6 490.82C1218.27 493.39 1234.69 495.59 1234.69 495.59L1228.55 529.52" stroke="black" stroke-miterlimit="10"/>
<path d="M1162.01 508.17C1162.01 508.17 1162.01 527.79 1163.74 529.15L1225.44 529.4V527.21C1225.44 526.19 1224.93 525.24 1224.08 524.68L1204.71 511.88C1202.74 510.15 1202.61 503.49 1202.61 503.49" stroke="black" stroke-miterlimit="10"/>
<path d="M1234.57 496.14L1241.11 496.39L1257 483.94C1257.77 483.34 1258.74 483.04 1259.72 483.13L1263.52 483.44C1263.87 483.47 1264.11 483.8 1264.03 484.14L1253.45 529.27H1228.83L1225.44 529.39" stroke="black" stroke-miterlimit="10"/>
<path d="M1052.88 397.69C1052.88 397.69 1058.71 426.55 1063.08 426.4" stroke="black" stroke-miterlimit="10"/>
<path d="M1062.76 426.32C1071.58 428.64 1101.1 412.99 1101.1 412.99L1102.42 413.64C1102.42 413.64 1107.19 434.29 1109.16 438.24" stroke="black" stroke-miterlimit="10"/>
<path d="M1102.74 414.22L1107.84 411.92L1109.07 412.41C1109.07 412.41 1113.84 430.59 1115.73 433.72" stroke="black" stroke-miterlimit="10"/>
<path d="M1109.04 412.54C1109.04 412.54 1125.68 408.3 1132.92 409.21C1140.16 410.12 1144.12 414.31 1144.12 414.31" stroke="black" stroke-miterlimit="10"/>
<path d="M1107.18 412.08C1107.18 412.08 1109.81 401.14 1111.13 395.71L1137.87 395.13V410.43" stroke="black" stroke-miterlimit="10"/>
<path d="M1138.07 384.74C1138.07 384.74 1137.31 393.33 1136.65 395.38" stroke="black" stroke-miterlimit="10"/>
<path d="M1120.59 371.36L1128.98 343.88L1149.88 347.91L1138.45 384.85L1125.53 382.46L1126.73 369.91C1126.81 369.1 1126.58 368.28 1126.09 367.63C1125.52 366.87 1124.51 366.57 1123.61 366.89C1122.69 367.22 1121.96 367.94 1121.61 368.84L1111.14 395.71" stroke="black" stroke-miterlimit="10"/>
<path d="M1145.76 350.96L1126.72 369.91" stroke="black" stroke-miterlimit="10"/>
<path d="M1138.93 347.67C1139.11 347.67 1139.26 347.522 1139.26 347.34C1139.26 347.158 1139.11 347.01 1138.93 347.01C1138.75 347.01 1138.6 347.158 1138.6 347.34C1138.6 347.522 1138.75 347.67 1138.93 347.67Z" stroke="black" stroke-miterlimit="10"/>
<path d="M1137.78 402.95L1109.98 400.98" stroke="black" stroke-miterlimit="10"/>
<path d="M1070.57 391.85C1070.57 391.85 1083.81 412.42 1087.11 417.93" stroke="black" stroke-miterlimit="10"/>
<path d="M1032.07 345.7L1035.59 342.55L1039.72 337.55L1042.93 339.28L1045.34 339.83L1048.61 340.27L1051.01 339.46L1053.79 337.3L1055.39 335.08L1056.87 335.21L1060.14 336.07L1062.12 336.13L1063.78 358.47L1062.8 362.42L1058.6 367.72L1055.83 369.57L1051.69 370.87L1044.47 370.31L1038.18 368.96L1034.48 366.98L1030.59 363.46L1026.15 358.41L1023.74 353.53L1024.36 349.83L1026.21 347.11L1029.54 345.82L1032.07 345.7Z" fill="#FFAB97"/>
<path d="M1031.95 345.65L1035.16 342.88L1038.86 338.44L1039.6 337.51L1041.7 338.81L1045.65 340.04L1049.66 339.79L1052.49 338.37L1055.02 335.66L1055.27 335.04L1056.75 335.17L1059.34 335.84L1062 336.09L1067.86 334.3L1070.63 331.4L1071.87 327.33L1071.25 321.59L1067.18 317.7L1061.56 316.29L1058.11 316.47L1054.65 319.37L1052.99 322.21L1051.26 322.02L1047.99 320.23L1043.92 320.17L1040.65 321.84L1037.87 325.17L1036.88 326.96L1035.22 326.77L1033.43 324.86L1029.85 324.18L1025.41 324.61L1022.63 326.4L1020.9 329.61L1019.85 334.55L1019.61 340.29L1020.53 345.78L1022.2 351.15L1023.56 354.11L1024.24 349.79L1026.09 347.07L1029.42 345.78L1031.95 345.65Z" fill="#023047"/>
<path d="M1040.83 348.18L1041.7 344.48L1044.23 342.01L1047.5 340.97L1050.64 341.71L1053.48 343.99L1054.65 347.38L1053.91 350.78L1052.31 353.24L1050.03 354.35L1046.45 354.85L1043.42 353.49L1041.63 351.39L1040.83 348.18Z" fill="#E2F1FE"/>
<path d="M1060.21 344.11L1061.75 341.4L1064.15 339.85L1066.99 339.42L1070.02 340.22L1072.36 342.14L1073.66 345.78L1073.16 348.49L1071.87 350.96L1069.15 352.56L1066.31 353.06L1062.49 351.76L1060.33 349.05L1059.9 345.96L1060.21 344.11Z" fill="#E2F1FE"/>
<path d="M1053.42 358.78L1058.85 358.94L1058.4 360.13L1057.12 361.24L1054.9 361.16L1053.75 359.89L1053.42 358.78Z" fill="#FCFCFC"/>
<path d="M1063.27 352.1C1063.41 353.93 1063.54 355.64 1063.64 357.01C1064.13 363.61 1057.53 369.29 1053.83 370.21C1050.12 371.13 1040.01 370.33 1035.5 367.62C1030.99 364.91 1027.41 359.97 1025.81 357.87C1024.2 355.77 1019.39 347.69 1019.7 336.21C1020.01 324.74 1026.67 324.36 1026.67 324.36C1026.67 324.36 1033.71 322.88 1035.12 326.95H1036.97C1036.97 326.95 1039.37 320.78 1044.5 320.23C1049.62 319.68 1051.22 322.08 1051.22 322.08L1052.94 322.02C1052.94 322.02 1055.9 316.22 1060.04 316.22C1064.18 316.22 1071.51 318.01 1071.82 325.04C1072.12 332.08 1067.99 334.36 1067.99 334.36L1062 336.15C1062 336.15 1062.16 338.14 1062.38 340.98" stroke="black" stroke-miterlimit="10"/>
<path d="M1062.04 336.15C1062.04 336.15 1059.26 336.21 1056.61 335.1L1055.25 334.98C1055.25 334.98 1053.15 338.74 1049.76 339.79C1046.37 340.84 1040.51 338.68 1039.64 337.51C1039.64 337.51 1034.64 344.34 1031.5 345.76" stroke="black" stroke-miterlimit="10"/>
<path d="M1034.29 358.57C1033.91 359.12 1033.31 359.47 1032.68 359.7C1031.2 360.24 1029.54 360.04 1028.16 359.29C1024.17 357.11 1023.77 353.5 1023.77 353.5C1023.06 345.07 1032.01 345.76 1032.01 345.76C1032.01 345.76 1033.49 345.84 1034.15 346.27" stroke="black" stroke-miterlimit="10"/>
<path d="M1034.27 348.37L1040.81 348.25" stroke="black" stroke-miterlimit="10"/>
<path d="M1054.57 347.91C1054.57 347.91 1058.33 346.77 1059.94 347.63" stroke="black" stroke-miterlimit="10"/>
<path d="M1047.69 354.79C1051.49 354.79 1054.57 351.71 1054.57 347.91C1054.57 344.11 1051.49 341.03 1047.69 341.03C1043.89 341.03 1040.81 344.11 1040.81 347.91C1040.81 351.71 1043.89 354.79 1047.69 354.79Z" stroke="black" stroke-miterlimit="10"/>
<path d="M1066.76 353.06C1070.53 353.06 1073.58 350.007 1073.58 346.24C1073.58 342.473 1070.53 339.42 1066.76 339.42C1062.99 339.42 1059.94 342.473 1059.94 346.24C1059.94 350.007 1062.99 353.06 1066.76 353.06Z" stroke="black" stroke-miterlimit="10"/>
<path d="M1056.75 344.91C1056.75 344.91 1057.9 350.26 1058.81 353.22L1055.93 355.11" stroke="black" stroke-miterlimit="10"/>
<path d="M1049.76 349.36C1050.17 349.36 1050.5 349.029 1050.5 348.62C1050.5 348.211 1050.17 347.88 1049.76 347.88C1049.35 347.88 1049.02 348.211 1049.02 348.62C1049.02 349.029 1049.35 349.36 1049.76 349.36Z" stroke="black" stroke-miterlimit="10"/>
<path d="M1064.85 347.07C1065.11 347.07 1065.32 346.86 1065.32 346.6C1065.32 346.34 1065.11 346.13 1064.85 346.13C1064.59 346.13 1064.38 346.34 1064.38 346.6C1064.38 346.86 1064.59 347.07 1064.85 347.07Z" stroke="black" stroke-miterlimit="10"/>
<path d="M1047 346.31C1047 346.31 1049.45 344.95 1051.01 344.81" stroke="black" stroke-miterlimit="10"/>
<path d="M1066.33 343.93C1066.33 343.93 1063.37 343.64 1062.67 343.87" stroke="black" stroke-miterlimit="10"/>
<path d="M1053.34 358.73L1058.99 358.85C1058.99 358.85 1058.16 361.35 1056.31 361.44C1054.46 361.53 1053.47 359.65 1053.35 358.73H1053.34Z" stroke="black" stroke-miterlimit="10"/>
<path d="M1030.28 348.34C1030.28 348.34 1027.67 348.12 1026.11 351.37" stroke="black" stroke-miterlimit="10"/>
<path d="M1005.06 272.15H969.47C962.75 272.15 957.3 266.7 957.3 259.98V229.38C957.3 222.66 962.75 217.2 969.47 217.2H1016.04C1022.76 217.2 1028.21 222.65 1028.21 229.38V259.98C1028.21 260.43 1028.18 260.86 1028.14 261.3" fill="#A197FC"/>
<path d="M1028.16 258L1027.8 292.14C1027.8 292.44 1027.44 292.6 1027.22 292.39L1004.97 272.06" fill="#A197FC"/>
<path d="M993.94 258.17C1001.64 258.17 1007.89 251.924 1007.89 244.22C1007.89 236.516 1001.64 230.27 993.94 230.27C986.236 230.27 979.99 236.516 979.99 244.22C979.99 251.924 986.236 258.17 993.94 258.17Z" fill="#E4E9FF"/>
<path d="M993.94 258.17C1001.64 258.17 1007.89 251.924 1007.89 244.22C1007.89 236.516 1001.64 230.27 993.94 230.27C986.236 230.27 979.99 236.516 979.99 244.22C979.99 251.924 986.236 258.17 993.94 258.17Z" stroke="#BDCBFF" stroke-miterlimit="10"/>
<path d="M979.99 244.22H1007.89" stroke="#BDCBFF" stroke-linecap="round" stroke-linejoin="round"/>
<path d="M1003.75 234.31C1003.75 234.31 1000.87 238.58 993.94 238.58C987.01 238.58 984.13 234.31 984.13 234.31" stroke="#BDCBFF" stroke-linecap="round" stroke-linejoin="round"/>
<path d="M1003.75 254.14C1003.75 254.14 1000.87 249.87 993.94 249.87C987.01 249.87 984.13 254.14 984.13 254.14" stroke="#BDCBFF" stroke-linecap="round" stroke-linejoin="round"/>
<path d="M989.75 230.92V257.6" stroke="#BDCBFF" stroke-linecap="round" stroke-linejoin="round"/>
<path d="M998.14 230.92V257.6" stroke="#BDCBFF" stroke-linecap="round" stroke-linejoin="round"/>
</g>
<path d="M1438.24 383.62L842.91 69.9C842.13 69.49 841.37 69.04 840.62 68.57C838.93 67.51 834.86 65.29 829.29 64.58C829.29 64.58 836.43 61.36 843.96 59.06C853.29 56.2 859.08 46.3 862.66 41.25C863.55 39.99 864.3 38.65 864.83 37.2L865.01 36.7C865.45 35.49 865.7 34.21 865.75 32.93C865.83 30.82 866.42 28.77 867.46 26.95C868.49 25.15 869.84 23.57 871.45 22.27C875.09 19.35 883.4 12.65 891.01 11C902.63 8.47999 1464.15 0.019989 1464.15 0.019989L1451.01 382.31L1438.25 383.64L1438.24 383.62Z" fill="url(#paint3_linear_2000_2143)"/>
<mask id="mask4_2000_2143" style="mask-type:luminance" maskUnits="userSpaceOnUse" x="829" y="0" width="636" height="384">
<path d="M1438.24 383.62L842.91 69.9C842.13 69.49 841.37 69.04 840.62 68.57C838.93 67.51 834.86 65.29 829.29 64.58C829.29 64.58 836.43 61.36 843.96 59.06C853.29 56.2 859.08 46.3 862.66 41.25C863.55 39.99 864.3 38.65 864.83 37.2L865.01 36.7C865.45 35.49 865.7 34.21 865.75 32.93C865.83 30.82 866.42 28.77 867.46 26.95C868.49 25.15 869.84 23.57 871.45 22.27C875.09 19.35 883.4 12.65 891.01 11C902.63 8.47999 1464.15 0.019989 1464.15 0.019989L1451.01 382.31L1438.25 383.64L1438.24 383.62Z" fill="white"/>
</mask>
<g mask="url(#mask4_2000_2143)">
<path d="M1068.94 247.39L1068.59 241.71L1077.39 201.25L1087.16 165.5L1091.46 155.25L1098.04 145.41L1103.38 139.04L1111.69 133.29L1120.63 129.83L1130.68 128.1L1145.6 127.48L1156.69 128.17L1167.82 130.57L1173.92 133.16L1179.28 136.3L1184.73 141.06L1190.46 148.4L1196.14 157.92L1203.62 175.7L1204.77 179.76L1206.94 174.45L1232.67 181.98L1229.3 196.11L1225.65 207.75L1223.02 213.52L1220.43 218.83C1220.43 218.83 1217.15 223.36 1217.29 223.26C1217.43 223.16 1213.32 226.35 1213.32 226.35L1207.73 228.06L1202.28 227.55L1195.63 225.33L1188.89 220.3L1184.13 215.4L1180.11 209.03L1177.38 202.93L1174.75 195.54L1173.96 211.15L1107.67 212.49L1107.21 208.06L1094.55 252.4L1091.92 256.46L1068.94 247.38V247.39Z" fill="#D8315B"/>
<path d="M1107.47 212.82L1173.96 211.15L1223.94 423.45L1172.11 423.04L1148.28 296.38L1126.24 424.01L1068.11 423.39L1107.47 212.82Z" fill="#3E92CC"/>
<path d="M1091.92 256.47L1094.55 252.4L1068.59 241.71L1068.84 247.22L1091.92 256.47Z" fill="#FFFAFF"/>
<path d="M1207.07 174.19L1209.46 170.2L1233.74 178.07L1232.67 181.96L1206.96 174.78L1207.07 174.19Z" fill="#FFFAFF"/>
<path d="M1212.81 116.18L1231.42 120.2L1227.4 136.37L1216.27 152.67L1203.89 150L1212.81 116.18Z" fill="#7A9BB6"/>
<path d="M1155.21 127.94L1154.79 133.41L1154.2 136.7L1152.54 140.2L1149.21 143.22L1145.57 144.64L1140.13 145.16L1135.32 143.49L1131.51 140.24L1130.02 135.21L1130.37 129.84L1130.68 128.08L1141.38 127.32L1151.12 127.7L1155.21 127.94Z" fill="#FEC5BB"/>
<path d="M1068.84 247.22L1090.49 256.01L1088.73 262.2L1086.52 269.86L1082.17 277.44L1079.68 281.78L1077.56 282.24L1075.89 280.77L1074.97 279.1L1073.96 283.21L1072.34 284.64L1069.22 285.29L1067.8 286.3L1065.16 285.88L1063.19 284.77H1061.25L1059.9 283.04L1059.97 275.59L1061.42 268.11L1065.2 257.02L1068.94 247.39L1068.84 247.22Z" fill="#FEC5BB"/>
<path d="M1211.23 170.34L1216.56 157.59L1216.7 154.37L1214.86 148.1L1211.09 139.48L1211.23 137.36L1213.34 135.32L1213.55 132.65L1214.83 131.44L1217.63 131.09L1217.7 129.22L1218.71 128.01L1220.41 128.18L1221.51 128.63L1227.16 136.05L1228.17 132.82L1228.89 133.66L1230.87 140.06L1231.21 142.87L1233.88 148.17L1233.99 157.73L1233.74 178.07L1211.23 170.34Z" fill="#FEC5BB"/>
<path d="M1132.52 106.74L1135.94 105.19L1137.21 102.67L1137.86 98.68V97.59L1140.75 97.75L1142.78 98.51L1146.27 99.39L1149.57 99.85L1152.76 100.06L1156.11 99.11L1154.63 95.07L1152.23 92.07L1149.89 90.36L1141.53 88.17L1137.01 88.63L1135.34 89.1L1133.49 89.62L1130.58 91.77L1128.69 94.08L1126.84 96.69L1125.71 100.43L1124.72 103.2L1124.33 106.55L1123.63 108.88L1121.92 110.48L1118.04 114.13L1115.02 116.07L1112.22 119.05L1110.98 121.26L1110.12 123.99L1109.91 128.1L1109.64 134.29L1116.54 131.06L1125.18 128.82L1134 127.85L1143.77 127.5L1150.54 127.59L1157.82 128.33L1163.47 129.44L1169.99 131.4L1171.14 125.51L1170.31 121.19L1166.25 116.14L1160.96 110.57L1158.16 106.87L1156.61 100.18L1155.21 96.14L1151.79 91.65L1147.88 89.25L1144 88.37L1135.92 89.14L1133.49 89.62" fill="#0A2463"/>
<path d="M1139.36 88.44L1141.79 85.81L1143.1 81.98L1142.36 77.82L1140.29 75.03L1137.28 73.36L1133.7 73.09L1130.82 73.96L1128.88 75.86L1127.4 77.98L1126.68 80.55L1126.91 83.27L1127.97 85.81L1129.52 87.59L1131.92 89.04L1133.75 89.53L1134.81 89.74L1139.36 88.44Z" fill="#0A2463"/>
<path d="M1132.34 106.81L1134.8 105.84L1136.74 104.07L1137.43 101.64L1137.99 97.73L1139.62 97.45L1141.35 98.18L1143.36 98.84L1145.64 99.29L1149.42 99.91L1152.61 99.95L1156.24 99.22L1156.9 104.66L1156.87 113.21L1156.56 118.1L1155.62 120.63L1153.4 123.64L1150.32 126L1146.79 126.8L1142.94 126.62L1138.19 125.38L1134.8 123.09L1131.89 119.1L1130.16 115.61L1129.67 114.7L1126.73 114.81L1125.38 113.77L1123.75 111.83L1123.57 109.06L1124.72 105.87L1126.21 104.97L1128.36 104.66L1129.81 105.25L1132.34 106.81Z" fill="#FEC5BB"/>
<path d="M1144.12 115.95L1148.87 116.09L1148.45 117.3L1147.72 118.31L1146.68 118.72L1145.16 118.38L1144.53 117.16L1144.12 115.95Z" fill="#D8315B"/>
<path d="M1155.18 128.03C1155.18 128.03 1156 140.45 1147.86 143.87C1143.29 145.79 1137.78 145.49 1133.94 142.62C1131.68 140.93 1130.4 138.24 1130.26 135.41C1130.17 133.66 1130.24 131.27 1130.75 128.27" stroke="black" stroke-miterlimit="10"/>
<path d="M1116.54 174.71C1116.54 174.71 1095.66 250.28 1094.55 252.59L1068.54 241.73" stroke="black" stroke-miterlimit="10"/>
<path d="M1107.36 207.77L1107.54 212.68L1173.91 211.2L1176.41 168.7" stroke="black" stroke-miterlimit="10"/>
<path d="M1197.47 197.99C1198.44 195.31 1206.94 174.53 1206.94 174.53L1232.67 182.02C1232.67 182.02 1225.42 219.2 1213.91 225.9C1203.94 231.71 1192.27 224.36 1187.03 218.6C1183.9 215.17 1178.99 210.11 1174.84 195.24" stroke="black" stroke-miterlimit="10"/>
<path d="M1206.94 174.52L1209.62 170.04L1233.81 178.03L1232.67 182.01" stroke="black" stroke-miterlimit="10"/>
<path d="M1233.81 178.03L1233.95 150.36C1233.95 148.66 1233.51 147 1232.66 145.53L1227.02 135.86C1225.92 133.98 1224.66 132.2 1223.25 130.54L1222 129.07C1221.29 128.24 1220.18 127.86 1219.11 128.08H1219.06C1218.16 128.28 1217.49 129.06 1217.45 129.98C1217.39 131.21 1217.7 132.42 1218.33 133.48C1219.59 135.59 1221.71 139.21 1222.28 140.61" stroke="black" stroke-miterlimit="10"/>
<path d="M1217.47 131.24L1215.33 131.39C1214.48 131.46 1213.76 132.06 1213.54 132.89C1213.22 134.08 1213.38 135.34 1213.99 136.41C1215.44 138.94 1218.06 143.57 1218.46 144.64" stroke="black" stroke-miterlimit="10"/>
<path d="M1213.48 135.21L1212.14 136.22C1211.64 136.6 1211.28 137.12 1211.1 137.72C1210.86 138.51 1210.92 139.36 1211.26 140.12L1215.14 148.72C1215.14 148.72 1216.8 153.27 1216.8 156C1216.8 158.73 1211.05 170.5 1211.05 170.5" stroke="black" stroke-miterlimit="10"/>
<path d="M1216.32 152.61L1203.92 150.04L1212.85 116.09L1231.49 120.25L1227.36 136.37" stroke="black" stroke-miterlimit="10"/>
<path d="M1220.37 125.72C1220.7 125.72 1220.96 125.456 1220.96 125.13C1220.96 124.804 1220.7 124.54 1220.37 124.54C1220.04 124.54 1219.78 124.804 1219.78 125.13C1219.78 125.456 1220.04 125.72 1220.37 125.72Z" stroke="black" stroke-miterlimit="10"/>
<path d="M1231.19 142.95C1231.19 142.95 1230.59 135.92 1228.23 132.76" stroke="black" stroke-miterlimit="10"/>
<path d="M1173.91 211.2L1224.08 423.59L1172.25 423.04L1148.32 296.29" stroke="black" stroke-miterlimit="10"/>
<path d="M1107.53 212.68L1068.32 423.41L1126.33 423.96L1158.67 236.88" stroke="black" stroke-miterlimit="10"/>
<path d="M1122.5 212.26L1077.81 423.39" stroke="black" stroke-width="0.7" stroke-miterlimit="10"/>
<path d="M1132.34 212.06C1132.34 212.06 1133.66 226.61 1119.38 227.37" stroke="black" stroke-width="0.7" stroke-miterlimit="10"/>
<path d="M1135.67 293.4L1106.43 423.39" stroke="black" stroke-width="0.7" stroke-miterlimit="10"/>
<path d="M1177.1 278.16L1209.94 423.45" stroke="black" stroke-width="0.7" stroke-miterlimit="10"/>
<path d="M1168.19 211.11C1168.19 211.11 1167.82 225.01 1177.34 225.94" stroke="black" stroke-width="0.7" stroke-miterlimit="10"/>
<path d="M1094.55 252.59L1091.87 256.54L1068.91 247.28L1068.54 241.74C1068.54 241.74 1081.43 176.56 1089.93 158.82C1098.43 141.08 1109.43 130 1130.39 128.15C1147.62 126.63 1163.65 127.23 1176.58 134.62C1193.44 144.25 1203.37 174.53 1204.85 180.44" stroke="black" stroke-miterlimit="10"/>
<path d="M1069.24 247.51C1069.24 247.51 1064.37 258 1061.6 268.18C1059.38 276.35 1059.78 281.49 1060.03 283.2C1060.09 283.6 1060.28 283.96 1060.58 284.24L1060.84 284.48C1061.35 284.95 1062.06 285.13 1062.74 284.97C1063.63 284.76 1064.26 283.97 1064.25 283.05C1064.23 280.34 1064.45 274.63 1066.44 270.39" stroke="black" stroke-miterlimit="10"/>
<path d="M1063.4 284.95L1065.08 285.86C1065.74 286.22 1066.5 286.38 1067.25 286.31C1068.54 286.2 1069.57 285.2 1069.7 283.91C1070.07 280.2 1070.9 272.9 1071.92 270.26" stroke="black" stroke-miterlimit="10"/>
<path d="M1069.46 285.22L1071.9 284.75C1073.15 284.31 1074.09 283.25 1074.36 281.95C1075.06 278.59 1076.45 272.19 1077.26 270.53" stroke="black" stroke-miterlimit="10"/>
<path d="M1090.58 256.28L1088.27 263.75C1087.86 265.07 1087.54 266.41 1087.2 267.74C1086.69 269.75 1085.77 271.7 1084.59 273.37L1080.01 281.34C1079.58 281.94 1078.88 282.3 1078.14 282.28C1077.25 282.26 1076.44 281.75 1076.03 280.95L1075.03 278.88" stroke="black" stroke-miterlimit="10"/>
<path d="M1132.16 106.9C1133.64 106.53 1135.86 105.88 1137.03 103.48C1137.87 101.76 1137.95 97.75 1137.95 97.75C1138.19 97.67 1138.48 97.64 1138.78 97.62C1139.73 97.57 1140.67 97.76 1141.55 98.13C1144.93 99.55 1149.36 100.05 1151.01 99.97C1153.6 99.85 1156.27 99.19 1156.27 99.19C1156.27 99.19 1157.49 106.96 1156.59 117.34C1156.13 122.64 1150.89 126.54 1147.08 126.76C1141.48 127.09 1134.36 126.42 1129.92 114.67" stroke="black" stroke-miterlimit="10"/>
<path d="M1139 88.43C1141.63 88.19 1144.38 88.5 1146.98 89.13C1154.03 90.82 1156.37 99.21 1156.37 99.21C1156.37 99.21 1157.42 106.25 1159.57 108.96C1161.72 111.67 1170.34 119.31 1170.96 123.13C1171.39 125.81 1170.53 129.29 1169.95 131.49" stroke="black" stroke-miterlimit="10"/>
<path d="M1124.24 106.76C1124.84 100.87 1126.98 97.02 1126.98 97.02C1128.71 93.15 1131.3 90.81 1134.28 89.56" stroke="black" stroke-miterlimit="10"/>
<path d="M1109.66 134.57C1109.64 132.52 1109.65 127.55 1110.17 124.06C1110.85 119.56 1115.04 116.05 1117.07 114.82C1119.11 113.59 1123.6 109.03 1123.6 109.03" stroke="black" stroke-miterlimit="10"/>
<path d="M1148.42 106.91L1150.22 111.69C1150.4 112.16 1150.12 112.68 1149.64 112.8L1147.19 113.15" stroke="black" stroke-miterlimit="10"/>
<path d="M1140.82 105.56C1140.82 105.56 1142.91 104.45 1144.76 105.31L1144.45 105.13C1143.38 104.5 1142.02 104.59 1141.05 105.37L1140.82 105.55V105.56Z" stroke="black" stroke-linecap="round" stroke-linejoin="round"/>
<path d="M1143.24 108.53C1143.51 108.53 1143.73 108.311 1143.73 108.04C1143.73 107.769 1143.51 107.55 1143.24 107.55C1142.97 107.55 1142.75 107.769 1142.75 108.04C1142.75 108.311 1142.97 108.53 1143.24 108.53Z" stroke="black" stroke-linecap="round" stroke-linejoin="round"/>
<path d="M1155.69 105.61C1155.69 105.61 1153.83 104.55 1152.14 105.27L1152.42 105.12C1153.41 104.58 1154.63 104.71 1155.48 105.44L1155.68 105.61H1155.69Z" stroke="black" stroke-linecap="round" stroke-linejoin="round"/>
<path d="M1153.43 108.22C1153.67 108.22 1153.87 108.023 1153.87 107.78C1153.87 107.537 1153.67 107.34 1153.43 107.34C1153.19 107.34 1152.99 107.537 1152.99 107.78C1152.99 108.023 1153.19 108.22 1153.43 108.22Z" stroke="black" stroke-linecap="round" stroke-linejoin="round"/>
<path d="M1144.04 115.92L1149.03 116.1C1149.03 116.1 1148.12 118.5 1147.06 118.56C1146.07 118.62 1144.84 119.13 1144.04 115.91V115.92Z" stroke="black" stroke-width="0.7" stroke-linecap="round" stroke-linejoin="round"/>
<path d="M1139 88.43C1141.39 86.98 1142.99 84.34 1142.99 81.31C1142.99 76.75 1139.35 73.05 1134.86 73.05C1130.37 73.05 1126.73 76.75 1126.73 81.31C1126.73 85.87 1130.07 89.25 1134.3 89.55" stroke="black" stroke-linecap="round" stroke-linejoin="round"/>
<path d="M1125.41 110.92C1125.41 110.92 1124.72 107.99 1127.25 106.61" stroke="black" stroke-width="0.7" stroke-miterlimit="10"/>
<path d="M1132.48 106.99L1131.8 106.29C1130.89 105.36 1129.74 104.99 1128.32 104.86L1127.22 104.88C1125.84 104.9 1124.62 105.75 1124.11 107.03C1123.63 108.24 1123.46 109.54 1123.59 110.83C1123.77 112.55 1124.93 114.01 1126.56 114.57C1127.07 114.75 1127.61 114.82 1128.14 114.78L1131.28 114.56" stroke="black" stroke-miterlimit="10"/>
<path d="M1095.16 36.86H1071.21C1070.01 36.86 1069.04 37.8315 1069.04 39.03V63.12C1069.04 64.3184 1070.01 65.29 1071.21 65.29H1095.16C1096.36 65.29 1097.33 64.3184 1097.33 63.12V39.03C1097.33 37.8315 1096.36 36.86 1095.16 36.86Z" fill="#E78895"/>
<path d="M1332.91 225.15H1340.66V159.93H1275.44V165.47" fill="#6096BA"/>
<path d="M1332.9 165.47H1267.68V230.69H1332.9V165.47Z" fill="#274C77"/>
<path d="M1285.09 191.029V175.175H1287.78V191.029H1285.09ZM1278.51 184.447V181.757H1294.36V184.447H1278.51Z" fill="#A3CEF1"/>
<path d="M1307.36 181.695V179.044H1322.48V181.695H1307.36ZM1307.36 188.96V186.309H1322.48V188.96H1307.36Z" fill="#A3CEF1"/>
<path d="M1280.49 216.128L1291.9 205.123L1293.77 207.06L1282.36 218.065L1280.49 216.128ZM1280.66 206.822L1282.6 204.955L1293.6 216.366L1291.67 218.233L1280.66 206.822Z" fill="#A3CEF1"/>
<path d="M1320.51 207.65V210.35H1304.8V207.65H1320.51Z" fill="#A3CEF1"/>
<path d="M1313.55 208.73C1314.22 208.73 1314.77 208.184 1314.77 207.51C1314.77 206.836 1314.22 206.29 1313.55 206.29C1312.88 206.29 1312.33 206.836 1312.33 207.51C1312.33 208.184 1312.88 208.73 1313.55 208.73Z" fill="#A3CEF1"/>
<path d="M1313.55 216.97C1314.22 216.97 1314.77 216.424 1314.77 215.75C1314.77 215.076 1314.22 214.53 1313.55 214.53C1312.88 214.53 1312.33 215.076 1312.33 215.75C1312.33 216.424 1312.88 216.97 1313.55 216.97Z" fill="#A3CEF1"/>
<path d="M1269.9 77.98H1347.96C1361.84 77.98 1373.09 66.73 1373.09 52.85V51.84C1373.09 37.96 1361.84 26.71 1347.96 26.71H1242.27C1228.39 26.71 1217.14 37.96 1217.14 51.84V52.85C1217.14 65.96 1227.17 76.72 1239.98 77.87" fill="#EDE7E3"/>
<path d="M1239.99 77.87L1239.82 100.1C1239.82 100.46 1240.23 100.67 1240.52 100.45L1269.9 77.98" fill="#EDE7E3"/>
<path d="M1083.28 43.63V39.98" stroke="#171C51" stroke-linecap="round" stroke-linejoin="round"/>
<path d="M1080.64 43.63V39.98" stroke="#171C51" stroke-linecap="round" stroke-linejoin="round"/>
<path d="M1085.93 43.63V39.98" stroke="#171C51" stroke-linecap="round" stroke-linejoin="round"/>
<path d="M1075.82 51.1H1072.17" stroke="#171C51" stroke-linecap="round" stroke-linejoin="round"/>
<path d="M1075.82 53.74H1072.17" stroke="#171C51" stroke-linecap="round" stroke-linejoin="round"/>
<path d="M1075.82 48.45H1072.17" stroke="#171C51" stroke-linecap="round" stroke-linejoin="round"/>
<path d="M1083.28 58.56V62.21" stroke="#171C51" stroke-linecap="round" stroke-linejoin="round"/>
<path d="M1085.93 58.56V62.21" stroke="#171C51" stroke-linecap="round" stroke-linejoin="round"/>
<path d="M1080.64 58.56V62.21" stroke="#171C51" stroke-linecap="round" stroke-linejoin="round"/>
<path d="M1090.75 51.1H1094.4" stroke="#171C51" stroke-linecap="round" stroke-linejoin="round"/>
<path d="M1090.75 48.45H1094.4" stroke="#171C51" stroke-linecap="round" stroke-linejoin="round"/>
<path d="M1090.75 53.74H1094.4" stroke="#171C51" stroke-linecap="round" stroke-linejoin="round"/>
<path d="M1085.97 45.2H1080.6C1078.83 45.2 1077.39 46.6372 1077.39 48.41V53.78C1077.39 55.5528 1078.83 56.99 1080.6 56.99H1085.97C1087.74 56.99 1089.18 55.5528 1089.18 53.78V48.41C1089.18 46.6372 1087.74 45.2 1085.97 45.2Z" fill="#F16880"/>
<path d="M1085.97 45.2H1080.6C1078.83 45.2 1077.39 46.6372 1077.39 48.41V53.78C1077.39 55.5528 1078.83 56.99 1080.6 56.99H1085.97C1087.74 56.99 1089.18 55.5528 1089.18 53.78V48.41C1089.18 46.6372 1087.74 45.2 1085.97 45.2Z" stroke="#171C51" stroke-linecap="round" stroke-linejoin="round"/>
<path d="M1080.91 50.6773C1080.83 50.7136 1080.75 50.7421 1080.66 50.7626C1080.75 50.7831 1080.83 50.8116 1080.91 50.8479L1081.77 51.2911C1081.8 51.3085 1081.83 51.3306 1081.84 51.3575C1081.86 51.3843 1081.87 51.4136 1081.87 51.4452V51.8623L1079.99 50.8811V50.6441L1081.87 49.6653V50.0824C1081.87 50.114 1081.86 50.1432 1081.84 50.1701C1081.83 50.1954 1081.8 50.2175 1081.77 50.2365L1080.91 50.6773ZM1083.08 52.3671C1083.05 52.4398 1083.01 52.4943 1082.95 52.5306C1082.89 52.567 1082.83 52.5851 1082.77 52.5851H1082.52L1083.9 49.0444C1083.93 48.978 1083.97 48.9274 1084.02 48.8927C1084.07 48.8563 1084.13 48.8382 1084.2 48.8382H1084.45L1083.08 52.3671ZM1086.98 50.6441V50.8811L1085.1 51.8623V51.4452C1085.1 51.4136 1085.11 51.3843 1085.12 51.3575C1085.14 51.3306 1085.17 51.3085 1085.2 51.2911L1086.06 50.8479C1086.14 50.8116 1086.22 50.7831 1086.31 50.7626C1086.22 50.7421 1086.14 50.7136 1086.06 50.6773L1085.2 50.2365C1085.17 50.2175 1085.14 50.1954 1085.12 50.1701C1085.11 50.1432 1085.1 50.114 1085.1 50.0824V49.6653L1086.98 50.6441Z" fill="#171C51"/>
<path d="M1302.09 59.49L1289.71 40.88" stroke="#171C51" stroke-linecap="round" stroke-linejoin="round"/>
<path d="M1302.09 63.53C1304.32 63.53 1306.13 61.7212 1306.13 59.49C1306.13 57.2588 1304.32 55.45 1302.09 55.45C1299.86 55.45 1298.05 57.2588 1298.05 59.49C1298.05 61.7212 1299.86 63.53 1302.09 63.53Z" fill="#F7B75D"/>
<path d="M1302.09 63.53C1304.32 63.53 1306.13 61.7212 1306.13 59.49C1306.13 57.2588 1304.32 55.45 1302.09 55.45C1299.86 55.45 1298.05 57.2588 1298.05 59.49C1298.05 61.7212 1299.86 63.53 1302.09 63.53Z" stroke="#F7B75D" stroke-miterlimit="10"/>
<path fill-rule="evenodd" clip-rule="evenodd" d="M1285.67 40.88C1285.67 38.65 1287.48 36.84 1289.71 36.84C1291.94 36.84 1293.75 38.65 1293.75 40.88C1293.75 43.11 1291.94 44.92 1289.71 44.92C1287.48 44.92 1285.67 43.11 1285.67 40.88Z" fill="#F7B75D"/>
<path fill-rule="evenodd" clip-rule="evenodd" d="M1285.67 40.88C1285.67 38.65 1287.48 36.84 1289.71 36.84C1291.94 36.84 1293.75 38.65 1293.75 40.88C1293.75 43.11 1291.94 44.92 1289.71 44.92C1287.48 44.92 1285.67 43.11 1285.67 40.88Z" stroke="#F7B75D" stroke-miterlimit="10"/>
<path d="M1271.1 59.49L1289.71 40.88" stroke="#171C51" stroke-linecap="round" stroke-linejoin="round"/>
<path fill-rule="evenodd" clip-rule="evenodd" d="M1315.77 40.88C1315.77 38.65 1317.58 36.84 1319.81 36.84C1322.04 36.84 1323.85 38.65 1323.85 40.88C1323.85 43.11 1322.04 44.92 1319.81 44.92C1317.58 44.92 1315.77 43.11 1315.77 40.88Z" fill="#F7B75D"/>
<path fill-rule="evenodd" clip-rule="evenodd" d="M1315.77 40.88C1315.77 38.65 1317.58 36.84 1319.81 36.84C1322.04 36.84 1323.85 38.65 1323.85 40.88C1323.85 43.11 1322.04 44.92 1319.81 44.92C1317.58 44.92 1315.77 43.11 1315.77 40.88Z" stroke="#F7B75D" stroke-miterlimit="10"/>
<path d="M1302.09 59.49L1319.81 40.88" stroke="#171C51" stroke-linecap="round" stroke-linejoin="round"/>
<path d="M1271.1 63.53C1273.33 63.53 1275.14 61.7212 1275.14 59.49C1275.14 57.2588 1273.33 55.45 1271.1 55.45C1268.87 55.45 1267.06 57.2588 1267.06 59.49C1267.06 61.7212 1268.87 63.53 1271.1 63.53Z" fill="#F7B75D"/>
<path d="M1271.1 63.53C1273.33 63.53 1275.14 61.7212 1275.14 59.49C1275.14 57.2588 1273.33 55.45 1271.1 55.45C1268.87 55.45 1267.06 57.2588 1267.06 59.49C1267.06 61.7212 1268.87 63.53 1271.1 63.53Z" stroke="#F7B75D" stroke-miterlimit="10"/>
</g>
<path d="M-6.71004 384.57L604.9 62.54C604.9 62.54 587.12 62.03 579.76 48.57C578.16 45.65 576.55 42.63 575.01 39.7C568.2 26.75 556.58 17.01 542.64 12.57L530.49 8.69999L-7.67004 8.43999L-6.72004 384.57H-6.71004Z" fill="url(#paint4_linear_2000_2143)"/>
<mask id="mask5_2000_2143" style="mask-type:luminance" maskUnits="userSpaceOnUse" x="-8" y="8" width="613" height="377">
<path d="M-6.71004 384.57L604.9 62.54C604.9 62.54 587.12 62.03 579.76 48.57C578.16 45.65 576.55 42.63 575.01 39.7C568.2 26.75 556.58 17.01 542.64 12.57L530.49 8.69999L-7.67004 8.43999L-6.72004 384.57H-6.71004Z" fill="white"/>
</mask>
<g mask="url(#mask5_2000_2143)">
<path d="M259.51 68.05L250.99 88.64L242.32 105.73L256.24 119.22L257.85 122.39L259.51 140.75L261.87 164.09L264.15 177.91L336.99 177.77L339.78 146.58L335.62 113.77L346.88 89.78L330.08 86.32L312.99 84.47L301.82 82.87L284.69 79.22L278.3 76.76L259.51 68.05Z" fill="#E0E1DD"/>
<path d="M237.35 188.77C237.35 188.77 213.37 200.89 204.53 211.36C195.69 221.83 197.59 232.44 197.59 232.44V240.9L199.36 256.17L202.64 272.96L206.68 287.48L238.24 287.98L277.87 288.61L284.31 236.73L284.37 235.47L328.99 235.41L331.64 232.82L335.08 225.4L337.1 216.79L337.86 205.9L337.54 192.77L337.16 188.86L237.35 188.77Z" fill="#415A77"/>
<path d="M259.7 68.19L229.21 53.57L218.42 49.31L210.23 48.22L190.45 47.74L185.71 48.97L181.74 52.67L179.84 57.54L180.55 66.49L182.12 76.48L183.92 79.22L186.61 79.98L188.46 79.5L188.74 80.78L191.06 82.39L193.48 82.34L195.13 81.35L196.03 81.3L198.3 81.92L200.62 81.16L202.42 78.84L202.8 77.37L204.13 78.23L207.16 77.56L210.19 74.96L242.14 105.59L245.5 100.57L254.16 81.54L259.7 68.19Z" fill="#E29578"/>
<path d="M346.88 89.78L335.62 113.77L297.82 122.18L287.84 124.71L278.12 123.07L266.32 122.18L263.99 123.32L263.29 125.72L263.48 127.42L262.41 128.75L262.66 131.02L263.92 133.04V135.56L265.5 138.09L270.93 139.73L279.01 141.94L286.52 144.78L291.5 145.91L336.69 146.61L356.13 146.1L362.95 144.65L367.99 142.69L373.42 138.28L377.08 132.98L379.67 123.45V116.76L376.33 108.36L370.01 101.29L361.49 95.61L346.88 89.78Z" fill="#E29578"/>
<path d="M284.17 79.27L302.77 82.91L288.66 95.46L287.48 95.41L284.17 79.27Z" fill="#E29578"/>
<path d="M270.68 139.71L278.44 141.75L278.35 153.77H270.77L270.68 139.71Z" fill="#E78895"/>
<path d="M284.37 235.47H336.06V245.31L283.17 245.94L284.37 235.47Z" fill="#1B263B"/>
<path d="M344.52 188.64L336.5 241.97L336.06 235.47L328.8 235.03L331.01 233.51L333.41 229.85L336 222.91L337.32 211.8L337.95 202.27L337.16 188.86L344.52 188.64Z" fill="#727A87"/>
<path d="M212.74 188.61L212.55 177.82L358.15 177.63L358.05 188.7L212.74 188.61Z" fill="#0D1B2A"/>
<path d="M48.02 178.1L212.55 177.82L212.74 188.61H48.02V178.1Z" fill="#0D1B2A"/>
<path d="M345.27 112.78C332.65 113.28 287.71 124.9 287.71 124.9L281.28 123.54C279.59 123.18 277.88 122.95 276.16 122.84L267.75 122.31C267.09 122.27 266.43 122.31 265.78 122.44C264.28 122.73 263.23 124.08 263.32 125.61L263.41 127.17L274.96 128.68" stroke="black" stroke-miterlimit="10"/>
<path d="M210.02 75.07L255.03 117.72C256.81 119.41 257.9 121.68 258.1 124.13C258.88 133.79 261.22 160.46 263.95 177.76" stroke="black" stroke-miterlimit="10"/>
<path d="M339.69 146.99C339.69 146.99 338.16 170.75 336.85 178.23" stroke="black" stroke-miterlimit="10"/>
<path d="M337.12 188.64C337.76 195.62 338.49 208.55 336.57 219.19C333.79 234.59 328 235.4 328 235.4" stroke="black" stroke-miterlimit="10"/>
<path d="M272.57 188.89C272.57 188.89 242.4 203.45 237.73 214.64C228.26 237.36 238.11 288.1 238.11 288.1" stroke="black" stroke-miterlimit="10"/>
<path d="M285.82 222.21L277.75 288.86" stroke="black" stroke-miterlimit="10"/>
<path d="M238.49 188.7C238.49 188.7 209.33 199.37 200.24 218.05C191.15 236.73 206.68 287.72 206.68 287.72" stroke="black" stroke-miterlimit="10"/>
<path d="M358.02 177.78H48.02V188.64H358.02V177.78Z" stroke="black" stroke-miterlimit="10"/>
<path d="M212.62 178.04L212.49 188.77" stroke="black" stroke-miterlimit="10"/>
<path d="M284.21 235.7L336.12 235.31L336.03 245.53L282.79 245.93" stroke="black" stroke-miterlimit="10"/>
<path d="M344.55 188.64L336.03 245.54" stroke="black" stroke-miterlimit="10"/>
<path d="M303.08 82.96L288.78 95.25C288.18 95.76 287.25 95.43 287.11 94.66L284.18 78.83" stroke="black" stroke-miterlimit="10"/>
<path d="M259.89 67.72C259.89 67.72 247.3 99.84 242.38 105.52" stroke="black" stroke-miterlimit="10"/>
<path d="M188.26 79.78L188.3 79.9C188.56 80.63 189.02 81.26 189.6 81.72C190.19 82.19 190.9 82.5 191.68 82.57C191.82 82.57 191.95 82.59 192.08 82.59C192.91 82.59 193.72 82.33 194.39 81.86C194.74 81.62 195.05 81.32 195.3 80.98C195.9 80.19 196.24 79.25 196.29 78.27L196.58 73.35L197.09 64.63" stroke="black" stroke-miterlimit="10"/>
<path d="M195.32 81.16L197.18 81.72C198.39 82.08 199.69 81.83 200.68 81.05C201.61 80.31 202.23 79.24 202.39 78.06L203.95 67.01C204.24 64.98 203.68 62.92 202.41 61.32L199.75 57.97C197.87 55.59 195.17 53.99 192.18 53.47L185.37 52.29" stroke="black" stroke-miterlimit="10"/>
<path d="M215.23 67.59L210.05 75C210.05 75 210.02 75.04 210.01 75.06C208.82 76.9 206.76 78 204.57 78.07L202.89 78.12" stroke="black" stroke-miterlimit="10"/>
<path d="M172.6 57.02L172.37 57.37L167.68 64.41L181.88 74.18L181.98 74.25" stroke="black" stroke-miterlimit="10"/>
<path d="M263.42 127.17C262.52 128.23 262.23 129.68 262.66 131L262.92 131.82C263.15 132.52 263.76 133.03 264.49 133.13L275.09 134.55" stroke="black" stroke-miterlimit="10"/>
<path d="M188.76 65L189.01 68.34L189.78 78.38L189.33 78.76L188.63 79.35C187.73 80.11 186.48 80.29 185.4 79.81C184.01 79.19 182.36 77.97 182.07 75.61C182.02 75.17 181.96 74.7 181.88 74.18C181.56 71.8 181.05 68.71 180.66 66.36C180.44 65.08 180.26 63.79 180.13 62.49C180.01 61.38 179.93 60.25 179.87 59.14C179.87 58.97 179.87 58.8 179.87 58.62C179.87 56.47 180.56 54.38 181.86 52.65C184.31 49.39 188.16 47.5 192.24 47.56L208.12 47.81C214.49 47.91 220.75 49.47 226.42 52.38L275.52 75.6C279.74 77.76 284.24 79.3 288.9 80.18C299.99 82.26 303.46 83.71 325.6 85.9C360.18 89.31 382.9 104.58 379.5 124.27C377.42 136.3 371.17 142.7 361.33 145.22C351.48 147.74 297.46 146.23 297.46 146.23C290.2 146.36 282.12 143.01 280.48 142.31C279.3 141.81 271.15 139.62 266.67 138.41C264.98 137.96 263.85 136.37 263.98 134.62L264.07 133.28" stroke="black" stroke-miterlimit="10"/>
<path d="M270.87 139.41V139.55L270.93 153.99L278.44 153.93L278.31 141.63" stroke="black" stroke-miterlimit="10"/>
<path d="M278.12 123.03V122.88L278.06 111.2L270.17 111.14V122.46V122.56" stroke="black" stroke-miterlimit="10"/>
<path d="M172.13 57.21L172.37 57.37L180.12 62.49H180.13" stroke="black" stroke-miterlimit="10"/>
<path d="M202.51 77.26L203.79 78.11L203.84 78.14L215.96 85.8L211.89 92.62L194.38 81.86" stroke="black" stroke-miterlimit="10"/>
<path d="M347.04 89.6C347.04 89.6 336.88 109.64 335.49 114.43" stroke="black" stroke-miterlimit="10"/>
<path d="M290.27 44.38L287.05 48.31L283.65 53.94L282.18 60.43L281.8 66.49L283.88 73.35L289.66 79.27L293.73 80.36L299.31 80.17L309.54 75.86L314.93 70.51L318.25 69.04L319.38 65.68L319.1 61.52L315.69 59.06L312.57 59.81L309.63 63.08L306.79 50.87L302.49 50.73L295.43 48.26L291.41 45.57L290.27 44.38Z" fill="#E29578"/>
<path d="M306.56 50.84L301.35 50.3L293.97 47.24L288.6 41.78L287.78 36.26L289.71 30.33L292.96 27.58L299.52 26.89L305.07 28.75L308.45 34.93L310.31 41.62L311.48 44.78L316.05 47.52L319.43 52.51L320.03 59.04L319.37 62.48L316.09 59.2L313.47 59.23L309.63 63.08L306.56 50.84Z" fill="#0D1B2A"/>
<path d="M290.07 44.56C290.07 44.56 277.72 55.98 283.43 72.34C283.43 72.34 289.22 87.31 307.97 76.58C307.97 76.58 312.67 73.49 315.07 70.37" stroke="black" stroke-miterlimit="10"/>
<path d="M309.27 63.62C309.27 63.62 312.57 58.67 315.25 59.05C317.93 59.43 319.17 61.72 319.26 63.83C319.34 65.58 319.22 69.12 316.14 70.14C315.05 70.5 313.86 70.4 312.78 70L312.18 69.78" stroke="black" stroke-miterlimit="10"/>
<path d="M319.11 62.79C319.59 61.38 319.98 59.17 319.88 55.73C319.63 47.58 311.36 44.88 311.36 44.88C311.36 44.88 310.56 41.57 307.86 33.7C305.16 25.83 297.75 26.35 293.33 27.55C288.9 28.73 284.48 39.67 291.66 45.57C298.83 51.46 306.63 50.96 306.63 50.96L309.59 63.24" stroke="black" stroke-miterlimit="10"/>
<path d="M294.85 60.54C295.192 60.54 295.47 60.2624 295.47 59.92C295.47 59.5776 295.192 59.3 294.85 59.3C294.508 59.3 294.23 59.5776 294.23 59.92C294.23 60.2624 294.508 60.54 294.85 60.54Z" stroke="black" stroke-miterlimit="10"/>
<path d="M293.46 54.98C293.46 54.98 297.01 55.52 297.86 56.75L297.81 56.66C296.94 55.14 295.13 54.44 293.47 54.98H293.46Z" stroke="black" stroke-linecap="round" stroke-linejoin="round"/>
<path d="M288.73 58.01L285.83 63.01C285.55 63.49 285.64 64.09 286.04 64.47L287.86 65.75" stroke="black" stroke-linecap="round" stroke-linejoin="round"/>
<path d="M287.96 70.67C287.96 70.67 291.87 71.31 294.34 68.25" stroke="black" stroke-linecap="round" stroke-linejoin="round"/>
<path d="M286.52 56.34C286.807 56.34 287.04 56.1072 287.04 55.82C287.04 55.5328 286.807 55.3 286.52 55.3C286.233 55.3 286 55.5328 286 55.82C286 56.1072 286.233 56.34 286.52 56.34Z" stroke="black" stroke-miterlimit="10"/>
<path d="M289.81 53.07C289.81 53.07 287.1 51.77 285.93 52.22L286.01 52.18C287.33 51.54 288.91 51.91 289.8 53.07H289.81Z" stroke="black" stroke-linecap="round" stroke-linejoin="round"/>
<path d="M312.54 62.87C312.54 62.87 313.95 60.41 316.05 61.35" stroke="black" stroke-width="0.7" stroke-miterlimit="10"/>
<path opacity="0.75" d="M192.2 139.95L231.2 140.42L239.06 151.5L244.83 163.24L245.31 168.82L243.79 174.31L241.9 177.72L181.22 177.82L177.9 170.05L178.28 163.52L182.35 154.15L192.2 139.95Z" fill="#FAC22B"/>
<path d="M159.63 140.9L165.98 140.8L165.69 133.23L150.55 133.32L150.36 177.72L165.79 177.63L165.98 162.48L159.16 162.57L159.63 140.9Z" fill="#A197FC"/>
<path opacity="0.05" d="M150.36 120.92L166.07 121.11L165.79 177.63L150.36 177.72V120.92Z" fill="#00A9FF"/>
<path opacity="0.05" d="M204.88 99.15L218.23 99.24V123.95L232.24 141.84L241.52 155.76L244.17 161.34L245.5 166.93L244.55 172.23L241.8 178.48H181.69L179.51 174.69L177.9 168.82L178.66 162.48L182.35 154.53L196.46 134.27L204.98 124.05L204.88 99.15Z" fill="#00A9FF"/>
<path d="M127.92 162.32L128.05 141.05L134.74 140.93L134.61 132.98L119.27 133.23L119.21 177.59L134.74 177.72V162.51L127.92 162.32Z" fill="#E63946"/>
<path opacity="0.05" d="M119.31 121.21L134.64 121.11L134.74 177.72L119.21 177.59L119.31 121.21Z" fill="#00A9FF"/>
<path d="M60.1901 157.32L108.28 157.42L108.47 161.72L107.76 167.4L106.05 171.19L102.36 176.16L101.46 177.53L67.0001 177.77L64.1101 174.31L60.9901 168.82L59.8101 162.29L60.1901 157.32Z" fill="#00A9FF"/>
<path opacity="0.05" d="M67 177.77L61.94 171.09L59.48 159.55L61.56 150.74L64.4 145.63L70.46 140.14L77.08 136.83L78.79 136.07L78.69 125.47L92.14 125.37L92.23 137.3L99.71 141.46L104.92 147.43L107.85 154.34L108.8 160.68L106.9 169.39L103.5 175.35L99.33 178.95" fill="#00A9FF"/>
<path d="M128.11 162.76L128.05 141.05L134.74 140.93V162.51L128.11 162.76Z" fill="#F28482"/>
<path d="M159.49 162.39L159.63 140.9L165.98 140.8V162.48L159.49 162.39Z" fill="#B8C0FF"/>
<path d="M165.98 121.68H150.45V177.34H165.98V121.68Z" stroke="black" stroke-miterlimit="10"/>
<path d="M147.04 120.92L168.63 121.02" stroke="black" stroke-miterlimit="10"/>
<path d="M150.55 133.42L166.07 133.32" stroke="black" stroke-miterlimit="10"/>
<path d="M165.98 140.9H159.35L159.25 162.57H165.69" stroke="black" stroke-miterlimit="10"/>
<path d="M134.75 121.68H119.22V177.34H134.75V121.68Z" stroke="black" stroke-miterlimit="10"/>
<path d="M115.81 120.92L137.4 121.02" stroke="black" stroke-miterlimit="10"/>
<path d="M119.32 133.42L134.84 133.32" stroke="black" stroke-miterlimit="10"/>
<path d="M134.75 140.9H128.12L128.02 162.57H134.46" stroke="black" stroke-miterlimit="10"/>
<path d="M67.2301 177.79C62.6701 173.37 59.8201 167.16 59.8201 160.31C59.8201 148.72 67.9201 139.02 78.7601 136.56" stroke="black" stroke-miterlimit="10"/>
<path d="M92.13 137.27C100.8 140.25 107.24 148 108.36 157.37C108.48 158.33 108.54 159.31 108.54 160.3C108.54 167.16 105.71 173.36 101.13 177.78" stroke="black" stroke-miterlimit="10"/>
<path d="M78.76 136.56V126.1H92.13V137.27" stroke="black" stroke-miterlimit="10"/>
<path d="M75.71 125.37L94.79 125.47" stroke="black" stroke-miterlimit="10"/>
<path d="M60.14 157.23L108.42 157.37" stroke="black" stroke-miterlimit="10"/>
<path d="M181.5 178.1C178.85 173.93 176.38 168.82 178.85 161.82C183.39 148.95 204.98 124.14 204.98 124.14L204.79 99.15H218.39L218.2 124.14C218.2 124.14 239.78 148.94 244.33 161.82C246.8 168.82 244.33 173.94 241.68 178.1" stroke="black" stroke-miterlimit="10"/>
<path d="M192.29 140.23L230.73 140.42" stroke="black" stroke-miterlimit="10"/>
</g>
</g>
<defs>
<linearGradient id="paint0_linear_2000_2143" x1="717.67" y1="591.43" x2="717.67" y2="67.68" gradientUnits="userSpaceOnUse">
<stop stop-color="white"/>
<stop offset="1" stop-color="#00A9FF"/>
</linearGradient>
<linearGradient id="paint1_linear_2000_2143" x1="31.72" y1="663.12" x2="642.31" y2="83.69" gradientUnits="userSpaceOnUse">
<stop stop-color="white"/>
<stop offset="0.94" stop-color="#E78895"/>
</linearGradient>
<linearGradient id="paint2_linear_2000_2143" x1="1388.83" y1="649.98" x2="785.84" y2="77.76" gradientUnits="userSpaceOnUse">
<stop stop-color="white"/>
<stop offset="1" stop-color="#A197FC"/>
</linearGradient>
<linearGradient id="paint3_linear_2000_2143" x1="1498.63" y1="204.52" x2="839.14" y2="27.81" gradientUnits="userSpaceOnUse">
<stop stop-color="white"/>
<stop offset="1" stop-color="#63B4B8"/>
</linearGradient>
<linearGradient id="paint4_linear_2000_2143" x1="-67.45" y1="209.32" x2="581.04" y2="71.48" gradientUnits="userSpaceOnUse">
<stop stop-color="white"/>
<stop offset="0.92" stop-color="#FCBF49"/>
</linearGradient>
</defs>
</svg>
