<svg width="1170" height="419" viewBox="0 0 1170 419" fill="none" xmlns="http://www.w3.org/2000/svg">
<path d="M649.105 233.5H650.605V244H649.375L643.075 236.17V244H641.575V233.5H642.805L649.105 241.33V233.5ZM656.943 244.09C654.558 244.09 652.803 242.395 652.803 240.025C652.803 237.655 654.558 235.975 656.943 235.975C659.328 235.975 661.068 237.655 661.068 240.025C661.068 242.395 659.328 244.09 656.943 244.09ZM656.943 242.83C658.473 242.83 659.613 241.72 659.613 240.025C659.613 238.33 658.473 237.235 656.943 237.235C655.413 237.235 654.258 238.33 654.258 240.025C654.258 241.72 655.413 242.83 656.943 242.83ZM667.079 242.5L667.529 243.535C667.094 243.91 666.434 244.09 665.789 244.09C664.184 244.09 663.269 243.205 663.269 241.6V237.235H661.919V236.05H663.269V234.31H664.709V236.05H666.989V237.235H664.709V241.54C664.709 242.395 665.159 242.875 665.954 242.875C666.374 242.875 666.779 242.74 667.079 242.5ZM676.192 240.07C676.192 240.19 676.177 240.37 676.162 240.505H669.712C669.892 241.9 671.017 242.83 672.592 242.83C673.522 242.83 674.302 242.515 674.887 241.87L675.682 242.8C674.962 243.64 673.867 244.09 672.547 244.09C669.982 244.09 668.272 242.395 668.272 240.025C668.272 237.67 669.967 235.975 672.262 235.975C674.557 235.975 676.192 237.625 676.192 240.07ZM672.262 237.19C670.882 237.19 669.862 238.12 669.712 239.47H674.812C674.662 238.135 673.657 237.19 672.262 237.19ZM677.828 240.505V239.26H681.863V240.505H677.828ZM688.246 242.5L688.696 243.535C688.261 243.91 687.601 244.09 686.956 244.09C685.351 244.09 684.436 243.205 684.436 241.6V237.235H683.086V236.05H684.436V234.31H685.876V236.05H688.156V237.235H685.876V241.54C685.876 242.395 686.326 242.875 687.121 242.875C687.541 242.875 687.946 242.74 688.246 242.5ZM693.332 235.975C695.507 235.975 696.737 237.025 696.737 239.2V244H695.372V242.95C694.892 243.67 694.007 244.09 692.762 244.09C690.962 244.09 689.822 243.13 689.822 241.75C689.822 240.475 690.647 239.425 693.017 239.425H695.297V239.14C695.297 237.925 694.592 237.22 693.167 237.22C692.222 237.22 691.262 237.55 690.647 238.075L690.047 236.995C690.872 236.335 692.057 235.975 693.332 235.975ZM693.002 242.98C694.082 242.98 694.937 242.485 695.297 241.57V240.46H693.077C691.652 240.46 691.247 241.015 691.247 241.69C691.247 242.485 691.907 242.98 693.002 242.98ZM705.477 244L702.492 240.295L700.842 241.825V244H699.402V232.87H700.842V240.01L705.177 236.05H706.917L703.572 239.335L707.247 244H705.477ZM709.263 234.52C708.708 234.52 708.288 234.115 708.288 233.59C708.288 233.065 708.708 232.645 709.263 232.645C709.818 232.645 710.238 233.05 710.238 233.56C710.238 234.1 709.833 234.52 709.263 234.52ZM708.543 244V236.05H709.983V244H708.543ZM716.977 235.975C718.912 235.975 720.277 237.085 720.277 239.425V244H718.837V239.59C718.837 238.03 718.057 237.265 716.692 237.265C715.162 237.265 714.172 238.18 714.172 239.905V244H712.732V236.05H714.112V237.25C714.697 236.44 715.717 235.975 716.977 235.975ZM729.226 236.05H730.591V242.92C730.591 245.725 729.166 247 726.466 247C725.011 247 723.541 246.595 722.671 245.815L723.361 244.705C724.096 245.335 725.251 245.74 726.421 245.74C728.296 245.74 729.151 244.87 729.151 243.07V242.44C728.461 243.265 727.426 243.67 726.286 243.67C723.991 243.67 722.251 242.11 722.251 239.815C722.251 237.52 723.991 235.975 726.286 235.975C727.471 235.975 728.551 236.41 729.226 237.28V236.05ZM726.451 242.41C728.041 242.41 729.181 241.345 729.181 239.815C729.181 238.27 728.041 237.235 726.451 237.235C724.846 237.235 723.706 238.27 723.706 239.815C723.706 241.345 724.846 242.41 726.451 242.41ZM738.091 234.52C737.536 234.52 737.116 234.115 737.116 233.59C737.116 233.065 737.536 232.645 738.091 232.645C738.646 232.645 739.066 233.05 739.066 233.56C739.066 234.1 738.661 234.52 738.091 234.52ZM737.371 244V236.05H738.811V244H737.371ZM743.84 244.09C742.52 244.09 741.215 243.685 740.555 243.16L741.155 242.02C741.83 242.5 742.91 242.845 743.945 242.845C745.28 242.845 745.835 242.44 745.835 241.765C745.835 239.98 740.81 241.525 740.81 238.36C740.81 236.935 742.085 235.975 744.125 235.975C745.16 235.975 746.33 236.245 747.02 236.695L746.405 237.835C745.685 237.37 744.89 237.205 744.11 237.205C742.85 237.205 742.235 237.67 742.235 238.3C742.235 240.175 747.275 238.645 747.275 241.735C747.275 243.175 745.955 244.09 743.84 244.09ZM757.123 242.5L757.573 243.535C757.138 243.91 756.478 244.09 755.833 244.09C754.228 244.09 753.313 243.205 753.313 241.6V237.235H751.963V236.05H753.313V234.31H754.753V236.05H757.033V237.235H754.753V241.54C754.753 242.395 755.203 242.875 755.998 242.875C756.418 242.875 756.823 242.74 757.123 242.5ZM763.559 235.975C765.494 235.975 766.859 237.085 766.859 239.425V244H765.419V239.59C765.419 238.03 764.639 237.265 763.274 237.265C761.744 237.265 760.754 238.18 760.754 239.905V244H759.314V232.87H760.754V237.175C761.354 236.41 762.344 235.975 763.559 235.975ZM776.753 240.07C776.753 240.19 776.738 240.37 776.723 240.505H770.273C770.453 241.9 771.578 242.83 773.153 242.83C774.083 242.83 774.863 242.515 775.448 241.87L776.243 242.8C775.523 243.64 774.428 244.09 773.108 244.09C770.543 244.09 768.833 242.395 768.833 240.025C768.833 237.67 770.528 235.975 772.823 235.975C775.118 235.975 776.753 237.625 776.753 240.07ZM772.823 237.19C771.443 237.19 770.423 238.12 770.273 239.47H775.373C775.223 238.135 774.218 237.19 772.823 237.19ZM786.996 235.975C789.321 235.975 791.016 237.595 791.016 240.025C791.016 242.455 789.321 244.09 786.996 244.09C785.826 244.09 784.806 243.64 784.161 242.74V244H782.781V232.87H784.221V237.25C784.881 236.395 785.871 235.975 786.996 235.975ZM786.876 242.83C788.406 242.83 789.561 241.72 789.561 240.025C789.561 238.33 788.406 237.235 786.876 237.235C785.361 237.235 784.206 238.33 784.206 240.025C784.206 241.72 785.361 242.83 786.876 242.83ZM794.386 237.385C794.896 236.455 795.886 235.975 797.281 235.975V237.37C797.161 237.355 797.056 237.355 796.951 237.355C795.406 237.355 794.446 238.3 794.446 240.04V244H793.006V236.05H794.386V237.385ZM799.775 234.52C799.22 234.52 798.8 234.115 798.8 233.59C798.8 233.065 799.22 232.645 799.775 232.645C800.33 232.645 800.75 233.05 800.75 233.56C800.75 234.1 800.345 234.52 799.775 234.52ZM799.055 244V236.05H800.495V244H799.055ZM809.305 232.87H810.745V244H809.365V242.74C808.72 243.64 807.7 244.09 806.53 244.09C804.205 244.09 802.51 242.455 802.51 240.025C802.51 237.595 804.205 235.975 806.53 235.975C807.655 235.975 808.645 236.395 809.305 237.25V232.87ZM806.65 242.83C808.165 242.83 809.32 241.72 809.32 240.025C809.32 238.33 808.165 237.235 806.65 237.235C805.12 237.235 803.965 238.33 803.965 240.025C803.965 241.72 805.12 242.83 806.65 242.83ZM819.709 236.05H821.074V242.92C821.074 245.725 819.649 247 816.949 247C815.494 247 814.024 246.595 813.154 245.815L813.844 244.705C814.579 245.335 815.734 245.74 816.904 245.74C818.779 245.74 819.634 244.87 819.634 243.07V242.44C818.944 243.265 817.909 243.67 816.769 243.67C814.474 243.67 812.734 242.11 812.734 239.815C812.734 237.52 814.474 235.975 816.769 235.975C817.954 235.975 819.034 236.41 819.709 237.28V236.05ZM816.934 242.41C818.524 242.41 819.664 241.345 819.664 239.815C819.664 238.27 818.524 237.235 816.934 237.235C815.329 237.235 814.189 238.27 814.189 239.815C814.189 241.345 815.329 242.41 816.934 242.41ZM831.011 240.07C831.011 240.19 830.996 240.37 830.981 240.505H824.531C824.711 241.9 825.836 242.83 827.411 242.83C828.341 242.83 829.121 242.515 829.706 241.87L830.501 242.8C829.781 243.64 828.686 244.09 827.366 244.09C824.801 244.09 823.091 242.395 823.091 240.025C823.091 237.67 824.786 235.975 827.081 235.975C829.376 235.975 831.011 237.625 831.011 240.07ZM827.081 237.19C825.701 237.19 824.681 238.12 824.531 239.47H829.631C829.481 238.135 828.476 237.19 827.081 237.19ZM841.254 235.975C843.579 235.975 845.274 237.595 845.274 240.025C845.274 242.455 843.579 244.09 841.254 244.09C840.084 244.09 839.064 243.64 838.419 242.74V244H837.039V232.87H838.479V237.25C839.139 236.395 840.129 235.975 841.254 235.975ZM841.134 242.83C842.664 242.83 843.819 241.72 843.819 240.025C843.819 238.33 842.664 237.235 841.134 237.235C839.619 237.235 838.464 238.33 838.464 240.025C838.464 241.72 839.619 242.83 841.134 242.83ZM854.448 240.07C854.448 240.19 854.433 240.37 854.418 240.505H847.968C848.148 241.9 849.273 242.83 850.848 242.83C851.778 242.83 852.558 242.515 853.143 241.87L853.938 242.8C853.218 243.64 852.123 244.09 850.803 244.09C848.238 244.09 846.528 242.395 846.528 240.025C846.528 237.67 848.223 235.975 850.518 235.975C852.813 235.975 854.448 237.625 854.448 240.07ZM850.518 237.19C849.138 237.19 848.118 238.12 847.968 239.47H853.068C852.918 238.135 851.913 237.19 850.518 237.19ZM860.468 242.5L860.918 243.535C860.483 243.91 859.823 244.09 859.178 244.09C857.573 244.09 856.658 243.205 856.658 241.6V237.235H855.308V236.05H856.658V234.31H858.098V236.05H860.378V237.235H858.098V241.54C858.098 242.395 858.548 242.875 859.343 242.875C859.763 242.875 860.168 242.74 860.468 242.5ZM873.252 236.05H874.542L871.572 244H870.192L867.897 237.97L865.572 244H864.192L861.237 236.05H862.602L864.912 242.38L867.312 236.05H868.527L870.882 242.41L873.252 236.05ZM882.969 240.07C882.969 240.19 882.954 240.37 882.939 240.505H876.489C876.669 241.9 877.794 242.83 879.369 242.83C880.299 242.83 881.079 242.515 881.664 241.87L882.459 242.8C881.739 243.64 880.644 244.09 879.324 244.09C876.759 244.09 875.049 242.395 875.049 240.025C875.049 237.67 876.744 235.975 879.039 235.975C881.334 235.975 882.969 237.625 882.969 240.07ZM879.039 237.19C877.659 237.19 876.639 238.12 876.489 239.47H881.589C881.439 238.135 880.434 237.19 879.039 237.19ZM892.154 240.07C892.154 240.19 892.139 240.37 892.124 240.505H885.674C885.854 241.9 886.979 242.83 888.554 242.83C889.484 242.83 890.264 242.515 890.849 241.87L891.644 242.8C890.924 243.64 889.829 244.09 888.509 244.09C885.944 244.09 884.234 242.395 884.234 240.025C884.234 237.67 885.929 235.975 888.224 235.975C890.519 235.975 892.154 237.625 892.154 240.07ZM888.224 237.19C886.844 237.19 885.824 238.12 885.674 239.47H890.774C890.624 238.135 889.619 237.19 888.224 237.19ZM898.398 235.975C900.333 235.975 901.698 237.085 901.698 239.425V244H900.258V239.59C900.258 238.03 899.478 237.265 898.113 237.265C896.583 237.265 895.593 238.18 895.593 239.905V244H894.153V236.05H895.533V237.25C896.118 236.44 897.138 235.975 898.398 235.975ZM912.636 235.975C914.571 235.975 915.936 237.085 915.936 239.425V244H914.496V239.59C914.496 238.03 913.716 237.265 912.351 237.265C910.821 237.265 909.831 238.18 909.831 239.905V244H908.391V232.87H909.831V237.175C910.431 236.41 911.421 235.975 912.636 235.975ZM925.83 240.07C925.83 240.19 925.815 240.37 925.8 240.505H919.35C919.53 241.9 920.655 242.83 922.23 242.83C923.16 242.83 923.94 242.515 924.525 241.87L925.32 242.8C924.6 243.64 923.505 244.09 922.185 244.09C919.62 244.09 917.91 242.395 917.91 240.025C917.91 237.67 919.605 235.975 921.9 235.975C924.195 235.975 925.83 237.625 925.83 240.07ZM921.9 237.19C920.52 237.19 919.5 238.12 919.35 239.47H924.45C924.3 238.135 923.295 237.19 921.9 237.19ZM930.505 235.975C932.68 235.975 933.91 237.025 933.91 239.2V244H932.545V242.95C932.065 243.67 931.18 244.09 929.935 244.09C928.135 244.09 926.995 243.13 926.995 241.75C926.995 240.475 927.82 239.425 930.19 239.425H932.47V239.14C932.47 237.925 931.765 237.22 930.34 237.22C929.395 237.22 928.435 237.55 927.82 238.075L927.22 236.995C928.045 236.335 929.23 235.975 930.505 235.975ZM930.175 242.98C931.255 242.98 932.11 242.485 932.47 241.57V240.46H930.25C928.825 240.46 928.42 241.015 928.42 241.69C928.42 242.485 929.08 242.98 930.175 242.98ZM937.955 237.385C938.465 236.455 939.455 235.975 940.85 235.975V237.37C940.73 237.355 940.625 237.355 940.52 237.355C938.975 237.355 938.015 238.3 938.015 240.04V244H936.575V236.05H937.955V237.385ZM943.345 234.52C942.79 234.52 942.37 234.115 942.37 233.59C942.37 233.065 942.79 232.645 943.345 232.645C943.9 232.645 944.32 233.05 944.32 233.56C944.32 234.1 943.915 234.52 943.345 234.52ZM942.625 244V236.05H944.065V244H942.625ZM951.059 235.975C952.994 235.975 954.359 237.085 954.359 239.425V244H952.919V239.59C952.919 238.03 952.139 237.265 950.774 237.265C949.244 237.265 948.254 238.18 948.254 239.905V244H946.814V236.05H948.194V237.25C948.779 236.44 949.799 235.975 951.059 235.975ZM963.308 236.05H964.673V242.92C964.673 245.725 963.248 247 960.548 247C959.093 247 957.623 246.595 956.753 245.815L957.443 244.705C958.178 245.335 959.333 245.74 960.503 245.74C962.378 245.74 963.233 244.87 963.233 243.07V242.44C962.543 243.265 961.508 243.67 960.368 243.67C958.073 243.67 956.333 242.11 956.333 239.815C956.333 237.52 958.073 235.975 960.368 235.975C961.553 235.975 962.633 236.41 963.308 237.28V236.05ZM960.533 242.41C962.123 242.41 963.263 241.345 963.263 239.815C963.263 238.27 962.123 237.235 960.533 237.235C958.928 237.235 957.788 238.27 957.788 239.815C957.788 241.345 958.928 242.41 960.533 242.41ZM974.348 235.975C976.523 235.975 977.753 237.025 977.753 239.2V244H976.388V242.95C975.908 243.67 975.023 244.09 973.778 244.09C971.978 244.09 970.838 243.13 970.838 241.75C970.838 240.475 971.663 239.425 974.033 239.425H976.313V239.14C976.313 237.925 975.608 237.22 974.183 237.22C973.238 237.22 972.278 237.55 971.663 238.075L971.063 236.995C971.888 236.335 973.073 235.975 974.348 235.975ZM974.018 242.98C975.098 242.98 975.953 242.485 976.313 241.57V240.46H974.093C972.668 240.46 972.263 241.015 972.263 241.69C972.263 242.485 972.923 242.98 974.018 242.98ZM984.663 235.975C986.598 235.975 987.963 237.085 987.963 239.425V244H986.523V239.59C986.523 238.03 985.743 237.265 984.378 237.265C982.848 237.265 981.858 238.18 981.858 239.905V244H980.418V236.05H981.798V237.25C982.383 236.44 983.403 235.975 984.663 235.975ZM996.732 232.87H998.172V244H996.792V242.74C996.147 243.64 995.127 244.09 993.957 244.09C991.632 244.09 989.937 242.455 989.937 240.025C989.937 237.595 991.632 235.975 993.957 235.975C995.082 235.975 996.072 236.395 996.732 237.25V232.87ZM994.077 242.83C995.592 242.83 996.747 241.72 996.747 240.025C996.747 238.33 995.592 237.235 994.077 237.235C992.547 237.235 991.392 238.33 991.392 240.025C991.392 241.72 992.547 242.83 994.077 242.83ZM1010.89 236.05H1012.33V244H1010.97V242.8C1010.38 243.625 1009.39 244.09 1008.27 244.09C1006.21 244.09 1004.85 242.965 1004.85 240.625V236.05H1006.29V240.46C1006.29 242.02 1007.07 242.8 1008.43 242.8C1009.93 242.8 1010.89 241.87 1010.89 240.16V236.05ZM1019.32 235.975C1021.26 235.975 1022.62 237.085 1022.62 239.425V244H1021.18V239.59C1021.18 238.03 1020.4 237.265 1019.04 237.265C1017.51 237.265 1016.52 238.18 1016.52 239.905V244H1015.08V236.05H1016.46V237.25C1017.04 236.44 1018.06 235.975 1019.32 235.975ZM1031.39 232.87H1032.83V244H1031.45V242.74C1030.8 243.64 1029.78 244.09 1028.61 244.09C1026.29 244.09 1024.59 242.455 1024.59 240.025C1024.59 237.595 1026.29 235.975 1028.61 235.975C1029.74 235.975 1030.73 236.395 1031.39 237.25V232.87ZM1028.73 242.83C1030.25 242.83 1031.4 241.72 1031.4 240.025C1031.4 238.33 1030.25 237.235 1028.73 237.235C1027.2 237.235 1026.05 238.33 1026.05 240.025C1026.05 241.72 1027.2 242.83 1028.73 242.83ZM1042.74 240.07C1042.74 240.19 1042.72 240.37 1042.71 240.505H1036.26C1036.44 241.9 1037.56 242.83 1039.14 242.83C1040.07 242.83 1040.85 242.515 1041.43 241.87L1042.23 242.8C1041.51 243.64 1040.41 244.09 1039.09 244.09C1036.53 244.09 1034.82 242.395 1034.82 240.025C1034.82 237.67 1036.51 235.975 1038.81 235.975C1041.1 235.975 1042.74 237.625 1042.74 240.07ZM1038.81 237.19C1037.43 237.19 1036.41 238.12 1036.26 239.47H1041.36C1041.21 238.135 1040.2 237.19 1038.81 237.19ZM1046.12 237.385C1046.63 236.455 1047.62 235.975 1049.01 235.975V237.37C1048.89 237.355 1048.79 237.355 1048.68 237.355C1047.14 237.355 1046.18 238.3 1046.18 240.04V244H1044.74V236.05H1046.12V237.385ZM1053.13 244.09C1051.81 244.09 1050.5 243.685 1049.84 243.16L1050.44 242.02C1051.12 242.5 1052.2 242.845 1053.23 242.845C1054.57 242.845 1055.12 242.44 1055.12 241.765C1055.12 239.98 1050.1 241.525 1050.1 238.36C1050.1 236.935 1051.37 235.975 1053.41 235.975C1054.45 235.975 1055.62 236.245 1056.31 236.695L1055.69 237.835C1054.97 237.37 1054.18 237.205 1053.4 237.205C1052.14 237.205 1051.52 237.67 1051.52 238.3C1051.52 240.175 1056.56 238.645 1056.56 241.735C1056.56 243.175 1055.24 244.09 1053.13 244.09ZM1062.38 242.5L1062.83 243.535C1062.4 243.91 1061.74 244.09 1061.09 244.09C1059.49 244.09 1058.57 243.205 1058.57 241.6V237.235H1057.22V236.05H1058.57V234.31H1060.01V236.05H1062.29V237.235H1060.01V241.54C1060.01 242.395 1060.46 242.875 1061.26 242.875C1061.68 242.875 1062.08 242.74 1062.38 242.5ZM1067.47 235.975C1069.64 235.975 1070.87 237.025 1070.87 239.2V244H1069.51V242.95C1069.03 243.67 1068.14 244.09 1066.9 244.09C1065.1 244.09 1063.96 243.13 1063.96 241.75C1063.96 240.475 1064.78 239.425 1067.15 239.425H1069.43V239.14C1069.43 237.925 1068.73 237.22 1067.3 237.22C1066.36 237.22 1065.4 237.55 1064.78 238.075L1064.18 236.995C1065.01 236.335 1066.19 235.975 1067.47 235.975ZM1067.14 242.98C1068.22 242.98 1069.07 242.485 1069.43 241.57V240.46H1067.21C1065.79 240.46 1065.38 241.015 1065.38 241.69C1065.38 242.485 1066.04 242.98 1067.14 242.98ZM1077.78 235.975C1079.72 235.975 1081.08 237.085 1081.08 239.425V244H1079.64V239.59C1079.64 238.03 1078.86 237.265 1077.5 237.265C1075.97 237.265 1074.98 238.18 1074.98 239.905V244H1073.54V236.05H1074.92V237.25C1075.5 236.44 1076.52 235.975 1077.78 235.975ZM1089.85 232.87H1091.29V244H1089.91V242.74C1089.27 243.64 1088.25 244.09 1087.08 244.09C1084.75 244.09 1083.06 242.455 1083.06 240.025C1083.06 237.595 1084.75 235.975 1087.08 235.975C1088.2 235.975 1089.19 236.395 1089.85 237.25V232.87ZM1087.2 242.83C1088.71 242.83 1089.87 241.72 1089.87 240.025C1089.87 238.33 1088.71 237.235 1087.2 237.235C1085.67 237.235 1084.51 238.33 1084.51 240.025C1084.51 241.72 1085.67 242.83 1087.2 242.83ZM1094.74 234.52C1094.18 234.52 1093.76 234.115 1093.76 233.59C1093.76 233.065 1094.18 232.645 1094.74 232.645C1095.29 232.645 1095.71 233.05 1095.71 233.56C1095.71 234.1 1095.31 234.52 1094.74 234.52ZM1094.02 244V236.05H1095.46V244H1094.02ZM1102.45 235.975C1104.39 235.975 1105.75 237.085 1105.75 239.425V244H1104.31V239.59C1104.31 238.03 1103.53 237.265 1102.17 237.265C1100.64 237.265 1099.65 238.18 1099.65 239.905V244H1098.21V236.05H1099.59V237.25C1100.17 236.44 1101.19 235.975 1102.45 235.975ZM1114.7 236.05H1116.06V242.92C1116.06 245.725 1114.64 247 1111.94 247C1110.48 247 1109.01 246.595 1108.14 245.815L1108.83 244.705C1109.57 245.335 1110.72 245.74 1111.89 245.74C1113.77 245.74 1114.62 244.87 1114.62 243.07V242.44C1113.93 243.265 1112.9 243.67 1111.76 243.67C1109.46 243.67 1107.72 242.11 1107.72 239.815C1107.72 237.52 1109.46 235.975 1111.76 235.975C1112.94 235.975 1114.02 236.41 1114.7 237.28V236.05ZM1111.92 242.41C1113.51 242.41 1114.65 241.345 1114.65 239.815C1114.65 238.27 1113.51 237.235 1111.92 237.235C1110.32 237.235 1109.18 238.27 1109.18 239.815C1109.18 241.345 1110.32 242.41 1111.92 242.41ZM1119.18 242.035C1119.75 242.035 1120.15 242.47 1120.15 243.055C1120.15 243.355 1120.09 243.58 1119.9 244.135L1119.19 246.22H1118.25L1118.8 243.985C1118.43 243.85 1118.17 243.505 1118.17 243.055C1118.17 242.455 1118.61 242.035 1119.18 242.035ZM645.58 262.975C647.905 262.975 649.6 264.595 649.6 267.025C649.6 269.455 647.905 271.09 645.58 271.09C644.41 271.09 643.39 270.64 642.745 269.74V271H641.365V259.87H642.805V264.25C643.465 263.395 644.455 262.975 645.58 262.975ZM645.46 269.83C646.99 269.83 648.145 268.72 648.145 267.025C648.145 265.33 646.99 264.235 645.46 264.235C643.945 264.235 642.79 265.33 642.79 267.025C642.79 268.72 643.945 269.83 645.46 269.83ZM658.775 267.07C658.775 267.19 658.76 267.37 658.745 267.505H652.295C652.475 268.9 653.6 269.83 655.175 269.83C656.105 269.83 656.885 269.515 657.47 268.87L658.265 269.8C657.545 270.64 656.45 271.09 655.13 271.09C652.565 271.09 650.855 269.395 650.855 267.025C650.855 264.67 652.55 262.975 654.845 262.975C657.14 262.975 658.775 264.625 658.775 267.07ZM654.845 264.19C653.465 264.19 652.445 265.12 652.295 266.47H657.395C657.245 265.135 656.24 264.19 654.845 264.19ZM664.794 269.5L665.244 270.535C664.809 270.91 664.149 271.09 663.504 271.09C661.899 271.09 660.984 270.205 660.984 268.6V264.235H659.634V263.05H660.984V261.31H662.424V263.05H664.704V264.235H662.424V268.54C662.424 269.395 662.874 269.875 663.669 269.875C664.089 269.875 664.494 269.74 664.794 269.5ZM677.579 263.05H678.869L675.899 271H674.519L672.224 264.97L669.899 271H668.519L665.564 263.05H666.929L669.239 269.38L671.639 263.05H672.854L675.209 269.41L677.579 263.05ZM687.295 267.07C687.295 267.19 687.28 267.37 687.265 267.505H680.815C680.995 268.9 682.12 269.83 683.695 269.83C684.625 269.83 685.405 269.515 685.99 268.87L686.785 269.8C686.065 270.64 684.97 271.09 683.65 271.09C681.085 271.09 679.375 269.395 679.375 267.025C679.375 264.67 681.07 262.975 683.365 262.975C685.66 262.975 687.295 264.625 687.295 267.07ZM683.365 264.19C681.985 264.19 680.965 265.12 680.815 266.47H685.915C685.765 265.135 684.76 264.19 683.365 264.19ZM696.48 267.07C696.48 267.19 696.465 267.37 696.45 267.505H690C690.18 268.9 691.305 269.83 692.88 269.83C693.81 269.83 694.59 269.515 695.175 268.87L695.97 269.8C695.25 270.64 694.155 271.09 692.835 271.09C690.27 271.09 688.56 269.395 688.56 267.025C688.56 264.67 690.255 262.975 692.55 262.975C694.845 262.975 696.48 264.625 696.48 267.07ZM692.55 264.19C691.17 264.19 690.15 265.12 690 266.47H695.1C694.95 265.135 693.945 264.19 692.55 264.19ZM702.724 262.975C704.659 262.975 706.024 264.085 706.024 266.425V271H704.584V266.59C704.584 265.03 703.804 264.265 702.439 264.265C700.909 264.265 699.919 265.18 699.919 266.905V271H698.479V263.05H699.859V264.25C700.444 263.44 701.464 262.975 702.724 262.975ZM714.998 271.09C713.678 271.09 712.373 270.685 711.713 270.16L712.313 269.02C712.988 269.5 714.068 269.845 715.103 269.845C716.438 269.845 716.993 269.44 716.993 268.765C716.993 266.98 711.968 268.525 711.968 265.36C711.968 263.935 713.243 262.975 715.283 262.975C716.318 262.975 717.488 263.245 718.178 263.695L717.563 264.835C716.843 264.37 716.048 264.205 715.268 264.205C714.008 264.205 713.393 264.67 713.393 265.3C713.393 267.175 718.433 265.645 718.433 268.735C718.433 270.175 717.113 271.09 714.998 271.09ZM727.417 267.07C727.417 267.19 727.402 267.37 727.387 267.505H720.937C721.117 268.9 722.242 269.83 723.817 269.83C724.747 269.83 725.527 269.515 726.112 268.87L726.907 269.8C726.187 270.64 725.092 271.09 723.772 271.09C721.207 271.09 719.497 269.395 719.497 267.025C719.497 264.67 721.192 262.975 723.487 262.975C725.782 262.975 727.417 264.625 727.417 267.07ZM723.487 264.19C722.107 264.19 721.087 265.12 720.937 266.47H726.037C725.887 265.135 724.882 264.19 723.487 264.19ZM736.602 267.07C736.602 267.19 736.587 267.37 736.572 267.505H730.122C730.302 268.9 731.427 269.83 733.002 269.83C733.932 269.83 734.712 269.515 735.297 268.87L736.092 269.8C735.372 270.64 734.277 271.09 732.957 271.09C730.392 271.09 728.682 269.395 728.682 267.025C728.682 264.67 730.377 262.975 732.672 262.975C734.967 262.975 736.602 264.625 736.602 267.07ZM732.672 264.19C731.292 264.19 730.272 265.12 730.122 266.47H735.222C735.072 265.135 734.067 264.19 732.672 264.19ZM739.321 261.52C738.766 261.52 738.346 261.115 738.346 260.59C738.346 260.065 738.766 259.645 739.321 259.645C739.876 259.645 740.296 260.05 740.296 260.56C740.296 261.1 739.891 261.52 739.321 261.52ZM738.601 271V263.05H740.041V271H738.601ZM747.036 262.975C748.971 262.975 750.336 264.085 750.336 266.425V271H748.896V266.59C748.896 265.03 748.116 264.265 746.751 264.265C745.221 264.265 744.231 265.18 744.231 266.905V271H742.791V263.05H744.171V264.25C744.756 263.44 745.776 262.975 747.036 262.975ZM759.285 263.05H760.65V269.92C760.65 272.725 759.225 274 756.525 274C755.07 274 753.6 273.595 752.73 272.815L753.42 271.705C754.155 272.335 755.31 272.74 756.48 272.74C758.355 272.74 759.21 271.87 759.21 270.07V269.44C758.52 270.265 757.485 270.67 756.345 270.67C754.05 270.67 752.31 269.11 752.31 266.815C752.31 264.52 754.05 262.975 756.345 262.975C757.53 262.975 758.61 263.41 759.285 264.28V263.05ZM756.51 269.41C758.1 269.41 759.24 268.345 759.24 266.815C759.24 265.27 758.1 264.235 756.51 264.235C754.905 264.235 753.765 265.27 753.765 266.815C753.765 268.345 754.905 269.41 756.51 269.41ZM770.324 262.975C772.499 262.975 773.729 264.025 773.729 266.2V271H772.364V269.95C771.884 270.67 770.999 271.09 769.754 271.09C767.954 271.09 766.814 270.13 766.814 268.75C766.814 267.475 767.639 266.425 770.009 266.425H772.289V266.14C772.289 264.925 771.584 264.22 770.159 264.22C769.214 264.22 768.254 264.55 767.639 265.075L767.039 263.995C767.864 263.335 769.049 262.975 770.324 262.975ZM769.994 269.98C771.074 269.98 771.929 269.485 772.289 268.57V267.46H770.069C768.644 267.46 768.239 268.015 768.239 268.69C768.239 269.485 768.899 269.98 769.994 269.98ZM780.639 262.975C782.574 262.975 783.939 264.085 783.939 266.425V271H782.499V266.59C782.499 265.03 781.719 264.265 780.354 264.265C778.824 264.265 777.834 265.18 777.834 266.905V271H776.394V263.05H777.774V264.25C778.359 263.44 779.379 262.975 780.639 262.975ZM792.708 259.87H794.148V271H792.768V269.74C792.123 270.64 791.103 271.09 789.933 271.09C787.608 271.09 785.913 269.455 785.913 267.025C785.913 264.595 787.608 262.975 789.933 262.975C791.058 262.975 792.048 263.395 792.708 264.25V259.87ZM790.053 269.83C791.568 269.83 792.723 268.72 792.723 267.025C792.723 265.33 791.568 264.235 790.053 264.235C788.523 264.235 787.368 265.33 787.368 267.025C787.368 268.72 788.523 269.83 790.053 269.83ZM802.281 264.385C802.791 263.455 803.781 262.975 805.176 262.975V264.37C805.056 264.355 804.951 264.355 804.846 264.355C803.301 264.355 802.341 265.3 802.341 267.04V271H800.901V263.05H802.281V264.385ZM814.063 267.07C814.063 267.19 814.048 267.37 814.033 267.505H807.583C807.763 268.9 808.888 269.83 810.463 269.83C811.393 269.83 812.173 269.515 812.758 268.87L813.553 269.8C812.833 270.64 811.738 271.09 810.418 271.09C807.853 271.09 806.143 269.395 806.143 267.025C806.143 264.67 807.838 262.975 810.133 262.975C812.428 262.975 814.063 264.625 814.063 267.07ZM810.133 264.19C808.753 264.19 807.733 265.12 807.583 266.47H812.683C812.533 265.135 811.528 264.19 810.133 264.19ZM826.007 262.975C827.942 262.975 829.262 264.085 829.262 266.425V271H827.822V266.59C827.822 265.03 827.072 264.265 825.767 264.265C824.327 264.265 823.382 265.18 823.382 266.905V271H821.942V266.59C821.942 265.03 821.192 264.265 819.887 264.265C818.447 264.265 817.502 265.18 817.502 266.905V271H816.062V263.05H817.442V264.235C818.012 263.425 818.987 262.975 820.187 262.975C821.402 262.975 822.422 263.455 822.947 264.445C823.547 263.545 824.657 262.975 826.007 262.975ZM839.141 267.07C839.141 267.19 839.126 267.37 839.111 267.505H832.661C832.841 268.9 833.966 269.83 835.541 269.83C836.471 269.83 837.251 269.515 837.836 268.87L838.631 269.8C837.911 270.64 836.816 271.09 835.496 271.09C832.931 271.09 831.221 269.395 831.221 267.025C831.221 264.67 832.916 262.975 835.211 262.975C837.506 262.975 839.141 264.625 839.141 267.07ZM835.211 264.19C833.831 264.19 832.811 265.12 832.661 266.47H837.761C837.611 265.135 836.606 264.19 835.211 264.19ZM851.085 262.975C853.02 262.975 854.34 264.085 854.34 266.425V271H852.9V266.59C852.9 265.03 852.15 264.265 850.845 264.265C849.405 264.265 848.46 265.18 848.46 266.905V271H847.02V266.59C847.02 265.03 846.27 264.265 844.965 264.265C843.525 264.265 842.58 265.18 842.58 266.905V271H841.14V263.05H842.52V264.235C843.09 263.425 844.065 262.975 845.265 262.975C846.48 262.975 847.5 263.455 848.025 264.445C848.625 263.545 849.735 262.975 851.085 262.975ZM861.205 262.975C863.53 262.975 865.225 264.595 865.225 267.025C865.225 269.455 863.53 271.09 861.205 271.09C860.035 271.09 859.015 270.64 858.37 269.74V271H856.99V259.87H858.43V264.25C859.09 263.395 860.08 262.975 861.205 262.975ZM861.085 269.83C862.615 269.83 863.77 268.72 863.77 267.025C863.77 265.33 862.615 264.235 861.085 264.235C859.57 264.235 858.415 265.33 858.415 267.025C858.415 268.72 859.57 269.83 861.085 269.83ZM874.4 267.07C874.4 267.19 874.385 267.37 874.37 267.505H867.92C868.1 268.9 869.225 269.83 870.8 269.83C871.73 269.83 872.51 269.515 873.095 268.87L873.89 269.8C873.17 270.64 872.075 271.09 870.755 271.09C868.19 271.09 866.48 269.395 866.48 267.025C866.48 264.67 868.175 262.975 870.47 262.975C872.765 262.975 874.4 264.625 874.4 267.07ZM870.47 264.19C869.09 264.19 868.07 265.12 867.92 266.47H873.02C872.87 265.135 871.865 264.19 870.47 264.19ZM877.779 264.385C878.289 263.455 879.279 262.975 880.674 262.975V264.37C880.554 264.355 880.449 264.355 880.344 264.355C878.799 264.355 877.839 265.3 877.839 267.04V271H876.399V263.05H877.779V264.385ZM883.169 261.52C882.614 261.52 882.194 261.115 882.194 260.59C882.194 260.065 882.614 259.645 883.169 259.645C883.724 259.645 884.144 260.05 884.144 260.56C884.144 261.1 883.739 261.52 883.169 261.52ZM882.449 271V263.05H883.889V271H882.449ZM890.883 262.975C892.818 262.975 894.183 264.085 894.183 266.425V271H892.743V266.59C892.743 265.03 891.963 264.265 890.598 264.265C889.068 264.265 888.078 265.18 888.078 266.905V271H886.638V263.05H888.018V264.25C888.603 263.44 889.623 262.975 890.883 262.975ZM903.132 263.05H904.497V269.92C904.497 272.725 903.072 274 900.372 274C898.917 274 897.447 273.595 896.577 272.815L897.267 271.705C898.002 272.335 899.157 272.74 900.327 272.74C902.202 272.74 903.057 271.87 903.057 270.07V269.44C902.367 270.265 901.332 270.67 900.192 270.67C897.897 270.67 896.157 269.11 896.157 266.815C896.157 264.52 897.897 262.975 900.192 262.975C901.377 262.975 902.457 263.41 903.132 264.28V263.05ZM900.357 269.41C901.947 269.41 903.087 268.345 903.087 266.815C903.087 265.27 901.947 264.235 900.357 264.235C898.752 264.235 897.612 265.27 897.612 266.815C897.612 268.345 898.752 269.41 900.357 269.41ZM907.594 271.09C907.039 271.09 906.574 270.655 906.574 270.055C906.574 269.455 907.039 269.035 907.594 269.035C908.134 269.035 908.584 269.455 908.584 270.055C908.584 270.655 908.134 271.09 907.594 271.09ZM922.416 260.5H923.916V271H922.686L916.386 263.17V271H914.886V260.5H916.116L922.416 268.33V260.5ZM930.253 271.09C927.868 271.09 926.113 269.395 926.113 267.025C926.113 264.655 927.868 262.975 930.253 262.975C932.638 262.975 934.378 264.655 934.378 267.025C934.378 269.395 932.638 271.09 930.253 271.09ZM930.253 269.83C931.783 269.83 932.923 268.72 932.923 267.025C932.923 265.33 931.783 264.235 930.253 264.235C928.723 264.235 927.568 265.33 927.568 267.025C927.568 268.72 928.723 269.83 930.253 269.83ZM940.39 269.5L940.84 270.535C940.405 270.91 939.745 271.09 939.1 271.09C937.495 271.09 936.58 270.205 936.58 268.6V264.235H935.23V263.05H936.58V261.31H938.02V263.05H940.3V264.235H938.02V268.54C938.02 269.395 938.47 269.875 939.265 269.875C939.685 269.875 940.09 269.74 940.39 269.5ZM949.502 267.07C949.502 267.19 949.487 267.37 949.472 267.505H943.022C943.202 268.9 944.327 269.83 945.902 269.83C946.832 269.83 947.612 269.515 948.197 268.87L948.992 269.8C948.272 270.64 947.177 271.09 945.857 271.09C943.292 271.09 941.582 269.395 941.582 267.025C941.582 264.67 943.277 262.975 945.572 262.975C947.867 262.975 949.502 264.625 949.502 267.07ZM945.572 264.19C944.192 264.19 943.172 265.12 943.022 266.47H948.122C947.972 265.135 946.967 264.19 945.572 264.19ZM953.782 271.09C952.462 271.09 951.157 270.685 950.497 270.16L951.097 269.02C951.772 269.5 952.852 269.845 953.887 269.845C955.222 269.845 955.777 269.44 955.777 268.765C955.777 266.98 950.752 268.525 950.752 265.36C950.752 263.935 952.027 262.975 954.067 262.975C955.102 262.975 956.272 263.245 956.962 263.695L956.347 264.835C955.627 264.37 954.832 264.205 954.052 264.205C952.792 264.205 952.177 264.67 952.177 265.3C952.177 267.175 957.217 265.645 957.217 268.735C957.217 270.175 955.897 271.09 953.782 271.09ZM965.94 262.975C968.115 262.975 969.345 264.025 969.345 266.2V271H967.98V269.95C967.5 270.67 966.615 271.09 965.37 271.09C963.57 271.09 962.43 270.13 962.43 268.75C962.43 267.475 963.255 266.425 965.625 266.425H967.905V266.14C967.905 264.925 967.2 264.22 965.775 264.22C964.83 264.22 963.87 264.55 963.255 265.075L962.655 263.995C963.48 263.335 964.665 262.975 965.94 262.975ZM965.61 269.98C966.69 269.98 967.545 269.485 967.905 268.57V267.46H965.685C964.26 267.46 963.855 268.015 963.855 268.69C963.855 269.485 964.515 269.98 965.61 269.98ZM973.39 264.385C973.9 263.455 974.89 262.975 976.285 262.975V264.37C976.165 264.355 976.06 264.355 975.955 264.355C974.41 264.355 973.45 265.3 973.45 267.04V271H972.01V263.05H973.39V264.385ZM985.171 267.07C985.171 267.19 985.156 267.37 985.141 267.505H978.691C978.871 268.9 979.996 269.83 981.571 269.83C982.501 269.83 983.281 269.515 983.866 268.87L984.661 269.8C983.941 270.64 982.846 271.09 981.526 271.09C978.961 271.09 977.251 269.395 977.251 267.025C977.251 264.67 978.946 262.975 981.241 262.975C983.536 262.975 985.171 264.625 985.171 267.07ZM981.241 264.19C979.861 264.19 978.841 265.12 978.691 266.47H983.791C983.641 265.135 982.636 264.19 981.241 264.19ZM995.219 269.5L995.669 270.535C995.234 270.91 994.574 271.09 993.929 271.09C992.324 271.09 991.409 270.205 991.409 268.6V264.235H990.059V263.05H991.409V261.31H992.849V263.05H995.129V264.235H992.849V268.54C992.849 269.395 993.299 269.875 994.094 269.875C994.514 269.875 994.919 269.74 995.219 269.5ZM1001.65 262.975C1003.59 262.975 1004.95 264.085 1004.95 266.425V271H1003.51V266.59C1003.51 265.03 1002.73 264.265 1001.37 264.265C999.84 264.265 998.85 265.18 998.85 266.905V271H997.41V259.87H998.85V264.175C999.45 263.41 1000.44 262.975 1001.65 262.975ZM1014.85 267.07C1014.85 267.19 1014.83 267.37 1014.82 267.505H1008.37C1008.55 268.9 1009.67 269.83 1011.25 269.83C1012.18 269.83 1012.96 269.515 1013.54 268.87L1014.34 269.8C1013.62 270.64 1012.52 271.09 1011.2 271.09C1008.64 271.09 1006.93 269.395 1006.93 267.025C1006.93 264.67 1008.62 262.975 1010.92 262.975C1013.21 262.975 1014.85 264.625 1014.85 267.07ZM1010.92 264.19C1009.54 264.19 1008.52 265.12 1008.37 266.47H1013.47C1013.32 265.135 1012.31 264.19 1010.92 264.19ZM1025.09 262.975C1027.42 262.975 1029.11 264.595 1029.11 267.025C1029.11 269.455 1027.42 271.09 1025.09 271.09C1023.92 271.09 1022.9 270.64 1022.26 269.74V271H1020.88V259.87H1022.32V264.25C1022.98 263.395 1023.97 262.975 1025.09 262.975ZM1024.97 269.83C1026.5 269.83 1027.66 268.72 1027.66 267.025C1027.66 265.33 1026.5 264.235 1024.97 264.235C1023.46 264.235 1022.3 265.33 1022.3 267.025C1022.3 268.72 1023.46 269.83 1024.97 269.83ZM1032.48 264.385C1032.99 263.455 1033.98 262.975 1035.38 262.975V264.37C1035.26 264.355 1035.15 264.355 1035.05 264.355C1033.5 264.355 1032.54 265.3 1032.54 267.04V271H1031.1V263.05H1032.48V264.385ZM1044.26 267.07C1044.26 267.19 1044.25 267.37 1044.23 267.505H1037.78C1037.96 268.9 1039.09 269.83 1040.66 269.83C1041.59 269.83 1042.37 269.515 1042.96 268.87L1043.75 269.8C1043.03 270.64 1041.94 271.09 1040.62 271.09C1038.05 271.09 1036.34 269.395 1036.34 267.025C1036.34 264.67 1038.04 262.975 1040.33 262.975C1042.63 262.975 1044.26 264.625 1044.26 267.07ZM1040.33 264.19C1038.95 264.19 1037.93 265.12 1037.78 266.47H1042.88C1042.73 265.135 1041.73 264.19 1040.33 264.19ZM1048.94 262.975C1051.11 262.975 1052.34 264.025 1052.34 266.2V271H1050.98V269.95C1050.5 270.67 1049.61 271.09 1048.37 271.09C1046.57 271.09 1045.43 270.13 1045.43 268.75C1045.43 267.475 1046.25 266.425 1048.62 266.425H1050.9V266.14C1050.9 264.925 1050.2 264.22 1048.77 264.22C1047.83 264.22 1046.87 264.55 1046.25 265.075L1045.65 263.995C1046.48 263.335 1047.66 262.975 1048.94 262.975ZM1048.61 269.98C1049.69 269.98 1050.54 269.485 1050.9 268.57V267.46H1048.68C1047.26 267.46 1046.85 268.015 1046.85 268.69C1046.85 269.485 1047.51 269.98 1048.61 269.98ZM1061.11 259.87H1062.55V271H1061.17V269.74C1060.53 270.64 1059.51 271.09 1058.34 271.09C1056.01 271.09 1054.32 269.455 1054.32 267.025C1054.32 264.595 1056.01 262.975 1058.34 262.975C1059.46 262.975 1060.45 263.395 1061.11 264.25V259.87ZM1058.46 269.83C1059.97 269.83 1061.13 268.72 1061.13 267.025C1061.13 265.33 1059.97 264.235 1058.46 264.235C1056.93 264.235 1055.77 265.33 1055.77 267.025C1055.77 268.72 1056.93 269.83 1058.46 269.83ZM1068.74 271.09C1066.3 271.09 1064.54 269.395 1064.54 267.025C1064.54 264.655 1066.3 262.975 1068.74 262.975C1070.17 262.975 1071.35 263.56 1071.98 264.67L1070.89 265.375C1070.38 264.595 1069.6 264.235 1068.73 264.235C1067.17 264.235 1066 265.33 1066 267.025C1066 268.75 1067.17 269.83 1068.73 269.83C1069.6 269.83 1070.38 269.47 1070.89 268.69L1071.98 269.38C1071.35 270.49 1070.17 271.09 1068.74 271.09ZM1075.23 264.385C1075.74 263.455 1076.73 262.975 1078.12 262.975V264.37C1078 264.355 1077.9 264.355 1077.79 264.355C1076.25 264.355 1075.29 265.3 1075.29 267.04V271H1073.85V263.05H1075.23V264.385ZM1085.97 263.05H1087.41V271H1086.04V269.8C1085.46 270.625 1084.47 271.09 1083.34 271.09C1081.29 271.09 1079.92 269.965 1079.92 267.625V263.05H1081.36V267.46C1081.36 269.02 1082.14 269.8 1083.51 269.8C1085.01 269.8 1085.97 268.87 1085.97 267.16V263.05ZM1100.09 262.975C1102.03 262.975 1103.35 264.085 1103.35 266.425V271H1101.91V266.59C1101.91 265.03 1101.16 264.265 1099.85 264.265C1098.41 264.265 1097.47 265.18 1097.47 266.905V271H1096.03V266.59C1096.03 265.03 1095.28 264.265 1093.97 264.265C1092.53 264.265 1091.59 265.18 1091.59 266.905V271H1090.15V263.05H1091.53V264.235C1092.1 263.425 1093.07 262.975 1094.27 262.975C1095.49 262.975 1096.51 263.455 1097.03 264.445C1097.63 263.545 1098.74 262.975 1100.09 262.975ZM1110.21 262.975C1112.54 262.975 1114.23 264.595 1114.23 267.025C1114.23 269.455 1112.54 271.09 1110.21 271.09C1109.04 271.09 1108.02 270.64 1107.38 269.74V271H1106V259.87H1107.44V264.25C1108.1 263.395 1109.09 262.975 1110.21 262.975ZM1110.09 269.83C1111.62 269.83 1112.78 268.72 1112.78 267.025C1112.78 265.33 1111.62 264.235 1110.09 264.235C1108.58 264.235 1107.42 265.33 1107.42 267.025C1107.42 268.72 1108.58 269.83 1110.09 269.83ZM1118.5 271.09C1117.18 271.09 1115.88 270.685 1115.22 270.16L1115.82 269.02C1116.49 269.5 1117.57 269.845 1118.61 269.845C1119.94 269.845 1120.5 269.44 1120.5 268.765C1120.5 266.98 1115.47 268.525 1115.47 265.36C1115.47 263.935 1116.75 262.975 1118.79 262.975C1119.82 262.975 1120.99 263.245 1121.68 263.695L1121.07 264.835C1120.35 264.37 1119.55 264.205 1118.77 264.205C1117.51 264.205 1116.9 264.67 1116.9 265.3C1116.9 267.175 1121.94 265.645 1121.94 268.735C1121.94 270.175 1120.62 271.09 1118.5 271.09ZM641.365 298V286.87H642.805V298H641.365ZM652.739 294.07C652.739 294.19 652.724 294.37 652.709 294.505H646.259C646.439 295.9 647.564 296.83 649.139 296.83C650.069 296.83 650.849 296.515 651.434 295.87L652.229 296.8C651.509 297.64 650.414 298.09 649.094 298.09C646.529 298.09 644.819 296.395 644.819 294.025C644.819 291.67 646.514 289.975 648.809 289.975C651.104 289.975 652.739 291.625 652.739 294.07ZM648.809 291.19C647.429 291.19 646.409 292.12 646.259 293.47H651.359C651.209 292.135 650.204 291.19 648.809 291.19ZM657.414 289.975C659.589 289.975 660.819 291.025 660.819 293.2V298H659.454V296.95C658.974 297.67 658.089 298.09 656.844 298.09C655.044 298.09 653.904 297.13 653.904 295.75C653.904 294.475 654.729 293.425 657.099 293.425H659.379V293.14C659.379 291.925 658.674 291.22 657.249 291.22C656.304 291.22 655.344 291.55 654.729 292.075L654.129 290.995C654.954 290.335 656.139 289.975 657.414 289.975ZM657.084 296.98C658.164 296.98 659.019 296.485 659.379 295.57V294.46H657.159C655.734 294.46 655.329 295.015 655.329 295.69C655.329 296.485 655.989 296.98 657.084 296.98ZM669.588 286.87H671.028V298H669.648V296.74C669.003 297.64 667.983 298.09 666.813 298.09C664.488 298.09 662.793 296.455 662.793 294.025C662.793 291.595 664.488 289.975 666.813 289.975C667.938 289.975 668.928 290.395 669.588 291.25V286.87ZM666.933 296.83C668.448 296.83 669.603 295.72 669.603 294.025C669.603 292.33 668.448 291.235 666.933 291.235C665.403 291.235 664.248 292.33 664.248 294.025C664.248 295.72 665.403 296.83 666.933 296.83ZM674.473 288.52C673.918 288.52 673.498 288.115 673.498 287.59C673.498 287.065 673.918 286.645 674.473 286.645C675.028 286.645 675.448 287.05 675.448 287.56C675.448 288.1 675.043 288.52 674.473 288.52ZM673.753 298V290.05H675.193V298H673.753ZM682.187 289.975C684.122 289.975 685.487 291.085 685.487 293.425V298H684.047V293.59C684.047 292.03 683.267 291.265 681.902 291.265C680.372 291.265 679.382 292.18 679.382 293.905V298H677.942V290.05H679.322V291.25C679.907 290.44 680.927 289.975 682.187 289.975ZM694.436 290.05H695.801V296.92C695.801 299.725 694.376 301 691.676 301C690.221 301 688.751 300.595 687.881 299.815L688.571 298.705C689.306 299.335 690.461 299.74 691.631 299.74C693.506 299.74 694.361 298.87 694.361 297.07V296.44C693.671 297.265 692.636 297.67 691.496 297.67C689.201 297.67 687.461 296.11 687.461 293.815C687.461 291.52 689.201 289.975 691.496 289.975C692.681 289.975 693.761 290.41 694.436 291.28V290.05ZM691.661 296.41C693.251 296.41 694.391 295.345 694.391 293.815C694.391 292.27 693.251 291.235 691.661 291.235C690.056 291.235 688.916 292.27 688.916 293.815C688.916 295.345 690.056 296.41 691.661 296.41ZM706.601 296.5L707.051 297.535C706.616 297.91 705.956 298.09 705.311 298.09C703.706 298.09 702.791 297.205 702.791 295.6V291.235H701.441V290.05H702.791V288.31H704.231V290.05H706.511V291.235H704.231V295.54C704.231 296.395 704.681 296.875 705.476 296.875C705.896 296.875 706.301 296.74 706.601 296.5ZM711.933 298.09C709.548 298.09 707.793 296.395 707.793 294.025C707.793 291.655 709.548 289.975 711.933 289.975C714.318 289.975 716.058 291.655 716.058 294.025C716.058 296.395 714.318 298.09 711.933 298.09ZM711.933 296.83C713.463 296.83 714.603 295.72 714.603 294.025C714.603 292.33 713.463 291.235 711.933 291.235C710.403 291.235 709.248 292.33 709.248 294.025C709.248 295.72 710.403 296.83 711.933 296.83ZM726.098 296.5L726.548 297.535C726.113 297.91 725.453 298.09 724.808 298.09C723.203 298.09 722.288 297.205 722.288 295.6V291.235H720.938V290.05H722.288V288.31H723.728V290.05H726.008V291.235H723.728V295.54C723.728 296.395 724.178 296.875 724.973 296.875C725.393 296.875 725.798 296.74 726.098 296.5ZM732.534 289.975C734.469 289.975 735.834 291.085 735.834 293.425V298H734.394V293.59C734.394 292.03 733.614 291.265 732.249 291.265C730.719 291.265 729.729 292.18 729.729 293.905V298H728.289V286.87H729.729V291.175C730.329 290.41 731.319 289.975 732.534 289.975ZM745.728 294.07C745.728 294.19 745.713 294.37 745.698 294.505H739.248C739.428 295.9 740.553 296.83 742.128 296.83C743.058 296.83 743.838 296.515 744.423 295.87L745.218 296.8C744.498 297.64 743.403 298.09 742.083 298.09C739.518 298.09 737.808 296.395 737.808 294.025C737.808 291.67 739.503 289.975 741.798 289.975C744.093 289.975 745.728 291.625 745.728 294.07ZM741.798 291.19C740.418 291.19 739.398 292.12 739.248 293.47H744.348C744.198 292.135 743.193 291.19 741.798 291.19ZM754.666 287.965C753.811 287.965 753.376 288.445 753.376 289.36V290.05H755.686V291.235H753.406V298H751.966V291.235H750.616V290.05H751.966V289.345C751.966 287.8 752.896 286.78 754.591 286.78C755.206 286.78 755.806 286.93 756.211 287.245L755.776 288.34C755.476 288.115 755.086 287.965 754.666 287.965ZM764.112 294.07C764.112 294.19 764.097 294.37 764.082 294.505H757.632C757.812 295.9 758.937 296.83 760.512 296.83C761.442 296.83 762.222 296.515 762.807 295.87L763.602 296.8C762.882 297.64 761.787 298.09 760.467 298.09C757.902 298.09 756.192 296.395 756.192 294.025C756.192 291.67 757.887 289.975 760.182 289.975C762.477 289.975 764.112 291.625 764.112 294.07ZM760.182 291.19C758.802 291.19 757.782 292.12 757.632 293.47H762.732C762.582 292.135 761.577 291.19 760.182 291.19ZM768.786 289.975C770.961 289.975 772.191 291.025 772.191 293.2V298H770.826V296.95C770.346 297.67 769.461 298.09 768.216 298.09C766.416 298.09 765.276 297.13 765.276 295.75C765.276 294.475 766.101 293.425 768.471 293.425H770.751V293.14C770.751 291.925 770.046 291.22 768.621 291.22C767.676 291.22 766.716 291.55 766.101 292.075L765.501 290.995C766.326 290.335 767.511 289.975 768.786 289.975ZM768.456 296.98C769.536 296.98 770.391 296.485 770.751 295.57V294.46H768.531C767.106 294.46 766.701 295.015 766.701 295.69C766.701 296.485 767.361 296.98 768.456 296.98ZM777.136 298.09C775.816 298.09 774.511 297.685 773.851 297.16L774.451 296.02C775.126 296.5 776.206 296.845 777.241 296.845C778.576 296.845 779.131 296.44 779.131 295.765C779.131 293.98 774.106 295.525 774.106 292.36C774.106 290.935 775.381 289.975 777.421 289.975C778.456 289.975 779.626 290.245 780.316 290.695L779.701 291.835C778.981 291.37 778.186 291.205 777.406 291.205C776.146 291.205 775.531 291.67 775.531 292.3C775.531 294.175 780.571 292.645 780.571 295.735C780.571 297.175 779.251 298.09 777.136 298.09ZM786.391 296.5L786.841 297.535C786.406 297.91 785.746 298.09 785.101 298.09C783.496 298.09 782.581 297.205 782.581 295.6V291.235H781.231V290.05H782.581V288.31H784.021V290.05H786.301V291.235H784.021V295.54C784.021 296.395 784.471 296.875 785.266 296.875C785.686 296.875 786.091 296.74 786.391 296.5ZM796.015 298.09C793.63 298.09 791.875 296.395 791.875 294.025C791.875 291.655 793.63 289.975 796.015 289.975C798.4 289.975 800.14 291.655 800.14 294.025C800.14 296.395 798.4 298.09 796.015 298.09ZM796.015 296.83C797.545 296.83 798.685 295.72 798.685 294.025C798.685 292.33 797.545 291.235 796.015 291.235C794.485 291.235 793.33 292.33 793.33 294.025C793.33 295.72 794.485 296.83 796.015 296.83ZM805.042 287.965C804.187 287.965 803.752 288.445 803.752 289.36V290.05H806.062V291.235H803.782V298H802.342V291.235H800.992V290.05H802.342V289.345C802.342 287.8 803.272 286.78 804.967 286.78C805.582 286.78 806.182 286.93 806.587 287.245L806.152 288.34C805.852 288.115 805.462 287.965 805.042 287.965ZM817.523 298L814.538 294.295L812.888 295.825V298H811.448V286.87H812.888V294.01L817.223 290.05H818.963L815.618 293.335L819.293 298H817.523ZM824.834 289.975C826.769 289.975 828.134 291.085 828.134 293.425V298H826.694V293.59C826.694 292.03 825.914 291.265 824.549 291.265C823.019 291.265 822.029 292.18 822.029 293.905V298H820.589V290.05H821.969V291.25C822.554 290.44 823.574 289.975 824.834 289.975ZM834.248 298.09C831.863 298.09 830.108 296.395 830.108 294.025C830.108 291.655 831.863 289.975 834.248 289.975C836.633 289.975 838.373 291.655 838.373 294.025C838.373 296.395 836.633 298.09 834.248 298.09ZM834.248 296.83C835.778 296.83 836.918 295.72 836.918 294.025C836.918 292.33 835.778 291.235 834.248 291.235C832.718 291.235 831.563 292.33 831.563 294.025C831.563 295.72 832.718 296.83 834.248 296.83ZM850.884 290.05H852.174L849.204 298H847.824L845.529 291.97L843.204 298H841.824L838.869 290.05H840.234L842.544 296.38L844.944 290.05H846.159L848.514 296.41L850.884 290.05ZM853.636 298V286.87H855.076V298H853.636ZM865.01 294.07C865.01 294.19 864.995 294.37 864.98 294.505H858.53C858.71 295.9 859.835 296.83 861.41 296.83C862.34 296.83 863.12 296.515 863.705 295.87L864.5 296.8C863.78 297.64 862.685 298.09 861.365 298.09C858.8 298.09 857.09 296.395 857.09 294.025C857.09 291.67 858.785 289.975 861.08 289.975C863.375 289.975 865.01 291.625 865.01 294.07ZM861.08 291.19C859.7 291.19 858.68 292.12 858.53 293.47H863.63C863.48 292.135 862.475 291.19 861.08 291.19ZM873.07 286.87H874.51V298H873.13V296.74C872.485 297.64 871.465 298.09 870.295 298.09C867.97 298.09 866.275 296.455 866.275 294.025C866.275 291.595 867.97 289.975 870.295 289.975C871.42 289.975 872.41 290.395 873.07 291.25V286.87ZM870.415 296.83C871.93 296.83 873.085 295.72 873.085 294.025C873.085 292.33 871.93 291.235 870.415 291.235C868.885 291.235 867.73 292.33 867.73 294.025C867.73 295.72 868.885 296.83 870.415 296.83ZM883.474 290.05H884.839V296.92C884.839 299.725 883.414 301 880.714 301C879.259 301 877.789 300.595 876.919 299.815L877.609 298.705C878.344 299.335 879.499 299.74 880.669 299.74C882.544 299.74 883.399 298.87 883.399 297.07V296.44C882.709 297.265 881.674 297.67 880.534 297.67C878.239 297.67 876.499 296.11 876.499 293.815C876.499 291.52 878.239 289.975 880.534 289.975C881.719 289.975 882.799 290.41 883.474 291.28V290.05ZM880.699 296.41C882.289 296.41 883.429 295.345 883.429 293.815C883.429 292.27 882.289 291.235 880.699 291.235C879.094 291.235 877.954 292.27 877.954 293.815C877.954 295.345 879.094 296.41 880.699 296.41ZM894.776 294.07C894.776 294.19 894.761 294.37 894.746 294.505H888.296C888.476 295.9 889.601 296.83 891.176 296.83C892.106 296.83 892.886 296.515 893.471 295.87L894.266 296.8C893.546 297.64 892.451 298.09 891.131 298.09C888.566 298.09 886.856 296.395 886.856 294.025C886.856 291.67 888.551 289.975 890.846 289.975C893.141 289.975 894.776 291.625 894.776 294.07ZM890.846 291.19C889.466 291.19 888.446 292.12 888.296 293.47H893.396C893.246 292.135 892.241 291.19 890.846 291.19ZM901.148 298.09C900.593 298.09 900.128 297.655 900.128 297.055C900.128 296.455 900.593 296.035 901.148 296.035C901.688 296.035 902.138 296.455 902.138 297.055C902.138 297.655 901.688 298.09 901.148 298.09Z" fill="black" fill-opacity="0.7"/>
<path d="M678.25 135H673.93L673.885 112.05L662.5 131.175H660.43L649.045 112.185V135H644.725V103.5H648.415L661.555 125.64L674.515 103.5H678.205L678.25 135ZM695.759 110.925C702.284 110.925 705.974 114.075 705.974 120.6V135H701.879V131.85C700.439 134.01 697.784 135.27 694.049 135.27C688.649 135.27 685.229 132.39 685.229 128.25C685.229 124.425 687.704 121.275 694.814 121.275H701.654V120.42C701.654 116.775 699.539 114.66 695.264 114.66C692.429 114.66 689.549 115.65 687.704 117.225L685.904 113.985C688.379 112.005 691.934 110.925 695.759 110.925ZM694.769 131.94C698.009 131.94 700.574 130.455 701.654 127.71V124.38H694.994C690.719 124.38 689.504 126.045 689.504 128.07C689.504 130.455 691.484 131.94 694.769 131.94ZM726.703 110.925C732.508 110.925 736.603 114.255 736.603 121.275V135H732.283V121.77C732.283 117.09 729.943 114.795 725.848 114.795C721.258 114.795 718.288 117.54 718.288 122.715V135H713.968V111.15H718.108V114.75C719.863 112.32 722.923 110.925 726.703 110.925ZM753.283 110.925C759.808 110.925 763.498 114.075 763.498 120.6V135H759.403V131.85C757.963 134.01 755.308 135.27 751.573 135.27C746.173 135.27 742.753 132.39 742.753 128.25C742.753 124.425 745.228 121.275 752.338 121.275H759.178V120.42C759.178 116.775 757.063 114.66 752.788 114.66C749.953 114.66 747.073 115.65 745.228 117.225L743.428 113.985C745.903 112.005 749.458 110.925 753.283 110.925ZM752.293 131.94C755.533 131.94 758.098 130.455 759.178 127.71V124.38H752.518C748.243 124.38 747.028 126.045 747.028 128.07C747.028 130.455 749.008 131.94 752.293 131.94ZM790.344 111.15H794.439V131.76C794.439 140.175 790.164 144 782.064 144C777.699 144 773.289 142.785 770.679 140.445L772.749 137.115C774.954 139.005 778.419 140.22 781.929 140.22C787.554 140.22 790.119 137.61 790.119 132.21V130.32C788.049 132.795 784.944 134.01 781.524 134.01C774.639 134.01 769.419 129.33 769.419 122.445C769.419 115.56 774.639 110.925 781.524 110.925C785.079 110.925 788.319 112.23 790.344 114.84V111.15ZM782.019 130.23C786.789 130.23 790.209 127.035 790.209 122.445C790.209 117.81 786.789 114.705 782.019 114.705C777.204 114.705 773.784 117.81 773.784 122.445C773.784 127.035 777.204 130.23 782.019 130.23ZM824.249 123.21C824.249 123.57 824.204 124.11 824.159 124.515H804.809C805.349 128.7 808.724 131.49 813.449 131.49C816.239 131.49 818.579 130.545 820.334 128.61L822.719 131.4C820.559 133.92 817.274 135.27 813.314 135.27C805.619 135.27 800.489 130.185 800.489 123.075C800.489 116.01 805.574 110.925 812.459 110.925C819.344 110.925 824.249 115.875 824.249 123.21ZM812.459 114.57C808.319 114.57 805.259 117.36 804.809 121.41H820.109C819.659 117.405 816.644 114.57 812.459 114.57ZM859.207 111.15H863.437L851.872 137.385C849.757 142.425 847.012 144 843.367 144C841.072 144 838.732 143.235 837.247 141.795L839.092 138.555C840.262 139.68 841.747 140.31 843.367 140.31C845.437 140.31 846.742 139.365 847.912 136.62L848.677 134.955L838.147 111.15H842.647L850.972 130.23L859.207 111.15ZM877.025 135.27C869.87 135.27 864.605 130.185 864.605 123.075C864.605 115.965 869.87 110.925 877.025 110.925C884.18 110.925 889.4 115.965 889.4 123.075C889.4 130.185 884.18 135.27 877.025 135.27ZM877.025 131.49C881.615 131.49 885.035 128.16 885.035 123.075C885.035 117.99 881.615 114.705 877.025 114.705C872.435 114.705 868.97 117.99 868.97 123.075C868.97 128.16 872.435 131.49 877.025 131.49ZM913.284 111.15H917.604V135H913.509V131.4C911.754 133.875 908.784 135.27 905.409 135.27C899.244 135.27 895.149 131.895 895.149 124.875V111.15H899.469V124.38C899.469 129.06 901.809 131.4 905.904 131.4C910.404 131.4 913.284 128.61 913.284 123.48V111.15ZM929.968 115.155C931.498 112.365 934.468 110.925 938.653 110.925V115.11C938.293 115.065 937.978 115.065 937.663 115.065C933.028 115.065 930.148 117.9 930.148 123.12V135H925.828V111.15H929.968V115.155ZM968.43 130.5L969.78 133.605C968.475 134.73 966.495 135.27 964.56 135.27C959.745 135.27 957 132.615 957 127.8V114.705H952.95V111.15H957V105.93H961.32V111.15H968.16V114.705H961.32V127.62C961.32 130.185 962.67 131.625 965.055 131.625C966.315 131.625 967.53 131.22 968.43 130.5ZM983.688 110.925C990.213 110.925 993.903 114.075 993.903 120.6V135H989.808V131.85C988.368 134.01 985.713 135.27 981.978 135.27C976.578 135.27 973.158 132.39 973.158 128.25C973.158 124.425 975.633 121.275 982.743 121.275H989.583V120.42C989.583 116.775 987.468 114.66 983.193 114.66C980.358 114.66 977.478 115.65 975.633 117.225L973.833 113.985C976.308 112.005 979.863 110.925 983.688 110.925ZM982.698 131.94C985.938 131.94 988.503 130.455 989.583 127.71V124.38H982.923C978.648 124.38 977.433 126.045 977.433 128.07C977.433 130.455 979.413 131.94 982.698 131.94ZM1008.74 135.27C1004.78 135.27 1000.86 134.055 998.883 132.48L1000.68 129.06C1002.71 130.5 1005.95 131.535 1009.05 131.535C1013.06 131.535 1014.72 130.32 1014.72 128.295C1014.72 122.94 999.648 127.575 999.648 118.08C999.648 113.805 1003.47 110.925 1009.59 110.925C1012.7 110.925 1016.21 111.735 1018.28 113.085L1016.43 116.505C1014.27 115.11 1011.89 114.615 1009.55 114.615C1005.77 114.615 1003.92 116.01 1003.92 117.9C1003.92 123.525 1019.04 118.935 1019.04 128.205C1019.04 132.525 1015.08 135.27 1008.74 135.27ZM1042.67 135L1033.71 123.885L1028.76 128.475V135H1024.44V101.61H1028.76V123.03L1041.77 111.15H1046.99L1036.95 121.005L1047.98 135H1042.67ZM676.315 161.15H680.185L671.275 185H667.135L660.25 166.91L653.275 185H649.135L640.27 161.15H644.365L651.295 180.14L658.495 161.15H662.14L669.205 180.23L676.315 161.15ZM686.729 156.56C685.064 156.56 683.804 155.345 683.804 153.77C683.804 152.195 685.064 150.935 686.729 150.935C688.394 150.935 689.654 152.15 689.654 153.68C689.654 155.3 688.439 156.56 686.729 156.56ZM684.569 185V161.15H688.889V185H684.569ZM709.197 180.5L710.547 183.605C709.242 184.73 707.262 185.27 705.327 185.27C700.512 185.27 697.767 182.615 697.767 177.8V164.705H693.717V161.15H697.767V155.93H702.087V161.15H708.927V164.705H702.087V177.62C702.087 180.185 703.437 181.625 705.822 181.625C707.082 181.625 708.297 181.22 709.197 180.5ZM728.505 160.925C734.31 160.925 738.405 164.255 738.405 171.275V185H734.085V171.77C734.085 167.09 731.745 164.795 727.65 164.795C723.06 164.795 720.09 167.54 720.09 172.715V185H715.77V151.61H720.09V164.525C721.89 162.23 724.86 160.925 728.505 160.925ZM768.7 185.27C761.545 185.27 756.28 180.185 756.28 173.075C756.28 165.965 761.545 160.925 768.7 160.925C775.855 160.925 781.075 165.965 781.075 173.075C781.075 180.185 775.855 185.27 768.7 185.27ZM768.7 181.49C773.29 181.49 776.71 178.16 776.71 173.075C776.71 167.99 773.29 164.705 768.7 164.705C764.11 164.705 760.645 167.99 760.645 173.075C760.645 178.16 764.11 181.49 768.7 181.49ZM804.959 161.15H809.279V185H805.184V181.4C803.429 183.875 800.459 185.27 797.084 185.27C790.919 185.27 786.824 181.895 786.824 174.875V161.15H791.144V174.38C791.144 179.06 793.484 181.4 797.579 181.4C802.079 181.4 804.959 178.61 804.959 173.48V161.15ZM821.643 165.155C823.173 162.365 826.143 160.925 830.328 160.925V165.11C829.968 165.065 829.653 165.065 829.338 165.065C824.703 165.065 821.823 167.9 821.823 173.12V185H817.503V161.15H821.643V165.155Z" fill="black"/>
<path d="M858.44 185.27C851.105 185.27 845.84 180.185 845.84 173.075C845.84 165.965 851.105 160.925 858.44 160.925C862.715 160.925 866.27 162.68 868.16 166.01L864.875 168.125C863.345 165.785 861.005 164.705 858.395 164.705C853.715 164.705 850.205 167.99 850.205 173.075C850.205 178.25 853.715 181.49 858.395 181.49C861.005 181.49 863.345 180.41 864.875 178.07L868.16 180.14C866.27 183.47 862.715 185.27 858.44 185.27ZM882.438 160.925C888.963 160.925 892.653 164.075 892.653 170.6V185H888.558V181.85C887.118 184.01 884.463 185.27 880.728 185.27C875.328 185.27 871.908 182.39 871.908 178.25C871.908 174.425 874.383 171.275 881.493 171.275H888.333V170.42C888.333 166.775 886.218 164.66 881.943 164.66C879.108 164.66 876.228 165.65 874.383 167.225L872.583 163.985C875.058 162.005 878.613 160.925 882.438 160.925ZM881.448 181.94C884.688 181.94 887.253 180.455 888.333 177.71V174.38H881.673C877.398 174.38 876.183 176.045 876.183 178.07C876.183 180.455 878.163 181.94 881.448 181.94ZM900.648 185V151.61H904.968V185H900.648ZM934.771 173.21C934.771 173.57 934.726 174.11 934.681 174.515H915.331C915.871 178.7 919.246 181.49 923.971 181.49C926.761 181.49 929.101 180.545 930.856 178.61L933.241 181.4C931.081 183.92 927.796 185.27 923.836 185.27C916.141 185.27 911.011 180.185 911.011 173.075C911.011 166.01 916.096 160.925 922.981 160.925C929.866 160.925 934.771 165.875 934.771 173.21ZM922.981 164.57C918.841 164.57 915.781 167.36 915.331 171.41H930.631C930.181 167.405 927.166 164.57 922.981 164.57ZM953.505 160.925C959.31 160.925 963.405 164.255 963.405 171.275V185H959.085V171.77C959.085 167.09 956.745 164.795 952.65 164.795C948.06 164.795 945.09 167.54 945.09 172.715V185H940.77V161.15H944.91V164.75C946.665 162.32 949.725 160.925 953.505 160.925ZM989.712 151.61H994.032V185H989.892V181.22C987.957 183.92 984.897 185.27 981.387 185.27C974.412 185.27 969.327 180.365 969.327 173.075C969.327 165.785 974.412 160.925 981.387 160.925C984.762 160.925 987.732 162.185 989.712 164.75V151.61ZM981.747 181.49C986.292 181.49 989.757 178.16 989.757 173.075C989.757 167.99 986.292 164.705 981.747 164.705C977.157 164.705 973.692 167.99 973.692 173.075C973.692 178.16 977.157 181.49 981.747 181.49ZM1010.89 160.925C1017.42 160.925 1021.11 164.075 1021.11 170.6V185H1017.01V181.85C1015.57 184.01 1012.92 185.27 1009.18 185.27C1003.78 185.27 1000.36 182.39 1000.36 178.25C1000.36 174.425 1002.84 171.275 1009.95 171.275H1016.79V170.42C1016.79 166.775 1014.67 164.66 1010.4 164.66C1007.56 164.66 1004.68 165.65 1002.84 167.225L1001.04 163.985C1003.51 162.005 1007.07 160.925 1010.89 160.925ZM1009.9 181.94C1013.14 181.94 1015.71 180.455 1016.79 177.71V174.38H1010.13C1005.85 174.38 1004.64 176.045 1004.64 178.07C1004.64 180.455 1006.62 181.94 1009.9 181.94ZM1033.24 165.155C1034.77 162.365 1037.74 160.925 1041.92 160.925V165.11C1041.56 165.065 1041.25 165.065 1040.93 165.065C1036.3 165.065 1033.42 167.9 1033.42 173.12V185H1029.1V161.15H1033.24V165.155Z" fill="#00A9FF"/>
<path d="M207.22 11.1199C207.22 11.1199 123.05 -22.3701 82.54 27.8999C42.03 78.1799 140.61 143.84 38.84 194C-33.03 229.42 3.73001 325.24 79.82 312.94C166.4 298.94 107.54 250 298.69 279.13C393.37 293.56 463.33 92.3599 207.23 11.1299L207.22 11.1199Z" fill="#E2F1FE"/>
<path d="M356.18 75.1399L38.25 75.1399V48.8999C38.25 46.0099 40.59 43.6699 43.48 43.6699L350.95 43.6699C353.84 43.6699 356.18 46.0099 356.18 48.8999V75.1399Z" fill="#00A9FF"/>
<path d="M38.24 75.1499L28.59 245.7C28.34 250.12 31.86 253.85 36.29 253.85H60.05L38.25 75.1499H38.24Z" fill="#54839B"/>
<path d="M44.68 254.09H349.73C353.29 254.09 356.17 251.21 356.17 247.65V75.1499H38.24V247.65C38.24 251.21 41.12 254.09 44.68 254.09Z" fill="white"/>
<path d="M343.464 63.4832C344.671 59.2446 342.214 54.8297 337.975 53.6223C333.737 52.4149 329.322 54.8722 328.114 59.1108C326.907 63.3494 329.364 67.7643 333.603 68.9717C337.841 70.1791 342.256 67.7218 343.464 63.4832Z" fill="#0D82BC"/>
<path d="M329.59 61.3299C329.59 64.7699 332.38 67.5499 335.81 67.5499C339.24 67.5499 342.03 64.7599 342.03 61.3299C342.03 57.8999 339.24 55.1099 335.81 55.1099C332.38 55.1099 329.59 57.8999 329.59 61.3299Z" fill="#005D82"/>
<path d="M335.89 60.5099C335.89 60.5099 335.95 60.5099 335.99 60.5099C338.61 60.4899 340.7 58.3099 340.7 55.6899V39.5499C340.7 36.9199 338.57 34.7899 335.94 34.7899C333.31 34.7899 331.18 36.9199 331.18 39.5499V55.6899C331.18 58.3099 333.27 60.4899 335.89 60.5099Z" fill="white"/>
<path d="M301.08 69.3099C305.487 69.3099 309.06 65.7371 309.06 61.3299C309.06 56.9227 305.487 53.3499 301.08 53.3499C296.673 53.3499 293.1 56.9227 293.1 61.3299C293.1 65.7371 296.673 69.3099 301.08 69.3099Z" fill="#0D82BC"/>
<path d="M301.08 67.5499C304.515 67.5499 307.3 64.7651 307.3 61.3299C307.3 57.8947 304.515 55.1099 301.08 55.1099C297.645 55.1099 294.86 57.8947 294.86 61.3299C294.86 64.7651 297.645 67.5499 301.08 67.5499Z" fill="#005D82"/>
<path d="M301.66 60.5099C301.66 60.5099 301.72 60.5099 301.76 60.5099C304.38 60.4899 306.47 58.3099 306.47 55.6899V39.5499C306.47 36.9199 304.34 34.7899 301.71 34.7899C299.08 34.7899 296.95 36.9199 296.95 39.5499V55.6899C296.95 58.3099 299.04 60.4899 301.66 60.5099Z" fill="white"/>
<path d="M266.35 69.3099C270.75 69.3099 274.33 65.7299 274.33 61.3299C274.33 56.9299 270.75 53.3499 266.35 53.3499C261.95 53.3499 258.37 56.9299 258.37 61.3299C258.37 65.7299 261.95 69.3099 266.35 69.3099Z" fill="#0D82BC"/>
<path d="M260.13 61.3299C260.13 64.7699 262.92 67.5499 266.35 67.5499C269.78 67.5499 272.57 64.7599 272.57 61.3299C272.57 57.8999 269.78 55.1099 266.35 55.1099C262.92 55.1099 260.13 57.8999 260.13 61.3299Z" fill="#005D82"/>
<path d="M266.31 60.5099C266.31 60.5099 266.37 60.5099 266.41 60.5099C269.03 60.4899 271.12 58.3099 271.12 55.6899V39.5499C271.12 36.9199 268.99 34.7899 266.36 34.7899C263.73 34.7899 261.6 36.9199 261.6 39.5499V55.6899C261.6 58.3099 263.69 60.4899 266.31 60.5099Z" fill="white"/>
<path d="M231.63 69.3099C236.037 69.3099 239.61 65.7371 239.61 61.3299C239.61 56.9227 236.037 53.3499 231.63 53.3499C227.223 53.3499 223.65 56.9227 223.65 61.3299C223.65 65.7371 227.223 69.3099 231.63 69.3099Z" fill="#0D82BC"/>
<path d="M225.4 61.3299C225.4 64.7699 228.19 67.5499 231.62 67.5499C235.05 67.5499 237.84 64.7599 237.84 61.3299C237.84 57.8999 235.05 55.1099 231.62 55.1099C228.19 55.1099 225.4 57.8999 225.4 61.3299Z" fill="#005D82"/>
<path d="M231.58 60.5099C231.58 60.5099 231.64 60.5099 231.68 60.5099C234.3 60.4899 236.39 58.3099 236.39 55.6899V39.5499C236.39 36.9199 234.26 34.7899 231.63 34.7899C229 34.7899 226.87 36.9199 226.87 39.5499V55.6899C226.87 58.3099 228.96 60.4899 231.58 60.5099Z" fill="white"/>
<path d="M196.9 69.3099C201.307 69.3099 204.88 65.7371 204.88 61.3299C204.88 56.9227 201.307 53.3499 196.9 53.3499C192.493 53.3499 188.92 56.9227 188.92 61.3299C188.92 65.7371 192.493 69.3099 196.9 69.3099Z" fill="#0D82BC"/>
<path d="M190.67 61.3299C190.67 64.7699 193.46 67.5499 196.89 67.5499C200.32 67.5499 203.11 64.7599 203.11 61.3299C203.11 57.8999 200.32 55.1099 196.89 55.1099C193.46 55.1099 190.67 57.8999 190.67 61.3299Z" fill="#005D82"/>
<path d="M196.85 60.5099C196.85 60.5099 196.91 60.5099 196.95 60.5099C199.57 60.4899 201.66 58.3099 201.66 55.6899V39.5499C201.66 36.9199 199.53 34.7899 196.9 34.7899C194.27 34.7899 192.14 36.9199 192.14 39.5499V55.6899C192.14 58.3099 194.23 60.4899 196.85 60.5099Z" fill="white"/>
<path d="M162.17 69.3099C166.577 69.3099 170.15 65.7371 170.15 61.3299C170.15 56.9227 166.577 53.3499 162.17 53.3499C157.763 53.3499 154.19 56.9227 154.19 61.3299C154.19 65.7371 157.763 69.3099 162.17 69.3099Z" fill="#0D82BC"/>
<path d="M155.94 61.3299C155.94 64.7699 158.73 67.5499 162.16 67.5499C165.59 67.5499 168.38 64.7599 168.38 61.3299C168.38 57.8999 165.59 55.1099 162.16 55.1099C158.73 55.1099 155.94 57.8999 155.94 61.3299Z" fill="#005D82"/>
<path d="M162.74 60.5099C162.74 60.5099 162.8 60.5099 162.84 60.5099C165.46 60.4899 167.55 58.3099 167.55 55.6899V39.5499C167.55 36.9199 165.42 34.7899 162.79 34.7899C160.16 34.7899 158.03 36.9199 158.03 39.5499V55.6899C158.03 58.3099 160.12 60.4899 162.74 60.5099Z" fill="white"/>
<path d="M128.06 69.3099C132.46 69.3099 136.04 65.7299 136.04 61.3299C136.04 56.9299 132.46 53.3499 128.06 53.3499C123.66 53.3499 120.08 56.9299 120.08 61.3299C120.08 65.7299 123.66 69.3099 128.06 69.3099Z" fill="#0D82BC"/>
<path d="M121.84 61.3299C121.84 64.7699 124.63 67.5499 128.06 67.5499C131.49 67.5499 134.28 64.7599 134.28 61.3299C134.28 57.8999 131.49 55.1099 128.06 55.1099C124.63 55.1099 121.84 57.8999 121.84 61.3299Z" fill="#005D82"/>
<path d="M128.02 60.5099C128.02 60.5099 128.08 60.5099 128.12 60.5099C130.74 60.4899 132.83 58.3099 132.83 55.6899V39.5499C132.83 36.9199 130.7 34.7899 128.07 34.7899C125.44 34.7899 123.31 36.9199 123.31 39.5499V55.6899C123.31 58.3099 125.4 60.4899 128.02 60.5099Z" fill="white"/>
<path d="M93.33 69.3099C97.7372 69.3099 101.31 65.7371 101.31 61.3299C101.31 56.9227 97.7372 53.3499 93.33 53.3499C88.9228 53.3499 85.35 56.9227 85.35 61.3299C85.35 65.7371 88.9228 69.3099 93.33 69.3099Z" fill="#0D82BC"/>
<path d="M87.11 61.3299C87.11 64.7699 89.9 67.5499 93.33 67.5499C96.76 67.5499 99.55 64.7599 99.55 61.3299C99.55 57.8999 96.76 55.1099 93.33 55.1099C89.9 55.1099 87.11 57.8999 87.11 61.3299Z" fill="#005D82"/>
<path d="M93.29 60.5099C93.29 60.5099 93.35 60.5099 93.39 60.5099C96.01 60.4899 98.1 58.3099 98.1 55.6899V39.5499C98.1 36.9199 95.97 34.7899 93.34 34.7899C90.71 34.7899 88.58 36.9199 88.58 39.5499V55.6899C88.58 58.3099 90.67 60.4899 93.29 60.5099Z" fill="white"/>
<path d="M58.6 69.3099C63.0072 69.3099 66.58 65.7371 66.58 61.3299C66.58 56.9227 63.0072 53.3499 58.6 53.3499C54.1928 53.3499 50.62 56.9227 50.62 61.3299C50.62 65.7371 54.1928 69.3099 58.6 69.3099Z" fill="#0D82BC"/>
<path d="M52.38 61.3299C52.38 64.7699 55.17 67.5499 58.6 67.5499C62.03 67.5499 64.82 64.7599 64.82 61.3299C64.82 57.8999 62.03 55.1099 58.6 55.1099C55.17 55.1099 52.38 57.8999 52.38 61.3299Z" fill="#005D82"/>
<path d="M58.56 60.5099C58.56 60.5099 58.62 60.5099 58.66 60.5099C61.28 60.4899 63.37 58.3099 63.37 55.6899V39.5499C63.37 36.9199 61.24 34.7899 58.61 34.7899C55.98 34.7899 53.85 36.9199 53.85 39.5499V55.6899C53.85 58.3099 55.94 60.4899 58.56 60.5099Z" fill="white"/>
<path d="M98.41 178.98H137.34V149.35H98.41V178.98Z" fill="#A197FC"/>
<path d="M124.99 162.91H135.4V152.5H124.99V162.91Z" fill="#746FD1"/>
<path d="M138.08 178.98H177.01V149.35H138.08V178.98Z" fill="#E78895"/>
<path d="M164.66 162.91H175.07V152.5H164.66V162.91Z" fill="#C66A79"/>
<path d="M177.61 178.98H216.54V149.35H177.61V178.98Z" fill="#63B4B8"/>
<path d="M204.2 162.91H214.61V152.5H204.2V162.91Z" fill="#3D9191"/>
<path d="M58.73 239.41H97.66V209.78H58.73L58.73 239.41Z" fill="#E78895"/>
<path d="M85.73 221.95H96.14V211.54H85.73V221.95Z" fill="#C66A79"/>
<path d="M296.76 239.64H335.69V210.01H296.76V239.64Z" fill="#63B4B8"/>
<path d="M323.16 223.38H333.57V212.97H323.16V223.38Z" fill="#3D9191"/>
<path d="M335.94 119.46H296.51C296.34 119.46 296.21 119.33 296.21 119.16V89.6399C296.21 89.4699 296.34 89.3399 296.51 89.3399H335.94C336.11 89.3399 336.24 89.4699 336.24 89.6399V119.16C336.24 119.33 336.11 119.46 335.94 119.46ZM296.81 118.86H335.64V89.9399H296.81V118.86Z" fill="#00A9FF"/>
<path d="M296.27 119.46H256.84C256.67 119.46 256.54 119.33 256.54 119.16V89.6399C256.54 89.4699 256.67 89.3399 256.84 89.3399H296.27C296.44 89.3399 296.57 89.4699 296.57 89.6399V119.16C296.57 119.33 296.44 119.46 296.27 119.46ZM257.14 118.86H295.97V89.9399H257.14V118.86Z" fill="#00A9FF"/>
<path d="M256.6 119.46H217.17C217 119.46 216.87 119.33 216.87 119.16V89.6399C216.87 89.4699 217 89.3399 217.17 89.3399H256.6C256.77 89.3399 256.9 89.4699 256.9 89.6399V119.16C256.9 119.33 256.77 119.46 256.6 119.46ZM217.47 118.86H256.3V89.9399H217.47V118.86Z" fill="#00A9FF"/>
<path d="M216.93 119.46H177.5C177.33 119.46 177.2 119.33 177.2 119.16V89.6399C177.2 89.4699 177.33 89.3399 177.5 89.3399H216.93C217.1 89.3399 217.23 89.4699 217.23 89.6399V119.16C217.23 119.33 217.1 119.46 216.93 119.46ZM177.8 118.86H216.63V89.9399H177.8V118.86Z" fill="#00A9FF"/>
<path d="M177.26 119.46H137.83C137.66 119.46 137.53 119.33 137.53 119.16V89.6399C137.53 89.4699 137.66 89.3399 137.83 89.3399H177.26C177.43 89.3399 177.56 89.4699 177.56 89.6399V119.16C177.56 119.33 177.43 119.46 177.26 119.46ZM138.13 118.86H176.96V89.9399H138.13V118.86Z" fill="#00A9FF"/>
<path d="M137.59 119.46H98.16C97.99 119.46 97.86 119.33 97.86 119.16V89.6399C97.86 89.4699 97.99 89.3399 98.16 89.3399H137.59C137.76 89.3399 137.89 89.4699 137.89 89.6399V119.16C137.89 119.33 137.76 119.46 137.59 119.46ZM98.46 118.86H137.29V89.9399H98.46V118.86Z" fill="#00A9FF"/>
<path d="M97.91 119.46H58.48C58.31 119.46 58.18 119.33 58.18 119.16V89.6399C58.18 89.4699 58.31 89.3399 58.48 89.3399H97.91C98.08 89.3399 98.21 89.4699 98.21 89.6399V119.16C98.21 119.33 98.08 119.46 97.91 119.46ZM58.78 118.86H97.61V89.9399H58.78V118.86Z" fill="#00A9FF"/>
<path d="M335.94 149.57H296.51C296.34 149.57 296.21 149.44 296.21 149.27V119.75C296.21 119.58 296.34 119.45 296.51 119.45H335.94C336.11 119.45 336.24 119.58 336.24 119.75V149.27C336.24 149.44 336.11 149.57 335.94 149.57ZM296.81 148.97H335.64V120.05H296.81V148.97Z" fill="#00A9FF"/>
<path d="M296.27 149.57H256.84C256.67 149.57 256.54 149.44 256.54 149.27V119.75C256.54 119.58 256.67 119.45 256.84 119.45H296.27C296.44 119.45 296.57 119.58 296.57 119.75V149.27C296.57 149.44 296.44 149.57 296.27 149.57ZM257.14 148.97H295.97V120.05H257.14V148.97Z" fill="#00A9FF"/>
<path d="M256.6 149.57H217.17C217 149.57 216.87 149.44 216.87 149.27V119.75C216.87 119.58 217 119.45 217.17 119.45H256.6C256.77 119.45 256.9 119.58 256.9 119.75V149.27C256.9 149.44 256.77 149.57 256.6 149.57ZM217.47 148.97H256.3V120.05H217.47V148.97Z" fill="#00A9FF"/>
<path d="M216.93 149.57H177.5C177.33 149.57 177.2 149.44 177.2 149.27V119.75C177.2 119.58 177.33 119.45 177.5 119.45H216.93C217.1 119.45 217.23 119.58 217.23 119.75V149.27C217.23 149.44 217.1 149.57 216.93 149.57ZM177.8 148.97H216.63V120.05H177.8V148.97Z" fill="#00A9FF"/>
<path d="M177.26 149.57H137.83C137.66 149.57 137.53 149.44 137.53 149.27V119.75C137.53 119.58 137.66 119.45 137.83 119.45H177.26C177.43 119.45 177.56 119.58 177.56 119.75V149.27C177.56 149.44 177.43 149.57 177.26 149.57ZM138.13 148.97H176.96V120.05H138.13V148.97Z" fill="#00A9FF"/>
<path d="M137.59 149.57H98.16C97.99 149.57 97.86 149.44 97.86 149.27V119.75C97.86 119.58 97.99 119.45 98.16 119.45H137.59C137.76 119.45 137.89 119.58 137.89 119.75V149.27C137.89 149.44 137.76 149.57 137.59 149.57ZM98.46 148.97H137.29V120.05H98.46V148.97Z" fill="#00A9FF"/>
<path d="M97.91 149.57H58.48C58.31 149.57 58.18 149.44 58.18 149.27V119.75C58.18 119.58 58.31 119.45 58.48 119.45H97.91C98.08 119.45 98.21 119.58 98.21 119.75V149.27C98.21 149.44 98.08 149.57 97.91 149.57ZM58.78 148.97H97.61V120.05H58.78V148.97Z" fill="#00A9FF"/>
<path d="M335.94 179.68H296.51C296.34 179.68 296.21 179.55 296.21 179.38V149.86C296.21 149.69 296.34 149.56 296.51 149.56H335.94C336.11 149.56 336.24 149.69 336.24 149.86V179.38C336.24 179.55 336.11 179.68 335.94 179.68ZM296.81 179.08H335.64V150.16H296.81V179.08Z" fill="#00A9FF"/>
<path d="M296.27 179.68H256.84C256.67 179.68 256.54 179.55 256.54 179.38V149.86C256.54 149.69 256.67 149.56 256.84 149.56H296.27C296.44 149.56 296.57 149.69 296.57 149.86V179.38C296.57 179.55 296.44 179.68 296.27 179.68ZM257.14 179.08H295.97V150.16H257.14V179.08Z" fill="#00A9FF"/>
<path d="M256.6 179.68H217.17C217 179.68 216.87 179.55 216.87 179.38V149.86C216.87 149.69 217 149.56 217.17 149.56H256.6C256.77 149.56 256.9 149.69 256.9 149.86V179.38C256.9 179.55 256.77 179.68 256.6 179.68ZM217.47 179.08H256.3V150.16H217.47V179.08Z" fill="#00A9FF"/>
<path d="M216.93 179.68H177.5C177.33 179.68 177.2 179.55 177.2 179.38V149.86C177.2 149.69 177.33 149.56 177.5 149.56H216.93C217.1 149.56 217.23 149.69 217.23 149.86V179.38C217.23 179.55 217.1 179.68 216.93 179.68ZM177.8 179.08H216.63V150.16H177.8V179.08Z" fill="#00A9FF"/>
<path d="M177.26 179.68H137.83C137.66 179.68 137.53 179.55 137.53 179.38V149.86C137.53 149.69 137.66 149.56 137.83 149.56H177.26C177.43 149.56 177.56 149.69 177.56 149.86V179.38C177.56 179.55 177.43 179.68 177.26 179.68ZM138.13 179.08H176.96V150.16H138.13V179.08Z" fill="#00A9FF"/>
<path d="M137.59 179.68H98.16C97.99 179.68 97.86 179.55 97.86 179.38V149.86C97.86 149.69 97.99 149.56 98.16 149.56H137.59C137.76 149.56 137.89 149.69 137.89 149.86V179.38C137.89 179.55 137.76 179.68 137.59 179.68ZM98.46 179.08H137.29V150.16H98.46V179.08Z" fill="#00A9FF"/>
<path d="M97.91 179.68H58.48C58.31 179.68 58.18 179.55 58.18 179.38V149.86C58.18 149.69 58.31 149.56 58.48 149.56H97.91C98.08 149.56 98.21 149.69 98.21 149.86V179.38C98.21 179.55 98.08 179.68 97.91 179.68ZM58.78 179.08H97.61V150.16H58.78V179.08Z" fill="#00A9FF"/>
<path d="M335.94 209.78H296.51C296.34 209.78 296.21 209.65 296.21 209.48V179.96C296.21 179.79 296.34 179.66 296.51 179.66H335.94C336.11 179.66 336.24 179.79 336.24 179.96V209.48C336.24 209.65 336.11 209.78 335.94 209.78ZM296.81 209.18H335.64V180.26H296.81V209.18Z" fill="#00A9FF"/>
<path d="M296.27 209.78H256.84C256.67 209.78 256.54 209.65 256.54 209.48V179.96C256.54 179.79 256.67 179.66 256.84 179.66H296.27C296.44 179.66 296.57 179.79 296.57 179.96V209.48C296.57 209.65 296.44 209.78 296.27 209.78ZM257.14 209.18H295.97V180.26H257.14V209.18Z" fill="#00A9FF"/>
<path d="M256.6 209.78H217.17C217 209.78 216.87 209.65 216.87 209.48V179.96C216.87 179.79 217 179.66 217.17 179.66H256.6C256.77 179.66 256.9 179.79 256.9 179.96V209.48C256.9 209.65 256.77 209.78 256.6 209.78ZM217.47 209.18H256.3V180.26H217.47V209.18Z" fill="#00A9FF"/>
<path d="M216.93 209.78H177.5C177.33 209.78 177.2 209.65 177.2 209.48V179.96C177.2 179.79 177.33 179.66 177.5 179.66H216.93C217.1 179.66 217.23 179.79 217.23 179.96V209.48C217.23 209.65 217.1 209.78 216.93 209.78ZM177.8 209.18H216.63V180.26H177.8V209.18Z" fill="#00A9FF"/>
<path d="M177.26 209.78H137.83C137.66 209.78 137.53 209.65 137.53 209.48V179.96C137.53 179.79 137.66 179.66 137.83 179.66H177.26C177.43 179.66 177.56 179.79 177.56 179.96V209.48C177.56 209.65 177.43 209.78 177.26 209.78ZM138.13 209.18H176.96V180.26H138.13V209.18Z" fill="#00A9FF"/>
<path d="M137.59 209.78H98.16C97.99 209.78 97.86 209.65 97.86 209.48V179.96C97.86 179.79 97.99 179.66 98.16 179.66H137.59C137.76 179.66 137.89 179.79 137.89 179.96V209.48C137.89 209.65 137.76 209.78 137.59 209.78ZM98.46 209.18H137.29V180.26H98.46V209.18Z" fill="#00A9FF"/>
<path d="M97.91 209.78H58.48C58.31 209.78 58.18 209.65 58.18 209.48V179.96C58.18 179.79 58.31 179.66 58.48 179.66H97.91C98.08 179.66 98.21 179.79 98.21 179.96V209.48C98.21 209.65 98.08 209.78 97.91 209.78ZM58.78 209.18H97.61V180.26H58.78V209.18Z" fill="#00A9FF"/>
<path d="M335.94 239.89H296.51C296.34 239.89 296.21 239.76 296.21 239.59V210.07C296.21 209.9 296.34 209.77 296.51 209.77H335.94C336.11 209.77 336.24 209.9 336.24 210.07V239.59C336.24 239.76 336.11 239.89 335.94 239.89ZM296.81 239.29H335.64V210.37H296.81V239.29Z" fill="#00A9FF"/>
<path d="M97.91 89.6499H58.48V119.17H97.91V89.6499Z" fill="#A197FC"/>
<path d="M85.97 101.99H96.38V91.5799H85.97V101.99Z" fill="#746FD1"/>
<path d="M296.27 239.89H256.84C256.67 239.89 256.54 239.76 256.54 239.59V210.07C256.54 209.9 256.67 209.77 256.84 209.77H296.27C296.44 209.77 296.57 209.9 296.57 210.07V239.59C296.57 239.76 296.44 239.89 296.27 239.89ZM257.14 239.29H295.97V210.37H257.14V239.29Z" fill="#00A9FF"/>
<path d="M256.6 239.89H217.17C217 239.89 216.87 239.76 216.87 239.59V210.07C216.87 209.9 217 209.77 217.17 209.77H256.6C256.77 209.77 256.9 209.9 256.9 210.07V239.59C256.9 239.76 256.77 239.89 256.6 239.89ZM217.47 239.29H256.3V210.37H217.47V239.29Z" fill="#00A9FF"/>
<path d="M216.93 239.89H177.5C177.33 239.89 177.2 239.76 177.2 239.59V210.07C177.2 209.9 177.33 209.77 177.5 209.77H216.93C217.1 209.77 217.23 209.9 217.23 210.07V239.59C217.23 239.76 217.1 239.89 216.93 239.89ZM177.8 239.29H216.63V210.37H177.8V239.29Z" fill="#00A9FF"/>
<path d="M177.26 239.89H137.83C137.66 239.89 137.53 239.76 137.53 239.59V210.07C137.53 209.9 137.66 209.77 137.83 209.77H177.26C177.43 209.77 177.56 209.9 177.56 210.07V239.59C177.56 239.76 177.43 239.89 177.26 239.89ZM138.13 239.29H176.96V210.37H138.13V239.29Z" fill="#00A9FF"/>
<path d="M137.59 239.89H98.16C97.99 239.89 97.86 239.76 97.86 239.59V210.07C97.86 209.9 97.99 209.77 98.16 209.77H137.59C137.76 209.77 137.89 209.9 137.89 210.07V239.59C137.89 239.76 137.76 239.89 137.59 239.89ZM98.46 239.29H137.29V210.37H98.46V239.29Z" fill="#00A9FF"/>
<path d="M97.91 239.89H58.48C58.31 239.89 58.18 239.76 58.18 239.59V210.07C58.18 209.9 58.31 209.77 58.48 209.77H97.91C98.08 209.77 98.21 209.9 98.21 210.07V239.59C98.21 239.76 98.08 239.89 97.91 239.89ZM58.78 239.29H97.61V210.37H58.78V239.29Z" fill="#00A9FF"/>
<path d="M251.94 92.3599H224.98C224.245 92.3599 223.65 92.9553 223.65 93.6899V94.0199C223.65 94.7544 224.245 95.3499 224.98 95.3499H251.94C252.675 95.3499 253.27 94.7544 253.27 94.0199V93.6899C253.27 92.9553 252.675 92.3599 251.94 92.3599Z" fill="#E2F1FE"/>
<path d="M251.94 98.3298H237.54C236.805 98.3298 236.21 98.9253 236.21 99.6599V99.9898C236.21 100.724 236.805 101.32 237.54 101.32H251.94C252.675 101.32 253.27 100.724 253.27 99.9898V99.6599C253.27 98.9253 252.675 98.3298 251.94 98.3298Z" fill="#E2F1FE"/>
<path d="M171.51 123.4H144.55C143.815 123.4 143.22 123.995 143.22 124.73V125.06C143.22 125.794 143.815 126.39 144.55 126.39H171.51C172.245 126.39 172.84 125.794 172.84 125.06V124.73C172.84 123.995 172.245 123.4 171.51 123.4Z" fill="#E2F1FE"/>
<path d="M171.52 129.37H157.12C156.385 129.37 155.79 129.965 155.79 130.7V131.03C155.79 131.764 156.385 132.36 157.12 132.36H171.52C172.255 132.36 172.85 131.764 172.85 131.03V130.7C172.85 129.965 172.255 129.37 171.52 129.37Z" fill="#E2F1FE"/>
<path d="M253.08 212.96H226.12C225.385 212.96 224.79 213.555 224.79 214.29V214.62C224.79 215.354 225.385 215.95 226.12 215.95H253.08C253.815 215.95 254.41 215.354 254.41 214.62V214.29C254.41 213.555 253.815 212.96 253.08 212.96Z" fill="#E2F1FE"/>
<path d="M253.09 218.93H238.69C237.955 218.93 237.36 219.525 237.36 220.26V220.59C237.36 221.325 237.955 221.92 238.69 221.92H253.09C253.825 221.92 254.42 221.325 254.42 220.59V220.26C254.42 219.525 253.825 218.93 253.09 218.93Z" fill="#E2F1FE"/>
<path d="M133.56 212.96H106.6C105.865 212.96 105.27 213.555 105.27 214.29V214.62C105.27 215.354 105.865 215.95 106.6 215.95H133.56C134.295 215.95 134.89 215.354 134.89 214.62V214.29C134.89 213.555 134.295 212.96 133.56 212.96Z" fill="#E2F1FE"/>
<path d="M133.57 218.93H119.17C118.435 218.93 117.84 219.525 117.84 220.26V220.59C117.84 221.325 118.435 221.92 119.17 221.92H133.57C134.305 221.92 134.9 221.325 134.9 220.59V220.26C134.9 219.525 134.305 218.93 133.57 218.93Z" fill="#E2F1FE"/>
<path d="M330.35 182.83H303.39C302.655 182.83 302.06 183.425 302.06 184.16V184.49C302.06 185.224 302.655 185.82 303.39 185.82H330.35C331.085 185.82 331.68 185.224 331.68 184.49V184.16C331.68 183.425 331.085 182.83 330.35 182.83Z" fill="#E2F1FE"/>
<path d="M330.35 188.81H315.95C315.215 188.81 314.62 189.405 314.62 190.14V190.47C314.62 191.204 315.215 191.8 315.95 191.8H330.35C331.085 191.8 331.68 191.204 331.68 190.47V190.14C331.68 189.405 331.085 188.81 330.35 188.81Z" fill="#E2F1FE"/>
<path d="M291.78 123.4H264.82C264.085 123.4 263.49 123.995 263.49 124.73V125.06C263.49 125.794 264.085 126.39 264.82 126.39H291.78C292.515 126.39 293.11 125.794 293.11 125.06V124.73C293.11 123.995 292.515 123.4 291.78 123.4Z" fill="#E2F1FE"/>
<path d="M291.78 129.37H277.38C276.645 129.37 276.05 129.965 276.05 130.7V131.03C276.05 131.764 276.645 132.36 277.38 132.36H291.78C292.515 132.36 293.11 131.764 293.11 131.03V130.7C293.11 129.965 292.515 129.37 291.78 129.37Z" fill="#E2F1FE"/>
<path d="M94 152.99H67.04C66.3055 152.99 65.71 153.585 65.71 154.32V154.65C65.71 155.384 66.3055 155.98 67.04 155.98H94C94.7345 155.98 95.33 155.384 95.33 154.65V154.32C95.33 153.585 94.7345 152.99 94 152.99Z" fill="#E2F1FE"/>
<path d="M94 158.96H79.6C78.8655 158.96 78.27 159.555 78.27 160.29V160.62C78.27 161.354 78.8655 161.95 79.6 161.95H94C94.7345 161.95 95.33 161.354 95.33 160.62V160.29C95.33 159.555 94.7345 158.96 94 158.96Z" fill="#E2F1FE"/>
<path d="M336.3 84.5499H296.27V89.6499H336.3V84.5499Z" fill="#63B4B8"/>
<path d="M296.63 84.5499H256.6V89.6499H296.63V84.5499Z" fill="#E78895"/>
<path d="M256.96 84.5499H216.93V89.6499H256.96V84.5499Z" fill="#A197FC"/>
<path d="M217.29 84.5499H177.26V89.6499H217.29V84.5499Z" fill="#E78895"/>
<path d="M177.63 84.5499H137.6V89.6499H177.63V84.5499Z" fill="#63B4B8"/>
<path d="M137.96 84.5499H97.93V89.6499H137.96V84.5499Z" fill="#A197FC"/>
<path d="M98.29 84.5499H58.26V89.6499H98.29V84.5499Z" fill="#63B4B8"/>
<path d="M253.71 71.3199H284.21C287.386 71.3199 289.96 68.7455 289.96 65.5699V51.5499C289.96 48.3742 287.386 45.7999 284.21 45.7999H253.71C250.534 45.7999 247.96 48.3742 247.96 51.5499V65.5699C247.96 68.7455 250.534 71.3199 253.71 71.3199Z" fill="#E78895"/>
<path d="M275.88 52.6899H260.86C260.584 52.6899 260.36 52.9138 260.36 53.1899V65.2199C260.36 65.4961 260.584 65.7199 260.86 65.7199H275.88C276.156 65.7199 276.38 65.4961 276.38 65.2199V53.1899C276.38 52.9138 276.156 52.6899 275.88 52.6899Z" stroke="#FDFDFD" stroke-width="1.7" stroke-linecap="round" stroke-linejoin="round"/>
<path d="M262.63 50.2699V54.4699" stroke="#FDFDFD" stroke-linecap="round" stroke-linejoin="round"/>
<path d="M264.97 50.2699V54.4699" stroke="#FDFDFD" stroke-linecap="round" stroke-linejoin="round"/>
<path d="M267.32 50.2699V54.4699" stroke="#FDFDFD" stroke-linecap="round" stroke-linejoin="round"/>
<path d="M269.67 50.2699V54.4699" stroke="#FDFDFD" stroke-linecap="round" stroke-linejoin="round"/>
<path d="M272.01 50.2699V54.4699" stroke="#FDFDFD" stroke-linecap="round" stroke-linejoin="round"/>
<path d="M274.36 50.2699V54.4699" stroke="#FDFDFD" stroke-linecap="round" stroke-linejoin="round"/>
<path d="M263.36 58.0299C263.609 58.0299 263.81 57.8284 263.81 57.5799C263.81 57.3313 263.609 57.1299 263.36 57.1299C263.111 57.1299 262.91 57.3313 262.91 57.5799C262.91 57.8284 263.111 58.0299 263.36 58.0299Z" fill="#FDFDFD"/>
<path d="M266.32 57.5799C266.32 57.8299 266.12 58.0299 265.87 58.0299C265.62 58.0299 265.42 57.8299 265.42 57.5799C265.42 57.3299 265.62 57.1299 265.87 57.1299C266.12 57.1299 266.32 57.3299 266.32 57.5799Z" fill="#FDFDFD"/>
<path d="M268.37 58.0299C268.619 58.0299 268.82 57.8284 268.82 57.5799C268.82 57.3313 268.619 57.1299 268.37 57.1299C268.121 57.1299 267.92 57.3313 267.92 57.5799C267.92 57.8284 268.121 58.0299 268.37 58.0299Z" fill="#FDFDFD"/>
<path d="M270.88 58.0299C271.129 58.0299 271.33 57.8284 271.33 57.5799C271.33 57.3313 271.129 57.1299 270.88 57.1299C270.631 57.1299 270.43 57.3313 270.43 57.5799C270.43 57.8284 270.631 58.0299 270.88 58.0299Z" fill="#FDFDFD"/>
<path d="M273.38 58.0299C273.629 58.0299 273.83 57.8284 273.83 57.5799C273.83 57.3313 273.629 57.1299 273.38 57.1299C273.131 57.1299 272.93 57.3313 272.93 57.5799C272.93 57.8284 273.131 58.0299 273.38 58.0299Z" fill="#FDFDFD"/>
<path d="M263.36 59.9199C263.609 59.9199 263.81 59.7184 263.81 59.4699C263.81 59.2214 263.609 59.0199 263.36 59.0199C263.111 59.0199 262.91 59.2214 262.91 59.4699C262.91 59.7184 263.111 59.9199 263.36 59.9199Z" fill="#FDFDFD"/>
<path d="M266.32 59.4699C266.32 59.7199 266.12 59.9199 265.87 59.9199C265.62 59.9199 265.42 59.7199 265.42 59.4699C265.42 59.2199 265.62 59.0199 265.87 59.0199C266.12 59.0199 266.32 59.2199 266.32 59.4699Z" fill="#FDFDFD"/>
<path d="M268.37 59.9199C268.619 59.9199 268.82 59.7184 268.82 59.4699C268.82 59.2214 268.619 59.0199 268.37 59.0199C268.121 59.0199 267.92 59.2214 267.92 59.4699C267.92 59.7184 268.121 59.9199 268.37 59.9199Z" fill="#FDFDFD"/>
<path d="M270.88 59.9199C271.129 59.9199 271.33 59.7184 271.33 59.4699C271.33 59.2214 271.129 59.0199 270.88 59.0199C270.631 59.0199 270.43 59.2214 270.43 59.4699C270.43 59.7184 270.631 59.9199 270.88 59.9199Z" fill="#FDFDFD"/>
<path d="M273.38 59.9199C273.629 59.9199 273.83 59.7184 273.83 59.4699C273.83 59.2214 273.629 59.0199 273.38 59.0199C273.131 59.0199 272.93 59.2214 272.93 59.4699C272.93 59.7184 273.131 59.9199 273.38 59.9199Z" fill="#FDFDFD"/>
<path d="M263.36 61.8199C263.609 61.8199 263.81 61.6184 263.81 61.3699C263.81 61.1214 263.609 60.9199 263.36 60.9199C263.111 60.9199 262.91 61.1214 262.91 61.3699C262.91 61.6184 263.111 61.8199 263.36 61.8199Z" fill="#FDFDFD"/>
<path d="M266.32 61.3699C266.32 61.6199 266.12 61.8199 265.87 61.8199C265.62 61.8199 265.42 61.6199 265.42 61.3699C265.42 61.1199 265.62 60.9199 265.87 60.9199C266.12 60.9199 266.32 61.1199 266.32 61.3699Z" fill="#FDFDFD"/>
<path d="M268.37 61.8199C268.619 61.8199 268.82 61.6184 268.82 61.3699C268.82 61.1214 268.619 60.9199 268.37 60.9199C268.121 60.9199 267.92 61.1214 267.92 61.3699C267.92 61.6184 268.121 61.8199 268.37 61.8199Z" fill="#FDFDFD"/>
<path d="M270.88 61.8199C271.129 61.8199 271.33 61.6184 271.33 61.3699C271.33 61.1214 271.129 60.9199 270.88 60.9199C270.631 60.9199 270.43 61.1214 270.43 61.3699C270.43 61.6184 270.631 61.8199 270.88 61.8199Z" fill="#FDFDFD"/>
<path d="M273.38 61.8199C273.629 61.8199 273.83 61.6184 273.83 61.3699C273.83 61.1214 273.629 60.9199 273.38 60.9199C273.131 60.9199 272.93 61.1214 272.93 61.3699C272.93 61.6184 273.131 61.8199 273.38 61.8199Z" fill="#FDFDFD"/>
<path d="M263.36 63.7099C263.609 63.7099 263.81 63.5085 263.81 63.2599C263.81 63.0114 263.609 62.8099 263.36 62.8099C263.111 62.8099 262.91 63.0114 262.91 63.2599C262.91 63.5085 263.111 63.7099 263.36 63.7099Z" fill="#FDFDFD"/>
<path d="M266.32 63.2599C266.32 63.5099 266.12 63.7099 265.87 63.7099C265.62 63.7099 265.42 63.5099 265.42 63.2599C265.42 63.0099 265.62 62.8099 265.87 62.8099C266.12 62.8099 266.32 63.0099 266.32 63.2599Z" fill="#FDFDFD"/>
<path d="M268.37 63.7099C268.619 63.7099 268.82 63.5085 268.82 63.2599C268.82 63.0114 268.619 62.8099 268.37 62.8099C268.121 62.8099 267.92 63.0114 267.92 63.2599C267.92 63.5085 268.121 63.7099 268.37 63.7099Z" fill="#FDFDFD"/>
<path d="M270.88 63.7099C271.129 63.7099 271.33 63.5085 271.33 63.2599C271.33 63.0114 271.129 62.8099 270.88 62.8099C270.631 62.8099 270.43 63.0114 270.43 63.2599C270.43 63.5085 270.631 63.7099 270.88 63.7099Z" fill="#FDFDFD"/>
<path d="M273.38 63.7099C273.629 63.7099 273.83 63.5085 273.83 63.2599C273.83 63.0114 273.629 62.8099 273.38 62.8099C273.131 62.8099 272.93 63.0114 272.93 63.2599C272.93 63.5085 273.131 63.7099 273.38 63.7099Z" fill="#FDFDFD"/>
<path d="M262.99 68.8899L250.77 80.3099L253.74 67.0599L262.99 68.8899Z" fill="#E78895"/>
<path d="M40.97 102.14H10.73C7.55436 102.14 4.98 104.714 4.98 107.89V121.76C4.98 124.936 7.55436 127.51 10.73 127.51H40.97C44.1456 127.51 46.72 124.936 46.72 121.76V107.89C46.72 104.714 44.1456 102.14 40.97 102.14Z" fill="#63B4B8"/>
<path d="M30.34 118.47H20.67C18.47 118.47 16.67 116.67 16.67 114.47C16.67 112.27 18.47 110.47 20.67 110.47H30.34C32.54 110.47 34.34 112.27 34.34 114.47C34.34 116.67 32.54 118.47 30.34 118.47Z" stroke="#FDFDFD" stroke-width="1.7" stroke-linecap="round" stroke-linejoin="round"/>
<path d="M32.81 114.56C32.81 115.96 31.68 117.09 30.28 117.09C28.88 117.09 27.75 115.96 27.75 114.56C27.75 113.16 28.88 112.03 30.28 112.03C31.68 112.03 32.81 113.16 32.81 114.56Z" fill="#FDFDFD"/>
<path d="M45.63 113.63L56.98 125.78L43.82 122.83L45.63 113.63Z" fill="#63B4B8"/>
<path d="M203.46 241.71H172.96C169.784 241.71 167.21 244.284 167.21 247.46V261.48C167.21 264.655 169.784 267.23 172.96 267.23H203.46C206.636 267.23 209.21 264.655 209.21 261.48V247.46C209.21 244.284 206.636 241.71 203.46 241.71Z" fill="#A197FC"/>
<path d="M197.58 248.24H179.2C178.979 248.24 178.8 248.419 178.8 248.64V259.21C178.8 259.431 178.979 259.61 179.2 259.61H197.58C197.801 259.61 197.98 259.431 197.98 259.21V248.64C197.98 248.419 197.801 248.24 197.58 248.24Z" stroke="#FDFDFD" stroke-width="1.7" stroke-linecap="round" stroke-linejoin="round"/>
<path d="M197.8 248.57L188.46 253.43L178.8 248.54" stroke="#FDFDFD" stroke-width="1.7" stroke-linecap="round" stroke-linejoin="round"/>
<path d="M194.18 244.14L206.4 232.72L203.43 245.97L194.18 244.14Z" fill="#A197FC"/>
<path d="M407.76 206.17C407.76 206.17 399.76 269.54 401.41 297.09C403.06 324.64 416.9 349.66 424.27 362.74L384.52 381.15C384.52 381.15 355.19 327.82 352.65 311.94C352.65 311.94 347.19 291.5 346.94 280.45L348.34 242.35L353.67 200.32L354.94 199.3C354.94 199.3 364.84 204.25 375.13 206.54C385.42 208.83 400.4 207.81 407.76 206.16V206.17Z" fill="#EE4266"/>
<path d="M352.65 311.94L342.37 376.71L299.83 368.83L298.3 330.23L298.05 289.6L300.46 253.66L301.6 244.39L353.67 200.33L352.14 210.48L349.48 230.8L347.44 254.42L347.19 276.26L347.44 285.53L348.71 294.93L349.86 302.42L352.65 311.94Z" fill="#EE4266"/>
<path d="M347.7 95.6299C347.7 95.6299 346.75 84.7699 352.21 79.4399C357.67 74.1099 365.61 68.7699 369.99 68.8399C374.37 68.9099 380.61 68.9699 380.61 68.9699L379.14 61.2199L379.58 56.1999L383.07 50.6799L386.2 48.4499L385.42 43.4399L386.69 39.8799L390.37 36.6399L393.54 36.0699L398.62 39.0499L401.86 36.3199L407.19 34.1599L412.78 35.7499L417.35 38.4799L420.33 42.6099L421.36 49.1999L425.34 51.3699L427.88 54.0399L429.47 60.1399L429.58 62.4399L436.01 68.5199L421.57 80.9299" fill="#343339"/>
<path d="M463.25 107.75C463.25 107.75 469.34 113.49 469.85 117.78C470.52 123.4 462.23 132.51 462.61 133.53C462.99 134.55 461.72 137.34 461.72 137.34L463.75 144.96L463.5 149.53L460.96 152.45L455.25 154.74L457.66 137.09L457.41 123.76L456.14 113.6L463.25 107.76V107.75Z" fill="#343339"/>
<path d="M332.43 120.07C332.43 120.07 345.57 96.9299 349.95 92.9299C354.33 88.9299 359.85 83.7899 367.38 81.2199C374.91 78.6499 386.33 76.8399 392.9 77.0299C399.47 77.2199 415.57 78.1699 421.57 80.9299C427.57 83.6899 440.52 89.4999 446.24 96.9299C451.96 104.36 456.14 110.45 457.38 121.6C458.62 132.75 456.52 144.93 456.14 149.22L455.76 153.51L453.57 160.65L419.38 150.36C419.38 150.36 415.38 160.84 408.24 166.17C401.1 171.5 395.29 174.55 384.72 174.17L380.72 173.12L366.15 155.98L345.58 145.41L346.63 135.98L338.92 129.22L332.44 120.08L332.43 120.07Z" fill="#FFD23F"/>
<path d="M419.95 82.6099L450.56 118.42L295.67 250.07L299.19 230.74L280.05 230.45L283 213.98L265.1 213.41L419.95 82.6099Z" fill="#EEA5A6"/>
<path d="M420.33 82.0999L442.68 63.0599L473.16 99.3699L450.56 118.42L420.33 82.0999Z" fill="#0D82BC"/>
<path d="M264.84 213.79L283.38 214.04L279.83 230.48L299.51 230.99L295.57 249.53L250.68 255.44L264.84 213.79Z" fill="#FEECE2"/>
<path d="M250.68 255.44L258.87 231.37L266.75 241.28L274.62 252.45L250.68 255.44Z" fill="#00A9FF"/>
<path d="M419.38 150.36L453.57 160.65C453.57 160.65 446.24 196.08 407.76 206.17C407.76 206.17 378.11 213.31 354.93 199.31C354.93 199.31 332.14 188.45 319.95 168.55L320.24 164.55L323.19 162.07L323.48 157.4L327.1 153.88L330.15 153.5L331.2 151.02L334.82 148.07L337.49 147.69L359.59 173.88L355.21 164.17V159.6L359.21 155.7L362.35 154.75L365.68 155.42L380.16 172.47L381.49 173.23L385.97 174.37L394.92 173.42L402.06 170.66L409.3 165.14L415.78 158.19L419.4 150.38L419.38 150.36Z" fill="#FFAB97"/>
<path d="M332.43 120.07C332.43 120.07 341.1 133.31 346.62 135.97L345.57 145.4L306.33 178.73L314.14 157.02L324.62 134.07L332.43 120.07Z" fill="#FFAB97"/>
<path d="M401 45.7899C401 45.7899 393.48 44.9299 390.52 49.8899C387.56 54.8499 386.81 72.7499 386.81 72.7499L387.67 75.3199L389.67 76.6499L396.62 76.5499L407.48 69.4099L410.72 69.7899L415.39 69.0299L417.77 66.9299L418.44 62.1699L415.77 58.0699L412.06 56.9299L409.87 57.7899L404.73 56.6499L402.06 52.9399L400.82 47.0399L401.01 45.7999L401 45.7899Z" fill="#FFAB97"/>
<path d="M391.45 57.2199L391.79 56.6699L392.21 56.9899L391.95 57.9399L391.38 57.9099V57.3399L391.45 57.2199Z" fill="#343339"/>
<path d="M396.62 57.3099L397.22 57.2799L397.48 57.8199L397.06 58.5799H396.59L396.37 57.9099L396.62 57.3099Z" fill="#343339"/>
<path d="M390.62 377.98L390.49 381.66L389.1 383.18L365.86 401.72L360.65 407.18L360.52 410.74L365.6 418.61L435.83 391.31L427.95 374.8L423.25 363.5L390.62 377.98Z" fill="#CAD9DB"/>
<path d="M336.24 375.69C336.24 375.69 334.14 399.4 336.81 407.31L260.43 409.79L260.05 401.79L262.53 394.36L264.72 392.55L297.1 381.03L298.91 379.6L302.91 369.7L336.24 375.7V375.69Z" fill="#CAD9DB"/>
<path d="M352.6 311.15C352.6 311.15 352.56 311.36 352.49 311.76C351.49 317.47 343.84 361.41 342.31 376.86L299.76 368.98C299.76 368.98 294.58 291.11 301.54 244.86H301.55" stroke="black" stroke-miterlimit="10"/>
<path d="M306.2 178.64C314.09 154.37 324.26 133.98 332.47 119.65C338.59 108.98 343.6 101.67 345.75 98.6599C346.35 97.8199 346.93 96.9499 347.53 96.0899C350.63 91.6099 363.83 74.0599 403.66 77.4499C410.42 78.0199 416.36 79.2999 421.56 81.0499" stroke="black" stroke-miterlimit="10"/>
<path d="M456.19 113.89C456.29 114.19 456.33 114.35 456.33 114.35C456.33 114.35 470.1 188.97 407.73 205.75C407.73 205.75 399.76 276.6 401.8 301.52C403.83 326.44 413.07 342.36 424.43 362.88L384.17 381.35C384.17 381.35 362.93 345.77 352.49 311.76V311.74C352.17 310.7 351.87 309.66 351.57 308.63C348.81 299.01 347.38 289.07 347.19 279.05C346.91 263.56 347.56 234.81 353.87 200.56" stroke="black" stroke-miterlimit="10"/>
<path d="M338.37 179.63L323.24 162.02L321.33 163.88C319.61 165.56 319.42 168.27 320.9 170.17C361.15 221.9 407.74 205.75 407.74 205.75" stroke="black" stroke-miterlimit="10"/>
<path d="M323.24 162.03C322.88 159.77 323.54 157.47 325.04 155.75L325.08 155.7C326.28 154.32 328.06 153.59 329.88 153.73L330.29 153.76L347.71 174.16" stroke="black" stroke-miterlimit="10"/>
<path d="M330.29 153.76C330.33 152.39 330.97 151.11 332.05 150.26L334.37 148.42C335.67 147.4 337.54 147.59 338.59 148.87C343.48 154.81 356.47 170.52 360.16 174.42" stroke="black" stroke-miterlimit="10"/>
<path d="M359.59 173.47L355.67 165.72C355.08 164.55 354.82 163.24 354.94 161.93C355.11 159.93 356.14 158.09 357.75 156.89L358.55 156.29C359.92 155.27 361.62 154.82 363.31 155.01C365.11 155.22 366.75 156.15 367.85 157.59C371.34 162.16 379.16 172.21 381.21 173.33C383.88 174.79 397.35 175.36 405.55 168.25C405.55 168.25 410.22 164.86 414.34 159.8C417.42 156 419.41 151.43 420.2 146.6L420.79 143.04" stroke="black" stroke-miterlimit="10"/>
<path d="M354.51 112.19C354.51 112.19 347.05 129.14 345.19 145.75" stroke="black" stroke-miterlimit="10"/>
<path d="M332.48 119.65C332.48 119.65 338.58 131.01 346.72 136.09" stroke="black" stroke-miterlimit="10"/>
<path d="M453.67 160.5L419.26 150.33" stroke="black" stroke-miterlimit="10"/>
<path d="M385.05 174.16L420.61 144.05L420.62 144.04L450.65 118.61L420.01 82.4099L339.8 150.33" stroke="black" stroke-miterlimit="10"/>
<path d="M319.91 167.16H319.9L264.78 213.83L264.77 213.84" stroke="black" stroke-miterlimit="10"/>
<path d="M355.08 199.53L353.87 200.56L301.55 244.86L301.53 244.88L295.42 250.04V250.03H295.41L295.35 249.96" stroke="black" stroke-miterlimit="10"/>
<path d="M473.261 99.4227L442.609 63.215L420.124 82.2498L450.776 118.458L473.261 99.4227Z" stroke="black" stroke-miterlimit="10"/>
<path d="M295.42 250.04L250.9 255.34L264.77 213.84L283.13 214.15L279.95 230.74L299.4 230.86L295.27 250.31" stroke="black" stroke-miterlimit="10"/>
<path d="M274.61 252.41C274.61 252.41 267.81 241.67 258.91 231.12" stroke="black" stroke-miterlimit="10"/>
<path d="M463.33 107.96C463.33 107.96 473.33 116.6 468.75 123.21C464.17 129.82 461.29 135.24 462.31 138.97C463.33 142.7 464.68 147.28 463.5 149.82C462.32 152.36 458.58 154.4 455.53 154.9" stroke="black" stroke-miterlimit="10"/>
<path d="M336.2 375.59C336.2 375.59 333.83 393.9 336.62 407.62L260.43 409.91C260.43 409.91 258.4 396.18 265.01 392.37C270.71 389.08 287.4 384.65 295.62 381.87C297.62 381.19 299.2 379.66 299.94 377.68L302.89 369.75" stroke="black" stroke-miterlimit="10"/>
<path d="M423.16 363.26C423.16 363.26 433.46 388.05 435.87 391.61L366.71 418.44C366.33 418.59 365.9 418.48 365.64 418.17C364.24 416.52 360.07 411.27 360.49 407.88C360.91 404.49 381.67 388.92 389.06 383.46C390.6 382.32 391.22 380.33 390.62 378.52" stroke="black" stroke-miterlimit="10"/>
<path d="M400.86 45.7299C400.86 45.7299 400.78 53.7799 404.25 56.3199C407.72 58.8599 412.22 57.1699 412.22 57.1699C412.22 57.1699 416.54 56.8299 417.9 61.4099C419.26 65.9899 417.14 68.4399 415.36 69.0399C413.58 69.6399 409.85 69.8899 408.16 69.4599C406.47 69.0299 398.67 75.9899 396.21 76.4099C395.39 76.5499 392.47 76.4999 390.06 76.3699C388.15 76.2699 386.68 74.6299 386.78 72.7199C387.15 66.0399 388.3 51.6899 391.46 48.7799C395.61 44.9699 400.87 45.7299 400.87 45.7299H400.86Z" stroke="black" stroke-miterlimit="10"/>
<path d="M347.53 96.0999C346.61 90.2499 348.3 84.2299 354.41 77.2599C364.17 66.1499 380.6 68.9599 380.6 68.9599C380.6 68.9599 379 66.7399 379.08 59.4599C379.16 52.1699 386.19 48.4499 386.19 48.4499C383.83 39.3899 389.5 36.2499 392.38 36.2499C395.26 36.2499 398.65 39.3899 398.65 39.3899C398.65 39.3899 403.99 31.5899 413.39 35.9099C422.8 40.2299 421.36 49.2199 421.36 49.2199C421.36 49.2199 426.62 51.3399 427.81 53.6199C429 55.9199 429.68 60.7499 429.59 62.4399C429.59 62.4399 432.68 64.2199 436.38 68.7399" stroke="black" stroke-miterlimit="10"/>
<path d="M396.84 55.4199C396.84 55.4199 397.63 55.1599 398.03 55.7799L396.84 55.4199Z" stroke="black" stroke-width="0.5" stroke-miterlimit="10"/>
<path d="M397.337 58.0918C397.423 57.7317 397.313 57.3975 397.093 57.3452C396.873 57.2929 396.625 57.5424 396.54 57.9024C396.454 58.2625 396.563 58.5967 396.784 58.649C397.004 58.7013 397.252 58.4518 397.337 58.0918Z" stroke="black" stroke-width="0.5" stroke-miterlimit="10"/>
<path d="M396.84 55.4199C396.84 55.4199 397.63 55.1599 398.03 55.7799L396.84 55.4199Z" stroke="black" stroke-width="0.5" stroke-miterlimit="10"/>
<path d="M397.337 58.0918C397.423 57.7317 397.313 57.3975 397.093 57.3452C396.873 57.2929 396.625 57.5424 396.54 57.9024C396.454 58.2625 396.563 58.5967 396.784 58.649C397.004 58.7013 397.252 58.4518 397.337 58.0918Z" stroke="black" stroke-width="0.5" stroke-miterlimit="10"/>
<path d="M392.59 55.0299C392.59 55.0299 391.95 54.6699 391.49 55.1299L392.59 55.0299Z" stroke="black" stroke-width="0.5" stroke-miterlimit="10"/>
<path d="M392.09 57.5699C391.93 57.8599 391.85 58.0199 391.65 57.9799C391.45 57.9399 391.29 57.5099 391.45 57.2199C391.61 56.9299 391.69 56.7699 391.89 56.8099C392.09 56.8499 392.25 57.2799 392.09 57.5699Z" stroke="black" stroke-width="0.5" stroke-miterlimit="10"/>
<path d="M394.5 64.7199L392.76 64.5599C392.23 64.5099 391.89 63.9699 392.08 63.4699L393.48 59.7999L393.61 58.5899" stroke="black" stroke-width="0.5" stroke-miterlimit="10"/>
<path d="M390.08 67.8699C390.08 67.8699 391.03 69.8399 394.59 68.8899" stroke="black" stroke-width="0.5" stroke-miterlimit="10"/>
<path d="M409.41 63.4999C409.41 63.4999 411.41 60.4199 414.17 60.4199" stroke="black" stroke-miterlimit="10"/>
</svg>
