<svg width="1150" height="375" viewBox="0 0 1150 375" fill="none" xmlns="http://www.w3.org/2000/svg">
<rect width="1150" height="375" transform="matrix(-1 0 0 1 1150 0)" fill="url(#paint0_linear_2048_4737)"/>
<path d="M107.189 230.702H90.7599C89.0953 230.702 87.7451 229.351 87.7451 227.687V217.987C87.7451 216.323 89.0953 214.973 90.7599 214.973H107.189C108.853 214.973 110.203 216.323 110.203 217.987V227.687C110.203 229.354 108.856 230.702 107.189 230.702Z" fill="#07CBF5"/>
<path d="M107.196 246.433H90.767C89.1023 246.433 87.7522 245.083 87.7522 243.418V233.719C87.7522 232.054 89.1023 230.704 90.767 230.704H107.196C108.86 230.704 110.21 232.054 110.21 233.719V243.418C110.21 245.083 108.86 246.433 107.196 246.433Z" fill="#07CBF5"/>
<path d="M107.196 262.16H90.767C89.1023 262.16 87.7522 260.81 87.7522 259.146V249.446C87.7522 247.782 89.1023 246.432 90.767 246.432H107.196C108.86 246.432 110.21 247.782 110.21 249.446V259.146C110.21 260.81 108.86 262.16 107.196 262.16Z" fill="#07CBF5"/>
<path d="M107.189 277.889H90.7599C89.0953 277.889 87.7451 276.539 87.7451 274.875V265.175C87.7451 263.511 89.0953 262.161 90.7599 262.161H107.189C108.853 262.161 110.203 263.511 110.203 265.175V274.875C110.203 276.539 108.856 277.889 107.189 277.889Z" fill="#07CBF5"/>
<path d="M104.24 209.468H93.7107V216.152H104.24V209.468Z" fill="#07CBF5"/>
<path d="M92.7395 239.832C92.3565 239.832 92.0444 239.52 92.0444 239.137V218.019C92.0444 217.636 92.3565 217.324 92.7395 217.324C93.1226 217.324 93.4347 217.636 93.4347 218.019V239.137C93.4347 239.52 93.1226 239.832 92.7395 239.832Z" fill="#E7F1FB"/>
<path d="M104.094 211.435H93.8696C93.1909 211.435 92.6423 210.884 92.6423 210.206V205.19C92.6423 204.512 93.1933 203.961 93.8696 203.961H104.094C104.772 203.961 105.321 204.512 105.321 205.19V210.206C105.321 210.884 104.772 211.435 104.094 211.435Z" fill="#E7F1FB"/>
<path d="M66.0001 289.638L395.639 289.638V277.94L66.0001 277.94V289.638Z" fill="#252359"/>
<path d="M260.797 260.941H226.689L226.228 186.491H264.77L260.797 260.941Z" fill="#CAD9DB"/>
<path d="M197.355 197.444C197.355 197.444 118.476 218.235 113.87 248.369C109.264 278.502 161.568 285.768 188.053 287.65C214.538 289.532 226.228 277.916 226.228 277.916L241.167 186.491L197.355 197.444Z" fill="#CAD9DB"/>
<path d="M290.269 200.715C290.269 200.715 373.753 214.219 376.555 248.369C379.047 278.749 323.271 285.769 296.788 287.651C270.303 289.533 267.113 275.427 267.113 275.427L245.501 193.115L290.269 200.715Z" fill="#CAD9DB"/>
<path d="M193.711 277.242C193.711 277.242 210.495 289.405 210.932 290.973C211.37 292.541 218.042 324.668 222.885 328.529C227.727 332.39 232.213 329.82 232.213 329.82C232.213 329.82 243.08 258.116 242.108 255.515C241.137 252.911 210.625 246.863 210.625 246.863L193.711 277.242Z" fill="#FD8753"/>
<path d="M229.647 330.583L237.62 253.332L248.041 254.947L238.439 332.035L229.647 330.583Z" fill="#D0D5DD"/>
<path d="M216.803 314.398L213.916 303.682L232.745 300.58L233.861 310.414L216.803 314.398Z" fill="#D0D5DD"/>
<path d="M297.289 276.551C297.289 276.551 280.506 288.714 280.068 290.282C279.631 291.85 272.958 323.979 268.116 327.838C263.273 331.699 258.788 329.129 258.788 329.129C258.788 329.129 247.92 257.425 248.892 254.824C249.864 252.22 280.376 246.172 280.376 246.172L297.289 276.551Z" fill="#FD8753"/>
<path d="M261.354 329.895L253.378 252.644L242.958 254.259L252.562 331.345L261.354 329.895Z" fill="#D0D5DD"/>
<path d="M274.198 313.708L277.085 302.991L258.256 299.889L257.14 309.723L274.198 313.708Z" fill="#D0D5DD"/>
<path d="M254.333 240.412L280.069 290.282L316.095 285.674L301.045 240.412H254.333Z" fill="#CAD9DB"/>
<path d="M237.717 242.815L209.561 292.686L173.088 286.183L191.356 242.815H237.717Z" fill="#CAD9DB"/>
<path d="M310.101 230.982C309.845 230.982 309.602 230.838 309.481 230.604C309.341 230.334 309.396 230.003 309.616 229.788C310.713 228.722 320.433 219.351 324.538 219.644C325.181 219.692 325.711 219.959 326.068 220.422C327.094 221.754 326.967 222.919 326.678 223.664C324.91 228.237 311.72 230.706 310.223 230.971C310.181 230.978 310.141 230.982 310.101 230.982ZM324.311 221.025C321.781 221.025 315.884 225.906 312.361 229.117C317.005 228.067 324.333 225.882 325.382 223.163C325.534 222.775 325.652 222.158 324.969 221.271C324.891 221.17 324.761 221.051 324.439 221.028C324.399 221.028 324.354 221.025 324.311 221.025Z" fill="black"/>
<path d="M261.306 239.802C261.001 239.802 260.722 239.601 260.637 239.293C260.535 238.924 260.751 238.541 261.119 238.437C261.427 238.352 292.333 229.852 334.361 227.326C334.746 227.274 335.075 227.594 335.094 227.977C335.117 228.36 334.826 228.688 334.443 228.712C292.572 231.23 261.798 239.693 261.493 239.778C261.431 239.792 261.37 239.802 261.306 239.802Z" fill="black"/>
<path d="M232.215 243.509C232.137 243.509 232.057 243.495 231.977 243.467C231.641 243.344 197.826 231.228 155.981 228.712C155.598 228.688 155.304 228.362 155.328 227.977C155.352 227.591 155.725 227.258 156.063 227.326C198.119 229.854 232.114 242.038 232.452 242.159C232.811 242.291 233 242.689 232.868 243.05C232.766 243.332 232.499 243.509 232.215 243.509Z" fill="black"/>
<path d="M180.253 231.093C180.208 231.093 180.165 231.089 180.12 231.082C178.626 230.793 165.474 228.14 163.769 223.543C163.493 222.794 163.379 221.623 164.422 220.311C164.786 219.852 165.321 219.59 165.964 219.555C166.013 219.552 166.063 219.55 166.115 219.55C170.284 219.55 179.673 228.838 180.742 229.906C180.957 230.124 181.007 230.453 180.865 230.725C180.744 230.954 180.508 231.093 180.253 231.093ZM166.146 220.94C165.723 220.961 165.592 221.077 165.512 221.177C164.815 222.054 164.928 222.673 165.072 223.061C166.087 225.792 173.381 228.083 178.009 229.197C174.519 225.922 168.664 220.94 166.146 220.94Z" fill="black"/>
<path d="M191.134 164.965C182.175 163.819 177.21 153.98 181.631 146.106C190.333 130.609 204.794 109.196 220.251 104.748C245.045 97.6142 218.357 168.451 218.357 168.451L191.134 164.965Z" fill="#21456A"/>
<path d="M262.682 101.21C262.682 101.21 313.035 109.19 319.977 151.411C326.453 190.811 271.748 200.596 271.748 200.596L262.682 101.21Z" fill="#21456A"/>
<path d="M205.292 204.126C205.292 204.126 199.677 114.181 217.883 105.563C240.711 94.7545 273.752 99.7342 279.78 110.732C286.665 123.294 290.269 200.714 290.269 200.714C290.269 200.714 247.937 216.882 205.292 204.126Z" fill="#21456A"/>
<path d="M187.859 134.244C187.859 134.244 172.057 101.403 174.386 100.968C176.715 100.533 191.08 131.802 191.08 131.802L187.859 134.244Z" fill="#FFD28F"/>
<path d="M203.611 160.189C203.264 160.189 202.964 159.929 202.921 159.574C202.018 151.956 207.908 129.152 208.161 128.185C208.255 127.816 208.627 127.585 209.007 127.689C209.379 127.785 209.601 128.164 209.504 128.535C209.445 128.769 203.429 152.05 204.302 159.413C204.344 159.794 204.073 160.139 203.692 160.184C203.663 160.187 203.637 160.189 203.611 160.189Z" fill="black"/>
<path d="M171.684 150.57C171.684 150.57 181.804 129.289 187.594 126.31C193.388 123.33 208.397 124.543 208.613 126.298C208.828 128.052 195.508 131.814 195.508 131.814C195.508 131.814 204.735 144.235 205.217 147.217C205.7 150.199 199.862 159.751 198.455 160.803C197.048 161.856 192.671 157.443 192.671 157.443C192.671 157.443 189.086 163.017 183.367 165.287C181.936 165.854 180.373 165.771 178.831 165.327C173.284 163.726 170.128 157.841 171.336 152.194L171.684 150.57Z" fill="#FD8753"/>
<path d="M189.51 166.116C189.51 166.116 195.126 160.075 195.154 155.218C195.182 150.361 184.549 151.033 184.549 151.033L183.253 160.486L189.51 166.116Z" fill="#FF9C85"/>
<path d="M180.013 204.122H250.063C252.55 204.122 254.567 202.105 254.567 199.618V151.996C254.567 149.509 252.55 147.492 250.063 147.492H180.013C177.526 147.492 175.509 149.509 175.509 151.996V199.618C175.509 202.105 177.526 204.122 180.013 204.122Z" fill="#E7F1FB"/>
<path d="M174.786 204.122H245.131C247.623 204.122 249.645 202.102 249.645 199.61V152.008C249.645 149.515 247.625 147.496 245.131 147.496H174.786C172.294 147.496 170.272 149.515 170.272 152.008V199.61C170.272 202.1 172.294 204.122 174.786 204.122Z" fill="#00A9FF"/>
<path d="M211.956 182.469C215.636 182.469 218.619 179.486 218.619 175.806C218.619 172.126 215.636 169.143 211.956 169.143C208.276 169.143 205.292 172.126 205.292 175.806C205.292 179.486 208.276 182.469 211.956 182.469Z" fill="#E7F1FB"/>
<path d="M270.225 173.501C270.225 173.501 256.608 169.068 254.681 168.451C254.681 168.451 253.813 173.641 253.728 174.594C253.628 175.696 226.94 177.618 226.179 182.432C225.746 185.17 228.917 185.821 228.917 185.821C228.917 185.821 223.171 187.052 224.713 189.824C226.254 192.595 228.917 192.708 228.917 192.708C228.917 192.708 223.266 195.451 228.917 198.953C234.568 202.453 258.225 203.72 267.111 194.851C273.647 188.332 270.225 173.501 270.225 173.501Z" fill="#FD8753"/>
<path d="M262.105 165.126L262.81 200.45C262.81 200.45 276.042 202.594 294.291 190.405C319.653 173.463 318.421 163.521 318.421 163.521L286.311 153.852L262.105 165.126Z" fill="#21456A"/>
<path d="M228.917 186.515C228.579 186.515 228.278 186.267 228.229 185.919C228.174 185.541 228.437 185.186 228.818 185.132L246.412 182.578C246.776 182.514 247.145 182.789 247.199 183.167C247.254 183.545 246.991 183.9 246.611 183.954L229.016 186.508C228.983 186.513 228.95 186.515 228.917 186.515Z" fill="black"/>
<path d="M246.514 193.979C246.49 193.979 228.895 193.403 228.895 193.403C228.512 193.388 228.212 193.067 228.224 192.684C228.238 192.308 228.546 192.012 228.919 192.012C228.943 192.012 246.537 192.589 246.537 192.589C246.92 192.603 247.221 192.925 247.209 193.308C247.195 193.684 246.887 193.979 246.514 193.979Z" fill="black"/>
<path d="M257.175 164.704C256.922 164.704 256.676 164.563 256.554 164.321C256.381 163.979 256.518 163.562 256.863 163.387C257.764 162.936 279.026 152.307 290.056 151.52C290.454 151.468 290.773 151.78 290.797 152.163C290.825 152.544 290.536 152.877 290.153 152.903C279.4 153.672 257.703 164.518 257.487 164.626C257.388 164.681 257.282 164.704 257.175 164.704Z" fill="black"/>
<path d="M271.124 158.422C270.979 158.422 270.835 158.375 270.71 158.285C270.459 158.098 270.362 157.765 270.476 157.474C271.003 156.126 275.746 144.396 281.327 144.396C281.376 144.396 281.424 144.398 281.473 144.398C282.615 144.443 283.027 144.973 283.173 145.413C284.022 148.007 275.335 155.268 271.556 158.273C271.431 158.373 271.275 158.422 271.124 158.422ZM281.324 145.789C278.194 145.789 274.827 151.374 272.916 155.367C278.17 150.965 282.09 146.839 281.852 145.855C281.828 145.855 281.71 145.801 281.419 145.791C281.39 145.789 281.357 145.789 281.324 145.789Z" fill="black"/>
<path d="M187.859 134.942C187.672 134.942 187.488 134.869 187.351 134.72C187.091 134.441 187.105 133.999 187.386 133.739C189.396 131.866 194.818 131.195 195.43 131.126C195.818 131.095 196.156 131.358 196.199 131.738C196.244 132.119 195.967 132.464 195.586 132.507C194.052 132.684 189.751 133.434 188.332 134.756C188.2 134.878 188.029 134.942 187.859 134.942Z" fill="black"/>
<path d="M253.888 86.8652L255.52 103.171C255.52 103.171 254.146 106.89 245.213 108.522C238.557 109.737 234.996 108.536 234.996 108.536L235.152 100.643L235.315 92.9468L251.224 87.7425L253.888 86.8652Z" fill="#FD8753"/>
<path d="M251.219 87.7422C251.222 88.1654 251.113 88.6785 250.921 89.272C248.245 97.3091 238.99 99.91 235.15 100.643L235.313 92.9465L251.219 87.7422Z" fill="black"/>
<path d="M228.368 58.1898C228.368 58.1898 222.215 78.3048 226.474 88.7134C230.732 99.1221 240.337 96.2941 245.96 93.5371C251.583 90.7801 253.891 86.8691 253.891 86.8691C253.891 86.8691 259.582 88.0916 262.658 82.5752C265.732 77.0588 262.8 71.469 259.518 70.49C256.236 69.5111 252.777 72.1996 252.777 72.1996L255.049 66.2978C255.049 66.2978 239.514 39.4391 228.368 58.1898Z" fill="#FD8753"/>
<path d="M231.99 82.5026C231.726 82.5026 231.473 82.3489 231.354 82.0912C229.574 78.1188 231.964 73.5742 232.068 73.3803C232.248 73.0445 232.674 72.9192 233.007 73.0965C233.345 73.2762 233.471 73.6971 233.291 74.0353C233.27 74.0778 231.123 78.1779 232.624 81.5213C232.78 81.8713 232.624 82.2827 232.274 82.4411C232.182 82.4837 232.085 82.5026 231.99 82.5026Z" fill="black"/>
<path d="M254.615 81.1594C254.471 81.1594 254.326 81.1144 254.203 81.0222C253.894 80.7952 253.828 80.3625 254.055 80.0528L258.575 73.9074C258.802 73.5976 259.24 73.5291 259.545 73.7584C259.855 73.9854 259.921 74.4181 259.694 74.7279L255.173 80.8733C255.038 81.0648 254.828 81.1594 254.615 81.1594Z" fill="black"/>
<path d="M259.934 79.0099C259.913 79.0099 256.25 78.9059 256.25 78.9059C255.867 78.8941 255.565 78.5748 255.577 78.1894C255.588 77.8064 255.936 77.4824 256.293 77.5155L259.956 77.6196C260.339 77.6314 260.641 77.9506 260.63 78.336C260.618 78.712 260.31 79.0099 259.934 79.0099Z" fill="black"/>
<path d="M252.777 72.1998C252.777 72.1998 250.961 73.7367 249.252 71.6678C247.542 69.5988 249.869 62.5786 249.869 62.5786C249.869 62.5786 244.109 64.6475 240.208 63.1389C236.306 61.628 233.849 56.4568 233.849 56.4568C233.849 56.4568 222.407 63.399 219.991 55.2296C216.148 42.2389 234.074 45.2584 234.074 45.2584C234.074 45.2584 234.554 40.1155 245.71 42.752C255.872 45.1543 256.875 57.3742 256.875 57.3742C256.875 57.3742 260.689 54.882 262.59 61.096C264.491 67.3099 261.45 71.6465 261.45 71.6465C261.45 71.6465 256.929 69.691 252.777 72.1998Z" fill="#E1E1E1"/>
<path d="M242.271 67.0671C242.049 67.0671 241.829 66.9607 241.697 66.7621C240.628 65.1921 237.356 65.7832 237.322 65.788C236.946 65.8589 236.58 65.6177 236.507 65.2417C236.433 64.8657 236.677 64.4993 237.053 64.426C237.218 64.3905 241.243 63.6291 242.844 65.9818C243.059 66.2987 242.978 66.7314 242.659 66.9465C242.541 67.0269 242.406 67.0671 242.271 67.0671Z" fill="black"/>
<path d="M227.262 66.6622C227.155 66.6622 227.046 66.6362 226.945 66.5842C226.607 66.4092 226.472 66.0001 226.642 65.6596C227.096 64.7516 228.709 63.2477 231.586 64.0588C231.955 64.1628 232.17 64.5483 232.066 64.9171C231.96 65.2813 231.584 65.4917 231.208 65.3971C228.794 64.709 227.969 66.1254 227.881 66.2909C227.756 66.525 227.512 66.6622 227.262 66.6622Z" fill="black"/>
<path d="M236.426 88.1125C236.124 88.1125 235.847 87.9139 235.76 87.6065C235.653 87.24 235.868 86.8546 236.237 86.7506C236.263 86.7411 238.916 85.9609 239.822 84.003C239.983 83.6554 240.392 83.5017 240.744 83.6649C241.092 83.8257 241.245 84.2371 241.085 84.587C239.909 87.1312 236.753 88.0511 236.618 88.0889C236.554 88.1031 236.488 88.1125 236.426 88.1125Z" fill="black"/>
<path d="M238.935 75.0164C238.552 75.0164 238.24 74.7043 238.24 74.3213V70.4647C238.24 70.0817 238.552 69.7695 238.935 69.7695C239.318 69.7695 239.63 70.0817 239.63 70.4647V74.3213C239.628 74.7043 239.318 75.0164 238.935 75.0164Z" fill="black"/>
<path d="M228.595 75.0164C228.212 75.0164 227.9 74.7043 227.9 74.3213V70.4647C227.9 70.0817 228.212 69.7695 228.595 69.7695C228.978 69.7695 229.29 70.0817 229.29 70.4647V74.3213C229.29 74.7043 228.981 75.0164 228.595 75.0164Z" fill="black"/>
<path d="M239.278 109.791C235.703 109.791 233.182 109.198 233.121 109.181C232.749 109.091 232.52 108.715 232.612 108.342C232.702 107.971 233.078 107.736 233.452 107.833C233.586 107.869 247.324 111.094 255.761 101.927C256.019 101.645 256.458 101.624 256.742 101.887C257.024 102.144 257.042 102.584 256.782 102.868C251.512 108.597 244.34 109.791 239.278 109.791Z" fill="white"/>
<path d="M727.813 187.106C727.813 174.632 738.13 164.613 751.03 164.613C754.909 164.586 758.733 165.514 762.159 167.312C765.585 169.11 768.504 171.722 770.653 174.913L760.981 180.458C759.862 178.878 758.372 177.588 756.639 176.7C754.907 175.812 752.982 175.352 751.03 175.359C744.397 175.359 738.961 180.823 738.961 187.106C738.961 193.389 744.397 198.853 751.03 198.853C753.074 198.866 755.087 198.361 756.878 197.387C758.668 196.412 760.176 195 761.257 193.286L770.834 198.931C768.71 202.215 765.78 204.915 762.316 206.778C758.853 208.642 754.968 209.608 751.024 209.587C738.13 209.598 727.813 199.388 727.813 187.106Z" fill="#2668B8" fill-opacity="0.75"/>
<path d="M772.808 187.106C772.808 174.721 783.125 164.705 796.025 164.705C809.016 164.705 819.336 174.726 819.336 187.106C819.336 199.399 809.016 209.598 796.025 209.598C783.125 209.598 772.808 199.388 772.808 187.106ZM808.188 187.106C808.188 180.915 802.751 175.45 796.025 175.45C789.392 175.45 783.956 180.915 783.956 187.106C783.956 193.389 789.392 198.853 796.025 198.853C802.763 198.853 808.188 193.389 808.188 187.106Z" fill="#0056D2" fill-opacity="0.75"/>
<path d="M1006.94 187.47C1006.94 173.903 1018.08 164.705 1028.22 164.705C1035.13 164.705 1039.09 166.798 1041.76 170.807L1042.83 165.518H1053.19V208.777H1042.83L1041.49 204.323C1038.45 207.602 1034.67 209.612 1028.22 209.612C1018.27 209.598 1006.94 200.946 1006.94 187.47ZM1042.32 187.379C1042.3 184.204 1041.02 181.164 1038.74 178.928C1036.45 176.692 1033.37 175.442 1030.16 175.454C1026.95 175.467 1023.87 176.739 1021.61 178.993C1019.34 181.246 1018.08 184.296 1018.09 187.47C1018.09 193.48 1023.53 198.853 1030.16 198.853C1036.88 198.853 1042.32 193.48 1042.32 187.379Z" fill="#0056D2" fill-opacity="0.75"/>
<path d="M994.202 170.532V165.521H982.871V208.777H994.202V185.469C994.202 178.457 997.706 174.816 1003.78 174.816C1004.18 174.816 1004.56 174.844 1004.94 174.88L1007.04 164.438C1001.13 164.469 996.853 166.47 994.202 170.532Z" fill="#0056D2" fill-opacity="0.75"/>
<path d="M880.335 170.534V165.524L869.004 165.549L869.099 208.799L880.431 208.774L880.369 185.469C880.352 178.459 883.847 174.81 889.925 174.796C890.313 174.797 890.7 174.819 891.086 174.86L893.176 164.407C887.261 164.455 882.974 166.464 880.335 170.534Z" fill="#0056D2" fill-opacity="0.75"/>
<path d="M823.262 192.022V165.523H834.59V190.658C834.59 196.211 837.722 199.49 843.158 199.49C849.24 199.49 852.735 195.847 852.735 188.834V165.523H864.069V208.777H852.743V203.766C850.073 207.864 845.741 209.868 839.753 209.868C829.619 209.871 823.262 202.586 823.262 192.022Z" fill="#0056D2" fill-opacity="0.75"/>
<path d="M933.6 187.156C933.625 175.044 942.396 164.68 956.307 164.705C969.207 164.73 978.308 174.944 978.277 186.975C978.279 188.164 978.185 189.352 977.995 190.527L944.644 190.466C945.923 195.657 950.246 199.399 956.789 199.413C960.749 199.413 964.991 197.971 967.577 194.697L975.305 200.821C971.331 206.369 964.321 209.634 956.862 209.621C943.695 209.576 933.577 199.813 933.6 187.156ZM966.87 182.663C966.233 178.292 961.634 174.913 956.198 174.905C950.945 174.905 946.703 177.983 945.035 182.624L966.87 182.663Z" fill="#0056D2" fill-opacity="0.75"/>
<path d="M893.243 199.349L903.316 194.138C904.98 197.704 908.309 199.805 913.027 199.805C917.373 199.805 919.038 198.436 919.038 196.515C919.038 189.556 895.178 193.773 895.178 177.864C895.178 169.09 902.947 164.43 912.563 164.43C919.869 164.43 926.341 167.628 929.857 173.569L919.874 178.788C918.396 175.862 915.621 174.217 912.106 174.217C908.687 174.217 907.019 175.406 907.019 177.416C907.019 184.18 930.879 179.885 930.879 196.067C930.879 204.476 923.944 209.593 912.754 209.593C903.228 209.585 896.57 206.478 893.243 199.349Z" fill="#0056D2" fill-opacity="0.75"/>
<path d="M727.813 187.106C727.813 174.632 738.13 164.613 751.03 164.613C754.909 164.586 758.733 165.514 762.159 167.312C765.585 169.11 768.504 171.722 770.653 174.913L760.981 180.458C759.862 178.878 758.372 177.588 756.639 176.7C754.907 175.812 752.982 175.352 751.03 175.359C744.397 175.359 738.961 180.823 738.961 187.106C738.961 193.389 744.397 198.853 751.03 198.853C753.074 198.866 755.087 198.361 756.878 197.387C758.668 196.412 760.176 195 761.257 193.286L770.834 198.931C768.71 202.215 765.78 204.915 762.316 206.778C758.853 208.642 754.968 209.608 751.024 209.587C738.13 209.598 727.813 199.388 727.813 187.106Z" fill="#0056D2" fill-opacity="0.75"/>
<defs>
<linearGradient id="paint0_linear_2048_4737" x1="0" y1="187.5" x2="1150" y2="187.5" gradientUnits="userSpaceOnUse">
<stop stop-color="white"/>
<stop offset="1" stop-color="#144BD1"/>
</linearGradient>
</defs>
</svg>
