<svg width="1150" height="375" viewBox="0 0 1150 375" fill="none" xmlns="http://www.w3.org/2000/svg">
<rect width="1150" height="375" transform="matrix(-1 0 0 1 1150 0)" fill="url(#paint0_linear_2046_2143)"/>
<path d="M882.5 342.547C766.87 342.547 673.133 329.368 673.133 313.111C673.133 296.855 766.87 283.676 882.5 283.676C998.13 283.676 1091.87 296.855 1091.87 313.111C1091.87 329.368 998.13 342.547 882.5 342.547Z" fill="#3A3A3A"/>
<path d="M1061.19 310.126L890.257 310.854C848.709 278.23 844.419 229.898 874.058 200.644C892.002 182.925 914.782 186.499 936.471 183.674H936.535C944.195 182.877 951.648 180.702 958.534 177.254C980.865 165.484 993.459 137.664 1012.25 114.295C1014.59 111.363 1017.03 108.506 1019.61 105.735C1035.06 89.2356 1065.81 88.7006 1081.89 111.888C1122.75 170.78 1103.99 258.499 1061.19 310.126Z" fill="#CAD9DB"/>
<path d="M1064.97 175.274C1060.49 245.402 979.496 271.574 928.917 250.57C884.929 232.305 899.331 190.65 936.407 183.631H936.471C944.131 182.834 951.584 180.659 958.47 177.211C980.801 165.441 993.395 137.621 1012.18 114.252C1040.22 99.6682 1068.25 123.914 1064.97 175.274Z" fill="#B9ACAC"/>
<path d="M1005.67 79.552C993.48 91.108 985.102 121.164 991.276 140.135C998.638 162.734 1018.8 174.268 1035.33 168.918C1050.31 164.061 1056.95 148.888 1051.44 137.6C1046.09 126.707 1035.95 122.716 1034.07 112.99C1033.17 108.346 1034.72 100.642 1034.33 93.6439C1033.65 80.943 1015.18 70.564 1005.67 79.552Z" fill="#263238"/>
<path d="M1053.45 140.21C1052.81 137.847 1051.81 135.595 1050.49 133.533C1049.23 131.523 1047.74 129.669 1046.04 128.012C1044.35 126.375 1042.69 124.685 1041.08 122.919C1039.43 121.131 1038 119.156 1036.8 117.034C1036.19 115.934 1035.67 114.781 1035.25 113.589C1034.88 112.347 1034.66 111.064 1034.59 109.769C1034.51 107.214 1034.57 104.656 1034.76 102.108C1034.93 99.6051 1034.8 97.0922 1034.4 94.6175C1033.82 92.1859 1032.83 89.8703 1031.48 87.7695C1032.99 89.7867 1034.12 92.0643 1034.8 94.4891C1035.31 96.9948 1035.53 99.5521 1035.44 102.108C1035.44 104.654 1035.21 107.201 1035.44 109.672C1035.52 110.885 1035.74 112.085 1036.1 113.246C1036.51 114.357 1037.02 115.43 1037.61 116.456C1039.9 120.683 1043.35 123.946 1046.58 127.413C1048.24 129.172 1049.67 131.123 1050.86 133.223C1052.1 135.398 1052.97 137.757 1053.45 140.21Z" fill="#263238"/>
<path d="M917.5 341.734C920.014 340.814 976.767 295.457 977.837 292.364C978.244 291.187 972.123 282.542 964.43 272.302C962.771 270.087 961.038 267.808 959.273 265.507C947.802 250.527 935.283 234.98 935.283 234.98L897.234 265.208L922.261 294.911L927.75 301.438C927.75 301.438 913.84 328.52 912.984 332.04C912.128 335.56 914.985 342.654 917.5 341.734Z" fill="#F7A9A0"/>
<path d="M917.5 341.734C920.014 340.814 976.767 295.457 977.837 292.364C978.329 290.93 969.192 278.454 959.273 265.507L922.261 294.911L927.75 301.438C927.75 301.438 913.84 328.52 912.984 332.04C912.128 335.56 914.985 342.654 917.5 341.734Z" fill="white"/>
<path d="M917.5 341.734C920.014 340.814 976.767 295.457 977.837 292.364C978.244 291.187 972.123 282.542 964.43 272.302L927.75 301.47C927.75 301.47 913.84 328.552 912.984 332.072C912.128 335.592 914.985 342.654 917.5 341.734Z" fill="#2F8D46"/>
<path d="M916.494 338.813C925.824 330.981 964.184 300.293 973.996 293.22C974.081 293.156 974.124 293.22 974.049 293.22C964.976 301.192 926.37 331.612 916.622 338.92C916.419 339.123 916.301 338.984 916.494 338.813Z" fill="#263238"/>
<path d="M915.007 327.086C916.041 326.212 917.246 325.563 918.544 325.179C919.843 324.796 921.207 324.688 922.55 324.86C924.971 325.145 927.188 326.357 928.735 328.241C928.735 328.295 928.671 328.381 928.617 328.327C926.788 326.702 924.481 325.714 922.042 325.511C919.603 325.309 917.165 325.902 915.092 327.203C915.077 327.21 915.06 327.211 915.043 327.206C915.027 327.202 915.013 327.192 915.003 327.178C914.993 327.165 914.988 327.148 914.989 327.131C914.99 327.115 914.996 327.099 915.007 327.086Z" fill="#263238"/>
<path d="M924.818 305.333C928.585 302.23 934.074 300.047 938.932 301.277C939.114 301.277 939.049 301.588 938.932 301.62C934.208 302.534 929.595 303.951 925.172 305.846C925.103 305.893 925.02 305.911 924.938 305.896C924.857 305.881 924.785 305.834 924.738 305.766C924.691 305.698 924.674 305.614 924.689 305.533C924.704 305.452 924.75 305.38 924.818 305.333Z" fill="#263238"/>
<path d="M922.796 308.821C926.563 305.729 932.052 303.546 936.91 304.766C937.091 304.819 937.027 305.087 936.91 305.119C932.185 306.033 927.572 307.45 923.149 309.345C923.08 309.392 922.995 309.409 922.912 309.393C922.83 309.377 922.758 309.329 922.711 309.26C922.664 309.19 922.647 309.105 922.663 309.023C922.679 308.94 922.727 308.868 922.796 308.821Z" fill="#263238"/>
<path d="M920.774 312.32C924.54 309.228 930.03 307.045 934.887 308.265C935.069 308.265 935.005 308.575 934.887 308.607C930.159 309.532 925.546 310.967 921.127 312.887C921.09 312.91 921.048 312.926 921.005 312.933C920.962 312.94 920.918 312.939 920.875 312.929C920.832 312.919 920.792 312.901 920.756 312.875C920.721 312.85 920.69 312.817 920.667 312.78C920.644 312.743 920.628 312.701 920.621 312.658C920.614 312.615 920.615 312.571 920.625 312.528C920.635 312.485 920.653 312.445 920.679 312.409C920.705 312.373 920.737 312.343 920.774 312.32Z" fill="#263238"/>
<path d="M918.752 315.819C922.518 312.716 928.007 310.533 932.854 311.753C933.047 311.806 932.972 312.074 932.854 312.106C928.13 313.019 923.517 314.436 919.094 316.332C919.026 316.378 918.943 316.394 918.862 316.378C918.782 316.362 918.712 316.315 918.666 316.247C918.621 316.179 918.604 316.095 918.62 316.015C918.636 315.935 918.684 315.864 918.752 315.819Z" fill="#263238"/>
<path d="M964.355 286.115C968.635 282.713 973.932 289.325 969.641 292.771C965.35 296.216 960.064 289.529 964.355 286.115Z" fill="white"/>
<path d="M912.588 298.453C913.23 295.318 916.868 294.943 919.426 295.649C923.715 296.949 927.586 299.355 930.65 302.626C930.666 302.638 930.678 302.653 930.687 302.671C930.695 302.688 930.7 302.708 930.7 302.727C930.7 302.747 930.695 302.766 930.687 302.784C930.678 302.802 930.666 302.817 930.65 302.829C930.689 302.913 930.708 303.005 930.707 303.098C930.705 303.19 930.682 303.282 930.64 303.364C930.597 303.447 930.537 303.518 930.463 303.574C930.388 303.63 930.302 303.668 930.211 303.685C925.996 303.974 921.534 304.809 917.371 303.792C914.91 303.204 911.968 301.47 912.588 298.453ZM923.727 302.818C925.803 302.722 927.857 302.529 929.933 302.508C927.74 301.16 925.653 299.715 923.278 298.581C922.162 298.021 921.011 297.535 919.832 297.126C918.003 296.537 911.722 296.334 914.654 300.785C916.269 303.236 921.255 302.925 923.727 302.818Z" fill="#263238"/>
<path d="M941.254 296.473C938.343 299.63 934.17 301.417 930.554 303.514C930.47 303.553 930.377 303.572 930.284 303.57C930.191 303.567 930.101 303.542 930.019 303.497C929.938 303.452 929.868 303.388 929.816 303.311C929.764 303.234 929.731 303.146 929.719 303.054C929.634 303.054 929.559 303 929.58 302.904C930.311 298.477 932.197 294.321 935.048 290.856C936.738 288.865 940.002 287.143 942.292 289.39C944.582 291.637 942.955 294.633 941.254 296.473ZM941.821 292.471C941.821 287.121 936.674 290.802 935.487 292.311C934.728 293.302 934.042 294.346 933.432 295.435C932.2 297.7 931.082 300.025 930.083 302.401C931.816 301.256 933.635 300.261 935.433 299.191C937.53 297.918 941.842 295.403 941.821 292.471Z" fill="#263238"/>
<path d="M858.8 207.085C861.4 226.848 910.16 283.922 915.756 290.47L917.04 291.958L957.336 260.981L956.876 260.382L921.384 213.923L1027.24 213.302L987.05 182.047C987.05 182.047 983.786 183.93 977.013 182.935C953.644 179.522 900.979 171.946 888.556 172.449C872.538 173.07 856.403 188.938 858.8 207.085Z" fill="#4A5556"/>
<path d="M908.64 196.61C909.952 198.102 911.174 199.671 912.3 201.307C913.551 202.955 914.825 204.582 916.077 206.229C915.852 205.748 915.638 205.266 915.403 204.785C914.611 203.148 913.979 201.457 913.049 199.895C913.04 199.877 913.038 199.856 913.043 199.836C913.048 199.816 913.06 199.799 913.077 199.787C913.094 199.776 913.114 199.77 913.134 199.772C913.155 199.775 913.174 199.784 913.188 199.799C914.151 201.361 915.263 202.838 916.087 204.475C916.483 205.245 916.847 206.015 917.157 206.807C917.339 207.246 917.532 207.685 917.703 208.123C917.789 208.33 917.864 208.54 917.928 208.755C918.495 209.514 918.998 210.285 919.586 211.066C920.785 212.799 921.833 214.629 923.042 216.341C923.107 216.437 922.967 216.523 922.893 216.437C921.673 214.822 920.303 213.313 919.051 211.708C917.799 210.103 916.59 208.402 915.403 206.711C914.215 205.02 913.113 203.405 911.957 201.746C910.687 200.122 909.518 198.421 908.458 196.653C908.501 196.664 908.587 196.61 908.64 196.61Z" fill="#263238"/>
<path d="M1005.81 145.025C1000.08 156.014 978.147 191.174 965.864 192.597C957.807 193.528 926.274 187.312 921.491 179.233C919.426 175.713 925.717 153.2 929.88 154.527C934.042 155.854 959.262 161.739 962.493 161.139C965.725 160.54 991.907 135.77 1001.36 129.906C1017.64 119.805 1008.89 139.108 1005.81 145.025Z" fill="#F7A9A0"/>
<path d="M939.692 153.81L935.626 188.168C935.626 188.168 960.439 195.262 971.642 192.148C985.263 188.371 1007.33 148.278 1010.42 141.698C1015.49 130.826 1014.7 124.01 1008.39 125.273C1005.92 125.744 1002.64 127.413 998.531 130.623C994.251 133.94 969.416 155.65 961.766 159.513C957.496 161.781 939.692 153.81 939.692 153.81Z" fill="#455A64"/>
<path d="M939.692 153.81L935.626 188.178C935.626 188.178 939.745 189.356 945.384 190.533C953.58 192.255 964.997 193.989 971.642 192.148C985.252 188.371 1007.33 148.278 1010.42 141.687C1014.09 133.833 1014.7 128.087 1012.33 125.99C1011.78 125.563 1011.13 125.275 1010.44 125.148C1009.75 125.022 1009.05 125.061 1008.37 125.263C1005.94 125.744 1002.64 127.403 998.531 130.613C994.251 133.93 969.427 155.651 961.776 159.567C957.496 161.792 939.692 153.81 939.692 153.81Z" fill="#407BFF"/>
<path d="M941.949 188.05C942.709 182.989 945.031 162.177 945.223 157.641C945.223 157.33 945.041 157.245 944.988 157.566C942.366 172.674 942.238 183.01 941.778 188.007C941.746 188.136 941.938 188.178 941.949 188.05Z" fill="#263238"/>
<path d="M1010.42 141.698C1007.34 148.321 985.252 188.392 971.653 192.159C968.293 193.09 963.702 193.1 958.93 192.683L1009.22 125.155C1009.77 125.066 1010.33 125.096 1010.87 125.241C1011.41 125.387 1011.91 125.646 1012.33 126.001C1014.69 128.13 1014.11 133.844 1010.42 141.698Z" fill="#263238"/>
<path d="M1048.21 209.108L983.84 192.662L990.185 169.421C990.185 169.421 985.092 162.135 987.264 155.18C989.19 148.984 1003.87 130.57 1006.83 128.098C1011.92 123.893 1021.01 122.481 1025.99 128.355C1046.51 152.548 1048.21 209.108 1048.21 209.108Z" fill="#407BFF"/>
<path opacity="0.1" d="M1010.37 125.915L1027.49 130.195C1027 129.564 1026.51 128.954 1026.01 128.355L1025.66 127.959L1013.37 124.92C1012.34 125.153 1011.33 125.487 1010.37 125.915ZM1006.33 128.558L1030.49 134.625C1030.6 134.807 1030.72 134.989 1030.81 135.171L1005.96 128.932L1006.33 128.558ZM1003.22 132.003L1033.18 139.493C1033.51 140.157 1033.84 140.842 1034.16 141.526L1001.98 133.48C1002.4 132.956 1002.82 132.463 1003.22 132.003ZM999.526 136.519L1036.02 145.678L1036.24 146.192L999.216 136.915L999.526 136.519ZM996.797 140.06L1037.82 150.354C1038.06 151.01 1038.28 151.663 1038.5 152.312L995.695 141.612C996.038 141.056 996.423 140.553 996.797 140.06ZM993.427 144.661L1039.79 156.292C1039.85 156.453 1039.9 156.618 1039.94 156.785L993.181 145.015C993.245 144.929 993.341 144.801 993.427 144.661ZM990.987 148.267L1041.08 160.84C1041.25 161.471 1041.42 162.113 1041.59 162.744L990.003 149.808C990.313 149.316 990.634 148.802 990.987 148.267ZM988.184 153.018L1042.53 166.65C1042.53 166.81 1042.6 166.982 1042.65 167.142L987.981 153.425C988.038 153.284 988.106 153.148 988.184 153.018ZM986.868 156.902L1043.51 171.112L1043.9 172.995L986.729 158.657C986.728 158.069 986.774 157.482 986.868 156.902ZM1044.65 176.836C1044.65 176.997 1044.71 177.168 1044.73 177.329L987.307 162.926C987.307 162.755 987.221 162.595 987.189 162.423L1044.65 176.836ZM1045.4 181.245C1045.49 181.876 1045.59 182.497 1045.68 183.107L990.035 169.143C989.61 168.472 989.221 167.779 988.869 167.067L1045.4 181.245ZM989.34 172.631L1046.21 186.905L1046.27 187.387L989.19 173.07L989.34 172.631ZM988.27 176.58L1046.73 191.26C1046.81 191.891 1046.88 192.501 1046.95 193.1L987.777 178.249L988.27 176.58ZM986.879 181.683L1047.34 196.856C1047.34 197.017 1047.34 197.177 1047.34 197.338L986.675 182.122L986.879 181.683ZM985.809 185.632L1047.72 201.168C1047.72 201.81 1047.82 202.42 1047.86 202.987L985.306 187.301L985.809 185.632ZM984.418 190.725L1048.08 206.711C1048.08 206.871 1048.08 207.032 1048.08 207.182L984.214 191.132L984.418 190.725Z" fill="black"/>
<path d="M998.253 137.632C996.637 139.643 994.882 141.569 993.213 143.549C993.951 142.093 994.689 140.649 995.492 139.269C994.284 140.942 993.251 142.734 992.41 144.619C991.155 146.102 990.011 147.676 988.986 149.327C987.715 151.248 986.802 153.383 986.29 155.629C985.887 157.916 985.986 160.264 986.579 162.509C987.292 165.11 988.245 167.639 989.425 170.063C989.575 170.384 990.056 170.149 989.939 169.828C988.355 165.548 986.568 161.032 987.274 156.442C987.981 151.852 990.677 147.957 993.309 144.244C994.866 141.966 996.567 139.789 998.402 137.728C998.477 137.653 998.317 137.546 998.253 137.632Z" fill="#263238"/>
<path d="M999.686 166.372C1002.63 167.443 1005.49 168.731 1008.25 170.224C1009.61 170.994 1010.91 171.808 1012.21 172.664C1012.86 173.092 1013.51 173.487 1014.17 173.883C1014.84 174.329 1015.56 174.688 1016.31 174.953C1016.33 174.953 1016.34 174.959 1016.35 174.969C1016.36 174.979 1016.37 174.993 1016.37 175.007C1016.37 175.021 1016.36 175.035 1016.35 175.045C1016.34 175.055 1016.33 175.06 1016.31 175.06C1015.57 174.902 1014.83 174.691 1014.11 174.429C1013.42 174.149 1012.76 173.828 1012.11 173.466C1010.73 172.706 1009.39 171.882 1008.01 171.112C1005.24 169.55 1002.48 167.988 999.601 166.629C999.451 166.543 999.547 166.318 999.686 166.372Z" fill="#263238"/>
<path d="M991.544 167.035C994.101 167.443 996.634 167.993 999.13 168.683C1000.38 169.025 1001.59 169.443 1002.8 169.903C1003.38 170.117 1003.94 170.341 1004.51 170.577C1005.08 170.812 1005.74 171.176 1006.36 171.422C1006.44 171.422 1006.36 171.551 1006.36 171.529C1005.75 171.315 1005.12 171.197 1004.5 171.016L1002.66 170.47C1001.42 170.106 1000.19 169.753 998.959 169.4C996.498 168.651 994.037 167.934 991.544 167.26C991.351 167.206 991.405 167.014 991.544 167.035Z" fill="#263238"/>
<path d="M1019.46 128.184C1019.08 129.339 1012.71 136.487 1007.33 135.727C1005.58 135.481 1006.51 125.851 1006.51 125.851L1006.42 125.134L1005.12 114.958L1017.52 108.538L1019.3 107.693C1019.3 107.693 1019.47 110.507 1019.65 113.995V114.498C1019.65 114.691 1019.65 114.884 1019.65 115.065C1019.65 115.59 1019.72 116.135 1019.74 116.649C1019.76 117.163 1019.74 117.452 1019.74 117.88V119.142C1019.85 122.159 1019.76 125.18 1019.46 128.184Z" fill="#F7A9A0"/>
<path d="M1019.64 114.006C1018.38 116.711 1016.54 119.107 1014.25 121.029C1011.96 122.951 1009.29 124.351 1006.41 125.134L1005.11 114.958L1017.51 108.538L1019.29 107.693C1019.29 107.693 1019.46 110.518 1019.64 114.006Z" fill="#263238"/>
<path d="M992.389 96.7897C987.799 114.188 997.739 118.907 1001.45 119.891C1004.85 120.79 1016.57 123.401 1022.94 106.569C1029.3 89.7384 1022.67 82.12 1014.99 79.659C1007.3 77.198 996.99 79.4022 992.389 96.7897Z" fill="#F7A9A0"/>
<path d="M995.492 96.0299C995.905 96.0514 996.32 96.0514 996.733 96.0299C997.172 96.0787 997.615 95.9849 997.996 95.7624C998.101 95.6676 998.172 95.5412 998.199 95.4023C998.226 95.2633 998.208 95.1193 998.146 94.992C997.982 94.7625 997.759 94.581 997.501 94.4663C997.244 94.3515 996.96 94.3077 996.68 94.3393C996.1 94.3111 995.531 94.5021 995.085 94.8743C994.997 94.9657 994.936 95.08 994.909 95.2042C994.881 95.3285 994.889 95.4578 994.932 95.5778C994.974 95.6978 995.049 95.8036 995.148 95.8835C995.247 95.9633 995.366 96.014 995.492 96.0299Z" fill="#263238"/>
<path d="M1007.81 97.7528C1007.42 97.6145 1007.04 97.4537 1006.66 97.2713C1006.24 97.1597 1005.86 96.9115 1005.59 96.5651C1005.53 96.4378 1005.51 96.2939 1005.54 96.1549C1005.57 96.0159 1005.64 95.8895 1005.74 95.7947C1005.98 95.6413 1006.25 95.5535 1006.54 95.5403C1006.82 95.5271 1007.1 95.5891 1007.35 95.7198C1007.89 95.9038 1008.35 96.2855 1008.63 96.7898C1008.7 96.9103 1008.73 97.0489 1008.72 97.1867C1008.7 97.3245 1008.65 97.4549 1008.56 97.5601C1008.47 97.6653 1008.35 97.7402 1008.21 97.7747C1008.08 97.8092 1007.94 97.8016 1007.81 97.7528Z" fill="#263238"/>
<path d="M1004.55 100.652C1004.55 100.652 1004.64 100.738 1004.63 100.781C1004.33 101.968 1004.19 103.381 1005.19 103.991C1005.19 103.991 1005.19 104.076 1005.19 104.055C1003.88 103.606 1004.08 101.733 1004.55 100.652Z" fill="#263238"/>
<path d="M1005.89 99.6358C1007.85 99.9033 1007.18 103.798 1005.36 103.552C1003.54 103.306 1004.26 99.4111 1005.89 99.6358Z" fill="#263238"/>
<path d="M1006.62 99.9784C1006.92 100.257 1007.19 100.706 1007.59 100.813C1008 100.92 1008.49 100.599 1008.87 100.257C1008.87 100.257 1008.93 100.257 1008.93 100.321C1008.8 101.07 1008.39 101.776 1007.57 101.755C1006.76 101.733 1006.41 100.973 1006.35 100.192C1006.34 100.043 1006.5 99.8607 1006.62 99.9784Z" fill="#263238"/>
<path d="M997.525 98.9724C997.525 98.9724 997.429 98.9724 997.418 99.0687C997.258 100.278 996.862 101.647 995.706 101.861V101.936C997.065 101.968 997.568 100.149 997.525 98.9724Z" fill="#263238"/>
<path d="M996.658 97.5386C994.743 97.0678 993.94 100.941 995.717 101.369C997.493 101.797 998.274 97.9345 996.658 97.5386Z" fill="#263238"/>
<path d="M995.802 97.6242C995.449 97.7633 995.075 98.0736 994.732 98.0201C994.39 97.9666 994.08 97.4744 993.887 97.025C993.887 96.9715 993.887 97.025 993.823 97.025C993.652 97.7526 993.737 98.5765 994.411 98.8654C995.086 99.1543 995.642 98.5979 995.974 97.8917C996.006 97.7954 995.92 97.56 995.802 97.6242Z" fill="#263238"/>
<path d="M1002.34 110.914C1002.02 111.17 1001.68 111.523 1001.27 111.502C1000.82 111.432 1000.39 111.272 1000.01 111.031C1000.01 111.031 999.922 111.031 999.943 111.031C1000.09 111.292 1000.3 111.509 1000.55 111.66C1000.81 111.811 1001.1 111.889 1001.4 111.887C1001.65 111.849 1001.88 111.738 1002.07 111.569C1002.26 111.4 1002.4 111.18 1002.47 110.935C1002.53 110.924 1002.45 110.881 1002.34 110.914Z" fill="#263238"/>
<path d="M998.178 105.66C998.178 105.66 997.589 107.415 997.429 108.26C997.429 108.335 997.611 108.421 997.9 108.485C998.603 108.755 999.367 108.825 1000.11 108.687C1000.85 108.549 1001.54 108.209 1002.09 107.704C1002.11 107.69 1002.12 107.671 1002.12 107.651C1002.12 107.63 1002.12 107.61 1002.11 107.593C1002.09 107.576 1002.08 107.564 1002.06 107.559C1002.04 107.554 1002.02 107.556 1002 107.565C1000.78 108.103 999.415 108.235 998.114 107.939C998.114 107.693 999.184 104.965 999.087 104.933C998.416 104.869 997.74 104.894 997.076 105.007C998.146 101.327 999.879 97.8491 1000.93 94.1576C1000.94 94.1298 1000.94 94.0991 1000.93 94.0719C1000.91 94.0446 1000.89 94.0228 1000.87 94.0106C1000.84 93.9985 1000.81 93.9969 1000.78 94.0063C1000.75 94.0157 1000.73 94.0354 1000.71 94.0613C998.785 97.7342 997.229 101.591 996.07 105.575C995.92 106.024 997.803 105.714 998.178 105.66Z" fill="#263238"/>
<path d="M1022.76 107.543C1021.67 106.852 1020.78 105.892 1020.17 104.756C1019.56 103.62 1019.26 102.347 1019.29 101.059C1016.3 99.3451 1013.83 96.8622 1012.13 93.8687C1012.21 94.2539 1012.78 97.0145 1013.11 98.4162C1001.98 95.035 999.408 85.94 999.408 85.94C997.014 87.7023 995.046 89.9806 993.652 92.6061C993.652 92.6061 994.347 85.619 998.445 81.339C999.788 79.8391 1001.51 78.7243 1003.42 78.1093C1005.34 77.4943 1007.38 77.4013 1009.35 77.8401C1012.23 77.468 1015.16 77.881 1017.83 79.0354C1020.5 80.1898 1022.81 82.0428 1024.51 84.3992C1031.02 93.2802 1022.76 107.543 1022.76 107.543Z" fill="#263238"/>
<path d="M1004.67 95.5807C1006.39 96.7836 1008.28 97.7213 1010.28 98.3627C1007.18 97.1346 1004.48 95.0671 1002.49 92.3921C1001.65 91.2495 1000.95 90.0058 1000.41 88.6899C999.758 87.2756 999.394 85.7435 999.344 84.1852C999.344 84.0675 999.173 84.0675 999.173 84.1852C999.05 85.7273 999.188 87.279 999.58 88.7755C1000.04 90.2431 1000.77 91.6139 1001.72 92.8201C1002.57 93.8814 1003.57 94.821 1004.67 95.6128" fill="#263238"/>
<path d="M1019.81 107.179C1019.81 107.179 1024.64 102.322 1026.92 104.13C1029.2 105.938 1024.88 113.46 1021.75 114.049C1021.35 114.152 1020.94 114.173 1020.53 114.111C1020.13 114.05 1019.74 113.907 1019.39 113.691C1019.04 113.475 1018.74 113.191 1018.5 112.855C1018.27 112.519 1018.1 112.139 1018.02 111.738L1019.81 107.179Z" fill="#F7A9A0"/>
<path d="M1025.63 106.259V106.334C1023.42 106.816 1022 108.549 1020.89 110.4C1021.05 110.215 1021.25 110.067 1021.47 109.965C1021.69 109.863 1021.93 109.81 1022.17 109.81C1022.42 109.81 1022.66 109.863 1022.88 109.965C1023.1 110.067 1023.29 110.215 1023.45 110.4C1023.45 110.4 1023.45 110.518 1023.38 110.497C1023.03 110.319 1022.64 110.252 1022.26 110.304C1021.88 110.355 1021.52 110.524 1021.24 110.785C1020.76 111.232 1020.34 111.727 1019.97 112.262C1019.85 112.433 1019.54 112.262 1019.64 112.069C1020.07 109.362 1022.76 106.035 1025.63 106.259Z" fill="#263238"/>
<path d="M1033.44 137.278C1043.07 152.365 1054.1 176.451 1054.4 193.486C1054.55 201.799 1040.16 209.354 1034.92 206.839C1022.62 200.901 1005.48 187.269 998.734 178.281C996.348 175.071 1021.82 153.767 1023.7 157.576C1025.57 161.386 1026.73 163.611 1028.6 165.066C1029.52 165.783 1024.1 154.58 1021.38 138.894C1017.66 117.483 1029.96 131.811 1033.44 137.278Z" fill="#F7A9A0"/>
<path d="M1003.55 120.982C1003.55 120.982 1007.54 116.039 1003.94 113.599C1000.35 111.16 997.215 116.66 997.215 116.66L1003.55 120.982Z" fill="#FF91B4"/>
<path d="M997.368 116.489L1003.7 120.808L978.522 157.699L972.194 153.38L997.368 116.489Z" fill="#407BFF"/>
<path opacity="0.2" d="M997.368 116.489L1003.7 120.808L978.522 157.699L972.194 153.38L997.368 116.489Z" fill="black"/>
<path d="M996.969 115.917L1004.36 120.959L1003.36 122.426L995.968 117.384L996.969 115.917Z" fill="#63B4B8"/>
<path d="M995.876 117.54L1003.26 122.582L1002.26 124.049L994.875 119.007L995.876 117.54Z" fill="#63B4B8"/>
<path d="M972.177 153.339L971.449 159.524L971.203 161.557L973.022 160.594L978.511 157.662V156.314L977.259 156.806V155.447L975.997 155.939V154.591L974.723 155.073V153.724L973.461 154.206V152.858L972.177 153.339Z" fill="white"/>
<path d="M971.449 159.524L971.203 161.557L973.022 160.594L971.449 159.524Z" fill="#63B4B8"/>
<path d="M985.316 126.921C983.037 130.067 991.266 135.021 991.266 135.021C989.595 134.952 987.955 135.475 986.633 136.497C984.375 138.402 986.376 142.768 986.376 142.768C984.627 143.057 983.008 143.87 981.732 145.1C979.763 147.144 981.154 151.83 981.154 151.83C979.695 152.988 978.703 154.633 978.361 156.464C977.634 161.375 983.797 165.901 987.06 169.464C990.559 173.273 997.418 176.901 1000.07 179.672L1024.51 159.545C1024.51 159.545 1016.69 139.686 1009.83 134.336C1006.01 131.34 988.794 122.117 985.316 126.921Z" fill="#F7A9A0"/>
<path d="M991.394 134.978C996.38 136.733 1000.93 139.665 1005.3 142.554C1005.4 142.618 1005.3 142.768 1005.2 142.703C1000.92 139.782 995.706 137.942 991.287 135.213C991.256 135.199 991.231 135.173 991.219 135.141C991.207 135.109 991.208 135.073 991.223 135.042C991.237 135.011 991.263 134.987 991.295 134.975C991.327 134.962 991.363 134.964 991.394 134.978Z" fill="#263238"/>
<path d="M986.718 142.522C987.811 143.033 988.832 143.684 989.757 144.458C990.827 145.207 991.801 145.988 992.796 146.78C994.807 148.349 996.773 149.979 998.691 151.67C998.777 151.745 998.691 151.884 998.595 151.82C996.594 150.247 994.572 148.706 992.496 147.219C991.426 146.47 990.431 145.742 989.382 145.004C988.354 144.398 987.396 143.68 986.525 142.864C986.48 142.838 986.447 142.796 986.433 142.746C986.419 142.696 986.425 142.642 986.451 142.596C986.476 142.551 986.519 142.518 986.569 142.504C986.619 142.49 986.673 142.496 986.718 142.522Z" fill="#263238"/>
<path d="M981.24 151.895C982.22 152.37 983.114 153.006 983.883 153.778C984.781 154.516 985.68 155.255 986.59 155.982C988.398 157.437 990.217 158.893 992.079 160.262C992.175 160.326 992.079 160.476 991.972 160.412C990.078 159 988.152 157.619 986.269 156.196C985.338 155.501 984.418 154.794 983.497 154.056C982.597 153.485 981.804 152.761 981.154 151.916C981.154 151.916 981.186 151.884 981.24 151.895Z" fill="#263238"/>
<path d="M1011.17 135.534C1009.29 133.216 1006.74 131.532 1003.87 130.709C1003.75 130.709 1003.75 130.709 1003.87 130.794C1006.48 132.077 1008.92 133.684 1011.12 135.577L1011.17 135.534Z" fill="#263238"/>
<path d="M997.525 182.764L1024.09 156.603L1028.15 163.954C1028.15 163.954 1022.09 147.593 1020.55 138.67C1019.01 129.746 1019.27 119.281 1030.59 132.656C1041.67 145.753 1056.52 183.535 1055.77 193.325C1055.01 203.116 1042.55 209.043 1036.28 207.92C1030.01 206.796 997.525 182.764 997.525 182.764Z" fill="#407BFF"/>
<path d="M1004.48 185.589C1008.19 182.069 1022.85 167.11 1025.81 163.665C1026.01 163.419 1025.9 163.237 1025.66 163.461C1014.28 173.733 1007.81 181.79 1004.35 185.428C1004.24 185.525 1004.36 185.675 1004.48 185.589Z" fill="#263238"/>
<path d="M1047.15 190.457C1045.72 187.975 1044.05 185.589 1042.45 183.192C1040.86 180.795 1039.24 178.366 1037.58 176.012C1035.91 173.658 1034.09 171.358 1032.29 169.057C1031.4 167.902 1029.66 165.655 1028.76 164.51C1027.86 163.365 1027.77 163.633 1028.62 164.874C1029.46 166.115 1031.09 168.362 1031.9 169.56C1033.5 171.914 1035.11 174.29 1036.71 176.612C1038.3 178.934 1040.08 181.234 1041.78 183.535C1043.48 185.835 1045.14 188.275 1046.97 190.543C1047.04 190.639 1047.21 190.564 1047.15 190.457Z" fill="#263238"/>
<path d="M1025.94 155.832C1025.02 153.125 1023.91 150.482 1023.19 147.679C1023.19 147.572 1022.99 147.615 1023.02 147.679C1023.56 149.509 1023.98 151.36 1024.46 153.2C1024.41 153.128 1024.36 153.053 1024.32 152.975C1023.9 152.269 1023.49 151.542 1023.1 150.835C1023.04 150.739 1022.89 150.835 1022.95 150.932C1023.31 151.67 1023.68 152.419 1024.02 153.168C1024.26 153.786 1024.57 154.377 1024.93 154.934C1025.05 155.329 1025.15 155.725 1025.28 156.121C1026.11 158.84 1027.13 161.497 1028.33 164.071C1028.35 164.101 1028.38 164.122 1028.42 164.132C1028.45 164.142 1028.49 164.14 1028.52 164.126C1028.55 164.113 1028.58 164.088 1028.6 164.057C1028.62 164.026 1028.62 163.989 1028.62 163.954C1027.83 161.236 1026.88 158.518 1025.94 155.832Z" fill="#263238"/>
<path d="M1024.3 156.453C1024.21 156.314 1023.56 156.999 1023.23 157.362C1023.17 157.416 1023.23 157.448 1023.32 157.362C1023.42 157.277 1023.78 157.106 1023.99 156.934C1024.61 158.176 1028.05 164.029 1028.27 164.285C1028.48 164.542 1028.48 164.285 1028.43 164.136C1028.28 163.526 1025.07 157.726 1024.3 156.453Z" fill="#263238"/>
<path d="M1027.56 203.362C1019.9 197.766 1012.09 192.351 1004.09 187.226C1001.95 185.814 999.815 184.305 997.675 182.839C997.91 182.689 1000.07 180.399 1000.14 180.314C1000.2 180.228 1000.14 180.207 1000.14 180.25C999.89 180.453 997.129 182.689 996.926 182.946C996.723 183.203 1004.94 188.649 1008.78 191.367C1012.62 194.085 1016.66 196.663 1020.65 199.231C1022.92 200.687 1025.2 202.12 1027.51 203.511C1027.57 203.565 1027.65 203.426 1027.56 203.362Z" fill="#263238"/>
<path d="M940.398 191.87L980.469 195.337L966.195 142.308L926.124 138.841L940.398 191.87Z" fill="#EBEBEB"/>
<path d="M937.648 191.634L977.73 195.091L963.456 142.061L923.385 138.605L937.648 191.634Z" fill="#407BFF"/>
<path d="M959.198 141.698C959.396 142.62 959.949 143.428 960.738 143.945C961.102 144.18 961.241 143.688 960.888 143.463C960.374 143.131 959.995 142.626 959.818 142.04C959.787 141.945 959.762 141.849 959.743 141.751C959.657 141.429 959.657 141.089 959.743 140.767C959.786 140.632 959.873 140.515 959.989 140.435H960.043C960.068 140.44 960.093 140.44 960.118 140.435C960.208 140.404 960.306 140.404 960.396 140.435C960.565 140.516 960.715 140.633 960.835 140.777C960.976 140.951 961.095 141.141 961.188 141.344C961.188 141.441 961.284 141.548 961.338 141.655V141.719V141.826C961.341 141.851 961.341 141.876 961.338 141.901L961.905 141.954C961.801 141.578 961.646 141.218 961.445 140.884C961.295 140.611 961.087 140.373 960.836 140.188C960.584 140.003 960.295 139.876 959.989 139.814C959.765 139.79 959.539 139.853 959.36 139.99C959.18 140.128 959.061 140.329 959.026 140.553C958.987 140.943 959.046 141.336 959.198 141.698Z" fill="#455A64"/>
<path d="M956.063 141.43C956.26 142.353 956.814 143.16 957.603 143.677C957.967 143.912 958.106 143.42 957.742 143.195C957.234 142.857 956.857 142.355 956.672 141.772C956.672 141.676 956.619 141.569 956.608 141.484C956.522 141.161 956.522 140.822 956.608 140.499C956.653 140.362 956.743 140.245 956.865 140.167H956.951C957.041 140.137 957.139 140.137 957.229 140.167C957.396 140.242 957.543 140.356 957.657 140.499C957.859 140.774 958.028 141.072 958.16 141.387V141.451C958.162 141.487 958.162 141.523 958.16 141.558C958.164 141.583 958.164 141.609 958.16 141.633H958.727C958.621 141.258 958.467 140.898 958.267 140.563C958.117 140.29 957.909 140.052 957.658 139.867C957.406 139.682 957.117 139.555 956.811 139.493C956.587 139.469 956.361 139.532 956.182 139.669C956.002 139.807 955.883 140.008 955.849 140.232C955.814 140.643 955.887 141.056 956.063 141.43Z" fill="#455A64"/>
<path d="M952.928 141.163C953.121 142.081 953.671 142.886 954.458 143.399C954.821 143.645 954.971 143.153 954.607 142.917C954.102 142.58 953.726 142.082 953.537 141.505C953.511 141.406 953.489 141.306 953.473 141.205C953.387 140.883 953.387 140.543 953.473 140.221C953.524 140.087 953.613 139.972 953.73 139.889H953.805C953.904 139.882 954.004 139.9 954.094 139.943C954.263 140.015 954.41 140.129 954.522 140.274C954.67 140.442 954.79 140.634 954.875 140.842C954.935 140.94 954.986 141.044 955.025 141.152V141.227C955.031 141.262 955.031 141.298 955.025 141.334C955.025 141.334 955.025 141.334 955.025 141.398L955.592 141.451C955.486 141.076 955.332 140.716 955.132 140.381C954.978 140.11 954.77 139.875 954.519 139.691C954.268 139.506 953.981 139.377 953.677 139.311C953.451 139.29 953.225 139.355 953.046 139.494C952.867 139.634 952.748 139.836 952.713 140.06C952.689 140.44 952.763 140.82 952.928 141.163Z" fill="#455A64"/>
<path d="M949.792 140.884C949.886 141.341 950.07 141.775 950.333 142.161C950.595 142.547 950.932 142.877 951.323 143.131C951.686 143.367 951.836 142.875 951.472 142.65C950.961 142.314 950.583 141.811 950.402 141.227C950.375 141.132 950.353 141.035 950.338 140.938C950.252 140.615 950.252 140.276 950.338 139.953C950.385 139.818 950.475 139.701 950.595 139.622H950.648H950.723C950.814 139.596 950.911 139.596 951.002 139.622C951.173 139.7 951.323 139.817 951.44 139.964C951.585 140.135 951.704 140.326 951.793 140.531C951.85 140.632 951.9 140.735 951.943 140.842V140.906V141.013C951.943 141.013 951.943 141.013 951.943 141.088L952.521 141.141C952.417 140.765 952.262 140.405 952.061 140.071C951.908 139.8 951.699 139.565 951.448 139.38C951.197 139.196 950.91 139.067 950.606 139.001C950.38 138.976 950.153 139.039 949.972 139.176C949.791 139.314 949.669 139.515 949.632 139.74C949.589 140.129 949.645 140.522 949.792 140.884Z" fill="#455A64"/>
<path d="M946.647 140.617C946.844 141.54 947.398 142.347 948.187 142.864C948.551 143.099 948.701 142.607 948.337 142.383C947.826 142.047 947.448 141.544 947.267 140.959C947.267 140.863 947.214 140.756 947.203 140.671C947.117 140.348 947.117 140.009 947.203 139.686C947.244 139.547 947.336 139.429 947.46 139.354H947.535C947.625 139.323 947.723 139.323 947.813 139.354C947.983 139.428 948.134 139.542 948.252 139.686C948.393 139.863 948.512 140.057 948.605 140.264C948.658 140.36 948.701 140.467 948.754 140.574V140.638C948.763 140.674 948.763 140.71 948.754 140.745C948.754 140.745 948.754 140.745 948.754 140.82H949.322C949.223 140.444 949.072 140.084 948.872 139.75C948.722 139.477 948.514 139.239 948.263 139.054C948.012 138.869 947.723 138.742 947.417 138.68C947.191 138.653 946.962 138.714 946.78 138.852C946.599 138.99 946.478 139.193 946.443 139.419C946.405 139.829 946.475 140.242 946.647 140.617Z" fill="#455A64"/>
<path d="M943.49 140.349C943.688 141.269 944.242 142.073 945.031 142.586C945.395 142.832 945.544 142.34 945.181 142.104C944.672 141.771 944.294 141.272 944.111 140.692C944.081 140.593 944.056 140.493 944.036 140.392C943.949 140.073 943.949 139.737 944.036 139.419C944.075 139.279 944.162 139.158 944.282 139.076H944.56C944.656 139.068 944.752 139.086 944.838 139.13C945.011 139.2 945.162 139.314 945.277 139.461C945.418 139.635 945.537 139.825 945.63 140.028C945.63 140.125 945.726 140.232 945.78 140.339V140.414C945.785 140.449 945.785 140.485 945.78 140.521C945.78 140.521 945.78 140.521 945.78 140.585H946.347C946.246 140.21 946.094 139.85 945.898 139.515C945.743 139.245 945.534 139.01 945.283 138.826C945.033 138.641 944.746 138.512 944.442 138.445C944.215 138.423 943.988 138.488 943.808 138.627C943.627 138.766 943.506 138.969 943.469 139.194C943.38 139.575 943.387 139.972 943.49 140.349Z" fill="#455A64"/>
<path d="M940.376 140.082C940.578 141 941.131 141.803 941.917 142.318C942.281 142.554 942.42 142.061 942.067 141.837C941.553 141.504 941.173 141 940.997 140.414C940.966 140.319 940.941 140.222 940.922 140.125C940.835 139.802 940.835 139.463 940.922 139.14C940.965 139.005 941.051 138.888 941.168 138.809H941.222H941.35C941.441 138.783 941.537 138.783 941.628 138.809C941.799 138.887 941.95 139.004 942.067 139.151C942.208 139.324 942.327 139.515 942.42 139.718C942.474 139.814 942.516 139.921 942.57 140.028V140.103C942.574 140.135 942.574 140.168 942.57 140.199C942.573 140.224 942.573 140.25 942.57 140.274H943.137C943.039 139.896 942.884 139.536 942.677 139.204C942.527 138.931 942.319 138.693 942.068 138.508C941.816 138.324 941.528 138.196 941.222 138.134C940.997 138.11 940.771 138.173 940.592 138.31C940.413 138.448 940.293 138.649 940.259 138.873C940.193 139.279 940.234 139.696 940.376 140.082Z" fill="#455A64"/>
<path d="M937.241 139.804C937.439 140.726 937.993 141.534 938.782 142.051C939.146 142.286 939.285 141.794 938.921 141.569C938.413 141.23 938.036 140.728 937.851 140.146C937.851 140.05 937.798 139.943 937.787 139.857C937.701 139.535 937.701 139.195 937.787 138.873C937.831 138.736 937.922 138.619 938.044 138.541H938.129C938.22 138.511 938.317 138.511 938.408 138.541C938.575 138.616 938.722 138.729 938.836 138.873C938.985 139.044 939.104 139.24 939.189 139.451C939.249 139.549 939.299 139.653 939.338 139.761V139.825V139.932C939.343 139.957 939.343 139.982 939.338 140.007H939.906C939.798 139.632 939.643 139.273 939.445 138.937C939.296 138.663 939.088 138.426 938.836 138.241C938.585 138.056 938.296 137.929 937.99 137.867C937.766 137.842 937.54 137.905 937.361 138.043C937.181 138.18 937.062 138.382 937.027 138.605C936.992 139.017 937.066 139.43 937.241 139.804Z" fill="#455A64"/>
<path d="M934.106 139.536C934.3 140.455 934.85 141.259 935.636 141.772C936 142.019 936.15 141.526 935.786 141.302C935.283 140.958 934.906 140.458 934.716 139.879C934.69 139.78 934.668 139.68 934.652 139.579C934.565 139.26 934.565 138.924 934.652 138.605C934.699 138.467 934.789 138.347 934.909 138.263H935.026C935.126 138.255 935.225 138.274 935.315 138.316C935.484 138.388 935.631 138.503 935.743 138.648C935.89 138.817 936.009 139.009 936.096 139.215C936.157 139.313 936.207 139.417 936.246 139.525V139.6C936.25 139.636 936.25 139.672 936.246 139.707C936.246 139.707 936.246 139.707 936.246 139.772L936.813 139.825C936.708 139.45 936.553 139.09 936.353 138.755C936.2 138.484 935.991 138.249 935.74 138.064C935.489 137.88 935.202 137.75 934.898 137.685C934.672 137.663 934.447 137.729 934.267 137.868C934.088 138.007 933.969 138.21 933.935 138.434C933.903 138.81 933.962 139.188 934.106 139.536Z" fill="#455A64"/>
<path d="M930.971 139.269C931.164 140.188 931.715 140.992 932.501 141.505C932.865 141.74 933.015 141.248 932.651 141.024C932.143 140.685 931.765 140.183 931.581 139.6C931.553 139.506 931.532 139.409 931.517 139.312C931.43 138.989 931.43 138.65 931.517 138.327C931.563 138.191 931.654 138.075 931.773 137.995H931.848C931.939 137.97 932.036 137.97 932.127 137.995C932.298 138.074 932.448 138.191 932.565 138.338C932.71 138.508 932.829 138.7 932.918 138.905C932.975 139.005 933.025 139.109 933.068 139.215V139.29C933.074 139.326 933.074 139.362 933.068 139.397C933.068 139.397 933.068 139.397 933.068 139.461L933.646 139.515C933.542 139.139 933.387 138.779 933.186 138.445C933.033 138.174 932.824 137.938 932.573 137.754C932.322 137.57 932.035 137.44 931.731 137.375C931.506 137.35 931.28 137.413 931.101 137.551C930.922 137.688 930.802 137.89 930.768 138.113C930.733 138.51 930.803 138.908 930.971 139.269Z" fill="#455A64"/>
<path d="M927.825 138.991C928.023 139.913 928.577 140.721 929.366 141.238C929.73 141.473 929.88 140.981 929.516 140.756C929.005 140.42 928.626 139.917 928.446 139.333C928.419 139.238 928.398 139.141 928.382 139.044C928.295 138.722 928.295 138.382 928.382 138.06C928.423 137.921 928.514 137.802 928.638 137.728H928.713C928.803 137.697 928.901 137.697 928.992 137.728C929.16 137.806 929.31 137.919 929.43 138.06C929.572 138.237 929.69 138.431 929.783 138.637C929.783 138.734 929.88 138.841 929.933 138.948V139.012C929.941 139.047 929.941 139.084 929.933 139.119C929.933 139.119 929.933 139.172 929.933 139.194H930.5C930.405 138.817 930.253 138.456 930.051 138.124C929.901 137.85 929.693 137.613 929.442 137.428C929.19 137.243 928.902 137.115 928.596 137.054C928.369 137.026 928.141 137.088 927.959 137.226C927.777 137.363 927.656 137.567 927.622 137.792C927.584 138.203 927.654 138.616 927.825 138.991Z" fill="#455A64"/>
<path d="M924.69 138.723C924.888 139.643 925.442 140.446 926.231 140.959C926.595 141.205 926.745 140.713 926.381 140.488C925.874 140.148 925.497 139.647 925.311 139.065C925.311 138.969 925.257 138.862 925.236 138.776C925.149 138.454 925.149 138.114 925.236 137.792C925.275 137.65 925.367 137.528 925.493 137.45H925.546H925.621C925.717 137.441 925.813 137.46 925.899 137.503C926.072 137.574 926.223 137.688 926.338 137.835C926.477 138.01 926.595 138.2 926.691 138.402C926.691 138.498 926.787 138.605 926.841 138.712V138.787C926.846 138.823 926.846 138.859 926.841 138.894C926.841 138.894 926.841 138.894 926.841 138.958L927.408 139.012C927.307 138.637 927.155 138.277 926.959 137.942C926.804 137.672 926.595 137.437 926.344 137.253C926.094 137.068 925.807 136.939 925.503 136.872C925.276 136.85 925.049 136.915 924.869 137.054C924.688 137.193 924.567 137.396 924.53 137.621C924.494 137.996 924.549 138.374 924.69 138.723Z" fill="#455A64"/>
<path d="M924.733 151.338C922.678 155.715 917.489 161.161 917.082 164.735C916.949 165.611 917.102 166.507 917.518 167.29C917.934 168.072 918.592 168.7 919.394 169.079C919.394 169.079 915.841 170.877 916.002 174.172C916.087 175.873 918.869 177.232 918.869 177.232C918.869 177.232 916.087 178.795 916.419 181.716C916.676 184.048 919.426 185.065 919.426 185.065C919.426 185.065 917.457 187.804 918.484 190.094C920.56 194.738 940.708 194.641 943.779 187.205C945.213 183.738 940.291 183.995 940.291 183.995C940.291 183.995 947.256 181.855 947.342 177.714C947.428 173.573 941.061 174.333 941.061 174.333C941.061 174.333 947.802 172.193 947.481 167.913C947.128 163.419 940.89 165.28 940.89 165.28C940.89 165.28 945.352 162.22 944.325 158.978C942.645 153.628 934.192 160.412 929.762 159.385L927.279 152.098L924.733 151.338Z" fill="#F7A9A0"/>
<path d="M920.731 157.705C922.304 153.425 916.943 148.075 917.864 143.795C919.105 137.92 925.739 143.634 927.248 152.151V158.967L920.731 157.705Z" fill="#F7A9A0"/>
<path d="M919.843 185.289C919.779 185.289 919.758 185.375 919.843 185.386C926.731 187.053 933.963 186.587 940.58 184.048C940.794 183.963 940.74 183.588 940.494 183.631C933.727 185.183 926.771 185.742 919.843 185.289Z" fill="#263238"/>
<path d="M918.773 177.275C918.698 177.275 918.688 177.393 918.773 177.414C925.621 179.009 934.363 178.431 941.307 174.547C941.554 174.408 941.628 174.055 941.307 174.183C936.514 176.419 925.3 177.789 918.773 177.275Z" fill="#263238"/>
<path d="M941.275 164.852C934.47 168.319 927.237 169.261 919.672 169.132C919.565 169.132 919.576 169.272 919.672 169.293C923.353 170.363 928.232 169.914 931.913 169.293C935.388 168.748 938.661 167.302 941.404 165.098C941.5 165.002 941.414 164.778 941.275 164.852Z" fill="#263238"/>
<path d="M770.375 277.641C771.306 280.145 816.845 336.759 819.948 337.818C821.114 338.225 829.749 332.072 839.968 324.347C842.172 322.677 844.44 320.933 846.741 319.157C861.646 307.644 877.15 295.05 877.15 295.05L846.794 257.097L817.23 282.21L810.725 287.721C810.725 287.721 783.6 273.811 780.069 273.051C776.538 272.291 769.444 275.127 770.375 277.641Z" fill="#F7A9A0"/>
<path d="M770.375 277.641C771.306 280.145 816.845 336.759 819.948 337.818C821.382 338.31 833.858 329.129 846.698 319.157L817.23 282.21L810.725 287.72C810.725 287.72 783.6 273.81 780.069 273.051C776.538 272.291 769.444 275.127 770.375 277.641Z" fill="white"/>
<path d="M770.375 277.641C771.306 280.145 816.845 336.759 819.948 337.818C821.114 338.224 829.749 332.072 839.968 324.347L810.714 287.763C810.714 287.763 783.589 273.853 780.058 273.094C776.527 272.334 769.444 275.127 770.375 277.641Z" fill="#2F8D46"/>
<path d="M773.296 276.625C781.16 285.934 812.009 324.186 819.081 333.977C819.081 334.062 819.081 334.105 819.017 334.03C811.024 324.978 780.497 286.469 773.135 276.753C772.986 276.55 773.125 276.432 773.296 276.625Z" fill="#263238"/>
<path d="M785.023 275.095C785.893 276.121 786.542 277.316 786.929 278.605C787.315 279.894 787.432 281.249 787.27 282.585C786.991 285.006 785.787 287.225 783.91 288.78C783.857 288.78 783.771 288.716 783.825 288.662C785.442 286.827 786.42 284.516 786.613 282.078C786.806 279.64 786.203 277.204 784.895 275.137C784.897 275.123 784.902 275.11 784.911 275.099C784.92 275.088 784.932 275.08 784.945 275.075C784.959 275.071 784.973 275.07 784.987 275.074C785.001 275.077 785.013 275.084 785.023 275.095Z" fill="#263238"/>
<path d="M806.808 284.842C809.911 288.598 812.158 294.076 810.906 298.934C810.906 299.127 810.596 299.063 810.564 298.934C809.632 294.211 808.198 289.602 806.284 285.185C806.239 285.115 806.223 285.031 806.24 284.949C806.257 284.868 806.305 284.797 806.375 284.751C806.445 284.706 806.529 284.69 806.61 284.707C806.692 284.724 806.763 284.773 806.808 284.842Z" fill="#263238"/>
<path d="M803.32 282.831C806.423 286.586 808.67 292.065 807.418 296.923C807.418 297.115 807.108 297.04 807.076 296.923C806.144 292.2 804.709 287.59 802.796 283.173C802.75 283.103 802.734 283.019 802.751 282.938C802.769 282.856 802.817 282.785 802.887 282.74C802.956 282.694 803.041 282.678 803.122 282.695C803.203 282.712 803.275 282.761 803.32 282.831Z" fill="#263238"/>
<path d="M799.8 280.819C802.913 284.575 805.15 290.053 803.909 294.911C803.909 295.103 803.598 295.029 803.566 294.911C802.633 290.192 801.198 285.586 799.286 281.172C799.263 281.138 799.247 281.1 799.238 281.06C799.23 281.02 799.229 280.979 799.237 280.939C799.244 280.899 799.259 280.86 799.282 280.826C799.304 280.791 799.333 280.762 799.366 280.739C799.4 280.715 799.438 280.699 799.478 280.691C799.518 280.682 799.559 280.682 799.6 280.689C799.64 280.696 799.678 280.712 799.713 280.734C799.747 280.756 799.777 280.785 799.8 280.819Z" fill="#263238"/>
<path d="M796.301 278.807C799.415 282.563 801.651 288.042 800.41 292.899C800.41 293.092 800.089 293.017 800.057 292.899C799.126 288.18 797.691 283.574 795.777 279.161C795.73 279.091 795.713 279.006 795.729 278.923C795.745 278.841 795.793 278.769 795.862 278.722C795.932 278.675 796.017 278.658 796.099 278.674C796.182 278.69 796.254 278.738 796.301 278.807Z" fill="#263238"/>
<path d="M826.143 324.314C829.567 328.594 822.933 333.944 819.509 329.664C816.085 325.384 822.73 320.034 826.143 324.314Z" fill="white"/>
<path d="M813.646 272.58C816.781 273.222 817.177 276.86 816.47 279.417C815.188 283.716 812.797 287.602 809.537 290.685C809.525 290.7 809.509 290.713 809.492 290.721C809.474 290.73 809.455 290.734 809.435 290.734C809.416 290.734 809.396 290.73 809.379 290.721C809.361 290.713 809.346 290.7 809.334 290.685C809.25 290.728 809.157 290.751 809.063 290.752C808.969 290.752 808.876 290.73 808.792 290.687C808.708 290.644 808.636 290.582 808.581 290.505C808.526 290.428 808.491 290.339 808.478 290.246C808.167 286.041 807.322 281.579 808.317 277.406C808.895 274.923 810.671 271.981 813.646 272.58ZM809.366 283.74C809.473 285.816 809.676 287.87 809.697 289.946C811.11 287.791 812.413 285.566 813.603 283.28C814.161 282.162 814.643 281.007 815.047 279.824C815.636 277.994 815.807 271.713 811.377 274.656C808.873 276.282 809.194 281.269 809.312 283.74H809.366Z" fill="#263238"/>
<path d="M815.721 301.245C812.511 298.356 810.746 294.183 808.638 290.545C808.598 290.461 808.579 290.369 808.582 290.276C808.585 290.183 808.61 290.092 808.655 290.011C808.7 289.929 808.764 289.859 808.841 289.807C808.918 289.755 809.006 289.722 809.098 289.711C809.098 289.625 809.152 289.55 809.248 289.572C813.678 290.287 817.842 292.158 821.317 294.996C823.308 296.687 825.052 299.951 822.805 302.24C820.558 304.53 817.572 302.947 815.721 301.245ZM819.723 301.802C825.073 301.748 821.382 296.655 819.862 295.467C818.865 294.716 817.817 294.033 816.727 293.424C814.46 292.196 812.131 291.086 809.751 290.096C810.896 291.829 811.891 293.638 812.961 295.446C814.255 297.532 816.791 301.834 819.723 301.802Z" fill="#263238"/>
<path d="M818.803 276.528L850.4 319.147L956.972 245.177L967.255 238.051C967.255 238.051 970.165 240.009 974.541 242.428C980.63 245.787 989.521 250.046 997.439 251.212C1010.66 253.17 1030.61 252.956 1041.77 238.051C1051.16 225.489 1048.19 209.108 1048.19 209.108L1033.66 202.87C1033.66 202.87 999.269 174.226 976.949 173.359C967.49 172.985 953.719 180.154 940.965 187.644C928.21 195.134 818.803 276.528 818.803 276.528Z" fill="#4A5556"/>
<path d="M967.255 238.051C967.255 238.051 970.165 240.009 974.542 242.427C982.288 233.161 998.692 216.319 999.152 215.677L967.255 238.051Z" fill="#263238"/>
<path d="M1021.08 193.282C1023.13 194.706 1025.12 196.225 1027.15 197.691C1029.19 199.157 1031.2 200.484 1033.1 202.056C1035.01 203.629 1036.86 205.363 1038.67 207.085C1039.54 207.92 1040.42 208.755 1041.27 209.621C1042.16 210.451 1042.99 211.349 1043.74 212.307C1043.8 212.393 1043.67 212.5 1043.59 212.446C1042.63 211.76 1041.71 211.013 1040.84 210.21L1037.96 207.76C1036.11 206.187 1034.23 204.667 1032.39 203.084C1030.55 201.5 1028.85 199.809 1027.04 198.226C1025.22 196.642 1023.04 194.952 1021.02 193.347C1021 193.315 1021.03 193.25 1021.08 193.282Z" fill="#263238"/>
<path d="M826.218 274.998C828.272 277.213 830.166 279.588 832.082 281.921C833.997 284.254 835.902 286.629 837.795 288.994C841.583 293.723 845.403 298.431 849.127 303.214C851.181 305.846 853.193 308.489 855.097 311.228C855.183 311.346 854.99 311.485 854.883 311.378C850.817 306.895 847.083 302.112 843.306 297.393C839.529 292.675 835.752 287.902 832.028 283.109C829.995 280.487 827.898 277.876 826.036 275.137C826.025 275.113 826.023 275.086 826.03 275.06C826.036 275.035 826.051 275.012 826.072 274.996C826.093 274.98 826.119 274.971 826.145 274.972C826.172 274.972 826.197 274.981 826.218 274.998Z" fill="#263238"/>
<path d="M907.11 279.642C912.46 275.469 924.476 267.305 929.976 263.389C935.476 259.472 940.911 255.578 946.465 251.79C948.055 250.713 949.657 249.643 951.269 248.58C952.874 247.51 954.543 246.525 956.116 245.423C956.202 245.359 956.287 245.509 956.202 245.573C954.757 246.643 953.398 247.767 951.922 248.837C950.445 249.907 949.225 250.902 947.866 251.908C945.202 253.876 942.516 255.813 939.82 257.76C934.384 261.687 928.895 265.582 923.353 269.381C920.207 271.521 910.513 277.941 907.303 279.974C907.185 280.07 906.95 279.792 907.11 279.642Z" fill="#263238"/>
<path d="M873.694 235.612C878.595 231.556 889.744 223.745 894.901 219.99C900.059 216.234 905.259 212.36 910.481 208.583L926.006 197.37C931.014 193.742 936.011 190.051 941.307 186.841C944.207 185.086 947.182 183.46 950.242 181.994C953.202 180.474 956.288 179.214 959.465 178.227C959.483 178.226 959.501 178.23 959.517 178.239C959.533 178.248 959.545 178.262 959.552 178.279C959.559 178.296 959.561 178.314 959.557 178.332C959.553 178.349 959.543 178.365 959.529 178.377C956.919 179.843 954.179 181.063 951.537 182.475C948.894 183.888 946.347 185.332 943.811 186.862C938.557 190.072 933.593 193.678 928.606 197.263C918.238 204.753 907.902 212.243 897.469 219.54C891.627 223.66 879.986 232.155 873.929 235.933C873.887 235.952 873.839 235.956 873.794 235.944C873.749 235.932 873.709 235.905 873.681 235.868C873.654 235.83 873.64 235.784 873.642 235.737C873.644 235.691 873.663 235.646 873.694 235.612Z" fill="#263238"/>
<g clip-path="url(#clip0_2046_2143)">
<path d="M321.204 164.231C321.069 162.978 320.857 161.735 320.568 160.509L245.708 160.443C246.043 157.528 246.788 154.675 247.921 151.972C249.466 148.241 251.735 144.859 254.594 142.025C257.409 139.275 260.736 137.117 264.383 135.676C270.244 133.125 276.746 132.478 282.988 133.822C289.229 135.167 294.903 138.438 299.223 143.181L311.044 131.502C306.854 126.94 301.766 123.311 296.107 120.848C289.855 118.193 283.125 116.883 276.343 117.001C269.942 116.961 263.594 118.18 257.654 120.59C251.968 122.884 246.785 126.286 242.4 130.601C238.031 134.956 234.534 140.121 232.104 145.813C230.107 150.455 228.884 155.398 228.481 160.443H227.993C227.591 155.398 226.365 150.454 224.366 145.813C221.937 140.12 218.441 134.954 214.07 130.601C209.686 126.284 204.503 122.883 198.816 120.59C186.438 115.71 172.679 115.799 160.363 120.836C154.705 123.3 149.617 126.929 145.426 131.49L157.249 143.169C161.689 138.609 167.359 135.465 173.553 134.131C179.747 132.797 186.193 133.33 192.089 135.664C195.736 137.104 199.062 139.263 201.876 142.013C204.736 144.846 207.006 148.228 208.551 151.96C209.684 154.663 210.43 157.514 210.764 160.43L135.905 160.497C135.616 161.723 135.403 162.965 135.269 164.218C135.102 165.666 135.021 167.122 135.025 168.579C134.992 174.253 135.898 179.893 137.705 185.265C139.481 190.478 142.341 195.247 146.093 199.252C150.199 203.641 155.181 207.098 160.711 209.395C166.894 211.883 173.506 213.104 180.161 212.986C186.561 213.025 192.907 211.805 198.845 209.395C204.533 207.104 209.717 203.701 214.099 199.382C218.472 195.03 221.969 189.866 224.395 184.171C225.639 181.303 226.58 178.31 227.204 175.243H229.326C229.951 178.309 230.89 181.302 232.13 184.171C234.559 189.864 238.055 195.029 242.427 199.382C246.81 203.7 251.993 207.102 257.681 209.395C263.62 211.805 269.969 213.025 276.37 212.986C283.024 213.104 289.634 211.883 295.815 209.395C301.345 207.1 306.329 203.643 310.433 199.252C314.186 195.248 317.048 190.478 318.826 185.265C320.633 179.893 321.538 174.253 321.506 168.579C321.489 167.125 321.388 165.674 321.204 164.231ZM208.535 178.026C206.984 181.77 204.69 185.155 201.796 187.971C198.951 190.713 195.605 192.871 191.945 194.325C184.146 197.273 175.561 197.318 167.731 194.453C164.572 193.163 161.667 191.316 159.15 188.997C157.357 187.328 155.872 185.35 154.764 183.157C153.484 180.66 152.523 178.008 151.906 175.266H209.546C209.258 176.204 208.922 177.126 208.54 178.028L208.535 178.026ZM301.691 183.157C300.582 185.35 299.098 187.327 297.306 188.997C294.789 191.316 291.883 193.163 288.725 194.453C280.894 197.318 272.31 197.273 264.51 194.325C260.85 192.87 257.504 190.712 254.657 187.971C251.763 185.155 249.471 181.771 247.921 178.026C247.536 177.121 247.198 176.197 246.91 175.256H275.951H304.551C303.934 178.002 302.974 180.658 301.693 183.16L301.691 183.157Z" fill="#2F8D46"/>
</g>
<path d="M129.352 232.256C129.384 232.64 129.448 233.024 129.448 233.536C129.352 239.488 124.392 244.416 117.96 244.416C111.624 244.416 106.44 239.392 106.44 233.28C106.44 227.232 111.528 222.144 117.96 222.144C122.568 222.144 126.568 224.704 128.456 228.448L124.616 229.088C123.208 226.944 120.744 225.536 117.96 225.536C113.704 225.536 110.28 228.992 110.28 233.248C110.28 237.504 113.8 240.96 118.12 240.96C121.928 240.96 124.968 238.432 125.768 235.136H117.128V232.256H129.352ZM140.705 241.408C142.561 241.408 144.385 240.672 145.025 239.36L148.545 239.552C147.425 242.432 144.161 244.384 140.577 244.384C135.745 244.384 131.905 240.896 131.905 236.192C131.905 231.712 135.425 228 140.449 228C145.761 228 148.993 232.128 148.993 237.28H135.553C136.033 239.808 138.017 241.408 140.705 241.408ZM140.449 230.976C137.729 230.976 136.033 232.512 135.553 234.752H145.281C144.737 232.352 142.977 230.976 140.449 230.976ZM160.174 241.408C162.03 241.408 163.854 240.672 164.494 239.36L168.014 239.552C166.894 242.432 163.63 244.384 160.046 244.384C155.214 244.384 151.374 240.896 151.374 236.192C151.374 231.712 154.894 228 159.918 228C165.23 228 168.462 232.128 168.462 237.28H155.022C155.502 239.808 157.486 241.408 160.174 241.408ZM159.918 230.976C157.198 230.976 155.502 232.512 155.022 234.752H164.75C164.206 232.352 162.446 230.976 159.918 230.976ZM172.091 244V220.96H175.739V234.592H175.803L182.395 228.416H186.971L179.355 235.552L187.355 244H182.715L175.803 236.48H175.739V244H172.091ZM196.59 244.384C192.718 244.384 189.23 242.848 189.134 239.424H193.038C193.134 241.184 195.022 241.6 196.462 241.6C197.966 241.6 199.502 241.12 199.502 239.776C199.502 238.24 197.646 237.952 195.214 237.376C192.622 236.768 189.614 235.712 189.614 232.576C189.614 229.6 192.398 228 196.142 228C199.534 228 202.99 229.344 203.086 232.8H199.31C199.214 231.264 197.582 230.752 196.206 230.752C194.798 230.752 193.422 231.232 193.422 232.512C193.422 233.984 195.214 234.368 197.518 234.88C200.43 235.488 203.502 236.416 203.502 239.584C203.502 242.784 200.462 244.384 196.59 244.384ZM211.82 226.88V228.416H217.452V231.328H211.82V244H208.172V231.328H205.356V228.416H208.172V226.56C208.172 223.232 210.54 220.576 214.572 220.576C215.948 220.576 217.004 220.832 217.804 221.152L217.356 224.064C216.652 223.776 215.948 223.584 215.148 223.584C212.908 223.584 211.82 225.024 211.82 226.88ZM227.545 244.384C222.809 244.384 218.937 240.704 218.937 236.192C218.937 231.712 222.809 228 227.545 228C232.313 228 236.217 231.712 236.217 236.192C236.217 240.704 232.313 244.384 227.545 244.384ZM227.545 241.184C230.297 241.184 232.569 238.944 232.569 236.192C232.569 233.472 230.297 231.232 227.545 231.232C224.857 231.232 222.585 233.472 222.585 236.192C222.585 238.944 224.857 241.184 227.545 241.184ZM240.028 244V228.416H243.26L243.452 232.288H243.516C244.444 229.536 246.812 228.128 249.244 228.096V231.36C245.756 231.36 243.676 233.76 243.676 237.088V244H240.028ZM274.571 232.256C274.603 232.64 274.667 233.024 274.667 233.536C274.571 239.488 269.611 244.416 263.179 244.416C256.843 244.416 251.659 239.392 251.659 233.28C251.659 227.232 256.747 222.144 263.179 222.144C267.787 222.144 271.787 224.704 273.675 228.448L269.835 229.088C268.427 226.944 265.963 225.536 263.179 225.536C258.923 225.536 255.499 228.992 255.499 233.248C255.499 237.504 259.019 240.96 263.339 240.96C267.147 240.96 270.187 238.432 270.987 235.136H262.347V232.256H274.571ZM285.924 241.408C287.78 241.408 289.604 240.672 290.244 239.36L293.764 239.552C292.644 242.432 289.38 244.384 285.796 244.384C280.964 244.384 277.124 240.896 277.124 236.192C277.124 231.712 280.644 228 285.668 228C290.98 228 294.212 232.128 294.212 237.28H280.772C281.252 239.808 283.236 241.408 285.924 241.408ZM285.668 230.976C282.948 230.976 281.252 232.512 280.772 234.752H290.5C289.956 232.352 288.196 230.976 285.668 230.976ZM305.393 241.408C307.249 241.408 309.073 240.672 309.713 239.36L313.233 239.552C312.113 242.432 308.849 244.384 305.265 244.384C300.433 244.384 296.593 240.896 296.593 236.192C296.593 231.712 300.113 228 305.137 228C310.449 228 313.681 232.128 313.681 237.28H300.241C300.721 239.808 302.705 241.408 305.393 241.408ZM305.137 230.976C302.417 230.976 300.721 232.512 300.241 234.752H309.969C309.425 232.352 307.665 230.976 305.137 230.976ZM317.309 244V220.96H320.957V234.592H321.021L327.613 228.416H332.189L324.573 235.552L332.573 244H327.933L321.021 236.48H320.957V244H317.309ZM341.808 244.384C337.936 244.384 334.448 242.848 334.352 239.424H338.256C338.352 241.184 340.24 241.6 341.68 241.6C343.184 241.6 344.72 241.12 344.72 239.776C344.72 238.24 342.864 237.952 340.432 237.376C337.84 236.768 334.832 235.712 334.832 232.576C334.832 229.6 337.616 228 341.36 228C344.752 228 348.208 229.344 348.304 232.8H344.528C344.432 231.264 342.8 230.752 341.424 230.752C340.016 230.752 338.64 231.232 338.64 232.512C338.64 233.984 340.432 234.368 342.736 234.88C345.648 235.488 348.72 236.416 348.72 239.584C348.72 242.784 345.68 244.384 341.808 244.384Z" fill="black"/>
<defs>
<linearGradient id="paint0_linear_2046_2143" x1="0" y1="187.5" x2="1150" y2="187.5" gradientUnits="userSpaceOnUse">
<stop stop-color="#4CAA63"/>
<stop offset="1" stop-color="white"/>
</linearGradient>
<clipPath id="clip0_2046_2143">
<rect width="186.462" height="96" fill="white" transform="translate(135 117)"/>
</clipPath>
</defs>
</svg>
