<svg width="9" height="8" viewBox="0 0 9 10" fill="none" xmlns="http://www.w3.org/2000/svg">
<path d="M3.75648 5.87884C4.37706 5.87884 4.88015 5.37597 4.88015 4.75564C4.88015 4.13532 4.37706 3.63245 3.75648 3.63245C3.13589 3.63245 2.63281 4.13532 2.63281 4.75564C2.63281 5.37597 3.13589 5.87884 3.75648 5.87884Z" fill="#FCBF49"/>
<path d="M1.63022 2.25991C1.97828 2.25991 2.26044 1.97787 2.26044 1.62996C2.26044 1.28204 1.97828 1 1.63022 1C1.28216 1 1 1.28204 1 1.62996C1 1.97787 1.28216 2.25991 1.63022 2.25991Z" fill="#FCBF49"/>
<path d="M2.04038 9.00002C2.38844 9.00002 2.67059 8.71798 2.67059 8.37007C2.67059 8.02215 2.38844 7.74011 2.04038 7.74011C1.69231 7.74011 1.41016 8.02215 1.41016 8.37007C1.41016 8.71798 1.69231 9.00002 2.04038 9.00002Z" fill="#FCBF49"/>
<path d="M7.66928 5.36862C8.01734 5.36862 8.2995 5.08658 8.2995 4.73866C8.2995 4.39075 8.01734 4.1087 7.66928 4.1087C7.32122 4.1087 7.03906 4.39075 7.03906 4.73866C7.03906 5.08658 7.32122 5.36862 7.66928 5.36862Z" fill="#FCBF49"/>
<path d="M3.75648 5.87884C4.37706 5.87884 4.88015 5.37597 4.88015 4.75564C4.88015 4.13532 4.37706 3.63245 3.75648 3.63245C3.13589 3.63245 2.63281 4.13532 2.63281 4.75564C2.63281 5.37597 3.13589 5.87884 3.75648 5.87884Z" stroke="black" stroke-width="0.2" stroke-miterlimit="10"/>
<path d="M1.63022 2.25991C1.97828 2.25991 2.26044 1.97787 2.26044 1.62996C2.26044 1.28204 1.97828 1 1.63022 1C1.28216 1 1 1.28204 1 1.62996C1 1.97787 1.28216 2.25991 1.63022 2.25991Z" stroke="black" stroke-width="0.2" stroke-miterlimit="10"/>
<path d="M2.04038 9.00002C2.38844 9.00002 2.67059 8.71798 2.67059 8.37007C2.67059 8.02215 2.38844 7.74011 2.04038 7.74011C1.69231 7.74011 1.41016 8.02215 1.41016 8.37007C1.41016 8.71798 1.69231 9.00002 2.04038 9.00002Z" stroke="black" stroke-width="0.2" stroke-miterlimit="10"/>
<path d="M7.66928 5.36862C8.01734 5.36862 8.2995 5.08658 8.2995 4.73866C8.2995 4.39075 8.01734 4.1087 7.66928 4.1087C7.32122 4.1087 7.03906 4.39075 7.03906 4.73866C7.03906 5.08658 7.32122 5.36862 7.66928 5.36862Z" stroke="black" stroke-width="0.2" stroke-miterlimit="10"/>
<path d="M4.88281 4.75563L7.03986 4.73865" stroke="black" stroke-width="0.2" stroke-miterlimit="10"/>
<path d="M3.25589 5.76532L2.34766 7.80799" stroke="black" stroke-width="0.2" stroke-miterlimit="10"/>
<path d="M3.1628 3.7915L1.97656 2.14557" stroke="black" stroke-width="0.2" stroke-miterlimit="10"/>
</svg>
