<svg width="19" height="17" viewBox="0 0 19 17" fill="none" xmlns="http://www.w3.org/2000/svg">
<path d="M1 2.875V13C1 14.0501 1 14.5748 1.20302 14.9759C1.38161 15.3287 1.66636 15.6161 2.01686 15.7958C2.41493 16 2.93629 16 3.97748 16H14.787C15.8282 16 16.3488 16 16.7469 15.7958C17.0974 15.6161 17.3831 15.3289 17.5617 14.976C17.7647 14.575 17.7647 14.0499 17.7647 12.9998L17.7647 5.87479C17.7647 4.82469 17.7647 4.29964 17.5617 3.89856C17.3831 3.54576 17.0976 3.25913 16.7471 3.07936C16.3486 2.875 15.8274 2.875 14.7842 2.875H9.38225M1 2.875H9.38225M1 2.875C1 1.83947 1.83397 1 2.86272 1H6.28503C6.74063 1 6.96897 1 7.18335 1.05181C7.37341 1.09774 7.55478 1.17369 7.72145 1.27649C7.90937 1.39241 8.07072 1.55483 8.39268 1.87891L9.38225 2.875" stroke="black" stroke-opacity="0.8" stroke-width="1.5" stroke-linecap="round" stroke-linejoin="round"/>
</svg>
