<svg width="10" height="10" viewBox="0 0 10 10" fill="none" xmlns="http://www.w3.org/2000/svg">
<path d="M7.28908 4.50947L7.31567 4.49806L8.42891 3.99109L8.54923 4.59439L8.52517 5.48792L8.44031 6.09122L8.22374 6.64001L7.81973 7.18374L7.01172 6.44103L7.22829 5.76549L7.28908 5.11276V4.50947Z" fill="#39B8D4"/>
<path d="M4.84238 3.18758L4.86645 1.59442L3.94318 1.75792L3.10477 2.18631L2.55005 2.60203L2.05612 3.29657L1.80283 3.80355L1.62172 4.43726L1.59766 5.42712L1.81422 6.30798L2.24229 7.0621L2.87554 7.68441L3.58096 8.15462L4.20914 8.36628L4.68534 8.44486L5.42623 8.43219L6.21145 8.2332L6.80796 7.96197L6.92828 7.84664L5.92142 6.71863L5.32998 6.94169H4.69674L3.99131 6.66413L3.51511 6.24208L3.13516 5.53612L3.09843 4.68441L3.3226 4.11787L3.66582 3.68314L4.25727 3.30291L4.84238 3.18758Z" fill="#39B8D4"/>
<path d="M4.99702 9C7.20451 9 8.99403 7.20914 8.99403 5C8.99403 2.79086 7.20451 1 4.99702 1C2.78953 1 1 2.79086 1 5C1 7.20914 2.78953 9 4.99702 9Z" stroke="black" stroke-width="0.2" stroke-miterlimit="10"/>
<path d="M4.97184 6.97212C6.01123 6.97212 6.85383 6.12889 6.85383 5.08872C6.85383 4.04855 6.01123 3.20532 4.97184 3.20532C3.93244 3.20532 3.08984 4.04855 3.08984 5.08872C3.08984 6.12889 3.93244 6.97212 4.97184 6.97212Z" stroke="black" stroke-width="0.2" stroke-miterlimit="10"/>
<path d="M5.77341 1.08112L5.35547 3.2218" stroke="black" stroke-width="0.2" stroke-miterlimit="10"/>
<path d="M8.62543 3.30292L6.69531 4.2839" stroke="black" stroke-width="0.2" stroke-miterlimit="10"/>
<path d="M7.78744 7.92146L6.33984 6.39294" stroke="black" stroke-width="0.2" stroke-miterlimit="10"/>
<path d="M4.82812 3.19015L4.86865 1.5387" stroke="black" stroke-width="0.2" stroke-miterlimit="10"/>
<path d="M5.9375 6.73132L6.94942 7.92524" stroke="black" stroke-width="0.2" stroke-miterlimit="10"/>
<path d="M4.85874 1.60205C3.04134 1.68443 1.59375 3.18633 1.59375 5.02537C1.59375 6.86441 3.12746 8.45376 5.01959 8.45376C5.72122 8.45376 6.37345 8.2421 6.91677 7.87962" stroke="black" stroke-width="0.2" stroke-miterlimit="10"/>
<path d="M7.27092 4.50567L8.43102 3.98602C8.43102 3.98602 8.99207 5.88083 7.83451 7.20275L6.99609 6.46004C6.99609 6.46004 7.44696 5.66283 7.27092 4.5044V4.50567Z" stroke="black" stroke-width="0.2" stroke-miterlimit="10"/>
</svg>
