<svg width="11" height="12" viewBox="0 0 11 12" fill="none" xmlns="http://www.w3.org/2000/svg">
<path d="M5.16179 11C6.09036 11 6.84311 8.76142 6.84311 6C6.84311 3.23858 6.09036 1 5.16179 1C4.23322 1 3.48047 3.23858 3.48047 6C3.48047 8.76142 4.23322 11 5.16179 11Z" stroke="black" stroke-width="0.2" stroke-miterlimit="10"/>
<path d="M6.01481 7.44785C8.39414 6.04633 9.94091 4.26157 9.46962 3.46149C8.99834 2.66141 6.68747 3.14898 4.30814 4.5505C1.92882 5.95203 0.382051 7.73679 0.853334 8.53687C1.32462 9.33695 3.63549 8.84938 6.01481 7.44785Z" stroke="black" stroke-width="0.2" stroke-miterlimit="10"/>
<path d="M9.26114 8.86004C9.79241 8.09847 8.38712 6.20031 6.12234 4.62037C3.85755 3.04043 1.59089 2.37701 1.05962 3.13858C0.52834 3.90015 1.93363 5.79831 4.19842 7.37825C6.4632 8.95818 8.72986 9.6216 9.26114 8.86004Z" stroke="black" stroke-width="0.2" stroke-miterlimit="10"/>
<path d="M5.20348 7.04764C5.74949 7.04764 6.19211 6.60501 6.19211 6.05901C6.19211 5.513 5.74949 5.07037 5.20348 5.07037C4.65747 5.07037 4.21484 5.513 4.21484 6.05901C4.21484 6.60501 4.65747 7.04764 5.20348 7.04764Z" fill="#A197FC"/>
<path d="M7.44859 9.40659C7.6683 9.40659 7.84641 9.22848 7.84641 9.00877C7.84641 8.78907 7.6683 8.61096 7.44859 8.61096C7.22889 8.61096 7.05078 8.78907 7.05078 9.00877C7.05078 9.22848 7.22889 9.40659 7.44859 9.40659Z" fill="#A197FC"/>
<path d="M1.66734 7.01761C1.88705 7.01761 2.06516 6.8395 2.06516 6.6198C2.06516 6.40009 1.88705 6.22198 1.66734 6.22198C1.44764 6.22198 1.26953 6.40009 1.26953 6.6198C1.26953 6.8395 1.44764 7.01761 1.66734 7.01761Z" fill="#A197FC"/>
<path d="M6.30406 2.62882C6.52377 2.62882 6.70188 2.45071 6.70188 2.23101C6.70188 2.0113 6.52377 1.83319 6.30406 1.83319C6.08436 1.83319 5.90625 2.0113 5.90625 2.23101C5.90625 2.45071 6.08436 2.62882 6.30406 2.62882Z" fill="#A197FC"/>
<path d="M7.44859 9.40659C7.6683 9.40659 7.84641 9.22848 7.84641 9.00877C7.84641 8.78907 7.6683 8.61096 7.44859 8.61096C7.22889 8.61096 7.05078 8.78907 7.05078 9.00877C7.05078 9.22848 7.22889 9.40659 7.44859 9.40659Z" fill="#A197FC"/>
<path d="M5.20348 7.04764C5.74949 7.04764 6.19211 6.60501 6.19211 6.05901C6.19211 5.513 5.74949 5.07037 5.20348 5.07037C4.65747 5.07037 4.21484 5.513 4.21484 6.05901C4.21484 6.60501 4.65747 7.04764 5.20348 7.04764Z" stroke="black" stroke-width="0.2" stroke-miterlimit="10"/>
<path d="M1.66344 7.01761C1.88314 7.01761 2.06125 6.8395 2.06125 6.6198C2.06125 6.40009 1.88314 6.22198 1.66344 6.22198C1.44373 6.22198 1.26562 6.40009 1.26562 6.6198C1.26562 6.8395 1.44373 7.01761 1.66344 7.01761Z" stroke="black" stroke-width="0.2" stroke-miterlimit="10"/>
<path d="M6.30406 2.62882C6.52377 2.62882 6.70188 2.45071 6.70188 2.23101C6.70188 2.0113 6.52377 1.83319 6.30406 1.83319C6.08436 1.83319 5.90625 2.0113 5.90625 2.23101C5.90625 2.45071 6.08436 2.62882 6.30406 2.62882Z" stroke="black" stroke-width="0.2" stroke-miterlimit="10"/>
<path d="M7.44859 9.40665C7.6683 9.40665 7.84641 9.22854 7.84641 9.00883C7.84641 8.78913 7.6683 8.61102 7.44859 8.61102C7.22889 8.61102 7.05078 8.78913 7.05078 9.00883C7.05078 9.22854 7.22889 9.40665 7.44859 9.40665Z" stroke="black" stroke-width="0.2" stroke-miterlimit="10"/>
<path d="M1.66344 7.01761C1.88314 7.01761 2.06125 6.8395 2.06125 6.6198C2.06125 6.40009 1.88314 6.22198 1.66344 6.22198C1.44373 6.22198 1.26562 6.40009 1.26562 6.6198C1.26562 6.8395 1.44373 7.01761 1.66344 7.01761Z" stroke="black" stroke-width="0.2" stroke-miterlimit="10"/>
<path d="M6.30406 2.62882C6.52377 2.62882 6.70188 2.45071 6.70188 2.23101C6.70188 2.0113 6.52377 1.83319 6.30406 1.83319C6.08436 1.83319 5.90625 2.0113 5.90625 2.23101C5.90625 2.45071 6.08436 2.62882 6.30406 2.62882Z" stroke="black" stroke-width="0.2" stroke-miterlimit="10"/>
</svg>
