<svg width="38" height="38" viewBox="0 0 38 38" fill="none" xmlns="http://www.w3.org/2000/svg">
<path d="M18.9105 37.891C8.54476 37.891 0.141724 29.488 0.141724 19.1223C0.141724 8.75655 8.54476 0.353516 18.9105 0.353516C29.2762 0.353516 37.6792 8.75655 37.6792 19.1223C37.6792 29.488 29.2762 37.891 18.9105 37.891Z" fill="#404765"/>
<path d="M18.9105 10.6799C21.6622 10.6799 21.9877 10.6897 23.0726 10.7391C24.0786 10.7884 24.621 10.956 24.9859 11.0941C25.4692 11.2815 25.8045 11.5083 26.1695 11.8634C26.5344 12.2283 26.7514 12.5637 26.9388 13.0469C27.0768 13.4118 27.2445 13.9543 27.2938 14.9603C27.3431 16.0452 27.353 16.3707 27.353 19.1224C27.353 21.8741 27.3431 22.1995 27.2938 23.2844C27.2445 24.2904 27.0768 24.8329 26.9388 25.1978C26.7514 25.6811 26.5245 26.0164 26.1695 26.3813C25.8144 26.7463 25.4692 26.9632 24.9859 27.1506C24.621 27.2887 24.0786 27.4564 23.0726 27.5057C21.9877 27.555 21.6622 27.5649 18.9105 27.5649C16.1588 27.5649 15.8333 27.555 14.7484 27.5057C13.7424 27.4564 13.2 27.2887 12.8351 27.1506C12.3518 26.9632 12.0165 26.7364 11.6515 26.3813C11.2965 26.0164 11.0696 25.6811 10.8822 25.1978C10.7442 24.8329 10.5765 24.2904 10.5272 23.2844C10.4779 22.1995 10.468 21.8741 10.468 19.1224C10.468 16.3707 10.4779 16.0452 10.5272 14.9603C10.5765 13.9543 10.7442 13.4118 10.8822 13.0469C11.0696 12.5637 11.2965 12.2283 11.6515 11.8634C12.0165 11.4985 12.3518 11.2815 12.8351 11.0941C13.2 10.956 13.7424 10.7884 14.7484 10.7391C15.8333 10.6897 16.1588 10.6799 18.9105 10.6799ZM18.9105 8.82568C16.1193 8.82568 15.7643 8.83554 14.6695 8.88486C13.5748 8.93417 12.8252 9.11171 12.1743 9.36814C11.4937 9.63443 10.9217 9.97962 10.3496 10.5517C9.77761 11.1237 9.42256 11.6957 9.16613 12.3763C8.90969 13.0272 8.74203 13.7768 8.69272 14.8715C8.64341 15.9663 8.63354 16.3213 8.63354 19.1125C8.63354 21.9036 8.64341 22.2587 8.69272 23.3535C8.74203 24.4482 8.91956 25.1978 9.16613 25.8487C9.43242 26.5293 9.77761 27.1013 10.3496 27.6733C10.9217 28.2454 11.4937 28.6004 12.1743 28.8569C12.8252 29.1133 13.5748 29.281 14.6695 29.3401C15.7643 29.3895 16.1193 29.3993 18.9105 29.3993C21.7016 29.3993 22.0567 29.3895 23.1515 29.3401C24.2462 29.2908 24.9958 29.1133 25.6467 28.8569C26.3273 28.5906 26.8993 28.2454 27.4713 27.6733C28.0434 27.1013 28.3984 26.5293 28.6549 25.8487C28.9113 25.1978 29.079 24.4482 29.1381 23.3535C29.1875 22.2587 29.1973 21.9036 29.1973 19.1125C29.1973 16.3213 29.1875 15.9663 29.1381 14.8715C29.0888 13.7768 28.9113 13.0272 28.6549 12.3763C28.3886 11.6957 28.0434 11.1237 27.4713 10.5517C26.8993 9.97962 26.3273 9.62457 25.6467 9.36814C24.9958 9.11171 24.2462 8.94403 23.1515 8.88486C22.0567 8.83554 21.7016 8.82568 18.9105 8.82568Z" fill="white"/>
<path d="M18.9104 13.8359C15.9911 13.8359 13.624 16.203 13.624 19.1224C13.624 22.0417 15.9911 24.4088 18.9104 24.4088C21.8298 24.4088 24.1969 22.0417 24.1969 19.1224C24.1969 16.203 21.8298 13.8359 18.9104 13.8359ZM18.9104 22.5546C17.0168 22.5546 15.4782 21.016 15.4782 19.1224C15.4782 17.2287 17.0168 15.6901 18.9104 15.6901C20.8041 15.6901 22.3427 17.2287 22.3427 19.1224C22.3427 21.016 20.8041 22.5546 18.9104 22.5546Z" fill="white"/>
<path d="M25.6467 13.6288C25.6467 14.3094 25.0944 14.8617 24.4139 14.8617C23.7333 14.8617 23.181 14.3094 23.181 13.6288C23.181 12.9483 23.7333 12.396 24.4139 12.396C25.0944 12.396 25.6467 12.9483 25.6467 13.6288Z" fill="white"/>
</svg>
