<svg width="39" height="39" viewBox="0 0 39 39" fill="none" xmlns="http://www.w3.org/2000/svg">
<path d="M19.3567 38.177C8.87188 38.177 0.375 29.7133 0.375 19.276C0.375 8.83873 8.87188 0.375 19.3567 0.375C29.8414 0.375 38.3383 8.83873 38.3383 19.276C38.3383 29.7133 29.8414 38.177 19.3567 38.177Z" stroke="#404765" stroke-opacity="0.7" stroke-width="0.75"/>
<path d="M14.586 14.9814H10.5784V27.871H14.586V14.9814Z" fill="#404765"/>
<path d="M12.5619 13.2899C13.8689 13.2899 14.9319 12.2263 14.9319 10.9095C14.9319 9.59268 13.874 8.53418 12.5619 8.53418C11.2497 8.53418 10.1919 9.59775 10.1919 10.9095C10.1919 12.2212 11.2497 13.2899 12.5619 13.2899Z" fill="#404765"/>
<path d="M20.9892 21.0996C20.9892 19.2864 21.8283 18.2076 23.4304 18.2076C24.9053 18.2076 25.6122 19.2459 25.6122 21.0996V27.8659H29.5995V19.7068C29.5995 16.2527 27.6363 14.5864 24.89 14.5864C22.1437 14.5864 20.9892 16.7136 20.9892 16.7136V14.9764H17.1443V27.8659H20.9892V21.0996Z" fill="#404765"/>
</svg>
