<svg width="157" height="35" viewBox="0 0 157 35" fill="none" xmlns="http://www.w3.org/2000/svg">
<path d="M49.1546 5.56176C48.5808 3.43578 46.9004 1.75952 44.7691 1.18714C40.8755 0.124146 25.3011 0.124146 25.3011 0.124146C25.3011 0.124146 9.72675 0.124146 5.83315 1.14625C3.7429 1.71863 2.02152 3.43578 1.44773 5.56176C0.423096 9.44577 0.423096 17.5 0.423096 17.5C0.423096 17.5 0.423096 25.5951 1.44773 29.4382C2.02152 31.5642 3.70192 33.2404 5.83315 33.8128C9.76774 34.8758 25.3011 34.8758 25.3011 34.8758C25.3011 34.8758 40.8755 34.8758 44.7691 33.8537C46.9004 33.2813 48.5808 31.6051 49.1546 29.4791C50.1792 25.5951 50.1792 17.5409 50.1792 17.5409C50.1792 17.5409 50.2202 9.44577 49.1546 5.56176Z" fill="#FF0000" fill-opacity="0.75"/>
<path d="M20.342 10.0591V24.941L33.2934 17.5L20.342 10.0591Z" fill="white" fill-opacity="0.75"/>
<path d="M72.6801 31.7687C71.6965 31.1145 70.9997 30.0924 70.5899 28.6615C70.18 27.2714 69.9751 25.3907 69.9751 23.1012V19.9531C69.9751 17.6227 70.221 15.742 70.6718 14.3111C71.1637 12.8801 71.9014 11.858 72.8851 11.2039C73.9097 10.5497 75.2212 10.2227 76.8606 10.2227C78.459 10.2227 79.7706 10.5497 80.7542 11.2039C81.7379 11.858 82.4346 12.921 82.8855 14.3111C83.3363 15.7012 83.5822 17.5818 83.5822 19.9531V23.1012C83.5822 25.4316 83.3773 27.2714 82.9264 28.7024C82.4756 30.0924 81.7789 31.1554 80.7952 31.8096C79.8116 32.4637 78.459 32.7908 76.7787 32.7908C75.0573 32.7499 73.6638 32.4228 72.6801 31.7687ZM78.2131 28.3344C78.5 27.6394 78.623 26.4537 78.623 24.8592V18.0724C78.623 16.5188 78.5 15.3741 78.2131 14.6382C77.9262 13.9022 77.4754 13.5752 76.7787 13.5752C76.1229 13.5752 75.6311 13.9431 75.3852 14.6382C75.0983 15.3741 74.9753 16.5188 74.9753 18.0724V24.8592C74.9753 26.4537 75.0983 27.6394 75.3852 28.3344C75.6311 29.0294 76.1229 29.3974 76.8196 29.3974C77.4754 29.3974 77.9262 29.0703 78.2131 28.3344Z" fill="#282828"/>
<path d="M148.339 23.1421V24.246C148.339 25.636 148.38 26.699 148.462 27.394C148.544 28.0891 148.708 28.6206 148.995 28.9068C149.241 29.2338 149.651 29.3974 150.224 29.3974C150.962 29.3974 151.454 29.1112 151.741 28.5388C152.028 27.9664 152.151 27.0261 152.192 25.6769L156.413 25.9222C156.454 26.1266 156.454 26.3719 156.454 26.699C156.454 28.7023 155.921 30.2151 154.815 31.1963C153.708 32.1775 152.151 32.6681 150.142 32.6681C147.724 32.6681 146.044 31.8913 145.06 30.3786C144.077 28.8659 143.585 26.5355 143.585 23.3465V19.5443C143.585 16.2735 144.077 13.9022 145.101 12.3895C146.126 10.8768 147.847 10.1409 150.265 10.1409C151.946 10.1409 153.257 10.4679 154.159 11.0812C155.061 11.6945 155.675 12.6757 156.044 13.9431C156.413 15.2514 156.577 17.0503 156.577 19.3398V23.0603H148.339V23.1421ZM148.954 13.984C148.708 14.3111 148.544 14.8017 148.462 15.4967C148.38 16.1917 148.339 17.2547 148.339 18.6857V20.2393H151.946V18.6857C151.946 17.2956 151.905 16.2326 151.823 15.4967C151.741 14.7608 151.536 14.2702 151.29 13.984C151.044 13.6978 150.634 13.5343 150.142 13.5343C149.569 13.4934 149.2 13.6569 148.954 13.984Z" fill="#282828"/>
<path d="M60.7124 22.7332L55.1384 2.57727H60.0157L61.983 11.6945C62.4748 13.9431 62.8437 15.8647 63.0896 17.4592H63.2125C63.3765 16.3144 63.7453 14.4337 64.3191 11.7354L66.3684 2.57727H71.2456L65.5897 22.7332V32.3819H60.7534V22.7332H60.7124Z" fill="#282828"/>
<path d="M99.4435 10.6315V32.4228H95.5909L95.181 29.7653H95.0581C94.0334 31.7687 92.435 32.7908 90.3448 32.7908C88.9103 32.7908 87.8447 32.3002 87.1479 31.3598C86.4512 30.4195 86.1233 28.9476 86.1233 26.9034V10.6315H91.0415V26.6172C91.0415 27.5985 91.1645 28.2935 91.3694 28.7023C91.5743 29.1112 91.9432 29.3156 92.435 29.3156C92.8449 29.3156 93.2547 29.1929 93.6646 28.9068C94.0744 28.6615 94.3613 28.3344 94.5253 27.9255V10.6315H99.4435Z" fill="#282828"/>
<path d="M124.649 10.6315V32.4228H120.797L120.387 29.7653H120.264C119.239 31.7687 117.641 32.7908 115.551 32.7908C114.116 32.7908 113.05 32.3002 112.354 31.3598C111.657 30.4195 111.329 28.9476 111.329 26.9034V10.6315H116.247V26.6172C116.247 27.5985 116.37 28.2935 116.575 28.7023C116.78 29.1112 117.149 29.3156 117.641 29.3156C118.051 29.3156 118.461 29.1929 118.87 28.9068C119.28 28.6615 119.567 28.3344 119.731 27.9255V10.6315H124.649Z" fill="#282828"/>
<path d="M112.805 6.54305H107.927V32.3819H103.132V6.54305H98.2549V2.57727H112.805V6.54305Z" fill="#282828"/>
<path d="M140.921 14.1066C140.634 12.7166 140.142 11.7354 139.486 11.1221C138.83 10.5088 137.888 10.1817 136.74 10.1817C135.838 10.1817 134.978 10.4271 134.199 10.9586C133.42 11.4492 132.805 12.1442 132.396 12.9619H132.355V1.47339H127.6V32.3819H131.658L132.15 30.3377H132.273C132.642 31.0736 133.215 31.646 133.994 32.0957C134.773 32.5046 135.592 32.7499 136.535 32.7499C138.216 32.7499 139.404 31.9731 140.183 30.4604C140.962 28.9476 141.371 26.5355 141.371 23.3056V19.8713C141.33 17.3774 141.207 15.4558 140.921 14.1066ZM136.412 22.9785C136.412 24.573 136.33 25.7996 136.207 26.699C136.084 27.5985 135.838 28.2526 135.551 28.6206C135.224 28.9885 134.814 29.193 134.322 29.193C133.912 29.193 133.543 29.1112 133.215 28.9068C132.887 28.7023 132.601 28.4162 132.396 28.0482V15.7011C132.56 15.1287 132.846 14.6381 133.256 14.2293C133.666 13.8613 134.117 13.6569 134.568 13.6569C135.06 13.6569 135.47 13.8613 135.715 14.2293C136.002 14.6381 136.166 15.2923 136.289 16.1917C136.412 17.1321 136.453 18.4404 136.453 20.1166V22.9785H136.412Z" fill="#282828"/>
</svg>
