<svg width="300" height="300" viewBox="0 0 300 300" fill="none" xmlns="http://www.w3.org/2000/svg">
<rect width="300" height="300" fill="#F9FBFE"/>
<path d="M243.058 127.431L244.675 127.633L245.614 128.794L246.086 129.701L245.768 131.218L245.126 132.093L244.304 132.634L242.586 132.666L241.286 131.754L240.65 130.258L241.021 128.693L242.199 127.611L243.058 127.431Z" fill="#63B4B8"/>
<path d="M244.235 138.526L246.325 137.28L248.78 137.11L250.955 137.969L252.334 139.788L252.922 142.011L252.419 143.808L251.676 145.527L249.422 146.688L247.736 146.89L246.001 146.603L244.267 145.378L243.121 143.374L242.904 141.284L244.235 138.526Z" fill="#63B4B8"/>
<path d="M239.86 144.402L238.73 142.514L236.794 141.486L234.62 141.422L232.886 142.212L231.862 143.708L231.592 145.643L231.894 147.5L233.071 148.507L234.217 149.398L235.75 149.605L237.144 149.213L238.391 148.645L239.319 147.585L239.839 145.898L239.86 144.402Z" fill="#63B4B8"/>
<path d="M255.298 148.391L256.624 147.632L258.411 147.648L259.642 147.935L260.92 149.653L261.19 150.846L260.973 152.092L260.464 153.19L259.34 154.028L258.109 154.399L256.624 154.336L254.996 153.19L254.068 151.387L254.726 148.963L255.298 148.391Z" fill="#63B4B8"/>
<path d="M264.219 140.833L265.635 140.176L267.115 140.191L268.191 140.833L269.151 141.772L269.491 143.156L269.353 144.265L268.886 145.007L268.175 145.781L266.727 146.439L265.03 146.115L263.8 145.108L263.259 143.877L263.211 142.361L264.219 140.833Z" fill="#63B4B8"/>
<path d="M159.193 163.527L210.107 109.176L228.945 126.805L221.17 135.089L218.237 133.371L214.753 132.061L210.913 132.363L206.824 133.626L203.695 135.795L200.964 139.385L199.802 142.917L199.601 146.704L200.359 150.342L202.125 153.577L203.038 154.384L178.031 181.357L159.193 163.527Z" fill="#63B4B8"/>
<path d="M168.554 190.193L152.156 174.638L148.756 178.408L165.186 193.868L168.554 190.193Z" fill="#63B4B8"/>
<path d="M144.275 216.896L123.432 202.248L117.943 210.267L138.584 224.915L144.275 216.896Z" fill="#63B4B8"/>
<path d="M171.381 223.87L173.338 224.173L175.157 225.62L175.894 227.371L175.624 229.524L174.547 231.21L172.829 232.218H171.079L168.894 231.343L167.748 229.725L167.377 227.471L168.018 225.52L169.429 224.406L171.381 223.87Z" fill="#63B4B8"/>
<path d="M210.038 138.606L212.632 138.001L215.496 138.441L217.887 139.921L219.569 142.074L220.444 144.567L220.311 147.229L219.468 149.282L218.089 150.798L216.975 151.742L214.854 152.718L211.995 152.92L209.503 152.315L207.18 150.194L205.864 147.903L205.392 144.837L206.167 142.281L207.683 140.122L210.038 138.606Z" fill="#63B4B8"/>
<path d="M117.826 260.305L207.482 260.353L207.63 249.592L207.18 248.531L206.267 248.282L119.343 248.33L118.383 248.531L117.927 249.491L117.826 260.305Z" fill="#63B4B8"/>
<path d="M203.043 154.574L178.068 181.262L159.183 163.59L210.038 109.245L228.924 126.917L221.239 135.127" stroke="black" stroke-miterlimit="10"/>
<path d="M175.418 179.086L162.893 167.299L154.159 176.58L166.684 188.367L175.418 179.086Z" stroke="black" stroke-miterlimit="10"/>
<path d="M152.216 174.726L148.789 178.369L165.241 193.846L168.668 190.203L152.216 174.726Z" stroke="black" stroke-miterlimit="10"/>
<path d="M153.495 182.774L160.622 189.602L153.872 196.648C153.747 196.779 153.541 196.779 153.414 196.658L146.758 190.282C146.628 190.157 146.627 189.951 146.748 189.824L153.499 182.778L153.495 182.774Z" stroke="black" stroke-miterlimit="10"/>
<path d="M234.146 115.941L221.625 104.134L213.759 112.476L226.28 124.283L234.146 115.941Z" stroke="black" stroke-miterlimit="10"/>
<path d="M219.833 96.6037L218.845 97.6327C217.816 98.7038 217.85 100.406 218.922 101.435L237.05 118.843C238.121 119.872 239.823 119.837 240.852 118.766L241.84 117.737C242.868 116.666 242.834 114.964 241.763 113.935L223.635 96.5267C222.564 95.4981 220.861 95.5326 219.833 96.6037Z" stroke="black" stroke-miterlimit="10"/>
<path d="M212.913 158.929C220.291 158.929 226.272 152.947 226.272 145.569C226.272 138.191 220.291 132.21 212.913 132.21C205.534 132.21 199.553 138.191 199.553 145.569C199.553 152.947 205.534 158.929 212.913 158.929Z" stroke="black" stroke-miterlimit="10"/>
<path d="M212.96 152.92C217.076 152.92 220.412 149.584 220.412 145.468C220.412 141.353 217.076 138.017 212.96 138.017C208.845 138.017 205.509 141.353 205.509 145.468C205.509 149.584 208.845 152.92 212.96 152.92Z" stroke="black" stroke-miterlimit="10"/>
<path d="M217.277 189.991V158.197" stroke="black" stroke-miterlimit="10"/>
<path d="M208.442 189.991V158.16" stroke="black" stroke-miterlimit="10"/>
<path d="M208.442 189.991C208.442 189.991 208.76 214.759 179.957 223.632" stroke="black" stroke-miterlimit="10"/>
<path d="M217.277 189.991C217.277 189.991 218.285 224.035 180.556 231.412" stroke="black" stroke-miterlimit="10"/>
<path d="M171.344 218.381H171.9C176.568 218.381 180.36 222.173 180.36 226.84V248.129H162.885V226.84C162.885 222.173 166.677 218.381 171.344 218.381Z" stroke="black" stroke-miterlimit="10"/>
<path d="M171.667 232.218C174.01 232.218 175.91 230.318 175.91 227.975C175.91 225.632 174.01 223.732 171.667 223.732C169.324 223.732 167.424 225.632 167.424 227.975C167.424 230.318 169.324 232.218 171.667 232.218Z" stroke="black" stroke-miterlimit="10"/>
<path d="M139.289 224.13C148.698 230.574 162.932 231.767 162.932 231.767" stroke="black" stroke-miterlimit="10"/>
<path d="M143.235 218.577C152.103 224.029 162.98 224.995 162.98 224.995" stroke="black" stroke-miterlimit="10"/>
<path d="M123.571 202.337L117.922 210.282L138.657 225.023L144.306 217.078L123.571 202.337Z" stroke="black" stroke-miterlimit="10"/>
<path d="M155.218 213.292L123.361 190.626L117.913 198.284L149.77 220.949L155.218 213.292Z" stroke="black" stroke-miterlimit="10"/>
<path d="M119.327 248.314H206.235C206.999 248.314 207.614 248.935 207.614 249.693V260.433H117.842V249.794C117.842 248.977 118.505 248.314 119.321 248.314H119.327Z" stroke="black" stroke-miterlimit="10"/>
<path d="M247.921 146.959C250.654 146.959 252.869 144.743 252.869 142.011C252.869 139.278 250.654 137.062 247.921 137.062C245.188 137.062 242.973 139.278 242.973 142.011C242.973 144.743 245.188 146.959 247.921 146.959Z" stroke="black" stroke-miterlimit="10"/>
<path d="M235.697 149.584C238.002 149.584 239.87 147.715 239.87 145.41C239.87 143.105 238.002 141.236 235.697 141.236C233.391 141.236 231.523 143.105 231.523 145.41C231.523 147.715 233.391 149.584 235.697 149.584Z" stroke="black" stroke-miterlimit="10"/>
<path d="M243.408 132.751C244.878 132.751 246.07 131.559 246.07 130.088C246.07 128.618 244.878 127.426 243.408 127.426C241.937 127.426 240.745 128.618 240.745 130.088C240.745 131.559 241.937 132.751 243.408 132.751Z" stroke="black" stroke-miterlimit="10"/>
<path d="M266.34 146.354C268.051 146.354 269.437 144.967 269.437 143.257C269.437 141.546 268.051 140.16 266.34 140.16C264.63 140.16 263.243 141.546 263.243 143.257C263.243 144.967 264.63 146.354 266.34 146.354Z" stroke="black" stroke-miterlimit="10"/>
<path d="M257.653 154.5C259.586 154.5 261.153 152.933 261.153 151C261.153 149.067 259.586 147.5 257.653 147.5C255.72 147.5 254.153 149.067 254.153 151C254.153 152.933 255.72 154.5 257.653 154.5Z" stroke="black" stroke-miterlimit="10"/>
<path d="M246.272 137.195L244.389 132.613" stroke="black" stroke-miterlimit="10"/>
<path d="M243.307 143.93L239.807 144.535" stroke="black" stroke-miterlimit="10"/>
<path d="M255.028 148.709L251.729 145.277" stroke="black" stroke-miterlimit="10"/>
<path d="M260.618 148.778L264.049 145.612" stroke="black" stroke-miterlimit="10"/>
<path d="M171.317 30.3133C171.317 30.3133 134.68 29.0988 131.986 72.0679C129.292 115.037 94.5435 119.073 94.5435 119.073" stroke="#63B4B8" stroke-width="2" stroke-linecap="round" stroke-linejoin="round"/>
<path d="M175.258 57.6052L158.891 32.5037" stroke="#63B4B8" stroke-width="2" stroke-linecap="round" stroke-linejoin="round"/>
<path d="M167.732 64.8286L149.493 36.948" stroke="#63B4B8" stroke-width="2" stroke-linecap="round" stroke-linejoin="round"/>
<path d="M157.226 69.4798L141.008 44.9298" stroke="#63B4B8" stroke-width="2" stroke-linecap="round" stroke-linejoin="round"/>
<path d="M146.619 71.2936L135.556 56.2422" stroke="#63B4B8" stroke-width="2" stroke-linecap="round" stroke-linejoin="round"/>
<path d="M182.497 43.3811C182.497 43.3811 177.565 74.7302 136.356 71.5481C130.406 71.0867 124.413 71.3359 118.568 72.5504C105.596 75.2393 87.4898 82.94 83.3584 104.939" stroke="black" stroke-width="2" stroke-linecap="round" stroke-linejoin="round"/>
<path d="M129.191 87.2571L116.564 73.1127" stroke="black" stroke-width="2" stroke-linecap="round" stroke-linejoin="round"/>
<path d="M123.835 99.381L104.037 77.557" stroke="black" stroke-width="2" stroke-linecap="round" stroke-linejoin="round"/>
<path d="M116.362 108.37L94.4426 84.3296" stroke="black" stroke-width="2" stroke-linecap="round" stroke-linejoin="round"/>
<path d="M107.017 114.682L87.5693 92.916" stroke="black" stroke-width="2" stroke-linecap="round" stroke-linejoin="round"/>
<path d="M93.9708 165.516L92.0138 162.821L91.4092 159.385L92.1145 156.388L94.0344 154.129L96.7975 152.681L100.637 152.75L103.331 154.267L105.315 156.659L106.089 159.989L105.517 162.954L104.106 164.975L102.117 166.354L99.6614 167.165L96.0551 166.693L93.9708 165.516Z" fill="#63B4B8"/>
<path d="M75.6524 167.87L80.3354 167.027L85.1828 167.669L89.5264 169.923L92.088 172.177L94.3102 174.839L96.1611 179.284L96.6331 183.457L96.1929 187.159L94.6761 190.66L92.385 194.027L88.9165 196.79L84.8752 198.578L83.8304 198.779L80.1604 199.113L75.4138 198.138C75.4138 198.138 71.7756 196.318 71.8127 196.456C71.8498 196.594 68.3124 193.391 68.3124 193.391L65.9894 189.79L64.6423 185.478L64.812 180.53L66.2917 176.017L69.0549 172.007L72.1203 169.514L75.6577 167.865L75.6524 167.87Z" fill="#63B4B8"/>
<path d="M53.2556 174.367L54.067 171.609L53.595 167.839L51.7759 164.572L48.8802 162.45L45.5814 161.639L42.1447 162.312L39.6521 163.527L37.7004 165.68L36.7564 167.738L36.1836 170.294L36.8571 173.863L38.4429 176.759L40.1241 178.138L42.9562 179.284L45.4807 179.623L49.1825 178.711L51.7441 176.791L53.2556 174.367Z" fill="#63B4B8"/>
<path d="M82.25 209.286L83.8357 208.31L86.2594 207.673L88.3119 207.535L90.5341 207.976L92.8888 209.222L94.7079 210.94L95.7527 212.59L96.6278 215.347L96.4581 217.941L95.5194 220.635L93.9707 222.958L91.913 224.443L89.4203 225.318L86.8322 225.419L84.2388 224.809L82.0802 223.6L80.0967 221.478L78.8504 218.344L78.511 215.888L79.524 212.59L81.1044 210.198L82.25 209.286Z" fill="#63B4B8"/>
<path d="M80.6005 199.087C89.417 199.087 96.5641 191.94 96.5641 183.123C96.5641 174.307 89.417 167.16 80.6005 167.16C71.7841 167.16 64.637 174.307 64.637 183.123C64.637 191.94 71.7841 199.087 80.6005 199.087Z" stroke="black" stroke-linecap="round" stroke-linejoin="round"/>
<path d="M87.6066 225.387C92.5537 225.387 96.5642 221.377 96.5642 216.429C96.5642 211.482 92.5537 207.472 87.6066 207.472C82.6594 207.472 78.6489 211.482 78.6489 216.429C78.6489 221.377 82.6594 225.387 87.6066 225.387Z" stroke="black" stroke-linecap="round" stroke-linejoin="round"/>
<path d="M45.1094 179.522C50.0185 179.522 53.9981 175.543 53.9981 170.634C53.9981 165.724 50.0185 161.745 45.1094 161.745C40.2003 161.745 36.2207 165.724 36.2207 170.634C36.2207 175.543 40.2003 179.522 45.1094 179.522Z" stroke="black" stroke-linecap="round" stroke-linejoin="round"/>
<path d="M98.7174 167.128C102.733 167.128 105.989 163.873 105.989 159.857C105.989 155.841 102.733 152.586 98.7174 152.586C94.7017 152.586 91.4463 155.841 91.4463 159.857C91.4463 163.873 94.7017 167.128 98.7174 167.128Z" stroke="black" stroke-linecap="round" stroke-linejoin="round"/>
<path d="M89.8923 170.093L93.8859 165.547" stroke="black" stroke-linecap="round" stroke-linejoin="round"/>
<path d="M85.8033 207.573L84.2388 198.785" stroke="black" stroke-linecap="round" stroke-linejoin="round"/>
<path d="M65.2947 178.477L53.2239 174.489" stroke="black" stroke-linecap="round" stroke-linejoin="round"/>
<path d="M161.569 128.625L161.012 123.066L161.516 117.662L162.932 112.714L165.001 108.37L167.477 104.584L170.66 101.502L174.197 98.9249L177.83 96.8512L181.924 95.1382L183.542 94.7828L183.791 97.2596L183.844 100.24L183.69 103.168L183.186 106.504L182.173 110.19L180.864 113.621L179.4 116.05L177.883 118.32L175.809 120.542L172.982 123.12L170.103 125.039L166.263 127.007L161.569 128.625Z" fill="#63B4B8"/>
<path d="M183.643 94.6979C183.643 94.6979 157.645 100.76 161.553 129.043" stroke="black" stroke-miterlimit="10"/>
<path d="M183.393 94.5388C183.393 94.5388 188.633 120.712 161.267 128.863" stroke="black" stroke-miterlimit="10"/>
<path d="M161.516 128.625L171.216 113.722" stroke="black" stroke-miterlimit="10"/>
<path d="M136.85 109.765C136.85 109.765 132.432 130.327 153.9 137.052" stroke="black" stroke-miterlimit="10"/>
<path d="M136.654 109.887C136.654 109.887 157.067 114.952 153.673 137.19" stroke="black" stroke-miterlimit="10"/>
<path d="M153.588 136.935L146.232 125.018" stroke="black" stroke-miterlimit="10"/>
<path d="M231.735 210.474C231.735 210.474 219.505 213.327 221.345 226.628" stroke="black" stroke-miterlimit="10"/>
<path d="M231.618 210.399C231.618 210.399 234.084 222.709 221.213 226.543" stroke="black" stroke-miterlimit="10"/>
<path d="M221.329 226.432L225.89 219.421" stroke="black" stroke-miterlimit="10"/>
</svg>
