<svg width="300" height="300" viewBox="0 0 300 300" fill="none" xmlns="http://www.w3.org/2000/svg">
<rect width="300" height="300" fill="#F9FBFE"/>
<path d="M169.217 158.136L177.519 158.03V166.183L169.062 166.543L169.217 158.136Z" fill="#39B8D4"/>
<path d="M184.367 158.185L192.768 158.087L192.825 166.289L184.318 166.387L184.367 158.185Z" fill="#39B8D4"/>
<path d="M199.362 158.242L207.82 158.185L207.665 166.698L199.256 166.543L199.362 158.242Z" fill="#39B8D4"/>
<path d="M213.989 158.087L222.66 158.03L222.504 166.649L214.145 166.6L213.989 158.087Z" fill="#39B8D4"/>
<path d="M169.061 172.308L177.674 172.202L177.462 180.772L169.004 180.666L169.061 172.308Z" fill="#39B8D4"/>
<path d="M228.339 157.515L257.912 157.433L257.642 191.231L228.298 191.272L228.339 157.515Z" fill="#39B8D4"/>
<path d="M234.255 163.427H252.462V174.532L234.1 174.565L234.255 163.427Z" fill="white"/>
<path d="M263.06 143.506H162.197V214.538H263.06V143.506Z" stroke="black" stroke-miterlimit="10"/>
<path d="M262.856 151.087L162.303 151.193" stroke="black" stroke-miterlimit="10"/>
<path d="M162.197 214.538L144.073 225.529V225.545L281.504 225.341C281.504 225.341 281.512 225.333 281.504 225.325L263.06 214.538" stroke="black" stroke-miterlimit="10"/>
<path d="M144.04 225.545H281.945C281.945 230.248 278.129 234.058 273.438 234.058H152.547C147.848 234.058 144.04 230.239 144.04 225.545Z" stroke="black" stroke-miterlimit="10"/>
<path d="M177.634 158.021H169.151V166.51H177.634V158.021Z" stroke="black" stroke-width="0.7" stroke-miterlimit="10"/>
<path d="M177.634 172.267H169.151V180.756H177.634V172.267Z" stroke="black" stroke-width="0.7" stroke-miterlimit="10"/>
<path d="M192.808 158.095H184.326V166.584H192.808V158.095Z" stroke="black" stroke-width="0.7" stroke-miterlimit="10"/>
<path d="M207.754 158.25H199.272V166.739H207.754V158.25Z" stroke="black" stroke-width="0.7" stroke-miterlimit="10"/>
<path d="M222.537 158.095H214.055V166.584H222.537V158.095Z" stroke="black" stroke-width="0.7" stroke-miterlimit="10"/>
<path d="M257.716 157.474H228.38V191.354H257.716V157.474Z" stroke="black" stroke-width="0.7" stroke-miterlimit="10"/>
<path d="M252.429 163.394H234.214V174.688H252.429V163.394Z" stroke="black" stroke-width="0.7" stroke-miterlimit="10"/>
<path d="M185.805 175.931H209.233" stroke="black" stroke-miterlimit="10"/>
<path d="M185.568 183.716H209.233" stroke="black" stroke-miterlimit="10"/>
<path d="M185.65 191.354H197.867" stroke="black" stroke-miterlimit="10"/>
<path d="M233.904 181.148H252.658" stroke="black" stroke-width="0.7" stroke-miterlimit="10"/>
<path d="M45.313 128.466V122.741" stroke="black" stroke-width="2" stroke-miterlimit="10"/>
<path d="M45.313 161.177V155.73" stroke="black" stroke-width="2" stroke-miterlimit="10"/>
<path d="M45.313 193.888V188.442" stroke="black" stroke-width="2" stroke-miterlimit="10"/>
<path d="M124.178 128.466V122.741" stroke="black" stroke-width="2" stroke-miterlimit="10"/>
<path d="M124.178 161.177V155.73" stroke="black" stroke-width="2" stroke-miterlimit="10"/>
<path d="M124.178 193.888V188.442" stroke="black" stroke-width="2" stroke-miterlimit="10"/>
<path d="M38.7757 100.31L131.083 100.236L131.001 117.606L38.7021 117.679L38.7757 100.31Z" fill="#39B8D4"/>
<path d="M38.7756 133.413L131.083 133.34L130.928 150.856L38.9309 150.938L38.7756 133.413Z" fill="#39B8D4"/>
<path d="M39.0126 166.124L131.083 166.051L130.928 183.494L38.7756 183.568L39.0126 166.124Z" fill="#39B8D4"/>
<path d="M39.0126 198.762L131.238 198.917L131.001 216.123H38.7756L39.0126 198.762Z" fill="#39B8D4"/>
<path d="M135.414 95.4846H34.2649V122.741H135.414V95.4846Z" stroke="black" stroke-miterlimit="10"/>
<path d="M131.099 100.26H38.8165V117.916H131.099V100.26Z" stroke="black" stroke-miterlimit="10"/>
<path d="M50.1833 115.888C53.9878 115.888 57.072 112.802 57.072 108.994C57.072 105.187 53.9878 102.1 50.1833 102.1C46.3787 102.1 43.2946 105.187 43.2946 108.994C43.2946 112.802 46.3787 115.888 50.1833 115.888Z" stroke="black" stroke-miterlimit="10"/>
<path d="M66.0936 111.529C67.425 111.529 68.5043 110.449 68.5043 109.117C68.5043 107.785 67.425 106.705 66.0936 106.705C64.7623 106.705 63.683 107.785 63.683 109.117C63.683 110.449 64.7623 111.529 66.0936 111.529Z" stroke="black" stroke-miterlimit="10"/>
<path d="M66.0936 144.51C67.425 144.51 68.5043 143.43 68.5043 142.098C68.5043 140.766 67.425 139.686 66.0936 139.686C64.7623 139.686 63.683 140.766 63.683 142.098C63.683 143.43 64.7623 144.51 66.0936 144.51Z" stroke="black" stroke-miterlimit="10"/>
<path d="M45.313 146.857C46.5551 148.1 48.2793 148.877 50.1833 148.877C53.9832 148.877 57.0639 145.786 57.0639 141.983C57.0639 138.181 53.9832 135.09 50.1833 135.09C48.2793 135.09 46.5551 135.858 45.313 137.109M45.313 133.241H131.107V150.897H45.313M34.2649 128.466V155.73H135.414V128.466H34.2649Z" stroke="black" stroke-miterlimit="10"/>
<path d="M45.313 146.857C46.5551 148.1 48.2793 148.877 50.1833 148.877C53.9831 148.877 57.0639 145.786 57.0639 141.983C57.0639 138.181 53.9831 135.09 50.1833 135.09C48.2793 135.09 46.5551 135.858 45.313 137.11" stroke="black" stroke-miterlimit="10"/>
<path d="M45.313 150.897H38.8165V133.241H45.313" stroke="black" stroke-miterlimit="10"/>
<path d="M66.0936 144.51C67.425 144.51 68.5043 143.43 68.5043 142.098C68.5043 140.766 67.425 139.686 66.0936 139.686C64.7623 139.686 63.683 140.766 63.683 142.098C63.683 143.43 64.7623 144.51 66.0936 144.51Z" stroke="black" stroke-miterlimit="10"/>
<path d="M57.0638 141.983C57.0638 145.786 53.9831 148.877 50.1833 148.877C48.2793 148.877 46.5551 148.1 45.313 146.857C44.0627 145.606 43.2946 143.881 43.2946 141.983C43.2946 140.086 44.0627 138.353 45.313 137.11C46.5551 135.858 48.2793 135.09 50.1833 135.09C53.9831 135.09 57.0638 138.173 57.0638 141.983Z" stroke="black" stroke-miterlimit="10"/>
<path d="M66.0936 144.51C67.425 144.51 68.5043 143.43 68.5043 142.098C68.5043 140.766 67.425 139.686 66.0936 139.686C64.7623 139.686 63.683 140.766 63.683 142.098C63.683 143.43 64.7623 144.51 66.0936 144.51Z" stroke="black" stroke-miterlimit="10"/>
<path d="M135.414 161.177H34.2649V188.433H135.414V161.177Z" stroke="black" stroke-miterlimit="10"/>
<path d="M131.099 165.953H38.8165V183.608H131.099V165.953Z" stroke="black" stroke-miterlimit="10"/>
<path d="M50.1833 181.589C53.9878 181.589 57.072 178.502 57.072 174.695C57.072 170.887 53.9878 167.801 50.1833 167.801C46.3787 167.801 43.2946 170.887 43.2946 174.695C43.2946 178.502 46.3787 181.589 50.1833 181.589Z" stroke="black" stroke-miterlimit="10"/>
<path d="M66.0936 177.222C67.425 177.222 68.5043 176.142 68.5043 174.809C68.5043 173.477 67.425 172.397 66.0936 172.397C64.7623 172.397 63.683 173.477 63.683 174.809C63.683 176.142 64.7623 177.222 66.0936 177.222Z" stroke="black" stroke-miterlimit="10"/>
<path d="M135.414 193.888H34.2649V221.144H135.414V193.888Z" stroke="black" stroke-miterlimit="10"/>
<path d="M131.099 198.664H38.8165V216.32H131.099V198.664Z" stroke="black" stroke-miterlimit="10"/>
<path d="M50.1833 214.3C53.9878 214.3 57.072 211.213 57.072 207.406C57.072 203.598 53.9878 200.512 50.1833 200.512C46.3787 200.512 43.2946 203.598 43.2946 207.406C43.2946 211.213 46.3787 214.3 50.1833 214.3Z" stroke="black" stroke-miterlimit="10"/>
<path d="M66.0936 209.933C67.425 209.933 68.5043 208.853 68.5043 207.52C68.5043 206.188 67.425 205.108 66.0936 205.108C64.7623 205.108 63.683 206.188 63.683 207.52C63.683 208.853 64.7623 209.933 66.0936 209.933Z" stroke="black" stroke-miterlimit="10"/>
<path d="M105.007 137.494L127.626 137.698" stroke="black" stroke-miterlimit="10"/>
<path d="M105.007 145.753L127.626 145.966" stroke="black" stroke-miterlimit="10"/>
<path d="M104.852 171.293L127.471 171.497" stroke="black" stroke-miterlimit="10"/>
<path d="M104.852 179.56L127.471 179.765" stroke="black" stroke-miterlimit="10"/>
<path d="M105.007 204.314L127.626 204.519" stroke="black" stroke-miterlimit="10"/>
<path d="M105.007 212.582L127.626 212.787" stroke="black" stroke-miterlimit="10"/>
<path d="M184.653 79.9078L184.825 79.8342L192.008 76.5631L192.784 80.4557L192.629 86.2211L192.081 90.1137L190.684 93.6547L188.077 97.1629L182.864 92.3708L184.261 88.012L184.653 83.8004V79.9078Z" fill="#39B8D4"/>
<path d="M168.857 71.3785L169.012 61.099L163.055 62.1539L157.646 64.918L154.066 67.6003L150.88 72.0817L149.245 75.3529L148.077 79.4417L147.921 85.8286L149.319 91.5121L152.081 96.3779L156.167 100.393L160.718 103.427L164.771 104.793L167.844 105.3L172.624 105.218L177.691 103.934L181.54 102.184L182.316 101.44L175.819 94.1617L172.003 95.601H167.917L163.366 93.8101L160.293 91.0869L157.842 86.5319L157.605 81.0364L159.051 77.3809L161.266 74.576L165.082 72.1226L168.857 71.3785Z" fill="#39B8D4"/>
<path d="M169.83 108.882C184.073 108.882 195.619 97.3267 195.619 83.0727C195.619 68.8188 184.073 57.2637 169.83 57.2637C155.586 57.2637 144.04 68.8188 144.04 83.0727C144.04 97.3267 155.586 108.882 169.83 108.882Z" stroke="black" stroke-miterlimit="10"/>
<path d="M169.674 95.7974C176.381 95.7974 181.817 90.3567 181.817 83.6452C181.817 76.9338 176.381 71.493 169.674 71.493C162.968 71.493 157.531 76.9338 157.531 83.6452C157.531 90.3567 162.968 95.7974 169.674 95.7974Z" stroke="black" stroke-miterlimit="10"/>
<path d="M174.855 57.7871L172.159 71.5994" stroke="black" stroke-miterlimit="10"/>
<path d="M193.225 72.1227L180.771 78.4523" stroke="black" stroke-miterlimit="10"/>
<path d="M187.832 101.922L178.492 92.0601" stroke="black" stroke-miterlimit="10"/>
<path d="M168.735 71.3949L168.996 60.7393" stroke="black" stroke-miterlimit="10"/>
<path d="M175.893 94.2437L182.422 101.947" stroke="black" stroke-miterlimit="10"/>
<path d="M168.947 61.1481C157.221 61.6796 147.88 71.3703 147.88 83.2362C147.88 95.1022 157.776 105.357 169.985 105.357C174.512 105.357 178.72 103.991 182.226 101.653" stroke="black" stroke-miterlimit="10"/>
<path d="M184.506 79.8834L191.991 76.5305C191.991 76.5305 195.611 88.7563 188.142 97.2857L182.733 92.4935C182.733 92.4935 185.642 87.3497 184.506 79.8752V79.8834Z" stroke="black" stroke-miterlimit="10"/>
<path d="M232.31 99.1916L232.383 92.3386L263.1 92.1832L262.863 110.796L252.853 110.64L252.804 99.3224L232.31 99.1916Z" fill="#39B8D4"/>
<path d="M252.853 99.2651H213.833V123.251H252.853V99.2651Z" stroke="black" stroke-miterlimit="10"/>
<path d="M213.629 103.109L233.347 113.912L252.853 103.109" stroke="black" stroke-miterlimit="10"/>
<path d="M227.635 99.2733V87.6445H266.966V112.775H252.853" stroke="black" stroke-miterlimit="10"/>
<path d="M232.457 99.2734V92.2078H262.913V110.796H252.853" stroke="black" stroke-miterlimit="10"/>
</svg>
