<svg width="13" height="14" viewBox="0 0 13 14" fill="none" xmlns="http://www.w3.org/2000/svg">
<path d="M4.53057 5H3.16013C2.40406 5 2.02574 5 1.73696 5.14532C1.48294 5.27316 1.27657 5.47698 1.14714 5.72786C1 6.01308 1 6.38673 1 7.13346V10.8668C1 11.6135 1 11.9867 1.14714 12.2719C1.27657 12.5228 1.48294 12.727 1.73696 12.8548C2.02546 13 2.40334 13 3.15793 13H9.64209C10.3967 13 10.774 13 11.0625 12.8548C11.3165 12.727 11.5236 12.5228 11.653 12.2719C11.8 11.987 11.8 11.6143 11.8 10.8691V7.13127C11.8 6.386 11.8 6.0128 11.653 5.72786C11.5236 5.47698 11.3165 5.27316 11.0625 5.14532C10.7737 5 10.3962 5 9.64013 5H8.26903M4.53057 5H8.26903M4.53057 5C4.44454 5 4.375 4.93112 4.375 4.84615V3C4.375 1.89543 5.28162 1 6.4 1C7.51838 1 8.425 1.89543 8.425 3V4.84615C8.425 4.93112 8.35506 5 8.26903 5" stroke="black" stroke-opacity="0.55" stroke-width="0.5" stroke-linecap="round" stroke-linejoin="round"/>
<circle cx="6.35" cy="9.35" r="1.35" fill="black" fill-opacity="0.55"/>
</svg>
