<svg width="38" height="38" viewBox="0 0 38 38" fill="none" xmlns="http://www.w3.org/2000/svg">
<path d="M18.7688 0.375C28.9274 0.375 37.1625 8.61017 37.1625 18.7688C37.1625 28.9274 28.9274 37.1625 18.7688 37.1625C8.61017 37.1625 0.375 28.9274 0.375 18.7688C0.375 8.61017 8.61017 0.375 18.7688 0.375Z" stroke="#404765" stroke-opacity="0.7" stroke-width="0.75"/>
<path d="M28.5049 17.4589L28.404 17.0308H19.0987V20.9692H24.6585C24.0813 23.7103 21.4027 25.1531 19.2147 25.1531C17.6228 25.1531 15.9446 24.4835 14.8339 23.4071C14.2479 22.8302 13.7815 22.1433 13.4612 21.3859C13.141 20.6284 12.9734 19.8152 12.9679 18.9929C12.9679 17.3339 13.7134 15.6746 14.7982 14.583C15.883 13.4915 17.5214 12.8808 19.1504 12.8808C21.0161 12.8808 22.3531 13.8714 22.8531 14.3232L25.6518 11.5393C24.8308 10.8179 22.5754 9 19.0603 9C16.3482 9 13.7478 10.0388 11.8469 11.9335C9.97098 13.7991 9 16.4969 9 19C9 21.5031 9.91875 24.0661 11.7366 25.9464C13.679 27.9518 16.4299 29 19.2625 29C21.8397 29 24.2826 27.9902 26.0237 26.158C27.7353 24.3545 28.6205 21.8589 28.6205 19.2429C28.6205 18.1415 28.5098 17.4875 28.5049 17.4589Z" fill="#404765"/>
</svg>
