<svg width="300" height="300" viewBox="0 0 300 300" fill="none" xmlns="http://www.w3.org/2000/svg">
<rect width="300" height="300" fill="#F9FBFE"/>
<path d="M166.711 205.687L166.317 209.122L166.548 213.558L167.419 216.83L168.78 220.394L171.278 224.51L174.715 228.17L179.377 231.211L183.752 232.864L189.231 233.905L192.504 233.707L198.405 232.544L204.142 229.721L209.226 225.156L212.275 220.197L214.316 214.626L214.867 210.544L214.799 208.537L209.355 210.354L201.971 211.326L196.785 211.292L186.25 208.476L180.676 206.721L174.973 205.721L166.711 205.687Z" fill="#FCBF49"/>
<path d="M106.421 203.354L107.265 201.279C107.265 201.279 109.728 199.619 109.79 199.531C109.851 199.442 110.504 198.041 110.504 198.041L110.334 195.707L108.626 193.939L110.613 194.544L112.75 196.599L114.458 198.803L115.193 202.537L114.826 205.279L113.614 207.286L112.403 208.449L110.742 208.667L108.885 208.34L107.591 207.306L106.489 205.469L106.421 203.354Z" fill="#FCBF49"/>
<path d="M83.7788 183.694L93.5311 165L98.9416 164.388L105.523 164.973L111.423 166.687L116.153 167.721C116.153 167.721 120.658 168.109 120.495 168.109C120.331 168.109 123.122 167.884 123.122 167.884L127.43 166.619L136.501 183.626L136.277 184.238L83.9693 184.497L83.772 183.687L83.7788 183.694Z" fill="#FCBF49"/>
<path d="M185.365 151.911L195.819 152.041L195.519 160.51L185.318 160.463L185.365 151.911Z" fill="#FCBF49"/>
<path d="M183.16 141.116H197.636V147.292L183.119 147.252L183.16 141.116Z" fill="#FCBF49"/>
<path d="M102.875 112.435V106.517L117.18 106.565L117.31 112.435H102.875Z" fill="#FCBF49"/>
<path d="M104.951 117.578L115.193 117.531L115.105 122.109L104.862 122.197L104.951 117.578Z" fill="#FCBF49"/>
<path d="M141.851 237.823L141.885 234.878L143.409 232.571L145.485 231.605L155.788 231.571L158.15 232.286L159.545 234L159.967 236.204L159.872 237.986L141.851 237.823Z" fill="#FCBF49"/>
<path d="M145.805 125.122L148.105 123.374L151.12 122.857L154.135 123.605L156.306 125.483L157.667 127.816L157.925 131.184L156.496 134.197L154.325 136.109C154.325 136.109 152.154 136.952 151.991 136.952C151.827 136.952 148.261 136.435 148.261 136.435L146.22 135.333L144.341 133L143.858 129.796L144.341 126.816L145.798 125.129L145.805 125.122Z" fill="#FCBF49"/>
<path d="M154.23 136.129V231.605H147.424V136.061" stroke="black" stroke-miterlimit="10"/>
<path d="M147.424 123.803V113.755H154.23V123.735" stroke="black" stroke-miterlimit="10"/>
<path d="M146.322 231.605H155.652C157.98 231.605 159.865 233.49 159.865 235.816V237.891H141.782V236.143C141.782 233.639 143.817 231.605 146.322 231.605Z" stroke="black" stroke-miterlimit="10"/>
<path d="M150.881 136.973C154.772 136.973 157.925 133.82 157.925 129.932C157.925 126.043 154.772 122.891 150.881 122.891C146.991 122.891 143.838 126.043 143.838 129.932C143.838 133.82 146.991 136.973 150.881 136.973Z" stroke="black" stroke-miterlimit="10"/>
<path d="M144.695 126.558H121.584V133.517H144.818" stroke="black" stroke-miterlimit="10"/>
<path d="M121.543 122.197H98.2542V137.66H121.543V122.197Z" stroke="black" stroke-miterlimit="10"/>
<path d="M117.31 106.564H102.875V112.524H117.31V106.564Z" stroke="black" stroke-miterlimit="10"/>
<path d="M118.535 112.612H101.255C99.906 112.612 98.8121 113.704 98.8121 115.051C98.8121 116.398 99.906 117.49 101.255 117.49H118.535C119.884 117.49 120.978 116.398 120.978 115.051C120.978 113.704 119.884 112.612 118.535 112.612Z" stroke="black" stroke-miterlimit="10"/>
<path d="M101.732 117.49V122.143H104.91H115.146H118.487V117.49" stroke="black" stroke-miterlimit="10"/>
<path d="M115.152 117.544H104.91V122.143H115.152V117.544Z" stroke="black" stroke-miterlimit="10"/>
<path d="M101.711 137.605L101.725 141.17L80.022 182.116C78.4295 185.116 80.6209 188.728 84.0169 188.714L135.984 188.469C139.36 188.456 141.517 184.857 139.931 181.871L118.412 141.313L118.433 137.687" stroke="black" stroke-miterlimit="10"/>
<path d="M127.334 166.558C124.871 167.789 119.168 169.313 110.157 166.231C101.147 163.15 93.4698 165.068 93.4698 165.068L83.7651 183.728C83.595 184.054 83.8332 184.442 84.2007 184.442L135.998 184.381C136.365 184.381 136.597 183.986 136.426 183.667L127.341 166.564L127.334 166.558Z" stroke="black" stroke-miterlimit="10"/>
<path d="M116.622 146.231L123.217 159.299" stroke="black" stroke-miterlimit="10"/>
<path d="M121.264 218.775H100.003C94.7411 218.775 90.4753 223.039 90.4753 228.299C90.4753 233.559 94.7411 237.823 100.003 237.823H121.264C126.526 237.823 130.791 233.559 130.791 228.299C130.791 223.039 126.526 218.775 121.264 218.775Z" stroke="black" stroke-miterlimit="10"/>
<path d="M102.834 218.775C102.895 214.537 106.353 211.129 110.613 211.129C114.873 211.129 118.33 214.537 118.392 218.775" stroke="black" stroke-miterlimit="10"/>
<path d="M110.354 198.775C110.007 199.986 105.645 201.068 106.339 204.476C107.033 207.884 109.667 208.755 110.749 208.667C111.831 208.578 115.547 207.762 115.03 201.585C114.513 195.408 107.598 193.292 107.598 193.292C107.598 193.292 111.402 195.143 110.361 198.775H110.354Z" stroke="black" stroke-miterlimit="10"/>
<path d="M130.792 228.299L110.593 228.388" stroke="black" stroke-miterlimit="10"/>
<path d="M219.366 237.993H82.4789V244.646H219.366V237.993Z" stroke="black" stroke-miterlimit="10"/>
<path d="M182.493 182.374C170.59 185.796 161.879 196.769 161.879 209.769C161.879 224.143 172.523 236.034 186.359 237.993" stroke="black" stroke-miterlimit="10"/>
<path d="M198.371 182.394C210.24 185.843 218.917 196.789 218.917 209.769C218.917 224.143 208.273 236.034 194.437 237.993" stroke="black" stroke-miterlimit="10"/>
<path d="M182.493 182.374V152.041H198.371V182.394" stroke="black" stroke-miterlimit="10"/>
<path d="M198.97 147.279H182.18C180.865 147.279 179.798 148.345 179.798 149.66C179.798 150.975 180.865 152.041 182.18 152.041H198.97C200.285 152.041 201.352 150.975 201.352 149.66C201.352 148.345 200.285 147.279 198.97 147.279Z" stroke="black" stroke-miterlimit="10"/>
<path d="M183.106 147.279V141.095H197.656V147.279" stroke="black" stroke-miterlimit="10"/>
<path d="M187.829 141.027L187.652 117.17C187.625 113.891 185.474 111 182.33 110.041L116.649 90C114.689 89.4014 112.709 90.8571 112.695 92.9048L112.593 106.469" stroke="black" stroke-miterlimit="10"/>
<path d="M193.226 141.027L193.164 117.959C193.151 111.857 189.135 106.483 183.29 104.728L117.963 85.1291C112.655 83.5373 107.319 87.5101 107.319 93.0475V106.558" stroke="black" stroke-miterlimit="10"/>
<path d="M195.648 152.061H185.345V160.517H195.648V152.061Z" stroke="black" stroke-miterlimit="10"/>
<path d="M214.731 208.347C214.752 208.755 214.765 209.163 214.765 209.578C214.765 222.959 203.917 233.803 190.531 233.803C177.144 233.803 166.289 222.959 166.289 209.578C166.289 208.122 166.419 206.694 166.664 205.306" stroke="black" stroke-miterlimit="10"/>
<path d="M166.357 205.585C169.168 205.51 176.756 205.272 183.045 207.469C191.014 210.258 196.458 211.292 199.99 211.422C203.155 211.537 210.6 210.53 214.582 208.653" stroke="black" stroke-miterlimit="10"/>
<path d="M55.002 108.143C59.7265 108.143 63.5566 104.314 63.5566 99.5918C63.5566 94.8692 59.7265 91.0408 55.002 91.0408C50.2774 91.0408 46.4474 94.8692 46.4474 99.5918C46.4474 104.314 50.2774 108.143 55.002 108.143Z" fill="#FCBF49"/>
<path d="M38.7979 80.5918C41.4477 80.5918 43.5958 78.4446 43.5958 75.7959C43.5958 73.1472 41.4477 71 38.7979 71C36.1481 71 34 73.1472 34 75.7959C34 78.4446 36.1481 80.5918 38.7979 80.5918Z" fill="#FCBF49"/>
<path d="M41.908 131.905C44.5578 131.905 46.7059 129.758 46.7059 127.109C46.7059 124.46 44.5578 122.313 41.908 122.313C39.2582 122.313 37.1101 124.46 37.1101 127.109C37.1101 129.758 39.2582 131.905 41.908 131.905Z" fill="#FCBF49"/>
<path d="M84.7762 104.259C87.426 104.259 89.5741 102.111 89.5741 99.4627C89.5741 96.814 87.426 94.6667 84.7762 94.6667C82.1264 94.6667 79.9783 96.814 79.9783 99.4627C79.9783 102.111 82.1264 104.259 84.7762 104.259Z" fill="#FCBF49"/>
<path d="M55.002 108.143C59.7265 108.143 63.5566 104.314 63.5566 99.5918C63.5566 94.8692 59.7265 91.0408 55.002 91.0408C50.2774 91.0408 46.4474 94.8692 46.4474 99.5918C46.4474 104.314 50.2774 108.143 55.002 108.143Z" stroke="black" stroke-miterlimit="10"/>
<path d="M38.7979 80.5918C41.4477 80.5918 43.5958 78.4446 43.5958 75.7959C43.5958 73.1472 41.4477 71 38.7979 71C36.1481 71 34 73.1472 34 75.7959C34 78.4446 36.1481 80.5918 38.7979 80.5918Z" stroke="black" stroke-miterlimit="10"/>
<path d="M41.908 131.905C44.5578 131.905 46.7059 129.758 46.7059 127.109C46.7059 124.46 44.5578 122.313 41.908 122.313C39.2582 122.313 37.1101 124.46 37.1101 127.109C37.1101 129.758 39.2582 131.905 41.908 131.905Z" stroke="black" stroke-miterlimit="10"/>
<path d="M84.7762 104.259C87.426 104.259 89.5741 102.111 89.5741 99.4627C89.5741 96.814 87.426 94.6667 84.7762 94.6667C82.1264 94.6667 79.9783 96.814 79.9783 99.4627C79.9783 102.111 82.1264 104.259 84.7762 104.259Z" stroke="black" stroke-miterlimit="10"/>
<path d="M63.5565 99.5919L79.9783 99.4626" stroke="black" stroke-miterlimit="10"/>
<path d="M51.1568 107.279L44.2423 122.83" stroke="black" stroke-miterlimit="10"/>
<path d="M50.4694 92.2518L41.4385 79.7212" stroke="black" stroke-miterlimit="10"/>
<path d="M244.274 109.878L233.528 116.184L222.694 110.027L222.605 97.5715L233.351 91.2722L244.186 97.4219L244.274 109.878Z" stroke="black" stroke-miterlimit="10"/>
<path d="M256.933 132.51L246.187 138.816L235.352 132.66L235.264 120.204L246.016 113.905L256.851 120.055L256.933 132.51Z" stroke="black" stroke-miterlimit="10"/>
<path d="M231.453 132.51L220.707 138.816L209.872 132.66L209.784 120.204L220.53 113.905L231.364 120.055L231.453 132.51Z" stroke="black" stroke-miterlimit="10"/>
<path d="M254.34 122.367L254.374 130.143" stroke="black" stroke-miterlimit="10"/>
<path d="M225.498 132.218L220.829 135.163L216.065 132.313" stroke="black" stroke-miterlimit="10"/>
</svg>
