<svg width="300" height="300" viewBox="0 0 300 300" fill="none" xmlns="http://www.w3.org/2000/svg">
<rect width="300" height="300" fill="#F9FBFE"/>
<path d="M50.9199 125.29L34.0199 187.1L28.9199 187.29L46.0599 125.43L50.9199 125.29Z" fill="#79B2D9"/>
<path d="M60.1599 125.38L64.9199 125.24L82.2999 187.24L77.1099 187.38L60.1599 125.38Z" fill="#79B2D9"/>
<path d="M52.73 93.48L54.64 92L56.54 92.15L58.02 93.62L58.35 95L58.4 107.67L57.54 109.48L55.87 110.05H53.97L52.59 108.57L52.02 106.86L52.21 94.34L52.73 93.48Z" fill="#79B2D9"/>
<path d="M33.9999 187.27L28.9199 187.34L46.2199 125.37L51.1099 125.4L33.9999 187.27Z" stroke="black" stroke-miterlimit="10"/>
<path d="M28.92 187.34L24 203.78" stroke="black" stroke-miterlimit="10"/>
<path d="M77.2399 187.27L82.3199 187.34L65.0199 125.37L60.1299 125.4L77.2399 187.27Z" stroke="black" stroke-miterlimit="10"/>
<path d="M82.3201 187.34L87.2401 203.78" stroke="black" stroke-miterlimit="10"/>
<path d="M55.4301 141.33C57.5509 141.33 59.2701 139.611 59.2701 137.49C59.2701 135.369 57.5509 133.65 55.4301 133.65C53.3093 133.65 51.5901 135.369 51.5901 137.49C51.5901 139.611 53.3093 141.33 55.4301 141.33Z" stroke="black" stroke-miterlimit="10"/>
<path d="M57.8099 147.65C57.8099 146.159 56.6011 144.95 55.1099 144.95C53.6188 144.95 52.4099 146.159 52.4099 147.65V152.73C52.4099 154.221 53.6188 155.43 55.1099 155.43C56.6011 155.43 57.8099 154.221 57.8099 152.73V147.65Z" stroke="black" stroke-miterlimit="10"/>
<path d="M57.8101 149.69L66.8501 149.74H66.8601" stroke="black" stroke-miterlimit="10"/>
<path d="M76.3101 149.78L71.8201 149.76" stroke="black" stroke-miterlimit="10"/>
<path d="M39.4499 149.61L35.1399 149.59" stroke="black" stroke-miterlimit="10"/>
<path d="M52.4099 149.67L44.4099 149.63" stroke="black" stroke-miterlimit="10"/>
<path d="M58.38 95.1501C58.38 93.449 57.001 92.0701 55.3 92.0701C53.599 92.0701 52.22 93.449 52.22 95.1501V107.21C52.22 108.911 53.599 110.29 55.3 110.29C57.001 110.29 58.38 108.911 58.38 107.21V95.1501Z" stroke="black" stroke-miterlimit="10"/>
<path d="M55.3 110.29L55.4301 133.65" stroke="black" stroke-miterlimit="10"/>
<path d="M63.08 136.09C61.87 136.65 60.59 137.07 59.26 137.34" stroke="black" stroke-miterlimit="10"/>
<path d="M51.5899 137.27C50.3899 137.01 49.2399 136.62 48.1499 136.12" stroke="black" stroke-miterlimit="10"/>
<path d="M58.3799 101.74C67.0499 103.08 73.6799 110.58 73.6799 119.62C73.6799 125.16 71.1899 130.12 67.2599 133.44" stroke="black" stroke-miterlimit="10"/>
<path d="M43.95 133.49C40 130.16 37.49 125.18 37.49 119.62C37.49 110.78 43.84 103.41 52.22 101.84" stroke="black" stroke-miterlimit="10"/>
<path d="M145.79 126.41L146.75 123.43L149.41 120.83L153.41 119.94L156.52 120.7L159 122.54L160.59 125.14L160.84 126.67L145.79 126.41Z" fill="#79B2D9"/>
<path d="M104.72 126.51C104.72 99.9499 126.25 78.4099 152.81 78.4099C179.37 78.4099 200.91 99.9499 200.91 126.51" stroke="black" stroke-miterlimit="10"/>
<path d="M104.71 126.51H200.9" stroke="black" stroke-miterlimit="10"/>
<path d="M145.8 126.51C146.26 122.76 149.45 119.87 153.32 119.87C157.19 119.87 160.38 122.76 160.84 126.51" stroke="black" stroke-miterlimit="10"/>
<path d="M111.4 111.14L117.46 112.8" stroke="#79B2D9" stroke-miterlimit="10"/>
<path d="M117.25 99.2798L122.54 102.65" stroke="#79B2D9" stroke-miterlimit="10"/>
<path d="M127.18 89.3899L131.27 94.1499" stroke="#79B2D9" stroke-miterlimit="10"/>
<path d="M127.18 89.3899L131.27 94.1499" stroke="#79B2D9" stroke-miterlimit="10"/>
<path d="M140.03 83.1499L141.56 89.2399" stroke="#79B2D9" stroke-miterlimit="10"/>
<path d="M140.03 83.1499L141.56 89.2399" stroke="#79B2D9" stroke-miterlimit="10"/>
<path d="M152.37 81.25L152.46 87.53" stroke="#79B2D9" stroke-miterlimit="10"/>
<path d="M152.37 81.25L152.46 87.53" stroke="#79B2D9" stroke-miterlimit="10"/>
<path d="M108.24 124.88L114.52 124.96" stroke="#79B2D9" stroke-miterlimit="10"/>
<path d="M195.23 111.14L189.18 112.8" stroke="#79B2D9" stroke-miterlimit="10"/>
<path d="M189.39 99.2798L184.09 102.65" stroke="#79B2D9" stroke-miterlimit="10"/>
<path d="M179.46 89.3899L175.36 94.1499" stroke="#79B2D9" stroke-miterlimit="10"/>
<path d="M179.46 89.3899L175.36 94.1499" stroke="#79B2D9" stroke-miterlimit="10"/>
<path d="M166.61 83.1499L165.07 89.2399" stroke="#79B2D9" stroke-miterlimit="10"/>
<path d="M166.61 83.1499L165.07 89.2399" stroke="#79B2D9" stroke-miterlimit="10"/>
<path d="M198.39 124.88L192.11 124.96" stroke="#79B2D9" stroke-miterlimit="10"/>
<path d="M260.81 121.05L245.81 142.09L264.43 157L266.95 153.38L269.48 148.09L270.48 141.9L270.09 135.76L267.76 129.33L264.19 124.09L260.81 121.05Z" fill="#79B2D9"/>
<path d="M245.71 165.42C259.357 165.42 270.42 154.357 270.42 140.71C270.42 127.063 259.357 116 245.71 116C232.063 116 221 127.063 221 140.71C221 154.357 232.063 165.42 245.71 165.42Z" stroke="black" stroke-miterlimit="10"/>
<path d="M245.71 116L245.76 142.19L264.43 157.05" stroke="black" stroke-miterlimit="10"/>
<path d="M245.76 142.19L260.81 121.05" stroke="black" stroke-miterlimit="10"/>
<path d="M231.54 125.46C231.54 125.46 220.4 134.78 227 149" stroke="black" stroke-width="0.7" stroke-miterlimit="10"/>
<path d="M229.48 153.09C229.48 153.09 230.77 155.61 233.67 157.33" stroke="black" stroke-width="0.7" stroke-miterlimit="10"/>
<path d="M103.57 222.57H204.81C212.48 222.57 218.71 228.8 218.71 236.47H89.6599C89.6599 228.8 95.8899 222.57 103.56 222.57H103.57Z" fill="#79B2D9"/>
<path d="M115.95 163.11L118.81 161.21L123.51 161.71L126.3 164.32L127.63 167.17L127.25 170.73L125.79 172.76L123.83 174.03L119.51 174.98L116.02 173.08L113.41 168.25L114.17 165.08L115.95 163.11Z" fill="#79B2D9"/>
<path d="M141.54 163.87L144.08 161.71L148.14 160.76L151.44 162.41L153.54 165.9L154.43 168.44L152.84 172.38L149.92 174.22L146.24 174.79L142.49 173.08L140.71 169.71L140.4 166.29L141.54 163.87Z" fill="#79B2D9"/>
<path d="M128.52 182.41L130.37 180.76L134.05 179.87L137.48 180.7L139.57 182.35L140.97 184.76L141.1 187.94L140.08 190.48L138.17 192.06L135.13 193.59L132.27 193.21L130.43 192.51L128.9 191.37L127.63 189.02L127.06 186.41L128.52 182.41Z" fill="#79B2D9"/>
<path d="M155.06 182.48L158.11 180L161.54 179.87C161.54 179.87 163.44 180.31 163.64 180.38C163.84 180.45 165.61 181.9 165.67 182.09C165.73 182.28 166.62 183.49 166.62 183.49L167.7 184.63L169.6 181.52L171.89 180.25L174.87 179.81L177.41 180.25C177.41 180.25 179 181.52 179.12 181.84C179.24 182.16 180.39 183.49 180.39 183.49L180.71 184.7L182.04 182.73L184.9 180.19L189.03 179.75L191.57 180.77C191.89 180.9 193.98 183.44 193.98 183.44C193.98 183.44 194.3 185.41 194.49 185.66C194.68 185.91 194.81 187.18 194.81 187.18L193.67 190.23L192.21 192.2L190.56 193.22L188.66 193.79H186.31L183.26 191.89L180.97 189.16L179.83 190.94L178.43 192.21L175.89 193.48L172.27 193.54L170.68 192.33L168.58 191.19L167.44 188.9L166.68 190.42L165.41 192.13L163.44 193.15L160.58 193.47L158.17 193.03L155.76 191.63L153.92 188.33L153.79 185.41L155.06 182.49V182.48Z" fill="#79B2D9"/>
<path d="M112.84 205.71L113.22 203.3L115.25 201.02L118.17 199.37L121.41 199.68L124.52 200.83L126.11 203.37L126.75 204.89L128.27 201.84L130.43 200.32L134.05 199.11L137.54 200.32L139.25 202.29L140.46 204.7L140.59 207.43L139.95 209.46L138.56 211.3L136.52 212.57L134.17 213.27L130.94 212.83L128.71 211.05L126.87 208.06L125.98 208.89L125.03 211.11L122.75 212.63L119.83 213.33L116.71 212.76L113.67 209.9L112.84 207.24V205.71Z" fill="#79B2D9"/>
<path d="M167.51 205.14L168.27 202.47L170.49 200.5L173.28 199.61L176.84 199.67L179.51 201.64L180.78 203.74L181.54 205.33L181.92 203.11L183.95 200.95L186.3 199.62L190.05 199.49L192.27 200.89L194.17 202.54L194.68 204.13L195.31 206.16L194.74 208.7L193.72 210.6L192.51 211.93L189.34 213.2L186.04 213.14L182.99 210.92L181.34 207.55L180.39 209.71L178.87 211.87L176.71 212.57L173.47 213.08C173.47 213.08 171.18 212.57 170.99 212.51C170.8 212.45 168.26 209.91 168.26 209.91L167.63 207.37L167.5 205.15L167.51 205.14Z" fill="#79B2D9"/>
<path d="M103.57 222.57H204.81C212.48 222.57 218.71 228.8 218.71 236.47H89.6599C89.6599 228.8 95.8899 222.57 103.56 222.57H103.57Z" stroke="black" stroke-miterlimit="10"/>
<path d="M110.62 156.29H102.43V222.48H110.62V156.29Z" stroke="black" stroke-miterlimit="10"/>
<path d="M205.88 156.29H197.69V222.48H205.88V156.29Z" stroke="black" stroke-miterlimit="10"/>
<path d="M197.69 206.28H195.18" stroke="black" stroke-miterlimit="10"/>
<path d="M209.39 206.29H205.89" stroke="black" stroke-miterlimit="10"/>
<path d="M167.4 206.25L140.57 206.23" stroke="black" stroke-miterlimit="10"/>
<path d="M112.92 206.2H110.62" stroke="black" stroke-miterlimit="10"/>
<path d="M102.43 206.19H99" stroke="black" stroke-miterlimit="10"/>
<path d="M126.81 206.22H126.68" stroke="black" stroke-miterlimit="10"/>
<path d="M181.4 206.26H181.18" stroke="black" stroke-miterlimit="10"/>
<path d="M153.9 186.73L141.16 186.72" stroke="black" stroke-miterlimit="10"/>
<path d="M181.18 186.75H180.9" stroke="black" stroke-miterlimit="10"/>
<path d="M209.39 186.78H205.89" stroke="black" stroke-miterlimit="10"/>
<path d="M197.69 186.77H194.68" stroke="black" stroke-miterlimit="10"/>
<path d="M167.68 186.74H167.4" stroke="black" stroke-miterlimit="10"/>
<path d="M102.43 186.68H99" stroke="black" stroke-miterlimit="10"/>
<path d="M127.39 186.71L110.62 186.69" stroke="black" stroke-miterlimit="10"/>
<path d="M140.4 167.92L127.51 167.91" stroke="black" stroke-miterlimit="10"/>
<path d="M209.39 167.98H205.89" stroke="black" stroke-miterlimit="10"/>
<path d="M197.69 167.97L154.18 167.93" stroke="black" stroke-miterlimit="10"/>
<path d="M102.43 167.88H99" stroke="black" stroke-miterlimit="10"/>
<path d="M113.73 167.89H110.62" stroke="black" stroke-miterlimit="10"/>
<path d="M120.62 174.86C124.425 174.86 127.51 171.775 127.51 167.97C127.51 164.165 124.425 161.08 120.62 161.08C116.815 161.08 113.73 164.165 113.73 167.97C113.73 171.775 116.815 174.86 120.62 174.86Z" stroke="black" stroke-miterlimit="10"/>
<path d="M147.29 174.86C151.095 174.86 154.18 171.775 154.18 167.97C154.18 164.165 151.095 161.08 147.29 161.08C143.485 161.08 140.4 164.165 140.4 167.97C140.4 171.775 143.485 174.86 147.29 174.86Z" stroke="black" stroke-miterlimit="10"/>
<path d="M134.27 193.59C138.075 193.59 141.16 190.505 141.16 186.7C141.16 182.895 138.075 179.81 134.27 179.81C130.465 179.81 127.38 182.895 127.38 186.7C127.38 190.505 130.465 193.59 134.27 193.59Z" stroke="black" stroke-miterlimit="10"/>
<path d="M160.79 193.59C164.595 193.59 167.68 190.505 167.68 186.7C167.68 182.895 164.595 179.81 160.79 179.81C156.985 179.81 153.9 182.895 153.9 186.7C153.9 190.505 156.985 193.59 160.79 193.59Z" stroke="black" stroke-miterlimit="10"/>
<path d="M174.29 193.59C178.095 193.59 181.18 190.505 181.18 186.7C181.18 182.895 178.095 179.81 174.29 179.81C170.485 179.81 167.4 182.895 167.4 186.7C167.4 190.505 170.485 193.59 174.29 193.59Z" stroke="black" stroke-miterlimit="10"/>
<path d="M187.79 193.59C191.595 193.59 194.68 190.505 194.68 186.7C194.68 182.895 191.595 179.81 187.79 179.81C183.985 179.81 180.9 182.895 180.9 186.7C180.9 190.505 183.985 193.59 187.79 193.59Z" stroke="black" stroke-miterlimit="10"/>
<path d="M119.79 213.21C123.595 213.21 126.68 210.125 126.68 206.32C126.68 202.515 123.595 199.43 119.79 199.43C115.985 199.43 112.9 202.515 112.9 206.32C112.9 210.125 115.985 213.21 119.79 213.21Z" stroke="black" stroke-miterlimit="10"/>
<path d="M133.69 213.21C137.495 213.21 140.58 210.125 140.58 206.32C140.58 202.515 137.495 199.43 133.69 199.43C129.885 199.43 126.8 202.515 126.8 206.32C126.8 210.125 129.885 213.21 133.69 213.21Z" stroke="black" stroke-miterlimit="10"/>
<path d="M174.29 213.21C178.095 213.21 181.18 210.125 181.18 206.32C181.18 202.515 178.095 199.43 174.29 199.43C170.485 199.43 167.4 202.515 167.4 206.32C167.4 210.125 170.485 213.21 174.29 213.21Z" stroke="black" stroke-miterlimit="10"/>
<path d="M188.29 213.21C192.095 213.21 195.18 210.125 195.18 206.32C195.18 202.515 192.095 199.43 188.29 199.43C184.485 199.43 181.4 202.515 181.4 206.32C181.4 210.125 184.485 213.21 188.29 213.21Z" stroke="black" stroke-miterlimit="10"/>
</svg>
