<svg width="300" height="300" viewBox="0 0 300 300" fill="none" xmlns="http://www.w3.org/2000/svg">
<rect width="300" height="300" fill="#F9FBFE"/>
<path d="M179.173 128.096V126.124" stroke="#E78895" stroke-width="2" stroke-linecap="round" stroke-linejoin="round"/>
<path d="M179.183 122.327L179.262 71.0198" stroke="#E78895" stroke-width="2" stroke-linecap="round" stroke-linejoin="round" stroke-dasharray="4 4"/>
<path d="M179.262 69.1264L179.272 67.1542" stroke="#E78895" stroke-width="2" stroke-linecap="round" stroke-linejoin="round"/>
<path d="M179.311 91.235L250.173 91.3336" stroke="#E78895" stroke-width="2" stroke-linecap="round" stroke-linejoin="round" stroke-dasharray="4 4"/>
<path d="M165.131 168.526L165.151 183.259L235.086 183.387L235.214 195.723" stroke="#E78895" stroke-width="2" stroke-linecap="round" stroke-linejoin="round" stroke-dasharray="4 4"/>
<path d="M130.765 167.402L130.804 189.895L71.1743 189.846" stroke="#E78895" stroke-width="2" stroke-linecap="round" stroke-linejoin="round" stroke-dasharray="4 4"/>
<path d="M109.485 191.848L109.514 212.339" stroke="#E78895" stroke-width="2" stroke-linecap="round" stroke-linejoin="round" stroke-dasharray="4 4"/>
<path d="M151.187 110.819L151.217 103.147L65.0012 103.177V92.6649" stroke="#E78895" stroke-width="2" stroke-linecap="round" stroke-linejoin="round" stroke-dasharray="4 4"/>
<path d="M179.864 166.673L115.125 166.86L109.554 165.42L105.047 162.541L101.793 156.654L101.349 152.206L102.099 147.138L105.106 142.69L110.244 138.874L114.12 137.622L117.374 133.608L122.639 130.67L128.773 130.039L130.459 130.354L131.653 124.723L135.597 118.767L140.419 114.705L146.553 111.825L152.755 111.322L159.135 112.703L163.839 115.395L167.399 118.393L170.407 122.84L171.915 126.844L172.349 129.043L176.481 128.411L182.556 129.348L187.565 132.238L191.943 136.113L193.886 139.811L195.395 146.566L195.01 152.019L193.827 155.963L191.697 159.03L188.314 162.728L184.557 165.045L181.865 166.17L179.864 166.673Z" fill="#E78895"/>
<path d="M244.947 79.3919L246.82 78.2283L248.704 78.7608L249.798 80.1413L248.99 81.6402L247.54 82.932L245.637 81.8966L244.947 79.3919Z" fill="#E78895"/>
<path d="M254.966 78.7017L256.435 77.9818L257.973 78.3861L258.881 79.6385L258.723 80.7922C258.723 80.7922 258.131 82.1728 258.131 82.2615C258.131 82.3503 256.06 82.8236 256.06 82.8236L254.404 81.1965L254.966 78.6918V78.7017Z" fill="#E78895"/>
<path d="M263.92 78.9185L265.389 78.0409L266.671 78.0705L267.795 78.9876L268.209 80.1413L268.14 81.3345L267.233 82.5178L265.488 82.7742L264.196 81.8966L263.515 80.2399L263.92 78.9185Z" fill="#E78895"/>
<path d="M102.099 221.579L106.734 218.7L111.427 218.887C111.427 218.887 114.682 220.761 114.869 220.83C115.056 220.899 116.94 224.212 116.94 224.212L117.068 228.403L115.628 232.16L112.374 234.852L107.868 235.414L102.858 233.225L100.482 228.906L100.728 224.271L102.109 221.579H102.099Z" fill="#E78895"/>
<path d="M47.626 197.41L59.7749 197.35L62.1515 197.163L64.3505 195.349L65.2281 192.085L63.9067 189.205L62.9108 188.328L62.2205 185.073L60.2778 181.878L55.4558 180.005L52.389 180.379L49.9434 182.194L47.5669 185.33L44.6874 186.395L42.6856 188.022L42.1235 191.089L42.1827 193.465L44.1845 196.157L46.068 197.281L47.626 197.41Z" fill="#E78895"/>
<path d="M47.8824 232.032L58.779 231.904L57.9013 233.284L55.6431 235.04L53.1384 235.543L49.8251 234.793L47.8824 232.032Z" fill="#E78895"/>
<path d="M60.7118 58.792L63.4729 55.1631L67.5455 54.0981L71.7957 55.7844L73.8665 59.9162L74.3004 61.6715L76.3022 64.7383L75.2372 68.1798L73.4227 69.8759L59.5876 69.6195L56.5208 68.0615L55.2684 64.9848L55.8995 61.6715L57.714 59.295L60.7118 58.792Z" fill="#E78895"/>
<path d="M208.244 259.022L208.993 256.064L211.39 253.717L260.744 253.805L263.18 255.64L264.354 259.16L208.244 259.022Z" fill="#E78895"/>
<path d="M130.627 130.482C131.633 119.803 140.626 111.45 151.562 111.45C162.498 111.45 170.752 119.132 172.33 129.171" stroke="black" stroke-miterlimit="10"/>
<path d="M171.915 129.161C171.915 129.161 187.072 124.97 194.014 140.432C194.014 140.432 199.398 152.64 189.005 161.969C189.005 161.969 183.808 166.534 179.548 166.663C175.288 166.791 114.179 166.791 114.179 166.791C114.179 166.791 103.469 166.288 101.152 153.459C101.152 153.459 100.59 146.073 105.718 141.813C105.718 141.813 110.353 137.74 114.356 137.809C114.356 137.809 118.892 128.293 131.041 130.61" stroke="black" stroke-miterlimit="10"/>
<path d="M136.603 134.052L146.119 133.924" stroke="black" stroke-miterlimit="10"/>
<path d="M146.493 139.436L177.3 139.367" stroke="black" stroke-miterlimit="10"/>
<path d="M121.821 145.067L143.358 145.008" stroke="black" stroke-miterlimit="10"/>
<path d="M142.796 150.451H154.442" stroke="black" stroke-miterlimit="10"/>
<path d="M159.392 153.33L183.867 153.399" stroke="black" stroke-miterlimit="10"/>
<path d="M121.762 156.959H146.119" stroke="black" stroke-miterlimit="10"/>
<path d="M180.672 44.0792H197.111C198.649 44.0792 199.901 45.3316 199.901 46.8699V63.3281C199.901 65.0439 198.511 66.4442 196.785 66.4442H169.588C168.04 66.4442 166.778 65.182 166.778 63.6338V44.0891" stroke="black" stroke-miterlimit="10"/>
<path d="M166.778 44.0792V43.5171C166.748 41.9098 168.05 40.6081 169.647 40.618L178.937 40.6673L181.096 44.2863" stroke="black" stroke-miterlimit="10"/>
<path d="M173.986 51.978L192.466 51.9089" stroke="#E78895" stroke-miterlimit="10"/>
<path d="M174.006 59.147L192.397 59.1174" stroke="#E78895" stroke-miterlimit="10"/>
<path d="M257.894 91.9352C268.071 91.6689 276.187 86.9356 276.187 81.1471C276.187 75.3587 267.588 70.3394 256.987 70.3394C246.387 70.3394 237.778 75.1812 237.778 81.1471C237.778 86.2256 244.03 90.4955 252.441 91.6394" stroke="black" stroke-miterlimit="10"/>
<path d="M252.648 91.1561C252.648 91.1561 252.57 94.6174 248.763 97.201" stroke="black" stroke-miterlimit="10"/>
<path d="M258.348 91.6788C258.348 91.6788 256.169 96.0966 248.99 97.1222" stroke="black" stroke-miterlimit="10"/>
<path d="M247.274 82.6756C248.581 82.6756 249.641 81.616 249.641 80.3089C249.641 79.0019 248.581 77.9423 247.274 77.9423C245.967 77.9423 244.907 79.0019 244.907 80.3089C244.907 81.616 245.967 82.6756 247.274 82.6756Z" stroke="black" stroke-miterlimit="10"/>
<path d="M256.672 82.646C257.979 82.646 259.038 81.5865 259.038 80.2794C259.038 78.9723 257.979 77.9127 256.672 77.9127C255.365 77.9127 254.305 78.9723 254.305 80.2794C254.305 81.5865 255.365 82.646 256.672 82.646Z" stroke="black" stroke-miterlimit="10"/>
<path d="M265.941 82.646C267.248 82.646 268.308 81.5865 268.308 80.2794C268.308 78.9723 267.248 77.9127 265.941 77.9127C264.634 77.9127 263.574 78.9723 263.574 80.2794C263.574 81.5865 264.634 82.646 265.941 82.646Z" stroke="black" stroke-miterlimit="10"/>
<path d="M80.5917 32.7488H52.241C48.4178 32.7488 45.3185 35.8481 45.3185 39.6713V85.0521C45.3185 88.8753 48.4178 91.9746 52.241 91.9746H80.5917C84.4149 91.9746 87.5142 88.8753 87.5142 85.0521V39.6713C87.5142 35.8481 84.4149 32.7488 80.5917 32.7488Z" stroke="black" stroke-miterlimit="10"/>
<path d="M82.6922 39.6318H49.3813V84.776H82.6922V39.6318Z" stroke="black" stroke-miterlimit="10"/>
<path d="M60.6229 58.9794C60.6229 58.9794 62.8811 53.6544 67.8215 54.3151C72.7619 54.9758 73.9255 59.1076 73.9847 61.5827C73.9847 61.5827 76.4894 63.4267 76.1443 65.961C75.8287 68.2587 74.5172 69.5603 73.324 69.7773C71.0461 70.1915 63.3643 70.0534 60.7807 69.9844C60.051 69.9646 59.341 69.8167 58.6803 69.5308C57.7139 69.1166 56.4517 68.3573 55.86 67.1148C54.8246 64.9552 55.5642 62.1251 56.5207 60.853C57.8717 59.0681 59.7453 58.8808 60.6229 58.9794Z" stroke="black" stroke-miterlimit="10"/>
<path d="M37.331 196.443C35.6448 192.597 35.0728 188.318 35.9505 184.215C36.6407 180.991 38.258 177.48 41.7291 174.68C50.5548 167.54 60.8892 170.124 65.8198 175.38C65.8198 175.38 70.563 179.798 71.125 185.803C71.6477 191.335 70.0699 195.526 68.2653 198.859C66.155 202.754 62.8614 212.477 62.7727 217.082C62.6839 221.688 60.8498 221.5 60.8498 221.5L46.4328 221.451C46.4328 221.451 44.2732 220.84 44.3225 218.493C44.3718 216.146 43.9675 212.882 42.8237 209.006C41.9756 206.147 38.9877 200.181 37.3507 196.443H37.331Z" stroke="black" stroke-miterlimit="10"/>
<path d="M46.0384 222.546L60.623 222.516C60.623 222.516 62.4078 223.798 60.909 225.494C60.909 225.494 62.4078 227.713 60.8794 228.936C60.8794 228.936 62.3783 231.006 60.7808 231.943L46.354 232.101C46.354 232.101 44.3522 231.381 46.0088 229.064C46.0088 229.064 44.3226 227.525 46.0088 225.78C46.0088 225.78 44.224 224.153 46.0384 222.555V222.546Z" stroke="black" stroke-miterlimit="10"/>
<path d="M58.7789 232.111C58.7789 232.111 57.5561 235.493 53.5328 235.621C49.5095 235.75 47.9021 232.042 47.9021 232.042" stroke="black" stroke-miterlimit="10"/>
<path d="M57.1518 197.41L52.4777 220.948C52.458 221.037 52.3298 221.037 52.31 220.948L48.2275 197.498" stroke="black" stroke-miterlimit="10"/>
<path d="M60.1398 197.469L47.133 197.439C46.7583 197.439 46.3835 197.37 46.0384 197.222C44.6184 196.611 41.1966 194.609 42.2715 189.678C42.2715 189.678 43.1491 185.734 47.7148 185.359C47.7148 185.359 50.1899 180.192 54.2922 179.975C58.3944 179.758 63.0291 182.825 62.684 188.111C62.684 188.111 66.0663 190.211 64.6562 194.432C64.6562 194.432 64.2322 196.285 61.7965 197.193C61.2738 197.39 60.7019 197.469 60.1398 197.469Z" stroke="black" stroke-miterlimit="10"/>
<path d="M268.584 197.538H205.532C201.834 197.538 198.836 200.536 198.836 204.234V246.814C198.836 250.512 201.834 253.509 205.532 253.509H268.584C272.282 253.509 275.28 250.512 275.28 246.814V204.234C275.28 200.536 272.282 197.538 268.584 197.538Z" stroke="black" stroke-miterlimit="10"/>
<path d="M269.836 202.291H204.22V249.437H269.836V202.291Z" stroke="black" stroke-miterlimit="10"/>
<path d="M219.288 227.959H215.63V231.559H219.288V227.959Z" stroke="black" stroke-width="0.7" stroke-miterlimit="10"/>
<path d="M219.288 220.07H215.63V223.67H219.288V220.07Z" fill="#E78895"/>
<path d="M219.288 212.182H215.63V215.781H219.288V212.182Z" fill="#E78895"/>
<path d="M219.288 235.848H215.63V239.448H219.288V235.848Z" stroke="black" stroke-width="0.7" stroke-miterlimit="10"/>
<path d="M229.149 227.959H225.491V231.559H229.149V227.959Z" stroke="black" stroke-width="0.7" stroke-miterlimit="10"/>
<path d="M229.149 220.07H225.491V223.67H229.149V220.07Z" fill="#E78895"/>
<path d="M229.149 212.182H225.491V215.781H229.149V212.182Z" fill="#E78895"/>
<path d="M229.149 235.848H225.491V239.448H229.149V235.848Z" stroke="black" stroke-width="0.7" stroke-miterlimit="10"/>
<path d="M239.011 227.959H235.352V231.559H239.011V227.959Z" stroke="black" stroke-width="0.7" stroke-miterlimit="10"/>
<path d="M239.011 220.07H235.352V223.67H239.011V220.07Z" stroke="black" stroke-width="0.7" stroke-miterlimit="10"/>
<path d="M239.011 212.182H235.352V215.781H239.011V212.182Z" fill="#E78895"/>
<path d="M239.011 235.848H235.352V239.448H239.011V235.848Z" stroke="black" stroke-width="0.7" stroke-miterlimit="10"/>
<path d="M248.872 227.959H245.213V231.559H248.872V227.959Z" stroke="black" stroke-width="0.7" stroke-miterlimit="10"/>
<path d="M248.872 220.07H245.213V223.67H248.872V220.07Z" stroke="black" stroke-width="0.7" stroke-miterlimit="10"/>
<path d="M248.872 212.182H245.213V215.781H248.872V212.182Z" fill="#E78895"/>
<path d="M248.872 235.848H245.213V239.448H248.872V235.848Z" stroke="black" stroke-width="0.7" stroke-miterlimit="10"/>
<path d="M258.733 227.959H255.074V231.559H258.733V227.959Z" stroke="black" stroke-width="0.7" stroke-miterlimit="10"/>
<path d="M258.733 220.07H255.074V223.67H258.733V220.07Z" stroke="black" stroke-width="0.7" stroke-miterlimit="10"/>
<path d="M258.733 212.182H255.074V215.781H258.733V212.182Z" fill="#E78895"/>
<path d="M258.733 235.848H255.074V239.448H258.733V235.848Z" stroke="black" stroke-width="0.7" stroke-miterlimit="10"/>
<path d="M213.786 253.667H258.91C261.967 253.667 264.452 256.152 264.452 259.209H208.244C208.244 256.152 210.729 253.667 213.786 253.667Z" stroke="black" stroke-miterlimit="10"/>
<path d="M108.864 253.569C108.864 253.569 95.8962 237.229 94.486 232.18C91.3896 221.076 99.7814 211.619 108.992 212.31C118.202 213 125.775 220.07 123.517 230.967C123.517 230.967 121.831 238.235 108.864 253.569Z" stroke="black" stroke-miterlimit="10"/>
<path d="M108.834 235.355C113.469 235.355 117.226 231.598 117.226 226.963C117.226 222.329 113.469 218.572 108.834 218.572C104.199 218.572 100.442 222.329 100.442 226.963C100.442 231.598 104.199 235.355 108.834 235.355Z" stroke="black" stroke-miterlimit="10"/>
</svg>
