<svg width="108" height="42" viewBox="0 0 108 42" fill="none" xmlns="http://www.w3.org/2000/svg">
<path d="M17.0591 10.443L8.71208 5.63205L0.38208 10.443V5.63205L8.71208 0.821045L17.0591 5.63205V10.443Z" fill="#A435F0" fill-opacity="0.75"/>
<path d="M0.38208 14.489H4.75108V25.097C4.75108 27.834 6.79108 29.177 8.72908 29.177C10.6671 29.177 12.7071 27.8 12.7071 25.063V14.489H17.0761V25.352C17.0761 27.885 16.2771 29.823 14.6961 31.166C13.1151 32.509 11.1261 33.155 8.69508 33.155C6.28108 33.155 4.29208 32.509 2.74508 31.166C1.19808 29.823 0.39908 27.953 0.39908 25.471C0.38208 25.471 0.38208 14.489 0.38208 14.489ZM54.8161 27.681C53.4901 28.854 51.9941 29.432 50.2771 29.432C47.1491 29.432 45.0411 27.647 44.8031 24.876H58.9131C58.9131 24.876 59.0151 23.975 59.0151 23.142C59.0151 20.541 58.1821 18.382 56.4821 16.614C54.8161 14.846 52.6571 13.979 50.0221 13.979C47.2511 13.979 44.9731 14.846 43.1711 16.614C41.4031 18.382 40.5021 20.694 40.5021 23.584V23.72C40.5021 26.576 41.4031 28.854 43.1711 30.537C44.9391 32.237 47.2851 33.104 50.1411 33.104C53.4561 33.104 56.0911 31.795 58.0801 29.534C58.0631 29.551 54.8161 27.681 54.8161 27.681ZM46.5201 18.824C47.4891 18.059 48.6791 17.668 50.0221 17.668C51.2801 17.668 52.3341 18.059 53.2351 18.858C54.1021 19.589 54.5611 20.473 54.5951 21.493H44.9051C45.0411 20.439 45.5851 19.555 46.5201 18.824ZM98.7781 35.569C97.0101 39.751 95.1571 41.179 92.3011 41.179H90.3291V37.303H91.9271C92.9131 37.303 93.8141 36.929 94.6811 34.94L95.5481 32.934L88.0681 14.489H92.5051L97.8091 27.766L103.266 14.489H107.72L98.7781 35.569ZM34.0591 7.51904V16.138C32.6311 14.863 30.4041 14.098 28.2451 14.098C25.6781 14.098 23.5191 14.999 21.7511 16.835C20.0171 18.637 19.1501 20.881 19.1501 23.584C19.1501 26.287 20.0171 28.531 21.7511 30.367C23.5191 32.169 25.6781 33.07 28.2451 33.07C31.2031 33.07 33.0731 31.914 34.0591 30.996V32.679H38.3941V7.51904H34.0591ZM32.7501 27.562C31.6961 28.616 30.3701 29.143 28.8231 29.143C27.2761 29.143 26.0011 28.599 24.9641 27.562C23.9611 26.508 23.4511 25.182 23.4511 23.584C23.4511 22.003 23.9611 20.66 24.9641 19.606C26.0181 18.552 27.2761 18.025 28.8231 18.025C30.3701 18.025 31.7131 18.569 32.7501 19.606C33.8381 20.66 34.3821 21.986 34.3821 23.584C34.3821 25.182 33.8381 26.508 32.7501 27.562ZM81.3531 14.132C78.0551 14.132 76.3551 15.492 75.1821 16.818C74.7061 15.917 73.3971 14.132 70.3031 14.132C67.7021 14.132 66.1551 15.441 65.3901 16.393V14.506H61.0891V32.696H65.3901V22.224C65.3901 19.776 66.9031 18.008 68.9261 18.008C70.9831 18.008 72.1731 19.555 72.1731 22.054V32.696H76.4741V22.224C76.4741 19.742 77.9531 18.008 80.0781 18.008C82.1351 18.008 83.3251 19.555 83.3251 22.054V32.696H87.6601V21.442C87.6601 16.682 85.1101 14.132 81.3531 14.132Z" fill="black" fill-opacity="0.75"/>
</svg>
