<svg width="1183" height="326" viewBox="0 0 1183 326" fill="none" xmlns="http://www.w3.org/2000/svg">
<path d="M9.225 83.0849H27.585V86.9999H4.725V55.4999H26.955V59.4149H9.225V69.0899H25.02V72.9149H9.225V83.0849ZM53.8291 86.9999H48.9241L42.0391 77.8649L35.0641 86.9999H30.2491L39.6541 74.8049L30.6991 63.1499H35.5141L42.0841 71.7449L48.6091 63.1499H53.3341L44.3341 74.8049L53.8291 86.9999ZM71.1882 62.9249C78.1632 62.9249 83.2482 67.7849 83.2482 75.0749C83.2482 82.4099 78.1632 87.2699 71.1882 87.2699C67.8132 87.2699 64.8432 85.9649 62.8632 83.3999V95.7299H58.5432V63.1499H62.6832V66.9299C64.6182 64.2749 67.6782 62.9249 71.1882 62.9249ZM70.8282 83.4899C75.4182 83.4899 78.8832 80.1599 78.8832 75.0749C78.8832 70.0349 75.4182 66.7049 70.8282 66.7049C66.2832 66.7049 62.8182 70.0349 62.8182 75.0749C62.8182 80.1599 66.2832 83.4899 70.8282 83.4899ZM89.2171 86.9999V53.6099H93.5371V86.9999H89.2171ZM112 87.2699C104.845 87.2699 99.5804 82.1849 99.5804 75.0749C99.5804 67.9649 104.845 62.9249 112 62.9249C119.155 62.9249 124.375 67.9649 124.375 75.0749C124.375 82.1849 119.155 87.2699 112 87.2699ZM112 83.4899C116.59 83.4899 120.01 80.1599 120.01 75.0749C120.01 69.9899 116.59 66.7049 112 66.7049C107.41 66.7049 103.945 69.9899 103.945 75.0749C103.945 80.1599 107.41 83.4899 112 83.4899ZM134.49 67.1549C136.02 64.3649 138.99 62.9249 143.175 62.9249V67.1099C142.815 67.0649 142.5 67.0649 142.185 67.0649C137.55 67.0649 134.67 69.8999 134.67 75.1199V86.9999H130.35V63.1499H134.49V67.1549ZM169.835 75.2099C169.835 75.5699 169.79 76.1099 169.745 76.5149H150.395C150.935 80.6999 154.31 83.4899 159.035 83.4899C161.825 83.4899 164.165 82.5449 165.92 80.6099L168.305 83.3999C166.145 85.9199 162.86 87.2699 158.9 87.2699C151.205 87.2699 146.075 82.1849 146.075 75.0749C146.075 68.0099 151.16 62.9249 158.045 62.9249C164.93 62.9249 169.835 67.8749 169.835 75.2099ZM158.045 66.5699C153.905 66.5699 150.845 69.3599 150.395 73.4099H165.695C165.245 69.4049 162.23 66.5699 158.045 66.5699Z" fill="black"/>
<path d="M198.313 87.2699C190.978 87.2699 185.713 82.1849 185.713 75.0749C185.713 67.9649 190.978 62.9249 198.313 62.9249C202.588 62.9249 206.143 64.6799 208.033 68.0099L204.748 70.1249C203.218 67.7849 200.878 66.7049 198.268 66.7049C193.588 66.7049 190.078 69.9899 190.078 75.0749C190.078 80.2499 193.588 83.4899 198.268 83.4899C200.878 83.4899 203.218 82.4099 204.748 80.0699L208.033 82.1399C206.143 85.4699 202.588 87.2699 198.313 87.2699ZM223.49 87.2699C216.335 87.2699 211.07 82.1849 211.07 75.0749C211.07 67.9649 216.335 62.9249 223.49 62.9249C230.645 62.9249 235.865 67.9649 235.865 75.0749C235.865 82.1849 230.645 87.2699 223.49 87.2699ZM223.49 83.4899C228.08 83.4899 231.5 80.1599 231.5 75.0749C231.5 69.9899 228.08 66.7049 223.49 66.7049C218.9 66.7049 215.435 69.9899 215.435 75.0749C215.435 80.1599 218.9 83.4899 223.49 83.4899ZM259.749 63.1499H264.069V86.9999H259.974V83.3999C258.219 85.8749 255.249 87.2699 251.874 87.2699C245.709 87.2699 241.614 83.8949 241.614 76.8749V63.1499H245.934V76.3799C245.934 81.0599 248.274 83.3999 252.369 83.3999C256.869 83.3999 259.749 80.6099 259.749 75.4799V63.1499ZM276.433 67.1549C277.963 64.3649 280.933 62.9249 285.118 62.9249V67.1099C284.758 67.0649 284.443 67.0649 284.128 67.0649C279.493 67.0649 276.613 69.8999 276.613 75.1199V86.9999H272.293V63.1499H276.433V67.1549ZM297.458 87.2699C293.498 87.2699 289.583 86.0549 287.603 84.4799L289.403 81.0599C291.428 82.4999 294.668 83.5349 297.773 83.5349C301.778 83.5349 303.443 82.3199 303.443 80.2949C303.443 74.9399 288.368 79.5749 288.368 70.0799C288.368 65.8049 292.193 62.9249 298.313 62.9249C301.418 62.9249 304.928 63.7349 306.998 65.0849L305.153 68.5049C302.993 67.1099 300.608 66.6149 298.268 66.6149C294.488 66.6149 292.643 68.0099 292.643 69.8999C292.643 75.5249 307.763 70.9349 307.763 80.2049C307.763 84.5249 303.803 87.2699 297.458 87.2699ZM334.717 75.2099C334.717 75.5699 334.672 76.1099 334.627 76.5149H315.277C315.817 80.6999 319.192 83.4899 323.917 83.4899C326.707 83.4899 329.047 82.5449 330.802 80.6099L333.187 83.3999C331.027 85.9199 327.742 87.2699 323.782 87.2699C316.087 87.2699 310.957 82.1849 310.957 75.0749C310.957 68.0099 316.042 62.9249 322.927 62.9249C329.812 62.9249 334.717 67.8749 334.717 75.2099ZM322.927 66.5699C318.787 66.5699 315.727 69.3599 315.277 73.4099H330.577C330.127 69.4049 327.112 66.5699 322.927 66.5699ZM347.556 87.2699C343.596 87.2699 339.681 86.0549 337.701 84.4799L339.501 81.0599C341.526 82.4999 344.766 83.5349 347.871 83.5349C351.876 83.5349 353.541 82.3199 353.541 80.2949C353.541 74.9399 338.466 79.5749 338.466 70.0799C338.466 65.8049 342.291 62.9249 348.411 62.9249C351.516 62.9249 355.026 63.7349 357.096 65.0849L355.251 68.5049C353.091 67.1099 350.706 66.6149 348.366 66.6149C344.586 66.6149 342.741 68.0099 342.741 69.8999C342.741 75.5249 357.861 70.9349 357.861 80.2049C357.861 84.5249 353.901 87.2699 347.556 87.2699ZM14.49 137.27C7.155 137.27 1.89 132.185 1.89 125.075C1.89 117.965 7.155 112.925 14.49 112.925C18.765 112.925 22.32 114.68 24.21 118.01L20.925 120.125C19.395 117.785 17.055 116.705 14.445 116.705C9.765 116.705 6.255 119.99 6.255 125.075C6.255 130.25 9.765 133.49 14.445 133.49C17.055 133.49 19.395 132.41 20.925 130.07L24.21 132.14C22.32 135.47 18.765 137.27 14.49 137.27ZM39.6664 137.27C32.5114 137.27 27.2464 132.185 27.2464 125.075C27.2464 117.965 32.5114 112.925 39.6664 112.925C46.8214 112.925 52.0414 117.965 52.0414 125.075C52.0414 132.185 46.8214 137.27 39.6664 137.27ZM39.6664 133.49C44.2564 133.49 47.6764 130.16 47.6764 125.075C47.6764 119.99 44.2564 116.705 39.6664 116.705C35.0764 116.705 31.6114 119.99 31.6114 125.075C31.6114 130.16 35.0764 133.49 39.6664 133.49ZM87.8509 112.925C93.6559 112.925 97.6159 116.255 97.6159 123.275V137H93.2959V123.77C93.2959 119.09 91.0459 116.795 87.1309 116.795C82.8109 116.795 79.9759 119.54 79.9759 124.715V137H75.6559V123.77C75.6559 119.09 73.4059 116.795 69.4909 116.795C65.1709 116.795 62.3359 119.54 62.3359 124.715V137H58.0159V113.15H62.1559V116.705C63.8659 114.275 66.7909 112.925 70.3909 112.925C74.0359 112.925 77.0959 114.365 78.6709 117.335C80.4709 114.635 83.8009 112.925 87.8509 112.925ZM135.4 112.925C141.205 112.925 145.165 116.255 145.165 123.275V137H140.845V123.77C140.845 119.09 138.595 116.795 134.68 116.795C130.36 116.795 127.525 119.54 127.525 124.715V137H123.205V123.77C123.205 119.09 120.955 116.795 117.04 116.795C112.72 116.795 109.885 119.54 109.885 124.715V137H105.565V113.15H109.705V116.705C111.415 114.275 114.34 112.925 117.94 112.925C121.585 112.925 124.645 114.365 126.22 117.335C128.02 114.635 131.35 112.925 135.4 112.925ZM171.024 113.15H175.344V137H171.249V133.4C169.494 135.875 166.524 137.27 163.149 137.27C156.984 137.27 152.889 133.895 152.889 126.875V113.15H157.209V126.38C157.209 131.06 159.549 133.4 163.644 133.4C168.144 133.4 171.024 130.61 171.024 125.48V113.15ZM196.303 112.925C202.108 112.925 206.203 116.255 206.203 123.275V137H201.883V123.77C201.883 119.09 199.543 116.795 195.448 116.795C190.858 116.795 187.888 119.54 187.888 124.715V137H183.568V113.15H187.708V116.75C189.463 114.32 192.523 112.925 196.303 112.925ZM216.358 108.56C214.693 108.56 213.433 107.345 213.433 105.77C213.433 104.195 214.693 102.935 216.358 102.935C218.023 102.935 219.283 104.15 219.283 105.68C219.283 107.3 218.068 108.56 216.358 108.56ZM214.198 137V113.15H218.518V137H214.198ZM238.826 132.5L240.176 135.605C238.871 136.73 236.891 137.27 234.956 137.27C230.141 137.27 227.396 134.615 227.396 129.8V116.705H223.346V113.15H227.396V107.93H231.716V113.15H238.556V116.705H231.716V129.62C231.716 132.185 233.066 133.625 235.451 133.625C236.711 133.625 237.926 133.22 238.826 132.5ZM261.834 113.15H266.064L254.499 139.385C252.384 144.425 249.639 146 245.994 146C243.699 146 241.359 145.235 239.874 143.795L241.719 140.555C242.889 141.68 244.374 142.31 245.994 142.31C248.064 142.31 249.369 141.365 250.539 138.62L251.304 136.955L240.774 113.15H245.274L253.599 132.23L261.834 113.15Z" fill="#00A9FF"/>
<path d="M9.105 185.5H10.605V196H9.375L3.075 188.17V196H1.575V185.5H2.805L9.105 193.33V185.5ZM16.9429 196.09C14.5579 196.09 12.8029 194.395 12.8029 192.025C12.8029 189.655 14.5579 187.975 16.9429 187.975C19.3279 187.975 21.0679 189.655 21.0679 192.025C21.0679 194.395 19.3279 196.09 16.9429 196.09ZM16.9429 194.83C18.4729 194.83 19.6129 193.72 19.6129 192.025C19.6129 190.33 18.4729 189.235 16.9429 189.235C15.4129 189.235 14.2579 190.33 14.2579 192.025C14.2579 193.72 15.4129 194.83 16.9429 194.83ZM27.0793 194.5L27.5293 195.535C27.0943 195.91 26.4343 196.09 25.7893 196.09C24.1843 196.09 23.2693 195.205 23.2693 193.6V189.235H21.9193V188.05H23.2693V186.31H24.7093V188.05H26.9893V189.235H24.7093V193.54C24.7093 194.395 25.1593 194.875 25.9543 194.875C26.3743 194.875 26.7793 194.74 27.0793 194.5ZM36.1916 192.07C36.1916 192.19 36.1766 192.37 36.1616 192.505H29.7116C29.8916 193.9 31.0166 194.83 32.5916 194.83C33.5216 194.83 34.3016 194.515 34.8866 193.87L35.6816 194.8C34.9616 195.64 33.8666 196.09 32.5466 196.09C29.9816 196.09 28.2716 194.395 28.2716 192.025C28.2716 189.67 29.9666 187.975 32.2616 187.975C34.5566 187.975 36.1916 189.625 36.1916 192.07ZM32.2616 189.19C30.8816 189.19 29.8616 190.12 29.7116 191.47H34.8116C34.6616 190.135 33.6566 189.19 32.2616 189.19ZM37.8277 192.505V191.26H41.8627V192.505H37.8277ZM48.2463 194.5L48.6963 195.535C48.2613 195.91 47.6013 196.09 46.9563 196.09C45.3513 196.09 44.4363 195.205 44.4363 193.6V189.235H43.0863V188.05H44.4363V186.31H45.8763V188.05H48.1563V189.235H45.8763V193.54C45.8763 194.395 46.3263 194.875 47.1213 194.875C47.5413 194.875 47.9463 194.74 48.2463 194.5ZM53.3323 187.975C55.5073 187.975 56.7373 189.025 56.7373 191.2V196H55.3723V194.95C54.8923 195.67 54.0073 196.09 52.7623 196.09C50.9623 196.09 49.8223 195.13 49.8223 193.75C49.8223 192.475 50.6473 191.425 53.0173 191.425H55.2973V191.14C55.2973 189.925 54.5923 189.22 53.1673 189.22C52.2223 189.22 51.2623 189.55 50.6473 190.075L50.0473 188.995C50.8723 188.335 52.0573 187.975 53.3323 187.975ZM53.0023 194.98C54.0823 194.98 54.9373 194.485 55.2973 193.57V192.46H53.0773C51.6523 192.46 51.2473 193.015 51.2473 193.69C51.2473 194.485 51.9073 194.98 53.0023 194.98ZM65.4771 196L62.4921 192.295L60.8421 193.825V196H59.4021V184.87H60.8421V192.01L65.1771 188.05H66.9171L63.5721 191.335L67.2471 196H65.4771ZM69.2627 186.52C68.7077 186.52 68.2877 186.115 68.2877 185.59C68.2877 185.065 68.7077 184.645 69.2627 184.645C69.8177 184.645 70.2377 185.05 70.2377 185.56C70.2377 186.1 69.8327 186.52 69.2627 186.52ZM68.5427 196V188.05H69.9827V196H68.5427ZM76.9772 187.975C78.9122 187.975 80.2772 189.085 80.2772 191.425V196H78.8372V191.59C78.8372 190.03 78.0572 189.265 76.6922 189.265C75.1622 189.265 74.1722 190.18 74.1722 191.905V196H72.7322V188.05H74.1122V189.25C74.6972 188.44 75.7172 187.975 76.9772 187.975ZM89.2261 188.05H90.5911V194.92C90.5911 197.725 89.1661 199 86.4661 199C85.0111 199 83.5411 198.595 82.6711 197.815L83.3611 196.705C84.0961 197.335 85.2511 197.74 86.4211 197.74C88.2961 197.74 89.1511 196.87 89.1511 195.07V194.44C88.4611 195.265 87.4261 195.67 86.2861 195.67C83.9911 195.67 82.2511 194.11 82.2511 191.815C82.2511 189.52 83.9911 187.975 86.2861 187.975C87.4711 187.975 88.5511 188.41 89.2261 189.28V188.05ZM86.4511 194.41C88.0411 194.41 89.1811 193.345 89.1811 191.815C89.1811 190.27 88.0411 189.235 86.4511 189.235C84.8461 189.235 83.7061 190.27 83.7061 191.815C83.7061 193.345 84.8461 194.41 86.4511 194.41ZM98.0909 186.52C97.5359 186.52 97.1159 186.115 97.1159 185.59C97.1159 185.065 97.5359 184.645 98.0909 184.645C98.6459 184.645 99.0659 185.05 99.0659 185.56C99.0659 186.1 98.6609 186.52 98.0909 186.52ZM97.3709 196V188.05H98.8109V196H97.3709ZM103.84 196.09C102.52 196.09 101.215 195.685 100.555 195.16L101.155 194.02C101.83 194.5 102.91 194.845 103.945 194.845C105.28 194.845 105.835 194.44 105.835 193.765C105.835 191.98 100.81 193.525 100.81 190.36C100.81 188.935 102.085 187.975 104.125 187.975C105.16 187.975 106.33 188.245 107.02 188.695L106.405 189.835C105.685 189.37 104.89 189.205 104.11 189.205C102.85 189.205 102.235 189.67 102.235 190.3C102.235 192.175 107.275 190.645 107.275 193.735C107.275 195.175 105.955 196.09 103.84 196.09ZM117.123 194.5L117.573 195.535C117.138 195.91 116.478 196.09 115.833 196.09C114.228 196.09 113.313 195.205 113.313 193.6V189.235H111.963V188.05H113.313V186.31H114.753V188.05H117.033V189.235H114.753V193.54C114.753 194.395 115.203 194.875 115.998 194.875C116.418 194.875 116.823 194.74 117.123 194.5ZM123.559 187.975C125.494 187.975 126.859 189.085 126.859 191.425V196H125.419V191.59C125.419 190.03 124.639 189.265 123.274 189.265C121.744 189.265 120.754 190.18 120.754 191.905V196H119.314V184.87H120.754V189.175C121.354 188.41 122.344 187.975 123.559 187.975ZM136.753 192.07C136.753 192.19 136.738 192.37 136.723 192.505H130.273C130.453 193.9 131.578 194.83 133.153 194.83C134.083 194.83 134.863 194.515 135.448 193.87L136.243 194.8C135.523 195.64 134.428 196.09 133.108 196.09C130.543 196.09 128.833 194.395 128.833 192.025C128.833 189.67 130.528 187.975 132.823 187.975C135.118 187.975 136.753 189.625 136.753 192.07ZM132.823 189.19C131.443 189.19 130.423 190.12 130.273 191.47H135.373C135.223 190.135 134.218 189.19 132.823 189.19ZM146.996 187.975C149.321 187.975 151.016 189.595 151.016 192.025C151.016 194.455 149.321 196.09 146.996 196.09C145.826 196.09 144.806 195.64 144.161 194.74V196H142.781V184.87H144.221V189.25C144.881 188.395 145.871 187.975 146.996 187.975ZM146.876 194.83C148.406 194.83 149.561 193.72 149.561 192.025C149.561 190.33 148.406 189.235 146.876 189.235C145.361 189.235 144.206 190.33 144.206 192.025C144.206 193.72 145.361 194.83 146.876 194.83ZM154.386 189.385C154.896 188.455 155.886 187.975 157.281 187.975V189.37C157.161 189.355 157.056 189.355 156.951 189.355C155.406 189.355 154.446 190.3 154.446 192.04V196H153.006V188.05H154.386V189.385ZM159.775 186.52C159.22 186.52 158.8 186.115 158.8 185.59C158.8 185.065 159.22 184.645 159.775 184.645C160.33 184.645 160.75 185.05 160.75 185.56C160.75 186.1 160.345 186.52 159.775 186.52ZM159.055 196V188.05H160.495V196H159.055ZM169.305 184.87H170.745V196H169.365V194.74C168.72 195.64 167.7 196.09 166.53 196.09C164.205 196.09 162.51 194.455 162.51 192.025C162.51 189.595 164.205 187.975 166.53 187.975C167.655 187.975 168.645 188.395 169.305 189.25V184.87ZM166.65 194.83C168.165 194.83 169.32 193.72 169.32 192.025C169.32 190.33 168.165 189.235 166.65 189.235C165.12 189.235 163.965 190.33 163.965 192.025C163.965 193.72 165.12 194.83 166.65 194.83ZM179.709 188.05H181.074V194.92C181.074 197.725 179.649 199 176.949 199C175.494 199 174.024 198.595 173.154 197.815L173.844 196.705C174.579 197.335 175.734 197.74 176.904 197.74C178.779 197.74 179.634 196.87 179.634 195.07V194.44C178.944 195.265 177.909 195.67 176.769 195.67C174.474 195.67 172.734 194.11 172.734 191.815C172.734 189.52 174.474 187.975 176.769 187.975C177.954 187.975 179.034 188.41 179.709 189.28V188.05ZM176.934 194.41C178.524 194.41 179.664 193.345 179.664 191.815C179.664 190.27 178.524 189.235 176.934 189.235C175.329 189.235 174.189 190.27 174.189 191.815C174.189 193.345 175.329 194.41 176.934 194.41ZM191.011 192.07C191.011 192.19 190.996 192.37 190.981 192.505H184.531C184.711 193.9 185.836 194.83 187.411 194.83C188.341 194.83 189.121 194.515 189.706 193.87L190.501 194.8C189.781 195.64 188.686 196.09 187.366 196.09C184.801 196.09 183.091 194.395 183.091 192.025C183.091 189.67 184.786 187.975 187.081 187.975C189.376 187.975 191.011 189.625 191.011 192.07ZM187.081 189.19C185.701 189.19 184.681 190.12 184.531 191.47H189.631C189.481 190.135 188.476 189.19 187.081 189.19ZM201.254 187.975C203.579 187.975 205.274 189.595 205.274 192.025C205.274 194.455 203.579 196.09 201.254 196.09C200.084 196.09 199.064 195.64 198.419 194.74V196H197.039V184.87H198.479V189.25C199.139 188.395 200.129 187.975 201.254 187.975ZM201.134 194.83C202.664 194.83 203.819 193.72 203.819 192.025C203.819 190.33 202.664 189.235 201.134 189.235C199.619 189.235 198.464 190.33 198.464 192.025C198.464 193.72 199.619 194.83 201.134 194.83ZM214.448 192.07C214.448 192.19 214.433 192.37 214.418 192.505H207.968C208.148 193.9 209.273 194.83 210.848 194.83C211.778 194.83 212.558 194.515 213.143 193.87L213.938 194.8C213.218 195.64 212.123 196.09 210.803 196.09C208.238 196.09 206.528 194.395 206.528 192.025C206.528 189.67 208.223 187.975 210.518 187.975C212.813 187.975 214.448 189.625 214.448 192.07ZM210.518 189.19C209.138 189.19 208.118 190.12 207.968 191.47H213.068C212.918 190.135 211.913 189.19 210.518 189.19ZM220.468 194.5L220.918 195.535C220.483 195.91 219.823 196.09 219.178 196.09C217.573 196.09 216.658 195.205 216.658 193.6V189.235H215.308V188.05H216.658V186.31H218.098V188.05H220.378V189.235H218.098V193.54C218.098 194.395 218.548 194.875 219.343 194.875C219.763 194.875 220.168 194.74 220.468 194.5ZM233.252 188.05H234.542L231.572 196H230.192L227.897 189.97L225.572 196H224.192L221.237 188.05H222.602L224.912 194.38L227.312 188.05H228.527L230.882 194.41L233.252 188.05ZM242.969 192.07C242.969 192.19 242.954 192.37 242.939 192.505H236.489C236.669 193.9 237.794 194.83 239.369 194.83C240.299 194.83 241.079 194.515 241.664 193.87L242.459 194.8C241.739 195.64 240.644 196.09 239.324 196.09C236.759 196.09 235.049 194.395 235.049 192.025C235.049 189.67 236.744 187.975 239.039 187.975C241.334 187.975 242.969 189.625 242.969 192.07ZM239.039 189.19C237.659 189.19 236.639 190.12 236.489 191.47H241.589C241.439 190.135 240.434 189.19 239.039 189.19ZM252.154 192.07C252.154 192.19 252.139 192.37 252.124 192.505H245.674C245.854 193.9 246.979 194.83 248.554 194.83C249.484 194.83 250.264 194.515 250.849 193.87L251.644 194.8C250.924 195.64 249.829 196.09 248.509 196.09C245.944 196.09 244.234 194.395 244.234 192.025C244.234 189.67 245.929 187.975 248.224 187.975C250.519 187.975 252.154 189.625 252.154 192.07ZM248.224 189.19C246.844 189.19 245.824 190.12 245.674 191.47H250.774C250.624 190.135 249.619 189.19 248.224 189.19ZM258.398 187.975C260.333 187.975 261.698 189.085 261.698 191.425V196H260.258V191.59C260.258 190.03 259.478 189.265 258.113 189.265C256.583 189.265 255.593 190.18 255.593 191.905V196H254.153V188.05H255.533V189.25C256.118 188.44 257.138 187.975 258.398 187.975ZM272.636 187.975C274.571 187.975 275.936 189.085 275.936 191.425V196H274.496V191.59C274.496 190.03 273.716 189.265 272.351 189.265C270.821 189.265 269.831 190.18 269.831 191.905V196H268.391V184.87H269.831V189.175C270.431 188.41 271.421 187.975 272.636 187.975ZM285.83 192.07C285.83 192.19 285.815 192.37 285.8 192.505H279.35C279.53 193.9 280.655 194.83 282.23 194.83C283.16 194.83 283.94 194.515 284.525 193.87L285.32 194.8C284.6 195.64 283.505 196.09 282.185 196.09C279.62 196.09 277.91 194.395 277.91 192.025C277.91 189.67 279.605 187.975 281.9 187.975C284.195 187.975 285.83 189.625 285.83 192.07ZM281.9 189.19C280.52 189.19 279.5 190.12 279.35 191.47H284.45C284.3 190.135 283.295 189.19 281.9 189.19ZM290.505 187.975C292.68 187.975 293.91 189.025 293.91 191.2V196H292.545V194.95C292.065 195.67 291.18 196.09 289.935 196.09C288.135 196.09 286.995 195.13 286.995 193.75C286.995 192.475 287.82 191.425 290.19 191.425H292.47V191.14C292.47 189.925 291.765 189.22 290.34 189.22C289.395 189.22 288.435 189.55 287.82 190.075L287.22 188.995C288.045 188.335 289.23 187.975 290.505 187.975ZM290.175 194.98C291.255 194.98 292.11 194.485 292.47 193.57V192.46H290.25C288.825 192.46 288.42 193.015 288.42 193.69C288.42 194.485 289.08 194.98 290.175 194.98ZM297.955 189.385C298.465 188.455 299.455 187.975 300.85 187.975V189.37C300.73 189.355 300.625 189.355 300.52 189.355C298.975 189.355 298.015 190.3 298.015 192.04V196H296.575V188.05H297.955V189.385ZM303.345 186.52C302.79 186.52 302.37 186.115 302.37 185.59C302.37 185.065 302.79 184.645 303.345 184.645C303.9 184.645 304.32 185.05 304.32 185.56C304.32 186.1 303.915 186.52 303.345 186.52ZM302.625 196V188.05H304.065V196H302.625ZM311.059 187.975C312.994 187.975 314.359 189.085 314.359 191.425V196H312.919V191.59C312.919 190.03 312.139 189.265 310.774 189.265C309.244 189.265 308.254 190.18 308.254 191.905V196H306.814V188.05H308.194V189.25C308.779 188.44 309.799 187.975 311.059 187.975ZM323.308 188.05H324.673V194.92C324.673 197.725 323.248 199 320.548 199C319.093 199 317.623 198.595 316.753 197.815L317.443 196.705C318.178 197.335 319.333 197.74 320.503 197.74C322.378 197.74 323.233 196.87 323.233 195.07V194.44C322.543 195.265 321.508 195.67 320.368 195.67C318.073 195.67 316.333 194.11 316.333 191.815C316.333 189.52 318.073 187.975 320.368 187.975C321.553 187.975 322.633 188.41 323.308 189.28V188.05ZM320.533 194.41C322.123 194.41 323.263 193.345 323.263 191.815C323.263 190.27 322.123 189.235 320.533 189.235C318.928 189.235 317.788 190.27 317.788 191.815C317.788 193.345 318.928 194.41 320.533 194.41ZM334.348 187.975C336.523 187.975 337.753 189.025 337.753 191.2V196H336.388V194.95C335.908 195.67 335.023 196.09 333.778 196.09C331.978 196.09 330.838 195.13 330.838 193.75C330.838 192.475 331.663 191.425 334.033 191.425H336.313V191.14C336.313 189.925 335.608 189.22 334.183 189.22C333.238 189.22 332.278 189.55 331.663 190.075L331.063 188.995C331.888 188.335 333.073 187.975 334.348 187.975ZM334.018 194.98C335.098 194.98 335.953 194.485 336.313 193.57V192.46H334.093C332.668 192.46 332.263 193.015 332.263 193.69C332.263 194.485 332.923 194.98 334.018 194.98ZM344.663 187.975C346.598 187.975 347.963 189.085 347.963 191.425V196H346.523V191.59C346.523 190.03 345.743 189.265 344.378 189.265C342.848 189.265 341.858 190.18 341.858 191.905V196H340.418V188.05H341.798V189.25C342.383 188.44 343.403 187.975 344.663 187.975ZM356.732 184.87H358.172V196H356.792V194.74C356.147 195.64 355.127 196.09 353.957 196.09C351.632 196.09 349.937 194.455 349.937 192.025C349.937 189.595 351.632 187.975 353.957 187.975C355.082 187.975 356.072 188.395 356.732 189.25V184.87ZM354.077 194.83C355.592 194.83 356.747 193.72 356.747 192.025C356.747 190.33 355.592 189.235 354.077 189.235C352.547 189.235 351.392 190.33 351.392 192.025C351.392 193.72 352.547 194.83 354.077 194.83ZM370.895 188.05H372.335V196H370.97V194.8C370.385 195.625 369.395 196.09 368.27 196.09C366.215 196.09 364.85 194.965 364.85 192.625V188.05H366.29V192.46C366.29 194.02 367.07 194.8 368.435 194.8C369.935 194.8 370.895 193.87 370.895 192.16V188.05ZM379.321 187.975C381.256 187.975 382.621 189.085 382.621 191.425V196H381.181V191.59C381.181 190.03 380.401 189.265 379.036 189.265C377.506 189.265 376.516 190.18 376.516 191.905V196H375.076V188.05H376.456V189.25C377.041 188.44 378.061 187.975 379.321 187.975ZM391.39 184.87H392.83V196H391.45V194.74C390.805 195.64 389.785 196.09 388.615 196.09C386.29 196.09 384.595 194.455 384.595 192.025C384.595 189.595 386.29 187.975 388.615 187.975C389.74 187.975 390.73 188.395 391.39 189.25V184.87ZM388.735 194.83C390.25 194.83 391.405 193.72 391.405 192.025C391.405 190.33 390.25 189.235 388.735 189.235C387.205 189.235 386.05 190.33 386.05 192.025C386.05 193.72 387.205 194.83 388.735 194.83ZM402.739 192.07C402.739 192.19 402.724 192.37 402.709 192.505H396.259C396.439 193.9 397.564 194.83 399.139 194.83C400.069 194.83 400.849 194.515 401.434 193.87L402.229 194.8C401.509 195.64 400.414 196.09 399.094 196.09C396.529 196.09 394.819 194.395 394.819 192.025C394.819 189.67 396.514 187.975 398.809 187.975C401.104 187.975 402.739 189.625 402.739 192.07ZM398.809 189.19C397.429 189.19 396.409 190.12 396.259 191.47H401.359C401.209 190.135 400.204 189.19 398.809 189.19ZM406.119 189.385C406.629 188.455 407.619 187.975 409.014 187.975V189.37C408.894 189.355 408.789 189.355 408.684 189.355C407.139 189.355 406.179 190.3 406.179 192.04V196H404.739V188.05H406.119V189.385ZM413.127 196.09C411.807 196.09 410.502 195.685 409.842 195.16L410.442 194.02C411.117 194.5 412.197 194.845 413.232 194.845C414.567 194.845 415.122 194.44 415.122 193.765C415.122 191.98 410.097 193.525 410.097 190.36C410.097 188.935 411.372 187.975 413.412 187.975C414.447 187.975 415.617 188.245 416.307 188.695L415.692 189.835C414.972 189.37 414.177 189.205 413.397 189.205C412.137 189.205 411.522 189.67 411.522 190.3C411.522 192.175 416.562 190.645 416.562 193.735C416.562 195.175 415.242 196.09 413.127 196.09ZM422.382 194.5L422.832 195.535C422.397 195.91 421.737 196.09 421.092 196.09C419.487 196.09 418.572 195.205 418.572 193.6V189.235H417.222V188.05H418.572V186.31H420.012V188.05H422.292V189.235H420.012V193.54C420.012 194.395 420.462 194.875 421.257 194.875C421.677 194.875 422.082 194.74 422.382 194.5ZM427.468 187.975C429.643 187.975 430.873 189.025 430.873 191.2V196H429.508V194.95C429.028 195.67 428.143 196.09 426.898 196.09C425.098 196.09 423.958 195.13 423.958 193.75C423.958 192.475 424.783 191.425 427.153 191.425H429.433V191.14C429.433 189.925 428.728 189.22 427.303 189.22C426.358 189.22 425.398 189.55 424.783 190.075L424.183 188.995C425.008 188.335 426.193 187.975 427.468 187.975ZM427.138 194.98C428.218 194.98 429.073 194.485 429.433 193.57V192.46H427.213C425.788 192.46 425.383 193.015 425.383 193.69C425.383 194.485 426.043 194.98 427.138 194.98ZM437.783 187.975C439.718 187.975 441.083 189.085 441.083 191.425V196H439.643V191.59C439.643 190.03 438.863 189.265 437.498 189.265C435.968 189.265 434.978 190.18 434.978 191.905V196H433.538V188.05H434.918V189.25C435.503 188.44 436.523 187.975 437.783 187.975ZM449.852 184.87H451.292V196H449.912V194.74C449.267 195.64 448.247 196.09 447.077 196.09C444.752 196.09 443.057 194.455 443.057 192.025C443.057 189.595 444.752 187.975 447.077 187.975C448.202 187.975 449.192 188.395 449.852 189.25V184.87ZM447.197 194.83C448.712 194.83 449.867 193.72 449.867 192.025C449.867 190.33 448.712 189.235 447.197 189.235C445.667 189.235 444.512 190.33 444.512 192.025C444.512 193.72 445.667 194.83 447.197 194.83ZM454.736 186.52C454.181 186.52 453.761 186.115 453.761 185.59C453.761 185.065 454.181 184.645 454.736 184.645C455.291 184.645 455.711 185.05 455.711 185.56C455.711 186.1 455.306 186.52 454.736 186.52ZM454.016 196V188.05H455.456V196H454.016ZM462.451 187.975C464.386 187.975 465.751 189.085 465.751 191.425V196H464.311V191.59C464.311 190.03 463.531 189.265 462.166 189.265C460.636 189.265 459.646 190.18 459.646 191.905V196H458.206V188.05H459.586V189.25C460.171 188.44 461.191 187.975 462.451 187.975ZM474.7 188.05H476.065V194.92C476.065 197.725 474.64 199 471.94 199C470.485 199 469.015 198.595 468.145 197.815L468.835 196.705C469.57 197.335 470.725 197.74 471.895 197.74C473.77 197.74 474.625 196.87 474.625 195.07V194.44C473.935 195.265 472.9 195.67 471.76 195.67C469.465 195.67 467.725 194.11 467.725 191.815C467.725 189.52 469.465 187.975 471.76 187.975C472.945 187.975 474.025 188.41 474.7 189.28V188.05ZM471.925 194.41C473.515 194.41 474.655 193.345 474.655 191.815C474.655 190.27 473.515 189.235 471.925 189.235C470.32 189.235 469.18 190.27 469.18 191.815C469.18 193.345 470.32 194.41 471.925 194.41ZM479.176 194.035C479.746 194.035 480.151 194.47 480.151 195.055C480.151 195.355 480.091 195.58 479.896 196.135L479.191 198.22H478.246L478.801 195.985C478.426 195.85 478.171 195.505 478.171 195.055C478.171 194.455 478.606 194.035 479.176 194.035ZM5.58 214.975C7.905 214.975 9.6 216.595 9.6 219.025C9.6 221.455 7.905 223.09 5.58 223.09C4.41 223.09 3.39 222.64 2.745 221.74V223H1.365V211.87H2.805V216.25C3.465 215.395 4.455 214.975 5.58 214.975ZM5.46 221.83C6.99 221.83 8.145 220.72 8.145 219.025C8.145 217.33 6.99 216.235 5.46 216.235C3.945 216.235 2.79 217.33 2.79 219.025C2.79 220.72 3.945 221.83 5.46 221.83ZM18.7746 219.07C18.7746 219.19 18.7596 219.37 18.7446 219.505H12.2946C12.4746 220.9 13.5996 221.83 15.1746 221.83C16.1046 221.83 16.8846 221.515 17.4696 220.87L18.2646 221.8C17.5446 222.64 16.4496 223.09 15.1296 223.09C12.5646 223.09 10.8546 221.395 10.8546 219.025C10.8546 216.67 12.5496 214.975 14.8446 214.975C17.1396 214.975 18.7746 216.625 18.7746 219.07ZM14.8446 216.19C13.4646 216.19 12.4446 217.12 12.2946 218.47H17.3946C17.2446 217.135 16.2396 216.19 14.8446 216.19ZM24.7942 221.5L25.2442 222.535C24.8092 222.91 24.1492 223.09 23.5042 223.09C21.8992 223.09 20.9842 222.205 20.9842 220.6V216.235H19.6342V215.05H20.9842V213.31H22.4242V215.05H24.7042V216.235H22.4242V220.54C22.4242 221.395 22.8742 221.875 23.6692 221.875C24.0892 221.875 24.4942 221.74 24.7942 221.5ZM37.5786 215.05H38.8686L35.8986 223H34.5186L32.2236 216.97L29.8986 223H28.5186L25.5636 215.05H26.9286L29.2386 221.38L31.6386 215.05H32.8536L35.2086 221.41L37.5786 215.05ZM47.2951 219.07C47.2951 219.19 47.2801 219.37 47.2651 219.505H40.8151C40.9951 220.9 42.1201 221.83 43.6951 221.83C44.6251 221.83 45.4051 221.515 45.9901 220.87L46.7851 221.8C46.0651 222.64 44.9701 223.09 43.6501 223.09C41.0851 223.09 39.3751 221.395 39.3751 219.025C39.3751 216.67 41.0701 214.975 43.3651 214.975C45.6601 214.975 47.2951 216.625 47.2951 219.07ZM43.3651 216.19C41.9851 216.19 40.9651 217.12 40.8151 218.47H45.9151C45.7651 217.135 44.7601 216.19 43.3651 216.19ZM56.4797 219.07C56.4797 219.19 56.4647 219.37 56.4497 219.505H49.9997C50.1797 220.9 51.3047 221.83 52.8797 221.83C53.8097 221.83 54.5897 221.515 55.1747 220.87L55.9697 221.8C55.2497 222.64 54.1547 223.09 52.8347 223.09C50.2697 223.09 48.5597 221.395 48.5597 219.025C48.5597 216.67 50.2547 214.975 52.5497 214.975C54.8447 214.975 56.4797 216.625 56.4797 219.07ZM52.5497 216.19C51.1697 216.19 50.1497 217.12 49.9997 218.47H55.0997C54.9497 217.135 53.9447 216.19 52.5497 216.19ZM62.7243 214.975C64.6593 214.975 66.0243 216.085 66.0243 218.425V223H64.5843V218.59C64.5843 217.03 63.8043 216.265 62.4393 216.265C60.9093 216.265 59.9193 217.18 59.9193 218.905V223H58.4793V215.05H59.8593V216.25C60.4443 215.44 61.4643 214.975 62.7243 214.975ZM74.9975 223.09C73.6775 223.09 72.3725 222.685 71.7125 222.16L72.3125 221.02C72.9875 221.5 74.0675 221.845 75.1025 221.845C76.4375 221.845 76.9925 221.44 76.9925 220.765C76.9925 218.98 71.9675 220.525 71.9675 217.36C71.9675 215.935 73.2425 214.975 75.2825 214.975C76.3175 214.975 77.4875 215.245 78.1775 215.695L77.5625 216.835C76.8425 216.37 76.0475 216.205 75.2675 216.205C74.0075 216.205 73.3925 216.67 73.3925 217.3C73.3925 219.175 78.4325 217.645 78.4325 220.735C78.4325 222.175 77.1125 223.09 74.9975 223.09ZM87.4172 219.07C87.4172 219.19 87.4022 219.37 87.3872 219.505H80.9372C81.1172 220.9 82.2422 221.83 83.8172 221.83C84.7472 221.83 85.5272 221.515 86.1122 220.87L86.9072 221.8C86.1872 222.64 85.0922 223.09 83.7722 223.09C81.2072 223.09 79.4972 221.395 79.4972 219.025C79.4972 216.67 81.1922 214.975 83.4872 214.975C85.7822 214.975 87.4172 216.625 87.4172 219.07ZM83.4872 216.19C82.1072 216.19 81.0872 217.12 80.9372 218.47H86.0372C85.8872 217.135 84.8822 216.19 83.4872 216.19ZM96.6018 219.07C96.6018 219.19 96.5868 219.37 96.5718 219.505H90.1218C90.3018 220.9 91.4268 221.83 93.0018 221.83C93.9318 221.83 94.7118 221.515 95.2968 220.87L96.0918 221.8C95.3718 222.64 94.2768 223.09 92.9568 223.09C90.3918 223.09 88.6818 221.395 88.6818 219.025C88.6818 216.67 90.3768 214.975 92.6718 214.975C94.9668 214.975 96.6018 216.625 96.6018 219.07ZM92.6718 216.19C91.2918 216.19 90.2718 217.12 90.1218 218.47H95.2218C95.0718 217.135 94.0668 216.19 92.6718 216.19ZM99.3213 213.52C98.7663 213.52 98.3463 213.115 98.3463 212.59C98.3463 212.065 98.7663 211.645 99.3213 211.645C99.8763 211.645 100.296 212.05 100.296 212.56C100.296 213.1 99.8913 213.52 99.3213 213.52ZM98.6013 223V215.05H100.041V223H98.6013ZM107.036 214.975C108.971 214.975 110.336 216.085 110.336 218.425V223H108.896V218.59C108.896 217.03 108.116 216.265 106.751 216.265C105.221 216.265 104.231 217.18 104.231 218.905V223H102.791V215.05H104.171V216.25C104.756 215.44 105.776 214.975 107.036 214.975ZM119.285 215.05H120.65V221.92C120.65 224.725 119.225 226 116.525 226C115.07 226 113.6 225.595 112.73 224.815L113.42 223.705C114.155 224.335 115.31 224.74 116.48 224.74C118.355 224.74 119.21 223.87 119.21 222.07V221.44C118.52 222.265 117.485 222.67 116.345 222.67C114.05 222.67 112.31 221.11 112.31 218.815C112.31 216.52 114.05 214.975 116.345 214.975C117.53 214.975 118.61 215.41 119.285 216.28V215.05ZM116.51 221.41C118.1 221.41 119.24 220.345 119.24 218.815C119.24 217.27 118.1 216.235 116.51 216.235C114.905 216.235 113.765 217.27 113.765 218.815C113.765 220.345 114.905 221.41 116.51 221.41ZM130.324 214.975C132.499 214.975 133.729 216.025 133.729 218.2V223H132.364V221.95C131.884 222.67 130.999 223.09 129.754 223.09C127.954 223.09 126.814 222.13 126.814 220.75C126.814 219.475 127.639 218.425 130.009 218.425H132.289V218.14C132.289 216.925 131.584 216.22 130.159 216.22C129.214 216.22 128.254 216.55 127.639 217.075L127.039 215.995C127.864 215.335 129.049 214.975 130.324 214.975ZM129.994 221.98C131.074 221.98 131.929 221.485 132.289 220.57V219.46H130.069C128.644 219.46 128.239 220.015 128.239 220.69C128.239 221.485 128.899 221.98 129.994 221.98ZM140.639 214.975C142.574 214.975 143.939 216.085 143.939 218.425V223H142.499V218.59C142.499 217.03 141.719 216.265 140.354 216.265C138.824 216.265 137.834 217.18 137.834 218.905V223H136.394V215.05H137.774V216.25C138.359 215.44 139.379 214.975 140.639 214.975ZM152.708 211.87H154.148V223H152.768V221.74C152.123 222.64 151.103 223.09 149.933 223.09C147.608 223.09 145.913 221.455 145.913 219.025C145.913 216.595 147.608 214.975 149.933 214.975C151.058 214.975 152.048 215.395 152.708 216.25V211.87ZM150.053 221.83C151.568 221.83 152.723 220.72 152.723 219.025C152.723 217.33 151.568 216.235 150.053 216.235C148.523 216.235 147.368 217.33 147.368 219.025C147.368 220.72 148.523 221.83 150.053 221.83ZM162.281 216.385C162.791 215.455 163.781 214.975 165.176 214.975V216.37C165.056 216.355 164.951 216.355 164.846 216.355C163.301 216.355 162.341 217.3 162.341 219.04V223H160.901V215.05H162.281V216.385ZM174.063 219.07C174.063 219.19 174.048 219.37 174.033 219.505H167.583C167.763 220.9 168.888 221.83 170.463 221.83C171.393 221.83 172.173 221.515 172.758 220.87L173.553 221.8C172.833 222.64 171.738 223.09 170.418 223.09C167.853 223.09 166.143 221.395 166.143 219.025C166.143 216.67 167.838 214.975 170.133 214.975C172.428 214.975 174.063 216.625 174.063 219.07ZM170.133 216.19C168.753 216.19 167.733 217.12 167.583 218.47H172.683C172.533 217.135 171.528 216.19 170.133 216.19ZM186.007 214.975C187.942 214.975 189.262 216.085 189.262 218.425V223H187.822V218.59C187.822 217.03 187.072 216.265 185.767 216.265C184.327 216.265 183.382 217.18 183.382 218.905V223H181.942V218.59C181.942 217.03 181.192 216.265 179.887 216.265C178.447 216.265 177.502 217.18 177.502 218.905V223H176.062V215.05H177.442V216.235C178.012 215.425 178.987 214.975 180.187 214.975C181.402 214.975 182.422 215.455 182.947 216.445C183.547 215.545 184.657 214.975 186.007 214.975ZM199.141 219.07C199.141 219.19 199.126 219.37 199.111 219.505H192.661C192.841 220.9 193.966 221.83 195.541 221.83C196.471 221.83 197.251 221.515 197.836 220.87L198.631 221.8C197.911 222.64 196.816 223.09 195.496 223.09C192.931 223.09 191.221 221.395 191.221 219.025C191.221 216.67 192.916 214.975 195.211 214.975C197.506 214.975 199.141 216.625 199.141 219.07ZM195.211 216.19C193.831 216.19 192.811 217.12 192.661 218.47H197.761C197.611 217.135 196.606 216.19 195.211 216.19ZM211.085 214.975C213.02 214.975 214.34 216.085 214.34 218.425V223H212.9V218.59C212.9 217.03 212.15 216.265 210.845 216.265C209.405 216.265 208.46 217.18 208.46 218.905V223H207.02V218.59C207.02 217.03 206.27 216.265 204.965 216.265C203.525 216.265 202.58 217.18 202.58 218.905V223H201.14V215.05H202.52V216.235C203.09 215.425 204.065 214.975 205.265 214.975C206.48 214.975 207.5 215.455 208.025 216.445C208.625 215.545 209.735 214.975 211.085 214.975ZM221.205 214.975C223.53 214.975 225.225 216.595 225.225 219.025C225.225 221.455 223.53 223.09 221.205 223.09C220.035 223.09 219.015 222.64 218.37 221.74V223H216.99V211.87H218.43V216.25C219.09 215.395 220.08 214.975 221.205 214.975ZM221.085 221.83C222.615 221.83 223.77 220.72 223.77 219.025C223.77 217.33 222.615 216.235 221.085 216.235C219.57 216.235 218.415 217.33 218.415 219.025C218.415 220.72 219.57 221.83 221.085 221.83ZM234.4 219.07C234.4 219.19 234.385 219.37 234.37 219.505H227.92C228.1 220.9 229.225 221.83 230.8 221.83C231.73 221.83 232.51 221.515 233.095 220.87L233.89 221.8C233.17 222.64 232.075 223.09 230.755 223.09C228.19 223.09 226.48 221.395 226.48 219.025C226.48 216.67 228.175 214.975 230.47 214.975C232.765 214.975 234.4 216.625 234.4 219.07ZM230.47 216.19C229.09 216.19 228.07 217.12 227.92 218.47H233.02C232.87 217.135 231.865 216.19 230.47 216.19ZM237.779 216.385C238.289 215.455 239.279 214.975 240.674 214.975V216.37C240.554 216.355 240.449 216.355 240.344 216.355C238.799 216.355 237.839 217.3 237.839 219.04V223H236.399V215.05H237.779V216.385ZM243.169 213.52C242.614 213.52 242.194 213.115 242.194 212.59C242.194 212.065 242.614 211.645 243.169 211.645C243.724 211.645 244.144 212.05 244.144 212.56C244.144 213.1 243.739 213.52 243.169 213.52ZM242.449 223V215.05H243.889V223H242.449ZM250.883 214.975C252.818 214.975 254.183 216.085 254.183 218.425V223H252.743V218.59C252.743 217.03 251.963 216.265 250.598 216.265C249.068 216.265 248.078 217.18 248.078 218.905V223H246.638V215.05H248.018V216.25C248.603 215.44 249.623 214.975 250.883 214.975ZM263.132 215.05H264.497V221.92C264.497 224.725 263.072 226 260.372 226C258.917 226 257.447 225.595 256.577 224.815L257.267 223.705C258.002 224.335 259.157 224.74 260.327 224.74C262.202 224.74 263.057 223.87 263.057 222.07V221.44C262.367 222.265 261.332 222.67 260.192 222.67C257.897 222.67 256.157 221.11 256.157 218.815C256.157 216.52 257.897 214.975 260.192 214.975C261.377 214.975 262.457 215.41 263.132 216.28V215.05ZM260.357 221.41C261.947 221.41 263.087 220.345 263.087 218.815C263.087 217.27 261.947 216.235 260.357 216.235C258.752 216.235 257.612 217.27 257.612 218.815C257.612 220.345 258.752 221.41 260.357 221.41ZM267.594 223.09C267.039 223.09 266.574 222.655 266.574 222.055C266.574 221.455 267.039 221.035 267.594 221.035C268.134 221.035 268.584 221.455 268.584 222.055C268.584 222.655 268.134 223.09 267.594 223.09ZM282.416 212.5H283.916V223H282.686L276.386 215.17V223H274.886V212.5H276.116L282.416 220.33V212.5ZM290.253 223.09C287.868 223.09 286.113 221.395 286.113 219.025C286.113 216.655 287.868 214.975 290.253 214.975C292.638 214.975 294.378 216.655 294.378 219.025C294.378 221.395 292.638 223.09 290.253 223.09ZM290.253 221.83C291.783 221.83 292.923 220.72 292.923 219.025C292.923 217.33 291.783 216.235 290.253 216.235C288.723 216.235 287.568 217.33 287.568 219.025C287.568 220.72 288.723 221.83 290.253 221.83ZM300.39 221.5L300.84 222.535C300.405 222.91 299.745 223.09 299.1 223.09C297.495 223.09 296.58 222.205 296.58 220.6V216.235H295.23V215.05H296.58V213.31H298.02V215.05H300.3V216.235H298.02V220.54C298.02 221.395 298.47 221.875 299.265 221.875C299.685 221.875 300.09 221.74 300.39 221.5ZM309.502 219.07C309.502 219.19 309.487 219.37 309.472 219.505H303.022C303.202 220.9 304.327 221.83 305.902 221.83C306.832 221.83 307.612 221.515 308.197 220.87L308.992 221.8C308.272 222.64 307.177 223.09 305.857 223.09C303.292 223.09 301.582 221.395 301.582 219.025C301.582 216.67 303.277 214.975 305.572 214.975C307.867 214.975 309.502 216.625 309.502 219.07ZM305.572 216.19C304.192 216.19 303.172 217.12 303.022 218.47H308.122C307.972 217.135 306.967 216.19 305.572 216.19ZM313.782 223.09C312.462 223.09 311.157 222.685 310.497 222.16L311.097 221.02C311.772 221.5 312.852 221.845 313.887 221.845C315.222 221.845 315.777 221.44 315.777 220.765C315.777 218.98 310.752 220.525 310.752 217.36C310.752 215.935 312.027 214.975 314.067 214.975C315.102 214.975 316.272 215.245 316.962 215.695L316.347 216.835C315.627 216.37 314.832 216.205 314.052 216.205C312.792 216.205 312.177 216.67 312.177 217.3C312.177 219.175 317.217 217.645 317.217 220.735C317.217 222.175 315.897 223.09 313.782 223.09ZM325.94 214.975C328.115 214.975 329.345 216.025 329.345 218.2V223H327.98V221.95C327.5 222.67 326.615 223.09 325.37 223.09C323.57 223.09 322.43 222.13 322.43 220.75C322.43 219.475 323.255 218.425 325.625 218.425H327.905V218.14C327.905 216.925 327.2 216.22 325.775 216.22C324.83 216.22 323.87 216.55 323.255 217.075L322.655 215.995C323.48 215.335 324.665 214.975 325.94 214.975ZM325.61 221.98C326.69 221.98 327.545 221.485 327.905 220.57V219.46H325.685C324.26 219.46 323.855 220.015 323.855 220.69C323.855 221.485 324.515 221.98 325.61 221.98ZM333.39 216.385C333.9 215.455 334.89 214.975 336.285 214.975V216.37C336.165 216.355 336.06 216.355 335.955 216.355C334.41 216.355 333.45 217.3 333.45 219.04V223H332.01V215.05H333.39V216.385ZM345.171 219.07C345.171 219.19 345.156 219.37 345.141 219.505H338.691C338.871 220.9 339.996 221.83 341.571 221.83C342.501 221.83 343.281 221.515 343.866 220.87L344.661 221.8C343.941 222.64 342.846 223.09 341.526 223.09C338.961 223.09 337.251 221.395 337.251 219.025C337.251 216.67 338.946 214.975 341.241 214.975C343.536 214.975 345.171 216.625 345.171 219.07ZM341.241 216.19C339.861 216.19 338.841 217.12 338.691 218.47H343.791C343.641 217.135 342.636 216.19 341.241 216.19ZM355.219 221.5L355.669 222.535C355.234 222.91 354.574 223.09 353.929 223.09C352.324 223.09 351.409 222.205 351.409 220.6V216.235H350.059V215.05H351.409V213.31H352.849V215.05H355.129V216.235H352.849V220.54C352.849 221.395 353.299 221.875 354.094 221.875C354.514 221.875 354.919 221.74 355.219 221.5ZM361.655 214.975C363.59 214.975 364.955 216.085 364.955 218.425V223H363.515V218.59C363.515 217.03 362.735 216.265 361.37 216.265C359.84 216.265 358.85 217.18 358.85 218.905V223H357.41V211.87H358.85V216.175C359.45 215.41 360.44 214.975 361.655 214.975ZM374.849 219.07C374.849 219.19 374.834 219.37 374.819 219.505H368.369C368.549 220.9 369.674 221.83 371.249 221.83C372.179 221.83 372.959 221.515 373.544 220.87L374.339 221.8C373.619 222.64 372.524 223.09 371.204 223.09C368.639 223.09 366.929 221.395 366.929 219.025C366.929 216.67 368.624 214.975 370.919 214.975C373.214 214.975 374.849 216.625 374.849 219.07ZM370.919 216.19C369.539 216.19 368.519 217.12 368.369 218.47H373.469C373.319 217.135 372.314 216.19 370.919 216.19ZM385.092 214.975C387.417 214.975 389.112 216.595 389.112 219.025C389.112 221.455 387.417 223.09 385.092 223.09C383.922 223.09 382.902 222.64 382.257 221.74V223H380.877V211.87H382.317V216.25C382.977 215.395 383.967 214.975 385.092 214.975ZM384.972 221.83C386.502 221.83 387.657 220.72 387.657 219.025C387.657 217.33 386.502 216.235 384.972 216.235C383.457 216.235 382.302 217.33 382.302 219.025C382.302 220.72 383.457 221.83 384.972 221.83ZM392.481 216.385C392.991 215.455 393.981 214.975 395.376 214.975V216.37C395.256 216.355 395.151 216.355 395.046 216.355C393.501 216.355 392.541 217.3 392.541 219.04V223H391.101V215.05H392.481V216.385ZM404.263 219.07C404.263 219.19 404.248 219.37 404.233 219.505H397.783C397.963 220.9 399.088 221.83 400.663 221.83C401.593 221.83 402.373 221.515 402.958 220.87L403.753 221.8C403.033 222.64 401.938 223.09 400.618 223.09C398.053 223.09 396.343 221.395 396.343 219.025C396.343 216.67 398.038 214.975 400.333 214.975C402.628 214.975 404.263 216.625 404.263 219.07ZM400.333 216.19C398.953 216.19 397.933 217.12 397.783 218.47H402.883C402.733 217.135 401.728 216.19 400.333 216.19ZM408.938 214.975C411.113 214.975 412.343 216.025 412.343 218.2V223H410.978V221.95C410.498 222.67 409.613 223.09 408.368 223.09C406.568 223.09 405.428 222.13 405.428 220.75C405.428 219.475 406.253 218.425 408.623 218.425H410.903V218.14C410.903 216.925 410.198 216.22 408.773 216.22C407.828 216.22 406.868 216.55 406.253 217.075L405.653 215.995C406.478 215.335 407.663 214.975 408.938 214.975ZM408.608 221.98C409.688 221.98 410.543 221.485 410.903 220.57V219.46H408.683C407.258 219.46 406.853 220.015 406.853 220.69C406.853 221.485 407.513 221.98 408.608 221.98ZM421.112 211.87H422.552V223H421.172V221.74C420.527 222.64 419.507 223.09 418.337 223.09C416.012 223.09 414.317 221.455 414.317 219.025C414.317 216.595 416.012 214.975 418.337 214.975C419.462 214.975 420.452 215.395 421.112 216.25V211.87ZM418.457 221.83C419.972 221.83 421.127 220.72 421.127 219.025C421.127 217.33 419.972 216.235 418.457 216.235C416.927 216.235 415.772 217.33 415.772 219.025C415.772 220.72 416.927 221.83 418.457 221.83ZM428.741 223.09C426.296 223.09 424.541 221.395 424.541 219.025C424.541 216.655 426.296 214.975 428.741 214.975C430.166 214.975 431.351 215.56 431.981 216.67L430.886 217.375C430.376 216.595 429.596 216.235 428.726 216.235C427.166 216.235 425.996 217.33 425.996 219.025C425.996 220.75 427.166 221.83 428.726 221.83C429.596 221.83 430.376 221.47 430.886 220.69L431.981 221.38C431.351 222.49 430.166 223.09 428.741 223.09ZM435.225 216.385C435.735 215.455 436.725 214.975 438.12 214.975V216.37C438 216.355 437.895 216.355 437.79 216.355C436.245 216.355 435.285 217.3 435.285 219.04V223H433.845V215.05H435.225V216.385ZM445.968 215.05H447.408V223H446.043V221.8C445.458 222.625 444.468 223.09 443.343 223.09C441.288 223.09 439.923 221.965 439.923 219.625V215.05H441.363V219.46C441.363 221.02 442.143 221.8 443.508 221.8C445.008 221.8 445.968 220.87 445.968 219.16V215.05ZM460.094 214.975C462.029 214.975 463.349 216.085 463.349 218.425V223H461.909V218.59C461.909 217.03 461.159 216.265 459.854 216.265C458.414 216.265 457.469 217.18 457.469 218.905V223H456.029V218.59C456.029 217.03 455.279 216.265 453.974 216.265C452.534 216.265 451.589 217.18 451.589 218.905V223H450.149V215.05H451.529V216.235C452.099 215.425 453.074 214.975 454.274 214.975C455.489 214.975 456.509 215.455 457.034 216.445C457.634 215.545 458.744 214.975 460.094 214.975ZM470.214 214.975C472.539 214.975 474.234 216.595 474.234 219.025C474.234 221.455 472.539 223.09 470.214 223.09C469.044 223.09 468.024 222.64 467.379 221.74V223H465.999V211.87H467.439V216.25C468.099 215.395 469.089 214.975 470.214 214.975ZM470.094 221.83C471.624 221.83 472.779 220.72 472.779 219.025C472.779 217.33 471.624 216.235 470.094 216.235C468.579 216.235 467.424 217.33 467.424 219.025C467.424 220.72 468.579 221.83 470.094 221.83ZM478.503 223.09C477.183 223.09 475.878 222.685 475.218 222.16L475.818 221.02C476.493 221.5 477.573 221.845 478.608 221.845C479.943 221.845 480.498 221.44 480.498 220.765C480.498 218.98 475.473 220.525 475.473 217.36C475.473 215.935 476.748 214.975 478.788 214.975C479.823 214.975 480.993 215.245 481.683 215.695L481.068 216.835C480.348 216.37 479.553 216.205 478.773 216.205C477.513 216.205 476.898 216.67 476.898 217.3C476.898 219.175 481.938 217.645 481.938 220.735C481.938 222.175 480.618 223.09 478.503 223.09ZM1.365 250V238.87H2.805V250H1.365ZM12.7395 246.07C12.7395 246.19 12.7245 246.37 12.7095 246.505H6.25945C6.43945 247.9 7.56445 248.83 9.13945 248.83C10.0695 248.83 10.8495 248.515 11.4345 247.87L12.2295 248.8C11.5095 249.64 10.4145 250.09 9.09445 250.09C6.52945 250.09 4.81945 248.395 4.81945 246.025C4.81945 243.67 6.51445 241.975 8.80945 241.975C11.1045 241.975 12.7395 243.625 12.7395 246.07ZM8.80945 243.19C7.42945 243.19 6.40945 244.12 6.25945 245.47H11.3595C11.2095 244.135 10.2045 243.19 8.80945 243.19ZM17.4143 241.975C19.5893 241.975 20.8193 243.025 20.8193 245.2V250H19.4543V248.95C18.9743 249.67 18.0893 250.09 16.8443 250.09C15.0443 250.09 13.9043 249.13 13.9043 247.75C13.9043 246.475 14.7293 245.425 17.0993 245.425H19.3793V245.14C19.3793 243.925 18.6743 243.22 17.2493 243.22C16.3043 243.22 15.3443 243.55 14.7293 244.075L14.1293 242.995C14.9543 242.335 16.1393 241.975 17.4143 241.975ZM17.0843 248.98C18.1643 248.98 19.0193 248.485 19.3793 247.57V246.46H17.1593C15.7343 246.46 15.3293 247.015 15.3293 247.69C15.3293 248.485 15.9893 248.98 17.0843 248.98ZM29.5881 238.87H31.0281V250H29.6481V248.74C29.0031 249.64 27.9831 250.09 26.8131 250.09C24.4881 250.09 22.7931 248.455 22.7931 246.025C22.7931 243.595 24.4881 241.975 26.8131 241.975C27.9381 241.975 28.9281 242.395 29.5881 243.25V238.87ZM26.9331 248.83C28.4481 248.83 29.6031 247.72 29.6031 246.025C29.6031 244.33 28.4481 243.235 26.9331 243.235C25.4031 243.235 24.2481 244.33 24.2481 246.025C24.2481 247.72 25.4031 248.83 26.9331 248.83ZM34.4727 240.52C33.9177 240.52 33.4977 240.115 33.4977 239.59C33.4977 239.065 33.9177 238.645 34.4727 238.645C35.0277 238.645 35.4477 239.05 35.4477 239.56C35.4477 240.1 35.0427 240.52 34.4727 240.52ZM33.7527 250V242.05H35.1927V250H33.7527ZM42.1871 241.975C44.1221 241.975 45.4871 243.085 45.4871 245.425V250H44.0471V245.59C44.0471 244.03 43.2671 243.265 41.9021 243.265C40.3721 243.265 39.3821 244.18 39.3821 245.905V250H37.9421V242.05H39.3221V243.25C39.9071 242.44 40.9271 241.975 42.1871 241.975ZM54.4361 242.05H55.8011V248.92C55.8011 251.725 54.3761 253 51.6761 253C50.2211 253 48.7511 252.595 47.8811 251.815L48.5711 250.705C49.3061 251.335 50.4611 251.74 51.6311 251.74C53.5061 251.74 54.3611 250.87 54.3611 249.07V248.44C53.6711 249.265 52.6361 249.67 51.4961 249.67C49.2011 249.67 47.4611 248.11 47.4611 245.815C47.4611 243.52 49.2011 241.975 51.4961 241.975C52.6811 241.975 53.7611 242.41 54.4361 243.28V242.05ZM51.6611 248.41C53.2511 248.41 54.3911 247.345 54.3911 245.815C54.3911 244.27 53.2511 243.235 51.6611 243.235C50.0561 243.235 48.9161 244.27 48.9161 245.815C48.9161 247.345 50.0561 248.41 51.6611 248.41ZM66.6008 248.5L67.0508 249.535C66.6158 249.91 65.9558 250.09 65.3108 250.09C63.7058 250.09 62.7908 249.205 62.7908 247.6V243.235H61.4408V242.05H62.7908V240.31H64.2308V242.05H66.5108V243.235H64.2308V247.54C64.2308 248.395 64.6808 248.875 65.4758 248.875C65.8958 248.875 66.3008 248.74 66.6008 248.5ZM71.9331 250.09C69.5481 250.09 67.7931 248.395 67.7931 246.025C67.7931 243.655 69.5481 241.975 71.9331 241.975C74.3181 241.975 76.0581 243.655 76.0581 246.025C76.0581 248.395 74.3181 250.09 71.9331 250.09ZM71.9331 248.83C73.4631 248.83 74.6031 247.72 74.6031 246.025C74.6031 244.33 73.4631 243.235 71.9331 243.235C70.4031 243.235 69.2481 244.33 69.2481 246.025C69.2481 247.72 70.4031 248.83 71.9331 248.83ZM86.0979 248.5L86.5479 249.535C86.1129 249.91 85.4529 250.09 84.8079 250.09C83.2029 250.09 82.2879 249.205 82.2879 247.6V243.235H80.9379V242.05H82.2879V240.31H83.7279V242.05H86.0079V243.235H83.7279V247.54C83.7279 248.395 84.1779 248.875 84.9729 248.875C85.3929 248.875 85.7979 248.74 86.0979 248.5ZM92.5338 241.975C94.4688 241.975 95.8338 243.085 95.8338 245.425V250H94.3938V245.59C94.3938 244.03 93.6138 243.265 92.2488 243.265C90.7188 243.265 89.7288 244.18 89.7288 245.905V250H88.2888V238.87H89.7288V243.175C90.3288 242.41 91.3188 241.975 92.5338 241.975ZM105.728 246.07C105.728 246.19 105.713 246.37 105.698 246.505H99.2477C99.4277 247.9 100.553 248.83 102.128 248.83C103.058 248.83 103.838 248.515 104.423 247.87L105.218 248.8C104.498 249.64 103.403 250.09 102.083 250.09C99.5177 250.09 97.8077 248.395 97.8077 246.025C97.8077 243.67 99.5027 241.975 101.798 241.975C104.093 241.975 105.728 243.625 105.728 246.07ZM101.798 243.19C100.418 243.19 99.3977 244.12 99.2477 245.47H104.348C104.198 244.135 103.193 243.19 101.798 243.19ZM114.666 239.965C113.811 239.965 113.376 240.445 113.376 241.36V242.05H115.686V243.235H113.406V250H111.966V243.235H110.616V242.05H111.966V241.345C111.966 239.8 112.896 238.78 114.591 238.78C115.206 238.78 115.806 238.93 116.211 239.245L115.776 240.34C115.476 240.115 115.086 239.965 114.666 239.965ZM124.112 246.07C124.112 246.19 124.097 246.37 124.082 246.505H117.632C117.812 247.9 118.937 248.83 120.512 248.83C121.442 248.83 122.222 248.515 122.807 247.87L123.602 248.8C122.882 249.64 121.787 250.09 120.467 250.09C117.902 250.09 116.192 248.395 116.192 246.025C116.192 243.67 117.887 241.975 120.182 241.975C122.477 241.975 124.112 243.625 124.112 246.07ZM120.182 243.19C118.802 243.19 117.782 244.12 117.632 245.47H122.732C122.582 244.135 121.577 243.19 120.182 243.19ZM128.786 241.975C130.961 241.975 132.191 243.025 132.191 245.2V250H130.826V248.95C130.346 249.67 129.461 250.09 128.216 250.09C126.416 250.09 125.276 249.13 125.276 247.75C125.276 246.475 126.101 245.425 128.471 245.425H130.751V245.14C130.751 243.925 130.046 243.22 128.621 243.22C127.676 243.22 126.716 243.55 126.101 244.075L125.501 242.995C126.326 242.335 127.511 241.975 128.786 241.975ZM128.456 248.98C129.536 248.98 130.391 248.485 130.751 247.57V246.46H128.531C127.106 246.46 126.701 247.015 126.701 247.69C126.701 248.485 127.361 248.98 128.456 248.98ZM137.136 250.09C135.816 250.09 134.511 249.685 133.851 249.16L134.451 248.02C135.126 248.5 136.206 248.845 137.241 248.845C138.576 248.845 139.131 248.44 139.131 247.765C139.131 245.98 134.106 247.525 134.106 244.36C134.106 242.935 135.381 241.975 137.421 241.975C138.456 241.975 139.626 242.245 140.316 242.695L139.701 243.835C138.981 243.37 138.186 243.205 137.406 243.205C136.146 243.205 135.531 243.67 135.531 244.3C135.531 246.175 140.571 244.645 140.571 247.735C140.571 249.175 139.251 250.09 137.136 250.09ZM146.391 248.5L146.841 249.535C146.406 249.91 145.746 250.09 145.101 250.09C143.496 250.09 142.581 249.205 142.581 247.6V243.235H141.231V242.05H142.581V240.31H144.021V242.05H146.301V243.235H144.021V247.54C144.021 248.395 144.471 248.875 145.266 248.875C145.686 248.875 146.091 248.74 146.391 248.5ZM156.015 250.09C153.63 250.09 151.875 248.395 151.875 246.025C151.875 243.655 153.63 241.975 156.015 241.975C158.4 241.975 160.14 243.655 160.14 246.025C160.14 248.395 158.4 250.09 156.015 250.09ZM156.015 248.83C157.545 248.83 158.685 247.72 158.685 246.025C158.685 244.33 157.545 243.235 156.015 243.235C154.485 243.235 153.33 244.33 153.33 246.025C153.33 247.72 154.485 248.83 156.015 248.83ZM165.042 239.965C164.187 239.965 163.752 240.445 163.752 241.36V242.05H166.062V243.235H163.782V250H162.342V243.235H160.992V242.05H162.342V241.345C162.342 239.8 163.272 238.78 164.967 238.78C165.582 238.78 166.182 238.93 166.587 239.245L166.152 240.34C165.852 240.115 165.462 239.965 165.042 239.965ZM177.523 250L174.538 246.295L172.888 247.825V250H171.448V238.87H172.888V246.01L177.223 242.05H178.963L175.618 245.335L179.293 250H177.523ZM184.834 241.975C186.769 241.975 188.134 243.085 188.134 245.425V250H186.694V245.59C186.694 244.03 185.914 243.265 184.549 243.265C183.019 243.265 182.029 244.18 182.029 245.905V250H180.589V242.05H181.969V243.25C182.554 242.44 183.574 241.975 184.834 241.975ZM194.248 250.09C191.863 250.09 190.108 248.395 190.108 246.025C190.108 243.655 191.863 241.975 194.248 241.975C196.633 241.975 198.373 243.655 198.373 246.025C198.373 248.395 196.633 250.09 194.248 250.09ZM194.248 248.83C195.778 248.83 196.918 247.72 196.918 246.025C196.918 244.33 195.778 243.235 194.248 243.235C192.718 243.235 191.563 244.33 191.563 246.025C191.563 247.72 192.718 248.83 194.248 248.83ZM210.884 242.05H212.174L209.204 250H207.824L205.529 243.97L203.204 250H201.824L198.869 242.05H200.234L202.544 248.38L204.944 242.05H206.159L208.514 248.41L210.884 242.05ZM213.636 250V238.87H215.076V250H213.636ZM225.01 246.07C225.01 246.19 224.995 246.37 224.98 246.505H218.53C218.71 247.9 219.835 248.83 221.41 248.83C222.34 248.83 223.12 248.515 223.705 247.87L224.5 248.8C223.78 249.64 222.685 250.09 221.365 250.09C218.8 250.09 217.09 248.395 217.09 246.025C217.09 243.67 218.785 241.975 221.08 241.975C223.375 241.975 225.01 243.625 225.01 246.07ZM221.08 243.19C219.7 243.19 218.68 244.12 218.53 245.47H223.63C223.48 244.135 222.475 243.19 221.08 243.19ZM233.07 238.87H234.51V250H233.13V248.74C232.485 249.64 231.465 250.09 230.295 250.09C227.97 250.09 226.275 248.455 226.275 246.025C226.275 243.595 227.97 241.975 230.295 241.975C231.42 241.975 232.41 242.395 233.07 243.25V238.87ZM230.415 248.83C231.93 248.83 233.085 247.72 233.085 246.025C233.085 244.33 231.93 243.235 230.415 243.235C228.885 243.235 227.73 244.33 227.73 246.025C227.73 247.72 228.885 248.83 230.415 248.83ZM243.474 242.05H244.839V248.92C244.839 251.725 243.414 253 240.714 253C239.259 253 237.789 252.595 236.919 251.815L237.609 250.705C238.344 251.335 239.499 251.74 240.669 251.74C242.544 251.74 243.399 250.87 243.399 249.07V248.44C242.709 249.265 241.674 249.67 240.534 249.67C238.239 249.67 236.499 248.11 236.499 245.815C236.499 243.52 238.239 241.975 240.534 241.975C241.719 241.975 242.799 242.41 243.474 243.28V242.05ZM240.699 248.41C242.289 248.41 243.429 247.345 243.429 245.815C243.429 244.27 242.289 243.235 240.699 243.235C239.094 243.235 237.954 244.27 237.954 245.815C237.954 247.345 239.094 248.41 240.699 248.41ZM254.776 246.07C254.776 246.19 254.761 246.37 254.746 246.505H248.296C248.476 247.9 249.601 248.83 251.176 248.83C252.106 248.83 252.886 248.515 253.471 247.87L254.266 248.8C253.546 249.64 252.451 250.09 251.131 250.09C248.566 250.09 246.856 248.395 246.856 246.025C246.856 243.67 248.551 241.975 250.846 241.975C253.141 241.975 254.776 243.625 254.776 246.07ZM250.846 243.19C249.466 243.19 248.446 244.12 248.296 245.47H253.396C253.246 244.135 252.241 243.19 250.846 243.19ZM261.148 250.09C260.593 250.09 260.128 249.655 260.128 249.055C260.128 248.455 260.593 248.035 261.148 248.035C261.688 248.035 262.138 248.455 262.138 249.055C262.138 249.655 261.688 250.09 261.148 250.09Z" fill="black" fill-opacity="0.7"/>
<path opacity="0.7" d="M687.52 259.18C687.52 259.18 677.23 330.8 732.09 323.56C786.95 316.32 844.09 216.51 808.28 233.27C772.47 250.03 778.57 317.84 802.57 324.32C823.74 330.03 868.09 306.42 924.86 228.32" stroke="#00A9FF" stroke-miterlimit="10"/>
<path opacity="0.7" d="M890.57 54.2199C890.57 54.2199 986.72 -20.6701 1045.51 7.95989C1058.08 14.0799 1064.51 28.4899 1060.58 41.9099C1056.08 57.2599 1042.75 79.5199 1006.89 106.03C1005.09 107.36 1002.75 105.2 1003.97 103.32C1007.01 98.6099 1019.1 87.7599 1045.24 74.7999C1092.86 51.1799 1148.1 61.4699 1140.1 80.1299C1132.1 98.7899 1119.91 104.51 1119.91 104.51" stroke="#00A9FF" stroke-miterlimit="10"/>
<mask id="mask0_532_3969" style="mask-type:luminance" maskUnits="userSpaceOnUse" x="583" y="160" width="144" height="106">
<path d="M718.38 160.89H592.28C587.547 160.89 583.71 164.727 583.71 169.46V257.27C583.71 262.003 587.547 265.84 592.28 265.84H718.38C723.113 265.84 726.95 262.003 726.95 257.27V169.46C726.95 164.727 723.113 160.89 718.38 160.89Z" fill="white"/>
</mask>
<g mask="url(#mask0_532_3969)">
<path opacity="0.7" d="M718.38 160.89H592.28C587.547 160.89 583.71 164.727 583.71 169.46V257.27C583.71 262.003 587.547 265.84 592.28 265.84H718.38C723.113 265.84 726.95 262.003 726.95 257.27V169.46C726.95 164.727 723.113 160.89 718.38 160.89Z" fill="#0C359E"/>
<path d="M583.65 167.49L726.95 167.37" stroke="white" stroke-miterlimit="10"/>
<path d="M602.13 266.54L604.16 258.16L607.46 251.75L611.78 245.72L614.06 242.73L616.73 244.76L636.79 234.29L639.71 230.48L645.24 230.99L658.76 228.89L671.21 224.89L683.27 227.62L696.48 234.16L698.19 205.59L721.17 206.73L721.43 223.49L720.67 242.22L718.76 258.1L716.41 266.92L602.13 266.54Z" fill="#F6F5F5"/>
<path d="M670.25 224.89L655.52 224.51L642.7 227.05L640.41 228.57L639.65 230.99H645.24L653.05 229.94L663.33 227.37L670.25 224.89Z" fill="#FFAB97"/>
<path d="M656.54 198.16L661.94 206.48L661.24 208.07L662.51 214.41L662.95 220.45L660.29 222.54L652.35 224.64L644.54 224.19L641.68 223.11L641.38 218.18L638 216.32L635.71 211.94L636.41 209.59L638.19 209.53H641.68L646.51 208.83L650.13 207.05L653.43 203.62" fill="#FFAB97"/>
<path d="M698.19 205.59L721.17 206.73L720.34 186.98L721.99 175.04L721.1 172.88L718.37 172.5L717.67 170.72L715.77 169.45C715.77 169.45 713.51 169.65 713.29 170.08C713.07 170.51 712.4 171.48 712.4 171.48L710.37 170.34L707.83 171.17L703.13 187.49L700.72 179.3L699.32 178.6L696.78 179.11L695.7 181.52L698.18 205.58L698.19 205.59Z" fill="#FFAB97"/>
<path d="M656.48 197.91L653.87 193.97L649.62 192.64L641.76 193.56L636.24 196.51L631.95 202.37L628.35 209.65L625.62 213.99L621.38 216.7L607.19 216.89L601 218.7L597.33 223.89L596 227.8L616.73 244.76L636.79 234.29L640.52 228.37L641.67 218.46L638.14 216.53L635.6 211.65L636.4 209.75L637.93 209.56L644.6 209.6L648.69 208.08L652.76 204.32L656.48 197.91Z" fill="#00A9FF"/>
<path d="M616.73 244.76L610.06 246.29L603.27 245.4L598.06 240.83L595.84 232.38L596.54 226.22L616.73 244.76Z" fill="#00A9FF"/>
<path d="M640.87 227.6C668.74 219.21 688.74 229.33 696.25 234.23" stroke="black" stroke-miterlimit="10"/>
<path d="M611.71 246.03C604.92 254.35 602.8 262.2 602.26 265.84" stroke="black" stroke-miterlimit="10"/>
<path d="M695.27 246.35C696.03 240.06 698.1 205.65 698.1 205.65L721.24 206.6C721.24 206.6 722.34 251.51 716.73 266.41" stroke="black" stroke-miterlimit="10"/>
<path d="M683.21 258.67C683.21 258.67 684.92 266.04 685.56 267.05" stroke="black" stroke-miterlimit="10"/>
<path d="M632.79 262.6L633.05 266.8" stroke="black" stroke-miterlimit="10"/>
<path d="M656.76 206.88C657.075 206.88 657.33 206.566 657.33 206.18C657.33 205.793 657.075 205.48 656.76 205.48C656.445 205.48 656.19 205.793 656.19 206.18C656.19 206.566 656.445 206.88 656.76 206.88Z" stroke="black" stroke-miterlimit="10"/>
<path d="M658.83 214.73C658.83 214.73 661.27 214.62 662.29 213.22" stroke="black" stroke-miterlimit="10"/>
<path d="M654.29 205.13C654.29 205.13 655.24 203.65 656.67 203.18L655.99 203.38C655.45 203.54 654.99 203.89 654.71 204.38L654.29 205.1" stroke="black" stroke-width="0.5" stroke-linecap="round" stroke-linejoin="round"/>
<path d="M638.38 212.45C638.38 212.45 640.73 211.24 642.32 212.32" stroke="black" stroke-width="0.7" stroke-linejoin="round"/>
<path d="M698.1 205.65L695.84 181.49C695.72 180.17 696.59 178.96 697.89 178.66L698.63 178.49C699.76 178.23 700.89 178.93 701.17 180.06L703.1 187.76C703.1 187.76 703.16 187.8 703.17 187.76C703.39 186.35 704.92 176.74 707.21 172.4C707.8 171.28 709.04 170.66 710.3 170.81L712.58 171.08L709.06 187.84" stroke="black" stroke-miterlimit="10"/>
<path d="M712.57 171.08L713.08 170.53C713.66 169.92 714.49 169.62 715.33 169.73L716.12 169.84C716.98 169.96 717.7 170.55 717.97 171.37C717.99 171.43 717.99 171.48 717.98 171.54L715.23 185.74" stroke="black" stroke-miterlimit="10"/>
<path d="M718 172.51L719.63 172.67C720.93 172.79 721.87 173.96 721.71 175.26L720.98 181.19C720.58 184.42 720.45 187.68 720.59 190.94L721.24 206.62" stroke="black" stroke-miterlimit="10"/>
<path d="M639.37 230.72C652.55 232.07 671.08 225.08 671.08 225.08" stroke="black" stroke-miterlimit="10"/>
<path d="M703.4 191.49C703.4 191.49 706.83 192.38 707.59 198.86" stroke="black" stroke-miterlimit="10"/>
<path d="M641.62 218.67C641.62 218.67 641.49 226.29 640.73 228C639.97 229.71 638 233.71 635.97 234.73C634.38 235.52 623.52 241.21 618.85 243.65C616.19 245.04 613.29 245.97 610.29 246.2C604.71 246.63 597.34 244.93 596.06 233.44C595.64 229.65 596.27 225.76 598.16 222.44C599.1 220.79 600.34 219.19 601.94 218.29C606.19 215.88 619.72 217.02 620.48 216.96C621.24 216.9 625.88 215.94 628.35 209.66C630.82 203.38 635.33 196.64 639.08 194.93C642.83 193.22 646.25 192.2 651.52 193.09C654.57 193.6 656.54 198.17 656.54 198.17C656.54 198.17 660.79 204.96 661.62 205.85C662.45 206.74 661.24 208.07 661.24 208.07C661.24 208.07 663.65 218.74 662.64 220.58C661.63 222.42 656.67 223.75 656.67 223.75C656.67 223.75 647.53 225.78 641.37 223.05" stroke="black" stroke-miterlimit="10"/>
<path d="M656.22 197.65C656.22 197.65 653.33 206.46 647.85 208.46C642.37 210.46 637.42 209.6 637.42 209.6C637.42 209.6 634.8 209.74 636.09 213.08C637.38 216.42 639.66 217.37 641.38 218.18L643.28 218.37" stroke="black" stroke-miterlimit="10"/>
</g>
<mask id="mask1_532_3969" style="mask-type:luminance" maskUnits="userSpaceOnUse" x="734" y="40" width="163" height="120">
<path d="M886.74 40.9199H744C738.532 40.9199 734.1 45.3523 734.1 50.8199V149.88C734.1 155.348 738.532 159.78 744 159.78H886.74C892.208 159.78 896.64 155.348 896.64 149.88V50.8199C896.64 45.3523 892.208 40.9199 886.74 40.9199Z" fill="white"/>
</mask>
<g mask="url(#mask1_532_3969)">
<path d="M886.74 40.9199H744C738.532 40.9199 734.1 45.3523 734.1 50.8199V149.88C734.1 155.348 738.532 159.78 744 159.78H886.74C892.208 159.78 896.64 155.348 896.64 149.88V50.8199C896.64 45.3523 892.208 40.9199 886.74 40.9199Z" fill="#F6F5F5"/>
<path d="M734.89 46.2199L895.78 46.3499" stroke="white" stroke-miterlimit="10"/>
<path d="M759.62 116.03L773.52 114.22L783.05 112.03L784.86 123.37L788.76 118.41L796 111.84L805.52 107.18L815.52 104.7L823.52 104.32L836 104.99L845.14 107.37L856.67 113.84L863.24 121.37L865.9 124.8L871.52 135.08L875.43 150.13L876.57 155.75L877.14 160.6L758.48 161.18L759.62 116.03Z" fill="#63B4B8"/>
<path d="M783.05 112.03L783.33 96.1299L782.48 94.7999L779.24 93.4599L773.14 79.7499L771.24 79.0799L769.05 80.8899L773.71 91.9399L769.62 90.5099L767.71 91.3699L761.9 92.0299L757.62 98.1299L757.43 101.18L759.24 101.94V115.94L770.38 114.6L783.05 112.03Z" fill="#FFE3CA"/>
<path d="M807.9 106.8C807.9 106.8 821.28 116.47 837.52 105.18L820.76 104.18L807.9 106.8Z" fill="#FFE3CA"/>
<path d="M841.57 106.46C841.57 106.46 831.28 114.79 820.95 114.75C810.62 114.71 802.85 108.61 802.85 108.61L807.61 106.75L814.61 109.8L822.47 110.85L830.76 109.37L837.52 105.18L841.57 106.47V106.46Z" fill="#0F8484"/>
<path d="M810 81.8399L812.24 81.8899L815.81 80.1799L818.71 77.8899L820.71 77.6499L822.29 80.5999L824.9 83.7999L828.48 86.5599L831.38 87.4099L833.57 87.1299L836.1 87.0799L838.24 89.1299L838.81 92.0299L837.95 94.0799L835.81 95.7999L834.05 96.4099L830.86 100.13L823.81 103.18L817.1 103.22L813.19 101.56L810.19 97.7999L808.81 92.9899L810 81.8399Z" fill="#FFE3CA"/>
<path d="M810 81.8399L811.05 78.3199L814.19 74.89L817.9 73.5599H822.48L827.52 74.4099L832.38 75.8399L834.67 78.4099L835.62 83.8399L835.33 86.5999L831.52 87.9399L828.48 86.5599L823.71 82.5999L821.24 77.9399L819.52 77.4599L816.48 80.0299L812.24 81.89L810 81.8399Z" fill="#3A3A3A"/>
<path d="M784.74 123.3C792.2 113.13 804.42 104.62 824.38 104.13C875.33 102.89 877.17 160.19 877.17 160.19" stroke="black" stroke-miterlimit="10"/>
<path d="M837.68 105.34C837.68 105.34 825.87 116.45 807.39 106.93" stroke="black" stroke-miterlimit="10"/>
<path d="M841.62 106.35C841.62 106.35 825.87 123.37 802.76 108.7" stroke="black" stroke-miterlimit="10"/>
<path d="M810.1 81.8399C809.24 85.5399 808.97 90.4999 809.16 93.7099C809.45 98.5799 813.12 102.65 817.96 103.25C829.29 104.66 833.91 96.4099 833.91 96.4099C833.91 96.4099 837.15 95.5799 838.35 93.1099C839.55 90.6399 838.29 87.8999 835.87 87.0799C833.45 86.2599 829.71 88.7899 829.71 88.7899" stroke="black" stroke-miterlimit="10"/>
<path d="M841.37 145.14L842.63 144L837.81 140.89L833.05 137.46L827.71 132.95L826.19 132.26L824.22 133.72L823.78 136.32L826 139.75L819.9 137.78L813.94 135.18L811.46 133.78L809.49 134.22L808.86 135.94L809.81 137.34L808.6 137.91L808.86 140.64L810.76 142.67L810 145.84L811.84 149.65L816.79 154.22L822.57 157.91L826.32 159.81L831.4 160.38L833.81 155.37L841.37 145.14Z" fill="#FFE3CA"/>
<path d="M832.1 87.5099C824.84 86.8699 821.71 79.4799 821.15 77.9699C821.09 77.8099 820.93 77.6999 820.76 77.7099L819.77 77.7399C819.4 77.7399 819.05 77.8899 818.77 78.1299C812.92 83.1499 810.01 81.6599 810.01 81.6599C810.39 79.7399 811.36 78.1599 812.43 76.9299C814.3 74.7799 817.04 73.5999 819.9 73.6399C823.72 73.6999 829.78 74.2299 833.16 76.6999C833.16 76.6999 835.92 78.3199 835.35 86.7999" stroke="black" stroke-miterlimit="10"/>
<path d="M815.49 86.95C815.49 86.95 813.9 92.5399 814.28 93.1099C814.66 93.6799 815.93 93.4299 815.93 93.4299" stroke="black" stroke-width="0.7" stroke-miterlimit="10"/>
<path d="M819.64 87.0899C819.905 87.0899 820.12 86.8212 820.12 86.4899C820.12 86.1585 819.905 85.8899 819.64 85.8899C819.375 85.8899 819.16 86.1585 819.16 86.4899C819.16 86.8212 819.375 87.0899 819.64 87.0899Z" stroke="black" stroke-width="0.7" stroke-miterlimit="10"/>
<path d="M818.62 83.2699L821.57 84.1999L821.49 84.0999C820.86 83.2899 819.8 82.9399 818.81 83.2199L818.62 83.2699Z" stroke="black" stroke-width="0.7" stroke-linecap="round" stroke-linejoin="round"/>
<path d="M812.874 86.3032C812.922 85.9976 812.762 85.7188 812.516 85.6804C812.271 85.642 812.033 85.8585 811.985 86.1641C811.937 86.4697 812.098 86.7485 812.343 86.787C812.589 86.8254 812.827 86.6088 812.874 86.3032Z" stroke="black" stroke-width="0.7" stroke-miterlimit="10"/>
<path d="M813.85 83.3699L810.96 83.8099L811.05 83.7299C811.76 83.0699 812.8 82.8899 813.68 83.2999L813.85 83.3799V83.3699Z" stroke="black" stroke-width="0.7" stroke-linecap="round" stroke-linejoin="round"/>
<path d="M813.43 96.6399C813.43 96.6399 815.33 98.5399 818.19 96.7699" stroke="black" stroke-width="0.7" stroke-miterlimit="10"/>
<path d="M832.57 89.6199C832.57 89.6199 834.64 88.4499 835.78 88.9599" stroke="black" stroke-width="0.7" stroke-miterlimit="10"/>
<path d="M787.71 149.08C786.88 136.19 783.08 112.25 783.08 112.25C777.43 114.28 759.46 115.81 759.46 115.81C759.46 115.81 758.32 146.29 758.38 160.51" stroke="black" stroke-miterlimit="10"/>
<path d="M783.08 112.26L783.19 96.5199C783.19 95.4099 782.51 94.4199 781.46 94.0399L780.08 93.5399C779.61 93.3699 779.09 93.4599 778.7 93.7599L772.6 98.5699C772.32 98.7899 772.14 99.1199 772.11 99.4799C772.02 100.67 772.45 101.84 773.31 102.68C773.85 103.2 774.36 103.68 774.44 103.68C774.57 103.68 775.37 103.31 775.86 103.09C776.1 102.98 776.32 102.84 776.53 102.67L778.9 100.75C779.31 100.42 779.8 100.21 780.32 100.15L781.17 100.05" stroke="black" stroke-miterlimit="10"/>
<path d="M779.33 93.2699L773.3 80.0399C773 79.3799 772.29 79.0199 771.58 79.1599L770.73 79.3299C769.89 79.4999 769.28 80.2199 769.26 81.0799C769.24 81.8299 769.39 82.5799 769.69 83.2699L773.55 91.9999" stroke="black" stroke-miterlimit="10"/>
<path d="M774.7 92.4499L770.1 90.6699C769.79 90.5499 769.45 90.5299 769.13 90.6199C768.38 90.8199 767.7 91.2499 767.2 91.8499L764.26 95.3599C762.81 97.0899 762.02 99.2899 762.06 101.55C762.06 102.13 762.38 102.67 762.89 102.96L763.23 103.16C763.73 103.45 764.35 103.46 764.87 103.18L765.35 102.92C765.94 102.6 766.41 102.09 766.67 101.47L767.27 100.07L768.16 98.4799L770.89 95.5599" stroke="black" stroke-miterlimit="10"/>
<path d="M768.1 91.3699L764.46 91.5199C763 91.5799 761.66 92.3499 760.86 93.5799L758.13 97.8199C757.59 98.6499 757.36 99.6499 757.46 100.63C757.55 101.52 758.32 102.18 759.21 102.12L762.05 101.53" stroke="black" stroke-miterlimit="10"/>
<path d="M759.27 102.03C759.27 102.03 758.64 108.51 759.33 115.93" stroke="black" stroke-miterlimit="10"/>
<path d="M859.84 154.92L842.06 144.13C842.06 144.13 834.63 152.19 831.2 160.45" stroke="black" stroke-miterlimit="10"/>
<path d="M819.57 143.08C816.3 142.01 810.24 137.59 809.09 136.75C808.97 136.66 808.92 136.52 808.95 136.37L809.24 134.86C809.35 134.29 809.83 133.87 810.4 133.83C811.31 133.77 812.2 134.03 812.96 134.54C816.65 137 826.56 140.07 826.56 140.07L824.47 137.19C824.09 136.67 823.89 136.04 823.89 135.4V135.1C823.89 134.4 824.25 133.75 824.84 133.38L825.7 132.84C826.08 132.6 826.55 132.54 826.99 132.67L827.05 132.69C828.03 133 828.92 133.55 829.66 134.27C832.82 137.33 842.06 144.14 842.06 144.14" stroke="black" stroke-miterlimit="10"/>
<path d="M809.1 136.7L808.65 139.19C808.57 140.01 808.87 140.81 809.47 141.37C811.09 142.87 814.51 145.86 817.57 147.32" stroke="black" stroke-miterlimit="10"/>
<path d="M810.48 142.3L810.12 144.57C809.88 146.04 810.29 147.55 811.27 148.68C813.47 151.22 818.98 156.56 827.03 160.26" stroke="black" stroke-miterlimit="10"/>
<path d="M797.24 143.75C797.24 143.75 795.72 155.81 796.1 160.26" stroke="black" stroke-miterlimit="10"/>
</g>
<mask id="mask2_532_3969" style="mask-type:luminance" maskUnits="userSpaceOnUse" x="876" y="122" width="150" height="110">
<path d="M1016.29 122.67H886.38C881.05 122.67 876.73 126.99 876.73 132.32V222.35C876.73 227.679 881.05 232 886.38 232H1016.29C1021.62 232 1025.94 227.679 1025.94 222.35V132.32C1025.94 126.99 1021.62 122.67 1016.29 122.67Z" fill="white"/>
</mask>
<g mask="url(#mask2_532_3969)">
<path d="M1016.29 122.67H886.38C881.05 122.67 876.73 126.99 876.73 132.32V222.35C876.73 227.679 881.05 232 886.38 232H1016.29C1021.62 232 1025.94 227.679 1025.94 222.35V132.32C1025.94 126.99 1021.62 122.67 1016.29 122.67Z" fill="#EE99C2"/>
<path d="M877.75 127.87L1024.92 127.81" stroke="white" stroke-miterlimit="10"/>
<path d="M892.48 232.8L893.24 222.32L897.62 209.75L906.29 197.84L916.48 189.84L926.76 184.7L927.9 184.22L932.67 186.51L940.1 188.41L948.67 189.46L959.71 188.51L968.76 185.75L972.48 184.41L974.29 184.6L981.43 187.08L989.52 191.65L994.19 195.37L995.05 196.41L967.62 196.22L962.76 198.99L960.95 201.56L953.33 221.46L939.24 222.89L936.57 228.8L935.81 232.22L892.48 232.8Z" fill="#A197FC"/>
<path d="M927.9 184.22L935.62 182.51L946.29 181.27L955.81 181.37L966 182.6L972.1 184.22L969.14 185.94L959.05 188.51L949.62 189.18L940.86 188.41L932.67 186.51L927.9 184.22Z" fill="#FFAB97"/>
<path d="M936.1 233.08V230.7L938.1 225.18L939.24 222.89L953.33 221.46L949.05 232.7L936.1 233.08Z" fill="#FFAB97"/>
<path d="M954.76 180.7L962.19 179.08L966 175.56L968.1 169.75L968.29 157.94L964.76 156.41L961.24 152.89L959.14 153.27L954.76 156.89L951.05 158.22L942.86 157.84L939.33 158.89L937.81 162.22L938.29 165.75L940 168.22L940.86 168.7L940.57 172.7L942.19 176.03L944.57 177.94L948.57 179.56L954.76 180.7Z" fill="#FFAB97"/>
<path d="M942.19 176.03L940.86 171.18V168.7L938.29 165.75L938 161.37L940.1 158.32L942.48 157.65L947.43 158.41L952.19 158.13L956.57 155.75L959.14 153.27L961.24 152.89L963.9 155.94L967.81 157.84L967.33 152.99L964.57 147.84L959.33 144.41L950.1 143.84L945.81 145.08L947.43 137.18L945.52 130.51L940.19 127.37L935.24 127.56L930.67 130.22L927.62 135.65L927.81 141.27L931.14 146.03L939.24 148.32L933.24 153.27L929.05 159.94L926.86 166.03L926.38 170.51L927.33 175.08L929.9 177.84L933.62 179.46H938L939.81 178.8L942.19 176.03Z" fill="#0C359E"/>
<path d="M1027.52 196.32L968.19 196.22L964.1 197.75L960.95 201.56L947.52 236.13L1032.1 233.94L1027.52 196.32Z" fill="#E2F1FE"/>
<path d="M892.65 232C892.23 225.5 893.77 198.07 927.14 184.76C927.14 184.76 946.83 176.89 975.02 184.89C983.02 187.16 989.59 191.41 994.89 196.34" stroke="black" stroke-miterlimit="10"/>
<path d="M972.35 184.51C972.35 184.51 951.02 195.3 927.91 184.64" stroke="black" stroke-miterlimit="10"/>
<path d="M929.43 205.97L927.51 212.59C925.95 217.97 930.1 223.3 935.7 223.11L939.46 222.98C939.46 222.98 936.92 226.41 935.9 232" stroke="black" stroke-miterlimit="10"/>
<path d="M939.46 222.99C939.46 222.99 945.17 221.97 953.05 221.85" stroke="black" stroke-miterlimit="10"/>
<path d="M949.05 232.64L960.47 202.76C961.97 198.88 965.69 196.3 969.85 196.27L1026.26 196.33" stroke="black" stroke-miterlimit="10"/>
<path d="M998.575 216.23C998.943 214.899 998.535 213.624 997.662 213.383C996.789 213.141 995.783 214.023 995.414 215.354C995.045 216.684 995.454 217.959 996.327 218.201C997.199 218.443 998.206 217.56 998.575 216.23Z" fill="white"/>
<path d="M961.08 152.83C961.08 152.83 962.89 156.73 967.94 157.78C967.94 157.78 967.84 143.97 954.51 143.78C941.18 143.59 926.41 154.92 926.51 171.11C926.51 171.11 926.51 181.11 939.37 179.21C939.37 179.21 941.94 178.07 942.27 175.92" stroke="black" stroke-miterlimit="10"/>
<path d="M961.33 153.18L959.82 153.16C959.53 153.16 959.25 153.26 959.03 153.46C957.92 154.48 954.26 157.71 951.8 158.29C948.88 158.99 942.28 157.91 942.28 157.91C942.28 157.91 938.66 158.32 938.15 161.18C937.64 164.04 937.9 167.31 941.96 169.08C941.96 169.08 943.61 169.52 945.71 168.95" stroke="black" stroke-miterlimit="10"/>
<path d="M967.94 157.78C967.94 157.78 970.61 174.41 962.67 178.54C954.91 182.57 946.02 179.77 942.51 176.17C942.32 175.97 942.16 175.76 942.03 175.52C941.54 174.61 940.47 172.18 940.65 168.35" stroke="black" stroke-miterlimit="10"/>
<path d="M960.32 163.64C960.32 163.64 960.65 166.31 960.94 167.31C961.23 168.31 958.99 168.45 958.99 168.45" stroke="black" stroke-width="0.7" stroke-miterlimit="10"/>
<path d="M956.34 162.95C956.671 162.95 956.94 162.681 956.94 162.35C956.94 162.019 956.671 161.75 956.34 161.75C956.009 161.75 955.74 162.019 955.74 162.35C955.74 162.681 956.009 162.95 956.34 162.95Z" stroke="black" stroke-width="0.7" stroke-miterlimit="10"/>
<path d="M954.2 160.64C954.2 160.64 955.72 159.45 957.2 159.47C956.09 159.02 954.82 159.48 954.25 160.54L954.2 160.64Z" stroke="black" stroke-width="0.7" stroke-linejoin="round"/>
<path d="M964.05 162.32C964.332 162.32 964.56 162.091 964.56 161.81C964.56 161.528 964.332 161.3 964.05 161.3C963.768 161.3 963.54 161.528 963.54 161.81C963.54 162.091 963.768 162.32 964.05 162.32Z" stroke="black" stroke-width="0.7" stroke-miterlimit="10"/>
<path d="M965.66 160.09C965.66 160.09 964.22 159.27 962.97 159.47C963.86 158.95 964.99 159.19 965.6 160.01L965.66 160.09Z" stroke="black" stroke-width="0.7" stroke-linejoin="round"/>
<path d="M962.84 172.02C962.84 172.02 960.98 174.45 958.13 173.78" stroke="black" stroke-width="0.7" stroke-linejoin="round"/>
<path d="M945.65 145.11C945.65 145.11 950.41 132.73 943.55 128.92C937.7 125.67 931.36 128.63 929.17 132.06C926.98 135.49 926.6 140.92 930.12 144.82C932.17 147.1 935.17 147.68 939.45 148.06" stroke="black" stroke-miterlimit="10"/>
</g>
<mask id="mask3_532_3969" style="mask-type:luminance" maskUnits="userSpaceOnUse" x="1048" y="177" width="135" height="98">
<path d="M1173.25 177.08H1058.19C1052.93 177.08 1048.67 181.342 1048.67 186.6V265.46C1048.67 270.718 1052.93 274.98 1058.19 274.98H1173.25C1178.51 274.98 1182.77 270.718 1182.77 265.46V186.6C1182.77 181.342 1178.51 177.08 1173.25 177.08Z" fill="white"/>
</mask>
<g mask="url(#mask3_532_3969)">
<path d="M1173.25 177.08H1058.19C1052.93 177.08 1048.67 181.342 1048.67 186.6V265.46C1048.67 270.718 1052.93 274.98 1058.19 274.98H1173.25C1178.51 274.98 1182.77 270.718 1182.77 265.46V186.6C1182.77 181.342 1178.51 177.08 1173.25 177.08Z" fill="#FFE3CA"/>
<path d="M1049.24 182.99L1181.94 182.6" stroke="white" stroke-miterlimit="10"/>
<path d="M1117.87 190.19L1114.1 193.24L1109.24 199.94L1107.11 205.14L1106.83 208L1108.29 213.11L1113.37 217.3L1120.03 218.89L1127.4 217.91L1132.95 214.86L1135.27 214.64L1137.43 212.89L1139.02 208.7L1138 205.21L1135.56 203.59L1133.17 204.13L1134.95 199.94L1134.22 197.18L1130.13 195.94L1121.52 192.95L1117.87 190.19Z" fill="#EEA5A6"/>
<path d="M1108.41 220.35L1114.25 219.84L1123.78 220.29L1131.14 221.62L1133.65 222L1131.49 224.38L1119.05 231.91L1117.27 232.57L1110.25 224.73L1108.41 220.35Z" fill="#EEA5A6"/>
<path d="M1144.29 260.41L1148.48 256.41L1156.86 252.41L1165.33 250.22L1168.57 260.99L1169.81 268.89L1170.57 279.75L1146.86 277.56L1144.29 260.41Z" fill="#EEA5A6"/>
<path d="M1093.11 204.19L1108.41 220.35L1110.25 224.73L1115.62 231.18L1117.27 232.57L1122.86 230.03L1131.49 224.38L1133.65 222L1142.29 224.8L1152.86 232.03L1159.05 238.99L1163.33 245.27L1165.33 250.22L1154 253.37L1146.38 257.84L1144.29 260.41L1146.86 277.56L1083.71 276.99L1084.76 272.8L1086.57 242.51L1072.73 222.7L1093.11 204.19Z" fill="#00A9FF"/>
<path d="M1133.17 204.13L1134.95 199.94L1134.22 197.18L1125.62 194.89L1119.33 191.65L1115.71 185.94L1116.1 181.56L1118.19 178.6L1121.05 177.27L1122.95 177.84L1127.43 184.6L1130.76 189.56L1140.1 194.32L1141.43 196.41L1141.62 198.8L1140.19 202.89L1138 205.21L1135.9 203.84L1133.17 204.13Z" fill="#176B87"/>
<path d="M1108.13 220.36C1120.96 218.16 1134.51 222.35 1134.51 222.35C1134.51 222.35 1168.41 228.57 1170.19 274.41" stroke="black" stroke-miterlimit="10"/>
<path d="M1086.59 242.87C1084.88 275.33 1085.08 273.15 1084.48 274.67" stroke="black" stroke-miterlimit="10"/>
<path d="M1165.37 250.41C1165.37 250.41 1151.02 252.44 1144.16 260.44C1143.16 261.6 1139.97 255.23 1139.97 255.23" stroke="black" stroke-miterlimit="10"/>
<path d="M1144.16 260.45C1144.16 260.45 1146.19 272.01 1146.45 274.8" stroke="black" stroke-miterlimit="10"/>
<path d="M1134 222.22C1134 222.22 1124.6 229.84 1117.49 232.64C1117.49 232.64 1111.52 228.57 1108.22 220.44C1108.22 220.44 1108.19 220.41 1108.13 220.36C1107.05 219.38 1096.49 209.73 1093.11 204.32L1073.05 222.98C1073.05 222.98 1082.36 237.22 1086.59 242.87" stroke="black" stroke-miterlimit="10"/>
<path d="M1131.65 205.49C1131.65 205.49 1135.02 202 1137.62 204.98C1140.22 207.96 1137.94 213.04 1135.97 214.12C1134 215.2 1131.08 214.82 1130 214.25" stroke="black" stroke-miterlimit="10"/>
<path d="M1132.6 215.08C1132.6 215.08 1130.28 216.89 1126.82 217.94C1123.06 219.08 1115.58 220.29 1109.3 214.19C1106.05 211.04 1106.49 205.99 1107.52 203.59C1109.62 198.7 1113.62 192.42 1118.12 190.32" stroke="black" stroke-miterlimit="10"/>
<path d="M1132.79 204.29C1132.79 204.29 1134.57 201.56 1134.69 200.48C1134.81 199.4 1135.13 198.19 1133.29 196.99C1131.45 195.79 1120.21 195.34 1116.66 187.85C1113.11 180.36 1120.03 176.17 1122.31 177.56C1124.59 178.95 1128.66 188.73 1132.02 190.45C1135.38 192.17 1141.23 193.94 1141.54 196.86C1141.85 199.78 1139.44 204.03 1138.11 205.62" stroke="black" stroke-miterlimit="10"/>
<path d="M1118.86 197.99L1115.47 200.92C1114.97 201.35 1114.69 202 1114.73 202.66L1114.77 203.42" stroke="black" stroke-width="0.7" stroke-miterlimit="10"/>
<path d="M1122.48 201.37C1122.85 201.37 1123.15 201.07 1123.15 200.7C1123.15 200.33 1122.85 200.03 1122.48 200.03C1122.11 200.03 1121.81 200.33 1121.81 200.7C1121.81 201.07 1122.11 201.37 1122.48 201.37Z" stroke="black" stroke-miterlimit="10"/>
<path d="M1122.27 196.73C1122.27 196.73 1124.18 196.87 1125.46 198.54L1125.34 198.26C1124.88 197.16 1123.73 196.52 1122.55 196.68L1122.26 196.72L1122.27 196.73Z" stroke="black" stroke-width="0.7" stroke-linecap="round" stroke-linejoin="round"/>
<path d="M1115.32 197.39C1115.63 197.39 1115.89 197.135 1115.89 196.82C1115.89 196.505 1115.63 196.25 1115.32 196.25C1115.01 196.25 1114.75 196.505 1114.75 196.82C1114.75 197.135 1115.01 197.39 1115.32 197.39Z" stroke="black" stroke-miterlimit="10"/>
<path d="M1118.25 195.13C1118.25 195.13 1117.27 193.83 1115.48 193.69L1115.73 193.65C1116.73 193.47 1117.72 193.99 1118.14 194.91L1118.24 195.13H1118.25Z" stroke="black" stroke-width="0.7" stroke-linecap="round" stroke-linejoin="round"/>
<path d="M1111.94 205.91C1111.94 205.91 1111.65 208.48 1115.46 208.35" stroke="black" stroke-width="0.7" stroke-miterlimit="10"/>
<path d="M1133.33 206.7C1133.33 206.7 1135.04 205.75 1136.47 206.22" stroke="black" stroke-miterlimit="10"/>
</g>
<path d="M1093.11 204.19L1089.05 195.43L1086.89 178.16L1089.3 163.18L1094.89 146.92L1099.46 138.29L1110.63 125.21L1110.19 121.91L1107.14 122.26L1100.25 128.83L1102.51 122.86L1103.4 107.65L1092.89 105.37L1090.7 106.13L1087.9 119.18L1087.56 110.1L1086.1 108.76L1083.81 109.62L1081.14 121.75L1070.86 146.22L1065.43 162.22L1063.27 174.51L1062.41 187.84L1063.87 202.16L1066.19 211.05L1069.62 217.81L1072.73 222.7L1093.11 204.19Z" fill="#EEA5A6"/>
<path d="M1085.62 139.43C1087.27 131.56 1095.27 130.92 1096.54 130.92C1097.81 130.92 1100.1 128.63 1100.1 128.63L1107.88 122.38C1108.55 121.84 1109.53 121.99 1110.02 122.69L1110.43 123.28C1111 124.11 1110.94 125.21 1110.27 125.97L1099.33 138.4C1099.33 138.4 1076.98 176.37 1093.11 204.3" stroke="black" stroke-miterlimit="10"/>
<path d="M1073.05 222.99C1059.34 206.36 1061.75 177.28 1065.18 163.69C1068.93 148.82 1077.6 129.77 1080.26 124.09C1080.79 122.95 1081.19 121.77 1081.44 120.54L1083.39 110.99C1083.59 110 1084.38 109.24 1085.38 109.08L1085.93 108.99C1086.84 108.84 1087.67 109.54 1087.68 110.47L1087.79 122.43" stroke="black" stroke-miterlimit="10"/>
<path d="M1093.62 105.4L1092.3 105.52C1091.42 105.6 1090.7 106.24 1090.52 107.1L1087.78 120.19" stroke="black" stroke-miterlimit="10"/>
<path d="M1102.38 123.3C1102.38 123.3 1100.6 126.54 1100.09 128.63" stroke="black" stroke-miterlimit="10"/>
<path d="M1118.24 94.7H1097.76C1095.58 94.7 1093.81 96.4684 1093.81 98.6499V119.51C1093.81 121.691 1095.58 123.46 1097.76 123.46H1118.24C1120.42 123.46 1122.19 121.691 1122.19 119.51V98.6499C1122.19 96.4684 1120.42 94.7 1118.24 94.7Z" fill="#FFE3CA"/>
<path d="M1109.43 89.1799L1106.57 82.4099" stroke="#00A9FF" stroke-miterlimit="10"/>
<path d="M1123.62 88.1299L1126.76 78.2199" stroke="#00A9FF" stroke-miterlimit="10"/>
<path d="M1133.81 98.8899L1143.9 98.9899" stroke="#00A9FF" stroke-miterlimit="10"/>
<path d="M955.54 70.5099H935.06C932.878 70.5099 931.11 72.2783 931.11 74.4599V95.3199C931.11 97.5014 932.878 99.2699 935.06 99.2699H955.54C957.722 99.2699 959.49 97.5014 959.49 95.3199V74.4599C959.49 72.2783 957.722 70.5099 955.54 70.5099Z" fill="#63B4B8"/>
<path d="M885.57 264.67H865.09C862.908 264.67 861.14 266.438 861.14 268.62V289.48C861.14 291.661 862.908 293.43 865.09 293.43H885.57C887.752 293.43 889.52 291.661 889.52 289.48V268.62C889.52 266.438 887.752 264.67 885.57 264.67Z" fill="#E78895"/>
<path d="M778.63 131.43H715.15C713.99 131.43 713.05 132.37 713.05 133.53V229.9C713.05 231.06 713.99 232 715.15 232H778.63C779.79 232 780.73 231.06 780.73 229.9V133.53C780.73 132.37 779.79 131.43 778.63 131.43Z" fill="#E2F1FE"/>
<path d="M765.25 70.0299H698.19C697.141 70.0299 696.29 70.8806 696.29 71.9299V84.6999C696.29 85.7493 697.141 86.5999 698.19 86.5999H765.25C766.299 86.5999 767.15 85.7493 767.15 84.6999V71.9299C767.15 70.8806 766.299 70.0299 765.25 70.0299Z" fill="#A197FC"/>
<path d="M704.86 77.6499H759.52" stroke="white" stroke-miterlimit="10"/>
<path d="M842.77 202.8H775.71C774.661 202.8 773.81 203.651 773.81 204.7V217.47C773.81 218.519 774.661 219.37 775.71 219.37H842.77C843.819 219.37 844.67 218.519 844.67 217.47V204.7C844.67 203.651 843.819 202.8 842.77 202.8Z" fill="#A197FC"/>
<path d="M782.38 210.41H837.05" stroke="white" stroke-miterlimit="10"/>
<path d="M951.29 87.8899C951.29 87.8899 951.05 92.5999 945.19 92.8899" stroke="#0C359E" stroke-miterlimit="10"/>
<path d="M939.19 87.8899C939.19 87.8899 939.43 92.5999 945.29 92.8899" stroke="#0C359E" stroke-miterlimit="10"/>
<path d="M945.19 92.8899L945.12 98.2999" stroke="#0C359E" stroke-miterlimit="10"/>
<path d="M945.52 72.5599H945.26C943.564 72.5599 942.19 73.9344 942.19 75.6299V87.3499C942.19 89.0455 943.564 90.42 945.26 90.42H945.52C947.216 90.42 948.59 89.0455 948.59 87.3499V75.6299C948.59 73.9344 947.216 72.5599 945.52 72.5599Z" stroke="#0C359E" stroke-miterlimit="10"/>
<path d="M1113.73 102.8H1103.21C1102.83 102.8 1102.52 103.109 1102.52 103.49V114.35C1102.52 114.731 1102.83 115.04 1103.21 115.04H1113.73C1114.11 115.04 1114.42 114.731 1114.42 114.35V103.49C1114.42 103.109 1114.11 102.8 1113.73 102.8Z" stroke="#A197FC" stroke-miterlimit="10"/>
<path d="M1114.62 106.89L1118.25 103.62C1118.36 103.52 1118.53 103.6 1118.53 103.74L1118.49 113.02C1118.49 113.15 1118.35 113.23 1118.24 113.16L1114.68 110.94" stroke="#A197FC" stroke-miterlimit="10"/>
<path d="M1102.52 105.46H1099.51C1098.78 105.46 1098.19 106.05 1098.2 106.78L1098.23 110.2C1098.23 110.92 1098.82 111.5 1099.54 111.5H1102.52" stroke="#A197FC" stroke-miterlimit="10"/>
<path d="M714.44 134.6L778.32 134.67" stroke="#00A9FF" stroke-miterlimit="10"/>
<path d="M734.86 147.65L773.43 147.75" stroke="#00A9FF" stroke-miterlimit="10"/>
<path d="M721.57 153.56C724.701 153.56 727.24 151.021 727.24 147.89C727.24 144.759 724.701 142.22 721.57 142.22C718.439 142.22 715.9 144.759 715.9 147.89C715.9 151.021 718.439 153.56 721.57 153.56Z" stroke="#00A9FF" stroke-miterlimit="10"/>
<path d="M735.14 167.46L773.71 167.56" stroke="#EE99C2" stroke-miterlimit="10"/>
<path d="M721.86 173.37C724.991 173.37 727.53 170.831 727.53 167.7C727.53 164.568 724.991 162.03 721.86 162.03C718.729 162.03 716.19 164.568 716.19 167.7C716.19 170.831 718.729 173.37 721.86 173.37Z" stroke="#EE99C2" stroke-miterlimit="10"/>
<path d="M735.43 186.51L774 186.6" stroke="#FFE3CA" stroke-miterlimit="10"/>
<path d="M722.14 192.42C725.271 192.42 727.81 189.881 727.81 186.75C727.81 183.618 725.271 181.08 722.14 181.08C719.009 181.08 716.47 183.618 716.47 186.75C716.47 189.881 719.009 192.42 722.14 192.42Z" stroke="#FFE3CA" stroke-miterlimit="10"/>
<path d="M735.05 204.7L773.62 204.8" stroke="#00A9FF" stroke-miterlimit="10"/>
<path d="M721.76 210.61C724.891 210.61 727.43 208.071 727.43 204.94C727.43 201.808 724.891 199.27 721.76 199.27C718.629 199.27 716.09 201.808 716.09 204.94C716.09 208.071 718.629 210.61 721.76 210.61Z" stroke="#00A9FF" stroke-miterlimit="10"/>
<path d="M737.62 221.74C739.774 221.74 741.52 219.994 741.52 217.84C741.52 215.686 739.774 213.94 737.62 213.94C735.466 213.94 733.72 215.686 733.72 217.84C733.72 219.994 735.466 221.74 737.62 221.74Z" stroke="#A197FC" stroke-miterlimit="10"/>
<path d="M748.48 217.65H767.05" stroke="#A197FC" stroke-miterlimit="10"/>
<path d="M875.52 284.6C878.834 284.6 881.52 281.914 881.52 278.6C881.52 275.286 878.834 272.6 875.52 272.6C872.206 272.6 869.52 275.286 869.52 278.6C869.52 281.914 872.206 284.6 875.52 284.6Z" stroke="#F6F5F5" stroke-miterlimit="10"/>
</svg>
