<svg width="1194" height="362" viewBox="0 0 1194 362" fill="none" xmlns="http://www.w3.org/2000/svg">
<rect width="1194" height="362" rx="45" fill="#279FF2"/>
<mask id="mask0_1000_413" style="mask-type:alpha" maskUnits="userSpaceOnUse" x="0" y="0" width="1194" height="362">
<rect width="1194" height="362" rx="45" fill="#279FF2"/>
</mask>
<g mask="url(#mask0_1000_413)">
<path d="M243 155.5C168 103.5 45.3333 114 -20.5 125L-33 458L384 493L1224 466L1215 264C1200.33 267 1166 275 1146 283C1121 293 1078 323 1048 322C1018 321 973 303 918 273C863 243 815 209 719 209C623 209 479.333 264 416 259C371 255.447 318.266 207.685 243 155.5Z" fill="#A0E9FF" fill-opacity="0.25"/>
</g>
<path d="M83.62 122V95.45H73.18V90.5H99.91V95.45H89.47V122H83.62ZM117.291 122V117.14L116.976 116.105V107.6C116.976 105.95 116.481 104.675 115.491 103.775C114.501 102.845 113.001 102.38 110.991 102.38C109.641 102.38 108.306 102.59 106.986 103.01C105.696 103.43 104.601 104.015 103.701 104.765L101.496 100.67C102.786 99.68 104.316 98.945 106.086 98.465C107.886 97.955 109.746 97.7 111.666 97.7C115.146 97.7 117.831 98.54 119.721 100.22C121.641 101.87 122.601 104.435 122.601 107.915V122H117.291ZM109.731 122.315C107.931 122.315 106.356 122.015 105.006 121.415C103.656 120.785 102.606 119.93 101.856 118.85C101.136 117.74 100.776 116.495 100.776 115.115C100.776 113.765 101.091 112.55 101.721 111.47C102.381 110.39 103.446 109.535 104.916 108.905C106.386 108.275 108.336 107.96 110.766 107.96H117.741V111.695H111.171C109.251 111.695 107.961 112.01 107.301 112.64C106.641 113.24 106.311 113.99 106.311 114.89C106.311 115.91 106.716 116.72 107.526 117.32C108.336 117.92 109.461 118.22 110.901 118.22C112.281 118.22 113.511 117.905 114.591 117.275C115.701 116.645 116.496 115.715 116.976 114.485L117.921 117.86C117.381 119.27 116.406 120.365 114.996 121.145C113.616 121.925 111.861 122.315 109.731 122.315ZM134.41 116.645L134.545 109.58L147.1 97.97H153.85L143.185 108.68L140.215 111.155L134.41 116.645ZM129.82 122V88.61H135.445V122H129.82ZM147.955 122L139.18 111.155L142.735 106.655L154.795 122H147.955ZM168.756 122.315C166.086 122.315 163.746 121.79 161.736 120.74C159.756 119.66 158.211 118.19 157.101 116.33C156.021 114.47 155.481 112.355 155.481 109.985C155.481 107.585 156.006 105.47 157.056 103.64C158.136 101.78 159.606 100.325 161.466 99.275C163.356 98.225 165.501 97.7 167.901 97.7C170.241 97.7 172.326 98.21 174.156 99.23C175.986 100.25 177.426 101.69 178.476 103.55C179.526 105.41 180.051 107.6 180.051 110.12C180.051 110.36 180.036 110.63 180.006 110.93C180.006 111.23 179.991 111.515 179.961 111.785H159.936V108.05H176.991L174.786 109.22C174.816 107.84 174.531 106.625 173.931 105.575C173.331 104.525 172.506 103.7 171.456 103.1C170.436 102.5 169.251 102.2 167.901 102.2C166.521 102.2 165.306 102.5 164.256 103.1C163.236 103.7 162.426 104.54 161.826 105.62C161.256 106.67 160.971 107.915 160.971 109.355V110.255C160.971 111.695 161.301 112.97 161.961 114.08C162.621 115.19 163.551 116.045 164.751 116.645C165.951 117.245 167.331 117.545 168.891 117.545C170.241 117.545 171.456 117.335 172.536 116.915C173.616 116.495 174.576 115.835 175.416 114.935L178.431 118.4C177.351 119.66 175.986 120.635 174.336 121.325C172.716 121.985 170.856 122.315 168.756 122.315ZM199.871 131.045C198.701 131.045 197.531 130.85 196.361 130.46C195.191 130.07 194.216 129.53 193.436 128.84L195.686 124.7C196.256 125.21 196.901 125.615 197.621 125.915C198.341 126.215 199.076 126.365 199.826 126.365C200.846 126.365 201.671 126.11 202.301 125.6C202.931 125.09 203.516 124.235 204.056 123.035L205.451 119.885L205.901 119.21L214.991 97.97H220.391L209.141 123.935C208.391 125.735 207.551 127.16 206.621 128.21C205.721 129.26 204.701 129.995 203.561 130.415C202.451 130.835 201.221 131.045 199.871 131.045ZM204.821 122.855L193.976 97.97H199.826L208.646 118.715L204.821 122.855ZM234.048 122.315C231.588 122.315 229.398 121.79 227.478 120.74C225.558 119.66 224.043 118.19 222.933 116.33C221.823 114.47 221.268 112.355 221.268 109.985C221.268 107.585 221.823 105.47 222.933 103.64C224.043 101.78 225.558 100.325 227.478 99.275C229.398 98.225 231.588 97.7 234.048 97.7C236.538 97.7 238.743 98.225 240.663 99.275C242.613 100.325 244.128 101.765 245.208 103.595C246.318 105.425 246.873 107.555 246.873 109.985C246.873 112.355 246.318 114.47 245.208 116.33C244.128 118.19 242.613 119.66 240.663 120.74C238.743 121.79 236.538 122.315 234.048 122.315ZM234.048 117.5C235.428 117.5 236.658 117.2 237.738 116.6C238.818 116 239.658 115.13 240.258 113.99C240.888 112.85 241.203 111.515 241.203 109.985C241.203 108.425 240.888 107.09 240.258 105.98C239.658 104.84 238.818 103.97 237.738 103.37C236.658 102.77 235.443 102.47 234.093 102.47C232.713 102.47 231.483 102.77 230.403 103.37C229.353 103.97 228.513 104.84 227.883 105.98C227.253 107.09 226.938 108.425 226.938 109.985C226.938 111.515 227.253 112.85 227.883 113.99C228.513 115.13 229.353 116 230.403 116.6C231.483 117.2 232.698 117.5 234.048 117.5ZM262.422 122.315C260.382 122.315 258.582 121.94 257.022 121.19C255.462 120.41 254.247 119.24 253.377 117.68C252.507 116.09 252.072 114.095 252.072 111.695V97.97H257.697V110.93C257.697 113.09 258.177 114.71 259.137 115.79C260.127 116.84 261.522 117.365 263.322 117.365C264.642 117.365 265.782 117.095 266.742 116.555C267.732 116.015 268.497 115.205 269.037 114.125C269.607 113.045 269.892 111.71 269.892 110.12V97.97H275.517V122H270.162V115.52L271.107 117.5C270.297 119.06 269.112 120.26 267.552 121.1C265.992 121.91 264.282 122.315 262.422 122.315ZM282.881 122V97.97H288.236V104.585L287.606 102.65C288.326 101.03 289.451 99.8 290.981 98.96C292.541 98.12 294.476 97.7 296.786 97.7V103.055C296.546 102.995 296.321 102.965 296.111 102.965C295.901 102.935 295.691 102.92 295.481 102.92C293.351 102.92 291.656 103.55 290.396 104.81C289.136 106.04 288.506 107.885 288.506 110.345V122H282.881ZM314.754 122V90.5H320.604V117.05H337.074V122H314.754ZM352.228 122.315C349.558 122.315 347.218 121.79 345.208 120.74C343.228 119.66 341.683 118.19 340.573 116.33C339.493 114.47 338.953 112.355 338.953 109.985C338.953 107.585 339.478 105.47 340.528 103.64C341.608 101.78 343.078 100.325 344.938 99.275C346.828 98.225 348.973 97.7 351.373 97.7C353.713 97.7 355.798 98.21 357.628 99.23C359.458 100.25 360.898 101.69 361.948 103.55C362.998 105.41 363.523 107.6 363.523 110.12C363.523 110.36 363.508 110.63 363.478 110.93C363.478 111.23 363.463 111.515 363.433 111.785H343.408V108.05H360.463L358.258 109.22C358.288 107.84 358.003 106.625 357.403 105.575C356.803 104.525 355.978 103.7 354.928 103.1C353.908 102.5 352.723 102.2 351.373 102.2C349.993 102.2 348.778 102.5 347.728 103.1C346.708 103.7 345.898 104.54 345.298 105.62C344.728 106.67 344.443 107.915 344.443 109.355V110.255C344.443 111.695 344.773 112.97 345.433 114.08C346.093 115.19 347.023 116.045 348.223 116.645C349.423 117.245 350.803 117.545 352.363 117.545C353.713 117.545 354.928 117.335 356.008 116.915C357.088 116.495 358.048 115.835 358.888 114.935L361.903 118.4C360.823 119.66 359.458 120.635 357.808 121.325C356.188 121.985 354.328 122.315 352.228 122.315ZM383.072 122V117.14L382.757 116.105V107.6C382.757 105.95 382.262 104.675 381.272 103.775C380.282 102.845 378.782 102.38 376.772 102.38C375.422 102.38 374.087 102.59 372.767 103.01C371.477 103.43 370.382 104.015 369.482 104.765L367.277 100.67C368.567 99.68 370.097 98.945 371.867 98.465C373.667 97.955 375.527 97.7 377.447 97.7C380.927 97.7 383.612 98.54 385.502 100.22C387.422 101.87 388.382 104.435 388.382 107.915V122H383.072ZM375.512 122.315C373.712 122.315 372.137 122.015 370.787 121.415C369.437 120.785 368.387 119.93 367.637 118.85C366.917 117.74 366.557 116.495 366.557 115.115C366.557 113.765 366.872 112.55 367.502 111.47C368.162 110.39 369.227 109.535 370.697 108.905C372.167 108.275 374.117 107.96 376.547 107.96H383.522V111.695H376.952C375.032 111.695 373.742 112.01 373.082 112.64C372.422 113.24 372.092 113.99 372.092 114.89C372.092 115.91 372.497 116.72 373.307 117.32C374.117 117.92 375.242 118.22 376.682 118.22C378.062 118.22 379.292 117.905 380.372 117.275C381.482 116.645 382.277 115.715 382.757 114.485L383.702 117.86C383.162 119.27 382.187 120.365 380.777 121.145C379.397 121.925 377.642 122.315 375.512 122.315ZM395.601 122V97.97H400.956V104.585L400.326 102.65C401.046 101.03 402.171 99.8 403.701 98.96C405.261 98.12 407.196 97.7 409.506 97.7V103.055C409.266 102.995 409.041 102.965 408.831 102.965C408.621 102.935 408.411 102.92 408.201 102.92C406.071 102.92 404.376 103.55 403.116 104.81C401.856 106.04 401.226 107.885 401.226 110.345V122H395.601ZM427.913 97.7C429.833 97.7 431.543 98.075 433.043 98.825C434.573 99.575 435.773 100.73 436.643 102.29C437.513 103.82 437.948 105.8 437.948 108.23V122H432.323V108.95C432.323 106.82 431.813 105.23 430.793 104.18C429.803 103.13 428.408 102.605 426.608 102.605C425.288 102.605 424.118 102.875 423.098 103.415C422.078 103.955 421.283 104.765 420.713 105.845C420.173 106.895 419.903 108.23 419.903 109.85V122H414.278V97.97H419.633V104.45L418.688 102.47C419.528 100.94 420.743 99.77 422.333 98.96C423.953 98.12 425.813 97.7 427.913 97.7ZM445.084 122V97.97H450.709V122H445.084ZM447.919 94.01C446.869 94.01 445.999 93.68 445.309 93.02C444.649 92.36 444.319 91.565 444.319 90.635C444.319 89.675 444.649 88.88 445.309 88.25C445.999 87.59 446.869 87.26 447.919 87.26C448.969 87.26 449.824 87.575 450.484 88.205C451.174 88.805 451.519 89.57 451.519 90.5C451.519 91.49 451.189 92.33 450.529 93.02C449.869 93.68 448.999 94.01 447.919 94.01ZM471.726 97.7C473.646 97.7 475.356 98.075 476.856 98.825C478.386 99.575 479.586 100.73 480.456 102.29C481.326 103.82 481.761 105.8 481.761 108.23V122H476.136V108.95C476.136 106.82 475.626 105.23 474.606 104.18C473.616 103.13 472.221 102.605 470.421 102.605C469.101 102.605 467.931 102.875 466.911 103.415C465.891 103.955 465.096 104.765 464.526 105.845C463.986 106.895 463.716 108.23 463.716 109.85V122H458.091V97.97H463.446V104.45L462.501 102.47C463.341 100.94 464.556 99.77 466.146 98.96C467.766 98.12 469.626 97.7 471.726 97.7ZM499.831 131.045C497.611 131.045 495.436 130.745 493.306 130.145C491.206 129.575 489.481 128.735 488.131 127.625L490.651 123.395C491.701 124.265 493.021 124.955 494.611 125.465C496.231 126.005 497.866 126.275 499.516 126.275C502.156 126.275 504.091 125.66 505.321 124.43C506.551 123.23 507.166 121.415 507.166 118.985V114.71L507.616 109.265L507.436 103.82V97.97H512.791V118.355C512.791 122.705 511.681 125.9 509.461 127.94C507.241 130.01 504.031 131.045 499.831 131.045ZM499.111 120.92C496.831 120.92 494.761 120.44 492.901 119.48C491.071 118.49 489.616 117.125 488.536 115.385C487.486 113.645 486.961 111.605 486.961 109.265C486.961 106.955 487.486 104.93 488.536 103.19C489.616 101.45 491.071 100.1 492.901 99.14C494.761 98.18 496.831 97.7 499.111 97.7C501.151 97.7 502.981 98.105 504.601 98.915C506.221 99.725 507.511 100.985 508.471 102.695C509.461 104.405 509.956 106.595 509.956 109.265C509.956 111.935 509.461 114.14 508.471 115.88C507.511 117.59 506.221 118.865 504.601 119.705C502.981 120.515 501.151 120.92 499.111 120.92ZM499.966 116.15C501.376 116.15 502.636 115.865 503.746 115.295C504.856 114.695 505.711 113.885 506.311 112.865C506.941 111.815 507.256 110.615 507.256 109.265C507.256 107.915 506.941 106.73 506.311 105.71C505.711 104.66 504.856 103.865 503.746 103.325C502.636 102.755 501.376 102.47 499.966 102.47C498.556 102.47 497.281 102.755 496.141 103.325C495.031 103.865 494.161 104.66 493.531 105.71C492.931 106.73 492.631 107.915 492.631 109.265C492.631 110.615 492.931 111.815 493.531 112.865C494.161 113.885 495.031 114.695 496.141 115.295C497.281 115.865 498.556 116.15 499.966 116.15ZM541.668 122.315C539.028 122.315 536.988 121.64 535.548 120.29C534.108 118.91 533.388 116.885 533.388 114.215V92.66H539.013V114.08C539.013 115.22 539.298 116.105 539.868 116.735C540.468 117.365 541.293 117.68 542.343 117.68C543.603 117.68 544.653 117.35 545.493 116.69L547.068 120.695C546.408 121.235 545.598 121.64 544.638 121.91C543.678 122.18 542.688 122.315 541.668 122.315ZM529.428 102.65V98.15H545.448V102.65H529.428ZM561.704 122.315C559.244 122.315 557.054 121.79 555.134 120.74C553.214 119.66 551.699 118.19 550.589 116.33C549.479 114.47 548.924 112.355 548.924 109.985C548.924 107.585 549.479 105.47 550.589 103.64C551.699 101.78 553.214 100.325 555.134 99.275C557.054 98.225 559.244 97.7 561.704 97.7C564.194 97.7 566.399 98.225 568.319 99.275C570.269 100.325 571.784 101.765 572.864 103.595C573.974 105.425 574.529 107.555 574.529 109.985C574.529 112.355 573.974 114.47 572.864 116.33C571.784 118.19 570.269 119.66 568.319 120.74C566.399 121.79 564.194 122.315 561.704 122.315ZM561.704 117.5C563.084 117.5 564.314 117.2 565.394 116.6C566.474 116 567.314 115.13 567.914 113.99C568.544 112.85 568.859 111.515 568.859 109.985C568.859 108.425 568.544 107.09 567.914 105.98C567.314 104.84 566.474 103.97 565.394 103.37C564.314 102.77 563.099 102.47 561.749 102.47C560.369 102.47 559.139 102.77 558.059 103.37C557.009 103.97 556.169 104.84 555.539 105.98C554.909 107.09 554.594 108.425 554.594 109.985C554.594 111.515 554.909 112.85 555.539 113.99C556.169 115.13 557.009 116 558.059 116.6C559.139 117.2 560.354 117.5 561.704 117.5ZM85.735 172.315C83.095 172.315 81.055 171.64 79.615 170.29C78.175 168.91 77.455 166.885 77.455 164.215V142.66H83.08V164.08C83.08 165.22 83.365 166.105 83.935 166.735C84.535 167.365 85.36 167.68 86.41 167.68C87.67 167.68 88.72 167.35 89.56 166.69L91.135 170.695C90.475 171.235 89.665 171.64 88.705 171.91C87.745 172.18 86.755 172.315 85.735 172.315ZM73.495 152.65V148.15H89.515V152.65H73.495ZM109.397 147.7C111.317 147.7 113.027 148.075 114.527 148.825C116.057 149.575 117.257 150.73 118.127 152.29C118.997 153.82 119.432 155.8 119.432 158.23V172H113.807V158.95C113.807 156.82 113.297 155.23 112.277 154.18C111.287 153.13 109.892 152.605 108.092 152.605C106.772 152.605 105.602 152.875 104.582 153.415C103.562 153.955 102.767 154.765 102.197 155.845C101.657 156.895 101.387 158.23 101.387 159.85V172H95.7623V138.61H101.387V154.45L100.172 152.47C101.012 150.94 102.227 149.77 103.817 148.96C105.437 148.12 107.297 147.7 109.397 147.7ZM137.907 172.315C135.237 172.315 132.897 171.79 130.887 170.74C128.907 169.66 127.362 168.19 126.252 166.33C125.172 164.47 124.632 162.355 124.632 159.985C124.632 157.585 125.157 155.47 126.207 153.64C127.287 151.78 128.757 150.325 130.617 149.275C132.507 148.225 134.652 147.7 137.052 147.7C139.392 147.7 141.477 148.21 143.307 149.23C145.137 150.25 146.577 151.69 147.627 153.55C148.677 155.41 149.202 157.6 149.202 160.12C149.202 160.36 149.187 160.63 149.157 160.93C149.157 161.23 149.142 161.515 149.112 161.785H129.087V158.05H146.142L143.937 159.22C143.967 157.84 143.682 156.625 143.082 155.575C142.482 154.525 141.657 153.7 140.607 153.1C139.587 152.5 138.402 152.2 137.052 152.2C135.672 152.2 134.457 152.5 133.407 153.1C132.387 153.7 131.577 154.54 130.977 155.62C130.407 156.67 130.122 157.915 130.122 159.355V160.255C130.122 161.695 130.452 162.97 131.112 164.08C131.772 165.19 132.702 166.045 133.902 166.645C135.102 167.245 136.482 167.545 138.042 167.545C139.392 167.545 140.607 167.335 141.687 166.915C142.767 166.495 143.727 165.835 144.567 164.935L147.582 168.4C146.502 169.66 145.137 170.635 143.487 171.325C141.867 171.985 140.007 172.315 137.907 172.315ZM180.677 147.7C182.597 147.7 184.307 148.075 185.807 148.825C187.337 149.575 188.537 150.73 189.407 152.29C190.277 153.82 190.712 155.8 190.712 158.23V172H185.087V158.95C185.087 156.82 184.577 155.23 183.557 154.18C182.567 153.13 181.172 152.605 179.372 152.605C178.052 152.605 176.882 152.875 175.862 153.415C174.842 153.955 174.047 154.765 173.477 155.845C172.937 156.895 172.667 158.23 172.667 159.85V172H167.042V147.97H172.397V154.45L171.452 152.47C172.292 150.94 173.507 149.77 175.097 148.96C176.717 148.12 178.577 147.7 180.677 147.7ZM209.186 172.315C206.516 172.315 204.176 171.79 202.166 170.74C200.186 169.66 198.641 168.19 197.531 166.33C196.451 164.47 195.911 162.355 195.911 159.985C195.911 157.585 196.436 155.47 197.486 153.64C198.566 151.78 200.036 150.325 201.896 149.275C203.786 148.225 205.931 147.7 208.331 147.7C210.671 147.7 212.756 148.21 214.586 149.23C216.416 150.25 217.856 151.69 218.906 153.55C219.956 155.41 220.481 157.6 220.481 160.12C220.481 160.36 220.466 160.63 220.436 160.93C220.436 161.23 220.421 161.515 220.391 161.785H200.366V158.05H217.421L215.216 159.22C215.246 157.84 214.961 156.625 214.361 155.575C213.761 154.525 212.936 153.7 211.886 153.1C210.866 152.5 209.681 152.2 208.331 152.2C206.951 152.2 205.736 152.5 204.686 153.1C203.666 153.7 202.856 154.54 202.256 155.62C201.686 156.67 201.401 157.915 201.401 159.355V160.255C201.401 161.695 201.731 162.97 202.391 164.08C203.051 165.19 203.981 166.045 205.181 166.645C206.381 167.245 207.761 167.545 209.321 167.545C210.671 167.545 211.886 167.335 212.966 166.915C214.046 166.495 215.006 165.835 215.846 164.935L218.861 168.4C217.781 169.66 216.416 170.635 214.766 171.325C213.146 171.985 211.286 172.315 209.186 172.315ZM221.94 172L232.515 158.23L232.425 161.245L222.345 147.97H228.6L235.665 157.42H233.28L240.39 147.97H246.465L236.295 161.245L236.34 158.23L246.87 172H240.525L233.1 161.965L235.44 162.28L228.15 172H221.94ZM260.066 172.315C257.426 172.315 255.386 171.64 253.946 170.29C252.506 168.91 251.786 166.885 251.786 164.215V142.66H257.411V164.08C257.411 165.22 257.696 166.105 258.266 166.735C258.866 167.365 259.691 167.68 260.741 167.68C262.001 167.68 263.051 167.35 263.891 166.69L265.466 170.695C264.806 171.235 263.996 171.64 263.036 171.91C262.076 172.18 261.086 172.315 260.066 172.315ZM247.826 152.65V148.15H263.846V152.65H247.826ZM282.53 172V138.61H288.155V172H282.53ZM306.833 172.315C304.163 172.315 301.823 171.79 299.813 170.74C297.833 169.66 296.288 168.19 295.178 166.33C294.098 164.47 293.558 162.355 293.558 159.985C293.558 157.585 294.083 155.47 295.133 153.64C296.213 151.78 297.683 150.325 299.543 149.275C301.433 148.225 303.578 147.7 305.978 147.7C308.318 147.7 310.403 148.21 312.233 149.23C314.063 150.25 315.503 151.69 316.553 153.55C317.603 155.41 318.128 157.6 318.128 160.12C318.128 160.36 318.113 160.63 318.083 160.93C318.083 161.23 318.068 161.515 318.038 161.785H298.013V158.05H315.068L312.863 159.22C312.893 157.84 312.608 156.625 312.008 155.575C311.408 154.525 310.583 153.7 309.533 153.1C308.513 152.5 307.328 152.2 305.978 152.2C304.598 152.2 303.383 152.5 302.333 153.1C301.313 153.7 300.503 154.54 299.903 155.62C299.333 156.67 299.048 157.915 299.048 159.355V160.255C299.048 161.695 299.378 162.97 300.038 164.08C300.698 165.19 301.628 166.045 302.828 166.645C304.028 167.245 305.408 167.545 306.968 167.545C308.318 167.545 309.533 167.335 310.613 166.915C311.693 166.495 312.653 165.835 313.493 164.935L316.508 168.4C315.428 169.66 314.063 170.635 312.413 171.325C310.793 171.985 308.933 172.315 306.833 172.315ZM329.481 172L319.176 147.97H325.026L333.891 169.165H331.011L340.191 147.97H345.591L335.286 172H329.481ZM359.743 172.315C357.073 172.315 354.733 171.79 352.723 170.74C350.743 169.66 349.198 168.19 348.088 166.33C347.008 164.47 346.468 162.355 346.468 159.985C346.468 157.585 346.993 155.47 348.043 153.64C349.123 151.78 350.593 150.325 352.453 149.275C354.343 148.225 356.488 147.7 358.888 147.7C361.228 147.7 363.313 148.21 365.143 149.23C366.973 150.25 368.413 151.69 369.463 153.55C370.513 155.41 371.038 157.6 371.038 160.12C371.038 160.36 371.023 160.63 370.993 160.93C370.993 161.23 370.978 161.515 370.948 161.785H350.923V158.05H367.978L365.773 159.22C365.803 157.84 365.518 156.625 364.918 155.575C364.318 154.525 363.493 153.7 362.443 153.1C361.423 152.5 360.238 152.2 358.888 152.2C357.508 152.2 356.293 152.5 355.243 153.1C354.223 153.7 353.413 154.54 352.813 155.62C352.243 156.67 351.958 157.915 351.958 159.355V160.255C351.958 161.695 352.288 162.97 352.948 164.08C353.608 165.19 354.538 166.045 355.738 166.645C356.938 167.245 358.318 167.545 359.878 167.545C361.228 167.545 362.443 167.335 363.523 166.915C364.603 166.495 365.563 165.835 366.403 164.935L369.418 168.4C368.338 169.66 366.973 170.635 365.323 171.325C363.703 171.985 361.843 172.315 359.743 172.315ZM376.441 172V138.61H382.066V172H376.441Z" fill="white"/>
<path d="M1099.13 172.465L1099.43 167.552L1091.81 132.563L1083.35 101.65L1079.63 92.7804L1073.93 84.2753L1069.31 78.7647L1062.11 73.795L1054.37 70.8007L1045.67 69.3035L1032.75 68.7625L1023.14 69.3601L1013.51 71.436L1008.23 73.6755L1003.58 76.3931L998.865 80.5072L993.907 86.8608L988.986 95.0891L982.504 110.464L981.502 113.98L979.624 109.388L957.341 115.899L960.258 128.122L963.421 138.187L965.701 143.182L967.944 147.774C967.944 147.774 970.786 151.687 970.666 151.611C970.546 151.536 974.106 154.285 974.106 154.285L978.944 155.763L983.663 155.323L989.421 153.404L995.261 149.051L999.381 144.817L1002.86 139.306L1005.22 134.035L1007.5 127.644L1008.18 141.143L1065.58 142.301L1065.98 138.464L1076.94 176.805L1079.22 180.322L1099.12 172.471L1099.13 172.465Z" fill="#D8315B"/>
<path d="M1065.77 142.565L1008.19 141.131L964.908 324.7L1009.79 324.342L1030.43 214.82L1049.51 325.178L1099.85 324.637L1065.77 142.565Z" fill="#3E92CC"/>
<path d="M1079.23 180.31L1076.95 176.799L1099.43 167.552L1099.22 172.314L1079.23 180.31Z" fill="#FFFAFF"/>
<path d="M979.517 109.168L977.451 105.72L956.422 112.521L957.348 115.886L979.612 109.677L979.517 109.168Z" fill="#FFFAFF"/>
<path d="M974.553 59.012L958.431 62.4844L961.909 76.4624L971.548 90.5662L982.271 88.2449L974.553 59.012Z" fill="#7A9BB6"/>
<path d="M1024.43 69.1777L1024.79 73.9083L1025.3 76.7517L1026.74 79.7776L1029.62 82.3882L1032.77 83.6149L1037.48 84.0615L1041.65 82.6273L1044.95 79.809L1046.24 75.4684L1045.94 70.8259L1045.67 69.2972L1036.4 68.6367L1027.97 68.9638L1024.43 69.1777Z" fill="#FEC5BB"/>
<path d="M1099.22 172.314L1080.47 179.913L1081.99 185.267L1083.91 191.897L1087.67 198.446L1089.83 202.201L1091.67 202.597L1093.11 201.32L1093.91 199.88L1094.78 203.434L1096.19 204.667L1098.89 205.233L1100.12 206.101L1102.4 205.743L1104.11 204.787H1105.79L1106.96 203.289L1106.9 196.848L1105.64 190.375L1102.37 180.788L1099.13 172.465L1099.22 172.314Z" fill="#FEC5BB"/>
<path d="M975.92 105.84L971.302 94.8187L971.182 92.0319L972.77 86.6093L976.04 79.1485L975.92 77.3242L974.093 75.5566L973.91 73.2479L972.802 72.2036L970.37 71.9016L970.313 70.2849L969.437 69.2344L967.97 69.3854L967.012 69.7754L962.123 76.1856L961.247 73.3988L960.617 74.116L958.91 79.6581L958.608 82.0863L956.302 86.6722L956.207 94.9382L956.422 112.521L975.92 105.84Z" fill="#FEC5BB"/>
<path d="M1085.99 324.82L1050.23 325.178L1050.17 331.23L1049.27 332.186L1039.73 337.76L1039.37 342.49L1087.67 342.792L1085.99 324.82Z" fill="#1E1B18"/>
<path d="M999.709 324.279L964.908 324.7L963.528 331.526L962.634 332.369L951.294 336.797L950.569 338.055L950.21 342.912L997.787 343.088L999.709 324.279Z" fill="#1E1B18"/>
<path d="M1044.07 50.8403L1041.11 49.5066L1040.01 47.3301L1039.45 43.8702V42.9328L1036.95 43.0712L1035.19 43.7318L1032.17 44.4929L1029.31 44.8893L1026.55 45.0717L1023.65 44.2539L1024.93 40.7563L1027.01 38.1582L1029.03 36.6862L1036.27 34.7864L1040.19 35.1827L1041.64 35.5916L1043.23 36.0445L1045.75 37.9003L1047.39 39.9007L1048.99 42.1528L1049.97 45.3925L1050.83 47.7893L1051.17 50.683L1051.77 52.7023L1053.25 54.08L1056.61 57.2316L1059.23 58.9112L1061.65 61.4842L1062.73 63.4028L1063.47 65.7618L1063.65 69.3161L1063.89 74.6695L1057.91 71.8701L1050.43 69.9326L1042.79 69.0959L1034.33 68.794L1028.47 68.8757L1022.17 69.5174L1017.27 70.4736L1011.63 72.1721L1010.63 67.0766L1011.35 63.3462L1014.87 58.9679L1019.45 54.1555L1021.87 50.9598L1023.21 45.1723L1024.43 41.6747L1027.39 37.7996L1030.77 35.7237L1034.13 34.9688L1041.13 35.623L1043.23 36.0445" fill="#0A2463"/>
<path d="M1038.15 35.0256L1036.05 32.7483L1034.91 29.4331L1035.55 25.8411L1037.35 23.4255L1039.95 21.9849L1043.05 21.7458L1045.55 22.507L1047.23 24.1426L1048.51 25.9795L1049.13 28.1938L1048.93 30.5528L1048.01 32.7483L1046.67 34.2895L1044.59 35.5477L1043.01 35.9629L1042.09 36.1453L1038.15 35.0256Z" fill="#0A2463"/>
<path d="M1044.23 50.9033L1042.1 50.0667L1040.42 48.538L1039.82 46.4369L1039.34 43.0525L1037.93 42.8135L1036.43 43.4425L1034.69 44.015L1032.71 44.405L1029.44 44.9397L1026.68 44.9712L1023.53 44.3421L1022.96 49.0476L1022.99 56.4455L1023.26 60.6665L1024.07 62.8557L1025.99 65.46L1028.66 67.4982L1031.72 68.1839L1035.05 68.0392L1039.16 66.9572L1042.1 64.982L1044.62 61.5346L1046.12 58.5088L1046.54 57.735L1049.09 57.8231L1050.26 56.9236L1051.67 55.2439L1051.82 52.8472L1050.83 50.0918L1049.54 49.3118L1047.68 49.0476L1046.42 49.5571L1044.23 50.9033Z" fill="#FEC5BB"/>
<path d="M1034.03 58.8108L1029.92 58.9303L1030.28 59.9809L1030.91 60.849L1031.81 61.2076L1033.13 60.9056L1033.67 59.8613L1034.03 58.8108Z" fill="#D8315B"/>
<path d="M1024.45 69.2532C1024.45 69.2532 1023.74 79.9977 1030.79 82.9543C1034.75 84.6151 1039.52 84.3572 1042.84 81.8786C1044.8 80.4192 1045.91 78.0853 1046.03 75.6445C1046.11 74.1348 1046.05 72.0714 1045.6 69.4734" stroke="black" stroke-miterlimit="10"/>
<path d="M1057.91 109.615C1057.91 109.615 1075.99 174.956 1076.95 176.957L1099.47 167.571" stroke="black" stroke-miterlimit="10"/>
<path d="M1065.86 138.206L1065.71 142.452L1008.23 141.169L1006.07 104.425" stroke="black" stroke-miterlimit="10"/>
<path d="M987.833 129.745C986.989 127.43 979.631 109.457 979.631 109.457L957.348 115.93C957.348 115.93 963.623 148.082 973.589 153.869C982.226 158.889 992.332 152.542 996.868 147.56C999.577 144.591 1003.83 140.219 1007.42 127.36" stroke="black" stroke-miterlimit="10"/>
<path d="M979.631 109.457L977.312 105.582L956.359 112.489L957.348 115.924" stroke="black" stroke-miterlimit="10"/>
<path d="M956.359 112.489L956.239 88.5657C956.233 87.0999 956.617 85.6594 957.36 84.3886L962.243 76.0283C963.194 74.399 964.284 72.8641 965.506 71.4298L966.59 70.1591C967.207 69.4356 968.165 69.1085 969.097 69.3035H969.141C969.923 69.4734 970.496 70.1465 970.534 70.9454C970.584 72.0085 970.32 73.0591 969.778 73.9712C968.682 75.7955 966.848 78.922 966.351 80.1361" stroke="black" stroke-miterlimit="10"/>
<path d="M970.508 72.0337L972.361 72.1658C973.098 72.2287 973.715 72.7445 973.911 73.4617C974.188 74.4871 974.049 75.5816 973.52 76.5064C972.266 78.6955 969.992 82.7027 969.645 83.6212" stroke="black" stroke-miterlimit="10"/>
<path d="M973.973 75.4685L975.133 76.3429C975.561 76.67 975.882 77.123 976.034 77.6388C976.241 78.3245 976.191 79.0605 975.895 79.7085L972.531 87.1441C972.531 87.1441 971.088 91.0758 971.088 93.4348C971.088 95.7938 976.065 105.978 976.065 105.978" stroke="black" stroke-miterlimit="10"/>
<path d="M971.51 90.5032L982.252 88.2889L974.509 58.9302L958.368 62.5222L961.953 76.4624" stroke="black" stroke-miterlimit="10"/>
<path d="M968.001 67.2591C967.719 67.2591 967.491 67.031 967.491 66.7495C967.491 66.4681 967.719 66.24 968.001 66.24C968.283 66.24 968.511 66.4681 968.511 66.7495C968.511 67.031 968.283 67.2591 968.001 67.2591Z" stroke="black" stroke-miterlimit="10"/>
<path d="M958.633 82.1554C958.633 82.1554 959.156 76.0723 961.191 73.3484" stroke="black" stroke-miterlimit="10"/>
<path d="M1008.23 141.169L964.788 324.82L1009.67 324.342L1030.39 214.739" stroke="black" stroke-miterlimit="10"/>
<path d="M1065.71 142.446L1099.67 324.656L1049.43 325.14L1021.43 163.375" stroke="black" stroke-miterlimit="10"/>
<path d="M1052.75 142.087L1091.45 324.637" stroke="black" stroke-width="0.7" stroke-miterlimit="10"/>
<path d="M1044.23 141.911C1044.23 141.911 1043.09 154.492 1055.45 155.153" stroke="black" stroke-width="0.7" stroke-miterlimit="10"/>
<path d="M1041.35 212.241L1066.67 324.637" stroke="black" stroke-width="0.7" stroke-miterlimit="10"/>
<path d="M1005.47 199.062L977.029 324.7" stroke="black" stroke-width="0.7" stroke-miterlimit="10"/>
<path d="M1013.19 141.087C1013.19 141.087 1013.51 153.108 1005.27 153.907" stroke="black" stroke-width="0.7" stroke-miterlimit="10"/>
<path d="M1076.95 176.956L1079.27 180.372L1099.15 172.364L1099.48 167.571C1099.48 167.571 1088.32 111.212 1080.95 95.8755C1073.59 80.5387 1064.06 70.958 1045.91 69.3538C1030.99 68.0328 1017.12 68.5549 1005.91 74.9463C991.317 83.2752 982.712 109.457 981.433 114.565" stroke="black" stroke-miterlimit="10"/>
<path d="M1098.87 172.566C1098.87 172.566 1103.09 181.631 1105.49 190.438C1107.42 197.502 1107.07 201.95 1106.85 203.428C1106.8 203.774 1106.63 204.088 1106.37 204.327L1106.14 204.535C1105.69 204.938 1105.08 205.095 1104.5 204.957C1103.73 204.774 1103.19 204.088 1103.19 203.302C1103.21 200.962 1103.02 196.024 1101.29 192.356" stroke="black" stroke-miterlimit="10"/>
<path d="M1103.93 204.938L1102.47 205.724C1101.89 206.032 1101.24 206.17 1100.59 206.114C1099.47 206.026 1098.58 205.151 1098.47 204.038C1098.15 200.836 1097.43 194.52 1096.55 192.237" stroke="black" stroke-miterlimit="10"/>
<path d="M1098.68 205.177L1096.57 204.774C1095.49 204.39 1094.68 203.478 1094.44 202.352C1093.84 199.446 1092.63 193.916 1091.93 192.476" stroke="black" stroke-miterlimit="10"/>
<path d="M1080.39 180.152L1082.39 186.613C1082.74 187.751 1083.02 188.909 1083.32 190.066C1083.76 191.802 1084.56 193.488 1085.57 194.929L1089.54 201.824C1089.91 202.346 1090.52 202.648 1091.16 202.635C1091.93 202.616 1092.63 202.176 1092.99 201.484L1093.86 199.697" stroke="black" stroke-miterlimit="10"/>
<path d="M1085.75 324.757L1087.79 342.673L1039.58 342.711C1039.46 342.711 1039.35 342.604 1039.37 342.484L1039.56 338.754C1039.59 338.169 1039.92 337.646 1040.43 337.357L1049.16 332.331C1049.83 331.947 1050.24 331.236 1050.24 330.469V325.059" stroke="black" stroke-miterlimit="10"/>
<path d="M999.709 324.461L997.731 343.151L950.55 343.113C950.355 343.113 950.204 342.95 950.216 342.755L950.481 338.596C950.538 337.684 951.123 336.892 951.98 336.565L962.117 332.696C963.037 332.343 963.711 331.538 963.887 330.576L964.914 325.065" stroke="black" stroke-miterlimit="10"/>
<path d="M1044.39 50.985C1043.11 50.6642 1041.19 50.1043 1040.17 48.0284C1039.45 46.5437 1039.37 43.0776 1039.37 43.0776C1039.17 43.0147 1038.91 42.9769 1038.66 42.9643C1037.84 42.9203 1037.02 43.0839 1036.26 43.4047C1033.33 44.6314 1029.5 45.0654 1028.07 44.9962C1025.83 44.8893 1023.52 44.3231 1023.52 44.3231C1023.52 44.3231 1022.46 51.0479 1023.25 60.0122C1023.64 64.5918 1028.18 67.9636 1031.49 68.1586C1036.33 68.448 1042.5 67.863 1046.35 57.7035" stroke="black" stroke-miterlimit="10"/>
<path d="M1038.47 35.0191C1036.19 34.8115 1033.81 35.082 1031.56 35.623C1025.45 37.0825 1023.43 44.342 1023.43 44.342C1023.43 44.342 1022.52 50.4314 1020.66 52.7715C1018.79 55.1179 1011.33 61.7169 1010.79 65.0195C1010.42 67.3408 1011.16 70.3477 1011.67 72.2475" stroke="black" stroke-miterlimit="10"/>
<path d="M1051.24 50.8654C1050.73 45.7762 1048.87 42.4421 1048.87 42.4421C1047.37 39.0955 1045.13 37.0761 1042.54 35.9941" stroke="black" stroke-miterlimit="10"/>
<path d="M1063.87 74.9085C1063.89 73.1345 1063.88 68.8379 1063.43 65.8184C1062.84 61.9307 1059.21 58.8923 1057.45 57.8292C1055.69 56.7661 1051.8 52.8218 1051.8 52.8218" stroke="black" stroke-miterlimit="10"/>
<path d="M1030.31 50.9912L1028.75 55.1242C1028.59 55.5331 1028.83 55.9797 1029.25 56.0804L1031.37 56.3824" stroke="black" stroke-miterlimit="10"/>
<path d="M1036.89 49.821C1036.89 49.821 1035.07 48.8648 1033.47 49.6071L1033.74 49.4499C1034.67 48.9026 1035.85 48.9844 1036.69 49.6575L1036.89 49.8147L1036.89 49.821Z" stroke="black" stroke-linecap="round" stroke-linejoin="round"/>
<path d="M1034.79 52.4002C1034.55 52.4002 1034.36 52.2087 1034.36 51.9724C1034.36 51.7362 1034.55 51.5447 1034.79 51.5447C1035.02 51.5447 1035.22 51.7362 1035.22 51.9724C1035.22 52.2087 1035.02 52.4002 1034.79 52.4002Z" stroke="black" stroke-linecap="round" stroke-linejoin="round"/>
<path d="M1024.01 49.8715C1024.01 49.8715 1025.62 48.9531 1027.09 49.5758L1026.84 49.4437C1025.99 48.9782 1024.93 49.0915 1024.19 49.7205L1024.01 49.8715Z" stroke="black" stroke-linecap="round" stroke-linejoin="round"/>
<path d="M1025.97 52.1298C1025.76 52.1298 1025.59 51.958 1025.59 51.746C1025.59 51.5341 1025.76 51.3623 1025.97 51.3623C1026.19 51.3623 1026.36 51.5341 1026.36 51.746C1026.36 51.958 1026.19 52.1298 1025.97 52.1298Z" stroke="black" stroke-linecap="round" stroke-linejoin="round"/>
<path d="M1034.09 58.7854L1029.77 58.9427C1029.77 58.9427 1030.56 61.0123 1031.48 61.0752C1032.33 61.1255 1033.4 61.5659 1034.09 58.7854Z" stroke="black" stroke-width="0.7" stroke-linecap="round" stroke-linejoin="round"/>
<path d="M1038.47 35.0191C1036.39 33.7672 1035.01 31.4837 1035.01 28.8668C1035.01 24.9225 1038.16 21.7268 1042.05 21.7268C1045.94 21.7268 1049.09 24.9225 1049.09 28.8668C1049.09 32.811 1046.2 35.7362 1042.54 35.9941" stroke="black" stroke-linecap="round" stroke-linejoin="round"/>
<path d="M1050.23 54.4575C1050.23 54.4575 1050.83 51.9223 1048.63 50.7334" stroke="black" stroke-width="0.7" stroke-miterlimit="10"/>
<path d="M1044.11 51.0666L1044.7 50.4627C1045.49 49.6575 1046.48 49.3367 1047.71 49.2297L1048.66 49.2486C1049.85 49.2675 1050.92 50.0035 1051.36 51.1107C1051.77 52.1549 1051.92 53.2809 1051.8 54.3944C1051.65 55.879 1050.64 57.1435 1049.23 57.6278C1048.79 57.7788 1048.32 57.8417 1047.85 57.8103L1045.14 57.6215" stroke="black" stroke-miterlimit="10"/>
</svg>
