<svg width="7" height="12" viewBox="0 0 7 12" fill="none" xmlns="http://www.w3.org/2000/svg">
<path d="M3.40566 3.97815L1.89375 9.50777L1.4375 9.52477L2.97087 3.99068L3.40566 3.97815Z" fill="#79B2D9"/>
<path d="M4.23047 3.98622L4.65631 3.97369L6.21115 9.52031L5.74684 9.53284L4.23047 3.98622Z" fill="#79B2D9"/>
<path d="M3.56742 1.1324L3.7383 1L3.90827 1.01342L4.04068 1.14493L4.0702 1.26838L4.07467 2.40186L3.99773 2.56379L3.84833 2.61478H3.67835L3.5549 2.48238L3.50391 2.3294L3.5209 1.20934L3.56742 1.1324Z" fill="#79B2D9"/>
<path d="M1.89587 9.52302L1.44141 9.52929L2.98909 3.98535L3.42656 3.98804L1.89587 9.52302Z" stroke="black" stroke-width="0.2" stroke-miterlimit="10"/>
<path d="M1.44015 9.5293L1 11" stroke="black" stroke-width="0.2" stroke-miterlimit="10"/>
<path d="M5.76116 9.52302L6.21562 9.52929L4.66794 3.98535L4.23047 3.98804L5.76116 9.52302Z" stroke="black" stroke-width="0.2" stroke-miterlimit="10"/>
<path d="M6.21875 9.5293L6.6589 11" stroke="black" stroke-width="0.2" stroke-miterlimit="10"/>
<path d="M3.81228 5.41314C4.00201 5.41314 4.15582 5.25933 4.15582 5.06961C4.15582 4.87988 4.00201 4.72607 3.81228 4.72607C3.62256 4.72607 3.46875 4.87988 3.46875 5.06961C3.46875 5.25933 3.62256 5.41314 3.81228 5.41314Z" stroke="black" stroke-width="0.2" stroke-miterlimit="10"/>
<path d="M4.02606 5.97855C4.02606 5.84514 3.91792 5.737 3.78452 5.737C3.65111 5.737 3.54297 5.84514 3.54297 5.97855V6.43301C3.54297 6.56641 3.65111 6.67456 3.78452 6.67456C3.91792 6.67456 4.02606 6.56641 4.02606 6.43301V5.97855Z" stroke="black" stroke-width="0.2" stroke-miterlimit="10"/>
<path d="M4.02344 6.16101L4.83217 6.16548H4.83307" stroke="black" stroke-width="0.2" stroke-miterlimit="10"/>
<path d="M5.67903 6.16909L5.27734 6.1673" stroke="black" stroke-width="0.2" stroke-miterlimit="10"/>
<path d="M2.38167 6.15389L1.99609 6.1521" stroke="black" stroke-width="0.2" stroke-miterlimit="10"/>
<path d="M3.53991 6.15922L2.82422 6.15564" stroke="black" stroke-width="0.2" stroke-miterlimit="10"/>
<path d="M4.07452 1.28183C4.07452 1.12965 3.95116 1.00629 3.79898 1.00629C3.6468 1.00629 3.52344 1.12965 3.52344 1.28183V2.36074C3.52344 2.51291 3.6468 2.63628 3.79898 2.63628C3.95116 2.63628 4.07452 2.51291 4.07452 2.36074V1.28183Z" stroke="black" stroke-width="0.2" stroke-miterlimit="10"/>
<path d="M3.80078 2.63623L3.81241 4.72605" stroke="black" stroke-width="0.2" stroke-miterlimit="10"/>
<path d="M4.49799 4.94434C4.38975 4.99443 4.27523 5.03201 4.15625 5.05616" stroke="black" stroke-width="0.2" stroke-miterlimit="10"/>
<path d="M3.4679 5.0499C3.36055 5.02664 3.25767 4.99175 3.16016 4.94702" stroke="black" stroke-width="0.2" stroke-miterlimit="10"/>
<path d="M4.07422 1.87134C4.84985 1.99122 5.44298 2.66218 5.44298 3.47091C5.44298 3.96653 5.22022 4.41026 4.86864 4.70727" stroke="black" stroke-width="0.2" stroke-miterlimit="10"/>
<path d="M2.78495 4.71177C2.43158 4.41386 2.20703 3.96834 2.20703 3.47094C2.20703 2.6801 2.77511 2.02076 3.5248 1.88031" stroke="black" stroke-width="0.2" stroke-miterlimit="10"/>
</svg>
