<svg width="13" height="14" viewBox="0 0 12 9" fill="none" xmlns="http://www.w3.org/2000/svg">
<mask id="path-1-inside-1_725_2195" fill="white">
<path d="M10.98 7.41611L10.9796 7.42807C10.9788 7.47846 10.973 7.52735 10.9626 7.57427L7.30964 4.69339L10.9398 0.901638C10.9655 0.977526 10.98 1.06035 10.98 1.14773V7.41611ZM10.4404 8.06143H0.954749C0.860528 8.06143 0.771696 8.03198 0.694487 7.98105L4.42923 5.0393L5.69697 6.37788L6.98377 5.03379L10.7106 7.97255C10.631 8.02899 10.5384 8.06143 10.4404 8.06143ZM0.415116 7.41556V1.14773C0.415116 1.04389 0.435464 0.946586 0.471162 0.85975L4.10545 4.6974L0.435034 7.58828C0.422162 7.53334 0.415116 7.47547 0.415116 7.41556ZM0.954749 0.498875H10.4404C10.513 0.498875 10.5824 0.51635 10.6459 0.547766L6.94893 4.40942L6.62306 4.74935L5.69821 5.71556L4.78954 4.75581L4.46576 4.41391L0.788714 0.530834C0.841022 0.509823 0.896633 0.498875 0.954749 0.498875ZM10.4404 -0.000245094H0.954749C0.4284 -0.000245094 0 0.514854 0 1.14773V7.41658C0.00166838 8.04742 0.430063 8.56055 0.954749 8.56055H1.05232H1.22771H1.4031H1.57848H1.75387H1.92925H2.10464H2.28002H2.45541H2.6308H2.80619H2.98158H3.15696H3.33234H3.50771H3.68309H3.85847H4.03391H4.20928H4.38466H4.56004H4.73542H4.91079H5.08617H5.26161H5.43698H5.61236H5.78774H5.96312H6.1385H6.31387H6.48931H6.66468H6.84006H7.01544H7.19082H7.3662H7.54157H7.71695H7.89239H8.06776H8.24314H8.41852H8.5939H8.76928H8.94471H9.12009H9.29547H9.47084H9.64622H9.8216H9.99703H10.1724H10.3478H10.4404C10.9539 8.56055 11.3811 8.05993 11.3947 7.44399C11.3951 7.43351 11.3951 7.42304 11.3951 7.41257V1.14773C11.3951 0.514854 10.9668 -0.000245094 10.4404 -0.000245094Z"/>
</mask>
<path d="M10.98 7.41611H11.98V7.43267L11.9795 7.44922L10.98 7.41611ZM10.9796 7.42807L9.97977 7.41124L9.9799 7.4031L9.98017 7.39496L10.9796 7.42807ZM10.9626 7.57427L11.9391 7.78968L11.5956 9.34705L10.3434 8.35947L10.9626 7.57427ZM7.30964 4.69339L6.6904 5.47859L5.82609 4.79695L6.58731 4.00184L7.30964 4.69339ZM10.9398 0.901638L10.2174 0.210094L11.3566 -0.979767L11.8866 0.579877L10.9398 0.901638ZM0.694487 7.98105L0.143841 8.81579L-1.01275 8.05283L0.0757153 7.19548L0.694487 7.98105ZM4.42923 5.0393L3.81045 4.25373L4.52757 3.68888L5.15528 4.35167L4.42923 5.0393ZM5.69697 6.37788L6.4193 7.06943L5.69305 7.82801L4.97091 7.06552L5.69697 6.37788ZM6.98377 5.03379L6.26144 4.34225L6.88964 3.68608L7.60296 4.24855L6.98377 5.03379ZM10.7106 7.97255L11.3298 7.18731L12.3801 8.01551L11.2886 8.7886L10.7106 7.97255ZM0.471162 0.85975L-0.453735 0.479531L0.134126 -0.950464L1.19724 0.172143L0.471162 0.85975ZM4.10545 4.6974L4.83153 4.00979L5.58477 4.80518L4.72419 5.48299L4.10545 4.6974ZM0.435034 7.58828L1.05378 8.37387L-0.180289 9.34585L-0.538604 7.81638L0.435034 7.58828ZM10.6459 0.547766L11.0893 -0.348572L12.3102 0.255367L11.3682 1.2393L10.6459 0.547766ZM6.94893 4.40942L7.67127 5.10095L7.67081 5.10144L6.94893 4.40942ZM6.62306 4.74935L5.90066 4.05788L5.90118 4.05733L6.62306 4.74935ZM5.69821 5.71556L6.42061 6.40704L5.69425 7.16589L4.97205 6.40308L5.69821 5.71556ZM4.78954 4.75581L5.51563 4.06821L5.51571 4.06829L4.78954 4.75581ZM4.46576 4.41391L3.73967 5.10151L3.73965 5.10149L4.46576 4.41391ZM0.788714 0.530834L0.0626068 1.21842L-0.948261 0.150909L0.415965 -0.397098L0.788714 0.530834ZM0 7.41658L-1 7.41923V7.41658H0ZM11.3947 7.44399L10.395 7.42177L10.3952 7.41399L10.3955 7.40621L11.3947 7.44399ZM11.9795 7.44922L11.9791 7.46119L9.98017 7.39496L9.98057 7.38299L11.9795 7.44922ZM11.9795 7.44491C11.9775 7.56158 11.964 7.67701 11.9391 7.78968L9.98608 7.35887C9.98192 7.3777 9.98003 7.39535 9.97977 7.41124L11.9795 7.44491ZM10.3434 8.35947L6.6904 5.47859L7.92888 3.90819L11.5818 6.78908L10.3434 8.35947ZM6.58731 4.00184L10.2174 0.210094L11.6621 1.59318L8.03198 5.38493L6.58731 4.00184ZM11.8866 0.579877C11.9471 0.757923 11.98 0.949374 11.98 1.14773H9.98002C9.98002 1.17133 9.984 1.19713 9.99293 1.2234L11.8866 0.579877ZM11.98 1.14773V7.41611H9.98002V1.14773H11.98ZM10.4404 9.06143H0.954749V7.06143H10.4404V9.06143ZM0.954749 9.06143C0.646766 9.06143 0.36877 8.96417 0.143841 8.81579L1.24513 7.14631C1.17462 7.0998 1.07429 7.06143 0.954749 7.06143V9.06143ZM0.0757153 7.19548L3.81045 4.25373L5.048 5.82487L1.31326 8.76662L0.0757153 7.19548ZM5.15528 4.35167L6.42303 5.69025L4.97091 7.06552L3.70317 5.72694L5.15528 4.35167ZM4.97464 5.68634L6.26144 4.34225L7.7061 5.72534L6.4193 7.06943L4.97464 5.68634ZM7.60296 4.24855L11.3298 7.18731L10.0915 8.75779L6.36458 5.81904L7.60296 4.24855ZM11.2886 8.7886C11.0569 8.95271 10.7653 9.06143 10.4404 9.06143V7.06143C10.3115 7.06143 10.205 7.10527 10.1327 7.1565L11.2886 8.7886ZM-0.584884 7.41556V1.14773H1.41512V7.41556H-0.584884ZM-0.584884 1.14773C-0.584884 0.912488 -0.538648 0.686086 -0.453735 0.479531L1.39606 1.23997C1.40958 1.20709 1.41512 1.1753 1.41512 1.14773H-0.584884ZM1.19724 0.172143L4.83153 4.00979L3.37936 5.38501L-0.254922 1.54736L1.19724 0.172143ZM4.72419 5.48299L1.05378 8.37387L-0.183712 6.80269L3.4867 3.91181L4.72419 5.48299ZM-0.538604 7.81638C-0.568576 7.68844 -0.584884 7.55407 -0.584884 7.41556H1.41512C1.41512 7.39688 1.4129 7.37823 1.40867 7.36018L-0.538604 7.81638ZM0.954749 -0.501125H10.4404V1.49887H0.954749V-0.501125ZM10.4404 -0.501125C10.6766 -0.501125 10.8969 -0.443713 11.0893 -0.348572L10.2025 1.4441C10.2678 1.47641 10.3495 1.49887 10.4404 1.49887V-0.501125ZM11.3682 1.2393L7.67127 5.10095L6.22659 3.71788L9.92355 -0.14377L11.3682 1.2393ZM7.67081 5.10144L7.34494 5.44137L5.90118 4.05733L6.22705 3.7174L7.67081 5.10144ZM7.34546 5.44082L6.42061 6.40704L4.97581 5.02409L5.90066 4.05788L7.34546 5.44082ZM4.97205 6.40308L4.06337 5.44333L5.51571 4.06829L6.42438 5.02804L4.97205 6.40308ZM4.06345 5.44341L3.73967 5.10151L5.19185 3.72631L5.51563 4.06821L4.06345 5.44341ZM3.73965 5.10149L0.0626068 1.21842L1.51482 -0.156747L5.19187 3.72632L3.73965 5.10149ZM0.415965 -0.397098C0.58648 -0.465593 0.768598 -0.501125 0.954749 -0.501125V1.49887C1.02467 1.49887 1.09556 1.48524 1.16146 1.45877L0.415965 -0.397098ZM10.4404 0.999754H0.954749V-1.00025H10.4404V0.999754ZM0.954749 0.999754C0.989508 0.999754 1.01889 0.990621 1.03752 0.981129C1.0544 0.972528 1.05607 0.967152 1.04884 0.975849C1.03252 0.995473 1 1.05338 1 1.14773H-1C-1 0.143028 -0.288521 -1.00025 0.954749 -1.00025V0.999754ZM1 1.14773V7.41658H-1V1.14773H1ZM0.999996 7.41394C1.00024 7.50724 1.03257 7.56471 1.04896 7.58433C1.05621 7.59303 1.05458 7.58771 1.03777 7.57916C1.01922 7.56973 0.989782 7.56055 0.954749 7.56055V9.56055C-0.284825 9.56055 -0.997344 8.42199 -0.999996 7.41923L0.999996 7.41394ZM0.954749 7.56055H1.05232V9.56055H0.954749V7.56055ZM1.05232 7.56055H1.22771V9.56055H1.05232V7.56055ZM1.22771 7.56055H1.4031V9.56055H1.22771V7.56055ZM1.4031 7.56055H1.57848V9.56055H1.4031V7.56055ZM1.57848 7.56055H1.75387V9.56055H1.57848V7.56055ZM1.75387 7.56055H1.92925V9.56055H1.75387V7.56055ZM1.92925 7.56055H2.10464V9.56055H1.92925V7.56055ZM2.10464 7.56055H2.28002V9.56055H2.10464V7.56055ZM2.28002 7.56055H2.45541V9.56055H2.28002V7.56055ZM2.45541 7.56055H2.6308V9.56055H2.45541V7.56055ZM2.6308 7.56055H2.80619V9.56055H2.6308V7.56055ZM2.80619 7.56055H2.98158V9.56055H2.80619V7.56055ZM2.98158 7.56055H3.15696V9.56055H2.98158V7.56055ZM3.15696 7.56055H3.33234V9.56055H3.15696V7.56055ZM3.33234 7.56055H3.50771V9.56055H3.33234V7.56055ZM3.50771 7.56055H3.68309V9.56055H3.50771V7.56055ZM3.68309 7.56055H3.85847V9.56055H3.68309V7.56055ZM3.85847 7.56055H4.03391V9.56055H3.85847V7.56055ZM4.03391 7.56055H4.20928V9.56055H4.03391V7.56055ZM4.20928 7.56055H4.38466V9.56055H4.20928V7.56055ZM4.38466 7.56055H4.56004V9.56055H4.38466V7.56055ZM4.56004 7.56055H4.73542V9.56055H4.56004V7.56055ZM4.73542 7.56055H4.91079V9.56055H4.73542V7.56055ZM4.91079 7.56055H5.08617V9.56055H4.91079V7.56055ZM5.08617 7.56055H5.26161V9.56055H5.08617V7.56055ZM5.26161 7.56055H5.43698V9.56055H5.26161V7.56055ZM5.43698 7.56055H5.61236V9.56055H5.43698V7.56055ZM5.61236 7.56055H5.78774V9.56055H5.61236V7.56055ZM5.78774 7.56055H5.96312V9.56055H5.78774V7.56055ZM5.96312 7.56055H6.1385V9.56055H5.96312V7.56055ZM6.1385 7.56055H6.31387V9.56055H6.1385V7.56055ZM6.31387 7.56055H6.48931V9.56055H6.31387V7.56055ZM6.48931 7.56055H6.66468V9.56055H6.48931V7.56055ZM6.66468 7.56055H6.84006V9.56055H6.66468V7.56055ZM6.84006 7.56055H7.01544V9.56055H6.84006V7.56055ZM7.01544 7.56055H7.19082V9.56055H7.01544V7.56055ZM7.19082 7.56055H7.3662V9.56055H7.19082V7.56055ZM7.3662 7.56055H7.54157V9.56055H7.3662V7.56055ZM7.54157 7.56055H7.71695V9.56055H7.54157V7.56055ZM7.71695 7.56055H7.89239V9.56055H7.71695V7.56055ZM7.89239 7.56055H8.06776V9.56055H7.89239V7.56055ZM8.06776 7.56055H8.24314V9.56055H8.06776V7.56055ZM8.24314 7.56055H8.41852V9.56055H8.24314V7.56055ZM8.41852 7.56055H8.5939V9.56055H8.41852V7.56055ZM8.5939 7.56055H8.76928V9.56055H8.5939V7.56055ZM8.76928 7.56055H8.94471V9.56055H8.76928V7.56055ZM8.94471 7.56055H9.12009V9.56055H8.94471V7.56055ZM9.12009 7.56055H9.29547V9.56055H9.12009V7.56055ZM9.29547 7.56055H9.47084V9.56055H9.29547V7.56055ZM9.47084 7.56055H9.64622V9.56055H9.47084V7.56055ZM9.64622 7.56055H9.8216V9.56055H9.64622V7.56055ZM9.8216 7.56055H9.99703V9.56055H9.8216V7.56055ZM9.99703 7.56055H10.1724V9.56055H9.99703V7.56055ZM10.1724 7.56055H10.3478V9.56055H10.1724V7.56055ZM10.3478 7.56055H10.4404V9.56055H10.3478V7.56055ZM10.4404 7.56055C10.4032 7.56055 10.3731 7.57016 10.355 7.57929C10.3385 7.58759 10.3371 7.59255 10.3447 7.58371C10.3618 7.56364 10.3931 7.50842 10.395 7.42177L12.3945 7.4662C12.3726 8.4513 11.6566 9.56055 10.4404 9.56055V7.56055ZM10.3955 7.40621C10.3952 7.41327 10.3951 7.41799 10.3951 7.4188C10.3951 7.41908 10.3951 7.41857 10.3951 7.41257H12.3951C12.3951 7.41996 12.3953 7.44929 12.394 7.48176L10.3955 7.40621ZM10.3951 7.41257V1.14773H12.3951V7.41257H10.3951ZM10.3951 1.14773C10.3951 1.05335 10.3626 0.995447 10.3463 0.97584C10.3391 0.967152 10.3408 0.972535 10.3576 0.981137C10.3763 0.990631 10.4056 0.999754 10.4404 0.999754V-1.00025C11.6837 -1.00025 12.3951 0.143052 12.3951 1.14773H10.3951Z" fill="black" fill-opacity="0.55" mask="url(#path-1-inside-1_725_2195)"/>
</svg>
