<svg width="39" height="39" viewBox="0 0 39 39" fill="none" xmlns="http://www.w3.org/2000/svg">
<circle cx="19.5" cy="19.5" r="19" stroke="black" stroke-opacity="0.5"/>
<path d="M22 25V26C22 27.6569 20.6569 29 19 29C17.3431 29 16 27.6569 16 26V25.0001M22 25L16 25.0001M22 25H26C26.5523 25 27 24.5523 27 24V23.4141C27 23.1489 26.8945 22.8946 26.707 22.707L26.1963 22.1963C26.0706 22.0706 26 21.9 26 21.7222V18C26 17.8236 25.9936 17.6485 25.9805 17.4761M16 25.0001L12 25.0001C11.4477 25.0001 11 24.5521 11 23.9998V23.4141C11 23.1489 11.1054 22.8949 11.293 22.7073L11.8037 22.1958C11.9294 22.0701 12 21.9002 12 21.7224V18C12 14.134 15.134 11 19 11C19.7116 11 20.3984 11.1062 21.0454 11.3036M25.9805 17.4761C27.1868 16.7873 28 15.4886 28 14C28 11.7909 26.2091 10 24 10C22.8298 10 21.7769 10.5025 21.0454 11.3036M25.9805 17.4761C25.3966 17.8095 24.7205 18 24 18C21.7909 18 20 16.2091 20 14C20 12.9611 20.3961 12.0147 21.0454 11.3036M25.9805 17.4761C25.9805 17.4761 25.9805 17.4761 25.9805 17.4761ZM21.0454 11.3036C21.0459 11.3037 21.0464 11.3039 21.0468 11.304" stroke="black" stroke-opacity="0.8" stroke-width="1.5" stroke-linecap="round" stroke-linejoin="round"/>
</svg>
